<?xml version="1.0" encoding="UTF-8"?>
<svg xmlns="http://www.w3.org/2000/svg" xmlns:xlink="http://www.w3.org/1999/xlink" version="1.2" >
<font id="SFNS Text Italic">
<font-face  font-family="SFNS Text" units-per-em="2048" ascent="1980" descent="-432" font-style="italic" font-weight="400" font-stretch="normal" slope="-12" cap-height="1443" x-height="1078" underline-position="-50" underline-thickness="50" />
<missing-glyph  horiz-adv-x="1293" d="M350 1365 L1403 1365 L1113 0 L60 0 L350 1365 Z M519 303 Q519 258 550 230.5 Q581 203 630 203 Q682 203 714.5 231.5 Q747 260 747 306 Q747 352 715.5 380.5 Q684 409 633 409 Q582 409 550.5 380 Q519 351 519 303 Z M626 908 Q635 965 675.5 998 Q716 1031 776 1031 Q839 1031 877.5 1000.5 Q916 970 916 920 Q916 901 910 886 Q904 871 887.5 855 Q871 839 841.5 820 Q812 801 766 774 Q719 748 687.5 724 Q656 700 635 674.5 Q614 649 602.5 619.5 Q591 590 586 553 L580 511 L730 511 L737 550 Q741 571 748 587 Q755 603 771 618.5 Q787 634 815 652 Q843 670 889 697 Q939 725 975 752.5 Q1011 780 1034 808 Q1057 836 1067.5 866 Q1078 896 1078 929 Q1078 982 1057 1025.5 Q1036 1069 997 1099.5 Q958 1130 903 1147 Q848 1164 781 1164 Q715 1164 660.5 1146 Q606 1128 566 1095 Q526 1062 502 1014.5 Q478 967 474 908 L626 908 Z " />
<glyph glyph-name="space" unicode="&#x20;" horiz-adv-x="578" d="" />
<glyph glyph-name="A" unicode="A" horiz-adv-x="1380" d="M1015 413 L436 413 L204 0 L11 0 L856 1443 L1023 1443 L1249 0 L1073 0 L1015 413 Z M522 566 L995 566 L900 1207 L884 1207 L522 566 Z " />
<glyph glyph-name="Agrave" unicode="&#xc0;" horiz-adv-x="1380" d="M1015 413 L436 413 L204 0 L11 0 L856 1443 L1023 1443 L1249 0 L1073 0 L1015 413 Z M522 566 L995 566 L900 1207 L884 1207 L522 566 Z M1049 1575 L865 1575 L659 1873 L865 1873 L1049 1575 Z " />
<glyph glyph-name="Aacute" unicode="&#xc1;" horiz-adv-x="1380" d="M1015 413 L436 413 L204 0 L11 0 L856 1443 L1023 1443 L1249 0 L1073 0 L1015 413 Z M522 566 L995 566 L900 1207 L884 1207 L522 566 Z M1250 1873 L1476 1873 L1081 1575 L877 1575 L1250 1873 Z " />
<glyph glyph-name="Adieresis" unicode="&#xc4;" horiz-adv-x="1380" d="M1015 413 L436 413 L204 0 L11 0 L856 1443 L1023 1443 L1249 0 L1073 0 L1015 413 Z M522 566 L995 566 L900 1207 L884 1207 L522 566 Z M791 1575 Q766 1575 744 1584.5 Q722 1594 705.5 1610.5 Q689 1627 679.5 1649 Q670 1671 670 1696 Q670 1721 679.5 1743 Q689 1765 705.5 1781.5 Q722 1798 744 1807.5 Q766 1817 791 1817 Q816 1817 838 1807.5 Q860 1798 876.5 1781.5 Q893 1765 902.5 1743 Q912 1721 912 1696 Q912 1671 902.5 1649 Q893 1627 876.5 1610.5 Q860 1594 838 1584.5 Q816 1575 791 1575 Z M1195 1575 Q1170 1575 1148 1584.5 Q1126 1594 1109.5 1610.5 Q1093 1627 1083.5 1649 Q1074 1671 1074 1696 Q1074 1721 1083.5 1743 Q1093 1765 1109.5 1781.5 Q1126 1798 1148 1807.5 Q1170 1817 1195 1817 Q1220 1817 1242 1807.5 Q1264 1798 1280.5 1781.5 Q1297 1765 1306.5 1743 Q1316 1721 1316 1696 Q1316 1671 1306.5 1649 Q1297 1627 1280.5 1610.5 Q1264 1594 1242 1584.5 Q1220 1575 1195 1575 Z " />
<glyph glyph-name="Adieresismacron" unicode="&#x1de;" horiz-adv-x="1380" d="M1015 413 L436 413 L204 0 L11 0 L856 1443 L1023 1443 L1249 0 L1073 0 L1015 413 Z M522 566 L995 566 L900 1207 L884 1207 L522 566 Z M734 2062 L1408 2062 L1380 1932 L706 1932 L734 2062 Z M794 1575 Q770 1575 748.5 1584 Q727 1593 711 1609 Q695 1625 686 1646.5 Q677 1668 677 1692 Q677 1716 686 1737.5 Q695 1759 711 1775 Q727 1791 748.5 1800 Q770 1809 794 1809 Q818 1809 839.5 1800 Q861 1791 877 1775 Q893 1759 902 1737.5 Q911 1716 911 1692 Q911 1668 902 1646.5 Q893 1625 877 1609 Q861 1593 839.5 1584 Q818 1575 794 1575 Z M1198 1575 Q1174 1575 1152.5 1584 Q1131 1593 1115 1609 Q1099 1625 1090 1646.5 Q1081 1668 1081 1692 Q1081 1716 1090 1737.5 Q1099 1759 1115 1775 Q1131 1791 1152.5 1800 Q1174 1809 1198 1809 Q1222 1809 1243.5 1800 Q1265 1791 1281 1775 Q1297 1759 1306 1737.5 Q1315 1716 1315 1692 Q1315 1668 1306 1646.5 Q1297 1625 1281 1609 Q1265 1593 1243.5 1584 Q1222 1575 1198 1575 Z " />
<glyph glyph-name="Aring" unicode="&#xc5;" horiz-adv-x="1380" d="M1015 413 L436 413 L204 0 L11 0 L856 1443 L1023 1443 L1249 0 L1073 0 L1015 413 Z M522 566 L995 566 L900 1207 L884 1207 L522 566 Z M1015 1571 Q967 1571 924.5 1588.5 Q882 1606 850.5 1637 Q819 1668 801 1710 Q783 1752 783 1800 Q783 1848 801 1890 Q819 1932 850.5 1963 Q882 1994 924.5 2011.5 Q967 2029 1015 2029 Q1063 2029 1105 2011.5 Q1147 1994 1178.5 1963 Q1210 1932 1228.5 1890 Q1247 1848 1247 1800 Q1247 1752 1228.5 1710 Q1210 1668 1178.5 1637 Q1147 1606 1105 1588.5 Q1063 1571 1015 1571 Z M1015 1677 Q1041 1677 1063.5 1686.5 Q1086 1696 1102.5 1712.5 Q1119 1729 1128 1751.5 Q1137 1774 1137 1800 Q1137 1826 1128 1848.5 Q1119 1871 1102.5 1887.5 Q1086 1904 1063.5 1913.5 Q1041 1923 1015 1923 Q989 1923 966.5 1913.5 Q944 1904 927.5 1887.5 Q911 1871 902 1848.5 Q893 1826 893 1800 Q893 1774 902 1751.5 Q911 1729 927.5 1712.5 Q944 1696 966.5 1686.5 Q989 1677 1015 1677 Z " />
<glyph glyph-name="Aringacute" unicode="&#x1fa;" horiz-adv-x="1380" d="M1015 413 L436 413 L204 0 L11 0 L856 1443 L1023 1443 L1249 0 L1073 0 L1015 413 Z M522 566 L995 566 L900 1207 L884 1207 L522 566 Z M900 1730 Q900 1687 928.5 1657.5 Q957 1628 1000 1628 Q1043 1628 1071.5 1657.5 Q1100 1687 1100 1730 Q1100 1773 1071.5 1802.5 Q1043 1832 1000 1832 Q957 1832 928.5 1802.5 Q900 1773 900 1730 Z M1000 1533 Q958 1533 921.5 1548.5 Q885 1564 857.5 1590.5 Q830 1617 814 1653 Q798 1689 798 1731 Q798 1773 814 1809 Q830 1845 857.5 1871.5 Q885 1898 921.5 1913.5 Q958 1929 1000 1929 Q1042 1929 1078.5 1913.5 Q1115 1898 1142.5 1871.5 Q1170 1845 1186 1809 Q1202 1773 1202 1731 Q1202 1689 1186 1653 Q1170 1617 1142.5 1590.5 Q1115 1564 1078.5 1548.5 Q1042 1533 1000 1533 Z M1257 2173 L1083 1992 L922 1992 L1070 2173 L1257 2173 Z " />
<glyph glyph-name="Atilde" unicode="&#xc3;" horiz-adv-x="1380" d="M1015 413 L436 413 L204 0 L11 0 L856 1443 L1023 1443 L1249 0 L1073 0 L1015 413 Z M522 566 L995 566 L900 1207 L884 1207 L522 566 Z M1151 1575 Q1109 1575 1076 1587 Q1043 1599 1017 1617 Q991 1635 969.5 1656.5 Q948 1678 928.5 1696 Q909 1714 889.5 1726 Q870 1738 848 1738 Q759 1738 734 1620 L592 1620 Q602 1680 626 1727 Q650 1774 684.5 1806.5 Q719 1839 761.5 1856 Q804 1873 851 1873 Q893 1873 925.5 1861 Q958 1849 984 1831 Q1010 1813 1031.5 1791.5 Q1053 1770 1072.5 1752 Q1092 1734 1111.5 1722 Q1131 1710 1153 1710 Q1243 1710 1268 1828 L1410 1828 Q1400 1768 1376 1721 Q1352 1674 1317.5 1641.5 Q1283 1609 1240.5 1592 Q1198 1575 1151 1575 Z " />
<glyph glyph-name="Abrevegrave" unicode="&#x1eb0;" horiz-adv-x="1380" d="M1015 413 L436 413 L204 0 L11 0 L856 1443 L1023 1443 L1249 0 L1073 0 L1015 413 Z M522 566 L995 566 L900 1207 L884 1207 L522 566 Z M928 1873 L730 2095 L948 2095 L1120 1873 L928 1873 Z M789 1873 L789 1860 Q789 1826 804 1797.5 Q819 1769 845.5 1748 Q872 1727 908 1715.5 Q944 1704 985 1704 Q1070 1704 1127.5 1749 Q1185 1794 1205 1873 L1359 1873 Q1346 1804 1312 1749 Q1278 1694 1228.5 1655 Q1179 1616 1116 1595.5 Q1053 1575 981 1575 Q905 1575 842 1596 Q779 1617 734 1655 Q689 1693 664 1746 Q639 1799 639 1863 L639 1873 L789 1873 Z " />
<glyph glyph-name="Adotmacron" unicode="&#x1e0;" horiz-adv-x="1380" d="M1015 413 L436 413 L204 0 L11 0 L856 1443 L1023 1443 L1249 0 L1073 0 L1015 413 Z M522 566 L995 566 L900 1207 L884 1207 L522 566 Z M706 1932 L734 2062 L1408 2062 L1380 1932 L706 1932 Z M993 1577 Q968 1577 946.5 1586.5 Q925 1596 909 1612 Q893 1628 883.5 1649.5 Q874 1671 874 1696 Q874 1721 883.5 1742.5 Q893 1764 909 1780 Q925 1796 946.5 1805.5 Q968 1815 993 1815 Q1018 1815 1039.5 1805.5 Q1061 1796 1077 1780 Q1093 1764 1102.5 1742.5 Q1112 1721 1112 1696 Q1112 1671 1102.5 1649.5 Q1093 1628 1077 1612 Q1061 1596 1039.5 1586.5 Q1018 1577 993 1577 Z " />
<glyph glyph-name="Aringbelow" unicode="&#x1e00;" horiz-adv-x="1380" d="M1015 413 L436 413 L204 0 L11 0 L856 1443 L1023 1443 L1249 0 L1073 0 L1015 413 Z M522 566 L995 566 L900 1207 L884 1207 L522 566 Z M566 -573 Q518 -573 475.5 -555.5 Q433 -538 401.5 -507 Q370 -476 352 -434 Q334 -392 334 -344 Q334 -296 352 -254 Q370 -212 401.5 -181 Q433 -150 475.5 -132.5 Q518 -115 566 -115 Q614 -115 656 -132.5 Q698 -150 729.5 -181 Q761 -212 779.5 -254 Q798 -296 798 -344 Q798 -392 779.5 -434 Q761 -476 729.5 -507 Q698 -538 656 -555.5 Q614 -573 566 -573 Z M566 -467 Q592 -467 614.5 -457.5 Q637 -448 653.5 -431.5 Q670 -415 679 -392.5 Q688 -370 688 -344 Q688 -318 679 -295.5 Q670 -273 653.5 -256.5 Q637 -240 614.5 -230.5 Q592 -221 566 -221 Q540 -221 517.5 -230.5 Q495 -240 478.5 -256.5 Q462 -273 453 -295.5 Q444 -318 444 -344 Q444 -370 453 -392.5 Q462 -415 478.5 -431.5 Q495 -448 517.5 -457.5 Q540 -467 566 -467 Z " />
<glyph glyph-name="Acircumflex" unicode="&#xc2;" horiz-adv-x="1380" d="M1015 413 L436 413 L204 0 L11 0 L856 1443 L1023 1443 L1249 0 L1073 0 L1015 413 Z M522 566 L995 566 L900 1207 L884 1207 L522 566 Z M1304 1575 L1119 1575 L1014 1761 L998 1761 L815 1575 L608 1575 L918 1873 L1120 1873 L1304 1575 Z " />
<glyph glyph-name="Acircumflexdotbelow" unicode="&#x1eac;" horiz-adv-x="1380" d="M1015 413 L436 413 L204 0 L11 0 L856 1443 L1023 1443 L1249 0 L1073 0 L1015 413 Z M522 566 L995 566 L900 1207 L884 1207 L522 566 Z M1304 1575 L1119 1575 L1014 1761 L998 1761 L815 1575 L608 1575 L918 1873 L1120 1873 L1304 1575 Z M579 -402 Q554 -402 532 -392.5 Q510 -383 493.5 -366.5 Q477 -350 467.5 -328 Q458 -306 458 -281 Q458 -256 467.5 -234 Q477 -212 493.5 -195.5 Q510 -179 532 -169.5 Q554 -160 579 -160 Q604 -160 626 -169.5 Q648 -179 664.5 -195.5 Q681 -212 690.5 -234 Q700 -256 700 -281 Q700 -306 690.5 -328 Q681 -350 664.5 -366.5 Q648 -383 626 -392.5 Q604 -402 579 -402 Z " />
<glyph glyph-name="Acircumflexacute" unicode="&#x1ea4;" horiz-adv-x="1380" d="M1015 413 L436 413 L204 0 L11 0 L856 1443 L1023 1443 L1249 0 L1073 0 L1015 413 Z M522 566 L995 566 L900 1207 L884 1207 L522 566 Z M1388 2095 L1604 2095 L1307 1853 L1117 1853 L1388 2095 Z M1351 1575 L1139 1575 L1004 1711 L988 1711 L796 1575 L563 1575 L905 1808 L1107 1808 L1351 1575 Z " />
<glyph glyph-name="Acircumflextilde" unicode="&#x1eaa;" horiz-adv-x="1380" d="M1015 413 L436 413 L204 0 L11 0 L856 1443 L1023 1443 L1249 0 L1073 0 L1015 413 Z M522 566 L995 566 L900 1207 L884 1207 L522 566 Z M1351 1575 L1139 1575 L1004 1711 L988 1711 L796 1575 L563 1575 L905 1808 L1107 1808 L1351 1575 Z M1125 1854 Q1075 1854 1039.5 1873.5 Q1004 1893 976 1916 Q948 1939 923 1958.5 Q898 1978 868 1978 Q824 1978 797 1954 Q770 1930 754 1880 L612 1880 Q622 1938 647 1981.5 Q672 2025 706.5 2054 Q741 2083 782.5 2098 Q824 2113 867 2113 Q917 2113 952.5 2093.5 Q988 2074 1016 2051 Q1044 2028 1069 2008.5 Q1094 1989 1124 1989 Q1168 1989 1195 2013 Q1222 2037 1238 2087 L1380 2087 Q1370 2029 1345 1985.5 Q1320 1942 1285.5 1912.5 Q1251 1883 1209.5 1868.5 Q1168 1854 1125 1854 Z " />
<glyph glyph-name="Acircumflexgrave" unicode="&#x1ea6;" horiz-adv-x="1380" d="M1015 413 L436 413 L204 0 L11 0 L856 1443 L1023 1443 L1249 0 L1073 0 L1015 413 Z M522 566 L995 566 L900 1207 L884 1207 L522 566 Z M1197 1853 L1002 2095 L1218 2095 L1387 1853 L1197 1853 Z M1351 1575 L1139 1575 L1004 1711 L988 1711 L796 1575 L563 1575 L905 1808 L1107 1808 L1351 1575 Z " />
<glyph glyph-name="Acircumflexhookabove" unicode="&#x1ea8;" horiz-adv-x="1380" d="M1015 413 L436 413 L204 0 L11 0 L856 1443 L1023 1443 L1249 0 L1073 0 L1015 413 Z M522 566 L995 566 L900 1207 L884 1207 L522 566 Z M1149 2068 Q1195 2079 1244 2079 Q1298 2079 1341.5 2068 Q1385 2057 1415.5 2037 Q1446 2017 1463 1989 Q1480 1961 1480 1926 Q1480 1799 1331 1727 L1246 1813 Q1290 1832 1308.5 1851.5 Q1327 1871 1327 1897 Q1327 1962 1212 1962 Q1183 1962 1159.5 1959.5 Q1136 1957 1122 1952 L1149 2068 Z M1351 1575 L1139 1575 L1004 1711 L988 1711 L796 1575 L563 1575 L905 1808 L1107 1808 L1351 1575 Z " />
<glyph glyph-name="Abreve" unicode="&#x102;" horiz-adv-x="1380" d="M1015 413 L436 413 L204 0 L11 0 L856 1443 L1023 1443 L1249 0 L1073 0 L1015 413 Z M522 566 L995 566 L900 1207 L884 1207 L522 566 Z M639 1873 L789 1873 L789 1860 Q789 1826 804 1797.5 Q819 1769 845.5 1748 Q872 1727 908 1715.5 Q944 1704 985 1704 Q1070 1704 1127.5 1749 Q1185 1794 1205 1873 L1359 1873 Q1346 1804 1312 1749 Q1278 1694 1228.5 1655 Q1179 1616 1116 1595.5 Q1053 1575 981 1575 Q905 1575 842 1596 Q779 1617 734 1655 Q689 1693 664 1746 Q639 1799 639 1863 L639 1873 Z " />
<glyph glyph-name="Abreveacute" unicode="&#x1eae;" horiz-adv-x="1380" d="M1015 413 L436 413 L204 0 L11 0 L856 1443 L1023 1443 L1249 0 L1073 0 L1015 413 Z M522 566 L995 566 L900 1207 L884 1207 L522 566 Z M1138 2095 L1356 2095 L1062 1873 L870 1873 L1138 2095 Z M789 1873 L789 1860 Q789 1826 804 1797.5 Q819 1769 845.5 1748 Q872 1727 908 1715.5 Q944 1704 985 1704 Q1070 1704 1127.5 1749 Q1185 1794 1205 1873 L1359 1873 Q1346 1804 1312 1749 Q1278 1694 1228.5 1655 Q1179 1616 1116 1595.5 Q1053 1575 981 1575 Q905 1575 842 1596 Q779 1617 734 1655 Q689 1693 664 1746 Q639 1799 639 1863 L639 1873 L789 1873 Z " />
<glyph glyph-name="Abrevetilde" unicode="&#x1eb4;" horiz-adv-x="1380" d="M1015 413 L436 413 L204 0 L11 0 L856 1443 L1023 1443 L1249 0 L1073 0 L1015 413 Z M522 566 L995 566 L900 1207 L884 1207 L522 566 Z M750 1813 Q752 1793 766.5 1773 Q781 1753 806 1736.5 Q831 1720 866 1710 Q901 1700 944 1700 Q1036 1700 1093.5 1731 Q1151 1762 1164 1813 L1318 1813 Q1309 1763 1276.5 1719.5 Q1244 1676 1194 1644 Q1144 1612 1079.5 1593.5 Q1015 1575 940 1575 Q862 1575 799 1598 Q736 1621 691 1656 Q646 1691 622 1733 Q598 1775 598 1813 L750 1813 Z M1125 1854 Q1075 1854 1039 1873.5 Q1003 1893 974 1916 Q945 1939 919.5 1958.5 Q894 1978 864 1978 Q820 1978 795 1954.5 Q770 1931 754 1890 L612 1890 Q622 1944 647.5 1985.5 Q673 2027 708 2055.5 Q743 2084 784.5 2098.5 Q826 2113 867 2113 Q917 2113 953 2093.5 Q989 2074 1018 2051 Q1047 2028 1072.5 2008.5 Q1098 1989 1128 1989 Q1172 1989 1197 2013 Q1222 2037 1238 2087 L1380 2087 Q1370 2029 1345 1985.5 Q1320 1942 1285.5 1912.5 Q1251 1883 1209.5 1868.5 Q1168 1854 1125 1854 Z " />
<glyph glyph-name="Abrevehookabove" unicode="&#x1eb2;" horiz-adv-x="1380" d="M1015 413 L436 413 L204 0 L11 0 L856 1443 L1023 1443 L1249 0 L1073 0 L1015 413 Z M522 566 L995 566 L900 1207 L884 1207 L522 566 Z M905 2149 Q928 2157 963 2165 Q998 2173 1033 2173 Q1074 2173 1106.5 2161 Q1139 2149 1161 2128 Q1183 2107 1194.5 2078.5 Q1206 2050 1206 2016 Q1206 1975 1188 1939 Q1170 1903 1139.5 1874 Q1109 1845 1069.5 1825 Q1030 1805 987 1797 L949 1892 Q970 1894 991.5 1903 Q1013 1912 1029.5 1926 Q1046 1940 1056.5 1958.5 Q1067 1977 1067 1998 Q1067 2024 1049.5 2040.5 Q1032 2057 997 2057 Q964 2057 933.5 2052.5 Q903 2048 882 2040 L905 2149 Z M770 1813 Q772 1793 786.5 1773 Q801 1753 826 1736.5 Q851 1720 886 1710 Q921 1700 964 1700 Q1056 1700 1113.5 1731 Q1171 1762 1184 1813 L1338 1813 Q1329 1763 1296.5 1719.5 Q1264 1676 1214 1644 Q1164 1612 1099.5 1593.5 Q1035 1575 960 1575 Q882 1575 819 1598 Q756 1621 711 1656 Q666 1691 642 1733 Q618 1775 618 1813 L770 1813 Z " />
<glyph glyph-name="Abrevedotbelow" unicode="&#x1eb6;" horiz-adv-x="1380" d="M1015 413 L436 413 L204 0 L11 0 L856 1443 L1023 1443 L1249 0 L1073 0 L1015 413 Z M522 566 L995 566 L900 1207 L884 1207 L522 566 Z M639 1873 L789 1873 L789 1860 Q789 1826 804 1797.5 Q819 1769 845.5 1748 Q872 1727 908 1715.5 Q944 1704 985 1704 Q1070 1704 1127.5 1749 Q1185 1794 1205 1873 L1359 1873 Q1346 1804 1312 1749 Q1278 1694 1228.5 1655 Q1179 1616 1116 1595.5 Q1053 1575 981 1575 Q905 1575 842 1596 Q779 1617 734 1655 Q689 1693 664 1746 Q639 1799 639 1863 L639 1873 Z M579 -402 Q554 -402 532 -392.5 Q510 -383 493.5 -366.5 Q477 -350 467.5 -328 Q458 -306 458 -281 Q458 -256 467.5 -234 Q477 -212 493.5 -195.5 Q510 -179 532 -169.5 Q554 -160 579 -160 Q604 -160 626 -169.5 Q648 -179 664.5 -195.5 Q681 -212 690.5 -234 Q700 -256 700 -281 Q700 -306 690.5 -328 Q681 -350 664.5 -366.5 Q648 -383 626 -392.5 Q604 -402 579 -402 Z " />
<glyph glyph-name="Ainvertedbreve" unicode="&#x202;" horiz-adv-x="1380" d="M1015 413 L436 413 L204 0 L11 0 L856 1443 L1023 1443 L1249 0 L1073 0 L1015 413 Z M522 566 L995 566 L900 1207 L884 1207 L522 566 Z M1359 1575 L1209 1575 L1209 1588 Q1209 1622 1194 1650.5 Q1179 1679 1152.5 1700 Q1126 1721 1090 1732.5 Q1054 1744 1013 1744 Q928 1744 870.5 1699 Q813 1654 793 1575 L639 1575 Q652 1644 686 1699 Q720 1754 769.5 1793 Q819 1832 882 1852.5 Q945 1873 1017 1873 Q1093 1873 1156 1852 Q1219 1831 1264 1793 Q1309 1755 1334 1702 Q1359 1649 1359 1585 L1359 1575 Z " />
<glyph glyph-name="Acaron" unicode="&#x1cd;" horiz-adv-x="1380" d="M1015 413 L436 413 L204 0 L11 0 L856 1443 L1023 1443 L1249 0 L1073 0 L1015 413 Z M522 566 L995 566 L900 1207 L884 1207 L522 566 Z M693 1873 L878 1873 L983 1687 L999 1687 L1182 1873 L1389 1873 L1079 1575 L877 1575 L693 1873 Z " />
<glyph glyph-name="Adotaccent" unicode="&#x226;" horiz-adv-x="1380" d="M1015 413 L436 413 L204 0 L11 0 L856 1443 L1023 1443 L1249 0 L1073 0 L1015 413 Z M522 566 L995 566 L900 1207 L884 1207 L522 566 Z M994 1575 Q969 1575 947 1584.5 Q925 1594 908.5 1610.5 Q892 1627 882.5 1649 Q873 1671 873 1696 Q873 1721 882.5 1743 Q892 1765 908.5 1781.5 Q925 1798 947 1807.5 Q969 1817 994 1817 Q1019 1817 1041 1807.5 Q1063 1798 1079.5 1781.5 Q1096 1765 1105.5 1743 Q1115 1721 1115 1696 Q1115 1671 1105.5 1649 Q1096 1627 1079.5 1610.5 Q1063 1594 1041 1584.5 Q1019 1575 994 1575 Z " />
<glyph glyph-name="Adotbelow" unicode="&#x1ea0;" horiz-adv-x="1380" d="M1015 413 L436 413 L204 0 L11 0 L856 1443 L1023 1443 L1249 0 L1073 0 L1015 413 Z M522 566 L995 566 L900 1207 L884 1207 L522 566 Z M579 -402 Q554 -402 532 -392.5 Q510 -383 493.5 -366.5 Q477 -350 467.5 -328 Q458 -306 458 -281 Q458 -256 467.5 -234 Q477 -212 493.5 -195.5 Q510 -179 532 -169.5 Q554 -160 579 -160 Q604 -160 626 -169.5 Q648 -179 664.5 -195.5 Q681 -212 690.5 -234 Q700 -256 700 -281 Q700 -306 690.5 -328 Q681 -350 664.5 -366.5 Q648 -383 626 -392.5 Q604 -402 579 -402 Z " />
<glyph glyph-name="Ahookabove" unicode="&#x1ea2;" horiz-adv-x="1380" d="M1015 413 L436 413 L204 0 L11 0 L856 1443 L1023 1443 L1249 0 L1073 0 L1015 413 Z M522 566 L995 566 L900 1207 L884 1207 L522 566 Z M881 1900 Q907 1910 941.5 1915.5 Q976 1921 1011 1921 Q1053 1921 1088.5 1909 Q1124 1897 1150.5 1875.5 Q1177 1854 1191.5 1824.5 Q1206 1795 1206 1761 Q1206 1724 1190 1689 Q1174 1654 1144 1623.5 Q1114 1593 1071 1568.5 Q1028 1544 974 1527 L922 1624 Q950 1632 974 1645 Q998 1658 1016 1673.5 Q1034 1689 1044 1707 Q1054 1725 1054 1742 Q1054 1769 1032 1785.5 Q1010 1802 974 1802 Q940 1802 909 1797.5 Q878 1793 857 1785 L881 1900 Z " />
<glyph glyph-name="Adblgrave" unicode="&#x200;" horiz-adv-x="1380" d="M1015 413 L436 413 L204 0 L11 0 L856 1443 L1023 1443 L1249 0 L1073 0 L1015 413 Z M522 566 L995 566 L900 1207 L884 1207 L522 566 Z M669 1575 L463 1873 L689 1873 L873 1575 L669 1575 Z M1083 1575 L877 1873 L1103 1873 L1287 1575 L1083 1575 Z " />
<glyph glyph-name="Amacron" unicode="&#x100;" horiz-adv-x="1380" d="M1015 413 L436 413 L204 0 L11 0 L856 1443 L1023 1443 L1249 0 L1073 0 L1015 413 Z M522 566 L995 566 L900 1207 L884 1207 L522 566 Z M640 1620 L669 1756 L1343 1756 L1314 1620 L640 1620 Z " />
<glyph glyph-name="Aogonek" unicode="&#x104;" horiz-adv-x="1380" d="M522 566 L995 566 L900 1207 L884 1207 L522 566 Z M1197 -416 Q1180 -423 1153 -427.5 Q1126 -432 1101 -432 Q997 -432 939 -382.5 Q881 -333 881 -245 Q881 -164 926.5 -97.5 Q972 -31 1069 29 L1015 413 L436 413 L204 0 L11 0 L856 1443 L1023 1443 L1246 19 Q1049 -91 1049 -208 Q1049 -298 1152 -298 Q1172 -298 1192.5 -295.5 Q1213 -293 1223 -289 L1197 -416 Z " />
<glyph glyph-name="B" unicode="B" horiz-adv-x="1346" d="M123 0 L430 1443 L931 1443 Q1023 1443 1098 1420.5 Q1173 1398 1226 1356.5 Q1279 1315 1308 1256 Q1337 1197 1337 1125 Q1337 1057 1315 996.5 Q1293 936 1252 888 Q1211 840 1153.5 806 Q1096 772 1025 757 L1021 741 Q1079 731 1125 706.5 Q1171 682 1203.5 645.5 Q1236 609 1253 561.5 Q1270 514 1270 458 Q1270 358 1228.5 274 Q1187 190 1113 129 Q1039 68 937 34 Q835 0 713 0 L123 0 Z M481 821 L779 821 Q861 821 929.5 840.5 Q998 860 1047 895 Q1096 930 1123 979.5 Q1150 1029 1150 1088 Q1150 1188 1079 1236 Q1008 1284 862 1284 L579 1284 L481 821 Z M707 159 Q786 159 854.5 180.5 Q923 202 972.5 240 Q1022 278 1050.5 330 Q1079 382 1079 443 Q1079 666 783 666 L448 666 L340 159 L707 159 Z " />
<glyph glyph-name="Blinebelow" unicode="&#x1e06;" horiz-adv-x="1346" d="M123 0 L430 1443 L931 1443 Q1023 1443 1098 1420.5 Q1173 1398 1226 1356.5 Q1279 1315 1308 1256 Q1337 1197 1337 1125 Q1337 1057 1315 996.5 Q1293 936 1252 888 Q1211 840 1153.5 806 Q1096 772 1025 757 L1021 741 Q1079 731 1125 706.5 Q1171 682 1203.5 645.5 Q1236 609 1253 561.5 Q1270 514 1270 458 Q1270 358 1228.5 274 Q1187 190 1113 129 Q1039 68 937 34 Q835 0 713 0 L123 0 Z M481 821 L779 821 Q861 821 929.5 840.5 Q998 860 1047 895 Q1096 930 1123 979.5 Q1150 1029 1150 1088 Q1150 1188 1079 1236 Q1008 1284 862 1284 L579 1284 L481 821 Z M707 159 Q786 159 854.5 180.5 Q923 202 972.5 240 Q1022 278 1050.5 330 Q1079 382 1079 443 Q1079 666 783 666 L448 666 L340 159 L707 159 Z M173 -348 L202 -212 L876 -212 L847 -348 L173 -348 Z " />
<glyph glyph-name="Bdotbelow" unicode="&#x1e04;" horiz-adv-x="1346" d="M123 0 L430 1443 L931 1443 Q1023 1443 1098 1420.5 Q1173 1398 1226 1356.5 Q1279 1315 1308 1256 Q1337 1197 1337 1125 Q1337 1057 1315 996.5 Q1293 936 1252 888 Q1211 840 1153.5 806 Q1096 772 1025 757 L1021 741 Q1079 731 1125 706.5 Q1171 682 1203.5 645.5 Q1236 609 1253 561.5 Q1270 514 1270 458 Q1270 358 1228.5 274 Q1187 190 1113 129 Q1039 68 937 34 Q835 0 713 0 L123 0 Z M481 821 L779 821 Q861 821 929.5 840.5 Q998 860 1047 895 Q1096 930 1123 979.5 Q1150 1029 1150 1088 Q1150 1188 1079 1236 Q1008 1284 862 1284 L579 1284 L481 821 Z M707 159 Q786 159 854.5 180.5 Q923 202 972.5 240 Q1022 278 1050.5 330 Q1079 382 1079 443 Q1079 666 783 666 L448 666 L340 159 L707 159 Z M524 -402 Q499 -402 477 -392.5 Q455 -383 438.5 -366.5 Q422 -350 412.5 -328 Q403 -306 403 -281 Q403 -256 412.5 -234 Q422 -212 438.5 -195.5 Q455 -179 477 -169.5 Q499 -160 524 -160 Q549 -160 571 -169.5 Q593 -179 609.5 -195.5 Q626 -212 635.5 -234 Q645 -256 645 -281 Q645 -306 635.5 -328 Q626 -350 609.5 -366.5 Q593 -383 571 -392.5 Q549 -402 524 -402 Z " />
<glyph glyph-name="Bdotaccent" unicode="&#x1e02;" horiz-adv-x="1346" d="M123 0 L430 1443 L931 1443 Q1023 1443 1098 1420.5 Q1173 1398 1226 1356.5 Q1279 1315 1308 1256 Q1337 1197 1337 1125 Q1337 1057 1315 996.5 Q1293 936 1252 888 Q1211 840 1153.5 806 Q1096 772 1025 757 L1021 741 Q1079 731 1125 706.5 Q1171 682 1203.5 645.5 Q1236 609 1253 561.5 Q1270 514 1270 458 Q1270 358 1228.5 274 Q1187 190 1113 129 Q1039 68 937 34 Q835 0 713 0 L123 0 Z M481 821 L779 821 Q861 821 929.5 840.5 Q998 860 1047 895 Q1096 930 1123 979.5 Q1150 1029 1150 1088 Q1150 1188 1079 1236 Q1008 1284 862 1284 L579 1284 L481 821 Z M707 159 Q786 159 854.5 180.5 Q923 202 972.5 240 Q1022 278 1050.5 330 Q1079 382 1079 443 Q1079 666 783 666 L448 666 L340 159 L707 159 Z M905 1575 Q880 1575 858 1584.5 Q836 1594 819.5 1610.5 Q803 1627 793.5 1649 Q784 1671 784 1696 Q784 1721 793.5 1743 Q803 1765 819.5 1781.5 Q836 1798 858 1807.5 Q880 1817 905 1817 Q930 1817 952 1807.5 Q974 1798 990.5 1781.5 Q1007 1765 1016.5 1743 Q1026 1721 1026 1696 Q1026 1671 1016.5 1649 Q1007 1627 990.5 1610.5 Q974 1594 952 1584.5 Q930 1575 905 1575 Z " />
<glyph glyph-name="C" unicode="C" horiz-adv-x="1463" d="M1324 994 Q1318 1066 1289 1124.5 Q1260 1183 1211 1224.5 Q1162 1266 1095.5 1288 Q1029 1310 948 1310 Q830 1310 727.5 1253.5 Q625 1197 549.5 1097.5 Q474 998 431 863.5 Q388 729 388 573 Q388 471 415.5 389.5 Q443 308 494 251 Q545 194 618 163.5 Q691 133 781 133 Q854 133 920 150.5 Q986 168 1039.5 200.5 Q1093 233 1131.5 278.5 Q1170 324 1190 380 L1380 380 Q1353 284 1297 207 Q1241 130 1161 76.5 Q1081 23 979.5 -5.5 Q878 -34 761 -34 Q635 -34 531.5 8 Q428 50 354.5 127 Q281 204 241 312.5 Q201 421 201 554 Q201 687 227 807 Q253 927 301 1029.5 Q349 1132 417.5 1215 Q486 1298 570.5 1356 Q655 1414 754 1445.5 Q853 1477 962 1477 Q1079 1477 1179 1441 Q1279 1405 1352 1341 Q1425 1277 1466 1189 Q1507 1101 1507 998 L1507 992 L1324 992 L1324 994 Z " />
<glyph glyph-name="Cacute" unicode="&#x106;" horiz-adv-x="1466" d="M1324 994 Q1318 1066 1289 1124.5 Q1260 1183 1211 1224.5 Q1162 1266 1095.5 1288 Q1029 1310 948 1310 Q830 1310 727.5 1253.5 Q625 1197 549.5 1097.5 Q474 998 431 863.5 Q388 729 388 573 Q388 471 415.5 389.5 Q443 308 494 251 Q545 194 618 163.5 Q691 133 781 133 Q854 133 920 150.5 Q986 168 1039.5 200.5 Q1093 233 1131.5 278.5 Q1170 324 1190 380 L1380 380 Q1353 284 1297 207 Q1241 130 1161 76.5 Q1081 23 979.5 -5.5 Q878 -34 761 -34 Q635 -34 531.5 8 Q428 50 354.5 127 Q281 204 241 312.5 Q201 421 201 554 Q201 687 227 807 Q253 927 301 1029.5 Q349 1132 417.5 1215 Q486 1298 570.5 1356 Q655 1414 754 1445.5 Q853 1477 962 1477 Q1079 1477 1179 1441 Q1279 1405 1352 1341 Q1425 1277 1466 1189 Q1507 1101 1507 998 L1507 992 L1324 992 L1324 994 Z M1267 1875 L1493 1875 L1098 1577 L894 1577 L1267 1875 Z " />
<glyph glyph-name="Ccaron" unicode="&#x10c;" horiz-adv-x="1466" d="M1324 994 Q1318 1066 1289 1124.5 Q1260 1183 1211 1224.5 Q1162 1266 1095.5 1288 Q1029 1310 948 1310 Q830 1310 727.5 1253.5 Q625 1197 549.5 1097.5 Q474 998 431 863.5 Q388 729 388 573 Q388 471 415.5 389.5 Q443 308 494 251 Q545 194 618 163.5 Q691 133 781 133 Q854 133 920 150.5 Q986 168 1039.5 200.5 Q1093 233 1131.5 278.5 Q1170 324 1190 380 L1380 380 Q1353 284 1297 207 Q1241 130 1161 76.5 Q1081 23 979.5 -5.5 Q878 -34 761 -34 Q635 -34 531.5 8 Q428 50 354.5 127 Q281 204 241 312.5 Q201 421 201 554 Q201 687 227 807 Q253 927 301 1029.5 Q349 1132 417.5 1215 Q486 1298 570.5 1356 Q655 1414 754 1445.5 Q853 1477 962 1477 Q1079 1477 1179 1441 Q1279 1405 1352 1341 Q1425 1277 1466 1189 Q1507 1101 1507 998 L1507 992 L1324 992 L1324 994 Z M710 1875 L895 1875 L1000 1689 L1016 1689 L1199 1875 L1406 1875 L1096 1577 L894 1577 L710 1875 Z " />
<glyph glyph-name="Ccircumflex" unicode="&#x108;" horiz-adv-x="1466" d="M1324 994 Q1318 1066 1289 1124.5 Q1260 1183 1211 1224.5 Q1162 1266 1095.5 1288 Q1029 1310 948 1310 Q830 1310 727.5 1253.5 Q625 1197 549.5 1097.5 Q474 998 431 863.5 Q388 729 388 573 Q388 471 415.5 389.5 Q443 308 494 251 Q545 194 618 163.5 Q691 133 781 133 Q854 133 920 150.5 Q986 168 1039.5 200.5 Q1093 233 1131.5 278.5 Q1170 324 1190 380 L1380 380 Q1353 284 1297 207 Q1241 130 1161 76.5 Q1081 23 979.5 -5.5 Q878 -34 761 -34 Q635 -34 531.5 8 Q428 50 354.5 127 Q281 204 241 312.5 Q201 421 201 554 Q201 687 227 807 Q253 927 301 1029.5 Q349 1132 417.5 1215 Q486 1298 570.5 1356 Q655 1414 754 1445.5 Q853 1477 962 1477 Q1079 1477 1179 1441 Q1279 1405 1352 1341 Q1425 1277 1466 1189 Q1507 1101 1507 998 L1507 992 L1324 992 L1324 994 Z M1321 1577 L1136 1577 L1031 1763 L1015 1763 L832 1577 L625 1577 L935 1875 L1137 1875 L1321 1577 Z " />
<glyph glyph-name="Cdotaccent" unicode="&#x10a;" horiz-adv-x="1466" d="M1324 994 Q1318 1066 1289 1124.5 Q1260 1183 1211 1224.5 Q1162 1266 1095.5 1288 Q1029 1310 948 1310 Q830 1310 727.5 1253.5 Q625 1197 549.5 1097.5 Q474 998 431 863.5 Q388 729 388 573 Q388 471 415.5 389.5 Q443 308 494 251 Q545 194 618 163.5 Q691 133 781 133 Q854 133 920 150.5 Q986 168 1039.5 200.5 Q1093 233 1131.5 278.5 Q1170 324 1190 380 L1380 380 Q1353 284 1297 207 Q1241 130 1161 76.5 Q1081 23 979.5 -5.5 Q878 -34 761 -34 Q635 -34 531.5 8 Q428 50 354.5 127 Q281 204 241 312.5 Q201 421 201 554 Q201 687 227 807 Q253 927 301 1029.5 Q349 1132 417.5 1215 Q486 1298 570.5 1356 Q655 1414 754 1445.5 Q853 1477 962 1477 Q1079 1477 1179 1441 Q1279 1405 1352 1341 Q1425 1277 1466 1189 Q1507 1101 1507 998 L1507 992 L1324 992 L1324 994 Z M1011 1577 Q986 1577 964 1586.5 Q942 1596 925.5 1612.5 Q909 1629 899.5 1651 Q890 1673 890 1698 Q890 1723 899.5 1745 Q909 1767 925.5 1783.5 Q942 1800 964 1809.5 Q986 1819 1011 1819 Q1036 1819 1058 1809.5 Q1080 1800 1096.5 1783.5 Q1113 1767 1122.5 1745 Q1132 1723 1132 1698 Q1132 1673 1122.5 1651 Q1113 1629 1096.5 1612.5 Q1080 1596 1058 1586.5 Q1036 1577 1011 1577 Z " />
<glyph glyph-name="Ccedilla" unicode="&#xc7;" horiz-adv-x="1466" d="M1324 992 L1324 994 Q1318 1066 1289 1124.5 Q1260 1183 1211 1224.5 Q1162 1266 1095.5 1288 Q1029 1310 948 1310 Q830 1310 727.5 1253.5 Q625 1197 549.5 1097.5 Q474 998 431 863.5 Q388 729 388 573 Q388 471 415.5 389.5 Q443 308 494 251 Q545 194 618 163.5 Q691 133 781 133 Q854 133 920 150.5 Q986 168 1039.5 200.5 Q1093 233 1131.5 278.5 Q1170 324 1190 380 L1380 380 Q1355 291 1305.5 219 Q1256 147 1185.5 94 Q1115 41 1026 9 Q937 -23 834 -31 L766 -140 Q945 -160 945 -296 Q945 -339 926.5 -374.5 Q908 -410 875.5 -436 Q843 -462 797.5 -476.5 Q752 -491 698 -491 Q655 -491 607.5 -481.5 Q560 -472 523 -455 L546 -347 Q559 -353 577.5 -358 Q596 -363 616 -366.5 Q636 -370 656 -372.5 Q676 -375 693 -375 Q741 -375 769 -356 Q797 -337 797 -305 Q797 -270 763 -251.5 Q729 -233 663 -233 L610 -233 L623 -143 L693 -31 Q581 -20 490.5 26.5 Q400 73 335.5 149 Q271 225 236 328 Q201 431 201 554 Q201 687 227 807 Q253 927 301 1029.5 Q349 1132 417.5 1215 Q486 1298 570.5 1356 Q655 1414 754 1445.5 Q853 1477 962 1477 Q1079 1477 1179 1441 Q1279 1405 1352 1341 Q1425 1277 1466 1189 Q1507 1101 1507 998 L1507 992 L1324 992 Z " />
<glyph glyph-name="Ccedillaacute" unicode="&#x1e08;" horiz-adv-x="1466" d="M1098 1577 L894 1577 L1267 1875 L1493 1875 L1098 1577 Z M1324 992 L1324 994 Q1318 1066 1289 1124.5 Q1260 1183 1211 1224.5 Q1162 1266 1095.5 1288 Q1029 1310 948 1310 Q830 1310 727.5 1253.5 Q625 1197 549.5 1097.5 Q474 998 431 863.5 Q388 729 388 573 Q388 471 415.5 389.5 Q443 308 494 251 Q545 194 618 163.5 Q691 133 781 133 Q854 133 920 150.5 Q986 168 1039.5 200.5 Q1093 233 1131.5 278.5 Q1170 324 1190 380 L1380 380 Q1355 291 1305.5 219 Q1256 147 1185.5 94 Q1115 41 1026 9 Q937 -23 834 -31 L766 -140 Q945 -160 945 -296 Q945 -339 926.5 -374.5 Q908 -410 875.5 -436 Q843 -462 797.5 -476.5 Q752 -491 698 -491 Q655 -491 607.5 -481.5 Q560 -472 523 -455 L546 -347 Q559 -353 577.5 -358 Q596 -363 616 -366.5 Q636 -370 656 -372.5 Q676 -375 693 -375 Q741 -375 769 -356 Q797 -337 797 -305 Q797 -270 763 -251.5 Q729 -233 663 -233 L610 -233 L623 -143 L693 -31 Q581 -20 490.5 26.5 Q400 73 335.5 149 Q271 225 236 328 Q201 431 201 554 Q201 687 227 807 Q253 927 301 1029.5 Q349 1132 417.5 1215 Q486 1298 570.5 1356 Q655 1414 754 1445.5 Q853 1477 962 1477 Q1079 1477 1179 1441 Q1279 1405 1352 1341 Q1425 1277 1466 1189 Q1507 1101 1507 998 L1507 992 L1324 992 Z " />
<glyph glyph-name="D" unicode="D" horiz-adv-x="1486" d="M833 1443 Q984 1443 1101 1399.5 Q1218 1356 1298 1274.5 Q1378 1193 1420 1076 Q1462 959 1462 812 Q1462 696 1436 590.5 Q1410 485 1362 395 Q1314 305 1246.5 232 Q1179 159 1096 107.5 Q1013 56 917 28 Q821 0 716 0 L125 0 L430 1443 L833 1443 Z M341 160 L723 160 Q842 160 943 208.5 Q1044 257 1118 343 Q1192 429 1234 547 Q1276 665 1276 803 Q1276 916 1245 1005.5 Q1214 1095 1155.5 1156.5 Q1097 1218 1012 1250.5 Q927 1283 819 1283 L580 1283 L341 160 Z " />
<glyph glyph-name="Ddotaccent" unicode="&#x1e0a;" horiz-adv-x="1486" d="M833 1443 Q984 1443 1101 1399.5 Q1218 1356 1298 1274.5 Q1378 1193 1420 1076 Q1462 959 1462 812 Q1462 696 1436 590.5 Q1410 485 1362 395 Q1314 305 1246.5 232 Q1179 159 1096 107.5 Q1013 56 917 28 Q821 0 716 0 L125 0 L430 1443 L833 1443 Z M341 160 L723 160 Q842 160 943 208.5 Q1044 257 1118 343 Q1192 429 1234 547 Q1276 665 1276 803 Q1276 916 1245 1005.5 Q1214 1095 1155.5 1156.5 Q1097 1218 1012 1250.5 Q927 1283 819 1283 L580 1283 L341 160 Z M837 1575 Q812 1575 790 1584.5 Q768 1594 751.5 1610.5 Q735 1627 725.5 1649 Q716 1671 716 1696 Q716 1721 725.5 1743 Q735 1765 751.5 1781.5 Q768 1798 790 1807.5 Q812 1817 837 1817 Q862 1817 884 1807.5 Q906 1798 922.5 1781.5 Q939 1765 948.5 1743 Q958 1721 958 1696 Q958 1671 948.5 1649 Q939 1627 922.5 1610.5 Q906 1594 884 1584.5 Q862 1575 837 1575 Z " />
<glyph glyph-name="Dcircumflexbelow" unicode="&#x1e12;" horiz-adv-x="1486" d="M833 1443 Q984 1443 1101 1399.5 Q1218 1356 1298 1274.5 Q1378 1193 1420 1076 Q1462 959 1462 812 Q1462 696 1436 590.5 Q1410 485 1362 395 Q1314 305 1246.5 232 Q1179 159 1096 107.5 Q1013 56 917 28 Q821 0 716 0 L125 0 L430 1443 L833 1443 Z M341 160 L723 160 Q842 160 943 208.5 Q1044 257 1118 343 Q1192 429 1234 547 Q1276 665 1276 803 Q1276 916 1245 1005.5 Q1214 1095 1155.5 1156.5 Q1097 1218 1012 1250.5 Q927 1283 819 1283 L580 1283 L341 160 Z M847 -432 L645 -432 L510 -259 L494 -259 L285 -432 L83 -432 L445 -142 L609 -142 L847 -432 Z " />
<glyph glyph-name="Dcommaaccent" unicode="&#x1e10;" horiz-adv-x="1486" d="M833 1443 Q984 1443 1101 1399.5 Q1218 1356 1298 1274.5 Q1378 1193 1420 1076 Q1462 959 1462 812 Q1462 696 1436 590.5 Q1410 485 1362 395 Q1314 305 1246.5 232 Q1179 159 1096 107.5 Q1013 56 917 28 Q821 0 716 0 L125 0 L430 1443 L833 1443 Z M341 160 L723 160 Q842 160 943 208.5 Q1044 257 1118 343 Q1192 429 1234 547 Q1276 665 1276 803 Q1276 916 1245 1005.5 Q1214 1095 1155.5 1156.5 Q1097 1218 1012 1250.5 Q927 1283 819 1283 L580 1283 L341 160 Z M269 -518 L451 -141 L633 -141 L436 -518 L269 -518 Z " />
<glyph glyph-name="Dlinebelow" unicode="&#x1e0e;" horiz-adv-x="1486" d="M833 1443 Q984 1443 1101 1399.5 Q1218 1356 1298 1274.5 Q1378 1193 1420 1076 Q1462 959 1462 812 Q1462 696 1436 590.5 Q1410 485 1362 395 Q1314 305 1246.5 232 Q1179 159 1096 107.5 Q1013 56 917 28 Q821 0 716 0 L125 0 L430 1443 L833 1443 Z M341 160 L723 160 Q842 160 943 208.5 Q1044 257 1118 343 Q1192 429 1234 547 Q1276 665 1276 803 Q1276 916 1245 1005.5 Q1214 1095 1155.5 1156.5 Q1097 1218 1012 1250.5 Q927 1283 819 1283 L580 1283 L341 160 Z M146 -348 L175 -212 L849 -212 L820 -348 L146 -348 Z " />
<glyph glyph-name="Dcaron" unicode="&#x10e;" horiz-adv-x="1486" d="M833 1443 Q984 1443 1101 1399.5 Q1218 1356 1298 1274.5 Q1378 1193 1420 1076 Q1462 959 1462 812 Q1462 696 1436 590.5 Q1410 485 1362 395 Q1314 305 1246.5 232 Q1179 159 1096 107.5 Q1013 56 917 28 Q821 0 716 0 L125 0 L430 1443 L833 1443 Z M341 160 L723 160 Q842 160 943 208.5 Q1044 257 1118 343 Q1192 429 1234 547 Q1276 665 1276 803 Q1276 916 1245 1005.5 Q1214 1095 1155.5 1156.5 Q1097 1218 1012 1250.5 Q927 1283 819 1283 L580 1283 L341 160 Z M536 1873 L721 1873 L826 1687 L842 1687 L1025 1873 L1232 1873 L922 1575 L720 1575 L536 1873 Z " />
<glyph glyph-name="Ddotbelow" unicode="&#x1e0c;" horiz-adv-x="1486" d="M833 1443 Q984 1443 1101 1399.5 Q1218 1356 1298 1274.5 Q1378 1193 1420 1076 Q1462 959 1462 812 Q1462 696 1436 590.5 Q1410 485 1362 395 Q1314 305 1246.5 232 Q1179 159 1096 107.5 Q1013 56 917 28 Q821 0 716 0 L125 0 L430 1443 L833 1443 Z M341 160 L723 160 Q842 160 943 208.5 Q1044 257 1118 343 Q1192 429 1234 547 Q1276 665 1276 803 Q1276 916 1245 1005.5 Q1214 1095 1155.5 1156.5 Q1097 1218 1012 1250.5 Q927 1283 819 1283 L580 1283 L341 160 Z M497 -402 Q472 -402 450 -392.5 Q428 -383 411.5 -366.5 Q395 -350 385.5 -328 Q376 -306 376 -281 Q376 -256 385.5 -234 Q395 -212 411.5 -195.5 Q428 -179 450 -169.5 Q472 -160 497 -160 Q522 -160 544 -169.5 Q566 -179 582.5 -195.5 Q599 -212 608.5 -234 Q618 -256 618 -281 Q618 -306 608.5 -328 Q599 -350 582.5 -366.5 Q566 -383 544 -392.5 Q522 -402 497 -402 Z " />
<glyph glyph-name="Dcroat" unicode="&#x110;" horiz-adv-x="1452" d="M723 160 Q842 160 943 208.5 Q1044 257 1118 343 Q1192 429 1234 547 Q1276 665 1276 803 Q1276 916 1245 1005.5 Q1214 1095 1155.5 1156.5 Q1097 1218 1012 1250.5 Q927 1283 819 1283 L580 1283 L483 826 L683 826 L648 663 L448 663 L341 160 L723 160 Z M833 1443 Q984 1443 1101 1399.5 Q1218 1356 1298 1274.5 Q1378 1193 1420 1076 Q1462 959 1462 812 Q1462 696 1436 590.5 Q1410 485 1362 395 Q1314 305 1246.5 232 Q1179 159 1096 107.5 Q1013 56 917 28 Q821 0 716 0 L125 0 L265 663 L62 663 L97 826 L300 826 L430 1443 L833 1443 Z " />
<glyph glyph-name="E" unicode="E" horiz-adv-x="1219" d="M1019 0 L123 0 L430 1443 L1326 1443 L1291 1281 L580 1281 L480 818 L1155 818 L1121 658 L447 658 L341 162 L1053 162 L1019 0 Z " />
<glyph glyph-name="Egrave" unicode="&#xc8;" horiz-adv-x="1219" d="M1019 0 L123 0 L430 1443 L1326 1443 L1291 1281 L580 1281 L480 818 L1155 818 L1121 658 L447 658 L341 162 L1053 162 L1019 0 Z M987 1575 L803 1575 L597 1873 L803 1873 L987 1575 Z " />
<glyph glyph-name="Edblgrave" unicode="&#x204;" horiz-adv-x="1219" d="M1019 0 L123 0 L430 1443 L1326 1443 L1291 1281 L580 1281 L480 818 L1155 818 L1121 658 L447 658 L341 162 L1053 162 L1019 0 Z M607 1575 L401 1873 L627 1873 L811 1575 L607 1575 Z M1021 1575 L815 1873 L1041 1873 L1225 1575 L1021 1575 Z " />
<glyph glyph-name="Eacute" unicode="&#xc9;" horiz-adv-x="1219" d="M1019 0 L123 0 L430 1443 L1326 1443 L1291 1281 L580 1281 L480 818 L1155 818 L1121 658 L447 658 L341 162 L1053 162 L1019 0 Z M1188 1873 L1414 1873 L1019 1575 L815 1575 L1188 1873 Z " />
<glyph glyph-name="Ecircumflex" unicode="&#xca;" horiz-adv-x="1219" d="M1019 0 L123 0 L430 1443 L1326 1443 L1291 1281 L580 1281 L480 818 L1155 818 L1121 658 L447 658 L341 162 L1053 162 L1019 0 Z M1242 1575 L1057 1575 L952 1761 L936 1761 L753 1575 L546 1575 L856 1873 L1058 1873 L1242 1575 Z " />
<glyph glyph-name="Ecircumflexhookabove" unicode="&#x1ec2;" horiz-adv-x="1219" d="M1019 0 L123 0 L430 1443 L1326 1443 L1291 1281 L580 1281 L480 818 L1155 818 L1121 658 L447 658 L341 162 L1053 162 L1019 0 Z M1087 2068 Q1133 2079 1182 2079 Q1236 2079 1279.5 2068 Q1323 2057 1353.5 2037 Q1384 2017 1401 1989 Q1418 1961 1418 1926 Q1418 1799 1269 1727 L1184 1813 Q1228 1832 1246.5 1851.5 Q1265 1871 1265 1897 Q1265 1962 1150 1962 Q1121 1962 1097.5 1959.5 Q1074 1957 1060 1952 L1087 2068 Z M1289 1575 L1077 1575 L942 1711 L926 1711 L734 1575 L501 1575 L843 1808 L1045 1808 L1289 1575 Z " />
<glyph glyph-name="Ecircumflexgrave" unicode="&#x1ec0;" horiz-adv-x="1219" d="M1019 0 L123 0 L430 1443 L1326 1443 L1291 1281 L580 1281 L480 818 L1155 818 L1121 658 L447 658 L341 162 L1053 162 L1019 0 Z M1135 1853 L940 2095 L1156 2095 L1325 1853 L1135 1853 Z M1289 1575 L1077 1575 L942 1711 L926 1711 L734 1575 L501 1575 L843 1808 L1045 1808 L1289 1575 Z " />
<glyph glyph-name="Ecircumflextilde" unicode="&#x1ec4;" horiz-adv-x="1219" d="M1019 0 L123 0 L430 1443 L1326 1443 L1291 1281 L580 1281 L480 818 L1155 818 L1121 658 L447 658 L341 162 L1053 162 L1019 0 Z M1289 1575 L1077 1575 L942 1711 L926 1711 L734 1575 L501 1575 L843 1808 L1045 1808 L1289 1575 Z M1063 1854 Q1013 1854 977.5 1873.5 Q942 1893 914 1916 Q886 1939 861 1958.5 Q836 1978 806 1978 Q762 1978 735 1954 Q708 1930 692 1880 L550 1880 Q560 1938 585 1981.5 Q610 2025 644.5 2054 Q679 2083 720.5 2098 Q762 2113 805 2113 Q855 2113 890.5 2093.5 Q926 2074 954 2051 Q982 2028 1007 2008.5 Q1032 1989 1062 1989 Q1106 1989 1133 2013 Q1160 2037 1176 2087 L1318 2087 Q1308 2029 1283 1985.5 Q1258 1942 1223.5 1912.5 Q1189 1883 1147.5 1868.5 Q1106 1854 1063 1854 Z " />
<glyph glyph-name="Ecircumflexdotbelow" unicode="&#x1ec6;" horiz-adv-x="1219" d="M1019 0 L123 0 L430 1443 L1326 1443 L1291 1281 L580 1281 L480 818 L1155 818 L1121 658 L447 658 L341 162 L1053 162 L1019 0 Z M1242 1575 L1057 1575 L952 1761 L936 1761 L753 1575 L546 1575 L856 1873 L1058 1873 L1242 1575 Z M511 -402 Q486 -402 464 -392.5 Q442 -383 425.5 -366.5 Q409 -350 399.5 -328 Q390 -306 390 -281 Q390 -256 399.5 -234 Q409 -212 425.5 -195.5 Q442 -179 464 -169.5 Q486 -160 511 -160 Q536 -160 558 -169.5 Q580 -179 596.5 -195.5 Q613 -212 622.5 -234 Q632 -256 632 -281 Q632 -306 622.5 -328 Q613 -350 596.5 -366.5 Q580 -383 558 -392.5 Q536 -402 511 -402 Z " />
<glyph glyph-name="Ecircumflexacute" unicode="&#x1ebe;" horiz-adv-x="1219" d="M1019 0 L123 0 L430 1443 L1326 1443 L1291 1281 L580 1281 L480 818 L1155 818 L1121 658 L447 658 L341 162 L1053 162 L1019 0 Z M1326 2095 L1542 2095 L1245 1853 L1055 1853 L1326 2095 Z M1289 1575 L1077 1575 L942 1711 L926 1711 L734 1575 L501 1575 L843 1808 L1045 1808 L1289 1575 Z " />
<glyph glyph-name="Edieresis" unicode="&#xcb;" horiz-adv-x="1219" d="M1019 0 L123 0 L430 1443 L1326 1443 L1291 1281 L580 1281 L480 818 L1155 818 L1121 658 L447 658 L341 162 L1053 162 L1019 0 Z M729 1575 Q704 1575 682 1584.5 Q660 1594 643.5 1610.5 Q627 1627 617.5 1649 Q608 1671 608 1696 Q608 1721 617.5 1743 Q627 1765 643.5 1781.5 Q660 1798 682 1807.5 Q704 1817 729 1817 Q754 1817 776 1807.5 Q798 1798 814.5 1781.5 Q831 1765 840.5 1743 Q850 1721 850 1696 Q850 1671 840.5 1649 Q831 1627 814.5 1610.5 Q798 1594 776 1584.5 Q754 1575 729 1575 Z M1133 1575 Q1108 1575 1086 1584.5 Q1064 1594 1047.5 1610.5 Q1031 1627 1021.5 1649 Q1012 1671 1012 1696 Q1012 1721 1021.5 1743 Q1031 1765 1047.5 1781.5 Q1064 1798 1086 1807.5 Q1108 1817 1133 1817 Q1158 1817 1180 1807.5 Q1202 1798 1218.5 1781.5 Q1235 1765 1244.5 1743 Q1254 1721 1254 1696 Q1254 1671 1244.5 1649 Q1235 1627 1218.5 1610.5 Q1202 1594 1180 1584.5 Q1158 1575 1133 1575 Z " />
<glyph glyph-name="Edotbelow" unicode="&#x1eb8;" horiz-adv-x="1219" d="M1019 0 L123 0 L430 1443 L1326 1443 L1291 1281 L580 1281 L480 818 L1155 818 L1121 658 L447 658 L341 162 L1053 162 L1019 0 Z M511 -402 Q486 -402 464 -392.5 Q442 -383 425.5 -366.5 Q409 -350 399.5 -328 Q390 -306 390 -281 Q390 -256 399.5 -234 Q409 -212 425.5 -195.5 Q442 -179 464 -169.5 Q486 -160 511 -160 Q536 -160 558 -169.5 Q580 -179 596.5 -195.5 Q613 -212 622.5 -234 Q632 -256 632 -281 Q632 -306 622.5 -328 Q613 -350 596.5 -366.5 Q580 -383 558 -392.5 Q536 -402 511 -402 Z " />
<glyph glyph-name="Einvertedbreve" unicode="&#x206;" horiz-adv-x="1219" d="M1019 0 L123 0 L430 1443 L1326 1443 L1291 1281 L580 1281 L480 818 L1155 818 L1121 658 L447 658 L341 162 L1053 162 L1019 0 Z M1297 1575 L1147 1575 L1147 1588 Q1147 1622 1132 1650.5 Q1117 1679 1090.5 1700 Q1064 1721 1028 1732.5 Q992 1744 951 1744 Q866 1744 808.5 1699 Q751 1654 731 1575 L577 1575 Q590 1644 624 1699 Q658 1754 707.5 1793 Q757 1832 820 1852.5 Q883 1873 955 1873 Q1031 1873 1094 1852 Q1157 1831 1202 1793 Q1247 1755 1272 1702 Q1297 1649 1297 1585 L1297 1575 Z " />
<glyph glyph-name="Ehookabove" unicode="&#x1eba;" horiz-adv-x="1219" d="M1019 0 L123 0 L430 1443 L1326 1443 L1291 1281 L580 1281 L480 818 L1155 818 L1121 658 L447 658 L341 162 L1053 162 L1019 0 Z M819 1900 Q845 1910 879.5 1915.5 Q914 1921 949 1921 Q991 1921 1026.5 1909 Q1062 1897 1088.5 1875.5 Q1115 1854 1129.5 1824.5 Q1144 1795 1144 1761 Q1144 1724 1128 1689 Q1112 1654 1082 1623.5 Q1052 1593 1009 1568.5 Q966 1544 912 1527 L860 1624 Q888 1632 912 1645 Q936 1658 954 1673.5 Q972 1689 982 1707 Q992 1725 992 1742 Q992 1769 970 1785.5 Q948 1802 912 1802 Q878 1802 847 1797.5 Q816 1793 795 1785 L819 1900 Z " />
<glyph glyph-name="Ecaron" unicode="&#x11a;" horiz-adv-x="1219" d="M1019 0 L123 0 L430 1443 L1326 1443 L1291 1281 L580 1281 L480 818 L1155 818 L1121 658 L447 658 L341 162 L1053 162 L1019 0 Z M631 1873 L816 1873 L921 1687 L937 1687 L1120 1873 L1327 1873 L1017 1575 L815 1575 L631 1873 Z " />
<glyph glyph-name="Emacron" unicode="&#x112;" horiz-adv-x="1219" d="M1019 0 L123 0 L430 1443 L1326 1443 L1291 1281 L580 1281 L480 818 L1155 818 L1121 658 L447 658 L341 162 L1053 162 L1019 0 Z M578 1620 L607 1756 L1281 1756 L1252 1620 L578 1620 Z " />
<glyph glyph-name="Emacrongrave" unicode="&#x1e14;" horiz-adv-x="1219" d="M1019 0 L123 0 L430 1443 L1326 1443 L1291 1281 L580 1281 L480 818 L1155 818 L1121 658 L447 658 L341 162 L1053 162 L1019 0 Z M578 1620 L606 1750 L1280 1750 L1252 1620 L578 1620 Z M883 1873 L684 2095 L902 2095 L1075 1873 L883 1873 Z " />
<glyph glyph-name="Emacronacute" unicode="&#x1e16;" horiz-adv-x="1219" d="M1019 0 L123 0 L430 1443 L1326 1443 L1291 1281 L580 1281 L480 818 L1155 818 L1121 658 L447 658 L341 162 L1053 162 L1019 0 Z M578 1620 L606 1750 L1280 1750 L1252 1620 L578 1620 Z M1130 2095 L1348 2095 L1055 1873 L863 1873 L1130 2095 Z " />
<glyph glyph-name="Etilde" unicode="&#x1ebc;" horiz-adv-x="1219" d="M1019 0 L123 0 L430 1443 L1326 1443 L1291 1281 L580 1281 L480 818 L1155 818 L1121 658 L447 658 L341 162 L1053 162 L1019 0 Z M1089 1575 Q1047 1575 1014 1587 Q981 1599 955 1617 Q929 1635 907.5 1656.5 Q886 1678 866.5 1696 Q847 1714 827.5 1726 Q808 1738 786 1738 Q697 1738 672 1620 L530 1620 Q540 1680 564 1727 Q588 1774 622.5 1806.5 Q657 1839 699.5 1856 Q742 1873 789 1873 Q831 1873 863.5 1861 Q896 1849 922 1831 Q948 1813 969.5 1791.5 Q991 1770 1010.5 1752 Q1030 1734 1049.5 1722 Q1069 1710 1091 1710 Q1181 1710 1206 1828 L1348 1828 Q1338 1768 1314 1721 Q1290 1674 1255.5 1641.5 Q1221 1609 1178.5 1592 Q1136 1575 1089 1575 Z " />
<glyph glyph-name="Ecircumflexbelow" unicode="&#x1e18;" horiz-adv-x="1219" d="M1019 0 L123 0 L430 1443 L1326 1443 L1291 1281 L580 1281 L480 818 L1155 818 L1121 658 L447 658 L341 162 L1053 162 L1019 0 Z M861 -432 L659 -432 L524 -259 L508 -259 L299 -432 L97 -432 L459 -142 L623 -142 L861 -432 Z " />
<glyph glyph-name="Ebreve" unicode="&#x114;" horiz-adv-x="1219" d="M1019 0 L123 0 L430 1443 L1326 1443 L1291 1281 L580 1281 L480 818 L1155 818 L1121 658 L447 658 L341 162 L1053 162 L1019 0 Z M577 1873 L727 1873 L727 1860 Q727 1826 742 1797.5 Q757 1769 783.5 1748 Q810 1727 846 1715.5 Q882 1704 923 1704 Q1008 1704 1065.5 1749 Q1123 1794 1143 1873 L1297 1873 Q1284 1804 1250 1749 Q1216 1694 1166.5 1655 Q1117 1616 1054 1595.5 Q991 1575 919 1575 Q843 1575 780 1596 Q717 1617 672 1655 Q627 1693 602 1746 Q577 1799 577 1863 L577 1873 Z " />
<glyph glyph-name="Etildebelow" unicode="&#x1e1a;" horiz-adv-x="1219" d="M1019 0 L123 0 L430 1443 L1326 1443 L1291 1281 L580 1281 L480 818 L1155 818 L1121 658 L447 658 L341 162 L1053 162 L1019 0 Z M663 -431 Q620 -431 588 -418.5 Q556 -406 530.5 -387 Q505 -368 484.5 -345.5 Q464 -323 444.5 -304 Q425 -285 405 -272.5 Q385 -260 360 -260 Q322 -260 291 -287 Q260 -314 246 -386 L104 -386 Q115 -320 139.5 -271 Q164 -222 198 -189.5 Q232 -157 274 -141 Q316 -125 363 -125 Q405 -125 437 -137.5 Q469 -150 494.5 -169 Q520 -188 540.5 -210.5 Q561 -233 580.5 -252 Q600 -271 620 -283.5 Q640 -296 665 -296 Q703 -296 734.5 -269 Q766 -242 780 -170 L922 -170 Q911 -236 886.5 -285 Q862 -334 828 -366.5 Q794 -399 751.5 -415 Q709 -431 663 -431 Z " />
<glyph glyph-name="Edotaccent" unicode="&#x116;" horiz-adv-x="1219" d="M1019 0 L123 0 L430 1443 L1326 1443 L1291 1281 L580 1281 L480 818 L1155 818 L1121 658 L447 658 L341 162 L1053 162 L1019 0 Z M932 1575 Q907 1575 885 1584.5 Q863 1594 846.5 1610.5 Q830 1627 820.5 1649 Q811 1671 811 1696 Q811 1721 820.5 1743 Q830 1765 846.5 1781.5 Q863 1798 885 1807.5 Q907 1817 932 1817 Q957 1817 979 1807.5 Q1001 1798 1017.5 1781.5 Q1034 1765 1043.5 1743 Q1053 1721 1053 1696 Q1053 1671 1043.5 1649 Q1034 1627 1017.5 1610.5 Q1001 1594 979 1584.5 Q957 1575 932 1575 Z " />
<glyph glyph-name="Ecedilla" unicode="&#x228;" horiz-adv-x="1219" d="M580 1281 L480 818 L1155 818 L1121 658 L447 658 L341 162 L1053 162 L1019 0 L648 0 L561 -140 Q740 -160 740 -296 Q740 -339 721.5 -374.5 Q703 -410 670.5 -436 Q638 -462 592.5 -476.5 Q547 -491 493 -491 Q450 -491 402.5 -481.5 Q355 -472 318 -455 L341 -347 Q354 -353 372.5 -358 Q391 -363 411 -366.5 Q431 -370 451 -372.5 Q471 -375 488 -375 Q536 -375 564 -356 Q592 -337 592 -305 Q592 -270 558 -251.5 Q524 -233 458 -233 L405 -233 L418 -143 L507 0 L123 0 L430 1443 L1326 1443 L1291 1281 L580 1281 Z " />
<glyph glyph-name="Ecedillabreve" unicode="&#x1e1c;" horiz-adv-x="1219" d="M1297 1873 Q1284 1804 1250 1749 Q1216 1694 1166.5 1655 Q1117 1616 1054 1595.5 Q991 1575 919 1575 Q843 1575 780 1596 Q717 1617 672 1655 Q627 1693 602 1746 Q577 1799 577 1863 L577 1873 L727 1873 L727 1860 Q727 1826 742 1797.5 Q757 1769 783.5 1748 Q810 1727 846 1715.5 Q882 1704 923 1704 Q1008 1704 1065.5 1749 Q1123 1794 1143 1873 L1297 1873 Z M580 1281 L480 818 L1155 818 L1121 658 L447 658 L341 162 L1053 162 L1019 0 L648 0 L561 -140 Q740 -160 740 -296 Q740 -339 721.5 -374.5 Q703 -410 670.5 -436 Q638 -462 592.5 -476.5 Q547 -491 493 -491 Q450 -491 402.5 -481.5 Q355 -472 318 -455 L341 -347 Q354 -353 372.5 -358 Q391 -363 411 -366.5 Q431 -370 451 -372.5 Q471 -375 488 -375 Q536 -375 564 -356 Q592 -337 592 -305 Q592 -270 558 -251.5 Q524 -233 458 -233 L405 -233 L418 -143 L507 0 L123 0 L430 1443 L1326 1443 L1291 1281 L580 1281 Z " />
<glyph glyph-name="Eogonek" unicode="&#x118;" horiz-adv-x="1219" d="M834 -432 Q730 -432 672 -382.5 Q614 -333 614 -245 Q614 -174 649 -114.5 Q684 -55 759 0 L123 0 L430 1443 L1326 1443 L1291 1281 L580 1281 L480 818 L1155 818 L1121 658 L447 658 L341 162 L1053 162 L1024 39 Q906 -6 844 -69.5 Q782 -133 782 -208 Q782 -249 810 -273.5 Q838 -298 885 -298 Q905 -298 925.5 -295.5 Q946 -293 956 -289 L930 -416 Q913 -423 885.5 -427.5 Q858 -432 834 -432 Z " />
<glyph glyph-name="F" unicode="F" horiz-adv-x="1170" d="M123 0 L430 1443 L1308 1443 L1273 1281 L580 1281 L473 785 L1110 785 L1076 625 L439 625 L308 0 L123 0 Z " />
<glyph glyph-name="Fdotaccent" unicode="&#x1e1e;" horiz-adv-x="1170" d="M123 0 L430 1443 L1308 1443 L1273 1281 L580 1281 L473 785 L1110 785 L1076 625 L439 625 L308 0 L123 0 Z M923 1575 Q898 1575 876 1584.5 Q854 1594 837.5 1610.5 Q821 1627 811.5 1649 Q802 1671 802 1696 Q802 1721 811.5 1743 Q821 1765 837.5 1781.5 Q854 1798 876 1807.5 Q898 1817 923 1817 Q948 1817 970 1807.5 Q992 1798 1008.5 1781.5 Q1025 1765 1034.5 1743 Q1044 1721 1044 1696 Q1044 1671 1034.5 1649 Q1025 1627 1008.5 1610.5 Q992 1594 970 1584.5 Q948 1575 923 1575 Z " />
<glyph glyph-name="G" unicode="G" horiz-adv-x="1525" d="M1449 540 Q1389 259 1216.5 112.5 Q1044 -34 776 -34 Q647 -34 541.5 9 Q436 52 360.5 130 Q285 208 243.5 318 Q202 428 202 562 Q202 694 228 813.5 Q254 933 302 1034.5 Q350 1136 418 1218 Q486 1300 570.5 1357.5 Q655 1415 754 1446 Q853 1477 963 1477 Q1075 1477 1171.5 1444 Q1268 1411 1340 1351.5 Q1412 1292 1456 1209.5 Q1500 1127 1507 1028 Q1508 1022 1508 1015.5 Q1508 1009 1508 992 L1325 992 Q1320 1065 1291 1123.5 Q1262 1182 1213 1223.5 Q1164 1265 1097 1287.5 Q1030 1310 949 1310 Q870 1310 797.5 1284.5 Q725 1259 663 1212.5 Q601 1166 550.5 1100.5 Q500 1035 464 954 Q428 873 408.5 778.5 Q389 684 389 581 Q389 477 417.5 394 Q446 311 499.5 253 Q553 195 629.5 164 Q706 133 802 133 Q888 133 964 161 Q1040 189 1100.5 240 Q1161 291 1202.5 363 Q1244 435 1262 523 L1273 578 L873 578 L907 736 L1491 736 L1449 540 Z " />
<glyph glyph-name="Gacute" unicode="&#x1f4;" horiz-adv-x="1528" d="M1449 540 Q1389 259 1216.5 112.5 Q1044 -34 776 -34 Q647 -34 541.5 9 Q436 52 360.5 130 Q285 208 243.5 318 Q202 428 202 562 Q202 694 228 813.5 Q254 933 302 1034.5 Q350 1136 418 1218 Q486 1300 570.5 1357.5 Q655 1415 754 1446 Q853 1477 963 1477 Q1075 1477 1171.5 1444 Q1268 1411 1340 1351.5 Q1412 1292 1456 1209.5 Q1500 1127 1507 1028 Q1508 1022 1508 1015.5 Q1508 1009 1508 992 L1325 992 Q1320 1065 1291 1123.5 Q1262 1182 1213 1223.5 Q1164 1265 1097 1287.5 Q1030 1310 949 1310 Q870 1310 797.5 1284.5 Q725 1259 663 1212.5 Q601 1166 550.5 1100.5 Q500 1035 464 954 Q428 873 408.5 778.5 Q389 684 389 581 Q389 477 417.5 394 Q446 311 499.5 253 Q553 195 629.5 164 Q706 133 802 133 Q888 133 964 161 Q1040 189 1100.5 240 Q1161 291 1202.5 363 Q1244 435 1262 523 L1273 578 L873 578 L907 736 L1491 736 L1449 540 Z M1264 1873 L1490 1873 L1095 1575 L891 1575 L1264 1873 Z " />
<glyph glyph-name="Gcaron" unicode="&#x1e6;" horiz-adv-x="1528" d="M1449 540 Q1389 259 1216.5 112.5 Q1044 -34 776 -34 Q647 -34 541.5 9 Q436 52 360.5 130 Q285 208 243.5 318 Q202 428 202 562 Q202 694 228 813.5 Q254 933 302 1034.5 Q350 1136 418 1218 Q486 1300 570.5 1357.5 Q655 1415 754 1446 Q853 1477 963 1477 Q1075 1477 1171.5 1444 Q1268 1411 1340 1351.5 Q1412 1292 1456 1209.5 Q1500 1127 1507 1028 Q1508 1022 1508 1015.5 Q1508 1009 1508 992 L1325 992 Q1320 1065 1291 1123.5 Q1262 1182 1213 1223.5 Q1164 1265 1097 1287.5 Q1030 1310 949 1310 Q870 1310 797.5 1284.5 Q725 1259 663 1212.5 Q601 1166 550.5 1100.5 Q500 1035 464 954 Q428 873 408.5 778.5 Q389 684 389 581 Q389 477 417.5 394 Q446 311 499.5 253 Q553 195 629.5 164 Q706 133 802 133 Q888 133 964 161 Q1040 189 1100.5 240 Q1161 291 1202.5 363 Q1244 435 1262 523 L1273 578 L873 578 L907 736 L1491 736 L1449 540 Z M707 1873 L892 1873 L997 1687 L1013 1687 L1196 1873 L1403 1873 L1093 1575 L891 1575 L707 1873 Z " />
<glyph glyph-name="Gcircumflex" unicode="&#x11c;" horiz-adv-x="1528" d="M1449 540 Q1389 259 1216.5 112.5 Q1044 -34 776 -34 Q647 -34 541.5 9 Q436 52 360.5 130 Q285 208 243.5 318 Q202 428 202 562 Q202 694 228 813.5 Q254 933 302 1034.5 Q350 1136 418 1218 Q486 1300 570.5 1357.5 Q655 1415 754 1446 Q853 1477 963 1477 Q1075 1477 1171.5 1444 Q1268 1411 1340 1351.5 Q1412 1292 1456 1209.5 Q1500 1127 1507 1028 Q1508 1022 1508 1015.5 Q1508 1009 1508 992 L1325 992 Q1320 1065 1291 1123.5 Q1262 1182 1213 1223.5 Q1164 1265 1097 1287.5 Q1030 1310 949 1310 Q870 1310 797.5 1284.5 Q725 1259 663 1212.5 Q601 1166 550.5 1100.5 Q500 1035 464 954 Q428 873 408.5 778.5 Q389 684 389 581 Q389 477 417.5 394 Q446 311 499.5 253 Q553 195 629.5 164 Q706 133 802 133 Q888 133 964 161 Q1040 189 1100.5 240 Q1161 291 1202.5 363 Q1244 435 1262 523 L1273 578 L873 578 L907 736 L1491 736 L1449 540 Z M1318 1575 L1133 1575 L1028 1761 L1012 1761 L829 1575 L622 1575 L932 1873 L1134 1873 L1318 1575 Z " />
<glyph glyph-name="Gbreve" unicode="&#x11e;" horiz-adv-x="1528" d="M1449 540 Q1389 259 1216.5 112.5 Q1044 -34 776 -34 Q647 -34 541.5 9 Q436 52 360.5 130 Q285 208 243.5 318 Q202 428 202 562 Q202 694 228 813.5 Q254 933 302 1034.5 Q350 1136 418 1218 Q486 1300 570.5 1357.5 Q655 1415 754 1446 Q853 1477 963 1477 Q1075 1477 1171.5 1444 Q1268 1411 1340 1351.5 Q1412 1292 1456 1209.5 Q1500 1127 1507 1028 Q1508 1022 1508 1015.5 Q1508 1009 1508 992 L1325 992 Q1320 1065 1291 1123.5 Q1262 1182 1213 1223.5 Q1164 1265 1097 1287.5 Q1030 1310 949 1310 Q870 1310 797.5 1284.5 Q725 1259 663 1212.5 Q601 1166 550.5 1100.5 Q500 1035 464 954 Q428 873 408.5 778.5 Q389 684 389 581 Q389 477 417.5 394 Q446 311 499.5 253 Q553 195 629.5 164 Q706 133 802 133 Q888 133 964 161 Q1040 189 1100.5 240 Q1161 291 1202.5 363 Q1244 435 1262 523 L1273 578 L873 578 L907 736 L1491 736 L1449 540 Z M653 1873 L803 1873 L803 1860 Q803 1826 818 1797.5 Q833 1769 859.5 1748 Q886 1727 922 1715.5 Q958 1704 999 1704 Q1084 1704 1141.5 1749 Q1199 1794 1219 1873 L1373 1873 Q1360 1804 1326 1749 Q1292 1694 1242.5 1655 Q1193 1616 1130 1595.5 Q1067 1575 995 1575 Q919 1575 856 1596 Q793 1617 748 1655 Q703 1693 678 1746 Q653 1799 653 1863 L653 1873 Z " />
<glyph glyph-name="Gmacron" unicode="&#x1e20;" horiz-adv-x="1528" d="M1449 540 Q1389 259 1216.5 112.5 Q1044 -34 776 -34 Q647 -34 541.5 9 Q436 52 360.5 130 Q285 208 243.5 318 Q202 428 202 562 Q202 694 228 813.5 Q254 933 302 1034.5 Q350 1136 418 1218 Q486 1300 570.5 1357.5 Q655 1415 754 1446 Q853 1477 963 1477 Q1075 1477 1171.5 1444 Q1268 1411 1340 1351.5 Q1412 1292 1456 1209.5 Q1500 1127 1507 1028 Q1508 1022 1508 1015.5 Q1508 1009 1508 992 L1325 992 Q1320 1065 1291 1123.5 Q1262 1182 1213 1223.5 Q1164 1265 1097 1287.5 Q1030 1310 949 1310 Q870 1310 797.5 1284.5 Q725 1259 663 1212.5 Q601 1166 550.5 1100.5 Q500 1035 464 954 Q428 873 408.5 778.5 Q389 684 389 581 Q389 477 417.5 394 Q446 311 499.5 253 Q553 195 629.5 164 Q706 133 802 133 Q888 133 964 161 Q1040 189 1100.5 240 Q1161 291 1202.5 363 Q1244 435 1262 523 L1273 578 L873 578 L907 736 L1491 736 L1449 540 Z M654 1620 L683 1756 L1357 1756 L1328 1620 L654 1620 Z " />
<glyph glyph-name="Gdotaccent" unicode="&#x120;" horiz-adv-x="1528" d="M1449 540 Q1389 259 1216.5 112.5 Q1044 -34 776 -34 Q647 -34 541.5 9 Q436 52 360.5 130 Q285 208 243.5 318 Q202 428 202 562 Q202 694 228 813.5 Q254 933 302 1034.5 Q350 1136 418 1218 Q486 1300 570.5 1357.5 Q655 1415 754 1446 Q853 1477 963 1477 Q1075 1477 1171.5 1444 Q1268 1411 1340 1351.5 Q1412 1292 1456 1209.5 Q1500 1127 1507 1028 Q1508 1022 1508 1015.5 Q1508 1009 1508 992 L1325 992 Q1320 1065 1291 1123.5 Q1262 1182 1213 1223.5 Q1164 1265 1097 1287.5 Q1030 1310 949 1310 Q870 1310 797.5 1284.5 Q725 1259 663 1212.5 Q601 1166 550.5 1100.5 Q500 1035 464 954 Q428 873 408.5 778.5 Q389 684 389 581 Q389 477 417.5 394 Q446 311 499.5 253 Q553 195 629.5 164 Q706 133 802 133 Q888 133 964 161 Q1040 189 1100.5 240 Q1161 291 1202.5 363 Q1244 435 1262 523 L1273 578 L873 578 L907 736 L1491 736 L1449 540 Z M1008 1575 Q983 1575 961 1584.5 Q939 1594 922.5 1610.5 Q906 1627 896.5 1649 Q887 1671 887 1696 Q887 1721 896.5 1743 Q906 1765 922.5 1781.5 Q939 1798 961 1807.5 Q983 1817 1008 1817 Q1033 1817 1055 1807.5 Q1077 1798 1093.5 1781.5 Q1110 1765 1119.5 1743 Q1129 1721 1129 1696 Q1129 1671 1119.5 1649 Q1110 1627 1093.5 1610.5 Q1077 1594 1055 1584.5 Q1033 1575 1008 1575 Z " />
<glyph glyph-name="Gcommaaccent" unicode="&#x122;" horiz-adv-x="1528" d="M1449 540 Q1389 259 1216.5 112.5 Q1044 -34 776 -34 Q647 -34 541.5 9 Q436 52 360.5 130 Q285 208 243.5 318 Q202 428 202 562 Q202 694 228 813.5 Q254 933 302 1034.5 Q350 1136 418 1218 Q486 1300 570.5 1357.5 Q655 1415 754 1446 Q853 1477 963 1477 Q1075 1477 1171.5 1444 Q1268 1411 1340 1351.5 Q1412 1292 1456 1209.5 Q1500 1127 1507 1028 Q1508 1022 1508 1015.5 Q1508 1009 1508 992 L1325 992 Q1320 1065 1291 1123.5 Q1262 1182 1213 1223.5 Q1164 1265 1097 1287.5 Q1030 1310 949 1310 Q870 1310 797.5 1284.5 Q725 1259 663 1212.5 Q601 1166 550.5 1100.5 Q500 1035 464 954 Q428 873 408.5 778.5 Q389 684 389 581 Q389 477 417.5 394 Q446 311 499.5 253 Q553 195 629.5 164 Q706 133 802 133 Q888 133 964 161 Q1040 189 1100.5 240 Q1161 291 1202.5 363 Q1244 435 1262 523 L1273 578 L873 578 L907 736 L1491 736 L1449 540 Z M503 -518 L685 -141 L867 -141 L670 -518 L503 -518 Z " />
<glyph glyph-name="H" unicode="H" horiz-adv-x="1522" d="M1094 0 L1234 657 L446 657 L306 0 L123 0 L430 1443 L614 1443 L481 819 L1269 819 L1402 1443 L1586 1443 L1279 0 L1094 0 Z " />
<glyph glyph-name="Hdieresis" unicode="&#x1e26;" horiz-adv-x="1522" d="M1094 0 L1234 657 L446 657 L306 0 L123 0 L430 1443 L614 1443 L481 819 L1269 819 L1402 1443 L1586 1443 L1279 0 L1094 0 Z M859 1575 Q834 1575 812 1584.5 Q790 1594 773.5 1610.5 Q757 1627 747.5 1649 Q738 1671 738 1696 Q738 1721 747.5 1743 Q757 1765 773.5 1781.5 Q790 1798 812 1807.5 Q834 1817 859 1817 Q884 1817 906 1807.5 Q928 1798 944.5 1781.5 Q961 1765 970.5 1743 Q980 1721 980 1696 Q980 1671 970.5 1649 Q961 1627 944.5 1610.5 Q928 1594 906 1584.5 Q884 1575 859 1575 Z M1263 1575 Q1238 1575 1216 1584.5 Q1194 1594 1177.5 1610.5 Q1161 1627 1151.5 1649 Q1142 1671 1142 1696 Q1142 1721 1151.5 1743 Q1161 1765 1177.5 1781.5 Q1194 1798 1216 1807.5 Q1238 1817 1263 1817 Q1288 1817 1310 1807.5 Q1332 1798 1348.5 1781.5 Q1365 1765 1374.5 1743 Q1384 1721 1384 1696 Q1384 1671 1374.5 1649 Q1365 1627 1348.5 1610.5 Q1332 1594 1310 1584.5 Q1288 1575 1263 1575 Z " />
<glyph glyph-name="Hcaron" unicode="&#x21e;" horiz-adv-x="1522" d="M1094 0 L1234 657 L446 657 L306 0 L123 0 L430 1443 L614 1443 L481 819 L1269 819 L1402 1443 L1586 1443 L1279 0 L1094 0 Z M761 1873 L946 1873 L1051 1687 L1067 1687 L1250 1873 L1457 1873 L1147 1575 L945 1575 L761 1873 Z " />
<glyph glyph-name="Hcircumflex" unicode="&#x124;" horiz-adv-x="1522" d="M1094 0 L1234 657 L446 657 L306 0 L123 0 L430 1443 L614 1443 L481 819 L1269 819 L1402 1443 L1586 1443 L1279 0 L1094 0 Z M1372 1575 L1187 1575 L1082 1761 L1066 1761 L883 1575 L676 1575 L986 1873 L1188 1873 L1372 1575 Z " />
<glyph glyph-name="Hdotbelow" unicode="&#x1e24;" horiz-adv-x="1522" d="M1094 0 L1234 657 L446 657 L306 0 L123 0 L430 1443 L614 1443 L481 819 L1269 819 L1402 1443 L1586 1443 L1279 0 L1094 0 Z M640 -402 Q615 -402 593 -392.5 Q571 -383 554.5 -366.5 Q538 -350 528.5 -328 Q519 -306 519 -281 Q519 -256 528.5 -234 Q538 -212 554.5 -195.5 Q571 -179 593 -169.5 Q615 -160 640 -160 Q665 -160 687 -169.5 Q709 -179 725.5 -195.5 Q742 -212 751.5 -234 Q761 -256 761 -281 Q761 -306 751.5 -328 Q742 -350 725.5 -366.5 Q709 -383 687 -392.5 Q665 -402 640 -402 Z " />
<glyph glyph-name="Hdotaccent" unicode="&#x1e22;" horiz-adv-x="1522" d="M1094 0 L1234 657 L446 657 L306 0 L123 0 L430 1443 L614 1443 L481 819 L1269 819 L1402 1443 L1586 1443 L1279 0 L1094 0 Z M1062 1575 Q1037 1575 1015 1584.5 Q993 1594 976.5 1610.5 Q960 1627 950.5 1649 Q941 1671 941 1696 Q941 1721 950.5 1743 Q960 1765 976.5 1781.5 Q993 1798 1015 1807.5 Q1037 1817 1062 1817 Q1087 1817 1109 1807.5 Q1131 1798 1147.5 1781.5 Q1164 1765 1173.5 1743 Q1183 1721 1183 1696 Q1183 1671 1173.5 1649 Q1164 1627 1147.5 1610.5 Q1131 1594 1109 1584.5 Q1087 1575 1062 1575 Z " />
<glyph glyph-name="Hbrevebelow" unicode="&#x1e2a;" horiz-adv-x="1522" d="M1094 0 L1234 657 L446 657 L306 0 L123 0 L430 1443 L614 1443 L481 819 L1269 819 L1402 1443 L1586 1443 L1279 0 L1094 0 Z M976 -126 Q963 -195 929 -250 Q895 -305 845.5 -344 Q796 -383 733 -403.5 Q670 -424 598 -424 Q522 -424 459 -403 Q396 -382 351 -344 Q306 -306 281 -253 Q256 -200 256 -136 L256 -126 L408 -126 Q410 -165 424.5 -196 Q439 -227 464.5 -249 Q490 -271 525 -283 Q560 -295 602 -295 Q687 -295 744.5 -250 Q802 -205 822 -126 L976 -126 Z " />
<glyph glyph-name="Hcedilla" unicode="&#x1e28;" horiz-adv-x="1522" d="M1586 1443 L1279 0 L1094 0 L1234 657 L446 657 L314 39 L316 39 L313 35 L306 0 L292 0 L205 -140 Q384 -160 384 -296 Q384 -339 365.5 -374.5 Q347 -410 314.5 -436 Q282 -462 236.5 -476.5 Q191 -491 137 -491 Q94 -491 46.5 -481.5 Q-1 -472 -38 -455 L-15 -347 Q-2 -353 16.5 -358 Q35 -363 55 -366.5 Q75 -370 95 -372.5 Q115 -375 132 -375 Q180 -375 208 -356 Q236 -337 236 -305 Q236 -270 202 -251.5 Q168 -233 102 -233 L49 -233 L62 -143 L151 0 L123 0 L430 1443 L614 1443 L481 819 L1269 819 L1402 1443 L1586 1443 Z " />
<glyph glyph-name="Hbar" unicode="&#x126;" horiz-adv-x="1473" d="M1301 1075 L513 1075 L458 819 L1246 819 L1301 1075 Z M1617 1075 L1485 1075 L1256 0 L1071 0 L1211 657 L423 657 L283 0 L100 0 L329 1075 L193 1075 L223 1218 L359 1218 L407 1443 L591 1443 L543 1218 L1331 1218 L1379 1443 L1563 1443 L1515 1218 L1647 1218 L1617 1075 Z " />
<glyph glyph-name="I" unicode="I" horiz-adv-x="550" d="M123 0 L430 1443 L614 1443 L307 0 L123 0 Z " />
<glyph glyph-name="Idotaccent" unicode="&#x130;" horiz-adv-x="550" d="M123 0 L430 1443 L614 1443 L307 0 L123 0 Z M576 1575 Q551 1575 529 1584.5 Q507 1594 490.5 1610.5 Q474 1627 464.5 1649 Q455 1671 455 1696 Q455 1721 464.5 1743 Q474 1765 490.5 1781.5 Q507 1798 529 1807.5 Q551 1817 576 1817 Q601 1817 623 1807.5 Q645 1798 661.5 1781.5 Q678 1765 687.5 1743 Q697 1721 697 1696 Q697 1671 687.5 1649 Q678 1627 661.5 1610.5 Q645 1594 623 1584.5 Q601 1575 576 1575 Z " />
<glyph glyph-name="Igrave" unicode="&#xcc;" horiz-adv-x="550" d="M123 0 L430 1443 L614 1443 L307 0 L123 0 Z M632 1575 L448 1575 L242 1873 L448 1873 L632 1575 Z " />
<glyph glyph-name="Idblgrave" unicode="&#x208;" horiz-adv-x="550" d="M123 0 L430 1443 L614 1443 L307 0 L123 0 Z M252 1575 L46 1873 L272 1873 L456 1575 L252 1575 Z M666 1575 L460 1873 L686 1873 L870 1575 L666 1575 Z " />
<glyph glyph-name="Iacute" unicode="&#xcd;" horiz-adv-x="550" d="M123 0 L430 1443 L614 1443 L307 0 L123 0 Z M833 1873 L1059 1873 L664 1575 L460 1575 L833 1873 Z " />
<glyph glyph-name="Icircumflex" unicode="&#xce;" horiz-adv-x="550" d="M123 0 L430 1443 L614 1443 L307 0 L123 0 Z M887 1575 L702 1575 L597 1761 L581 1761 L398 1575 L191 1575 L501 1873 L703 1873 L887 1575 Z " />
<glyph glyph-name="Icaron" unicode="&#x1cf;" horiz-adv-x="550" d="M123 0 L430 1443 L614 1443 L307 0 L123 0 Z M276 1873 L461 1873 L566 1687 L582 1687 L765 1873 L972 1873 L662 1575 L460 1575 L276 1873 Z " />
<glyph glyph-name="Idieresis" unicode="&#xcf;" horiz-adv-x="550" d="M123 0 L430 1443 L614 1443 L307 0 L123 0 Z M374 1575 Q349 1575 327 1584.5 Q305 1594 288.5 1610.5 Q272 1627 262.5 1649 Q253 1671 253 1696 Q253 1721 262.5 1743 Q272 1765 288.5 1781.5 Q305 1798 327 1807.5 Q349 1817 374 1817 Q399 1817 421 1807.5 Q443 1798 459.5 1781.5 Q476 1765 485.5 1743 Q495 1721 495 1696 Q495 1671 485.5 1649 Q476 1627 459.5 1610.5 Q443 1594 421 1584.5 Q399 1575 374 1575 Z M778 1575 Q753 1575 731 1584.5 Q709 1594 692.5 1610.5 Q676 1627 666.5 1649 Q657 1671 657 1696 Q657 1721 666.5 1743 Q676 1765 692.5 1781.5 Q709 1798 731 1807.5 Q753 1817 778 1817 Q803 1817 825 1807.5 Q847 1798 863.5 1781.5 Q880 1765 889.5 1743 Q899 1721 899 1696 Q899 1671 889.5 1649 Q880 1627 863.5 1610.5 Q847 1594 825 1584.5 Q803 1575 778 1575 Z " />
<glyph glyph-name="Idieresisacute" unicode="&#x1e2e;" horiz-adv-x="550" d="M123 0 L430 1443 L614 1443 L307 0 L123 0 Z M765 2095 L992 2095 L664 1873 L488 1873 L765 2095 Z M374 1575 Q349 1575 327 1584.5 Q305 1594 288.5 1610.5 Q272 1627 262.5 1649 Q253 1671 253 1696 Q253 1721 262.5 1743 Q272 1765 288.5 1781.5 Q305 1798 327 1807.5 Q349 1817 374 1817 Q399 1817 421 1807.5 Q443 1798 459.5 1781.5 Q476 1765 485.5 1743 Q495 1721 495 1696 Q495 1671 485.5 1649 Q476 1627 459.5 1610.5 Q443 1594 421 1584.5 Q399 1575 374 1575 Z M778 1575 Q753 1575 731 1584.5 Q709 1594 692.5 1610.5 Q676 1627 666.5 1649 Q657 1671 657 1696 Q657 1721 666.5 1743 Q676 1765 692.5 1781.5 Q709 1798 731 1807.5 Q753 1817 778 1817 Q803 1817 825 1807.5 Q847 1798 863.5 1781.5 Q880 1765 889.5 1743 Q899 1721 899 1696 Q899 1671 889.5 1649 Q880 1627 863.5 1610.5 Q847 1594 825 1584.5 Q803 1575 778 1575 Z " />
<glyph glyph-name="Ibreve" unicode="&#x12c;" horiz-adv-x="550" d="M123 0 L430 1443 L614 1443 L307 0 L123 0 Z M222 1873 L372 1873 L372 1860 Q372 1826 387 1797.5 Q402 1769 428.5 1748 Q455 1727 491 1715.5 Q527 1704 568 1704 Q653 1704 710.5 1749 Q768 1794 788 1873 L942 1873 Q929 1804 895 1749 Q861 1694 811.5 1655 Q762 1616 699 1595.5 Q636 1575 564 1575 Q488 1575 425 1596 Q362 1617 317 1655 Q272 1693 247 1746 Q222 1799 222 1863 L222 1873 Z " />
<glyph glyph-name="Idotbelow" unicode="&#x1eca;" horiz-adv-x="550" d="M123 0 L430 1443 L614 1443 L307 0 L123 0 Z M154 -402 Q129 -402 107 -392.5 Q85 -383 68.5 -366.5 Q52 -350 42.5 -328 Q33 -306 33 -281 Q33 -256 42.5 -234 Q52 -212 68.5 -195.5 Q85 -179 107 -169.5 Q129 -160 154 -160 Q179 -160 201 -169.5 Q223 -179 239.5 -195.5 Q256 -212 265.5 -234 Q275 -256 275 -281 Q275 -306 265.5 -328 Q256 -350 239.5 -366.5 Q223 -383 201 -392.5 Q179 -402 154 -402 Z " />
<glyph glyph-name="Iinvertedbreve" unicode="&#x20a;" horiz-adv-x="550" d="M123 0 L430 1443 L614 1443 L307 0 L123 0 Z M942 1575 L792 1575 L792 1588 Q792 1622 777 1650.5 Q762 1679 735.5 1700 Q709 1721 673 1732.5 Q637 1744 596 1744 Q511 1744 453.5 1699 Q396 1654 376 1575 L222 1575 Q235 1644 269 1699 Q303 1754 352.5 1793 Q402 1832 465 1852.5 Q528 1873 600 1873 Q676 1873 739 1852 Q802 1831 847 1793 Q892 1755 917 1702 Q942 1649 942 1585 L942 1575 Z " />
<glyph glyph-name="Imacron" unicode="&#x12a;" horiz-adv-x="550" d="M123 0 L430 1443 L614 1443 L307 0 L123 0 Z M223 1620 L252 1756 L926 1756 L897 1620 L223 1620 Z " />
<glyph glyph-name="Itildebelow" unicode="&#x1e2c;" horiz-adv-x="550" d="M123 0 L430 1443 L614 1443 L307 0 L123 0 Z M306 -431 Q263 -431 231 -418.5 Q199 -406 173.5 -387 Q148 -368 127.5 -345.5 Q107 -323 87.5 -304 Q68 -285 48 -272.5 Q28 -260 3 -260 Q-35 -260 -66 -287 Q-97 -314 -111 -386 L-253 -386 Q-242 -320 -217.5 -271 Q-193 -222 -159 -189.5 Q-125 -157 -83 -141 Q-41 -125 6 -125 Q48 -125 80 -137.5 Q112 -150 137.5 -169 Q163 -188 183.5 -210.5 Q204 -233 223.5 -252 Q243 -271 263 -283.5 Q283 -296 308 -296 Q346 -296 377.5 -269 Q409 -242 423 -170 L565 -170 Q554 -236 529.5 -285 Q505 -334 471 -366.5 Q437 -399 394.5 -415 Q352 -431 306 -431 Z " />
<glyph glyph-name="Ihookabove" unicode="&#x1ec8;" horiz-adv-x="550" d="M123 0 L430 1443 L614 1443 L307 0 L123 0 Z M464 1900 Q490 1910 524.5 1915.5 Q559 1921 594 1921 Q636 1921 671.5 1909 Q707 1897 733.5 1875.5 Q760 1854 774.5 1824.5 Q789 1795 789 1761 Q789 1724 773 1689 Q757 1654 727 1623.5 Q697 1593 654 1568.5 Q611 1544 557 1527 L505 1624 Q533 1632 557 1645 Q581 1658 599 1673.5 Q617 1689 627 1707 Q637 1725 637 1742 Q637 1769 615 1785.5 Q593 1802 557 1802 Q523 1802 492 1797.5 Q461 1793 440 1785 L464 1900 Z " />
<glyph glyph-name="Itilde" unicode="&#x128;" horiz-adv-x="550" d="M123 0 L430 1443 L614 1443 L307 0 L123 0 Z M734 1575 Q692 1575 659 1587 Q626 1599 600 1617 Q574 1635 552.5 1656.5 Q531 1678 511.5 1696 Q492 1714 472.5 1726 Q453 1738 431 1738 Q342 1738 317 1620 L175 1620 Q185 1680 209 1727 Q233 1774 267.5 1806.5 Q302 1839 344.5 1856 Q387 1873 434 1873 Q476 1873 508.5 1861 Q541 1849 567 1831 Q593 1813 614.5 1791.5 Q636 1770 655.5 1752 Q675 1734 694.5 1722 Q714 1710 736 1710 Q826 1710 851 1828 L993 1828 Q983 1768 959 1721 Q935 1674 900.5 1641.5 Q866 1609 823.5 1592 Q781 1575 734 1575 Z " />
<glyph glyph-name="Iogonek" unicode="&#x12e;" horiz-adv-x="550" d="M614 1443 L315 39 Q258 10 217.5 -18 Q177 -46 151.5 -74.5 Q126 -103 114.5 -133.5 Q103 -164 103 -198 Q103 -245 130.5 -271.5 Q158 -298 206 -298 Q226 -298 246.5 -295.5 Q267 -293 277 -289 L251 -416 Q234 -423 206.5 -427.5 Q179 -432 155 -432 Q105 -432 64 -418 Q23 -404 -5.5 -378.5 Q-34 -353 -49.5 -316.5 Q-65 -280 -65 -235 Q-65 -191 -54 -153.5 Q-43 -116 -19 -81 Q5 -46 43 -12.5 Q81 21 135 57 L430 1443 L614 1443 Z " />
<glyph glyph-name="J" unicode="J" horiz-adv-x="1102" d="M277 337 Q278 290 294 252.5 Q310 215 339 189 Q368 163 408.5 149 Q449 135 500 135 Q708 135 765 404 L986 1443 L1165 1443 L937 363 Q897 174 780.5 70 Q664 -34 478 -34 Q391 -34 318.5 -5.5 Q246 23 195 72.5 Q144 122 117.5 190 Q91 258 96 337 L277 337 Z " />
<glyph glyph-name="Jcircumflex" unicode="&#x134;" horiz-adv-x="1102" d="M277 337 Q278 290 294 252.5 Q310 215 339 189 Q368 163 408.5 149 Q449 135 500 135 Q708 135 765 404 L986 1443 L1165 1443 L937 363 Q897 174 780.5 70 Q664 -34 478 -34 Q391 -34 318.5 -5.5 Q246 23 195 72.5 Q144 122 117.5 190 Q91 258 96 337 L277 337 Z M1439 1575 L1254 1575 L1149 1761 L1133 1761 L950 1575 L743 1575 L1053 1873 L1255 1873 L1439 1575 Z " />
<glyph glyph-name="K" unicode="K" horiz-adv-x="1349" d="M123 0 L430 1443 L609 1443 L460 742 L476 742 L1248 1443 L1483 1443 L781 808 L1230 0 L1020 0 L639 697 L410 493 L303 0 L123 0 Z " />
<glyph glyph-name="Kacute" unicode="&#x1e30;" horiz-adv-x="1349" d="M123 0 L430 1443 L609 1443 L460 742 L476 742 L1248 1443 L1483 1443 L781 808 L1230 0 L1020 0 L639 697 L410 493 L303 0 L123 0 Z M1199 1873 L1425 1873 L1030 1575 L826 1575 L1199 1873 Z " />
<glyph glyph-name="Kcaron" unicode="&#x1e8;" horiz-adv-x="1349" d="M123 0 L430 1443 L609 1443 L460 742 L476 742 L1248 1443 L1483 1443 L781 808 L1230 0 L1020 0 L639 697 L410 493 L303 0 L123 0 Z M642 1873 L827 1873 L932 1687 L948 1687 L1131 1873 L1338 1873 L1028 1575 L826 1575 L642 1873 Z " />
<glyph glyph-name="Kdotbelow" unicode="&#x1e32;" horiz-adv-x="1349" d="M123 0 L430 1443 L609 1443 L460 742 L476 742 L1248 1443 L1483 1443 L781 808 L1230 0 L1020 0 L639 697 L410 493 L303 0 L123 0 Z M582 -402 Q557 -402 535 -392.5 Q513 -383 496.5 -366.5 Q480 -350 470.5 -328 Q461 -306 461 -281 Q461 -256 470.5 -234 Q480 -212 496.5 -195.5 Q513 -179 535 -169.5 Q557 -160 582 -160 Q607 -160 629 -169.5 Q651 -179 667.5 -195.5 Q684 -212 693.5 -234 Q703 -256 703 -281 Q703 -306 693.5 -328 Q684 -350 667.5 -366.5 Q651 -383 629 -392.5 Q607 -402 582 -402 Z " />
<glyph glyph-name="Klinebelow" unicode="&#x1e34;" horiz-adv-x="1349" d="M123 0 L430 1443 L609 1443 L460 742 L476 742 L1248 1443 L1483 1443 L781 808 L1230 0 L1020 0 L639 697 L410 493 L303 0 L123 0 Z M231 -348 L260 -212 L934 -212 L905 -348 L231 -348 Z " />
<glyph glyph-name="Kcommaaccent" unicode="&#x136;" horiz-adv-x="1349" d="M123 0 L430 1443 L609 1443 L460 742 L476 742 L1248 1443 L1483 1443 L781 808 L1230 0 L1020 0 L639 697 L410 493 L303 0 L123 0 Z M354 -518 L536 -141 L718 -141 L521 -518 L354 -518 Z " />
<glyph glyph-name="L" unicode="L" horiz-adv-x="1164" d="M1001 0 L123 0 L430 1443 L614 1443 L341 162 L1035 162 L1001 0 Z " />
<glyph glyph-name="Lacute" unicode="&#x139;" horiz-adv-x="1164" d="M1001 0 L123 0 L430 1443 L614 1443 L341 162 L1035 162 L1001 0 Z M832 1873 L1058 1873 L663 1575 L459 1575 L832 1873 Z " />
<glyph glyph-name="Lcircumflexbelow" unicode="&#x1e3c;" horiz-adv-x="1164" d="M1001 0 L123 0 L430 1443 L614 1443 L341 162 L1035 162 L1001 0 Z M852 -432 L650 -432 L515 -259 L499 -259 L290 -432 L88 -432 L450 -142 L614 -142 L852 -432 Z " />
<glyph glyph-name="Ldotbelow" unicode="&#x1e36;" horiz-adv-x="1164" d="M1001 0 L123 0 L430 1443 L614 1443 L341 162 L1035 162 L1001 0 Z M502 -402 Q477 -402 455 -392.5 Q433 -383 416.5 -366.5 Q400 -350 390.5 -328 Q381 -306 381 -281 Q381 -256 390.5 -234 Q400 -212 416.5 -195.5 Q433 -179 455 -169.5 Q477 -160 502 -160 Q527 -160 549 -169.5 Q571 -179 587.5 -195.5 Q604 -212 613.5 -234 Q623 -256 623 -281 Q623 -306 613.5 -328 Q604 -350 587.5 -366.5 Q571 -383 549 -392.5 Q527 -402 502 -402 Z " />
<glyph glyph-name="Ldotbelowmacron" unicode="&#x1e38;" horiz-adv-x="1164" d="M1001 0 L123 0 L430 1443 L614 1443 L341 162 L1035 162 L1001 0 Z M502 -402 Q477 -402 455 -392.5 Q433 -383 416.5 -366.5 Q400 -350 390.5 -328 Q381 -306 381 -281 Q381 -256 390.5 -234 Q400 -212 416.5 -195.5 Q433 -179 455 -169.5 Q477 -160 502 -160 Q527 -160 549 -169.5 Q571 -179 587.5 -195.5 Q604 -212 613.5 -234 Q623 -256 623 -281 Q623 -306 613.5 -328 Q604 -350 587.5 -366.5 Q571 -383 549 -392.5 Q527 -402 502 -402 Z M222 1620 L251 1756 L925 1756 L896 1620 L222 1620 Z " />
<glyph glyph-name="Llinebelow" unicode="&#x1e3a;" horiz-adv-x="1164" d="M1001 0 L123 0 L430 1443 L614 1443 L341 162 L1035 162 L1001 0 Z M151 -348 L180 -212 L854 -212 L825 -348 L151 -348 Z " />
<glyph glyph-name="Lcommaaccent" unicode="&#x13b;" horiz-adv-x="1164" d="M1001 0 L123 0 L430 1443 L614 1443 L341 162 L1035 162 L1001 0 Z M274 -518 L456 -141 L638 -141 L441 -518 L274 -518 Z " />
<glyph glyph-name="Lcaron" unicode="&#x13d;" horiz-adv-x="1164" d="M983 1443 L829 955 L709 955 L813 1443 L983 1443 Z M1001 0 L123 0 L430 1443 L614 1443 L341 162 L1035 162 L1001 0 Z " />
<glyph glyph-name="Lslash" unicode="&#x141;" horiz-adv-x="1115" d="M1035 162 L1001 0 L123 0 L276 718 L95 643 L125 786 L306 861 L430 1443 L614 1443 L508 945 L825 1077 L795 934 L477 802 L341 162 L1035 162 Z " />
<glyph glyph-name="M" unicode="M" horiz-adv-x="1792" d="M123 0 L430 1443 L630 1443 L872 249 L888 249 L1634 1443 L1856 1443 L1549 0 L1377 0 L1611 1102 L1599 1102 L914 10 L762 10 L541 1102 L529 1102 L295 0 L123 0 Z " />
<glyph glyph-name="Macute" unicode="&#x1e3e;" horiz-adv-x="1792" d="M123 0 L430 1443 L630 1443 L872 249 L888 249 L1634 1443 L1856 1443 L1549 0 L1377 0 L1611 1102 L1599 1102 L914 10 L762 10 L541 1102 L529 1102 L295 0 L123 0 Z M1452 1873 L1678 1873 L1283 1575 L1079 1575 L1452 1873 Z " />
<glyph glyph-name="Mdotaccent" unicode="&#x1e40;" horiz-adv-x="1792" d="M123 0 L430 1443 L630 1443 L872 249 L888 249 L1634 1443 L1856 1443 L1549 0 L1377 0 L1611 1102 L1599 1102 L914 10 L762 10 L541 1102 L529 1102 L295 0 L123 0 Z M1196 1575 Q1171 1575 1149 1584.5 Q1127 1594 1110.5 1610.5 Q1094 1627 1084.5 1649 Q1075 1671 1075 1696 Q1075 1721 1084.5 1743 Q1094 1765 1110.5 1781.5 Q1127 1798 1149 1807.5 Q1171 1817 1196 1817 Q1221 1817 1243 1807.5 Q1265 1798 1281.5 1781.5 Q1298 1765 1307.5 1743 Q1317 1721 1317 1696 Q1317 1671 1307.5 1649 Q1298 1627 1281.5 1610.5 Q1265 1594 1243 1584.5 Q1221 1575 1196 1575 Z " />
<glyph glyph-name="Mdotbelow" unicode="&#x1e42;" horiz-adv-x="1792" d="M123 0 L430 1443 L630 1443 L872 249 L888 249 L1634 1443 L1856 1443 L1549 0 L1377 0 L1611 1102 L1599 1102 L914 10 L762 10 L541 1102 L529 1102 L295 0 L123 0 Z M775 -402 Q750 -402 728 -392.5 Q706 -383 689.5 -366.5 Q673 -350 663.5 -328 Q654 -306 654 -281 Q654 -256 663.5 -234 Q673 -212 689.5 -195.5 Q706 -179 728 -169.5 Q750 -160 775 -160 Q800 -160 822 -169.5 Q844 -179 860.5 -195.5 Q877 -212 886.5 -234 Q896 -256 896 -281 Q896 -306 886.5 -328 Q877 -350 860.5 -366.5 Q844 -383 822 -392.5 Q800 -402 775 -402 Z " />
<glyph glyph-name="N" unicode="N" horiz-adv-x="1520" d="M123 0 L430 1443 L607 1443 L1141 290 L1157 290 L1402 1443 L1584 1443 L1277 0 L1098 0 L565 1150 L549 1150 L305 0 L123 0 Z " />
<glyph glyph-name="Ngrave" unicode="&#x1f8;" horiz-adv-x="1520" d="M123 0 L430 1443 L607 1443 L1141 290 L1157 290 L1402 1443 L1584 1443 L1277 0 L1098 0 L565 1150 L549 1150 L305 0 L123 0 Z M1126 1575 L942 1575 L736 1873 L942 1873 L1126 1575 Z " />
<glyph glyph-name="Nacute" unicode="&#x143;" horiz-adv-x="1520" d="M123 0 L430 1443 L607 1443 L1141 290 L1157 290 L1402 1443 L1584 1443 L1277 0 L1098 0 L565 1150 L549 1150 L305 0 L123 0 Z M1327 1873 L1553 1873 L1158 1575 L954 1575 L1327 1873 Z " />
<glyph glyph-name="Ntilde" unicode="&#xd1;" horiz-adv-x="1520" d="M123 0 L430 1443 L607 1443 L1141 290 L1157 290 L1402 1443 L1584 1443 L1277 0 L1098 0 L565 1150 L549 1150 L305 0 L123 0 Z M1228 1575 Q1186 1575 1153 1587 Q1120 1599 1094 1617 Q1068 1635 1046.5 1656.5 Q1025 1678 1005.5 1696 Q986 1714 966.5 1726 Q947 1738 925 1738 Q836 1738 811 1620 L669 1620 Q679 1680 703 1727 Q727 1774 761.5 1806.5 Q796 1839 838.5 1856 Q881 1873 928 1873 Q970 1873 1002.5 1861 Q1035 1849 1061 1831 Q1087 1813 1108.5 1791.5 Q1130 1770 1149.5 1752 Q1169 1734 1188.5 1722 Q1208 1710 1230 1710 Q1320 1710 1345 1828 L1487 1828 Q1477 1768 1453 1721 Q1429 1674 1394.5 1641.5 Q1360 1609 1317.5 1592 Q1275 1575 1228 1575 Z " />
<glyph glyph-name="Ndotbelow" unicode="&#x1e46;" horiz-adv-x="1520" d="M123 0 L430 1443 L607 1443 L1141 290 L1157 290 L1402 1443 L1584 1443 L1277 0 L1098 0 L565 1150 L549 1150 L305 0 L123 0 Z M640 -402 Q615 -402 593 -392.5 Q571 -383 554.5 -366.5 Q538 -350 528.5 -328 Q519 -306 519 -281 Q519 -256 528.5 -234 Q538 -212 554.5 -195.5 Q571 -179 593 -169.5 Q615 -160 640 -160 Q665 -160 687 -169.5 Q709 -179 725.5 -195.5 Q742 -212 751.5 -234 Q761 -256 761 -281 Q761 -306 751.5 -328 Q742 -350 725.5 -366.5 Q709 -383 687 -392.5 Q665 -402 640 -402 Z " />
<glyph glyph-name="Ndotaccent" unicode="&#x1e44;" horiz-adv-x="1520" d="M123 0 L430 1443 L607 1443 L1141 290 L1157 290 L1402 1443 L1584 1443 L1277 0 L1098 0 L565 1150 L549 1150 L305 0 L123 0 Z M1071 1575 Q1046 1575 1024 1584.5 Q1002 1594 985.5 1610.5 Q969 1627 959.5 1649 Q950 1671 950 1696 Q950 1721 959.5 1743 Q969 1765 985.5 1781.5 Q1002 1798 1024 1807.5 Q1046 1817 1071 1817 Q1096 1817 1118 1807.5 Q1140 1798 1156.5 1781.5 Q1173 1765 1182.5 1743 Q1192 1721 1192 1696 Q1192 1671 1182.5 1649 Q1173 1627 1156.5 1610.5 Q1140 1594 1118 1584.5 Q1096 1575 1071 1575 Z " />
<glyph glyph-name="Ncaron" unicode="&#x147;" horiz-adv-x="1520" d="M123 0 L430 1443 L607 1443 L1141 290 L1157 290 L1402 1443 L1584 1443 L1277 0 L1098 0 L565 1150 L549 1150 L305 0 L123 0 Z M770 1873 L955 1873 L1060 1687 L1076 1687 L1259 1873 L1466 1873 L1156 1575 L954 1575 L770 1873 Z " />
<glyph glyph-name="Ncircumflexbelow" unicode="&#x1e4a;" horiz-adv-x="1520" d="M123 0 L430 1443 L607 1443 L1141 290 L1157 290 L1402 1443 L1584 1443 L1277 0 L1098 0 L565 1150 L549 1150 L305 0 L123 0 Z M990 -432 L788 -432 L653 -259 L637 -259 L428 -432 L226 -432 L588 -142 L752 -142 L990 -432 Z " />
<glyph glyph-name="Nlinebelow" unicode="&#x1e48;" horiz-adv-x="1520" d="M123 0 L430 1443 L607 1443 L1141 290 L1157 290 L1402 1443 L1584 1443 L1277 0 L1098 0 L565 1150 L549 1150 L305 0 L123 0 Z M289 -348 L318 -212 L992 -212 L963 -348 L289 -348 Z " />
<glyph glyph-name="Ncommaaccent" unicode="&#x145;" horiz-adv-x="1520" d="M123 0 L430 1443 L607 1443 L1141 290 L1157 290 L1402 1443 L1584 1443 L1277 0 L1098 0 L565 1150 L549 1150 L305 0 L123 0 Z M412 -518 L594 -141 L776 -141 L579 -518 L412 -518 Z " />
<glyph glyph-name="O" unicode="O" horiz-adv-x="1579" d="M787 -34 Q660 -34 552.5 11 Q445 56 367 135.5 Q289 215 245 324.5 Q201 434 201 563 Q201 694 227.5 813 Q254 932 303.5 1033.5 Q353 1135 423 1217 Q493 1299 580 1357 Q667 1415 768.5 1446 Q870 1477 982 1477 Q1108 1477 1215 1432 Q1322 1387 1399.5 1307.5 Q1477 1228 1520.5 1118.5 Q1564 1009 1564 880 Q1564 748 1537.5 628.5 Q1511 509 1462 407.5 Q1413 306 1343.5 224.5 Q1274 143 1188 85.5 Q1102 28 1000.5 -3 Q899 -34 787 -34 Z M1374 864 Q1374 963 1344.5 1045.5 Q1315 1128 1261.5 1186.5 Q1208 1245 1133.5 1277.5 Q1059 1310 968 1310 Q845 1310 739 1254.5 Q633 1199 556 1100.5 Q479 1002 435 868.5 Q391 735 391 579 Q391 479 420.5 397 Q450 315 504 256.5 Q558 198 633.5 165.5 Q709 133 801 133 Q925 133 1030 187.5 Q1135 242 1211.5 339.5 Q1288 437 1331 571 Q1374 705 1374 864 Z " />
<glyph glyph-name="Odieresis" unicode="&#xd6;" horiz-adv-x="1579" d="M787 -34 Q660 -34 552.5 11 Q445 56 367 135.5 Q289 215 245 324.5 Q201 434 201 563 Q201 694 227.5 813 Q254 932 303.5 1033.5 Q353 1135 423 1217 Q493 1299 580 1357 Q667 1415 768.5 1446 Q870 1477 982 1477 Q1108 1477 1215 1432 Q1322 1387 1399.5 1307.5 Q1477 1228 1520.5 1118.5 Q1564 1009 1564 880 Q1564 748 1537.5 628.5 Q1511 509 1462 407.5 Q1413 306 1343.5 224.5 Q1274 143 1188 85.5 Q1102 28 1000.5 -3 Q899 -34 787 -34 Z M1374 864 Q1374 963 1344.5 1045.5 Q1315 1128 1261.5 1186.5 Q1208 1245 1133.5 1277.5 Q1059 1310 968 1310 Q845 1310 739 1254.5 Q633 1199 556 1100.5 Q479 1002 435 868.5 Q391 735 391 579 Q391 479 420.5 397 Q450 315 504 256.5 Q558 198 633.5 165.5 Q709 133 801 133 Q925 133 1030 187.5 Q1135 242 1211.5 339.5 Q1288 437 1331 571 Q1374 705 1374 864 Z M829 1573 Q804 1573 782 1582.5 Q760 1592 743.5 1608.5 Q727 1625 717.5 1647 Q708 1669 708 1694 Q708 1719 717.5 1741 Q727 1763 743.5 1779.5 Q760 1796 782 1805.5 Q804 1815 829 1815 Q854 1815 876 1805.5 Q898 1796 914.5 1779.5 Q931 1763 940.5 1741 Q950 1719 950 1694 Q950 1669 940.5 1647 Q931 1625 914.5 1608.5 Q898 1592 876 1582.5 Q854 1573 829 1573 Z M1233 1573 Q1208 1573 1186 1582.5 Q1164 1592 1147.5 1608.5 Q1131 1625 1121.5 1647 Q1112 1669 1112 1694 Q1112 1719 1121.5 1741 Q1131 1763 1147.5 1779.5 Q1164 1796 1186 1805.5 Q1208 1815 1233 1815 Q1258 1815 1280 1805.5 Q1302 1796 1318.5 1779.5 Q1335 1763 1344.5 1741 Q1354 1719 1354 1694 Q1354 1669 1344.5 1647 Q1335 1625 1318.5 1608.5 Q1302 1592 1280 1582.5 Q1258 1573 1233 1573 Z " />
<glyph glyph-name="Oslash" unicode="&#xd8;" horiz-adv-x="1551" d="M558 208 Q608 172 668.5 152.5 Q729 133 801 133 Q925 133 1030 187.5 Q1135 242 1211.5 339.5 Q1288 437 1331 571 Q1374 705 1374 864 Q1374 952 1351 1026.5 Q1328 1101 1286 1158 L558 208 Z M1198 1242 Q1150 1275 1092.5 1292.5 Q1035 1310 968 1310 Q845 1310 739 1254.5 Q633 1199 556 1100.5 Q479 1002 435 868.5 Q391 735 391 579 Q391 496 411.5 425.5 Q432 355 470 299 L1198 1242 Z M1400 1307 Q1478 1227 1521 1118.5 Q1564 1010 1564 880 Q1564 748 1537.5 628.5 Q1511 509 1462 407.5 Q1413 306 1343.5 224.5 Q1274 143 1188 85.5 Q1102 28 1000.5 -3 Q899 -34 787 -34 Q690 -34 605 -7.5 Q520 19 449 67 L362 -47 L262 29 L355 149 Q282 228 241.5 333 Q201 438 201 563 Q201 694 227.5 813 Q254 932 303.5 1033.5 Q353 1135 423 1217 Q493 1299 580 1357 Q667 1415 768.5 1446 Q870 1477 982 1477 Q1075 1477 1156.5 1453 Q1238 1429 1307 1384 L1388 1488 L1486 1419 L1400 1307 Z " />
<glyph glyph-name="Otilde" unicode="&#xd5;" horiz-adv-x="1579" d="M787 -34 Q660 -34 552.5 11 Q445 56 367 135.5 Q289 215 245 324.5 Q201 434 201 563 Q201 694 227.5 813 Q254 932 303.5 1033.5 Q353 1135 423 1217 Q493 1299 580 1357 Q667 1415 768.5 1446 Q870 1477 982 1477 Q1108 1477 1215 1432 Q1322 1387 1399.5 1307.5 Q1477 1228 1520.5 1118.5 Q1564 1009 1564 880 Q1564 748 1537.5 628.5 Q1511 509 1462 407.5 Q1413 306 1343.5 224.5 Q1274 143 1188 85.5 Q1102 28 1000.5 -3 Q899 -34 787 -34 Z M1374 864 Q1374 963 1344.5 1045.5 Q1315 1128 1261.5 1186.5 Q1208 1245 1133.5 1277.5 Q1059 1310 968 1310 Q845 1310 739 1254.5 Q633 1199 556 1100.5 Q479 1002 435 868.5 Q391 735 391 579 Q391 479 420.5 397 Q450 315 504 256.5 Q558 198 633.5 165.5 Q709 133 801 133 Q925 133 1030 187.5 Q1135 242 1211.5 339.5 Q1288 437 1331 571 Q1374 705 1374 864 Z M1189 1573 Q1147 1573 1114 1585 Q1081 1597 1055 1615 Q1029 1633 1007.5 1654.5 Q986 1676 966.5 1694 Q947 1712 927.5 1724 Q908 1736 886 1736 Q797 1736 772 1618 L630 1618 Q640 1678 664 1725 Q688 1772 722.5 1804.5 Q757 1837 799.5 1854 Q842 1871 889 1871 Q931 1871 963.5 1859 Q996 1847 1022 1829 Q1048 1811 1069.5 1789.5 Q1091 1768 1110.5 1750 Q1130 1732 1149.5 1720 Q1169 1708 1191 1708 Q1281 1708 1306 1826 L1448 1826 Q1438 1766 1414 1719 Q1390 1672 1355.5 1639.5 Q1321 1607 1278.5 1590 Q1236 1573 1189 1573 Z " />
<glyph glyph-name="Oacute" unicode="&#xd3;" horiz-adv-x="1579" d="M787 -34 Q660 -34 552.5 11 Q445 56 367 135.5 Q289 215 245 324.5 Q201 434 201 563 Q201 694 227.5 813 Q254 932 303.5 1033.5 Q353 1135 423 1217 Q493 1299 580 1357 Q667 1415 768.5 1446 Q870 1477 982 1477 Q1108 1477 1215 1432 Q1322 1387 1399.5 1307.5 Q1477 1228 1520.5 1118.5 Q1564 1009 1564 880 Q1564 748 1537.5 628.5 Q1511 509 1462 407.5 Q1413 306 1343.5 224.5 Q1274 143 1188 85.5 Q1102 28 1000.5 -3 Q899 -34 787 -34 Z M1374 864 Q1374 963 1344.5 1045.5 Q1315 1128 1261.5 1186.5 Q1208 1245 1133.5 1277.5 Q1059 1310 968 1310 Q845 1310 739 1254.5 Q633 1199 556 1100.5 Q479 1002 435 868.5 Q391 735 391 579 Q391 479 420.5 397 Q450 315 504 256.5 Q558 198 633.5 165.5 Q709 133 801 133 Q925 133 1030 187.5 Q1135 242 1211.5 339.5 Q1288 437 1331 571 Q1374 705 1374 864 Z M1288 1871 L1514 1871 L1119 1573 L915 1573 L1288 1871 Z " />
<glyph glyph-name="Ocircumflex" unicode="&#xd4;" horiz-adv-x="1579" d="M787 -34 Q660 -34 552.5 11 Q445 56 367 135.5 Q289 215 245 324.5 Q201 434 201 563 Q201 694 227.5 813 Q254 932 303.5 1033.5 Q353 1135 423 1217 Q493 1299 580 1357 Q667 1415 768.5 1446 Q870 1477 982 1477 Q1108 1477 1215 1432 Q1322 1387 1399.5 1307.5 Q1477 1228 1520.5 1118.5 Q1564 1009 1564 880 Q1564 748 1537.5 628.5 Q1511 509 1462 407.5 Q1413 306 1343.5 224.5 Q1274 143 1188 85.5 Q1102 28 1000.5 -3 Q899 -34 787 -34 Z M1374 864 Q1374 963 1344.5 1045.5 Q1315 1128 1261.5 1186.5 Q1208 1245 1133.5 1277.5 Q1059 1310 968 1310 Q845 1310 739 1254.5 Q633 1199 556 1100.5 Q479 1002 435 868.5 Q391 735 391 579 Q391 479 420.5 397 Q450 315 504 256.5 Q558 198 633.5 165.5 Q709 133 801 133 Q925 133 1030 187.5 Q1135 242 1211.5 339.5 Q1288 437 1331 571 Q1374 705 1374 864 Z M1342 1573 L1157 1573 L1052 1759 L1036 1759 L853 1573 L646 1573 L956 1871 L1158 1871 L1342 1573 Z " />
<glyph glyph-name="Ograve" unicode="&#xd2;" horiz-adv-x="1579" d="M787 -34 Q660 -34 552.5 11 Q445 56 367 135.5 Q289 215 245 324.5 Q201 434 201 563 Q201 694 227.5 813 Q254 932 303.5 1033.5 Q353 1135 423 1217 Q493 1299 580 1357 Q667 1415 768.5 1446 Q870 1477 982 1477 Q1108 1477 1215 1432 Q1322 1387 1399.5 1307.5 Q1477 1228 1520.5 1118.5 Q1564 1009 1564 880 Q1564 748 1537.5 628.5 Q1511 509 1462 407.5 Q1413 306 1343.5 224.5 Q1274 143 1188 85.5 Q1102 28 1000.5 -3 Q899 -34 787 -34 Z M1374 864 Q1374 963 1344.5 1045.5 Q1315 1128 1261.5 1186.5 Q1208 1245 1133.5 1277.5 Q1059 1310 968 1310 Q845 1310 739 1254.5 Q633 1199 556 1100.5 Q479 1002 435 868.5 Q391 735 391 579 Q391 479 420.5 397 Q450 315 504 256.5 Q558 198 633.5 165.5 Q709 133 801 133 Q925 133 1030 187.5 Q1135 242 1211.5 339.5 Q1288 437 1331 571 Q1374 705 1374 864 Z M1087 1573 L903 1573 L697 1871 L903 1871 L1087 1573 Z " />
<glyph glyph-name="Ocircumflexhookabove" unicode="&#x1ed4;" horiz-adv-x="1579" d="M787 -34 Q660 -34 552.5 11 Q445 56 367 135.5 Q289 215 245 324.5 Q201 434 201 563 Q201 694 227.5 813 Q254 932 303.5 1033.5 Q353 1135 423 1217 Q493 1299 580 1357 Q667 1415 768.5 1446 Q870 1477 982 1477 Q1108 1477 1215 1432 Q1322 1387 1399.5 1307.5 Q1477 1228 1520.5 1118.5 Q1564 1009 1564 880 Q1564 748 1537.5 628.5 Q1511 509 1462 407.5 Q1413 306 1343.5 224.5 Q1274 143 1188 85.5 Q1102 28 1000.5 -3 Q899 -34 787 -34 Z M1374 864 Q1374 963 1344.5 1045.5 Q1315 1128 1261.5 1186.5 Q1208 1245 1133.5 1277.5 Q1059 1310 968 1310 Q845 1310 739 1254.5 Q633 1199 556 1100.5 Q479 1002 435 868.5 Q391 735 391 579 Q391 479 420.5 397 Q450 315 504 256.5 Q558 198 633.5 165.5 Q709 133 801 133 Q925 133 1030 187.5 Q1135 242 1211.5 339.5 Q1288 437 1331 571 Q1374 705 1374 864 Z M1187 2066 Q1233 2077 1282 2077 Q1336 2077 1379.5 2066 Q1423 2055 1453.5 2035 Q1484 2015 1501 1987 Q1518 1959 1518 1924 Q1518 1797 1369 1725 L1284 1811 Q1328 1830 1346.5 1849.5 Q1365 1869 1365 1895 Q1365 1960 1250 1960 Q1221 1960 1197.5 1957.5 Q1174 1955 1160 1950 L1187 2066 Z M1389 1573 L1177 1573 L1042 1709 L1026 1709 L834 1573 L601 1573 L943 1806 L1145 1806 L1389 1573 Z " />
<glyph glyph-name="Ocircumflexgrave" unicode="&#x1ed2;" horiz-adv-x="1579" d="M787 -34 Q660 -34 552.5 11 Q445 56 367 135.5 Q289 215 245 324.5 Q201 434 201 563 Q201 694 227.5 813 Q254 932 303.5 1033.5 Q353 1135 423 1217 Q493 1299 580 1357 Q667 1415 768.5 1446 Q870 1477 982 1477 Q1108 1477 1215 1432 Q1322 1387 1399.5 1307.5 Q1477 1228 1520.5 1118.5 Q1564 1009 1564 880 Q1564 748 1537.5 628.5 Q1511 509 1462 407.5 Q1413 306 1343.5 224.5 Q1274 143 1188 85.5 Q1102 28 1000.5 -3 Q899 -34 787 -34 Z M1374 864 Q1374 963 1344.5 1045.5 Q1315 1128 1261.5 1186.5 Q1208 1245 1133.5 1277.5 Q1059 1310 968 1310 Q845 1310 739 1254.5 Q633 1199 556 1100.5 Q479 1002 435 868.5 Q391 735 391 579 Q391 479 420.5 397 Q450 315 504 256.5 Q558 198 633.5 165.5 Q709 133 801 133 Q925 133 1030 187.5 Q1135 242 1211.5 339.5 Q1288 437 1331 571 Q1374 705 1374 864 Z M1235 1851 L1040 2093 L1256 2093 L1425 1851 L1235 1851 Z M1389 1573 L1177 1573 L1042 1709 L1026 1709 L834 1573 L601 1573 L943 1806 L1145 1806 L1389 1573 Z " />
<glyph glyph-name="Odotbelow" unicode="&#x1ecc;" horiz-adv-x="1579" d="M787 -34 Q660 -34 552.5 11 Q445 56 367 135.5 Q289 215 245 324.5 Q201 434 201 563 Q201 694 227.5 813 Q254 932 303.5 1033.5 Q353 1135 423 1217 Q493 1299 580 1357 Q667 1415 768.5 1446 Q870 1477 982 1477 Q1108 1477 1215 1432 Q1322 1387 1399.5 1307.5 Q1477 1228 1520.5 1118.5 Q1564 1009 1564 880 Q1564 748 1537.5 628.5 Q1511 509 1462 407.5 Q1413 306 1343.5 224.5 Q1274 143 1188 85.5 Q1102 28 1000.5 -3 Q899 -34 787 -34 Z M1374 864 Q1374 963 1344.5 1045.5 Q1315 1128 1261.5 1186.5 Q1208 1245 1133.5 1277.5 Q1059 1310 968 1310 Q845 1310 739 1254.5 Q633 1199 556 1100.5 Q479 1002 435 868.5 Q391 735 391 579 Q391 479 420.5 397 Q450 315 504 256.5 Q558 198 633.5 165.5 Q709 133 801 133 Q925 133 1030 187.5 Q1135 242 1211.5 339.5 Q1288 437 1331 571 Q1374 705 1374 864 Z M730 -402 Q705 -402 683 -392.5 Q661 -383 644.5 -366.5 Q628 -350 618.5 -328 Q609 -306 609 -281 Q609 -256 618.5 -234 Q628 -212 644.5 -195.5 Q661 -179 683 -169.5 Q705 -160 730 -160 Q755 -160 777 -169.5 Q799 -179 815.5 -195.5 Q832 -212 841.5 -234 Q851 -256 851 -281 Q851 -306 841.5 -328 Q832 -350 815.5 -366.5 Q799 -383 777 -392.5 Q755 -402 730 -402 Z " />
<glyph glyph-name="Odblgrave" unicode="&#x20c;" horiz-adv-x="1579" d="M787 -34 Q660 -34 552.5 11 Q445 56 367 135.5 Q289 215 245 324.5 Q201 434 201 563 Q201 694 227.5 813 Q254 932 303.5 1033.5 Q353 1135 423 1217 Q493 1299 580 1357 Q667 1415 768.5 1446 Q870 1477 982 1477 Q1108 1477 1215 1432 Q1322 1387 1399.5 1307.5 Q1477 1228 1520.5 1118.5 Q1564 1009 1564 880 Q1564 748 1537.5 628.5 Q1511 509 1462 407.5 Q1413 306 1343.5 224.5 Q1274 143 1188 85.5 Q1102 28 1000.5 -3 Q899 -34 787 -34 Z M1374 864 Q1374 963 1344.5 1045.5 Q1315 1128 1261.5 1186.5 Q1208 1245 1133.5 1277.5 Q1059 1310 968 1310 Q845 1310 739 1254.5 Q633 1199 556 1100.5 Q479 1002 435 868.5 Q391 735 391 579 Q391 479 420.5 397 Q450 315 504 256.5 Q558 198 633.5 165.5 Q709 133 801 133 Q925 133 1030 187.5 Q1135 242 1211.5 339.5 Q1288 437 1331 571 Q1374 705 1374 864 Z M707 1573 L501 1871 L727 1871 L911 1573 L707 1573 Z M1121 1573 L915 1871 L1141 1871 L1325 1573 L1121 1573 Z " />
<glyph glyph-name="Otildeacute" unicode="&#x1e4c;" horiz-adv-x="1579" d="M787 -34 Q660 -34 552.5 11 Q445 56 367 135.5 Q289 215 245 324.5 Q201 434 201 563 Q201 694 227.5 813 Q254 932 303.5 1033.5 Q353 1135 423 1217 Q493 1299 580 1357 Q667 1415 768.5 1446 Q870 1477 982 1477 Q1108 1477 1215 1432 Q1322 1387 1399.5 1307.5 Q1477 1228 1520.5 1118.5 Q1564 1009 1564 880 Q1564 748 1537.5 628.5 Q1511 509 1462 407.5 Q1413 306 1343.5 224.5 Q1274 143 1188 85.5 Q1102 28 1000.5 -3 Q899 -34 787 -34 Z M1374 864 Q1374 963 1344.5 1045.5 Q1315 1128 1261.5 1186.5 Q1208 1245 1133.5 1277.5 Q1059 1310 968 1310 Q845 1310 739 1254.5 Q633 1199 556 1100.5 Q479 1002 435 868.5 Q391 735 391 579 Q391 479 420.5 397 Q450 315 504 256.5 Q558 198 633.5 165.5 Q709 133 801 133 Q925 133 1030 187.5 Q1135 242 1211.5 339.5 Q1288 437 1331 571 Q1374 705 1374 864 Z M1242 2093 L1460 2093 L1165 1871 L975 1871 L1242 2093 Z M1163 1572 Q1113 1572 1077.5 1591.5 Q1042 1611 1014 1634 Q986 1657 961 1676.5 Q936 1696 906 1696 Q862 1696 835 1672 Q808 1648 792 1598 L650 1598 Q660 1656 685 1699.5 Q710 1743 744.5 1772 Q779 1801 820.5 1816 Q862 1831 905 1831 Q955 1831 990.5 1811.5 Q1026 1792 1054 1769 Q1082 1746 1107 1726.5 Q1132 1707 1162 1707 Q1206 1707 1233 1731 Q1260 1755 1276 1805 L1418 1805 Q1408 1747 1383 1703.5 Q1358 1660 1323.5 1630.5 Q1289 1601 1247.5 1586.5 Q1206 1572 1163 1572 Z " />
<glyph glyph-name="Omacronacute" unicode="&#x1e52;" horiz-adv-x="1579" d="M787 -34 Q660 -34 552.5 11 Q445 56 367 135.5 Q289 215 245 324.5 Q201 434 201 563 Q201 694 227.5 813 Q254 932 303.5 1033.5 Q353 1135 423 1217 Q493 1299 580 1357 Q667 1415 768.5 1446 Q870 1477 982 1477 Q1108 1477 1215 1432 Q1322 1387 1399.5 1307.5 Q1477 1228 1520.5 1118.5 Q1564 1009 1564 880 Q1564 748 1537.5 628.5 Q1511 509 1462 407.5 Q1413 306 1343.5 224.5 Q1274 143 1188 85.5 Q1102 28 1000.5 -3 Q899 -34 787 -34 Z M1374 864 Q1374 963 1344.5 1045.5 Q1315 1128 1261.5 1186.5 Q1208 1245 1133.5 1277.5 Q1059 1310 968 1310 Q845 1310 739 1254.5 Q633 1199 556 1100.5 Q479 1002 435 868.5 Q391 735 391 579 Q391 479 420.5 397 Q450 315 504 256.5 Q558 198 633.5 165.5 Q709 133 801 133 Q925 133 1030 187.5 Q1135 242 1211.5 339.5 Q1288 437 1331 571 Q1374 705 1374 864 Z M678 1618 L706 1748 L1380 1748 L1352 1618 L678 1618 Z M1230 2093 L1448 2093 L1155 1871 L963 1871 L1230 2093 Z " />
<glyph glyph-name="Ocircumflextilde" unicode="&#x1ed6;" horiz-adv-x="1579" d="M787 -34 Q660 -34 552.5 11 Q445 56 367 135.5 Q289 215 245 324.5 Q201 434 201 563 Q201 694 227.5 813 Q254 932 303.5 1033.5 Q353 1135 423 1217 Q493 1299 580 1357 Q667 1415 768.5 1446 Q870 1477 982 1477 Q1108 1477 1215 1432 Q1322 1387 1399.5 1307.5 Q1477 1228 1520.5 1118.5 Q1564 1009 1564 880 Q1564 748 1537.5 628.5 Q1511 509 1462 407.5 Q1413 306 1343.5 224.5 Q1274 143 1188 85.5 Q1102 28 1000.5 -3 Q899 -34 787 -34 Z M1374 864 Q1374 963 1344.5 1045.5 Q1315 1128 1261.5 1186.5 Q1208 1245 1133.5 1277.5 Q1059 1310 968 1310 Q845 1310 739 1254.5 Q633 1199 556 1100.5 Q479 1002 435 868.5 Q391 735 391 579 Q391 479 420.5 397 Q450 315 504 256.5 Q558 198 633.5 165.5 Q709 133 801 133 Q925 133 1030 187.5 Q1135 242 1211.5 339.5 Q1288 437 1331 571 Q1374 705 1374 864 Z M1389 1573 L1177 1573 L1042 1709 L1026 1709 L834 1573 L601 1573 L943 1806 L1145 1806 L1389 1573 Z M1163 1852 Q1113 1852 1077.5 1871.5 Q1042 1891 1014 1914 Q986 1937 961 1956.5 Q936 1976 906 1976 Q862 1976 835 1952 Q808 1928 792 1878 L650 1878 Q660 1936 685 1979.5 Q710 2023 744.5 2052 Q779 2081 820.5 2096 Q862 2111 905 2111 Q955 2111 990.5 2091.5 Q1026 2072 1054 2049 Q1082 2026 1107 2006.5 Q1132 1987 1162 1987 Q1206 1987 1233 2011 Q1260 2035 1276 2085 L1418 2085 Q1408 2027 1383 1983.5 Q1358 1940 1323.5 1910.5 Q1289 1881 1247.5 1866.5 Q1206 1852 1163 1852 Z " />
<glyph glyph-name="Odotaccentmacron" unicode="&#x230;" horiz-adv-x="1579" d="M787 -34 Q660 -34 552.5 11 Q445 56 367 135.5 Q289 215 245 324.5 Q201 434 201 563 Q201 694 227.5 813 Q254 932 303.5 1033.5 Q353 1135 423 1217 Q493 1299 580 1357 Q667 1415 768.5 1446 Q870 1477 982 1477 Q1108 1477 1215 1432 Q1322 1387 1399.5 1307.5 Q1477 1228 1520.5 1118.5 Q1564 1009 1564 880 Q1564 748 1537.5 628.5 Q1511 509 1462 407.5 Q1413 306 1343.5 224.5 Q1274 143 1188 85.5 Q1102 28 1000.5 -3 Q899 -34 787 -34 Z M1374 864 Q1374 963 1344.5 1045.5 Q1315 1128 1261.5 1186.5 Q1208 1245 1133.5 1277.5 Q1059 1310 968 1310 Q845 1310 739 1254.5 Q633 1199 556 1100.5 Q479 1002 435 868.5 Q391 735 391 579 Q391 479 420.5 397 Q450 315 504 256.5 Q558 198 633.5 165.5 Q709 133 801 133 Q925 133 1030 187.5 Q1135 242 1211.5 339.5 Q1288 437 1331 571 Q1374 705 1374 864 Z M744 1930 L772 2060 L1446 2060 L1418 1930 L744 1930 Z M1031 1575 Q1006 1575 984.5 1584.5 Q963 1594 947 1610 Q931 1626 921.5 1647.5 Q912 1669 912 1694 Q912 1719 921.5 1740.5 Q931 1762 947 1778 Q963 1794 984.5 1803.5 Q1006 1813 1031 1813 Q1056 1813 1077.5 1803.5 Q1099 1794 1115 1778 Q1131 1762 1140.5 1740.5 Q1150 1719 1150 1694 Q1150 1669 1140.5 1647.5 Q1131 1626 1115 1610 Q1099 1594 1077.5 1584.5 Q1056 1575 1031 1575 Z " />
<glyph glyph-name="Omacrongrave" unicode="&#x1e50;" horiz-adv-x="1579" d="M787 -34 Q660 -34 552.5 11 Q445 56 367 135.5 Q289 215 245 324.5 Q201 434 201 563 Q201 694 227.5 813 Q254 932 303.5 1033.5 Q353 1135 423 1217 Q493 1299 580 1357 Q667 1415 768.5 1446 Q870 1477 982 1477 Q1108 1477 1215 1432 Q1322 1387 1399.5 1307.5 Q1477 1228 1520.5 1118.5 Q1564 1009 1564 880 Q1564 748 1537.5 628.5 Q1511 509 1462 407.5 Q1413 306 1343.5 224.5 Q1274 143 1188 85.5 Q1102 28 1000.5 -3 Q899 -34 787 -34 Z M1374 864 Q1374 963 1344.5 1045.5 Q1315 1128 1261.5 1186.5 Q1208 1245 1133.5 1277.5 Q1059 1310 968 1310 Q845 1310 739 1254.5 Q633 1199 556 1100.5 Q479 1002 435 868.5 Q391 735 391 579 Q391 479 420.5 397 Q450 315 504 256.5 Q558 198 633.5 165.5 Q709 133 801 133 Q925 133 1030 187.5 Q1135 242 1211.5 339.5 Q1288 437 1331 571 Q1374 705 1374 864 Z M679 1618 L707 1748 L1381 1748 L1353 1618 L679 1618 Z M984 1871 L785 2093 L1003 2093 L1176 1871 L984 1871 Z " />
<glyph glyph-name="Ocaron" unicode="&#x1d1;" horiz-adv-x="1579" d="M787 -34 Q660 -34 552.5 11 Q445 56 367 135.5 Q289 215 245 324.5 Q201 434 201 563 Q201 694 227.5 813 Q254 932 303.5 1033.5 Q353 1135 423 1217 Q493 1299 580 1357 Q667 1415 768.5 1446 Q870 1477 982 1477 Q1108 1477 1215 1432 Q1322 1387 1399.5 1307.5 Q1477 1228 1520.5 1118.5 Q1564 1009 1564 880 Q1564 748 1537.5 628.5 Q1511 509 1462 407.5 Q1413 306 1343.5 224.5 Q1274 143 1188 85.5 Q1102 28 1000.5 -3 Q899 -34 787 -34 Z M1374 864 Q1374 963 1344.5 1045.5 Q1315 1128 1261.5 1186.5 Q1208 1245 1133.5 1277.5 Q1059 1310 968 1310 Q845 1310 739 1254.5 Q633 1199 556 1100.5 Q479 1002 435 868.5 Q391 735 391 579 Q391 479 420.5 397 Q450 315 504 256.5 Q558 198 633.5 165.5 Q709 133 801 133 Q925 133 1030 187.5 Q1135 242 1211.5 339.5 Q1288 437 1331 571 Q1374 705 1374 864 Z M731 1871 L916 1871 L1021 1685 L1037 1685 L1220 1871 L1427 1871 L1117 1573 L915 1573 L731 1871 Z " />
<glyph glyph-name="Oslashacute" unicode="&#x1fe;" horiz-adv-x="1551" d="M1119 1573 L915 1573 L1288 1871 L1514 1871 L1119 1573 Z M558 208 Q608 172 668.5 152.5 Q729 133 801 133 Q925 133 1030 187.5 Q1135 242 1211.5 339.5 Q1288 437 1331 571 Q1374 705 1374 864 Q1374 952 1351 1026.5 Q1328 1101 1286 1158 L558 208 Z M1198 1242 Q1150 1275 1092.5 1292.5 Q1035 1310 968 1310 Q845 1310 739 1254.5 Q633 1199 556 1100.5 Q479 1002 435 868.5 Q391 735 391 579 Q391 496 411.5 425.5 Q432 355 470 299 L1198 1242 Z M1400 1307 Q1478 1227 1521 1118.5 Q1564 1010 1564 880 Q1564 748 1537.5 628.5 Q1511 509 1462 407.5 Q1413 306 1343.5 224.5 Q1274 143 1188 85.5 Q1102 28 1000.5 -3 Q899 -34 787 -34 Q690 -34 605 -7.5 Q520 19 449 67 L362 -47 L262 29 L355 149 Q282 228 241.5 333 Q201 438 201 563 Q201 694 227.5 813 Q254 932 303.5 1033.5 Q353 1135 423 1217 Q493 1299 580 1357 Q667 1415 768.5 1446 Q870 1477 982 1477 Q1075 1477 1156.5 1453 Q1238 1429 1307 1384 L1388 1488 L1486 1419 L1400 1307 Z " />
<glyph glyph-name="Ohungarumlaut" unicode="&#x150;" horiz-adv-x="1579" d="M787 -34 Q660 -34 552.5 11 Q445 56 367 135.5 Q289 215 245 324.5 Q201 434 201 563 Q201 694 227.5 813 Q254 932 303.5 1033.5 Q353 1135 423 1217 Q493 1299 580 1357 Q667 1415 768.5 1446 Q870 1477 982 1477 Q1108 1477 1215 1432 Q1322 1387 1399.5 1307.5 Q1477 1228 1520.5 1118.5 Q1564 1009 1564 880 Q1564 748 1537.5 628.5 Q1511 509 1462 407.5 Q1413 306 1343.5 224.5 Q1274 143 1188 85.5 Q1102 28 1000.5 -3 Q899 -34 787 -34 Z M1374 864 Q1374 963 1344.5 1045.5 Q1315 1128 1261.5 1186.5 Q1208 1245 1133.5 1277.5 Q1059 1310 968 1310 Q845 1310 739 1254.5 Q633 1199 556 1100.5 Q479 1002 435 868.5 Q391 735 391 579 Q391 479 420.5 397 Q450 315 504 256.5 Q558 198 633.5 165.5 Q709 133 801 133 Q925 133 1030 187.5 Q1135 242 1211.5 339.5 Q1288 437 1331 571 Q1374 705 1374 864 Z M1476 1871 L1702 1871 L1307 1573 L1103 1573 L1476 1871 Z M1062 1871 L1288 1871 L893 1573 L689 1573 L1062 1871 Z " />
<glyph glyph-name="Obreve" unicode="&#x14e;" horiz-adv-x="1579" d="M787 -34 Q660 -34 552.5 11 Q445 56 367 135.5 Q289 215 245 324.5 Q201 434 201 563 Q201 694 227.5 813 Q254 932 303.5 1033.5 Q353 1135 423 1217 Q493 1299 580 1357 Q667 1415 768.5 1446 Q870 1477 982 1477 Q1108 1477 1215 1432 Q1322 1387 1399.5 1307.5 Q1477 1228 1520.5 1118.5 Q1564 1009 1564 880 Q1564 748 1537.5 628.5 Q1511 509 1462 407.5 Q1413 306 1343.5 224.5 Q1274 143 1188 85.5 Q1102 28 1000.5 -3 Q899 -34 787 -34 Z M1374 864 Q1374 963 1344.5 1045.5 Q1315 1128 1261.5 1186.5 Q1208 1245 1133.5 1277.5 Q1059 1310 968 1310 Q845 1310 739 1254.5 Q633 1199 556 1100.5 Q479 1002 435 868.5 Q391 735 391 579 Q391 479 420.5 397 Q450 315 504 256.5 Q558 198 633.5 165.5 Q709 133 801 133 Q925 133 1030 187.5 Q1135 242 1211.5 339.5 Q1288 437 1331 571 Q1374 705 1374 864 Z M677 1871 L827 1871 L827 1858 Q827 1824 842 1795.5 Q857 1767 883.5 1746 Q910 1725 946 1713.5 Q982 1702 1023 1702 Q1108 1702 1165.5 1747 Q1223 1792 1243 1871 L1397 1871 Q1384 1802 1350 1747 Q1316 1692 1266.5 1653 Q1217 1614 1154 1593.5 Q1091 1573 1019 1573 Q943 1573 880 1594 Q817 1615 772 1653 Q727 1691 702 1744 Q677 1797 677 1861 L677 1871 Z " />
<glyph glyph-name="Oinvertedbreve" unicode="&#x20e;" horiz-adv-x="1579" d="M787 -34 Q660 -34 552.5 11 Q445 56 367 135.5 Q289 215 245 324.5 Q201 434 201 563 Q201 694 227.5 813 Q254 932 303.5 1033.5 Q353 1135 423 1217 Q493 1299 580 1357 Q667 1415 768.5 1446 Q870 1477 982 1477 Q1108 1477 1215 1432 Q1322 1387 1399.5 1307.5 Q1477 1228 1520.5 1118.5 Q1564 1009 1564 880 Q1564 748 1537.5 628.5 Q1511 509 1462 407.5 Q1413 306 1343.5 224.5 Q1274 143 1188 85.5 Q1102 28 1000.5 -3 Q899 -34 787 -34 Z M1374 864 Q1374 963 1344.5 1045.5 Q1315 1128 1261.5 1186.5 Q1208 1245 1133.5 1277.5 Q1059 1310 968 1310 Q845 1310 739 1254.5 Q633 1199 556 1100.5 Q479 1002 435 868.5 Q391 735 391 579 Q391 479 420.5 397 Q450 315 504 256.5 Q558 198 633.5 165.5 Q709 133 801 133 Q925 133 1030 187.5 Q1135 242 1211.5 339.5 Q1288 437 1331 571 Q1374 705 1374 864 Z M1397 1573 L1247 1573 L1247 1586 Q1247 1620 1232 1648.5 Q1217 1677 1190.5 1698 Q1164 1719 1128 1730.5 Q1092 1742 1051 1742 Q966 1742 908.5 1697 Q851 1652 831 1573 L677 1573 Q690 1642 724 1697 Q758 1752 807.5 1791 Q857 1830 920 1850.5 Q983 1871 1055 1871 Q1131 1871 1194 1850 Q1257 1829 1302 1791 Q1347 1753 1372 1700 Q1397 1647 1397 1583 L1397 1573 Z " />
<glyph glyph-name="Ohookabove" unicode="&#x1ece;" horiz-adv-x="1579" d="M787 -34 Q660 -34 552.5 11 Q445 56 367 135.5 Q289 215 245 324.5 Q201 434 201 563 Q201 694 227.5 813 Q254 932 303.5 1033.5 Q353 1135 423 1217 Q493 1299 580 1357 Q667 1415 768.5 1446 Q870 1477 982 1477 Q1108 1477 1215 1432 Q1322 1387 1399.5 1307.5 Q1477 1228 1520.5 1118.5 Q1564 1009 1564 880 Q1564 748 1537.5 628.5 Q1511 509 1462 407.5 Q1413 306 1343.5 224.5 Q1274 143 1188 85.5 Q1102 28 1000.5 -3 Q899 -34 787 -34 Z M1374 864 Q1374 963 1344.5 1045.5 Q1315 1128 1261.5 1186.5 Q1208 1245 1133.5 1277.5 Q1059 1310 968 1310 Q845 1310 739 1254.5 Q633 1199 556 1100.5 Q479 1002 435 868.5 Q391 735 391 579 Q391 479 420.5 397 Q450 315 504 256.5 Q558 198 633.5 165.5 Q709 133 801 133 Q925 133 1030 187.5 Q1135 242 1211.5 339.5 Q1288 437 1331 571 Q1374 705 1374 864 Z M919 1898 Q945 1908 979.5 1913.5 Q1014 1919 1049 1919 Q1091 1919 1126.5 1907 Q1162 1895 1188.5 1873.5 Q1215 1852 1229.5 1822.5 Q1244 1793 1244 1759 Q1244 1722 1228 1687 Q1212 1652 1182 1621.5 Q1152 1591 1109 1566.5 Q1066 1542 1012 1525 L960 1622 Q988 1630 1012 1643 Q1036 1656 1054 1671.5 Q1072 1687 1082 1705 Q1092 1723 1092 1740 Q1092 1767 1070 1783.5 Q1048 1800 1012 1800 Q978 1800 947 1795.5 Q916 1791 895 1783 L919 1898 Z " />
<glyph glyph-name="Odieresismacron" unicode="&#x22a;" horiz-adv-x="1579" d="M787 -34 Q660 -34 552.5 11 Q445 56 367 135.5 Q289 215 245 324.5 Q201 434 201 563 Q201 694 227.5 813 Q254 932 303.5 1033.5 Q353 1135 423 1217 Q493 1299 580 1357 Q667 1415 768.5 1446 Q870 1477 982 1477 Q1108 1477 1215 1432 Q1322 1387 1399.5 1307.5 Q1477 1228 1520.5 1118.5 Q1564 1009 1564 880 Q1564 748 1537.5 628.5 Q1511 509 1462 407.5 Q1413 306 1343.5 224.5 Q1274 143 1188 85.5 Q1102 28 1000.5 -3 Q899 -34 787 -34 Z M1374 864 Q1374 963 1344.5 1045.5 Q1315 1128 1261.5 1186.5 Q1208 1245 1133.5 1277.5 Q1059 1310 968 1310 Q845 1310 739 1254.5 Q633 1199 556 1100.5 Q479 1002 435 868.5 Q391 735 391 579 Q391 479 420.5 397 Q450 315 504 256.5 Q558 198 633.5 165.5 Q709 133 801 133 Q925 133 1030 187.5 Q1135 242 1211.5 339.5 Q1288 437 1331 571 Q1374 705 1374 864 Z M772 2060 L1446 2060 L1418 1930 L744 1930 L772 2060 Z M832 1573 Q808 1573 786.5 1582 Q765 1591 749 1607 Q733 1623 724 1644.5 Q715 1666 715 1690 Q715 1714 724 1735.5 Q733 1757 749 1773 Q765 1789 786.5 1798 Q808 1807 832 1807 Q856 1807 877.5 1798 Q899 1789 915 1773 Q931 1757 940 1735.5 Q949 1714 949 1690 Q949 1666 940 1644.5 Q931 1623 915 1607 Q899 1591 877.5 1582 Q856 1573 832 1573 Z M1236 1573 Q1212 1573 1190.5 1582 Q1169 1591 1153 1607 Q1137 1623 1128 1644.5 Q1119 1666 1119 1690 Q1119 1714 1128 1735.5 Q1137 1757 1153 1773 Q1169 1789 1190.5 1798 Q1212 1807 1236 1807 Q1260 1807 1281.5 1798 Q1303 1789 1319 1773 Q1335 1757 1344 1735.5 Q1353 1714 1353 1690 Q1353 1666 1344 1644.5 Q1335 1623 1319 1607 Q1303 1591 1281.5 1582 Q1260 1573 1236 1573 Z " />
<glyph glyph-name="Otildemacron" unicode="&#x22c;" horiz-adv-x="1579" d="M787 -34 Q660 -34 552.5 11 Q445 56 367 135.5 Q289 215 245 324.5 Q201 434 201 563 Q201 694 227.5 813 Q254 932 303.5 1033.5 Q353 1135 423 1217 Q493 1299 580 1357 Q667 1415 768.5 1446 Q870 1477 982 1477 Q1108 1477 1215 1432 Q1322 1387 1399.5 1307.5 Q1477 1228 1520.5 1118.5 Q1564 1009 1564 880 Q1564 748 1537.5 628.5 Q1511 509 1462 407.5 Q1413 306 1343.5 224.5 Q1274 143 1188 85.5 Q1102 28 1000.5 -3 Q899 -34 787 -34 Z M1374 864 Q1374 963 1344.5 1045.5 Q1315 1128 1261.5 1186.5 Q1208 1245 1133.5 1277.5 Q1059 1310 968 1310 Q845 1310 739 1254.5 Q633 1199 556 1100.5 Q479 1002 435 868.5 Q391 735 391 579 Q391 479 420.5 397 Q450 315 504 256.5 Q558 198 633.5 165.5 Q709 133 801 133 Q925 133 1030 187.5 Q1135 242 1211.5 339.5 Q1288 437 1331 571 Q1374 705 1374 864 Z M744 1930 L772 2060 L1446 2060 L1418 1930 L744 1930 Z M1163 1572 Q1113 1572 1077.5 1591.5 Q1042 1611 1014 1634 Q986 1657 961 1676.5 Q936 1696 906 1696 Q862 1696 835 1672 Q808 1648 792 1598 L650 1598 Q660 1656 685 1699.5 Q710 1743 744.5 1772 Q779 1801 820.5 1816 Q862 1831 905 1831 Q955 1831 990.5 1811.5 Q1026 1792 1054 1769 Q1082 1746 1107 1726.5 Q1132 1707 1162 1707 Q1206 1707 1233 1731 Q1260 1755 1276 1805 L1418 1805 Q1408 1747 1383 1703.5 Q1358 1660 1323.5 1630.5 Q1289 1601 1247.5 1586.5 Q1206 1572 1163 1572 Z " />
<glyph glyph-name="Odotaccent" unicode="&#x22e;" horiz-adv-x="1579" d="M787 -34 Q660 -34 552.5 11 Q445 56 367 135.5 Q289 215 245 324.5 Q201 434 201 563 Q201 694 227.5 813 Q254 932 303.5 1033.5 Q353 1135 423 1217 Q493 1299 580 1357 Q667 1415 768.5 1446 Q870 1477 982 1477 Q1108 1477 1215 1432 Q1322 1387 1399.5 1307.5 Q1477 1228 1520.5 1118.5 Q1564 1009 1564 880 Q1564 748 1537.5 628.5 Q1511 509 1462 407.5 Q1413 306 1343.5 224.5 Q1274 143 1188 85.5 Q1102 28 1000.5 -3 Q899 -34 787 -34 Z M1374 864 Q1374 963 1344.5 1045.5 Q1315 1128 1261.5 1186.5 Q1208 1245 1133.5 1277.5 Q1059 1310 968 1310 Q845 1310 739 1254.5 Q633 1199 556 1100.5 Q479 1002 435 868.5 Q391 735 391 579 Q391 479 420.5 397 Q450 315 504 256.5 Q558 198 633.5 165.5 Q709 133 801 133 Q925 133 1030 187.5 Q1135 242 1211.5 339.5 Q1288 437 1331 571 Q1374 705 1374 864 Z M1032 1573 Q1007 1573 985 1582.5 Q963 1592 946.5 1608.5 Q930 1625 920.5 1647 Q911 1669 911 1694 Q911 1719 920.5 1741 Q930 1763 946.5 1779.5 Q963 1796 985 1805.5 Q1007 1815 1032 1815 Q1057 1815 1079 1805.5 Q1101 1796 1117.5 1779.5 Q1134 1763 1143.5 1741 Q1153 1719 1153 1694 Q1153 1669 1143.5 1647 Q1134 1625 1117.5 1608.5 Q1101 1592 1079 1582.5 Q1057 1573 1032 1573 Z " />
<glyph glyph-name="Ocircumflexdotbelow" unicode="&#x1ed8;" horiz-adv-x="1579" d="M787 -34 Q660 -34 552.5 11 Q445 56 367 135.5 Q289 215 245 324.5 Q201 434 201 563 Q201 694 227.5 813 Q254 932 303.5 1033.5 Q353 1135 423 1217 Q493 1299 580 1357 Q667 1415 768.5 1446 Q870 1477 982 1477 Q1108 1477 1215 1432 Q1322 1387 1399.5 1307.5 Q1477 1228 1520.5 1118.5 Q1564 1009 1564 880 Q1564 748 1537.5 628.5 Q1511 509 1462 407.5 Q1413 306 1343.5 224.5 Q1274 143 1188 85.5 Q1102 28 1000.5 -3 Q899 -34 787 -34 Z M1374 864 Q1374 963 1344.5 1045.5 Q1315 1128 1261.5 1186.5 Q1208 1245 1133.5 1277.5 Q1059 1310 968 1310 Q845 1310 739 1254.5 Q633 1199 556 1100.5 Q479 1002 435 868.5 Q391 735 391 579 Q391 479 420.5 397 Q450 315 504 256.5 Q558 198 633.5 165.5 Q709 133 801 133 Q925 133 1030 187.5 Q1135 242 1211.5 339.5 Q1288 437 1331 571 Q1374 705 1374 864 Z M1342 1573 L1157 1573 L1052 1759 L1036 1759 L853 1573 L646 1573 L956 1871 L1158 1871 L1342 1573 Z M730 -402 Q705 -402 683 -392.5 Q661 -383 644.5 -366.5 Q628 -350 618.5 -328 Q609 -306 609 -281 Q609 -256 618.5 -234 Q628 -212 644.5 -195.5 Q661 -179 683 -169.5 Q705 -160 730 -160 Q755 -160 777 -169.5 Q799 -179 815.5 -195.5 Q832 -212 841.5 -234 Q851 -256 851 -281 Q851 -306 841.5 -328 Q832 -350 815.5 -366.5 Q799 -383 777 -392.5 Q755 -402 730 -402 Z " />
<glyph glyph-name="Ocircumflexacute" unicode="&#x1ed0;" horiz-adv-x="1579" d="M787 -34 Q660 -34 552.5 11 Q445 56 367 135.5 Q289 215 245 324.5 Q201 434 201 563 Q201 694 227.5 813 Q254 932 303.5 1033.5 Q353 1135 423 1217 Q493 1299 580 1357 Q667 1415 768.5 1446 Q870 1477 982 1477 Q1108 1477 1215 1432 Q1322 1387 1399.5 1307.5 Q1477 1228 1520.5 1118.5 Q1564 1009 1564 880 Q1564 748 1537.5 628.5 Q1511 509 1462 407.5 Q1413 306 1343.5 224.5 Q1274 143 1188 85.5 Q1102 28 1000.5 -3 Q899 -34 787 -34 Z M1374 864 Q1374 963 1344.5 1045.5 Q1315 1128 1261.5 1186.5 Q1208 1245 1133.5 1277.5 Q1059 1310 968 1310 Q845 1310 739 1254.5 Q633 1199 556 1100.5 Q479 1002 435 868.5 Q391 735 391 579 Q391 479 420.5 397 Q450 315 504 256.5 Q558 198 633.5 165.5 Q709 133 801 133 Q925 133 1030 187.5 Q1135 242 1211.5 339.5 Q1288 437 1331 571 Q1374 705 1374 864 Z M1426 2093 L1642 2093 L1345 1851 L1155 1851 L1426 2093 Z M1389 1573 L1177 1573 L1042 1709 L1026 1709 L834 1573 L601 1573 L943 1806 L1145 1806 L1389 1573 Z " />
<glyph glyph-name="Otildedieresis" unicode="&#x1e4e;" horiz-adv-x="1579" d="M787 -34 Q660 -34 552.5 11 Q445 56 367 135.5 Q289 215 245 324.5 Q201 434 201 563 Q201 694 227.5 813 Q254 932 303.5 1033.5 Q353 1135 423 1217 Q493 1299 580 1357 Q667 1415 768.5 1446 Q870 1477 982 1477 Q1108 1477 1215 1432 Q1322 1387 1399.5 1307.5 Q1477 1228 1520.5 1118.5 Q1564 1009 1564 880 Q1564 748 1537.5 628.5 Q1511 509 1462 407.5 Q1413 306 1343.5 224.5 Q1274 143 1188 85.5 Q1102 28 1000.5 -3 Q899 -34 787 -34 Z M1374 864 Q1374 963 1344.5 1045.5 Q1315 1128 1261.5 1186.5 Q1208 1245 1133.5 1277.5 Q1059 1310 968 1310 Q845 1310 739 1254.5 Q633 1199 556 1100.5 Q479 1002 435 868.5 Q391 735 391 579 Q391 479 420.5 397 Q450 315 504 256.5 Q558 198 633.5 165.5 Q709 133 801 133 Q925 133 1030 187.5 Q1135 242 1211.5 339.5 Q1288 437 1331 571 Q1374 705 1374 864 Z M893 1887 Q841 1887 808.5 1916 Q776 1945 776 1990 Q776 2035 808.5 2064 Q841 2093 893 2093 Q945 2093 977.5 2064 Q1010 2035 1010 1990 Q1010 1945 977.5 1916 Q945 1887 893 1887 Z M1297 1887 Q1245 1887 1212.5 1916 Q1180 1945 1180 1990 Q1180 2035 1212.5 2064 Q1245 2093 1297 2093 Q1349 2093 1381.5 2064 Q1414 2035 1414 1990 Q1414 1945 1381.5 1916 Q1349 1887 1297 1887 Z M1163 1572 Q1113 1572 1077.5 1591.5 Q1042 1611 1014 1634 Q986 1657 961 1676.5 Q936 1696 906 1696 Q862 1696 835 1672 Q808 1648 792 1598 L650 1598 Q660 1656 685 1699.5 Q710 1743 744.5 1772 Q779 1801 820.5 1816 Q862 1831 905 1831 Q955 1831 990.5 1811.5 Q1026 1792 1054 1769 Q1082 1746 1107 1726.5 Q1132 1707 1162 1707 Q1206 1707 1233 1731 Q1260 1755 1276 1805 L1418 1805 Q1408 1747 1383 1703.5 Q1358 1660 1323.5 1630.5 Q1289 1601 1247.5 1586.5 Q1206 1572 1163 1572 Z " />
<glyph glyph-name="Omacron" unicode="&#x14c;" horiz-adv-x="1579" d="M787 -34 Q660 -34 552.5 11 Q445 56 367 135.5 Q289 215 245 324.5 Q201 434 201 563 Q201 694 227.5 813 Q254 932 303.5 1033.5 Q353 1135 423 1217 Q493 1299 580 1357 Q667 1415 768.5 1446 Q870 1477 982 1477 Q1108 1477 1215 1432 Q1322 1387 1399.5 1307.5 Q1477 1228 1520.5 1118.5 Q1564 1009 1564 880 Q1564 748 1537.5 628.5 Q1511 509 1462 407.5 Q1413 306 1343.5 224.5 Q1274 143 1188 85.5 Q1102 28 1000.5 -3 Q899 -34 787 -34 Z M1374 864 Q1374 963 1344.5 1045.5 Q1315 1128 1261.5 1186.5 Q1208 1245 1133.5 1277.5 Q1059 1310 968 1310 Q845 1310 739 1254.5 Q633 1199 556 1100.5 Q479 1002 435 868.5 Q391 735 391 579 Q391 479 420.5 397 Q450 315 504 256.5 Q558 198 633.5 165.5 Q709 133 801 133 Q925 133 1030 187.5 Q1135 242 1211.5 339.5 Q1288 437 1331 571 Q1374 705 1374 864 Z M678 1618 L707 1754 L1381 1754 L1352 1618 L678 1618 Z " />
<glyph glyph-name="Oogonek" unicode="&#x1ea;" horiz-adv-x="1579" d="M997 -432 Q889 -432 830 -381.5 Q771 -331 771 -239 Q771 -188 794.5 -138 Q818 -88 862 -46 L862 -30 Q850 -32 832.5 -33 Q815 -34 787 -34 Q660 -34 552.5 11 Q445 56 367 135.5 Q289 215 245 324.5 Q201 434 201 563 Q201 694 227.5 813 Q254 932 303.5 1033.5 Q353 1135 423 1217 Q493 1299 580 1357 Q667 1415 768.5 1446 Q870 1477 982 1477 Q1108 1477 1215 1432 Q1322 1387 1399.5 1307.5 Q1477 1228 1520.5 1118.5 Q1564 1009 1564 880 Q1564 617 1459 410 Q1354 203 1142 49 Q1037 -27 986.5 -89.5 Q936 -152 936 -205 Q936 -253 967 -277.5 Q998 -302 1058 -302 Q1089 -302 1103 -299 L1077 -422 Q1066 -427 1044.5 -429.5 Q1023 -432 997 -432 Z M1374 864 Q1374 963 1344.5 1045.5 Q1315 1128 1261.5 1186.5 Q1208 1245 1133.5 1277.5 Q1059 1310 968 1310 Q845 1310 739 1254.5 Q633 1199 556 1100.5 Q479 1002 435 868.5 Q391 735 391 579 Q391 479 420.5 397 Q450 315 504 256.5 Q558 198 633.5 165.5 Q709 133 801 133 Q925 133 1030 187.5 Q1135 242 1211.5 339.5 Q1288 437 1331 571 Q1374 705 1374 864 Z " />
<glyph glyph-name="Oogonekmacron" unicode="&#x1ec;" horiz-adv-x="1579" d="M997 -432 Q889 -432 830 -381.5 Q771 -331 771 -239 Q771 -188 794.5 -138 Q818 -88 862 -46 L862 -30 Q850 -32 832.5 -33 Q815 -34 787 -34 Q660 -34 552.5 11 Q445 56 367 135.5 Q289 215 245 324.5 Q201 434 201 563 Q201 694 227.5 813 Q254 932 303.5 1033.5 Q353 1135 423 1217 Q493 1299 580 1357 Q667 1415 768.5 1446 Q870 1477 982 1477 Q1108 1477 1215 1432 Q1322 1387 1399.5 1307.5 Q1477 1228 1520.5 1118.5 Q1564 1009 1564 880 Q1564 617 1459 410 Q1354 203 1142 49 Q1037 -27 986.5 -89.5 Q936 -152 936 -205 Q936 -253 967 -277.5 Q998 -302 1058 -302 Q1089 -302 1103 -299 L1077 -422 Q1066 -427 1044.5 -429.5 Q1023 -432 997 -432 Z M1374 864 Q1374 963 1344.5 1045.5 Q1315 1128 1261.5 1186.5 Q1208 1245 1133.5 1277.5 Q1059 1310 968 1310 Q845 1310 739 1254.5 Q633 1199 556 1100.5 Q479 1002 435 868.5 Q391 735 391 579 Q391 479 420.5 397 Q450 315 504 256.5 Q558 198 633.5 165.5 Q709 133 801 133 Q925 133 1030 187.5 Q1135 242 1211.5 339.5 Q1288 437 1331 571 Q1374 705 1374 864 Z M678 1618 L707 1754 L1381 1754 L1352 1618 L678 1618 Z " />
<glyph glyph-name="Ohorn" unicode="&#x1a0;" horiz-adv-x="1662" d="M787 -34 Q660 -34 552.5 11 Q445 56 367 135.5 Q289 215 245 324.5 Q201 434 201 563 Q201 694 227.5 813 Q254 932 303.5 1033.5 Q353 1135 423 1217 Q493 1299 580 1357 Q667 1415 768.5 1446 Q870 1477 982 1477 Q1061 1477 1122 1462.5 Q1183 1448 1231 1426 Q1279 1404 1314.5 1379 Q1350 1354 1377 1332 Q1404 1310 1425 1295.5 Q1446 1281 1464 1281 Q1501 1281 1528.5 1289 Q1556 1297 1576.5 1315 Q1597 1333 1611 1362.5 Q1625 1392 1634 1434 L1671 1610 L1829 1610 L1782 1386 Q1770 1327 1745.5 1284 Q1721 1241 1688 1212.5 Q1655 1184 1615 1170.5 Q1575 1157 1530 1157 Q1522 1157 1515 1157.5 Q1508 1158 1500 1159 L1500 1143 Q1564 1021 1564 880 Q1564 748 1537.5 628.5 Q1511 509 1462 407.5 Q1413 306 1343.5 224.5 Q1274 143 1188 85.5 Q1102 28 1000.5 -3 Q899 -34 787 -34 Z M1374 864 Q1374 963 1344.5 1045.5 Q1315 1128 1261.5 1186.5 Q1208 1245 1133.5 1277.5 Q1059 1310 968 1310 Q845 1310 739 1254.5 Q633 1199 556 1100.5 Q479 1002 435 868.5 Q391 735 391 579 Q391 479 420.5 397 Q450 315 504 256.5 Q558 198 633.5 165.5 Q709 133 801 133 Q925 133 1030 187.5 Q1135 242 1211.5 339.5 Q1288 437 1331 571 Q1374 705 1374 864 Z " />
<glyph glyph-name="Ohorndotbelow" unicode="&#x1ee2;" horiz-adv-x="1662" d="M787 -34 Q660 -34 552.5 11 Q445 56 367 135.5 Q289 215 245 324.5 Q201 434 201 563 Q201 694 227.5 813 Q254 932 303.5 1033.5 Q353 1135 423 1217 Q493 1299 580 1357 Q667 1415 768.5 1446 Q870 1477 982 1477 Q1061 1477 1122 1462.5 Q1183 1448 1231 1426 Q1279 1404 1314.5 1379 Q1350 1354 1377 1332 Q1404 1310 1425 1295.5 Q1446 1281 1464 1281 Q1501 1281 1528.5 1289 Q1556 1297 1576.5 1315 Q1597 1333 1611 1362.5 Q1625 1392 1634 1434 L1671 1610 L1829 1610 L1782 1386 Q1770 1327 1745.5 1284 Q1721 1241 1688 1212.5 Q1655 1184 1615 1170.5 Q1575 1157 1530 1157 Q1522 1157 1515 1157.5 Q1508 1158 1500 1159 L1500 1143 Q1564 1021 1564 880 Q1564 748 1537.5 628.5 Q1511 509 1462 407.5 Q1413 306 1343.5 224.5 Q1274 143 1188 85.5 Q1102 28 1000.5 -3 Q899 -34 787 -34 Z M1374 864 Q1374 963 1344.5 1045.5 Q1315 1128 1261.5 1186.5 Q1208 1245 1133.5 1277.5 Q1059 1310 968 1310 Q845 1310 739 1254.5 Q633 1199 556 1100.5 Q479 1002 435 868.5 Q391 735 391 579 Q391 479 420.5 397 Q450 315 504 256.5 Q558 198 633.5 165.5 Q709 133 801 133 Q925 133 1030 187.5 Q1135 242 1211.5 339.5 Q1288 437 1331 571 Q1374 705 1374 864 Z M730 -402 Q705 -402 683 -392.5 Q661 -383 644.5 -366.5 Q628 -350 618.5 -328 Q609 -306 609 -281 Q609 -256 618.5 -234 Q628 -212 644.5 -195.5 Q661 -179 683 -169.5 Q705 -160 730 -160 Q755 -160 777 -169.5 Q799 -179 815.5 -195.5 Q832 -212 841.5 -234 Q851 -256 851 -281 Q851 -306 841.5 -328 Q832 -350 815.5 -366.5 Q799 -383 777 -392.5 Q755 -402 730 -402 Z " />
<glyph glyph-name="Ohornhookabove" unicode="&#x1ede;" horiz-adv-x="1662" d="M787 -34 Q660 -34 552.5 11 Q445 56 367 135.5 Q289 215 245 324.5 Q201 434 201 563 Q201 694 227.5 813 Q254 932 303.5 1033.5 Q353 1135 423 1217 Q493 1299 580 1357 Q667 1415 768.5 1446 Q870 1477 982 1477 Q1061 1477 1122 1462.5 Q1183 1448 1231 1426 Q1279 1404 1314.5 1379 Q1350 1354 1377 1332 Q1404 1310 1425 1295.5 Q1446 1281 1464 1281 Q1501 1281 1528.5 1289 Q1556 1297 1576.5 1315 Q1597 1333 1611 1362.5 Q1625 1392 1634 1434 L1671 1610 L1829 1610 L1782 1386 Q1770 1327 1745.5 1284 Q1721 1241 1688 1212.5 Q1655 1184 1615 1170.5 Q1575 1157 1530 1157 Q1522 1157 1515 1157.5 Q1508 1158 1500 1159 L1500 1143 Q1564 1021 1564 880 Q1564 748 1537.5 628.5 Q1511 509 1462 407.5 Q1413 306 1343.5 224.5 Q1274 143 1188 85.5 Q1102 28 1000.5 -3 Q899 -34 787 -34 Z M1374 864 Q1374 963 1344.5 1045.5 Q1315 1128 1261.5 1186.5 Q1208 1245 1133.5 1277.5 Q1059 1310 968 1310 Q845 1310 739 1254.5 Q633 1199 556 1100.5 Q479 1002 435 868.5 Q391 735 391 579 Q391 479 420.5 397 Q450 315 504 256.5 Q558 198 633.5 165.5 Q709 133 801 133 Q925 133 1030 187.5 Q1135 242 1211.5 339.5 Q1288 437 1331 571 Q1374 705 1374 864 Z M919 1898 Q945 1908 979.5 1913.5 Q1014 1919 1049 1919 Q1091 1919 1126.5 1907 Q1162 1895 1188.5 1873.5 Q1215 1852 1229.5 1822.5 Q1244 1793 1244 1759 Q1244 1722 1228 1687 Q1212 1652 1182 1621.5 Q1152 1591 1109 1566.5 Q1066 1542 1012 1525 L960 1622 Q988 1630 1012 1643 Q1036 1656 1054 1671.5 Q1072 1687 1082 1705 Q1092 1723 1092 1740 Q1092 1767 1070 1783.5 Q1048 1800 1012 1800 Q978 1800 947 1795.5 Q916 1791 895 1783 L919 1898 Z " />
<glyph glyph-name="Ohorntilde" unicode="&#x1ee0;" horiz-adv-x="1662" d="M787 -34 Q660 -34 552.5 11 Q445 56 367 135.5 Q289 215 245 324.5 Q201 434 201 563 Q201 694 227.5 813 Q254 932 303.5 1033.5 Q353 1135 423 1217 Q493 1299 580 1357 Q667 1415 768.5 1446 Q870 1477 982 1477 Q1061 1477 1122 1462.5 Q1183 1448 1231 1426 Q1279 1404 1314.5 1379 Q1350 1354 1377 1332 Q1404 1310 1425 1295.5 Q1446 1281 1464 1281 Q1501 1281 1528.5 1289 Q1556 1297 1576.5 1315 Q1597 1333 1611 1362.5 Q1625 1392 1634 1434 L1671 1610 L1829 1610 L1782 1386 Q1770 1327 1745.5 1284 Q1721 1241 1688 1212.5 Q1655 1184 1615 1170.5 Q1575 1157 1530 1157 Q1522 1157 1515 1157.5 Q1508 1158 1500 1159 L1500 1143 Q1564 1021 1564 880 Q1564 748 1537.5 628.5 Q1511 509 1462 407.5 Q1413 306 1343.5 224.5 Q1274 143 1188 85.5 Q1102 28 1000.5 -3 Q899 -34 787 -34 Z M1374 864 Q1374 963 1344.5 1045.5 Q1315 1128 1261.5 1186.5 Q1208 1245 1133.5 1277.5 Q1059 1310 968 1310 Q845 1310 739 1254.5 Q633 1199 556 1100.5 Q479 1002 435 868.5 Q391 735 391 579 Q391 479 420.5 397 Q450 315 504 256.5 Q558 198 633.5 165.5 Q709 133 801 133 Q925 133 1030 187.5 Q1135 242 1211.5 339.5 Q1288 437 1331 571 Q1374 705 1374 864 Z M1189 1573 Q1147 1573 1114 1585 Q1081 1597 1055 1615 Q1029 1633 1007.5 1654.5 Q986 1676 966.5 1694 Q947 1712 927.5 1724 Q908 1736 886 1736 Q797 1736 772 1618 L630 1618 Q640 1678 664 1725 Q688 1772 722.5 1804.5 Q757 1837 799.5 1854 Q842 1871 889 1871 Q931 1871 963.5 1859 Q996 1847 1022 1829 Q1048 1811 1069.5 1789.5 Q1091 1768 1110.5 1750 Q1130 1732 1149.5 1720 Q1169 1708 1191 1708 Q1281 1708 1306 1826 L1448 1826 Q1438 1766 1414 1719 Q1390 1672 1355.5 1639.5 Q1321 1607 1278.5 1590 Q1236 1573 1189 1573 Z " />
<glyph glyph-name="Ohorngrave" unicode="&#x1edc;" horiz-adv-x="1662" d="M787 -34 Q660 -34 552.5 11 Q445 56 367 135.5 Q289 215 245 324.5 Q201 434 201 563 Q201 694 227.5 813 Q254 932 303.5 1033.5 Q353 1135 423 1217 Q493 1299 580 1357 Q667 1415 768.5 1446 Q870 1477 982 1477 Q1061 1477 1122 1462.5 Q1183 1448 1231 1426 Q1279 1404 1314.5 1379 Q1350 1354 1377 1332 Q1404 1310 1425 1295.5 Q1446 1281 1464 1281 Q1501 1281 1528.5 1289 Q1556 1297 1576.5 1315 Q1597 1333 1611 1362.5 Q1625 1392 1634 1434 L1671 1610 L1829 1610 L1782 1386 Q1770 1327 1745.5 1284 Q1721 1241 1688 1212.5 Q1655 1184 1615 1170.5 Q1575 1157 1530 1157 Q1522 1157 1515 1157.5 Q1508 1158 1500 1159 L1500 1143 Q1564 1021 1564 880 Q1564 748 1537.5 628.5 Q1511 509 1462 407.5 Q1413 306 1343.5 224.5 Q1274 143 1188 85.5 Q1102 28 1000.5 -3 Q899 -34 787 -34 Z M1374 864 Q1374 963 1344.5 1045.5 Q1315 1128 1261.5 1186.5 Q1208 1245 1133.5 1277.5 Q1059 1310 968 1310 Q845 1310 739 1254.5 Q633 1199 556 1100.5 Q479 1002 435 868.5 Q391 735 391 579 Q391 479 420.5 397 Q450 315 504 256.5 Q558 198 633.5 165.5 Q709 133 801 133 Q925 133 1030 187.5 Q1135 242 1211.5 339.5 Q1288 437 1331 571 Q1374 705 1374 864 Z M1087 1573 L903 1573 L697 1871 L903 1871 L1087 1573 Z " />
<glyph glyph-name="Ohornacute" unicode="&#x1eda;" horiz-adv-x="1662" d="M787 -34 Q660 -34 552.5 11 Q445 56 367 135.5 Q289 215 245 324.5 Q201 434 201 563 Q201 694 227.5 813 Q254 932 303.5 1033.5 Q353 1135 423 1217 Q493 1299 580 1357 Q667 1415 768.5 1446 Q870 1477 982 1477 Q1061 1477 1122 1462.5 Q1183 1448 1231 1426 Q1279 1404 1314.5 1379 Q1350 1354 1377 1332 Q1404 1310 1425 1295.5 Q1446 1281 1464 1281 Q1501 1281 1528.5 1289 Q1556 1297 1576.5 1315 Q1597 1333 1611 1362.5 Q1625 1392 1634 1434 L1671 1610 L1829 1610 L1782 1386 Q1770 1327 1745.5 1284 Q1721 1241 1688 1212.5 Q1655 1184 1615 1170.5 Q1575 1157 1530 1157 Q1522 1157 1515 1157.5 Q1508 1158 1500 1159 L1500 1143 Q1564 1021 1564 880 Q1564 748 1537.5 628.5 Q1511 509 1462 407.5 Q1413 306 1343.5 224.5 Q1274 143 1188 85.5 Q1102 28 1000.5 -3 Q899 -34 787 -34 Z M1374 864 Q1374 963 1344.5 1045.5 Q1315 1128 1261.5 1186.5 Q1208 1245 1133.5 1277.5 Q1059 1310 968 1310 Q845 1310 739 1254.5 Q633 1199 556 1100.5 Q479 1002 435 868.5 Q391 735 391 579 Q391 479 420.5 397 Q450 315 504 256.5 Q558 198 633.5 165.5 Q709 133 801 133 Q925 133 1030 187.5 Q1135 242 1211.5 339.5 Q1288 437 1331 571 Q1374 705 1374 864 Z M1288 1871 L1514 1871 L1119 1573 L915 1573 L1288 1871 Z " />
<glyph glyph-name="P" unicode="P" horiz-adv-x="1304" d="M937 1443 Q1023 1443 1098.5 1415.5 Q1174 1388 1230 1337.5 Q1286 1287 1318.5 1215 Q1351 1143 1351 1053 Q1351 927 1306.5 827 Q1262 727 1184 657.5 Q1106 588 1001 551.5 Q896 515 776 515 L416 515 L307 0 L123 0 L430 1443 L937 1443 Z M450 675 L765 675 Q854 675 927.5 699 Q1001 723 1053.5 769 Q1106 815 1134.5 882.5 Q1163 950 1163 1037 Q1163 1095 1142.5 1141 Q1122 1187 1084.5 1218.5 Q1047 1250 993.5 1266.5 Q940 1283 874 1283 L580 1283 L450 675 Z " />
<glyph glyph-name="Pdotaccent" unicode="&#x1e56;" horiz-adv-x="1301" d="M937 1443 Q1023 1443 1098.5 1415.5 Q1174 1388 1230 1337.5 Q1286 1287 1318.5 1215 Q1351 1143 1351 1053 Q1351 927 1306.5 827 Q1262 727 1184 657.5 Q1106 588 1001 551.5 Q896 515 776 515 L416 515 L307 0 L123 0 L430 1443 L937 1443 Z M450 675 L765 675 Q854 675 927.5 699 Q1001 723 1053.5 769 Q1106 815 1134.5 882.5 Q1163 950 1163 1037 Q1163 1095 1142.5 1141 Q1122 1187 1084.5 1218.5 Q1047 1250 993.5 1266.5 Q940 1283 874 1283 L580 1283 L450 675 Z M879 1575 Q854 1575 832 1584.5 Q810 1594 793.5 1610.5 Q777 1627 767.5 1649 Q758 1671 758 1696 Q758 1721 767.5 1743 Q777 1765 793.5 1781.5 Q810 1798 832 1807.5 Q854 1817 879 1817 Q904 1817 926 1807.5 Q948 1798 964.5 1781.5 Q981 1765 990.5 1743 Q1000 1721 1000 1696 Q1000 1671 990.5 1649 Q981 1627 964.5 1610.5 Q948 1594 926 1584.5 Q904 1575 879 1575 Z " />
<glyph glyph-name="Pacute" unicode="&#x1e54;" horiz-adv-x="1301" d="M937 1443 Q1023 1443 1098.5 1415.5 Q1174 1388 1230 1337.5 Q1286 1287 1318.5 1215 Q1351 1143 1351 1053 Q1351 927 1306.5 827 Q1262 727 1184 657.5 Q1106 588 1001 551.5 Q896 515 776 515 L416 515 L307 0 L123 0 L430 1443 L937 1443 Z M450 675 L765 675 Q854 675 927.5 699 Q1001 723 1053.5 769 Q1106 815 1134.5 882.5 Q1163 950 1163 1037 Q1163 1095 1142.5 1141 Q1122 1187 1084.5 1218.5 Q1047 1250 993.5 1266.5 Q940 1283 874 1283 L580 1283 L450 675 Z M1135 1873 L1361 1873 L966 1575 L762 1575 L1135 1873 Z " />
<glyph glyph-name="Q" unicode="Q" horiz-adv-x="1579" d="M1105 -163 L1020 1 Q963 -18 905 -26 Q847 -34 787 -34 Q661 -34 553.5 11 Q446 56 367.5 135.5 Q289 215 245 324.5 Q201 434 201 563 Q201 694 227.5 813 Q254 932 303.5 1033.5 Q353 1135 423.5 1217 Q494 1299 580.5 1357 Q667 1415 768.5 1446 Q870 1477 982 1477 Q1108 1477 1214.5 1432.5 Q1321 1388 1399 1308.5 Q1477 1229 1520.5 1119.5 Q1564 1010 1564 880 Q1564 748 1537.5 627.5 Q1511 507 1461 403.5 Q1411 300 1338.5 216.5 Q1266 133 1174 75 L1297 -163 L1105 -163 Z M801 133 Q837 133 872 137 Q907 141 942 151 L806 413 L1000 413 L1096 227 Q1162 274 1213.5 341 Q1265 408 1300.5 489.5 Q1336 571 1355 666 Q1374 761 1374 864 Q1374 964 1344.5 1046 Q1315 1128 1261.5 1186.5 Q1208 1245 1133 1277.5 Q1058 1310 968 1310 Q845 1310 739.5 1254.5 Q634 1199 556.5 1101 Q479 1003 435 869 Q391 735 391 579 Q391 479 420.5 396.5 Q450 314 504 255.5 Q558 197 633.5 165 Q709 133 801 133 Z " />
<glyph glyph-name="R" unicode="R" horiz-adv-x="1338" d="M430 1443 L929 1443 Q1027 1443 1106.5 1416 Q1186 1389 1242.5 1339 Q1299 1289 1329.5 1218.5 Q1360 1148 1360 1061 Q1360 977 1332.5 902 Q1305 827 1254.5 767 Q1204 707 1132.5 663.5 Q1061 620 973 599 L1180 0 L984 0 L796 571 L428 571 L307 0 L123 0 L430 1443 Z M462 731 L810 731 Q889 731 955.5 754 Q1022 777 1069.5 818.5 Q1117 860 1143.5 917.5 Q1170 975 1170 1044 Q1170 1099 1153 1143 Q1136 1187 1104 1218 Q1072 1249 1026.5 1266 Q981 1283 924 1283 L580 1283 L462 731 Z " />
<glyph glyph-name="Rcaron" unicode="&#x158;" horiz-adv-x="1338" d="M430 1443 L929 1443 Q1027 1443 1106.5 1416 Q1186 1389 1242.5 1339 Q1299 1289 1329.5 1218.5 Q1360 1148 1360 1061 Q1360 977 1332.5 902 Q1305 827 1254.5 767 Q1204 707 1132.5 663.5 Q1061 620 973 599 L1180 0 L984 0 L796 571 L428 571 L307 0 L123 0 L430 1443 Z M462 731 L810 731 Q889 731 955.5 754 Q1022 777 1069.5 818.5 Q1117 860 1143.5 917.5 Q1170 975 1170 1044 Q1170 1099 1153 1143 Q1136 1187 1104 1218 Q1072 1249 1026.5 1266 Q981 1283 924 1283 L580 1283 L462 731 Z M587 1873 L772 1873 L877 1687 L893 1687 L1076 1873 L1283 1873 L973 1575 L771 1575 L587 1873 Z " />
<glyph glyph-name="Rlinebelow" unicode="&#x1e5e;" horiz-adv-x="1338" d="M430 1443 L929 1443 Q1027 1443 1106.5 1416 Q1186 1389 1242.5 1339 Q1299 1289 1329.5 1218.5 Q1360 1148 1360 1061 Q1360 977 1332.5 902 Q1305 827 1254.5 767 Q1204 707 1132.5 663.5 Q1061 620 973 599 L1180 0 L984 0 L796 571 L428 571 L307 0 L123 0 L430 1443 Z M462 731 L810 731 Q889 731 955.5 754 Q1022 777 1069.5 818.5 Q1117 860 1143.5 917.5 Q1170 975 1170 1044 Q1170 1099 1153 1143 Q1136 1187 1104 1218 Q1072 1249 1026.5 1266 Q981 1283 924 1283 L580 1283 L462 731 Z M235 -348 L264 -212 L938 -212 L909 -348 L235 -348 Z " />
<glyph glyph-name="Rdotbelowmacron" unicode="&#x1e5c;" horiz-adv-x="1338" d="M430 1443 L929 1443 Q1027 1443 1106.5 1416 Q1186 1389 1242.5 1339 Q1299 1289 1329.5 1218.5 Q1360 1148 1360 1061 Q1360 977 1332.5 902 Q1305 827 1254.5 767 Q1204 707 1132.5 663.5 Q1061 620 973 599 L1180 0 L984 0 L796 571 L428 571 L307 0 L123 0 L430 1443 Z M462 731 L810 731 Q889 731 955.5 754 Q1022 777 1069.5 818.5 Q1117 860 1143.5 917.5 Q1170 975 1170 1044 Q1170 1099 1153 1143 Q1136 1187 1104 1218 Q1072 1249 1026.5 1266 Q981 1283 924 1283 L580 1283 L462 731 Z M586 -402 Q561 -402 539 -392.5 Q517 -383 500.5 -366.5 Q484 -350 474.5 -328 Q465 -306 465 -281 Q465 -256 474.5 -234 Q484 -212 500.5 -195.5 Q517 -179 539 -169.5 Q561 -160 586 -160 Q611 -160 633 -169.5 Q655 -179 671.5 -195.5 Q688 -212 697.5 -234 Q707 -256 707 -281 Q707 -306 697.5 -328 Q688 -350 671.5 -366.5 Q655 -383 633 -392.5 Q611 -402 586 -402 Z M534 1620 L563 1756 L1237 1756 L1208 1620 L534 1620 Z " />
<glyph glyph-name="Rdblgrave" unicode="&#x210;" horiz-adv-x="1338" d="M430 1443 L929 1443 Q1027 1443 1106.5 1416 Q1186 1389 1242.5 1339 Q1299 1289 1329.5 1218.5 Q1360 1148 1360 1061 Q1360 977 1332.5 902 Q1305 827 1254.5 767 Q1204 707 1132.5 663.5 Q1061 620 973 599 L1180 0 L984 0 L796 571 L428 571 L307 0 L123 0 L430 1443 Z M462 731 L810 731 Q889 731 955.5 754 Q1022 777 1069.5 818.5 Q1117 860 1143.5 917.5 Q1170 975 1170 1044 Q1170 1099 1153 1143 Q1136 1187 1104 1218 Q1072 1249 1026.5 1266 Q981 1283 924 1283 L580 1283 L462 731 Z M563 1575 L357 1873 L583 1873 L767 1575 L563 1575 Z M977 1575 L771 1873 L997 1873 L1181 1575 L977 1575 Z " />
<glyph glyph-name="Rinvertedbreve" unicode="&#x212;" horiz-adv-x="1338" d="M430 1443 L929 1443 Q1027 1443 1106.5 1416 Q1186 1389 1242.5 1339 Q1299 1289 1329.5 1218.5 Q1360 1148 1360 1061 Q1360 977 1332.5 902 Q1305 827 1254.5 767 Q1204 707 1132.5 663.5 Q1061 620 973 599 L1180 0 L984 0 L796 571 L428 571 L307 0 L123 0 L430 1443 Z M462 731 L810 731 Q889 731 955.5 754 Q1022 777 1069.5 818.5 Q1117 860 1143.5 917.5 Q1170 975 1170 1044 Q1170 1099 1153 1143 Q1136 1187 1104 1218 Q1072 1249 1026.5 1266 Q981 1283 924 1283 L580 1283 L462 731 Z M1253 1575 L1103 1575 L1103 1588 Q1103 1622 1088 1650.5 Q1073 1679 1046.5 1700 Q1020 1721 984 1732.5 Q948 1744 907 1744 Q822 1744 764.5 1699 Q707 1654 687 1575 L533 1575 Q546 1644 580 1699 Q614 1754 663.5 1793 Q713 1832 776 1852.5 Q839 1873 911 1873 Q987 1873 1050 1852 Q1113 1831 1158 1793 Q1203 1755 1228 1702 Q1253 1649 1253 1585 L1253 1575 Z " />
<glyph glyph-name="Racute" unicode="&#x154;" horiz-adv-x="1338" d="M430 1443 L929 1443 Q1027 1443 1106.5 1416 Q1186 1389 1242.5 1339 Q1299 1289 1329.5 1218.5 Q1360 1148 1360 1061 Q1360 977 1332.5 902 Q1305 827 1254.5 767 Q1204 707 1132.5 663.5 Q1061 620 973 599 L1180 0 L984 0 L796 571 L428 571 L307 0 L123 0 L430 1443 Z M462 731 L810 731 Q889 731 955.5 754 Q1022 777 1069.5 818.5 Q1117 860 1143.5 917.5 Q1170 975 1170 1044 Q1170 1099 1153 1143 Q1136 1187 1104 1218 Q1072 1249 1026.5 1266 Q981 1283 924 1283 L580 1283 L462 731 Z M1144 1873 L1370 1873 L975 1575 L771 1575 L1144 1873 Z " />
<glyph glyph-name="Rdotbelow" unicode="&#x1e5a;" horiz-adv-x="1338" d="M430 1443 L929 1443 Q1027 1443 1106.5 1416 Q1186 1389 1242.5 1339 Q1299 1289 1329.5 1218.5 Q1360 1148 1360 1061 Q1360 977 1332.5 902 Q1305 827 1254.5 767 Q1204 707 1132.5 663.5 Q1061 620 973 599 L1180 0 L984 0 L796 571 L428 571 L307 0 L123 0 L430 1443 Z M462 731 L810 731 Q889 731 955.5 754 Q1022 777 1069.5 818.5 Q1117 860 1143.5 917.5 Q1170 975 1170 1044 Q1170 1099 1153 1143 Q1136 1187 1104 1218 Q1072 1249 1026.5 1266 Q981 1283 924 1283 L580 1283 L462 731 Z M586 -402 Q561 -402 539 -392.5 Q517 -383 500.5 -366.5 Q484 -350 474.5 -328 Q465 -306 465 -281 Q465 -256 474.5 -234 Q484 -212 500.5 -195.5 Q517 -179 539 -169.5 Q561 -160 586 -160 Q611 -160 633 -169.5 Q655 -179 671.5 -195.5 Q688 -212 697.5 -234 Q707 -256 707 -281 Q707 -306 697.5 -328 Q688 -350 671.5 -366.5 Q655 -383 633 -392.5 Q611 -402 586 -402 Z " />
<glyph glyph-name="Rdotaccent" unicode="&#x1e58;" horiz-adv-x="1338" d="M430 1443 L929 1443 Q1027 1443 1106.5 1416 Q1186 1389 1242.5 1339 Q1299 1289 1329.5 1218.5 Q1360 1148 1360 1061 Q1360 977 1332.5 902 Q1305 827 1254.5 767 Q1204 707 1132.5 663.5 Q1061 620 973 599 L1180 0 L984 0 L796 571 L428 571 L307 0 L123 0 L430 1443 Z M462 731 L810 731 Q889 731 955.5 754 Q1022 777 1069.5 818.5 Q1117 860 1143.5 917.5 Q1170 975 1170 1044 Q1170 1099 1153 1143 Q1136 1187 1104 1218 Q1072 1249 1026.5 1266 Q981 1283 924 1283 L580 1283 L462 731 Z M888 1575 Q863 1575 841 1584.5 Q819 1594 802.5 1610.5 Q786 1627 776.5 1649 Q767 1671 767 1696 Q767 1721 776.5 1743 Q786 1765 802.5 1781.5 Q819 1798 841 1807.5 Q863 1817 888 1817 Q913 1817 935 1807.5 Q957 1798 973.5 1781.5 Q990 1765 999.5 1743 Q1009 1721 1009 1696 Q1009 1671 999.5 1649 Q990 1627 973.5 1610.5 Q957 1594 935 1584.5 Q913 1575 888 1575 Z " />
<glyph glyph-name="Rcommaaccent" unicode="&#x156;" horiz-adv-x="1338" d="M430 1443 L929 1443 Q1027 1443 1106.5 1416 Q1186 1389 1242.5 1339 Q1299 1289 1329.5 1218.5 Q1360 1148 1360 1061 Q1360 977 1332.5 902 Q1305 827 1254.5 767 Q1204 707 1132.5 663.5 Q1061 620 973 599 L1180 0 L984 0 L796 571 L428 571 L307 0 L123 0 L430 1443 Z M462 731 L810 731 Q889 731 955.5 754 Q1022 777 1069.5 818.5 Q1117 860 1143.5 917.5 Q1170 975 1170 1044 Q1170 1099 1153 1143 Q1136 1187 1104 1218 Q1072 1249 1026.5 1266 Q981 1283 924 1283 L580 1283 L462 731 Z M358 -518 L540 -141 L722 -141 L525 -518 L358 -518 Z " />
<glyph glyph-name="S" unicode="S" horiz-adv-x="1276" d="M301 400 Q314 338 346.5 287.5 Q379 237 427.5 202 Q476 167 538.5 148 Q601 129 674 129 Q749 129 810.5 147.5 Q872 166 916 199.5 Q960 233 984 280.5 Q1008 328 1008 385 Q1008 474 946 535 Q884 596 745 645 L608 693 Q460 745 378.5 841.5 Q297 938 297 1063 Q297 1152 335.5 1227.5 Q374 1303 442.5 1358.5 Q511 1414 604 1445.5 Q697 1477 806 1477 Q909 1477 997.5 1446 Q1086 1415 1153.5 1359.5 Q1221 1304 1262.5 1226.5 Q1304 1149 1312 1057 L1131 1057 Q1103 1179 1015 1246.5 Q927 1314 795 1314 Q728 1314 671.5 1296.5 Q615 1279 574 1247.5 Q533 1216 510 1173 Q487 1130 487 1079 Q487 1002 543.5 945 Q600 888 719 845 L849 798 Q1027 733 1113 637.5 Q1199 542 1199 408 Q1199 310 1159.5 229 Q1120 148 1048.5 89.5 Q977 31 877.5 -1.5 Q778 -34 659 -34 Q548 -34 455 -4 Q362 26 292.5 82 Q223 138 178.5 218.5 Q134 299 119 400 L301 400 Z " />
<glyph glyph-name="Scaron" unicode="&#x160;" horiz-adv-x="1276" d="M301 400 Q314 338 346.5 287.5 Q379 237 427.5 202 Q476 167 538.5 148 Q601 129 674 129 Q749 129 810.5 147.5 Q872 166 916 199.5 Q960 233 984 280.5 Q1008 328 1008 385 Q1008 474 946 535 Q884 596 745 645 L608 693 Q460 745 378.5 841.5 Q297 938 297 1063 Q297 1152 335.5 1227.5 Q374 1303 442.5 1358.5 Q511 1414 604 1445.5 Q697 1477 806 1477 Q909 1477 997.5 1446 Q1086 1415 1153.5 1359.5 Q1221 1304 1262.5 1226.5 Q1304 1149 1312 1057 L1131 1057 Q1103 1179 1015 1246.5 Q927 1314 795 1314 Q728 1314 671.5 1296.5 Q615 1279 574 1247.5 Q533 1216 510 1173 Q487 1130 487 1079 Q487 1002 543.5 945 Q600 888 719 845 L849 798 Q1027 733 1113 637.5 Q1199 542 1199 408 Q1199 310 1159.5 229 Q1120 148 1048.5 89.5 Q977 31 877.5 -1.5 Q778 -34 659 -34 Q548 -34 455 -4 Q362 26 292.5 82 Q223 138 178.5 218.5 Q134 299 119 400 L301 400 Z M610 1873 L795 1873 L900 1687 L916 1687 L1099 1873 L1306 1873 L996 1575 L794 1575 L610 1873 Z " />
<glyph glyph-name="Scedilla" unicode="&#x15e;" horiz-adv-x="1276" d="M849 798 Q1027 733 1113 637.5 Q1199 542 1199 408 Q1199 316 1164 239 Q1129 162 1066 104.5 Q1003 47 914.5 11.5 Q826 -24 719 -32 L652 -140 Q831 -160 831 -296 Q831 -339 812.5 -374.5 Q794 -410 761.5 -436 Q729 -462 683.5 -476.5 Q638 -491 584 -491 Q541 -491 493.5 -481.5 Q446 -472 409 -455 L432 -347 Q445 -353 463.5 -358 Q482 -363 502 -366.5 Q522 -370 542 -372.5 Q562 -375 579 -375 Q627 -375 655 -356 Q683 -337 683 -305 Q683 -270 649 -251.5 Q615 -233 549 -233 L496 -233 L509 -143 L579 -30 Q484 -20 405.5 14 Q327 48 267.5 103.5 Q208 159 170 233.5 Q132 308 119 400 L301 400 Q314 338 346.5 287.5 Q379 237 427.5 202 Q476 167 538.5 148 Q601 129 674 129 Q749 129 810.5 147.5 Q872 166 916 199.5 Q960 233 984 280.5 Q1008 328 1008 385 Q1008 474 946 535 Q884 596 745 645 L608 693 Q460 745 378.5 841.5 Q297 938 297 1063 Q297 1152 335.5 1227.5 Q374 1303 442.5 1358.5 Q511 1414 604 1445.5 Q697 1477 806 1477 Q909 1477 997.5 1446 Q1086 1415 1153.5 1359.5 Q1221 1304 1262.5 1226.5 Q1304 1149 1312 1057 L1131 1057 Q1103 1179 1015 1246.5 Q927 1314 795 1314 Q728 1314 671.5 1296.5 Q615 1279 574 1247.5 Q533 1216 510 1173 Q487 1130 487 1079 Q487 1002 543.5 945 Q600 888 719 845 L849 798 Z " />
<glyph glyph-name="Sdotaccent" unicode="&#x1e60;" horiz-adv-x="1276" d="M301 400 Q314 338 346.5 287.5 Q379 237 427.5 202 Q476 167 538.5 148 Q601 129 674 129 Q749 129 810.5 147.5 Q872 166 916 199.5 Q960 233 984 280.5 Q1008 328 1008 385 Q1008 474 946 535 Q884 596 745 645 L608 693 Q460 745 378.5 841.5 Q297 938 297 1063 Q297 1152 335.5 1227.5 Q374 1303 442.5 1358.5 Q511 1414 604 1445.5 Q697 1477 806 1477 Q909 1477 997.5 1446 Q1086 1415 1153.5 1359.5 Q1221 1304 1262.5 1226.5 Q1304 1149 1312 1057 L1131 1057 Q1103 1179 1015 1246.5 Q927 1314 795 1314 Q728 1314 671.5 1296.5 Q615 1279 574 1247.5 Q533 1216 510 1173 Q487 1130 487 1079 Q487 1002 543.5 945 Q600 888 719 845 L849 798 Q1027 733 1113 637.5 Q1199 542 1199 408 Q1199 310 1159.5 229 Q1120 148 1048.5 89.5 Q977 31 877.5 -1.5 Q778 -34 659 -34 Q548 -34 455 -4 Q362 26 292.5 82 Q223 138 178.5 218.5 Q134 299 119 400 L301 400 Z M911 1575 Q886 1575 864 1584.5 Q842 1594 825.5 1610.5 Q809 1627 799.5 1649 Q790 1671 790 1696 Q790 1721 799.5 1743 Q809 1765 825.5 1781.5 Q842 1798 864 1807.5 Q886 1817 911 1817 Q936 1817 958 1807.5 Q980 1798 996.5 1781.5 Q1013 1765 1022.5 1743 Q1032 1721 1032 1696 Q1032 1671 1022.5 1649 Q1013 1627 996.5 1610.5 Q980 1594 958 1584.5 Q936 1575 911 1575 Z " />
<glyph glyph-name="Sdotbelow" unicode="&#x1e62;" horiz-adv-x="1276" d="M301 400 Q314 338 346.5 287.5 Q379 237 427.5 202 Q476 167 538.5 148 Q601 129 674 129 Q749 129 810.5 147.5 Q872 166 916 199.5 Q960 233 984 280.5 Q1008 328 1008 385 Q1008 474 946 535 Q884 596 745 645 L608 693 Q460 745 378.5 841.5 Q297 938 297 1063 Q297 1152 335.5 1227.5 Q374 1303 442.5 1358.5 Q511 1414 604 1445.5 Q697 1477 806 1477 Q909 1477 997.5 1446 Q1086 1415 1153.5 1359.5 Q1221 1304 1262.5 1226.5 Q1304 1149 1312 1057 L1131 1057 Q1103 1179 1015 1246.5 Q927 1314 795 1314 Q728 1314 671.5 1296.5 Q615 1279 574 1247.5 Q533 1216 510 1173 Q487 1130 487 1079 Q487 1002 543.5 945 Q600 888 719 845 L849 798 Q1027 733 1113 637.5 Q1199 542 1199 408 Q1199 310 1159.5 229 Q1120 148 1048.5 89.5 Q977 31 877.5 -1.5 Q778 -34 659 -34 Q548 -34 455 -4 Q362 26 292.5 82 Q223 138 178.5 218.5 Q134 299 119 400 L301 400 Z M602 -402 Q577 -402 555 -392.5 Q533 -383 516.5 -366.5 Q500 -350 490.5 -328 Q481 -306 481 -281 Q481 -256 490.5 -234 Q500 -212 516.5 -195.5 Q533 -179 555 -169.5 Q577 -160 602 -160 Q627 -160 649 -169.5 Q671 -179 687.5 -195.5 Q704 -212 713.5 -234 Q723 -256 723 -281 Q723 -306 713.5 -328 Q704 -350 687.5 -366.5 Q671 -383 649 -392.5 Q627 -402 602 -402 Z " />
<glyph glyph-name="Scommaaccent" unicode="&#x218;" horiz-adv-x="1276" d="M301 400 Q314 338 346.5 287.5 Q379 237 427.5 202 Q476 167 538.5 148 Q601 129 674 129 Q749 129 810.5 147.5 Q872 166 916 199.5 Q960 233 984 280.5 Q1008 328 1008 385 Q1008 474 946 535 Q884 596 745 645 L608 693 Q460 745 378.5 841.5 Q297 938 297 1063 Q297 1152 335.5 1227.5 Q374 1303 442.5 1358.5 Q511 1414 604 1445.5 Q697 1477 806 1477 Q909 1477 997.5 1446 Q1086 1415 1153.5 1359.5 Q1221 1304 1262.5 1226.5 Q1304 1149 1312 1057 L1131 1057 Q1103 1179 1015 1246.5 Q927 1314 795 1314 Q728 1314 671.5 1296.5 Q615 1279 574 1247.5 Q533 1216 510 1173 Q487 1130 487 1079 Q487 1002 543.5 945 Q600 888 719 845 L849 798 Q1027 733 1113 637.5 Q1199 542 1199 408 Q1199 310 1159.5 229 Q1120 148 1048.5 89.5 Q977 31 877.5 -1.5 Q778 -34 659 -34 Q548 -34 455 -4 Q362 26 292.5 82 Q223 138 178.5 218.5 Q134 299 119 400 L301 400 Z M374 -518 L556 -141 L738 -141 L541 -518 L374 -518 Z " />
<glyph glyph-name="Sdotbelowdotaccent" unicode="&#x1e68;" horiz-adv-x="1276" d="M301 400 Q314 338 346.5 287.5 Q379 237 427.5 202 Q476 167 538.5 148 Q601 129 674 129 Q749 129 810.5 147.5 Q872 166 916 199.5 Q960 233 984 280.5 Q1008 328 1008 385 Q1008 474 946 535 Q884 596 745 645 L608 693 Q460 745 378.5 841.5 Q297 938 297 1063 Q297 1152 335.5 1227.5 Q374 1303 442.5 1358.5 Q511 1414 604 1445.5 Q697 1477 806 1477 Q909 1477 997.5 1446 Q1086 1415 1153.5 1359.5 Q1221 1304 1262.5 1226.5 Q1304 1149 1312 1057 L1131 1057 Q1103 1179 1015 1246.5 Q927 1314 795 1314 Q728 1314 671.5 1296.5 Q615 1279 574 1247.5 Q533 1216 510 1173 Q487 1130 487 1079 Q487 1002 543.5 945 Q600 888 719 845 L849 798 Q1027 733 1113 637.5 Q1199 542 1199 408 Q1199 310 1159.5 229 Q1120 148 1048.5 89.5 Q977 31 877.5 -1.5 Q778 -34 659 -34 Q548 -34 455 -4 Q362 26 292.5 82 Q223 138 178.5 218.5 Q134 299 119 400 L301 400 Z M602 -402 Q577 -402 555 -392.5 Q533 -383 516.5 -366.5 Q500 -350 490.5 -328 Q481 -306 481 -281 Q481 -256 490.5 -234 Q500 -212 516.5 -195.5 Q533 -179 555 -169.5 Q577 -160 602 -160 Q627 -160 649 -169.5 Q671 -179 687.5 -195.5 Q704 -212 713.5 -234 Q723 -256 723 -281 Q723 -306 713.5 -328 Q704 -350 687.5 -366.5 Q671 -383 649 -392.5 Q627 -402 602 -402 Z M911 1575 Q886 1575 864 1584.5 Q842 1594 825.5 1610.5 Q809 1627 799.5 1649 Q790 1671 790 1696 Q790 1721 799.5 1743 Q809 1765 825.5 1781.5 Q842 1798 864 1807.5 Q886 1817 911 1817 Q936 1817 958 1807.5 Q980 1798 996.5 1781.5 Q1013 1765 1022.5 1743 Q1032 1721 1032 1696 Q1032 1671 1022.5 1649 Q1013 1627 996.5 1610.5 Q980 1594 958 1584.5 Q936 1575 911 1575 Z " />
<glyph glyph-name="Scarondotaccent" unicode="&#x1e66;" horiz-adv-x="1276" d="M301 400 Q314 338 346.5 287.5 Q379 237 427.5 202 Q476 167 538.5 148 Q601 129 674 129 Q749 129 810.5 147.5 Q872 166 916 199.5 Q960 233 984 280.5 Q1008 328 1008 385 Q1008 474 946 535 Q884 596 745 645 L608 693 Q460 745 378.5 841.5 Q297 938 297 1063 Q297 1152 335.5 1227.5 Q374 1303 442.5 1358.5 Q511 1414 604 1445.5 Q697 1477 806 1477 Q909 1477 997.5 1446 Q1086 1415 1153.5 1359.5 Q1221 1304 1262.5 1226.5 Q1304 1149 1312 1057 L1131 1057 Q1103 1179 1015 1246.5 Q927 1314 795 1314 Q728 1314 671.5 1296.5 Q615 1279 574 1247.5 Q533 1216 510 1173 Q487 1130 487 1079 Q487 1002 543.5 945 Q600 888 719 845 L849 798 Q1027 733 1113 637.5 Q1199 542 1199 408 Q1199 310 1159.5 229 Q1120 148 1048.5 89.5 Q977 31 877.5 -1.5 Q778 -34 659 -34 Q548 -34 455 -4 Q362 26 292.5 82 Q223 138 178.5 218.5 Q134 299 119 400 L301 400 Z M971 1857 Q946 1857 924.5 1866.5 Q903 1876 887 1892 Q871 1908 861.5 1929.5 Q852 1951 852 1976 Q852 2001 861.5 2022.5 Q871 2044 887 2060 Q903 2076 924.5 2085.5 Q946 2095 971 2095 Q996 2095 1017.5 2085.5 Q1039 2076 1055 2060 Q1071 2044 1080.5 2022.5 Q1090 2001 1090 1976 Q1090 1951 1080.5 1929.5 Q1071 1908 1055 1892 Q1039 1876 1017.5 1866.5 Q996 1857 971 1857 Z M550 1808 L762 1808 L897 1672 L913 1672 L1105 1808 L1338 1808 L996 1575 L794 1575 L550 1808 Z " />
<glyph glyph-name="Scircumflex" unicode="&#x15c;" horiz-adv-x="1276" d="M301 400 Q314 338 346.5 287.5 Q379 237 427.5 202 Q476 167 538.5 148 Q601 129 674 129 Q749 129 810.5 147.5 Q872 166 916 199.5 Q960 233 984 280.5 Q1008 328 1008 385 Q1008 474 946 535 Q884 596 745 645 L608 693 Q460 745 378.5 841.5 Q297 938 297 1063 Q297 1152 335.5 1227.5 Q374 1303 442.5 1358.5 Q511 1414 604 1445.5 Q697 1477 806 1477 Q909 1477 997.5 1446 Q1086 1415 1153.5 1359.5 Q1221 1304 1262.5 1226.5 Q1304 1149 1312 1057 L1131 1057 Q1103 1179 1015 1246.5 Q927 1314 795 1314 Q728 1314 671.5 1296.5 Q615 1279 574 1247.5 Q533 1216 510 1173 Q487 1130 487 1079 Q487 1002 543.5 945 Q600 888 719 845 L849 798 Q1027 733 1113 637.5 Q1199 542 1199 408 Q1199 310 1159.5 229 Q1120 148 1048.5 89.5 Q977 31 877.5 -1.5 Q778 -34 659 -34 Q548 -34 455 -4 Q362 26 292.5 82 Q223 138 178.5 218.5 Q134 299 119 400 L301 400 Z M1221 1575 L1036 1575 L931 1761 L915 1761 L732 1575 L525 1575 L835 1873 L1037 1873 L1221 1575 Z " />
<glyph glyph-name="Sacutedotaccent" unicode="&#x1e64;" horiz-adv-x="1276" d="M301 400 Q314 338 346.5 287.5 Q379 237 427.5 202 Q476 167 538.5 148 Q601 129 674 129 Q749 129 810.5 147.5 Q872 166 916 199.5 Q960 233 984 280.5 Q1008 328 1008 385 Q1008 474 946 535 Q884 596 745 645 L608 693 Q460 745 378.5 841.5 Q297 938 297 1063 Q297 1152 335.5 1227.5 Q374 1303 442.5 1358.5 Q511 1414 604 1445.5 Q697 1477 806 1477 Q909 1477 997.5 1446 Q1086 1415 1153.5 1359.5 Q1221 1304 1262.5 1226.5 Q1304 1149 1312 1057 L1131 1057 Q1103 1179 1015 1246.5 Q927 1314 795 1314 Q728 1314 671.5 1296.5 Q615 1279 574 1247.5 Q533 1216 510 1173 Q487 1130 487 1079 Q487 1002 543.5 945 Q600 888 719 845 L849 798 Q1027 733 1113 637.5 Q1199 542 1199 408 Q1199 310 1159.5 229 Q1120 148 1048.5 89.5 Q977 31 877.5 -1.5 Q778 -34 659 -34 Q548 -34 455 -4 Q362 26 292.5 82 Q223 138 178.5 218.5 Q134 299 119 400 L301 400 Z M1280 1873 L1506 1873 L1111 1575 L907 1575 L1280 1873 Z M764 1633 Q739 1633 717 1642.5 Q695 1652 678.5 1668.5 Q662 1685 652.5 1707 Q643 1729 643 1754 Q643 1779 652.5 1801 Q662 1823 678.5 1839.5 Q695 1856 717 1865.5 Q739 1875 764 1875 Q789 1875 811 1865.5 Q833 1856 849.5 1839.5 Q866 1823 875.5 1801 Q885 1779 885 1754 Q885 1729 875.5 1707 Q866 1685 849.5 1668.5 Q833 1652 811 1642.5 Q789 1633 764 1633 Z " />
<glyph glyph-name="Sacute" unicode="&#x15a;" horiz-adv-x="1276" d="M301 400 Q314 338 346.5 287.5 Q379 237 427.5 202 Q476 167 538.5 148 Q601 129 674 129 Q749 129 810.5 147.5 Q872 166 916 199.5 Q960 233 984 280.5 Q1008 328 1008 385 Q1008 474 946 535 Q884 596 745 645 L608 693 Q460 745 378.5 841.5 Q297 938 297 1063 Q297 1152 335.5 1227.5 Q374 1303 442.5 1358.5 Q511 1414 604 1445.5 Q697 1477 806 1477 Q909 1477 997.5 1446 Q1086 1415 1153.5 1359.5 Q1221 1304 1262.5 1226.5 Q1304 1149 1312 1057 L1131 1057 Q1103 1179 1015 1246.5 Q927 1314 795 1314 Q728 1314 671.5 1296.5 Q615 1279 574 1247.5 Q533 1216 510 1173 Q487 1130 487 1079 Q487 1002 543.5 945 Q600 888 719 845 L849 798 Q1027 733 1113 637.5 Q1199 542 1199 408 Q1199 310 1159.5 229 Q1120 148 1048.5 89.5 Q977 31 877.5 -1.5 Q778 -34 659 -34 Q548 -34 455 -4 Q362 26 292.5 82 Q223 138 178.5 218.5 Q134 299 119 400 L301 400 Z M1167 1873 L1393 1873 L998 1575 L794 1575 L1167 1873 Z " />
<glyph glyph-name="T" unicode="T" horiz-adv-x="1291" d="M494 0 L766 1281 L303 1281 L337 1443 L1447 1443 L1413 1281 L950 1281 L678 0 L494 0 Z " />
<glyph glyph-name="Tcircumflexbelow" unicode="&#x1e70;" horiz-adv-x="1298" d="M494 0 L766 1281 L303 1281 L337 1443 L1447 1443 L1413 1281 L950 1281 L678 0 L494 0 Z M879 -432 L677 -432 L542 -259 L526 -259 L317 -432 L115 -432 L477 -142 L641 -142 L879 -432 Z " />
<glyph glyph-name="Tdotbelow" unicode="&#x1e6c;" horiz-adv-x="1298" d="M494 0 L766 1281 L303 1281 L337 1443 L1447 1443 L1413 1281 L950 1281 L678 0 L494 0 Z M529 -402 Q504 -402 482 -392.5 Q460 -383 443.5 -366.5 Q427 -350 417.5 -328 Q408 -306 408 -281 Q408 -256 417.5 -234 Q427 -212 443.5 -195.5 Q460 -179 482 -169.5 Q504 -160 529 -160 Q554 -160 576 -169.5 Q598 -179 614.5 -195.5 Q631 -212 640.5 -234 Q650 -256 650 -281 Q650 -306 640.5 -328 Q631 -350 614.5 -366.5 Q598 -383 576 -392.5 Q554 -402 529 -402 Z " />
<glyph glyph-name="Tcommaaccent" unicode="&#x21a;" horiz-adv-x="1298" d="M494 0 L766 1281 L303 1281 L337 1443 L1447 1443 L1413 1281 L950 1281 L678 0 L494 0 Z M301 -518 L483 -141 L665 -141 L468 -518 L301 -518 Z " />
<glyph glyph-name="Tdotaccent" unicode="&#x1e6a;" horiz-adv-x="1298" d="M494 0 L766 1281 L303 1281 L337 1443 L1447 1443 L1413 1281 L950 1281 L678 0 L494 0 Z M954 1575 Q929 1575 907 1584.5 Q885 1594 868.5 1610.5 Q852 1627 842.5 1649 Q833 1671 833 1696 Q833 1721 842.5 1743 Q852 1765 868.5 1781.5 Q885 1798 907 1807.5 Q929 1817 954 1817 Q979 1817 1001 1807.5 Q1023 1798 1039.5 1781.5 Q1056 1765 1065.5 1743 Q1075 1721 1075 1696 Q1075 1671 1065.5 1649 Q1056 1627 1039.5 1610.5 Q1023 1594 1001 1584.5 Q979 1575 954 1575 Z " />
<glyph glyph-name="Tcedilla" unicode="&#x162;" horiz-adv-x="1298" d="M1447 1443 L1413 1281 L950 1281 L678 0 L656 0 L569 -140 Q748 -160 748 -296 Q748 -339 729.5 -374.5 Q711 -410 678.5 -436 Q646 -462 600.5 -476.5 Q555 -491 501 -491 Q458 -491 410.5 -481.5 Q363 -472 326 -455 L349 -347 Q362 -353 380.5 -358 Q399 -363 419 -366.5 Q439 -370 459 -372.5 Q479 -375 496 -375 Q544 -375 572 -356 Q600 -337 600 -305 Q600 -270 566 -251.5 Q532 -233 466 -233 L413 -233 L426 -143 L515 0 L494 0 L766 1281 L303 1281 L337 1443 L1447 1443 Z " />
<glyph glyph-name="Tlinebelow" unicode="&#x1e6e;" horiz-adv-x="1298" d="M494 0 L766 1281 L303 1281 L337 1443 L1447 1443 L1413 1281 L950 1281 L678 0 L494 0 Z M178 -348 L207 -212 L881 -212 L852 -348 L178 -348 Z " />
<glyph glyph-name="Tcaron" unicode="&#x164;" horiz-adv-x="1298" d="M494 0 L766 1281 L303 1281 L337 1443 L1447 1443 L1413 1281 L950 1281 L678 0 L494 0 Z M653 1873 L838 1873 L943 1687 L959 1687 L1142 1873 L1349 1873 L1039 1575 L837 1575 L653 1873 Z " />
<glyph glyph-name="Tbar" unicode="&#x166;" horiz-adv-x="1298" d="M950 1281 L846 793 L1153 793 L1123 650 L816 650 L678 0 L494 0 L632 650 L333 650 L363 793 L662 793 L766 1281 L303 1281 L337 1443 L1447 1443 L1413 1281 L950 1281 Z " />
<glyph glyph-name="U" unicode="U" horiz-adv-x="1524" d="M736 -34 Q613 -34 519.5 1 Q426 36 363 96.5 Q300 157 267 238.5 Q234 320 233 414 Q232 446 235.5 478.5 Q239 511 246 544 L434 1443 L618 1443 L432 556 Q424 521 421 487.5 Q418 454 419 423 Q422 357 444.5 303 Q467 249 510 211 Q553 173 617.5 152.5 Q682 132 768 132 Q848 132 918.5 156.5 Q989 181 1045 227 Q1101 273 1140 340 Q1179 407 1197 491 L1400 1443 L1584 1443 L1374 456 Q1349 340 1297 249 Q1245 158 1165.5 95 Q1086 32 978.5 -1 Q871 -34 736 -34 Z " />
<glyph glyph-name="Ugrave" unicode="&#xd9;" horiz-adv-x="1524" d="M736 -34 Q613 -34 519.5 1 Q426 36 363 96.5 Q300 157 267 238.5 Q234 320 233 414 Q232 446 235.5 478.5 Q239 511 246 544 L434 1443 L618 1443 L432 556 Q424 521 421 487.5 Q418 454 419 423 Q422 357 444.5 303 Q467 249 510 211 Q553 173 617.5 152.5 Q682 132 768 132 Q848 132 918.5 156.5 Q989 181 1045 227 Q1101 273 1140 340 Q1179 407 1197 491 L1400 1443 L1584 1443 L1374 456 Q1349 340 1297 249 Q1245 158 1165.5 95 Q1086 32 978.5 -1 Q871 -34 736 -34 Z M1118 1575 L934 1575 L728 1873 L934 1873 L1118 1575 Z " />
<glyph glyph-name="Udblgrave" unicode="&#x214;" horiz-adv-x="1524" d="M736 -34 Q613 -34 519.5 1 Q426 36 363 96.5 Q300 157 267 238.5 Q234 320 233 414 Q232 446 235.5 478.5 Q239 511 246 544 L434 1443 L618 1443 L432 556 Q424 521 421 487.5 Q418 454 419 423 Q422 357 444.5 303 Q467 249 510 211 Q553 173 617.5 152.5 Q682 132 768 132 Q848 132 918.5 156.5 Q989 181 1045 227 Q1101 273 1140 340 Q1179 407 1197 491 L1400 1443 L1584 1443 L1374 456 Q1349 340 1297 249 Q1245 158 1165.5 95 Q1086 32 978.5 -1 Q871 -34 736 -34 Z M738 1575 L532 1873 L758 1873 L942 1575 L738 1575 Z M1152 1575 L946 1873 L1172 1873 L1356 1575 L1152 1575 Z " />
<glyph glyph-name="Uacute" unicode="&#xda;" horiz-adv-x="1524" d="M736 -34 Q613 -34 519.5 1 Q426 36 363 96.5 Q300 157 267 238.5 Q234 320 233 414 Q232 446 235.5 478.5 Q239 511 246 544 L434 1443 L618 1443 L432 556 Q424 521 421 487.5 Q418 454 419 423 Q422 357 444.5 303 Q467 249 510 211 Q553 173 617.5 152.5 Q682 132 768 132 Q848 132 918.5 156.5 Q989 181 1045 227 Q1101 273 1140 340 Q1179 407 1197 491 L1400 1443 L1584 1443 L1374 456 Q1349 340 1297 249 Q1245 158 1165.5 95 Q1086 32 978.5 -1 Q871 -34 736 -34 Z M1319 1873 L1545 1873 L1150 1575 L946 1575 L1319 1873 Z " />
<glyph glyph-name="Uhungarumlaut" unicode="&#x170;" horiz-adv-x="1524" d="M736 -34 Q613 -34 519.5 1 Q426 36 363 96.5 Q300 157 267 238.5 Q234 320 233 414 Q232 446 235.5 478.5 Q239 511 246 544 L434 1443 L618 1443 L432 556 Q424 521 421 487.5 Q418 454 419 423 Q422 357 444.5 303 Q467 249 510 211 Q553 173 617.5 152.5 Q682 132 768 132 Q848 132 918.5 156.5 Q989 181 1045 227 Q1101 273 1140 340 Q1179 407 1197 491 L1400 1443 L1584 1443 L1374 456 Q1349 340 1297 249 Q1245 158 1165.5 95 Q1086 32 978.5 -1 Q871 -34 736 -34 Z M1507 1873 L1733 1873 L1338 1575 L1134 1575 L1507 1873 Z M1093 1873 L1319 1873 L924 1575 L720 1575 L1093 1873 Z " />
<glyph glyph-name="Ucircumflex" unicode="&#xdb;" horiz-adv-x="1524" d="M736 -34 Q613 -34 519.5 1 Q426 36 363 96.5 Q300 157 267 238.5 Q234 320 233 414 Q232 446 235.5 478.5 Q239 511 246 544 L434 1443 L618 1443 L432 556 Q424 521 421 487.5 Q418 454 419 423 Q422 357 444.5 303 Q467 249 510 211 Q553 173 617.5 152.5 Q682 132 768 132 Q848 132 918.5 156.5 Q989 181 1045 227 Q1101 273 1140 340 Q1179 407 1197 491 L1400 1443 L1584 1443 L1374 456 Q1349 340 1297 249 Q1245 158 1165.5 95 Q1086 32 978.5 -1 Q871 -34 736 -34 Z M1373 1575 L1188 1575 L1083 1761 L1067 1761 L884 1575 L677 1575 L987 1873 L1189 1873 L1373 1575 Z " />
<glyph glyph-name="Ucaron" unicode="&#x1d3;" horiz-adv-x="1524" d="M736 -34 Q613 -34 519.5 1 Q426 36 363 96.5 Q300 157 267 238.5 Q234 320 233 414 Q232 446 235.5 478.5 Q239 511 246 544 L434 1443 L618 1443 L432 556 Q424 521 421 487.5 Q418 454 419 423 Q422 357 444.5 303 Q467 249 510 211 Q553 173 617.5 152.5 Q682 132 768 132 Q848 132 918.5 156.5 Q989 181 1045 227 Q1101 273 1140 340 Q1179 407 1197 491 L1400 1443 L1584 1443 L1374 456 Q1349 340 1297 249 Q1245 158 1165.5 95 Q1086 32 978.5 -1 Q871 -34 736 -34 Z M762 1873 L947 1873 L1052 1687 L1068 1687 L1251 1873 L1458 1873 L1148 1575 L946 1575 L762 1873 Z " />
<glyph glyph-name="Ucircumflexbelow" unicode="&#x1e76;" horiz-adv-x="1524" d="M736 -34 Q613 -34 519.5 1 Q426 36 363 96.5 Q300 157 267 238.5 Q234 320 233 414 Q232 446 235.5 478.5 Q239 511 246 544 L434 1443 L618 1443 L432 556 Q424 521 421 487.5 Q418 454 419 423 Q422 357 444.5 303 Q467 249 510 211 Q553 173 617.5 152.5 Q682 132 768 132 Q848 132 918.5 156.5 Q989 181 1045 227 Q1101 273 1140 340 Q1179 407 1197 491 L1400 1443 L1584 1443 L1374 456 Q1349 340 1297 249 Q1245 158 1165.5 95 Q1086 32 978.5 -1 Q871 -34 736 -34 Z M992 -432 L790 -432 L655 -259 L639 -259 L430 -432 L228 -432 L590 -142 L754 -142 L992 -432 Z " />
<glyph glyph-name="Udieresis" unicode="&#xdc;" horiz-adv-x="1524" d="M736 -34 Q613 -34 519.5 1 Q426 36 363 96.5 Q300 157 267 238.5 Q234 320 233 414 Q232 446 235.5 478.5 Q239 511 246 544 L434 1443 L618 1443 L432 556 Q424 521 421 487.5 Q418 454 419 423 Q422 357 444.5 303 Q467 249 510 211 Q553 173 617.5 152.5 Q682 132 768 132 Q848 132 918.5 156.5 Q989 181 1045 227 Q1101 273 1140 340 Q1179 407 1197 491 L1400 1443 L1584 1443 L1374 456 Q1349 340 1297 249 Q1245 158 1165.5 95 Q1086 32 978.5 -1 Q871 -34 736 -34 Z M860 1575 Q835 1575 813 1584.5 Q791 1594 774.5 1610.5 Q758 1627 748.5 1649 Q739 1671 739 1696 Q739 1721 748.5 1743 Q758 1765 774.5 1781.5 Q791 1798 813 1807.5 Q835 1817 860 1817 Q885 1817 907 1807.5 Q929 1798 945.5 1781.5 Q962 1765 971.5 1743 Q981 1721 981 1696 Q981 1671 971.5 1649 Q962 1627 945.5 1610.5 Q929 1594 907 1584.5 Q885 1575 860 1575 Z M1264 1575 Q1239 1575 1217 1584.5 Q1195 1594 1178.5 1610.5 Q1162 1627 1152.5 1649 Q1143 1671 1143 1696 Q1143 1721 1152.5 1743 Q1162 1765 1178.5 1781.5 Q1195 1798 1217 1807.5 Q1239 1817 1264 1817 Q1289 1817 1311 1807.5 Q1333 1798 1349.5 1781.5 Q1366 1765 1375.5 1743 Q1385 1721 1385 1696 Q1385 1671 1375.5 1649 Q1366 1627 1349.5 1610.5 Q1333 1594 1311 1584.5 Q1289 1575 1264 1575 Z " />
<glyph glyph-name="Udieresisgrave" unicode="&#x1db;" horiz-adv-x="1524" d="M736 -34 Q613 -34 519.5 1 Q426 36 363 96.5 Q300 157 267 238.5 Q234 320 233 414 Q232 446 235.5 478.5 Q239 511 246 544 L434 1443 L618 1443 L432 556 Q424 521 421 487.5 Q418 454 419 423 Q422 357 444.5 303 Q467 249 510 211 Q553 173 617.5 152.5 Q682 132 768 132 Q848 132 918.5 156.5 Q989 181 1045 227 Q1101 273 1140 340 Q1179 407 1197 491 L1400 1443 L1584 1443 L1374 456 Q1349 340 1297 249 Q1245 158 1165.5 95 Q1086 32 978.5 -1 Q871 -34 736 -34 Z M982 1873 L748 2095 L975 2095 L1158 1873 L982 1873 Z M860 1575 Q835 1575 813 1584.5 Q791 1594 774.5 1610.5 Q758 1627 748.5 1649 Q739 1671 739 1696 Q739 1721 748.5 1743 Q758 1765 774.5 1781.5 Q791 1798 813 1807.5 Q835 1817 860 1817 Q885 1817 907 1807.5 Q929 1798 945.5 1781.5 Q962 1765 971.5 1743 Q981 1721 981 1696 Q981 1671 971.5 1649 Q962 1627 945.5 1610.5 Q929 1594 907 1584.5 Q885 1575 860 1575 Z M1264 1575 Q1239 1575 1217 1584.5 Q1195 1594 1178.5 1610.5 Q1162 1627 1152.5 1649 Q1143 1671 1143 1696 Q1143 1721 1152.5 1743 Q1162 1765 1178.5 1781.5 Q1195 1798 1217 1807.5 Q1239 1817 1264 1817 Q1289 1817 1311 1807.5 Q1333 1798 1349.5 1781.5 Q1366 1765 1375.5 1743 Q1385 1721 1385 1696 Q1385 1671 1375.5 1649 Q1366 1627 1349.5 1610.5 Q1333 1594 1311 1584.5 Q1289 1575 1264 1575 Z " />
<glyph glyph-name="Udieresisacute" unicode="&#x1d7;" horiz-adv-x="1524" d="M736 -34 Q613 -34 519.5 1 Q426 36 363 96.5 Q300 157 267 238.5 Q234 320 233 414 Q232 446 235.5 478.5 Q239 511 246 544 L434 1443 L618 1443 L432 556 Q424 521 421 487.5 Q418 454 419 423 Q422 357 444.5 303 Q467 249 510 211 Q553 173 617.5 152.5 Q682 132 768 132 Q848 132 918.5 156.5 Q989 181 1045 227 Q1101 273 1140 340 Q1179 407 1197 491 L1400 1443 L1584 1443 L1374 456 Q1349 340 1297 249 Q1245 158 1165.5 95 Q1086 32 978.5 -1 Q871 -34 736 -34 Z M1251 2095 L1478 2095 L1150 1873 L974 1873 L1251 2095 Z M860 1575 Q835 1575 813 1584.5 Q791 1594 774.5 1610.5 Q758 1627 748.5 1649 Q739 1671 739 1696 Q739 1721 748.5 1743 Q758 1765 774.5 1781.5 Q791 1798 813 1807.5 Q835 1817 860 1817 Q885 1817 907 1807.5 Q929 1798 945.5 1781.5 Q962 1765 971.5 1743 Q981 1721 981 1696 Q981 1671 971.5 1649 Q962 1627 945.5 1610.5 Q929 1594 907 1584.5 Q885 1575 860 1575 Z M1264 1575 Q1239 1575 1217 1584.5 Q1195 1594 1178.5 1610.5 Q1162 1627 1152.5 1649 Q1143 1671 1143 1696 Q1143 1721 1152.5 1743 Q1162 1765 1178.5 1781.5 Q1195 1798 1217 1807.5 Q1239 1817 1264 1817 Q1289 1817 1311 1807.5 Q1333 1798 1349.5 1781.5 Q1366 1765 1375.5 1743 Q1385 1721 1385 1696 Q1385 1671 1375.5 1649 Q1366 1627 1349.5 1610.5 Q1333 1594 1311 1584.5 Q1289 1575 1264 1575 Z " />
<glyph glyph-name="Udieresismacron" unicode="&#x1d5;" horiz-adv-x="1524" d="M736 -34 Q613 -34 519.5 1 Q426 36 363 96.5 Q300 157 267 238.5 Q234 320 233 414 Q232 446 235.5 478.5 Q239 511 246 544 L434 1443 L618 1443 L432 556 Q424 521 421 487.5 Q418 454 419 423 Q422 357 444.5 303 Q467 249 510 211 Q553 173 617.5 152.5 Q682 132 768 132 Q848 132 918.5 156.5 Q989 181 1045 227 Q1101 273 1140 340 Q1179 407 1197 491 L1400 1443 L1584 1443 L1374 456 Q1349 340 1297 249 Q1245 158 1165.5 95 Q1086 32 978.5 -1 Q871 -34 736 -34 Z M803 2062 L1477 2062 L1449 1932 L775 1932 L803 2062 Z M863 1575 Q839 1575 817.5 1584 Q796 1593 780 1609 Q764 1625 755 1646.5 Q746 1668 746 1692 Q746 1716 755 1737.5 Q764 1759 780 1775 Q796 1791 817.5 1800 Q839 1809 863 1809 Q887 1809 908.5 1800 Q930 1791 946 1775 Q962 1759 971 1737.5 Q980 1716 980 1692 Q980 1668 971 1646.5 Q962 1625 946 1609 Q930 1593 908.5 1584 Q887 1575 863 1575 Z M1267 1575 Q1243 1575 1221.5 1584 Q1200 1593 1184 1609 Q1168 1625 1159 1646.5 Q1150 1668 1150 1692 Q1150 1716 1159 1737.5 Q1168 1759 1184 1775 Q1200 1791 1221.5 1800 Q1243 1809 1267 1809 Q1291 1809 1312.5 1800 Q1334 1791 1350 1775 Q1366 1759 1375 1737.5 Q1384 1716 1384 1692 Q1384 1668 1375 1646.5 Q1366 1625 1350 1609 Q1334 1593 1312.5 1584 Q1291 1575 1267 1575 Z " />
<glyph glyph-name="Udieresiscaron" unicode="&#x1d9;" horiz-adv-x="1524" d="M736 -34 Q613 -34 519.5 1 Q426 36 363 96.5 Q300 157 267 238.5 Q234 320 233 414 Q232 446 235.5 478.5 Q239 511 246 544 L434 1443 L618 1443 L432 556 Q424 521 421 487.5 Q418 454 419 423 Q422 357 444.5 303 Q467 249 510 211 Q553 173 617.5 152.5 Q682 132 768 132 Q848 132 918.5 156.5 Q989 181 1045 227 Q1101 273 1140 340 Q1179 407 1197 491 L1400 1443 L1584 1443 L1374 456 Q1349 340 1297 249 Q1245 158 1165.5 95 Q1086 32 978.5 -1 Q871 -34 736 -34 Z M860 1575 Q836 1575 814.5 1584 Q793 1593 777 1609 Q761 1625 752 1646.5 Q743 1668 743 1692 Q743 1716 752 1737.5 Q761 1759 777 1775 Q793 1791 814.5 1800 Q836 1809 860 1809 Q884 1809 905.5 1800 Q927 1791 943 1775 Q959 1759 968 1737.5 Q977 1716 977 1692 Q977 1668 968 1646.5 Q959 1625 943 1609 Q927 1593 905.5 1584 Q884 1575 860 1575 Z M1264 1575 Q1240 1575 1218.5 1584 Q1197 1593 1181 1609 Q1165 1625 1156 1646.5 Q1147 1668 1147 1692 Q1147 1716 1156 1737.5 Q1165 1759 1181 1775 Q1197 1791 1218.5 1800 Q1240 1809 1264 1809 Q1288 1809 1309.5 1800 Q1331 1791 1347 1775 Q1363 1759 1372 1737.5 Q1381 1716 1381 1692 Q1381 1668 1372 1646.5 Q1363 1625 1347 1609 Q1331 1593 1309.5 1584 Q1288 1575 1264 1575 Z M763 2095 L975 2095 L1110 1959 L1126 1959 L1318 2095 L1551 2095 L1209 1862 L1007 1862 L763 2095 Z " />
<glyph glyph-name="Udieresisbelow" unicode="&#x1e72;" horiz-adv-x="1524" d="M736 -34 Q613 -34 519.5 1 Q426 36 363 96.5 Q300 157 267 238.5 Q234 320 233 414 Q232 446 235.5 478.5 Q239 511 246 544 L434 1443 L618 1443 L432 556 Q424 521 421 487.5 Q418 454 419 423 Q422 357 444.5 303 Q467 249 510 211 Q553 173 617.5 152.5 Q682 132 768 132 Q848 132 918.5 156.5 Q989 181 1045 227 Q1101 273 1140 340 Q1179 407 1197 491 L1400 1443 L1584 1443 L1374 456 Q1349 340 1297 249 Q1245 158 1165.5 95 Q1086 32 978.5 -1 Q871 -34 736 -34 Z M434 -432 Q409 -432 387 -422.5 Q365 -413 348.5 -396.5 Q332 -380 322.5 -358 Q313 -336 313 -311 Q313 -286 322.5 -264 Q332 -242 348.5 -225.5 Q365 -209 387 -199.5 Q409 -190 434 -190 Q459 -190 481 -199.5 Q503 -209 519.5 -225.5 Q536 -242 545.5 -264 Q555 -286 555 -311 Q555 -336 545.5 -358 Q536 -380 519.5 -396.5 Q503 -413 481 -422.5 Q459 -432 434 -432 Z M838 -432 Q813 -432 791 -422.5 Q769 -413 752.5 -396.5 Q736 -380 726.5 -358 Q717 -336 717 -311 Q717 -286 726.5 -264 Q736 -242 752.5 -225.5 Q769 -209 791 -199.5 Q813 -190 838 -190 Q863 -190 885 -199.5 Q907 -209 923.5 -225.5 Q940 -242 949.5 -264 Q959 -286 959 -311 Q959 -336 949.5 -358 Q940 -380 923.5 -396.5 Q907 -413 885 -422.5 Q863 -432 838 -432 Z " />
<glyph glyph-name="Utildebelow" unicode="&#x1e74;" horiz-adv-x="1524" d="M736 -34 Q613 -34 519.5 1 Q426 36 363 96.5 Q300 157 267 238.5 Q234 320 233 414 Q232 446 235.5 478.5 Q239 511 246 544 L434 1443 L618 1443 L432 556 Q424 521 421 487.5 Q418 454 419 423 Q422 357 444.5 303 Q467 249 510 211 Q553 173 617.5 152.5 Q682 132 768 132 Q848 132 918.5 156.5 Q989 181 1045 227 Q1101 273 1140 340 Q1179 407 1197 491 L1400 1443 L1584 1443 L1374 456 Q1349 340 1297 249 Q1245 158 1165.5 95 Q1086 32 978.5 -1 Q871 -34 736 -34 Z M794 -431 Q751 -431 719 -418.5 Q687 -406 661.5 -387 Q636 -368 615.5 -345.5 Q595 -323 575.5 -304 Q556 -285 536 -272.5 Q516 -260 491 -260 Q453 -260 422 -287 Q391 -314 377 -386 L235 -386 Q246 -320 270.5 -271 Q295 -222 329 -189.5 Q363 -157 405 -141 Q447 -125 494 -125 Q536 -125 568 -137.5 Q600 -150 625.5 -169 Q651 -188 671.5 -210.5 Q692 -233 711.5 -252 Q731 -271 751 -283.5 Q771 -296 796 -296 Q834 -296 865.5 -269 Q897 -242 911 -170 L1053 -170 Q1042 -236 1017.5 -285 Q993 -334 959 -366.5 Q925 -399 882.5 -415 Q840 -431 794 -431 Z " />
<glyph glyph-name="Uhookabove" unicode="&#x1ee6;" horiz-adv-x="1524" d="M736 -34 Q613 -34 519.5 1 Q426 36 363 96.5 Q300 157 267 238.5 Q234 320 233 414 Q232 446 235.5 478.5 Q239 511 246 544 L434 1443 L618 1443 L432 556 Q424 521 421 487.5 Q418 454 419 423 Q422 357 444.5 303 Q467 249 510 211 Q553 173 617.5 152.5 Q682 132 768 132 Q848 132 918.5 156.5 Q989 181 1045 227 Q1101 273 1140 340 Q1179 407 1197 491 L1400 1443 L1584 1443 L1374 456 Q1349 340 1297 249 Q1245 158 1165.5 95 Q1086 32 978.5 -1 Q871 -34 736 -34 Z M950 1900 Q976 1910 1010.5 1915.5 Q1045 1921 1080 1921 Q1122 1921 1157.5 1909 Q1193 1897 1219.5 1875.5 Q1246 1854 1260.5 1824.5 Q1275 1795 1275 1761 Q1275 1724 1259 1689 Q1243 1654 1213 1623.5 Q1183 1593 1140 1568.5 Q1097 1544 1043 1527 L991 1624 Q1019 1632 1043 1645 Q1067 1658 1085 1673.5 Q1103 1689 1113 1707 Q1123 1725 1123 1742 Q1123 1769 1101 1785.5 Q1079 1802 1043 1802 Q1009 1802 978 1797.5 Q947 1793 926 1785 L950 1900 Z " />
<glyph glyph-name="Ubreve" unicode="&#x16c;" horiz-adv-x="1524" d="M736 -34 Q613 -34 519.5 1 Q426 36 363 96.5 Q300 157 267 238.5 Q234 320 233 414 Q232 446 235.5 478.5 Q239 511 246 544 L434 1443 L618 1443 L432 556 Q424 521 421 487.5 Q418 454 419 423 Q422 357 444.5 303 Q467 249 510 211 Q553 173 617.5 152.5 Q682 132 768 132 Q848 132 918.5 156.5 Q989 181 1045 227 Q1101 273 1140 340 Q1179 407 1197 491 L1400 1443 L1584 1443 L1374 456 Q1349 340 1297 249 Q1245 158 1165.5 95 Q1086 32 978.5 -1 Q871 -34 736 -34 Z M708 1873 L858 1873 L858 1860 Q858 1826 873 1797.5 Q888 1769 914.5 1748 Q941 1727 977 1715.5 Q1013 1704 1054 1704 Q1139 1704 1196.5 1749 Q1254 1794 1274 1873 L1428 1873 Q1415 1804 1381 1749 Q1347 1694 1297.5 1655 Q1248 1616 1185 1595.5 Q1122 1575 1050 1575 Q974 1575 911 1596 Q848 1617 803 1655 Q758 1693 733 1746 Q708 1799 708 1863 L708 1873 Z " />
<glyph glyph-name="Uinvertedbreve" unicode="&#x216;" horiz-adv-x="1524" d="M736 -34 Q613 -34 519.5 1 Q426 36 363 96.5 Q300 157 267 238.5 Q234 320 233 414 Q232 446 235.5 478.5 Q239 511 246 544 L434 1443 L618 1443 L432 556 Q424 521 421 487.5 Q418 454 419 423 Q422 357 444.5 303 Q467 249 510 211 Q553 173 617.5 152.5 Q682 132 768 132 Q848 132 918.5 156.5 Q989 181 1045 227 Q1101 273 1140 340 Q1179 407 1197 491 L1400 1443 L1584 1443 L1374 456 Q1349 340 1297 249 Q1245 158 1165.5 95 Q1086 32 978.5 -1 Q871 -34 736 -34 Z M1428 1575 L1278 1575 L1278 1588 Q1278 1622 1263 1650.5 Q1248 1679 1221.5 1700 Q1195 1721 1159 1732.5 Q1123 1744 1082 1744 Q997 1744 939.5 1699 Q882 1654 862 1575 L708 1575 Q721 1644 755 1699 Q789 1754 838.5 1793 Q888 1832 951 1852.5 Q1014 1873 1086 1873 Q1162 1873 1225 1852 Q1288 1831 1333 1793 Q1378 1755 1403 1702 Q1428 1649 1428 1585 L1428 1575 Z " />
<glyph glyph-name="Utildeacute" unicode="&#x1e78;" horiz-adv-x="1524" d="M736 -34 Q613 -34 519.5 1 Q426 36 363 96.5 Q300 157 267 238.5 Q234 320 233 414 Q232 446 235.5 478.5 Q239 511 246 544 L434 1443 L618 1443 L432 556 Q424 521 421 487.5 Q418 454 419 423 Q422 357 444.5 303 Q467 249 510 211 Q553 173 617.5 152.5 Q682 132 768 132 Q848 132 918.5 156.5 Q989 181 1045 227 Q1101 273 1140 340 Q1179 407 1197 491 L1400 1443 L1584 1443 L1374 456 Q1349 340 1297 249 Q1245 158 1165.5 95 Q1086 32 978.5 -1 Q871 -34 736 -34 Z M1273 2095 L1491 2095 L1196 1873 L1006 1873 L1273 2095 Z M1194 1574 Q1144 1574 1108.5 1593.5 Q1073 1613 1045 1636 Q1017 1659 992 1678.5 Q967 1698 937 1698 Q893 1698 866 1674 Q839 1650 823 1600 L681 1600 Q691 1658 716 1701.5 Q741 1745 775.5 1774 Q810 1803 851.5 1818 Q893 1833 936 1833 Q986 1833 1021.5 1813.5 Q1057 1794 1085 1771 Q1113 1748 1138 1728.5 Q1163 1709 1193 1709 Q1237 1709 1264 1733 Q1291 1757 1307 1807 L1449 1807 Q1439 1749 1414 1705.5 Q1389 1662 1354.5 1632.5 Q1320 1603 1278.5 1588.5 Q1237 1574 1194 1574 Z " />
<glyph glyph-name="Udotbelow" unicode="&#x1ee4;" horiz-adv-x="1524" d="M736 -34 Q613 -34 519.5 1 Q426 36 363 96.5 Q300 157 267 238.5 Q234 320 233 414 Q232 446 235.5 478.5 Q239 511 246 544 L434 1443 L618 1443 L432 556 Q424 521 421 487.5 Q418 454 419 423 Q422 357 444.5 303 Q467 249 510 211 Q553 173 617.5 152.5 Q682 132 768 132 Q848 132 918.5 156.5 Q989 181 1045 227 Q1101 273 1140 340 Q1179 407 1197 491 L1400 1443 L1584 1443 L1374 456 Q1349 340 1297 249 Q1245 158 1165.5 95 Q1086 32 978.5 -1 Q871 -34 736 -34 Z M642 -402 Q617 -402 595 -392.5 Q573 -383 556.5 -366.5 Q540 -350 530.5 -328 Q521 -306 521 -281 Q521 -256 530.5 -234 Q540 -212 556.5 -195.5 Q573 -179 595 -169.5 Q617 -160 642 -160 Q667 -160 689 -169.5 Q711 -179 727.5 -195.5 Q744 -212 753.5 -234 Q763 -256 763 -281 Q763 -306 753.5 -328 Q744 -350 727.5 -366.5 Q711 -383 689 -392.5 Q667 -402 642 -402 Z " />
<glyph glyph-name="Utilde" unicode="&#x168;" horiz-adv-x="1524" d="M736 -34 Q613 -34 519.5 1 Q426 36 363 96.5 Q300 157 267 238.5 Q234 320 233 414 Q232 446 235.5 478.5 Q239 511 246 544 L434 1443 L618 1443 L432 556 Q424 521 421 487.5 Q418 454 419 423 Q422 357 444.5 303 Q467 249 510 211 Q553 173 617.5 152.5 Q682 132 768 132 Q848 132 918.5 156.5 Q989 181 1045 227 Q1101 273 1140 340 Q1179 407 1197 491 L1400 1443 L1584 1443 L1374 456 Q1349 340 1297 249 Q1245 158 1165.5 95 Q1086 32 978.5 -1 Q871 -34 736 -34 Z M1220 1575 Q1178 1575 1145 1587 Q1112 1599 1086 1617 Q1060 1635 1038.5 1656.5 Q1017 1678 997.5 1696 Q978 1714 958.5 1726 Q939 1738 917 1738 Q828 1738 803 1620 L661 1620 Q671 1680 695 1727 Q719 1774 753.5 1806.5 Q788 1839 830.5 1856 Q873 1873 920 1873 Q962 1873 994.5 1861 Q1027 1849 1053 1831 Q1079 1813 1100.5 1791.5 Q1122 1770 1141.5 1752 Q1161 1734 1180.5 1722 Q1200 1710 1222 1710 Q1312 1710 1337 1828 L1479 1828 Q1469 1768 1445 1721 Q1421 1674 1386.5 1641.5 Q1352 1609 1309.5 1592 Q1267 1575 1220 1575 Z " />
<glyph glyph-name="Umacron" unicode="&#x16a;" horiz-adv-x="1524" d="M736 -34 Q613 -34 519.5 1 Q426 36 363 96.5 Q300 157 267 238.5 Q234 320 233 414 Q232 446 235.5 478.5 Q239 511 246 544 L434 1443 L618 1443 L432 556 Q424 521 421 487.5 Q418 454 419 423 Q422 357 444.5 303 Q467 249 510 211 Q553 173 617.5 152.5 Q682 132 768 132 Q848 132 918.5 156.5 Q989 181 1045 227 Q1101 273 1140 340 Q1179 407 1197 491 L1400 1443 L1584 1443 L1374 456 Q1349 340 1297 249 Q1245 158 1165.5 95 Q1086 32 978.5 -1 Q871 -34 736 -34 Z M709 1620 L738 1756 L1412 1756 L1383 1620 L709 1620 Z " />
<glyph glyph-name="Umacrondieresis" unicode="&#x1e7a;" horiz-adv-x="1524" d="M736 -34 Q613 -34 519.5 1 Q426 36 363 96.5 Q300 157 267 238.5 Q234 320 233 414 Q232 446 235.5 478.5 Q239 511 246 544 L434 1443 L618 1443 L432 556 Q424 521 421 487.5 Q418 454 419 423 Q422 357 444.5 303 Q467 249 510 211 Q553 173 617.5 152.5 Q682 132 768 132 Q848 132 918.5 156.5 Q989 181 1045 227 Q1101 273 1140 340 Q1179 407 1197 491 L1400 1443 L1584 1443 L1374 456 Q1349 340 1297 249 Q1245 158 1165.5 95 Q1086 32 978.5 -1 Q871 -34 736 -34 Z M737 1750 L1411 1750 L1383 1620 L709 1620 L737 1750 Z M916 1861 Q892 1861 870.5 1870 Q849 1879 833 1895 Q817 1911 808 1932.5 Q799 1954 799 1978 Q799 2002 808 2023.5 Q817 2045 833 2061 Q849 2077 870.5 2086 Q892 2095 916 2095 Q940 2095 961.5 2086 Q983 2077 999 2061 Q1015 2045 1024 2023.5 Q1033 2002 1033 1978 Q1033 1954 1024 1932.5 Q1015 1911 999 1895 Q983 1879 961.5 1870 Q940 1861 916 1861 Z M1320 1861 Q1296 1861 1274.5 1870 Q1253 1879 1237 1895 Q1221 1911 1212 1932.5 Q1203 1954 1203 1978 Q1203 2002 1212 2023.5 Q1221 2045 1237 2061 Q1253 2077 1274.5 2086 Q1296 2095 1320 2095 Q1344 2095 1365.5 2086 Q1387 2077 1403 2061 Q1419 2045 1428 2023.5 Q1437 2002 1437 1978 Q1437 1954 1428 1932.5 Q1419 1911 1403 1895 Q1387 1879 1365.5 1870 Q1344 1861 1320 1861 Z " />
<glyph glyph-name="Uring" unicode="&#x16e;" horiz-adv-x="1524" d="M736 -34 Q613 -34 519.5 1 Q426 36 363 96.5 Q300 157 267 238.5 Q234 320 233 414 Q232 446 235.5 478.5 Q239 511 246 544 L434 1443 L618 1443 L432 556 Q424 521 421 487.5 Q418 454 419 423 Q422 357 444.5 303 Q467 249 510 211 Q553 173 617.5 152.5 Q682 132 768 132 Q848 132 918.5 156.5 Q989 181 1045 227 Q1101 273 1140 340 Q1179 407 1197 491 L1400 1443 L1584 1443 L1374 456 Q1349 340 1297 249 Q1245 158 1165.5 95 Q1086 32 978.5 -1 Q871 -34 736 -34 Z M1084 1571 Q1036 1571 993.5 1588.5 Q951 1606 919.5 1637 Q888 1668 870 1710 Q852 1752 852 1800 Q852 1848 870 1890 Q888 1932 919.5 1963 Q951 1994 993.5 2011.5 Q1036 2029 1084 2029 Q1132 2029 1174 2011.5 Q1216 1994 1247.5 1963 Q1279 1932 1297.5 1890 Q1316 1848 1316 1800 Q1316 1752 1297.5 1710 Q1279 1668 1247.5 1637 Q1216 1606 1174 1588.5 Q1132 1571 1084 1571 Z M1084 1677 Q1110 1677 1132.5 1686.5 Q1155 1696 1171.5 1712.5 Q1188 1729 1197 1751.5 Q1206 1774 1206 1800 Q1206 1826 1197 1848.5 Q1188 1871 1171.5 1887.5 Q1155 1904 1132.5 1913.5 Q1110 1923 1084 1923 Q1058 1923 1035.5 1913.5 Q1013 1904 996.5 1887.5 Q980 1871 971 1848.5 Q962 1826 962 1800 Q962 1774 971 1751.5 Q980 1729 996.5 1712.5 Q1013 1696 1035.5 1686.5 Q1058 1677 1084 1677 Z " />
<glyph glyph-name="Uogonek" unicode="&#x172;" horiz-adv-x="1524" d="M968 -432 Q860 -432 801 -381.5 Q742 -331 742 -239 Q742 -192 766 -141 Q790 -90 835 -44 L835 -28 Q820 -31 793.5 -32.5 Q767 -34 736 -34 Q623 -34 530 -2.5 Q437 29 371 87.5 Q305 146 269 229 Q233 312 233 414 Q233 444 235.5 476.5 Q238 509 246 544 L434 1443 L618 1443 L432 556 Q424 522 421.5 488.5 Q419 455 419 423 Q419 352 443 298 Q467 244 512 207 Q557 170 621.5 151 Q686 132 768 132 Q849 132 920 157 Q991 182 1046.5 228.5 Q1102 275 1140.5 341.5 Q1179 408 1197 491 L1400 1443 L1584 1443 L1374 456 Q1312 168 1081 41 Q1046 22 1014.5 -7.5 Q983 -37 959 -71 Q935 -105 921 -140 Q907 -175 907 -205 Q907 -253 938 -277.5 Q969 -302 1029 -302 Q1043 -302 1055 -301.5 Q1067 -301 1074 -299 L1048 -422 Q1037 -427 1015.5 -429.5 Q994 -432 968 -432 Z " />
<glyph glyph-name="Uhorn" unicode="&#x1af;" horiz-adv-x="1770" d="M1986 1620 L1938 1396 Q1911 1271 1833.5 1211 Q1756 1151 1646 1151 Q1613 1151 1582 1159 Q1551 1167 1529 1182 L1374 456 Q1349 340 1297 249 Q1245 158 1165.5 95 Q1086 32 978.5 -1 Q871 -34 736 -34 Q613 -34 519.5 1 Q426 36 363 96.5 Q300 157 267 238.5 Q234 320 233 414 Q232 446 235.5 478.5 Q239 511 246 544 L434 1443 L618 1443 L432 556 Q424 521 421 487.5 Q418 454 419 423 Q422 357 444.5 303 Q467 249 510 211 Q553 173 617.5 152.5 Q682 132 768 132 Q848 132 918.5 156.5 Q989 181 1045 227 Q1101 273 1140 340 Q1179 407 1197 491 L1400 1443 L1584 1443 L1558 1318 Q1574 1304 1596 1297.5 Q1618 1291 1643 1291 Q1674 1291 1697.5 1299 Q1721 1307 1739 1325 Q1757 1343 1769.5 1372 Q1782 1401 1791 1444 L1828 1620 L1986 1620 Z " />
<glyph glyph-name="Uhorngrave" unicode="&#x1eea;" horiz-adv-x="1770" d="M934 1575 L728 1873 L934 1873 L1118 1575 L934 1575 Z M1986 1620 L1938 1396 Q1911 1271 1833.5 1211 Q1756 1151 1646 1151 Q1613 1151 1582 1159 Q1551 1167 1529 1182 L1374 456 Q1349 340 1297 249 Q1245 158 1165.5 95 Q1086 32 978.5 -1 Q871 -34 736 -34 Q613 -34 519.5 1 Q426 36 363 96.5 Q300 157 267 238.5 Q234 320 233 414 Q232 446 235.5 478.5 Q239 511 246 544 L434 1443 L618 1443 L432 556 Q424 521 421 487.5 Q418 454 419 423 Q422 357 444.5 303 Q467 249 510 211 Q553 173 617.5 152.5 Q682 132 768 132 Q848 132 918.5 156.5 Q989 181 1045 227 Q1101 273 1140 340 Q1179 407 1197 491 L1400 1443 L1584 1443 L1558 1318 Q1574 1304 1596 1297.5 Q1618 1291 1643 1291 Q1674 1291 1697.5 1299 Q1721 1307 1739 1325 Q1757 1343 1769.5 1372 Q1782 1401 1791 1444 L1828 1620 L1986 1620 Z " />
<glyph glyph-name="Uhornacute" unicode="&#x1ee8;" horiz-adv-x="1770" d="M1150 1575 L946 1575 L1319 1873 L1545 1873 L1150 1575 Z M1986 1620 L1938 1396 Q1911 1271 1833.5 1211 Q1756 1151 1646 1151 Q1613 1151 1582 1159 Q1551 1167 1529 1182 L1374 456 Q1349 340 1297 249 Q1245 158 1165.5 95 Q1086 32 978.5 -1 Q871 -34 736 -34 Q613 -34 519.5 1 Q426 36 363 96.5 Q300 157 267 238.5 Q234 320 233 414 Q232 446 235.5 478.5 Q239 511 246 544 L434 1443 L618 1443 L432 556 Q424 521 421 487.5 Q418 454 419 423 Q422 357 444.5 303 Q467 249 510 211 Q553 173 617.5 152.5 Q682 132 768 132 Q848 132 918.5 156.5 Q989 181 1045 227 Q1101 273 1140 340 Q1179 407 1197 491 L1400 1443 L1584 1443 L1558 1318 Q1574 1304 1596 1297.5 Q1618 1291 1643 1291 Q1674 1291 1697.5 1299 Q1721 1307 1739 1325 Q1757 1343 1769.5 1372 Q1782 1401 1791 1444 L1828 1620 L1986 1620 Z " />
<glyph glyph-name="Uhorndotbelow" unicode="&#x1ef0;" horiz-adv-x="1770" d="M642 -160 Q667 -160 689 -169.5 Q711 -179 727.5 -195.5 Q744 -212 753.5 -234 Q763 -256 763 -281 Q763 -306 753.5 -328 Q744 -350 727.5 -366.5 Q711 -383 689 -392.5 Q667 -402 642 -402 Q617 -402 595 -392.5 Q573 -383 556.5 -366.5 Q540 -350 530.5 -328 Q521 -306 521 -281 Q521 -256 530.5 -234 Q540 -212 556.5 -195.5 Q573 -179 595 -169.5 Q617 -160 642 -160 Z M1986 1620 L1938 1396 Q1911 1271 1833.5 1211 Q1756 1151 1646 1151 Q1613 1151 1582 1159 Q1551 1167 1529 1182 L1374 456 Q1349 340 1297 249 Q1245 158 1165.5 95 Q1086 32 978.5 -1 Q871 -34 736 -34 Q613 -34 519.5 1 Q426 36 363 96.5 Q300 157 267 238.5 Q234 320 233 414 Q232 446 235.5 478.5 Q239 511 246 544 L434 1443 L618 1443 L432 556 Q424 521 421 487.5 Q418 454 419 423 Q422 357 444.5 303 Q467 249 510 211 Q553 173 617.5 152.5 Q682 132 768 132 Q848 132 918.5 156.5 Q989 181 1045 227 Q1101 273 1140 340 Q1179 407 1197 491 L1400 1443 L1584 1443 L1558 1318 Q1574 1304 1596 1297.5 Q1618 1291 1643 1291 Q1674 1291 1697.5 1299 Q1721 1307 1739 1325 Q1757 1343 1769.5 1372 Q1782 1401 1791 1444 L1828 1620 L1986 1620 Z " />
<glyph glyph-name="Uhornhookabove" unicode="&#x1eec;" horiz-adv-x="1770" d="M991 1624 Q1019 1632 1043 1645 Q1067 1658 1085 1673.5 Q1103 1689 1113 1707 Q1123 1725 1123 1742 Q1123 1769 1101 1785.5 Q1079 1802 1043 1802 Q1009 1802 978 1797.5 Q947 1793 926 1785 L950 1900 Q976 1910 1010.5 1915.5 Q1045 1921 1080 1921 Q1122 1921 1157.5 1909 Q1193 1897 1219.5 1875.5 Q1246 1854 1260.5 1824.5 Q1275 1795 1275 1761 Q1275 1724 1259 1689 Q1243 1654 1213 1623.5 Q1183 1593 1140 1568.5 Q1097 1544 1043 1527 L991 1624 Z M1986 1620 L1938 1396 Q1911 1271 1833.5 1211 Q1756 1151 1646 1151 Q1613 1151 1582 1159 Q1551 1167 1529 1182 L1374 456 Q1349 340 1297 249 Q1245 158 1165.5 95 Q1086 32 978.5 -1 Q871 -34 736 -34 Q613 -34 519.5 1 Q426 36 363 96.5 Q300 157 267 238.5 Q234 320 233 414 Q232 446 235.5 478.5 Q239 511 246 544 L434 1443 L618 1443 L432 556 Q424 521 421 487.5 Q418 454 419 423 Q422 357 444.5 303 Q467 249 510 211 Q553 173 617.5 152.5 Q682 132 768 132 Q848 132 918.5 156.5 Q989 181 1045 227 Q1101 273 1140 340 Q1179 407 1197 491 L1400 1443 L1584 1443 L1558 1318 Q1574 1304 1596 1297.5 Q1618 1291 1643 1291 Q1674 1291 1697.5 1299 Q1721 1307 1739 1325 Q1757 1343 1769.5 1372 Q1782 1401 1791 1444 L1828 1620 L1986 1620 Z " />
<glyph glyph-name="Uhorntilde" unicode="&#x1eee;" horiz-adv-x="1770" d="M1479 1828 Q1469 1768 1445 1721 Q1421 1674 1386.5 1641.5 Q1352 1609 1309.5 1592 Q1267 1575 1220 1575 Q1178 1575 1145 1587 Q1112 1599 1086 1617 Q1060 1635 1038.5 1656.5 Q1017 1678 997.5 1696 Q978 1714 958.5 1726 Q939 1738 917 1738 Q828 1738 803 1620 L661 1620 Q671 1680 695 1727 Q719 1774 753.5 1806.5 Q788 1839 830.5 1856 Q873 1873 920 1873 Q962 1873 994.5 1861 Q1027 1849 1053 1831 Q1079 1813 1100.5 1791.5 Q1122 1770 1141.5 1752 Q1161 1734 1180.5 1722 Q1200 1710 1222 1710 Q1312 1710 1337 1828 L1479 1828 Z M1986 1620 L1938 1396 Q1911 1271 1833.5 1211 Q1756 1151 1646 1151 Q1613 1151 1582 1159 Q1551 1167 1529 1182 L1374 456 Q1349 340 1297 249 Q1245 158 1165.5 95 Q1086 32 978.5 -1 Q871 -34 736 -34 Q613 -34 519.5 1 Q426 36 363 96.5 Q300 157 267 238.5 Q234 320 233 414 Q232 446 235.5 478.5 Q239 511 246 544 L434 1443 L618 1443 L432 556 Q424 521 421 487.5 Q418 454 419 423 Q422 357 444.5 303 Q467 249 510 211 Q553 173 617.5 152.5 Q682 132 768 132 Q848 132 918.5 156.5 Q989 181 1045 227 Q1101 273 1140 340 Q1179 407 1197 491 L1400 1443 L1584 1443 L1558 1318 Q1574 1304 1596 1297.5 Q1618 1291 1643 1291 Q1674 1291 1697.5 1299 Q1721 1307 1739 1325 Q1757 1343 1769.5 1372 Q1782 1401 1791 1444 L1828 1620 L1986 1620 Z " />
<glyph glyph-name="V" unicode="V" horiz-adv-x="1380" d="M542 0 L316 1443 L486 1443 L672 239 L688 239 L1359 1443 L1558 1443 L720 0 L542 0 Z " />
<glyph glyph-name="Vtilde" unicode="&#x1e7c;" horiz-adv-x="1380" d="M542 0 L316 1443 L486 1443 L672 239 L688 239 L1359 1443 L1558 1443 L720 0 L542 0 Z M1144 1575 Q1102 1575 1069 1587 Q1036 1599 1010 1617 Q984 1635 962.5 1656.5 Q941 1678 921.5 1696 Q902 1714 882.5 1726 Q863 1738 841 1738 Q752 1738 727 1620 L585 1620 Q595 1680 619 1727 Q643 1774 677.5 1806.5 Q712 1839 754.5 1856 Q797 1873 844 1873 Q886 1873 918.5 1861 Q951 1849 977 1831 Q1003 1813 1024.5 1791.5 Q1046 1770 1065.5 1752 Q1085 1734 1104.5 1722 Q1124 1710 1146 1710 Q1236 1710 1261 1828 L1403 1828 Q1393 1768 1369 1721 Q1345 1674 1310.5 1641.5 Q1276 1609 1233.5 1592 Q1191 1575 1144 1575 Z " />
<glyph glyph-name="Vdotbelow" unicode="&#x1e7e;" horiz-adv-x="1380" d="M542 0 L316 1443 L486 1443 L672 239 L688 239 L1359 1443 L1558 1443 L720 0 L542 0 Z M573 -402 Q548 -402 526 -392.5 Q504 -383 487.5 -366.5 Q471 -350 461.5 -328 Q452 -306 452 -281 Q452 -256 461.5 -234 Q471 -212 487.5 -195.5 Q504 -179 526 -169.5 Q548 -160 573 -160 Q598 -160 620 -169.5 Q642 -179 658.5 -195.5 Q675 -212 684.5 -234 Q694 -256 694 -281 Q694 -306 684.5 -328 Q675 -350 658.5 -366.5 Q642 -383 620 -392.5 Q598 -402 573 -402 Z " />
<glyph glyph-name="W" unicode="W" horiz-adv-x="1982" d="M601 0 L424 0 L337 1443 L502 1443 L560 270 L572 270 L1144 1443 L1306 1443 L1400 270 L1412 270 L1953 1443 L2139 1443 L1447 0 L1270 0 L1173 1139 L1161 1139 L601 0 Z " />
<glyph glyph-name="Wgrave" unicode="&#x1e80;" horiz-adv-x="1982" d="M601 0 L424 0 L337 1443 L502 1443 L560 270 L572 270 L1144 1443 L1306 1443 L1400 270 L1412 270 L1953 1443 L2139 1443 L1447 0 L1270 0 L1173 1139 L1161 1139 L601 0 Z M1347 1575 L1163 1575 L957 1873 L1163 1873 L1347 1575 Z " />
<glyph glyph-name="Wacute" unicode="&#x1e82;" horiz-adv-x="1982" d="M601 0 L424 0 L337 1443 L502 1443 L560 270 L572 270 L1144 1443 L1306 1443 L1400 270 L1412 270 L1953 1443 L2139 1443 L1447 0 L1270 0 L1173 1139 L1161 1139 L601 0 Z M1548 1873 L1774 1873 L1379 1575 L1175 1575 L1548 1873 Z " />
<glyph glyph-name="Wdotaccent" unicode="&#x1e86;" horiz-adv-x="1982" d="M601 0 L424 0 L337 1443 L502 1443 L560 270 L572 270 L1144 1443 L1306 1443 L1400 270 L1412 270 L1953 1443 L2139 1443 L1447 0 L1270 0 L1173 1139 L1161 1139 L601 0 Z M1292 1575 Q1267 1575 1245 1584.5 Q1223 1594 1206.5 1610.5 Q1190 1627 1180.5 1649 Q1171 1671 1171 1696 Q1171 1721 1180.5 1743 Q1190 1765 1206.5 1781.5 Q1223 1798 1245 1807.5 Q1267 1817 1292 1817 Q1317 1817 1339 1807.5 Q1361 1798 1377.5 1781.5 Q1394 1765 1403.5 1743 Q1413 1721 1413 1696 Q1413 1671 1403.5 1649 Q1394 1627 1377.5 1610.5 Q1361 1594 1339 1584.5 Q1317 1575 1292 1575 Z " />
<glyph glyph-name="Wdotbelow" unicode="&#x1e88;" horiz-adv-x="1982" d="M601 0 L424 0 L337 1443 L502 1443 L560 270 L572 270 L1144 1443 L1306 1443 L1400 270 L1412 270 L1953 1443 L2139 1443 L1447 0 L1270 0 L1173 1139 L1161 1139 L601 0 Z M871 -402 Q846 -402 824 -392.5 Q802 -383 785.5 -366.5 Q769 -350 759.5 -328 Q750 -306 750 -281 Q750 -256 759.5 -234 Q769 -212 785.5 -195.5 Q802 -179 824 -169.5 Q846 -160 871 -160 Q896 -160 918 -169.5 Q940 -179 956.5 -195.5 Q973 -212 982.5 -234 Q992 -256 992 -281 Q992 -306 982.5 -328 Q973 -350 956.5 -366.5 Q940 -383 918 -392.5 Q896 -402 871 -402 Z " />
<glyph glyph-name="Wdieresis" unicode="&#x1e84;" horiz-adv-x="1982" d="M601 0 L424 0 L337 1443 L502 1443 L560 270 L572 270 L1144 1443 L1306 1443 L1400 270 L1412 270 L1953 1443 L2139 1443 L1447 0 L1270 0 L1173 1139 L1161 1139 L601 0 Z M1089 1575 Q1064 1575 1042 1584.5 Q1020 1594 1003.5 1610.5 Q987 1627 977.5 1649 Q968 1671 968 1696 Q968 1721 977.5 1743 Q987 1765 1003.5 1781.5 Q1020 1798 1042 1807.5 Q1064 1817 1089 1817 Q1114 1817 1136 1807.5 Q1158 1798 1174.5 1781.5 Q1191 1765 1200.5 1743 Q1210 1721 1210 1696 Q1210 1671 1200.5 1649 Q1191 1627 1174.5 1610.5 Q1158 1594 1136 1584.5 Q1114 1575 1089 1575 Z M1493 1575 Q1468 1575 1446 1584.5 Q1424 1594 1407.5 1610.5 Q1391 1627 1381.5 1649 Q1372 1671 1372 1696 Q1372 1721 1381.5 1743 Q1391 1765 1407.5 1781.5 Q1424 1798 1446 1807.5 Q1468 1817 1493 1817 Q1518 1817 1540 1807.5 Q1562 1798 1578.5 1781.5 Q1595 1765 1604.5 1743 Q1614 1721 1614 1696 Q1614 1671 1604.5 1649 Q1595 1627 1578.5 1610.5 Q1562 1594 1540 1584.5 Q1518 1575 1493 1575 Z " />
<glyph glyph-name="Wcircumflex" unicode="&#x174;" horiz-adv-x="1982" d="M601 0 L424 0 L337 1443 L502 1443 L560 270 L572 270 L1144 1443 L1306 1443 L1400 270 L1412 270 L1953 1443 L2139 1443 L1447 0 L1270 0 L1173 1139 L1161 1139 L601 0 Z M1602 1575 L1417 1575 L1312 1761 L1296 1761 L1113 1575 L906 1575 L1216 1873 L1418 1873 L1602 1575 Z " />
<glyph glyph-name="X" unicode="X" horiz-adv-x="1390" d="M686 752 L363 1443 L569 1443 L818 869 L834 869 L1342 1443 L1547 1443 L898 716 L1230 0 L1036 0 L768 586 L752 586 L235 0 L31 0 L686 752 Z " />
<glyph glyph-name="Xdotaccent" unicode="&#x1e8a;" horiz-adv-x="1390" d="M686 752 L363 1443 L569 1443 L818 869 L834 869 L1342 1443 L1547 1443 L898 716 L1230 0 L1036 0 L768 586 L752 586 L235 0 L31 0 L686 752 Z M996 1575 Q971 1575 949 1584.5 Q927 1594 910.5 1610.5 Q894 1627 884.5 1649 Q875 1671 875 1696 Q875 1721 884.5 1743 Q894 1765 910.5 1781.5 Q927 1798 949 1807.5 Q971 1817 996 1817 Q1021 1817 1043 1807.5 Q1065 1798 1081.5 1781.5 Q1098 1765 1107.5 1743 Q1117 1721 1117 1696 Q1117 1671 1107.5 1649 Q1098 1627 1081.5 1610.5 Q1065 1594 1043 1584.5 Q1021 1575 996 1575 Z " />
<glyph glyph-name="Xdieresis" unicode="&#x1e8c;" horiz-adv-x="1390" d="M686 752 L363 1443 L569 1443 L818 869 L834 869 L1342 1443 L1547 1443 L898 716 L1230 0 L1036 0 L768 586 L752 586 L235 0 L31 0 L686 752 Z M793 1575 Q768 1575 746 1584.5 Q724 1594 707.5 1610.5 Q691 1627 681.5 1649 Q672 1671 672 1696 Q672 1721 681.5 1743 Q691 1765 707.5 1781.5 Q724 1798 746 1807.5 Q768 1817 793 1817 Q818 1817 840 1807.5 Q862 1798 878.5 1781.5 Q895 1765 904.5 1743 Q914 1721 914 1696 Q914 1671 904.5 1649 Q895 1627 878.5 1610.5 Q862 1594 840 1584.5 Q818 1575 793 1575 Z M1197 1575 Q1172 1575 1150 1584.5 Q1128 1594 1111.5 1610.5 Q1095 1627 1085.5 1649 Q1076 1671 1076 1696 Q1076 1721 1085.5 1743 Q1095 1765 1111.5 1781.5 Q1128 1798 1150 1807.5 Q1172 1817 1197 1817 Q1222 1817 1244 1807.5 Q1266 1798 1282.5 1781.5 Q1299 1765 1308.5 1743 Q1318 1721 1318 1696 Q1318 1671 1308.5 1649 Q1299 1627 1282.5 1610.5 Q1266 1594 1244 1584.5 Q1222 1575 1197 1575 Z " />
<glyph glyph-name="Y" unicode="Y" horiz-adv-x="1344" d="M521 0 L653 621 L317 1443 L504 1443 L772 794 L788 794 L1314 1443 L1521 1443 L829 595 L705 0 L521 0 Z " />
<glyph glyph-name="Ygrave" unicode="&#x1ef2;" horiz-adv-x="1344" d="M521 0 L653 621 L317 1443 L504 1443 L772 794 L788 794 L1314 1443 L1521 1443 L829 595 L705 0 L521 0 Z M1028 1575 L844 1575 L638 1873 L844 1873 L1028 1575 Z " />
<glyph glyph-name="Yacute" unicode="&#xdd;" horiz-adv-x="1344" d="M521 0 L653 621 L317 1443 L504 1443 L772 794 L788 794 L1314 1443 L1521 1443 L829 595 L705 0 L521 0 Z M1229 1873 L1455 1873 L1060 1575 L856 1575 L1229 1873 Z " />
<glyph glyph-name="Ydotaccent" unicode="&#x1e8e;" horiz-adv-x="1344" d="M521 0 L653 621 L317 1443 L504 1443 L772 794 L788 794 L1314 1443 L1521 1443 L829 595 L705 0 L521 0 Z M973 1575 Q948 1575 926 1584.5 Q904 1594 887.5 1610.5 Q871 1627 861.5 1649 Q852 1671 852 1696 Q852 1721 861.5 1743 Q871 1765 887.5 1781.5 Q904 1798 926 1807.5 Q948 1817 973 1817 Q998 1817 1020 1807.5 Q1042 1798 1058.5 1781.5 Q1075 1765 1084.5 1743 Q1094 1721 1094 1696 Q1094 1671 1084.5 1649 Q1075 1627 1058.5 1610.5 Q1042 1594 1020 1584.5 Q998 1575 973 1575 Z " />
<glyph glyph-name="Ydotbelow" unicode="&#x1ef4;" horiz-adv-x="1344" d="M521 0 L653 621 L317 1443 L504 1443 L772 794 L788 794 L1314 1443 L1521 1443 L829 595 L705 0 L521 0 Z M552 -402 Q527 -402 505 -392.5 Q483 -383 466.5 -366.5 Q450 -350 440.5 -328 Q431 -306 431 -281 Q431 -256 440.5 -234 Q450 -212 466.5 -195.5 Q483 -179 505 -169.5 Q527 -160 552 -160 Q577 -160 599 -169.5 Q621 -179 637.5 -195.5 Q654 -212 663.5 -234 Q673 -256 673 -281 Q673 -306 663.5 -328 Q654 -350 637.5 -366.5 Q621 -383 599 -392.5 Q577 -402 552 -402 Z " />
<glyph glyph-name="Ydieresis" unicode="&#x178;" horiz-adv-x="1344" d="M521 0 L653 621 L317 1443 L504 1443 L772 794 L788 794 L1314 1443 L1521 1443 L829 595 L705 0 L521 0 Z M770 1575 Q745 1575 723 1584.5 Q701 1594 684.5 1610.5 Q668 1627 658.5 1649 Q649 1671 649 1696 Q649 1721 658.5 1743 Q668 1765 684.5 1781.5 Q701 1798 723 1807.5 Q745 1817 770 1817 Q795 1817 817 1807.5 Q839 1798 855.5 1781.5 Q872 1765 881.5 1743 Q891 1721 891 1696 Q891 1671 881.5 1649 Q872 1627 855.5 1610.5 Q839 1594 817 1584.5 Q795 1575 770 1575 Z M1174 1575 Q1149 1575 1127 1584.5 Q1105 1594 1088.5 1610.5 Q1072 1627 1062.5 1649 Q1053 1671 1053 1696 Q1053 1721 1062.5 1743 Q1072 1765 1088.5 1781.5 Q1105 1798 1127 1807.5 Q1149 1817 1174 1817 Q1199 1817 1221 1807.5 Q1243 1798 1259.5 1781.5 Q1276 1765 1285.5 1743 Q1295 1721 1295 1696 Q1295 1671 1285.5 1649 Q1276 1627 1259.5 1610.5 Q1243 1594 1221 1584.5 Q1199 1575 1174 1575 Z " />
<glyph glyph-name="Ytilde" unicode="&#x1ef8;" horiz-adv-x="1344" d="M521 0 L653 621 L317 1443 L504 1443 L772 794 L788 794 L1314 1443 L1521 1443 L829 595 L705 0 L521 0 Z M1130 1575 Q1088 1575 1055 1587 Q1022 1599 996 1617 Q970 1635 948.5 1656.5 Q927 1678 907.5 1696 Q888 1714 868.5 1726 Q849 1738 827 1738 Q738 1738 713 1620 L571 1620 Q581 1680 605 1727 Q629 1774 663.5 1806.5 Q698 1839 740.5 1856 Q783 1873 830 1873 Q872 1873 904.5 1861 Q937 1849 963 1831 Q989 1813 1010.5 1791.5 Q1032 1770 1051.5 1752 Q1071 1734 1090.5 1722 Q1110 1710 1132 1710 Q1222 1710 1247 1828 L1389 1828 Q1379 1768 1355 1721 Q1331 1674 1296.5 1641.5 Q1262 1609 1219.5 1592 Q1177 1575 1130 1575 Z " />
<glyph glyph-name="Ycircumflex" unicode="&#x176;" horiz-adv-x="1344" d="M521 0 L653 621 L317 1443 L504 1443 L772 794 L788 794 L1314 1443 L1521 1443 L829 595 L705 0 L521 0 Z M1283 1575 L1098 1575 L993 1761 L977 1761 L794 1575 L587 1575 L897 1873 L1099 1873 L1283 1575 Z " />
<glyph glyph-name="Ymacron" unicode="&#x232;" horiz-adv-x="1344" d="M521 0 L653 621 L317 1443 L504 1443 L772 794 L788 794 L1314 1443 L1521 1443 L829 595 L705 0 L521 0 Z M619 1620 L648 1756 L1322 1756 L1293 1620 L619 1620 Z " />
<glyph glyph-name="Yhookabove" unicode="&#x1ef6;" horiz-adv-x="1344" d="M521 0 L653 621 L317 1443 L504 1443 L772 794 L788 794 L1314 1443 L1521 1443 L829 595 L705 0 L521 0 Z M860 1900 Q886 1910 920.5 1915.5 Q955 1921 990 1921 Q1032 1921 1067.5 1909 Q1103 1897 1129.5 1875.5 Q1156 1854 1170.5 1824.5 Q1185 1795 1185 1761 Q1185 1724 1169 1689 Q1153 1654 1123 1623.5 Q1093 1593 1050 1568.5 Q1007 1544 953 1527 L901 1624 Q929 1632 953 1645 Q977 1658 995 1673.5 Q1013 1689 1023 1707 Q1033 1725 1033 1742 Q1033 1769 1011 1785.5 Q989 1802 953 1802 Q919 1802 888 1797.5 Q857 1793 836 1785 L860 1900 Z " />
<glyph glyph-name="Z" unicode="Z" horiz-adv-x="1355" d="M111 128 L1159 1265 L1163 1281 L384 1281 L418 1443 L1440 1443 L1413 1315 L368 178 L365 162 L1185 162 L1151 0 L84 0 L111 128 Z " />
<glyph glyph-name="Zacute" unicode="&#x179;" horiz-adv-x="1355" d="M111 128 L1159 1265 L1163 1281 L384 1281 L418 1443 L1440 1443 L1413 1315 L368 178 L365 162 L1185 162 L1151 0 L84 0 L111 128 Z M1229 1873 L1455 1873 L1060 1575 L856 1575 L1229 1873 Z " />
<glyph glyph-name="Zcaron" unicode="&#x17d;" horiz-adv-x="1355" d="M111 128 L1159 1265 L1163 1281 L384 1281 L418 1443 L1440 1443 L1413 1315 L368 178 L365 162 L1185 162 L1151 0 L84 0 L111 128 Z M672 1873 L857 1873 L962 1687 L978 1687 L1161 1873 L1368 1873 L1058 1575 L856 1575 L672 1873 Z " />
<glyph glyph-name="Zcircumflex" unicode="&#x1e90;" horiz-adv-x="1355" d="M111 128 L1159 1265 L1163 1281 L384 1281 L418 1443 L1440 1443 L1413 1315 L368 178 L365 162 L1185 162 L1151 0 L84 0 L111 128 Z M1283 1575 L1098 1575 L993 1761 L977 1761 L794 1575 L587 1575 L897 1873 L1099 1873 L1283 1575 Z " />
<glyph glyph-name="Zlinebelow" unicode="&#x1e94;" horiz-adv-x="1355" d="M111 128 L1159 1265 L1163 1281 L384 1281 L418 1443 L1440 1443 L1413 1315 L368 178 L365 162 L1185 162 L1151 0 L84 0 L111 128 Z M198 -348 L227 -212 L901 -212 L872 -348 L198 -348 Z " />
<glyph glyph-name="Zdotbelow" unicode="&#x1e92;" horiz-adv-x="1355" d="M111 128 L1159 1265 L1163 1281 L384 1281 L418 1443 L1440 1443 L1413 1315 L368 178 L365 162 L1185 162 L1151 0 L84 0 L111 128 Z M549 -402 Q524 -402 502 -392.5 Q480 -383 463.5 -366.5 Q447 -350 437.5 -328 Q428 -306 428 -281 Q428 -256 437.5 -234 Q447 -212 463.5 -195.5 Q480 -179 502 -169.5 Q524 -160 549 -160 Q574 -160 596 -169.5 Q618 -179 634.5 -195.5 Q651 -212 660.5 -234 Q670 -256 670 -281 Q670 -306 660.5 -328 Q651 -350 634.5 -366.5 Q618 -383 596 -392.5 Q574 -402 549 -402 Z " />
<glyph glyph-name="Zdotaccent" unicode="&#x17b;" horiz-adv-x="1355" d="M111 128 L1159 1265 L1163 1281 L384 1281 L418 1443 L1440 1443 L1413 1315 L368 178 L365 162 L1185 162 L1151 0 L84 0 L111 128 Z M973 1575 Q948 1575 926 1584.5 Q904 1594 887.5 1610.5 Q871 1627 861.5 1649 Q852 1671 852 1696 Q852 1721 861.5 1743 Q871 1765 887.5 1781.5 Q904 1798 926 1807.5 Q948 1817 973 1817 Q998 1817 1020 1807.5 Q1042 1798 1058.5 1781.5 Q1075 1765 1084.5 1743 Q1094 1721 1094 1696 Q1094 1671 1084.5 1649 Q1075 1627 1058.5 1610.5 Q1042 1594 1020 1584.5 Q998 1575 973 1575 Z " />
<glyph glyph-name="AE" unicode="&#xc6;" horiz-adv-x="1966" d="M1060 1292 L605 612 L1062 612 L1207 1292 L1060 1292 Z M1030 459 L503 459 L196 0 L9 0 L967 1443 L2077 1443 L2042 1281 L1384 1281 L1284 808 L1905 808 L1871 648 L1250 648 L1146 162 L1804 162 L1770 0 L932 0 L1030 459 Z " />
<glyph glyph-name="AEmacron" unicode="&#x1e2;" horiz-adv-x="1966" d="M1060 1292 L605 612 L1062 612 L1207 1292 L1060 1292 Z M1030 459 L503 459 L196 0 L9 0 L967 1443 L2077 1443 L2042 1281 L1384 1281 L1284 808 L1905 808 L1871 648 L1250 648 L1146 162 L1804 162 L1770 0 L932 0 L1030 459 Z M1079 1620 L1108 1756 L1782 1756 L1753 1620 L1079 1620 Z " />
<glyph glyph-name="AEacute" unicode="&#x1fc;" horiz-adv-x="1966" d="M1060 1292 L605 612 L1062 612 L1207 1292 L1060 1292 Z M1030 459 L503 459 L196 0 L9 0 L967 1443 L2077 1443 L2042 1281 L1384 1281 L1284 808 L1905 808 L1871 648 L1250 648 L1146 162 L1804 162 L1770 0 L932 0 L1030 459 Z M1689 1873 L1915 1873 L1520 1575 L1316 1575 L1689 1873 Z " />
<glyph glyph-name="OE" unicode="&#x152;" horiz-adv-x="2325" d="M1374 864 Q1374 964 1344.5 1046 Q1315 1128 1261.5 1186.5 Q1208 1245 1133 1277.5 Q1058 1310 968 1310 Q845 1310 739.5 1254.5 Q634 1199 556.5 1101 Q479 1003 435 869 Q391 735 391 579 Q391 479 420.5 396.5 Q450 314 504 255.5 Q558 197 633.5 165 Q709 133 801 133 Q925 133 1030 187.5 Q1135 242 1211.5 339.5 Q1288 437 1331 571 Q1374 705 1374 864 Z M1251 140 L1235 139 Q1156 62 1043.5 14 Q931 -34 787 -34 Q661 -34 553.5 11 Q446 56 367.5 135.5 Q289 215 245 324.5 Q201 434 201 563 Q201 694 227.5 813 Q254 932 303.5 1033.5 Q353 1135 423.5 1217 Q494 1299 580.5 1357 Q667 1415 768.5 1446 Q870 1477 982 1477 Q1066 1477 1139.5 1455.5 Q1213 1434 1274 1396.5 Q1335 1359 1382 1308 Q1429 1257 1459 1197 L1476 1198 L1528 1443 L2424 1443 L2389 1281 L1678 1281 L1578 818 L2253 818 L2219 658 L1545 658 L1439 162 L2151 162 L2117 0 L1221 0 L1251 140 Z " />
<glyph glyph-name="Eth" unicode="&#xd0;" horiz-adv-x="1486" d="M723 160 Q842 160 943 208.5 Q1044 257 1118 343 Q1192 429 1234 547 Q1276 665 1276 803 Q1276 916 1245 1005.5 Q1214 1095 1155.5 1156.5 Q1097 1218 1012 1250.5 Q927 1283 819 1283 L580 1283 L483 826 L685 826 L650 663 L448 663 L341 160 L723 160 Z M833 1443 Q984 1443 1101 1399.5 Q1218 1356 1298 1274.5 Q1378 1193 1420 1076 Q1462 959 1462 812 Q1462 696 1436 590.5 Q1410 485 1362 395 Q1314 305 1246.5 232 Q1179 159 1096 107.5 Q1013 56 917 28 Q821 0 716 0 L125 0 L265 663 L64 663 L99 826 L300 826 L430 1443 L833 1443 Z " />
<glyph glyph-name="Thorn" unicode="&#xde;" horiz-adv-x="1280" d="M431 1443 L610 1443 L553 1177 L885 1177 Q970 1177 1041 1151 Q1112 1125 1163 1078 Q1214 1031 1242.5 965.5 Q1271 900 1271 821 Q1271 715 1231 628 Q1191 541 1118.5 479 Q1046 417 944 383 Q842 349 718 349 L378 349 L304 0 L124 0 L431 1443 Z M412 509 L707 509 Q796 509 866 529 Q936 549 984 587 Q1032 625 1057.5 680 Q1083 735 1083 805 Q1083 903 1018 960 Q953 1017 824 1017 L520 1017 L412 509 Z " />
<glyph glyph-name="Alphagreek" unicode="&#x391;" horiz-adv-x="1380" d="M1015 413 L436 413 L204 0 L11 0 L856 1443 L1023 1443 L1249 0 L1073 0 L1015 413 Z M522 566 L995 566 L900 1207 L884 1207 L522 566 Z " />
<glyph glyph-name="Betagreek" unicode="&#x392;" horiz-adv-x="1346" d="M123 0 L430 1443 L931 1443 Q1023 1443 1098 1420.5 Q1173 1398 1226 1356.5 Q1279 1315 1308 1256 Q1337 1197 1337 1125 Q1337 1057 1315 996.5 Q1293 936 1252 888 Q1211 840 1153.5 806 Q1096 772 1025 757 L1021 741 Q1079 731 1125 706.5 Q1171 682 1203.5 645.5 Q1236 609 1253 561.5 Q1270 514 1270 458 Q1270 358 1228.5 274 Q1187 190 1113 129 Q1039 68 937 34 Q835 0 713 0 L123 0 Z M481 821 L779 821 Q861 821 929.5 840.5 Q998 860 1047 895 Q1096 930 1123 979.5 Q1150 1029 1150 1088 Q1150 1188 1079 1236 Q1008 1284 862 1284 L579 1284 L481 821 Z M707 159 Q786 159 854.5 180.5 Q923 202 972.5 240 Q1022 278 1050.5 330 Q1079 382 1079 443 Q1079 666 783 666 L448 666 L340 159 L707 159 Z " />
<glyph glyph-name="Gammagreek" unicode="&#x393;" horiz-adv-x="1140" d="M123 0 L430 1443 L1288 1443 L1253 1281 L580 1281 L308 0 L123 0 Z " />
<glyph glyph-name="Deltagreek" unicode="&#x394;" horiz-adv-x="1394" d="M45 0 L72 126 L863 1443 L1030 1443 L1256 126 L1229 0 L45 0 Z M291 177 L288 162 L1072 162 L1075 175 L905 1221 L899 1221 L291 177 Z " />
<glyph glyph-name="Epsilongreek" unicode="&#x395;" horiz-adv-x="1220" d="M1019 0 L123 0 L430 1443 L1326 1443 L1291 1281 L580 1281 L480 818 L1155 818 L1121 658 L447 658 L341 162 L1053 162 L1019 0 Z " />
<glyph glyph-name="Zetagreek" unicode="&#x396;" horiz-adv-x="1355" d="M111 128 L1159 1265 L1163 1281 L384 1281 L418 1443 L1440 1443 L1413 1315 L368 178 L365 162 L1185 162 L1151 0 L84 0 L111 128 Z " />
<glyph glyph-name="Etagreek" unicode="&#x397;" horiz-adv-x="1522" d="M1094 0 L1234 657 L446 657 L306 0 L123 0 L430 1443 L614 1443 L481 819 L1269 819 L1402 1443 L1586 1443 L1279 0 L1094 0 Z " />
<glyph glyph-name="Thetagreek" unicode="&#x398;" horiz-adv-x="1581" d="M563 638 L598 800 L1203 800 L1168 638 L563 638 Z M760 -34 Q626 -34 522 5.5 Q418 45 346.5 120 Q275 195 237.5 304.5 Q200 414 200 554 Q200 759 258 929 Q316 1099 421 1220.5 Q526 1342 672 1409.5 Q818 1477 995 1477 Q1274 1477 1420 1324.5 Q1566 1172 1566 880 Q1566 678 1507 510 Q1448 342 1341.5 221 Q1235 100 1086.5 33 Q938 -34 760 -34 Z M1380 855 Q1380 1081 1277 1196 Q1174 1311 972 1311 Q843 1311 735.5 1257 Q628 1203 550.5 1106 Q473 1009 429.5 874.5 Q386 740 386 580 Q386 472 412.5 388.5 Q439 305 491 248 Q543 191 618 161.5 Q693 132 791 132 Q919 132 1027 186 Q1135 240 1213.5 336.5 Q1292 433 1336 565.5 Q1380 698 1380 855 Z " />
<glyph glyph-name="Iotagreek" unicode="&#x399;" horiz-adv-x="550" d="M123 0 L430 1443 L614 1443 L307 0 L123 0 Z " />
<glyph glyph-name="Kappagreek" unicode="&#x39a;" horiz-adv-x="1349" d="M123 0 L430 1443 L609 1443 L460 742 L476 742 L1248 1443 L1483 1443 L781 808 L1230 0 L1020 0 L639 697 L410 493 L303 0 L123 0 Z " />
<glyph glyph-name="Lambdagreek" unicode="&#x39b;" horiz-adv-x="1368" d="M218 0 L25 0 L850 1443 L1017 1443 L1223 0 L1047 0 L894 1207 L878 1207 L218 0 Z " />
<glyph glyph-name="Mugreek" unicode="&#x39c;" horiz-adv-x="1792" d="M123 0 L430 1443 L630 1443 L872 249 L888 249 L1634 1443 L1856 1443 L1549 0 L1377 0 L1611 1102 L1599 1102 L914 10 L762 10 L541 1102 L529 1102 L295 0 L123 0 Z " />
<glyph glyph-name="Nugreek" unicode="&#x39d;" horiz-adv-x="1520" d="M123 0 L430 1443 L607 1443 L1141 290 L1157 290 L1402 1443 L1584 1443 L1277 0 L1098 0 L565 1150 L549 1150 L305 0 L123 0 Z " />
<glyph glyph-name="Xigreek" unicode="&#x39e;" horiz-adv-x="1343" d="M1448 1443 L1413 1276 L354 1276 L389 1443 L1448 1443 Z M308 653 L344 818 L1229 818 L1193 653 L308 653 Z M1177 167 L1142 0 L83 0 L118 167 L1177 167 Z " />
<glyph glyph-name="Omicrongreek" unicode="&#x39f;" horiz-adv-x="1577" d="M786 -34 Q659 -34 551.5 11 Q444 56 366 135.5 Q288 215 244 324.5 Q200 434 200 563 Q200 694 226.5 813 Q253 932 302.5 1033.5 Q352 1135 422 1217 Q492 1299 579 1357 Q666 1415 767.5 1446 Q869 1477 981 1477 Q1107 1477 1214 1432 Q1321 1387 1398.5 1307.5 Q1476 1228 1519.5 1118.5 Q1563 1009 1563 880 Q1563 748 1536.5 628.5 Q1510 509 1461 407.5 Q1412 306 1342.5 224.5 Q1273 143 1187 85.5 Q1101 28 999.5 -3 Q898 -34 786 -34 Z M1373 864 Q1373 963 1343.5 1045.5 Q1314 1128 1260.5 1186.5 Q1207 1245 1132.5 1277.5 Q1058 1310 967 1310 Q844 1310 738 1254.5 Q632 1199 555 1100.5 Q478 1002 434 868.5 Q390 735 390 579 Q390 479 419.5 397 Q449 315 503 256.5 Q557 198 632.5 165.5 Q708 133 800 133 Q924 133 1029 187.5 Q1134 242 1210.5 339.5 Q1287 437 1330 571 Q1373 705 1373 864 Z " />
<glyph glyph-name="Pigreek" unicode="&#x3a0;" horiz-adv-x="1502" d="M1074 0 L1347 1281 L579 1281 L306 0 L123 0 L430 1443 L1566 1443 L1259 0 L1074 0 Z " />
<glyph glyph-name="Rhogreek" unicode="&#x3a1;" horiz-adv-x="1301" d="M937 1443 Q1023 1443 1098.5 1415.5 Q1174 1388 1230 1337.5 Q1286 1287 1318.5 1215 Q1351 1143 1351 1053 Q1351 927 1306.5 827 Q1262 727 1184 657.5 Q1106 588 1001 551.5 Q896 515 776 515 L416 515 L307 0 L123 0 L430 1443 L937 1443 Z M450 675 L765 675 Q854 675 927.5 699 Q1001 723 1053.5 769 Q1106 815 1134.5 882.5 Q1163 950 1163 1037 Q1163 1095 1142.5 1141 Q1122 1187 1084.5 1218.5 Q1047 1250 993.5 1266.5 Q940 1283 874 1283 L580 1283 L450 675 Z " />
<glyph glyph-name="Sigmagreek" unicode="&#x3a3;" horiz-adv-x="1355" d="M350 162 L1185 162 L1151 0 L84 0 L111 128 L652 748 L389 1309 L417 1443 L1439 1443 L1405 1281 L606 1281 L604 1274 L843 759 L836 729 L352 169 L350 162 Z " />
<glyph glyph-name="Taugreek" unicode="&#x3a4;" horiz-adv-x="1298" d="M494 0 L766 1281 L303 1281 L337 1443 L1447 1443 L1413 1281 L950 1281 L678 0 L494 0 Z " />
<glyph glyph-name="Upsilongreek" unicode="&#x3a5;" horiz-adv-x="1344" d="M521 0 L653 621 L317 1443 L504 1443 L772 794 L788 794 L1314 1443 L1521 1443 L829 595 L705 0 L521 0 Z " />
<glyph glyph-name="Phigreek" unicode="&#x3a6;" horiz-adv-x="1715" d="M723 85 Q598 97 501.5 138 Q405 179 338 246.5 Q271 314 236.5 405.5 Q202 497 202 611 Q202 771 260 905 Q318 1039 422.5 1137 Q527 1235 672.5 1291 Q818 1347 992 1351 L1023 1497 L1207 1497 L1176 1351 Q1301 1339 1398 1297.5 Q1495 1256 1561.5 1189 Q1628 1122 1662.5 1029.5 Q1697 937 1697 823 Q1697 664 1639 530 Q1581 396 1476.5 298.5 Q1372 201 1227 145 Q1082 89 908 85 L877 -58 L693 -58 L723 85 Z M957 1189 Q830 1189 725.5 1148 Q621 1107 546 1033 Q471 959 430 856.5 Q389 754 389 630 Q389 456 483.5 357.5 Q578 259 757 246 L957 1189 Z M942 247 Q1069 247 1174 287.5 Q1279 328 1353.5 401.5 Q1428 475 1469 578 Q1510 681 1510 807 Q1510 980 1415 1079 Q1320 1178 1142 1190 L942 247 Z " />
<glyph glyph-name="Chigreek" unicode="&#x3a7;" horiz-adv-x="1390" d="M686 752 L363 1443 L569 1443 L818 869 L834 869 L1342 1443 L1547 1443 L898 716 L1230 0 L1036 0 L768 586 L752 586 L235 0 L31 0 L686 752 Z " />
<glyph glyph-name="Psigreek" unicode="&#x3a8;" horiz-adv-x="1676" d="M686 0 L758 339 Q519 365 402.5 471 Q286 577 286 769 Q286 825 300 898 L414 1443 L598 1443 L485 904 Q469 831 469 768 Q469 640 552.5 577.5 Q636 515 794 505 L993 1443 L1177 1443 L978 505 Q1085 505 1166 533.5 Q1247 562 1305.5 614 Q1364 666 1401.5 740 Q1439 814 1458 904 L1572 1443 L1756 1443 L1641 898 Q1613 766 1562.5 665.5 Q1512 565 1429.5 495 Q1347 425 1228 386 Q1109 347 943 339 L871 0 L686 0 Z " />
<glyph glyph-name="Omegagreek" unicode="&#x3a9;" horiz-adv-x="1590" d="M932 204 Q1143 328 1249 498.5 Q1355 669 1355 893 Q1355 988 1326.5 1065 Q1298 1142 1244 1196.5 Q1190 1251 1112 1280.5 Q1034 1310 935 1310 Q810 1310 709.5 1266.5 Q609 1223 538.5 1142 Q468 1061 429.5 946.5 Q391 832 391 691 Q391 533 459.5 408.5 Q528 284 664 204 L620 0 L94 0 L129 162 L440 162 L444 180 Q330 265 267.5 392.5 Q205 520 205 688 Q205 863 259 1008.5 Q313 1154 412 1258 Q511 1362 650 1419.5 Q789 1477 959 1477 Q1094 1477 1202 1436 Q1310 1395 1385.5 1320.5 Q1461 1246 1501.5 1140.5 Q1542 1035 1542 906 Q1542 795 1513.5 688.5 Q1485 582 1432.5 487.5 Q1380 393 1306.5 314.5 Q1233 236 1142 180 L1138 162 L1449 162 L1414 0 L888 0 L932 204 Z " />
<glyph glyph-name="Alphatonosgreek" unicode="&#x386;" horiz-adv-x="1382" d="M1017 413 L438 413 L206 0 L13 0 L858 1443 L1025 1443 L1251 0 L1075 0 L1017 413 Z M524 566 L997 566 L902 1207 L886 1207 L524 566 Z M246 1105 L406 1443 L612 1443 L405 1105 L246 1105 Z " />
</font>
</svg>
