<?xml version="1.0" encoding="UTF-8"?>
<svg xmlns="http://www.w3.org/2000/svg" xmlns:xlink="http://www.w3.org/1999/xlink" version="1.2" >
<font id="SFNS Display Thin">
<font-face  font-family="SFNS Display" units-per-em="2048" ascent="1980" descent="-432" font-style="normal" font-weight="250" font-stretch="normal" cap-height="1443" x-height="1077" underline-position="-50" underline-thickness="50" />
<missing-glyph  horiz-adv-x="1293" d="M120 1365 L1173 1365 L1173 0 L120 0 L120 1365 Z M501 313 Q501 265 534 235.5 Q567 206 621 206 Q677 206 710 235.5 Q743 265 743 313 Q743 362 710 391.5 Q677 421 621 421 Q567 421 534 391 Q501 361 501 313 Z M508 888 Q509 948 542.5 983 Q576 1018 633 1018 Q687 1018 720 988.5 Q753 959 753 908 Q753 889 748.5 873.5 Q744 858 732.5 842.5 Q721 827 701 809.5 Q681 792 650 770 Q581 721 554 669.5 Q527 618 532 549 L533 531 L699 531 L699 546 Q699 570 703 587.5 Q707 605 718 621.5 Q729 638 750 656 Q771 674 806 699 Q842 725 867.5 750 Q893 775 909 801 Q925 827 932 855.5 Q939 884 939 917 Q939 974 918 1020 Q897 1066 858 1098.5 Q819 1131 764.5 1149 Q710 1167 643 1167 Q572 1167 514.5 1147.5 Q457 1128 417.5 1091.5 Q378 1055 357.5 1003.5 Q337 952 339 888 L508 888 Z " />
<glyph glyph-name="space" unicode="&#x20;" horiz-adv-x="406" d="" />
<glyph glyph-name="A" unicode="A" horiz-adv-x="1221" d="M935 481 L286 481 L107 0 L21 0 L571 1443 L651 1443 L1200 0 L1115 0 L935 481 Z M312 552 L910 552 L613 1340 L608 1340 L312 552 Z " />
<glyph glyph-name="Agrave" unicode="&#xc0;" horiz-adv-x="1221" d="M935 481 L286 481 L107 0 L21 0 L571 1443 L651 1443 L1200 0 L1115 0 L935 481 Z M312 552 L910 552 L613 1340 L608 1340 L312 552 Z M283 1843 L378 1843 L658 1553 L580 1553 L283 1843 Z " />
<glyph glyph-name="Aacute" unicode="&#xc1;" horiz-adv-x="1221" d="M935 481 L286 481 L107 0 L21 0 L571 1443 L651 1443 L1200 0 L1115 0 L935 481 Z M312 552 L910 552 L613 1340 L608 1340 L312 552 Z M565 1553 L844 1843 L940 1843 L643 1553 L565 1553 Z " />
<glyph glyph-name="Adieresis" unicode="&#xc4;" horiz-adv-x="1221" d="M935 481 L286 481 L107 0 L21 0 L571 1443 L651 1443 L1200 0 L1115 0 L935 481 Z M312 552 L910 552 L613 1340 L608 1340 L312 552 Z M459 1563 Q431 1563 411 1582.5 Q391 1602 391 1630 Q391 1657 411 1676.5 Q431 1696 459 1696 Q486 1696 506 1676.5 Q526 1657 526 1630 Q526 1602 506 1582.5 Q486 1563 459 1563 Z M763 1563 Q736 1563 716 1582.5 Q696 1602 696 1630 Q696 1657 716 1676.5 Q736 1696 763 1696 Q791 1696 811 1676.5 Q831 1657 831 1630 Q831 1602 811 1582.5 Q791 1563 763 1563 Z " />
<glyph glyph-name="Adieresismacron" unicode="&#x1de;" horiz-adv-x="1221" d="M935 481 L286 481 L107 0 L21 0 L571 1443 L651 1443 L1200 0 L1115 0 L935 481 Z M312 552 L910 552 L613 1340 L608 1340 L312 552 Z M462 1691 Q488 1691 506.5 1672.5 Q525 1654 525 1628 Q525 1602 506.5 1583.5 Q488 1565 462 1565 Q436 1565 417 1583.5 Q398 1602 398 1628 Q398 1654 417 1672.5 Q436 1691 462 1691 Z M901 1919 L901 1862 L321 1862 L321 1919 L901 1919 Z M760 1691 Q786 1691 805 1672.5 Q824 1654 824 1628 Q824 1602 805 1583.5 Q786 1565 760 1565 Q734 1565 715.5 1583.5 Q697 1602 697 1628 Q697 1654 715.5 1672.5 Q734 1691 760 1691 Z " />
<glyph glyph-name="Aring" unicode="&#xc5;" horiz-adv-x="1221" d="M935 481 L286 481 L107 0 L21 0 L571 1443 L651 1443 L1200 0 L1115 0 L935 481 Z M312 552 L910 552 L613 1340 L608 1340 L312 552 Z M611 1506 Q575 1506 544 1519.5 Q513 1533 489.5 1556.5 Q466 1580 452.5 1611.5 Q439 1643 439 1679 Q439 1715 452.5 1746.5 Q466 1778 489.5 1801.5 Q513 1825 544 1838.5 Q575 1852 611 1852 Q647 1852 678 1838.5 Q709 1825 732.5 1801.5 Q756 1778 769.5 1746.5 Q783 1715 783 1679 Q783 1643 769.5 1611.5 Q756 1580 732.5 1556.5 Q709 1533 678 1519.5 Q647 1506 611 1506 Z M611 1554 Q637 1554 660 1564 Q683 1574 699.5 1591 Q716 1608 725.5 1630.5 Q735 1653 735 1679 Q735 1705 725.5 1727.5 Q716 1750 699.5 1767 Q683 1784 660 1794 Q637 1804 611 1804 Q585 1804 562 1794 Q539 1784 522.5 1767 Q506 1750 496.5 1727.5 Q487 1705 487 1679 Q487 1653 496.5 1630.5 Q506 1608 522.5 1591 Q539 1574 562 1564 Q585 1554 611 1554 Z " />
<glyph glyph-name="Aringacute" unicode="&#x1fa;" horiz-adv-x="1221" d="M935 481 L286 481 L107 0 L21 0 L571 1443 L651 1443 L1200 0 L1115 0 L935 481 Z M312 552 L910 552 L613 1340 L608 1340 L312 552 Z M611 1498 Q575 1498 544 1511.5 Q513 1525 489.5 1548.5 Q466 1572 452.5 1603.5 Q439 1635 439 1671 Q439 1706 452.5 1737.5 Q466 1769 489.5 1792.5 Q513 1816 544 1830 Q575 1844 611 1844 Q647 1844 678 1830 Q709 1816 732.5 1792.5 Q756 1769 769.5 1737.5 Q783 1706 783 1671 Q783 1635 769.5 1603.5 Q756 1572 732.5 1548.5 Q709 1525 678 1511.5 Q647 1498 611 1498 Z M611 1546 Q637 1546 660 1555.5 Q683 1565 699.5 1582 Q716 1599 725.5 1622 Q735 1645 735 1671 Q735 1697 725.5 1719.5 Q716 1742 699.5 1759 Q683 1776 660 1786 Q637 1796 611 1796 Q585 1796 562 1786 Q539 1776 522.5 1759 Q506 1742 496.5 1719.5 Q487 1697 487 1671 Q487 1645 496.5 1622 Q506 1599 522.5 1582 Q539 1565 562 1555.5 Q585 1546 611 1546 Z M807 2086 L640 1917 L573 1917 L719 2086 L807 2086 Z " />
<glyph glyph-name="Atilde" unicode="&#xc3;" horiz-adv-x="1221" d="M935 481 L286 481 L107 0 L21 0 L571 1443 L651 1443 L1200 0 L1115 0 L935 481 Z M312 552 L910 552 L613 1340 L608 1340 L312 552 Z M746 1549 Q714 1549 688 1561 Q662 1573 640.5 1591.5 Q619 1610 600.5 1631 Q582 1652 563 1670.5 Q544 1689 523.5 1701 Q503 1713 478 1713 Q430 1713 408.5 1671 Q387 1629 387 1560 L327 1560 Q327 1608 336.5 1647 Q346 1686 364.5 1713.5 Q383 1741 411 1756.5 Q439 1772 477 1772 Q510 1772 536 1760 Q562 1748 584 1729.5 Q606 1711 625 1690 Q644 1669 662.5 1650.5 Q681 1632 701.5 1620 Q722 1608 746 1608 Q794 1608 814.5 1650.5 Q835 1693 835 1762 L896 1762 Q896 1715 886.5 1675.5 Q877 1636 858 1608 Q839 1580 811 1564.5 Q783 1549 746 1549 Z " />
<glyph glyph-name="Abrevegrave" unicode="&#x1eb0;" horiz-adv-x="1221" d="M935 481 L286 481 L107 0 L21 0 L571 1443 L651 1443 L1200 0 L1115 0 L935 481 Z M312 552 L910 552 L613 1340 L608 1340 L312 552 Z M882 1789 Q882 1736 862 1693.5 Q842 1651 806 1621.5 Q770 1592 720 1576 Q670 1560 611 1560 Q552 1560 502 1576 Q452 1592 416 1621.5 Q380 1651 360 1693.5 Q340 1736 340 1789 L405 1789 Q405 1752 420 1720.5 Q435 1689 462 1666 Q489 1643 527 1630 Q565 1617 611 1617 Q657 1617 695 1630 Q733 1643 760 1666 Q787 1689 802 1720.5 Q817 1752 817 1789 L882 1789 Z M606 1776 L381 1979 L473 1979 L680 1776 L606 1776 Z " />
<glyph glyph-name="Adotmacron" unicode="&#x1e0;" horiz-adv-x="1221" d="M935 481 L286 481 L107 0 L21 0 L571 1443 L651 1443 L1200 0 L1115 0 L935 481 Z M312 552 L910 552 L613 1340 L608 1340 L312 552 Z M611 1560 Q580 1560 557.5 1582 Q535 1604 535 1635 Q535 1666 557.5 1688 Q580 1710 611 1710 Q642 1710 664.5 1688 Q687 1666 687 1635 Q687 1604 664.5 1582 Q642 1560 611 1560 Z M901 1862 L321 1862 L321 1919 L901 1919 L901 1862 Z " />
<glyph glyph-name="Aringbelow" unicode="&#x1e00;" horiz-adv-x="1221" d="M935 481 L286 481 L107 0 L21 0 L571 1443 L651 1443 L1200 0 L1115 0 L935 481 Z M312 552 L910 552 L613 1340 L608 1340 L312 552 Z M611 -492 Q575 -492 544 -478.5 Q513 -465 489.5 -441.5 Q466 -418 452.5 -386.5 Q439 -355 439 -319 Q439 -283 452.5 -251.5 Q466 -220 489.5 -196.5 Q513 -173 544 -159.5 Q575 -146 611 -146 Q647 -146 678 -159.5 Q709 -173 732.5 -196.5 Q756 -220 769.5 -251.5 Q783 -283 783 -319 Q783 -355 769.5 -386.5 Q756 -418 732.5 -441.5 Q709 -465 678 -478.5 Q647 -492 611 -492 Z M611 -444 Q637 -444 660 -434 Q683 -424 699.5 -407 Q716 -390 725.5 -367.5 Q735 -345 735 -319 Q735 -293 725.5 -270.5 Q716 -248 699.5 -231 Q683 -214 660 -204 Q637 -194 611 -194 Q585 -194 562 -204 Q539 -214 522.5 -231 Q506 -248 496.5 -270.5 Q487 -293 487 -319 Q487 -345 496.5 -367.5 Q506 -390 522.5 -407 Q539 -424 562 -434 Q585 -444 611 -444 Z " />
<glyph glyph-name="Acircumflex" unicode="&#xc2;" horiz-adv-x="1221" d="M935 481 L286 481 L107 0 L21 0 L571 1443 L651 1443 L1200 0 L1115 0 L935 481 Z M312 552 L910 552 L613 1340 L608 1340 L312 552 Z M645 1843 L916 1553 L833 1553 L612 1791 L610 1791 L389 1553 L306 1553 L577 1843 L645 1843 Z " />
<glyph glyph-name="Acircumflexdotbelow" unicode="&#x1eac;" horiz-adv-x="1221" d="M935 481 L286 481 L107 0 L21 0 L571 1443 L651 1443 L1200 0 L1115 0 L935 481 Z M312 552 L910 552 L613 1340 L608 1340 L312 552 Z M611 -295 Q579 -295 556.5 -273 Q534 -251 534 -219 Q534 -187 556.5 -165 Q579 -143 611 -143 Q643 -143 665.5 -165 Q688 -187 688 -219 Q688 -251 665.5 -273 Q643 -295 611 -295 Z M645 1843 L916 1553 L833 1553 L612 1791 L610 1791 L389 1553 L306 1553 L577 1843 L645 1843 Z " />
<glyph glyph-name="Acircumflexacute" unicode="&#x1ea4;" horiz-adv-x="1221" d="M935 481 L286 481 L107 0 L21 0 L571 1443 L651 1443 L1200 0 L1115 0 L935 481 Z M312 552 L910 552 L613 1340 L608 1340 L312 552 Z M647 1768 L913 1560 L820 1560 L615 1720 L609 1720 L404 1560 L311 1560 L577 1768 L647 1768 Z M984 1979 L1075 1979 L851 1776 L777 1776 L984 1979 Z " />
<glyph glyph-name="Acircumflextilde" unicode="&#x1eaa;" horiz-adv-x="1221" d="M935 481 L286 481 L107 0 L21 0 L571 1443 L651 1443 L1200 0 L1115 0 L935 481 Z M312 552 L910 552 L613 1340 L608 1340 L312 552 Z M730 1824 Q698 1824 675 1834.5 Q652 1845 634 1861.5 Q616 1878 601 1896.5 Q586 1915 570.5 1931.5 Q555 1948 537.5 1958.5 Q520 1969 496 1969 Q449 1969 428 1935 Q407 1901 406 1843 L347 1843 Q347 1883 357 1916.5 Q367 1950 385.5 1974 Q404 1998 431.5 2011.5 Q459 2025 495 2025 Q527 2025 550.5 2014.5 Q574 2004 592.5 1987.5 Q611 1971 626 1952.5 Q641 1934 656.5 1917.5 Q672 1901 689 1890.5 Q706 1880 729 1880 Q775 1880 796 1915 Q817 1950 818 2007 L877 2007 Q877 1967 867 1933.5 Q857 1900 838.5 1875.5 Q820 1851 792.5 1837.5 Q765 1824 730 1824 Z M646 1762 L912 1560 L819 1560 L614 1715 L608 1715 L403 1560 L310 1560 L576 1762 L646 1762 Z " />
<glyph glyph-name="Acircumflexgrave" unicode="&#x1ea6;" horiz-adv-x="1221" d="M935 481 L286 481 L107 0 L21 0 L571 1443 L651 1443 L1200 0 L1115 0 L935 481 Z M312 552 L910 552 L613 1340 L608 1340 L312 552 Z M646 1768 L912 1560 L819 1560 L614 1720 L608 1720 L403 1560 L310 1560 L576 1768 L646 1768 Z M876 1776 L652 1979 L743 1979 L950 1776 L876 1776 Z " />
<glyph glyph-name="Acircumflexhookabove" unicode="&#x1ea8;" horiz-adv-x="1221" d="M935 481 L286 481 L107 0 L21 0 L571 1443 L651 1443 L1200 0 L1115 0 L935 481 Z M312 552 L910 552 L613 1340 L608 1340 L312 552 Z M647 1768 L912 1560 L819 1560 L615 1720 L609 1720 L404 1560 L311 1560 L576 1768 L647 1768 Z M734 1953 Q751 1965 778 1972 Q805 1979 833 1979 Q897 1979 937 1944.5 Q977 1910 977 1854 Q977 1810 951.5 1775 Q926 1740 881 1720 L842 1758 Q877 1774 896.5 1798 Q916 1822 916 1851 Q916 1884 891 1905 Q866 1926 825 1926 Q801 1926 774.5 1919.5 Q748 1913 734 1903 L734 1953 Z " />
<glyph glyph-name="Abreve" unicode="&#x102;" horiz-adv-x="1221" d="M935 481 L286 481 L107 0 L21 0 L571 1443 L651 1443 L1200 0 L1115 0 L935 481 Z M312 552 L910 552 L613 1340 L608 1340 L312 552 Z M403 1789 Q403 1751 418 1718 Q433 1685 460.5 1661 Q488 1637 526 1623 Q564 1609 611 1609 Q657 1609 695.5 1623 Q734 1637 761.5 1661 Q789 1685 804 1718 Q819 1751 819 1789 L880 1789 Q880 1735 860 1691.5 Q840 1648 804 1617 Q768 1586 718.5 1569.5 Q669 1553 611 1553 Q552 1553 503 1569.5 Q454 1586 418 1617 Q382 1648 362 1691.5 Q342 1735 342 1789 L403 1789 Z " />
<glyph glyph-name="Abreveacute" unicode="&#x1eae;" horiz-adv-x="1221" d="M935 481 L286 481 L107 0 L21 0 L571 1443 L651 1443 L1200 0 L1115 0 L935 481 Z M312 552 L910 552 L613 1340 L608 1340 L312 552 Z M405 1789 Q405 1752 420 1720.5 Q435 1689 462 1666 Q489 1643 527 1630 Q565 1617 611 1617 Q657 1617 695 1630 Q733 1643 760 1666 Q787 1689 802 1720.5 Q817 1752 817 1789 L882 1789 Q882 1736 862 1693.5 Q842 1651 806 1621.5 Q770 1592 720 1576 Q670 1560 611 1560 Q552 1560 502 1576 Q452 1592 416 1621.5 Q380 1651 360 1693.5 Q340 1736 340 1789 L405 1789 Z M749 1979 L841 1979 L616 1776 L542 1776 L749 1979 Z " />
<glyph glyph-name="Abrevetilde" unicode="&#x1eb4;" horiz-adv-x="1221" d="M935 481 L286 481 L107 0 L21 0 L571 1443 L651 1443 L1200 0 L1115 0 L935 481 Z M312 552 L910 552 L613 1340 L608 1340 L312 552 Z M405 1774 Q406 1740 421 1711.5 Q436 1683 463 1662 Q490 1641 527.5 1629 Q565 1617 611 1617 Q657 1617 694.5 1629 Q732 1641 759 1662 Q786 1683 801 1711.5 Q816 1740 817 1774 L880 1774 Q879 1724 859 1684.5 Q839 1645 803.5 1617.5 Q768 1590 718.5 1575 Q669 1560 611 1560 Q552 1560 503 1575 Q454 1590 418.5 1617.5 Q383 1645 363 1684.5 Q343 1724 342 1774 L405 1774 Z M729 1825 Q697 1825 674 1835.5 Q651 1846 633 1862 Q615 1878 600 1897 Q585 1916 569 1932 Q553 1948 535.5 1958.5 Q518 1969 495 1969 Q450 1969 428.5 1934 Q407 1899 406 1843 L342 1843 Q342 1882 352.5 1915.5 Q363 1949 382.5 1973.5 Q402 1998 430.5 2011.5 Q459 2025 495 2025 Q527 2025 550.5 2014.5 Q574 2004 593 1988 Q612 1972 627 1953 Q642 1934 657.5 1918 Q673 1902 690 1891.5 Q707 1881 729 1881 Q773 1881 793.5 1915.5 Q814 1950 816 2007 L880 2007 Q880 1968 870 1934.5 Q860 1901 840.5 1876.5 Q821 1852 793 1838.5 Q765 1825 729 1825 Z " />
<glyph glyph-name="Abrevehookabove" unicode="&#x1eb2;" horiz-adv-x="1221" d="M935 481 L286 481 L107 0 L21 0 L571 1443 L651 1443 L1200 0 L1115 0 L935 481 Z M312 552 L910 552 L613 1340 L608 1340 L312 552 Z M484 1994 Q500 2006 527.5 2013.5 Q555 2021 585 2021 Q652 2021 693.5 1985 Q735 1949 735 1890 Q735 1845 707 1806.5 Q679 1768 629 1746 L595 1789 Q631 1805 651.5 1831 Q672 1857 672 1887 Q672 1922 646 1943.5 Q620 1965 578 1965 Q549 1965 524.5 1957.5 Q500 1950 484 1940 L484 1994 Z M406 1774 Q407 1740 422 1711.5 Q437 1683 464 1662 Q491 1641 528 1629 Q565 1617 611 1617 Q657 1617 694.5 1629 Q732 1641 759 1662 Q786 1683 801 1711.5 Q816 1740 817 1774 L881 1774 Q880 1724 859.5 1684.5 Q839 1645 803.5 1617.5 Q768 1590 718.5 1575 Q669 1560 611 1560 Q552 1560 503.5 1575 Q455 1590 419.5 1617.5 Q384 1645 363.5 1684.5 Q343 1724 342 1774 L406 1774 Z " />
<glyph glyph-name="Abrevedotbelow" unicode="&#x1eb6;" horiz-adv-x="1221" d="M935 481 L286 481 L107 0 L21 0 L571 1443 L651 1443 L1200 0 L1115 0 L935 481 Z M312 552 L910 552 L613 1340 L608 1340 L312 552 Z M611 -295 Q579 -295 556.5 -273 Q534 -251 534 -219 Q534 -187 556.5 -165 Q579 -143 611 -143 Q643 -143 665.5 -165 Q688 -187 688 -219 Q688 -251 665.5 -273 Q643 -295 611 -295 Z M403 1789 Q403 1751 418 1718 Q433 1685 460.5 1661 Q488 1637 526 1623 Q564 1609 611 1609 Q657 1609 695.5 1623 Q734 1637 761.5 1661 Q789 1685 804 1718 Q819 1751 819 1789 L880 1789 Q880 1735 860 1691.5 Q840 1648 804 1617 Q768 1586 718.5 1569.5 Q669 1553 611 1553 Q552 1553 503 1569.5 Q454 1586 418 1617 Q382 1648 362 1691.5 Q342 1735 342 1789 L403 1789 Z " />
<glyph glyph-name="Ainvertedbreve" unicode="&#x202;" horiz-adv-x="1221" d="M935 481 L286 481 L107 0 L21 0 L571 1443 L651 1443 L1200 0 L1115 0 L935 481 Z M312 552 L910 552 L613 1340 L608 1340 L312 552 Z M342 1553 Q342 1607 362 1650.5 Q382 1694 418 1724.5 Q454 1755 503 1772 Q552 1789 611 1789 Q669 1789 718.5 1772 Q768 1755 804 1724.5 Q840 1694 860 1650.5 Q880 1607 880 1553 L819 1553 Q819 1591 804 1623.5 Q789 1656 761.5 1680 Q734 1704 695.5 1718 Q657 1732 611 1732 Q564 1732 526 1718 Q488 1704 460.5 1680 Q433 1656 418 1623.5 Q403 1591 403 1553 L342 1553 Z " />
<glyph glyph-name="Acaron" unicode="&#x1cd;" horiz-adv-x="1221" d="M935 481 L286 481 L107 0 L21 0 L571 1443 L651 1443 L1200 0 L1115 0 L935 481 Z M312 552 L910 552 L613 1340 L608 1340 L312 552 Z M306 1843 L389 1843 L610 1604 L612 1604 L833 1843 L916 1843 L645 1553 L577 1553 L306 1843 Z " />
<glyph glyph-name="Adotaccent" unicode="&#x226;" horiz-adv-x="1221" d="M935 481 L286 481 L107 0 L21 0 L571 1443 L651 1443 L1200 0 L1115 0 L935 481 Z M312 552 L910 552 L613 1340 L608 1340 L312 552 Z M611 1563 Q579 1563 556.5 1585 Q534 1607 534 1639 Q534 1671 556.5 1693 Q579 1715 611 1715 Q643 1715 665.5 1693 Q688 1671 688 1639 Q688 1607 665.5 1585 Q643 1563 611 1563 Z " />
<glyph glyph-name="Adotbelow" unicode="&#x1ea0;" horiz-adv-x="1221" d="M935 481 L286 481 L107 0 L21 0 L571 1443 L651 1443 L1200 0 L1115 0 L935 481 Z M312 552 L910 552 L613 1340 L608 1340 L312 552 Z M611 -295 Q579 -295 556.5 -273 Q534 -251 534 -219 Q534 -187 556.5 -165 Q579 -143 611 -143 Q643 -143 665.5 -165 Q688 -187 688 -219 Q688 -251 665.5 -273 Q643 -295 611 -295 Z " />
<glyph glyph-name="Ahookabove" unicode="&#x1ea2;" horiz-adv-x="1221" d="M935 481 L286 481 L107 0 L21 0 L571 1443 L651 1443 L1200 0 L1115 0 L935 481 Z M312 552 L910 552 L613 1340 L608 1340 L312 552 Z M469 1804 Q488 1815 519 1823 Q550 1831 584 1831 Q656 1831 699.5 1794 Q743 1757 743 1695 Q743 1647 713 1607.5 Q683 1568 630 1545 L596 1587 Q633 1603 655.5 1631.5 Q678 1660 678 1692 Q678 1730 649.5 1753 Q621 1776 575 1776 Q546 1776 516 1768.5 Q486 1761 469 1750 L469 1804 Z " />
<glyph glyph-name="Adblgrave" unicode="&#x200;" horiz-adv-x="1221" d="M935 481 L286 481 L107 0 L21 0 L571 1443 L651 1443 L1200 0 L1115 0 L935 481 Z M312 552 L910 552 L613 1340 L608 1340 L312 552 Z M402 1843 L495 1843 L775 1553 L700 1553 L402 1843 Z M136 1843 L228 1843 L508 1553 L433 1553 L136 1843 Z " />
<glyph glyph-name="Amacron" unicode="&#x100;" horiz-adv-x="1221" d="M935 481 L286 481 L107 0 L21 0 L571 1443 L651 1443 L1200 0 L1115 0 L935 481 Z M312 552 L910 552 L613 1340 L608 1340 L312 552 Z M901 1622 L321 1622 L321 1679 L901 1679 L901 1622 Z " />
<glyph glyph-name="Aogonek" unicode="&#x104;" horiz-adv-x="1221" d="M1160 -412 Q1116 -412 1079 -398 Q1042 -384 1015.5 -358.5 Q989 -333 974.5 -298 Q960 -263 960 -221 Q960 -87 1111 14 L935 481 L286 481 L107 0 L21 0 L571 1443 L651 1443 L1199 2 Q1035 -85 1035 -212 Q1035 -242 1045.5 -266.5 Q1056 -291 1075 -308.5 Q1094 -326 1120 -336 Q1146 -346 1178 -346 Q1182 -346 1189.5 -346 Q1197 -346 1200 -345 L1200 -409 Q1194 -411 1181 -411.5 Q1168 -412 1160 -412 Z M312 552 L910 552 L614 1336 L607 1336 L312 552 Z " />
<glyph glyph-name="B" unicode="B" horiz-adv-x="1165" d="M128 0 L128 1443 L614 1443 Q708 1443 785.5 1417.5 Q863 1392 918.5 1346 Q974 1300 1004.5 1235 Q1035 1170 1035 1092 Q1035 1027 1015 971 Q995 915 957.5 871 Q920 827 867.5 796.5 Q815 766 751 754 L751 748 Q827 740 893 711.5 Q959 683 1007.5 636.5 Q1056 590 1083.5 526.5 Q1111 463 1111 385 Q1111 296 1077.5 225 Q1044 154 981 104 Q918 54 828 27 Q738 0 625 0 L128 0 Z M207 778 L583 778 Q668 778 736.5 799.5 Q805 821 853.5 861 Q902 901 928.5 958 Q955 1015 955 1086 Q955 1151 930 1204 Q905 1257 859 1294 Q813 1331 748 1351 Q683 1371 602 1371 L207 1371 L207 778 Z M617 72 Q714 72 791 94 Q868 116 921.5 157 Q975 198 1003 256 Q1031 314 1031 387 Q1031 462 1001.5 521 Q972 580 916 621.5 Q860 663 779.5 685 Q699 707 596 707 L207 707 L207 72 L617 72 Z " />
<glyph glyph-name="Blinebelow" unicode="&#x1e06;" horiz-adv-x="1165" d="M128 0 L128 1443 L614 1443 Q708 1443 785.5 1417.5 Q863 1392 918.5 1346 Q974 1300 1004.5 1235 Q1035 1170 1035 1092 Q1035 1027 1015 971 Q995 915 957.5 871 Q920 827 867.5 796.5 Q815 766 751 754 L751 748 Q827 740 893 711.5 Q959 683 1007.5 636.5 Q1056 590 1083.5 526.5 Q1111 463 1111 385 Q1111 296 1077.5 225 Q1044 154 981 104 Q918 54 828 27 Q738 0 625 0 L128 0 Z M207 778 L583 778 Q668 778 736.5 799.5 Q805 821 853.5 861 Q902 901 928.5 958 Q955 1015 955 1086 Q955 1151 930 1204 Q905 1257 859 1294 Q813 1331 748 1351 Q683 1371 602 1371 L207 1371 L207 778 Z M617 72 Q714 72 791 94 Q868 116 921.5 157 Q975 198 1003 256 Q1031 314 1031 387 Q1031 462 1001.5 521 Q972 580 916 621.5 Q860 663 779.5 685 Q699 707 596 707 L207 707 L207 72 L617 72 Z M806 -262 L226 -262 L226 -205 L806 -205 L806 -262 Z " />
<glyph glyph-name="Bdotbelow" unicode="&#x1e04;" horiz-adv-x="1165" d="M516 -295 Q484 -295 461.5 -273 Q439 -251 439 -219 Q439 -187 461.5 -165 Q484 -143 516 -143 Q548 -143 570.5 -165 Q593 -187 593 -219 Q593 -251 570.5 -273 Q548 -295 516 -295 Z M128 0 L128 1443 L614 1443 Q708 1443 785.5 1417.5 Q863 1392 918.5 1346 Q974 1300 1004.5 1235 Q1035 1170 1035 1092 Q1035 1027 1015 971 Q995 915 957.5 871 Q920 827 867.5 796.5 Q815 766 751 754 L751 748 Q827 740 893 711.5 Q959 683 1007.5 636.5 Q1056 590 1083.5 526.5 Q1111 463 1111 385 Q1111 296 1077.5 225 Q1044 154 981 104 Q918 54 828 27 Q738 0 625 0 L128 0 Z M207 778 L583 778 Q668 778 736.5 799.5 Q805 821 853.5 861 Q902 901 928.5 958 Q955 1015 955 1086 Q955 1151 930 1204 Q905 1257 859 1294 Q813 1331 748 1351 Q683 1371 602 1371 L207 1371 L207 778 Z M617 72 Q714 72 791 94 Q868 116 921.5 157 Q975 198 1003 256 Q1031 314 1031 387 Q1031 462 1001.5 521 Q972 580 916 621.5 Q860 663 779.5 685 Q699 707 596 707 L207 707 L207 72 L617 72 Z " />
<glyph glyph-name="Bdotaccent" unicode="&#x1e02;" horiz-adv-x="1165" d="M516 1563 Q484 1563 461.5 1585 Q439 1607 439 1639 Q439 1671 461.5 1693 Q484 1715 516 1715 Q548 1715 570.5 1693 Q593 1671 593 1639 Q593 1607 570.5 1585 Q548 1563 516 1563 Z M128 0 L128 1443 L614 1443 Q708 1443 785.5 1417.5 Q863 1392 918.5 1346 Q974 1300 1004.5 1235 Q1035 1170 1035 1092 Q1035 1027 1015 971 Q995 915 957.5 871 Q920 827 867.5 796.5 Q815 766 751 754 L751 748 Q827 740 893 711.5 Q959 683 1007.5 636.5 Q1056 590 1083.5 526.5 Q1111 463 1111 385 Q1111 296 1077.5 225 Q1044 154 981 104 Q918 54 828 27 Q738 0 625 0 L128 0 Z M207 778 L583 778 Q668 778 736.5 799.5 Q805 821 853.5 861 Q902 901 928.5 958 Q955 1015 955 1086 Q955 1151 930 1204 Q905 1257 859 1294 Q813 1331 748 1351 Q683 1371 602 1371 L207 1371 L207 778 Z M617 72 Q714 72 791 94 Q868 116 921.5 157 Q975 198 1003 256 Q1031 314 1031 387 Q1031 462 1001.5 521 Q972 580 916 621.5 Q860 663 779.5 685 Q699 707 596 707 L207 707 L207 72 L617 72 Z " />
<glyph glyph-name="C" unicode="C" horiz-adv-x="1326" d="M702 -21 Q557 -21 439.5 32 Q322 85 239.5 182.5 Q157 280 112 419 Q67 558 67 730 Q67 898 111.5 1034 Q156 1170 239 1265.5 Q322 1361 439 1412.5 Q556 1464 702 1464 Q812 1464 910 1427 Q1008 1390 1084 1325.5 Q1160 1261 1209 1172.5 Q1258 1084 1269 981 L1190 981 Q1178 1068 1135.5 1143 Q1093 1218 1027.5 1272.5 Q962 1327 878.5 1358.5 Q795 1390 702 1390 Q575 1390 472.5 1344 Q370 1298 298 1212 Q226 1126 187 1004 Q148 882 148 730 Q148 574 187.5 449 Q227 324 299 236 Q371 148 473.5 100.5 Q576 53 702 53 Q797 53 881 80 Q965 107 1029.5 157.5 Q1094 208 1136 278.5 Q1178 349 1190 436 L1269 436 Q1257 333 1209.5 249 Q1162 165 1087.5 105 Q1013 45 914.5 12 Q816 -21 702 -21 Z " />
<glyph glyph-name="Cacute" unicode="&#x106;" horiz-adv-x="1326" d="M656 1554 L935 1844 L1031 1844 L734 1554 L656 1554 Z M702 -21 Q557 -21 439.5 32 Q322 85 239.5 182.5 Q157 280 112 419 Q67 558 67 730 Q67 898 111.5 1034 Q156 1170 239 1265.5 Q322 1361 439 1412.5 Q556 1464 702 1464 Q812 1464 910 1427 Q1008 1390 1084 1325.5 Q1160 1261 1209 1172.5 Q1258 1084 1269 981 L1190 981 Q1178 1068 1135.5 1143 Q1093 1218 1027.5 1272.5 Q962 1327 878.5 1358.5 Q795 1390 702 1390 Q575 1390 472.5 1344 Q370 1298 298 1212 Q226 1126 187 1004 Q148 882 148 730 Q148 574 187.5 449 Q227 324 299 236 Q371 148 473.5 100.5 Q576 53 702 53 Q797 53 881 80 Q965 107 1029.5 157.5 Q1094 208 1136 278.5 Q1178 349 1190 436 L1269 436 Q1257 333 1209.5 249 Q1162 165 1087.5 105 Q1013 45 914.5 12 Q816 -21 702 -21 Z " />
<glyph glyph-name="Ccaron" unicode="&#x10c;" horiz-adv-x="1326" d="M702 -21 Q557 -21 439.5 32 Q322 85 239.5 182.5 Q157 280 112 419 Q67 558 67 730 Q67 898 111.5 1034 Q156 1170 239 1265.5 Q322 1361 439 1412.5 Q556 1464 702 1464 Q812 1464 910 1427 Q1008 1390 1084 1325.5 Q1160 1261 1209 1172.5 Q1258 1084 1269 981 L1190 981 Q1178 1068 1135.5 1143 Q1093 1218 1027.5 1272.5 Q962 1327 878.5 1358.5 Q795 1390 702 1390 Q575 1390 472.5 1344 Q370 1298 298 1212 Q226 1126 187 1004 Q148 882 148 730 Q148 574 187.5 449 Q227 324 299 236 Q371 148 473.5 100.5 Q576 53 702 53 Q797 53 881 80 Q965 107 1029.5 157.5 Q1094 208 1136 278.5 Q1178 349 1190 436 L1269 436 Q1257 333 1209.5 249 Q1162 165 1087.5 105 Q1013 45 914.5 12 Q816 -21 702 -21 Z M397 1844 L480 1844 L701 1605 L703 1605 L924 1844 L1007 1844 L736 1554 L668 1554 L397 1844 Z " />
<glyph glyph-name="Ccircumflex" unicode="&#x108;" horiz-adv-x="1326" d="M702 -21 Q557 -21 439.5 32 Q322 85 239.5 182.5 Q157 280 112 419 Q67 558 67 730 Q67 898 111.5 1034 Q156 1170 239 1265.5 Q322 1361 439 1412.5 Q556 1464 702 1464 Q812 1464 910 1427 Q1008 1390 1084 1325.5 Q1160 1261 1209 1172.5 Q1258 1084 1269 981 L1190 981 Q1178 1068 1135.5 1143 Q1093 1218 1027.5 1272.5 Q962 1327 878.5 1358.5 Q795 1390 702 1390 Q575 1390 472.5 1344 Q370 1298 298 1212 Q226 1126 187 1004 Q148 882 148 730 Q148 574 187.5 449 Q227 324 299 236 Q371 148 473.5 100.5 Q576 53 702 53 Q797 53 881 80 Q965 107 1029.5 157.5 Q1094 208 1136 278.5 Q1178 349 1190 436 L1269 436 Q1257 333 1209.5 249 Q1162 165 1087.5 105 Q1013 45 914.5 12 Q816 -21 702 -21 Z M736 1844 L1007 1554 L924 1554 L703 1792 L701 1792 L480 1554 L397 1554 L668 1844 L736 1844 Z " />
<glyph glyph-name="Cdotaccent" unicode="&#x10a;" horiz-adv-x="1326" d="M702 1564 Q670 1564 647.5 1586 Q625 1608 625 1640 Q625 1672 647.5 1694 Q670 1716 702 1716 Q734 1716 756.5 1694 Q779 1672 779 1640 Q779 1608 756.5 1586 Q734 1564 702 1564 Z M702 -21 Q557 -21 439.5 32 Q322 85 239.5 182.5 Q157 280 112 419 Q67 558 67 730 Q67 898 111.5 1034 Q156 1170 239 1265.5 Q322 1361 439 1412.5 Q556 1464 702 1464 Q812 1464 910 1427 Q1008 1390 1084 1325.5 Q1160 1261 1209 1172.5 Q1258 1084 1269 981 L1190 981 Q1178 1068 1135.5 1143 Q1093 1218 1027.5 1272.5 Q962 1327 878.5 1358.5 Q795 1390 702 1390 Q575 1390 472.5 1344 Q370 1298 298 1212 Q226 1126 187 1004 Q148 882 148 730 Q148 574 187.5 449 Q227 324 299 236 Q371 148 473.5 100.5 Q576 53 702 53 Q797 53 881 80 Q965 107 1029.5 157.5 Q1094 208 1136 278.5 Q1178 349 1190 436 L1269 436 Q1257 333 1209.5 249 Q1162 165 1087.5 105 Q1013 45 914.5 12 Q816 -21 702 -21 Z " />
<glyph glyph-name="Ccedilla" unicode="&#xc7;" horiz-adv-x="1326" d="M1190 981 Q1178 1068 1135.5 1143 Q1093 1218 1027.5 1272.5 Q962 1327 878.5 1358.5 Q795 1390 702 1390 Q575 1390 472.5 1344 Q370 1298 298 1212 Q226 1126 187 1004 Q148 882 148 730 Q148 574 187.5 449 Q227 324 299 236 Q371 148 473.5 100.5 Q576 53 702 53 Q797 53 881 80 Q965 107 1029.5 157.5 Q1094 208 1136 278.5 Q1178 349 1190 436 L1269 436 Q1257 336 1212 253.5 Q1167 171 1096 111.5 Q1025 52 931 17.5 Q837 -17 728 -21 L678 -141 Q775 -141 830 -181.5 Q885 -222 885 -293 Q885 -331 869 -362 Q853 -393 824.5 -415.5 Q796 -438 756 -450.5 Q716 -463 668 -463 Q633 -464 598.5 -459.5 Q564 -455 540 -447 L540 -391 Q561 -399 594.5 -403.5 Q628 -408 662 -408 Q696 -408 725 -399.5 Q754 -391 775.5 -376 Q797 -361 809 -340 Q821 -319 821 -295 Q821 -245 780 -219 Q739 -193 661 -193 L609 -193 L609 -150 L664 -20 Q527 -13 416.5 42.5 Q306 98 228.5 195.5 Q151 293 109 428 Q67 563 67 730 Q67 898 111.5 1034 Q156 1170 239 1265.5 Q322 1361 439 1412.5 Q556 1464 702 1464 Q812 1464 910 1427 Q1008 1390 1084 1325.5 Q1160 1261 1209 1172.5 Q1258 1084 1269 981 L1190 981 Z " />
<glyph glyph-name="Ccedillaacute" unicode="&#x1e08;" horiz-adv-x="1326" d="M734 1554 L656 1554 L935 1844 L1031 1844 L734 1554 Z M1190 981 Q1178 1068 1135.5 1143 Q1093 1218 1027.5 1272.5 Q962 1327 878.5 1358.5 Q795 1390 702 1390 Q575 1390 472.5 1344 Q370 1298 298 1212 Q226 1126 187 1004 Q148 882 148 730 Q148 574 187.5 449 Q227 324 299 236 Q371 148 473.5 100.5 Q576 53 702 53 Q797 53 881 80 Q965 107 1029.5 157.5 Q1094 208 1136 278.5 Q1178 349 1190 436 L1269 436 Q1257 336 1212 253.5 Q1167 171 1096 111.5 Q1025 52 931 17.5 Q837 -17 728 -21 L678 -141 Q775 -141 830 -181.5 Q885 -222 885 -293 Q885 -331 869 -362 Q853 -393 824.5 -415.5 Q796 -438 756 -450.5 Q716 -463 668 -463 Q633 -464 598.5 -459.5 Q564 -455 540 -447 L540 -391 Q561 -399 594.5 -403.5 Q628 -408 662 -408 Q696 -408 725 -399.5 Q754 -391 775.5 -376 Q797 -361 809 -340 Q821 -319 821 -295 Q821 -245 780 -219 Q739 -193 661 -193 L609 -193 L609 -150 L664 -20 Q527 -13 416.5 42.5 Q306 98 228.5 195.5 Q151 293 109 428 Q67 563 67 730 Q67 898 111.5 1034 Q156 1170 239 1265.5 Q322 1361 439 1412.5 Q556 1464 702 1464 Q812 1464 910 1427 Q1008 1390 1084 1325.5 Q1160 1261 1209 1172.5 Q1258 1084 1269 981 L1190 981 Z " />
<glyph glyph-name="D" unicode="D" horiz-adv-x="1332" d="M577 1443 Q741 1443 869 1394.5 Q997 1346 1085 1254 Q1173 1162 1219 1028 Q1265 894 1265 722 Q1265 550 1219 415.5 Q1173 281 1085 189 Q997 97 869 48.5 Q741 0 577 0 L128 0 L128 1443 L577 1443 Z M208 73 L573 73 Q720 73 834 116 Q948 159 1026 241.5 Q1104 324 1144.5 444.5 Q1185 565 1185 721 Q1185 877 1144.5 998 Q1104 1119 1026 1201.5 Q948 1284 834 1327 Q720 1370 573 1370 L208 1370 L208 73 Z " />
<glyph glyph-name="Ddotaccent" unicode="&#x1e0a;" horiz-adv-x="1332" d="M552 1563 Q520 1563 497.5 1585 Q475 1607 475 1639 Q475 1671 497.5 1693 Q520 1715 552 1715 Q584 1715 606.5 1693 Q629 1671 629 1639 Q629 1607 606.5 1585 Q584 1563 552 1563 Z M577 1443 Q741 1443 869 1394.5 Q997 1346 1085 1254 Q1173 1162 1219 1028 Q1265 894 1265 722 Q1265 550 1219 415.5 Q1173 281 1085 189 Q997 97 869 48.5 Q741 0 577 0 L128 0 L128 1443 L577 1443 Z M208 73 L573 73 Q720 73 834 116 Q948 159 1026 241.5 Q1104 324 1144.5 444.5 Q1185 565 1185 721 Q1185 877 1144.5 998 Q1104 1119 1026 1201.5 Q948 1284 834 1327 Q720 1370 573 1370 L208 1370 L208 73 Z " />
<glyph glyph-name="Dcircumflexbelow" unicode="&#x1e12;" horiz-adv-x="1332" d="M577 1443 Q741 1443 869 1394.5 Q997 1346 1085 1254 Q1173 1162 1219 1028 Q1265 894 1265 722 Q1265 550 1219 415.5 Q1173 281 1085 189 Q997 97 869 48.5 Q741 0 577 0 L128 0 L128 1443 L577 1443 Z M208 73 L573 73 Q720 73 834 116 Q948 159 1026 241.5 Q1104 324 1144.5 444.5 Q1185 565 1185 721 Q1185 877 1144.5 998 Q1104 1119 1026 1201.5 Q948 1284 834 1327 Q720 1370 573 1370 L208 1370 L208 73 Z M586 -147 L857 -437 L774 -437 L553 -199 L551 -199 L330 -437 L247 -437 L518 -147 L586 -147 Z " />
<glyph glyph-name="Dcommaaccent" unicode="&#x1e10;" horiz-adv-x="1332" d="M432 -493 L531 -149 L609 -149 L495 -493 L432 -493 Z M577 1443 Q741 1443 869 1394.5 Q997 1346 1085 1254 Q1173 1162 1219 1028 Q1265 894 1265 722 Q1265 550 1219 415.5 Q1173 281 1085 189 Q997 97 869 48.5 Q741 0 577 0 L128 0 L128 1443 L577 1443 Z M208 73 L573 73 Q720 73 834 116 Q948 159 1026 241.5 Q1104 324 1144.5 444.5 Q1185 565 1185 721 Q1185 877 1144.5 998 Q1104 1119 1026 1201.5 Q948 1284 834 1327 Q720 1370 573 1370 L208 1370 L208 73 Z " />
<glyph glyph-name="Dlinebelow" unicode="&#x1e0e;" horiz-adv-x="1332" d="M842 -262 L262 -262 L262 -205 L842 -205 L842 -262 Z M577 1443 Q741 1443 869 1394.5 Q997 1346 1085 1254 Q1173 1162 1219 1028 Q1265 894 1265 722 Q1265 550 1219 415.5 Q1173 281 1085 189 Q997 97 869 48.5 Q741 0 577 0 L128 0 L128 1443 L577 1443 Z M208 73 L573 73 Q720 73 834 116 Q948 159 1026 241.5 Q1104 324 1144.5 444.5 Q1185 565 1185 721 Q1185 877 1144.5 998 Q1104 1119 1026 1201.5 Q948 1284 834 1327 Q720 1370 573 1370 L208 1370 L208 73 Z " />
<glyph glyph-name="Dcaron" unicode="&#x10e;" horiz-adv-x="1332" d="M247 1843 L330 1843 L551 1604 L553 1604 L774 1843 L857 1843 L586 1553 L518 1553 L247 1843 Z M577 1443 Q741 1443 869 1394.5 Q997 1346 1085 1254 Q1173 1162 1219 1028 Q1265 894 1265 722 Q1265 550 1219 415.5 Q1173 281 1085 189 Q997 97 869 48.5 Q741 0 577 0 L128 0 L128 1443 L577 1443 Z M208 73 L573 73 Q720 73 834 116 Q948 159 1026 241.5 Q1104 324 1144.5 444.5 Q1185 565 1185 721 Q1185 877 1144.5 998 Q1104 1119 1026 1201.5 Q948 1284 834 1327 Q720 1370 573 1370 L208 1370 L208 73 Z " />
<glyph glyph-name="Ddotbelow" unicode="&#x1e0c;" horiz-adv-x="1332" d="M552 -295 Q520 -295 497.5 -273 Q475 -251 475 -219 Q475 -187 497.5 -165 Q520 -143 552 -143 Q584 -143 606.5 -165 Q629 -187 629 -219 Q629 -251 606.5 -273 Q584 -295 552 -295 Z M577 1443 Q741 1443 869 1394.5 Q997 1346 1085 1254 Q1173 1162 1219 1028 Q1265 894 1265 722 Q1265 550 1219 415.5 Q1173 281 1085 189 Q997 97 869 48.5 Q741 0 577 0 L128 0 L128 1443 L577 1443 Z M208 73 L573 73 Q720 73 834 116 Q948 159 1026 241.5 Q1104 324 1144.5 444.5 Q1185 565 1185 721 Q1185 877 1144.5 998 Q1104 1119 1026 1201.5 Q948 1284 834 1327 Q720 1370 573 1370 L208 1370 L208 73 Z " />
<glyph glyph-name="Dcroat" unicode="&#x110;" horiz-adv-x="1404" d="M624 73 Q771 73 885 116 Q999 159 1077 241.5 Q1155 324 1195.5 444.5 Q1236 565 1236 721 Q1236 877 1195.5 998 Q1155 1119 1077 1201.5 Q999 1284 885 1327 Q771 1370 624 1370 L259 1370 L259 778 L617 778 L617 705 L259 705 L259 73 L624 73 Z M628 1443 Q792 1443 920 1394.5 Q1048 1346 1136 1254 Q1224 1162 1270 1028 Q1316 894 1316 722 Q1316 550 1270 415.5 Q1224 281 1136 189 Q1048 97 920 48.5 Q792 0 628 0 L179 0 L179 705 L64 705 L64 778 L179 778 L179 1443 L628 1443 Z " />
<glyph glyph-name="E" unicode="E" horiz-adv-x="1068" d="M969 0 L128 0 L128 1443 L969 1443 L969 1370 L207 1370 L207 776 L933 776 L933 704 L207 704 L207 73 L969 73 L969 0 Z " />
<glyph glyph-name="Egrave" unicode="&#xc8;" horiz-adv-x="1068" d="M220 1843 L315 1843 L595 1553 L517 1553 L220 1843 Z M969 0 L128 0 L128 1443 L969 1443 L969 1370 L207 1370 L207 776 L933 776 L933 704 L207 704 L207 73 L969 73 L969 0 Z " />
<glyph glyph-name="Edblgrave" unicode="&#x204;" horiz-adv-x="1068" d="M339 1843 L432 1843 L712 1553 L637 1553 L339 1843 Z M73 1843 L165 1843 L445 1553 L370 1553 L73 1843 Z M969 0 L128 0 L128 1443 L969 1443 L969 1370 L207 1370 L207 776 L933 776 L933 704 L207 704 L207 73 L969 73 L969 0 Z " />
<glyph glyph-name="Eacute" unicode="&#xc9;" horiz-adv-x="1068" d="M502 1553 L781 1843 L877 1843 L580 1553 L502 1553 Z M969 0 L128 0 L128 1443 L969 1443 L969 1370 L207 1370 L207 776 L933 776 L933 704 L207 704 L207 73 L969 73 L969 0 Z " />
<glyph glyph-name="Ecircumflex" unicode="&#xca;" horiz-adv-x="1068" d="M582 1843 L853 1553 L770 1553 L549 1791 L547 1791 L326 1553 L243 1553 L514 1843 L582 1843 Z M969 0 L128 0 L128 1443 L969 1443 L969 1370 L207 1370 L207 776 L933 776 L933 704 L207 704 L207 73 L969 73 L969 0 Z " />
<glyph glyph-name="Ecircumflexhookabove" unicode="&#x1ec2;" horiz-adv-x="1068" d="M969 0 L128 0 L128 1443 L969 1443 L969 1370 L207 1370 L207 776 L933 776 L933 704 L207 704 L207 73 L969 73 L969 0 Z M584 1768 L849 1560 L756 1560 L552 1720 L546 1720 L341 1560 L248 1560 L513 1768 L584 1768 Z M671 1953 Q688 1965 715 1972 Q742 1979 770 1979 Q834 1979 874 1944.5 Q914 1910 914 1854 Q914 1810 888.5 1775 Q863 1740 818 1720 L779 1758 Q814 1774 833.5 1798 Q853 1822 853 1851 Q853 1884 828 1905 Q803 1926 762 1926 Q738 1926 711.5 1919.5 Q685 1913 671 1903 L671 1953 Z " />
<glyph glyph-name="Ecircumflexgrave" unicode="&#x1ec0;" horiz-adv-x="1068" d="M969 0 L128 0 L128 1443 L969 1443 L969 1370 L207 1370 L207 776 L933 776 L933 704 L207 704 L207 73 L969 73 L969 0 Z M583 1768 L849 1560 L756 1560 L551 1720 L545 1720 L340 1560 L247 1560 L513 1768 L583 1768 Z M813 1776 L589 1979 L680 1979 L887 1776 L813 1776 Z " />
<glyph glyph-name="Ecircumflextilde" unicode="&#x1ec4;" horiz-adv-x="1068" d="M667 1824 Q635 1824 612 1834.5 Q589 1845 571 1861.5 Q553 1878 538 1896.5 Q523 1915 507.5 1931.5 Q492 1948 474.5 1958.5 Q457 1969 433 1969 Q386 1969 365 1935 Q344 1901 343 1843 L284 1843 Q284 1883 294 1916.5 Q304 1950 322.5 1974 Q341 1998 368.5 2011.5 Q396 2025 432 2025 Q464 2025 487.5 2014.5 Q511 2004 529.5 1987.5 Q548 1971 563 1952.5 Q578 1934 593.5 1917.5 Q609 1901 626 1890.5 Q643 1880 666 1880 Q712 1880 733 1915 Q754 1950 755 2007 L814 2007 Q814 1967 804 1933.5 Q794 1900 775.5 1875.5 Q757 1851 729.5 1837.5 Q702 1824 667 1824 Z M583 1762 L849 1560 L756 1560 L551 1715 L545 1715 L340 1560 L247 1560 L513 1762 L583 1762 Z M969 0 L128 0 L128 1443 L969 1443 L969 1370 L207 1370 L207 776 L933 776 L933 704 L207 704 L207 73 L969 73 L969 0 Z " />
<glyph glyph-name="Ecircumflexdotbelow" unicode="&#x1ec6;" horiz-adv-x="1068" d="M548 -295 Q516 -295 493.5 -273 Q471 -251 471 -219 Q471 -187 493.5 -165 Q516 -143 548 -143 Q580 -143 602.5 -165 Q625 -187 625 -219 Q625 -251 602.5 -273 Q580 -295 548 -295 Z M582 1843 L853 1553 L770 1553 L549 1791 L547 1791 L326 1553 L243 1553 L514 1843 L582 1843 Z M969 0 L128 0 L128 1443 L969 1443 L969 1370 L207 1370 L207 776 L933 776 L933 704 L207 704 L207 73 L969 73 L969 0 Z " />
<glyph glyph-name="Ecircumflexacute" unicode="&#x1ebe;" horiz-adv-x="1068" d="M969 0 L128 0 L128 1443 L969 1443 L969 1370 L207 1370 L207 776 L933 776 L933 704 L207 704 L207 73 L969 73 L969 0 Z M584 1768 L850 1560 L757 1560 L552 1720 L546 1720 L341 1560 L248 1560 L514 1768 L584 1768 Z M921 1979 L1012 1979 L788 1776 L714 1776 L921 1979 Z " />
<glyph glyph-name="Edieresis" unicode="&#xcb;" horiz-adv-x="1068" d="M396 1563 Q368 1563 348 1582.5 Q328 1602 328 1630 Q328 1657 348 1676.5 Q368 1696 396 1696 Q423 1696 443 1676.5 Q463 1657 463 1630 Q463 1602 443 1582.5 Q423 1563 396 1563 Z M700 1563 Q673 1563 653 1582.5 Q633 1602 633 1630 Q633 1657 653 1676.5 Q673 1696 700 1696 Q728 1696 748 1676.5 Q768 1657 768 1630 Q768 1602 748 1582.5 Q728 1563 700 1563 Z M969 0 L128 0 L128 1443 L969 1443 L969 1370 L207 1370 L207 776 L933 776 L933 704 L207 704 L207 73 L969 73 L969 0 Z " />
<glyph glyph-name="Edotbelow" unicode="&#x1eb8;" horiz-adv-x="1068" d="M548 -295 Q516 -295 493.5 -273 Q471 -251 471 -219 Q471 -187 493.5 -165 Q516 -143 548 -143 Q580 -143 602.5 -165 Q625 -187 625 -219 Q625 -251 602.5 -273 Q580 -295 548 -295 Z M969 0 L128 0 L128 1443 L969 1443 L969 1370 L207 1370 L207 776 L933 776 L933 704 L207 704 L207 73 L969 73 L969 0 Z " />
<glyph glyph-name="Einvertedbreve" unicode="&#x206;" horiz-adv-x="1068" d="M969 0 L128 0 L128 1443 L969 1443 L969 1370 L207 1370 L207 776 L933 776 L933 704 L207 704 L207 73 L969 73 L969 0 Z M279 1553 Q279 1607 299 1650.5 Q319 1694 355 1724.5 Q391 1755 440 1772 Q489 1789 548 1789 Q606 1789 655.5 1772 Q705 1755 741 1724.5 Q777 1694 797 1650.5 Q817 1607 817 1553 L756 1553 Q756 1591 741 1623.5 Q726 1656 698.5 1680 Q671 1704 632.5 1718 Q594 1732 548 1732 Q501 1732 463 1718 Q425 1704 397.5 1680 Q370 1656 355 1623.5 Q340 1591 340 1553 L279 1553 Z " />
<glyph glyph-name="Ehookabove" unicode="&#x1eba;" horiz-adv-x="1068" d="M969 0 L128 0 L128 1443 L969 1443 L969 1370 L207 1370 L207 776 L933 776 L933 704 L207 704 L207 73 L969 73 L969 0 Z M406 1804 Q425 1815 456 1823 Q487 1831 521 1831 Q593 1831 636.5 1794 Q680 1757 680 1695 Q680 1647 650 1607.5 Q620 1568 567 1545 L533 1587 Q570 1603 592.5 1631.5 Q615 1660 615 1692 Q615 1730 586.5 1753 Q558 1776 512 1776 Q483 1776 453 1768.5 Q423 1761 406 1750 L406 1804 Z " />
<glyph glyph-name="Ecaron" unicode="&#x11a;" horiz-adv-x="1068" d="M243 1843 L326 1843 L547 1604 L549 1604 L770 1843 L853 1843 L582 1553 L514 1553 L243 1843 Z M969 0 L128 0 L128 1443 L969 1443 L969 1370 L207 1370 L207 776 L933 776 L933 704 L207 704 L207 73 L969 73 L969 0 Z " />
<glyph glyph-name="Emacron" unicode="&#x112;" horiz-adv-x="1068" d="M969 0 L128 0 L128 1443 L969 1443 L969 1370 L207 1370 L207 776 L933 776 L933 704 L207 704 L207 73 L969 73 L969 0 Z M838 1622 L258 1622 L258 1679 L838 1679 L838 1622 Z " />
<glyph glyph-name="Emacrongrave" unicode="&#x1e14;" horiz-adv-x="1068" d="M258 1679 L838 1679 L838 1622 L258 1622 L258 1679 Z M523 1776 L299 1979 L390 1979 L597 1776 L523 1776 Z M969 0 L128 0 L128 1443 L969 1443 L969 1370 L207 1370 L207 776 L933 776 L933 704 L207 704 L207 73 L969 73 L969 0 Z " />
<glyph glyph-name="Emacronacute" unicode="&#x1e16;" horiz-adv-x="1068" d="M258 1622 L258 1679 L838 1679 L838 1622 L258 1622 Z M706 1979 L797 1979 L573 1776 L499 1776 L706 1979 Z M969 0 L128 0 L128 1443 L969 1443 L969 1370 L207 1370 L207 776 L933 776 L933 704 L207 704 L207 73 L969 73 L969 0 Z " />
<glyph glyph-name="Etilde" unicode="&#x1ebc;" horiz-adv-x="1068" d="M969 0 L128 0 L128 1443 L969 1443 L969 1370 L207 1370 L207 776 L933 776 L933 704 L207 704 L207 73 L969 73 L969 0 Z M683 1549 Q650 1549 624.5 1561 Q599 1573 577.5 1591.5 Q556 1610 537.5 1631 Q519 1652 500 1670.5 Q481 1689 460.5 1701 Q440 1713 415 1713 Q367 1713 345.5 1671 Q324 1629 324 1560 L264 1560 Q264 1608 273.5 1647 Q283 1686 301.5 1713.5 Q320 1741 348 1756.5 Q376 1772 414 1772 Q447 1772 473 1760 Q499 1748 521 1729.5 Q543 1711 562 1690 Q581 1669 599.5 1650.5 Q618 1632 638.5 1620 Q659 1608 683 1608 Q731 1608 751.5 1650.5 Q772 1693 772 1762 L833 1762 Q833 1715 823.5 1675.5 Q814 1636 795 1608 Q776 1580 748 1564.5 Q720 1549 683 1549 Z " />
<glyph glyph-name="Ecircumflexbelow" unicode="&#x1e18;" horiz-adv-x="1068" d="M969 0 L128 0 L128 1443 L969 1443 L969 1370 L207 1370 L207 776 L933 776 L933 704 L207 704 L207 73 L969 73 L969 0 Z M582 -147 L853 -437 L770 -437 L549 -199 L547 -199 L326 -437 L243 -437 L514 -147 L582 -147 Z " />
<glyph glyph-name="Ebreve" unicode="&#x114;" horiz-adv-x="1068" d="M969 0 L128 0 L128 1443 L969 1443 L969 1370 L207 1370 L207 776 L933 776 L933 704 L207 704 L207 73 L969 73 L969 0 Z M340 1789 Q340 1751 355 1718 Q370 1685 397.5 1661 Q425 1637 463 1623 Q501 1609 548 1609 Q594 1609 632.5 1623 Q671 1637 698.5 1661 Q726 1685 741 1718 Q756 1751 756 1789 L817 1789 Q817 1735 797 1691.5 Q777 1648 741 1617 Q705 1586 655.5 1569.5 Q606 1553 548 1553 Q489 1553 440 1569.5 Q391 1586 355 1617 Q319 1648 299 1691.5 Q279 1735 279 1789 L340 1789 Z " />
<glyph glyph-name="Etildebelow" unicode="&#x1e1a;" horiz-adv-x="1068" d="M683 -366 Q650 -366 624.5 -354 Q599 -342 577.5 -323.5 Q556 -305 537.5 -284 Q519 -263 500 -244.5 Q481 -226 460.5 -214 Q440 -202 415 -202 Q367 -202 345.5 -244 Q324 -286 324 -355 L264 -355 Q264 -307 273.5 -268 Q283 -229 301.5 -201.5 Q320 -174 348 -158.5 Q376 -143 414 -143 Q447 -143 473 -155 Q499 -167 521 -185.5 Q543 -204 562 -225 Q581 -246 599.5 -264.5 Q618 -283 638.5 -295 Q659 -307 683 -307 Q731 -307 751.5 -264.5 Q772 -222 772 -153 L833 -153 Q833 -200 823.5 -239.5 Q814 -279 795 -307 Q776 -335 748 -350.5 Q720 -366 683 -366 Z M969 0 L128 0 L128 1443 L969 1443 L969 1370 L207 1370 L207 776 L933 776 L933 704 L207 704 L207 73 L969 73 L969 0 Z " />
<glyph glyph-name="Edotaccent" unicode="&#x116;" horiz-adv-x="1068" d="M548 1563 Q516 1563 493.5 1585 Q471 1607 471 1639 Q471 1671 493.5 1693 Q516 1715 548 1715 Q580 1715 602.5 1693 Q625 1671 625 1639 Q625 1607 602.5 1585 Q580 1563 548 1563 Z M969 0 L128 0 L128 1443 L969 1443 L969 1370 L207 1370 L207 776 L933 776 L933 704 L207 704 L207 73 L969 73 L969 0 Z " />
<glyph glyph-name="Ecedilla" unicode="&#x228;" horiz-adv-x="1068" d="M207 1370 L207 776 L933 776 L933 704 L207 704 L207 73 L969 73 L969 0 L582 0 L524 -141 Q621 -141 676 -181.5 Q731 -222 731 -293 Q731 -331 715 -362 Q699 -393 670.5 -415.5 Q642 -438 602 -450.5 Q562 -463 514 -463 Q479 -464 444.5 -459.5 Q410 -455 386 -447 L386 -391 Q407 -399 440.5 -403.5 Q474 -408 508 -408 Q542 -408 571 -399.5 Q600 -391 621.5 -376 Q643 -361 655 -340 Q667 -319 667 -295 Q667 -245 626 -219 Q585 -193 507 -193 L455 -193 L455 -150 L519 0 L128 0 L128 1443 L969 1443 L969 1370 L207 1370 Z " />
<glyph glyph-name="Ecedillabreve" unicode="&#x1e1c;" horiz-adv-x="1068" d="M817 1789 Q817 1735 797 1691.5 Q777 1648 741 1617 Q705 1586 655.5 1569.5 Q606 1553 548 1553 Q489 1553 440 1569.5 Q391 1586 355 1617 Q319 1648 299 1691.5 Q279 1735 279 1789 L340 1789 Q340 1751 355 1718 Q370 1685 397.5 1661 Q425 1637 463 1623 Q501 1609 548 1609 Q594 1609 632.5 1623 Q671 1637 698.5 1661 Q726 1685 741 1718 Q756 1751 756 1789 L817 1789 Z M207 1370 L207 776 L933 776 L933 704 L207 704 L207 73 L969 73 L969 0 L582 0 L524 -141 Q621 -141 676 -181.5 Q731 -222 731 -293 Q731 -331 715 -362 Q699 -393 670.5 -415.5 Q642 -438 602 -450.5 Q562 -463 514 -463 Q479 -464 444.5 -459.5 Q410 -455 386 -447 L386 -391 Q407 -399 440.5 -403.5 Q474 -408 508 -408 Q542 -408 571 -399.5 Q600 -391 621.5 -376 Q643 -361 655 -340 Q667 -319 667 -295 Q667 -245 626 -219 Q585 -193 507 -193 L455 -193 L455 -150 L519 0 L128 0 L128 1443 L969 1443 L969 1370 L207 1370 Z " />
<glyph glyph-name="Eogonek" unicode="&#x118;" horiz-adv-x="1068" d="M128 0 L128 1443 L969 1443 L969 1370 L207 1370 L207 776 L933 776 L933 704 L207 704 L207 73 L969 73 L969 11 Q796 -82 796 -212 Q796 -241 806.5 -265.5 Q817 -290 835.5 -308 Q854 -326 880.5 -336 Q907 -346 939 -346 Q946 -346 956 -345.5 Q966 -345 969 -344 L969 -406 Q965 -409 948.5 -410.5 Q932 -412 921 -412 Q876 -412 839 -398 Q802 -384 775.5 -359 Q749 -334 734.5 -299 Q720 -264 720 -222 Q720 -98 853 0 L128 0 Z " />
<glyph glyph-name="F" unicode="F" horiz-adv-x="1033" d="M128 0 L128 1443 L958 1443 L958 1370 L207 1370 L207 767 L898 767 L898 695 L207 695 L207 0 L128 0 Z " />
<glyph glyph-name="Fdotaccent" unicode="&#x1e1e;" horiz-adv-x="1033" d="M543 1563 Q511 1563 488.5 1585 Q466 1607 466 1639 Q466 1671 488.5 1693 Q511 1715 543 1715 Q575 1715 597.5 1693 Q620 1671 620 1639 Q620 1607 597.5 1585 Q575 1563 543 1563 Z M128 0 L128 1443 L958 1443 L958 1370 L207 1370 L207 767 L898 767 L898 695 L207 695 L207 0 L128 0 Z " />
<glyph glyph-name="G" unicode="G" horiz-adv-x="1358" d="M1281 571 Q1281 433 1241 323 Q1201 213 1126 136.5 Q1051 60 943 19.5 Q835 -21 699 -21 Q558 -21 441.5 33.5 Q325 88 242 186.5 Q159 285 113 423.5 Q67 562 67 730 Q67 896 112.5 1031.5 Q158 1167 240.5 1263 Q323 1359 439.5 1411.5 Q556 1464 699 1464 Q808 1464 903.5 1432.5 Q999 1401 1074 1343.5 Q1149 1286 1200.5 1205.5 Q1252 1125 1272 1027 L1191 1027 Q1170 1110 1124.5 1177 Q1079 1244 1015 1291.5 Q951 1339 870.5 1364.5 Q790 1390 699 1390 Q574 1390 472 1343 Q370 1296 298 1210 Q226 1124 187 1002.5 Q148 881 148 731 Q148 579 188 454 Q228 329 300.5 240 Q373 151 474.5 102 Q576 53 699 53 Q815 53 908 88.5 Q1001 124 1066.5 189.5 Q1132 255 1167 348.5 Q1202 442 1202 559 L1202 642 L699 642 L699 714 L1281 714 L1281 571 L1281 571 Z " />
<glyph glyph-name="Gacute" unicode="&#x1f4;" horiz-adv-x="1358" d="M653 1553 L932 1843 L1028 1843 L731 1553 L653 1553 Z M1281 571 Q1281 433 1241 323 Q1201 213 1126 136.5 Q1051 60 943 19.5 Q835 -21 699 -21 Q558 -21 441.5 33.5 Q325 88 242 186.5 Q159 285 113 423.5 Q67 562 67 730 Q67 896 112.5 1031.5 Q158 1167 240.5 1263 Q323 1359 439.5 1411.5 Q556 1464 699 1464 Q808 1464 903.5 1432.5 Q999 1401 1074 1343.5 Q1149 1286 1200.5 1205.5 Q1252 1125 1272 1027 L1191 1027 Q1170 1110 1124.5 1177 Q1079 1244 1015 1291.5 Q951 1339 870.5 1364.5 Q790 1390 699 1390 Q574 1390 472 1343 Q370 1296 298 1210 Q226 1124 187 1002.5 Q148 881 148 731 Q148 579 188 454 Q228 329 300.5 240 Q373 151 474.5 102 Q576 53 699 53 Q815 53 908 88.5 Q1001 124 1066.5 189.5 Q1132 255 1167 348.5 Q1202 442 1202 559 L1202 642 L699 642 L699 714 L1281 714 L1281 571 Z " />
<glyph glyph-name="Gcaron" unicode="&#x1e6;" horiz-adv-x="1358" d="M394 1843 L477 1843 L698 1604 L700 1604 L921 1843 L1004 1843 L733 1553 L665 1553 L394 1843 Z M1281 571 Q1281 433 1241 323 Q1201 213 1126 136.5 Q1051 60 943 19.5 Q835 -21 699 -21 Q558 -21 441.5 33.5 Q325 88 242 186.5 Q159 285 113 423.5 Q67 562 67 730 Q67 896 112.5 1031.5 Q158 1167 240.5 1263 Q323 1359 439.5 1411.5 Q556 1464 699 1464 Q808 1464 903.5 1432.5 Q999 1401 1074 1343.5 Q1149 1286 1200.5 1205.5 Q1252 1125 1272 1027 L1191 1027 Q1170 1110 1124.5 1177 Q1079 1244 1015 1291.5 Q951 1339 870.5 1364.5 Q790 1390 699 1390 Q574 1390 472 1343 Q370 1296 298 1210 Q226 1124 187 1002.5 Q148 881 148 731 Q148 579 188 454 Q228 329 300.5 240 Q373 151 474.5 102 Q576 53 699 53 Q815 53 908 88.5 Q1001 124 1066.5 189.5 Q1132 255 1167 348.5 Q1202 442 1202 559 L1202 642 L699 642 L699 714 L1281 714 L1281 571 Z " />
<glyph glyph-name="Gcircumflex" unicode="&#x11c;" horiz-adv-x="1358" d="M733 1843 L1004 1553 L921 1553 L700 1791 L698 1791 L477 1553 L394 1553 L665 1843 L733 1843 Z M1281 571 Q1281 433 1241 323 Q1201 213 1126 136.5 Q1051 60 943 19.5 Q835 -21 699 -21 Q558 -21 441.5 33.5 Q325 88 242 186.5 Q159 285 113 423.5 Q67 562 67 730 Q67 896 112.5 1031.5 Q158 1167 240.5 1263 Q323 1359 439.5 1411.5 Q556 1464 699 1464 Q808 1464 903.5 1432.5 Q999 1401 1074 1343.5 Q1149 1286 1200.5 1205.5 Q1252 1125 1272 1027 L1191 1027 Q1170 1110 1124.5 1177 Q1079 1244 1015 1291.5 Q951 1339 870.5 1364.5 Q790 1390 699 1390 Q574 1390 472 1343 Q370 1296 298 1210 Q226 1124 187 1002.5 Q148 881 148 731 Q148 579 188 454 Q228 329 300.5 240 Q373 151 474.5 102 Q576 53 699 53 Q815 53 908 88.5 Q1001 124 1066.5 189.5 Q1132 255 1167 348.5 Q1202 442 1202 559 L1202 642 L699 642 L699 714 L1281 714 L1281 571 Z " />
<glyph glyph-name="Gbreve" unicode="&#x11e;" horiz-adv-x="1358" d="M1281 571 Q1281 433 1241 323 Q1201 213 1126 136.5 Q1051 60 943 19.5 Q835 -21 699 -21 Q558 -21 441.5 33.5 Q325 88 242 186.5 Q159 285 113 423.5 Q67 562 67 730 Q67 896 112.5 1031.5 Q158 1167 240.5 1263 Q323 1359 439.5 1411.5 Q556 1464 699 1464 Q808 1464 903.5 1432.5 Q999 1401 1074 1343.5 Q1149 1286 1200.5 1205.5 Q1252 1125 1272 1027 L1191 1027 Q1170 1110 1124.5 1177 Q1079 1244 1015 1291.5 Q951 1339 870.5 1364.5 Q790 1390 699 1390 Q574 1390 472 1343 Q370 1296 298 1210 Q226 1124 187 1002.5 Q148 881 148 731 Q148 579 188 454 Q228 329 300.5 240 Q373 151 474.5 102 Q576 53 699 53 Q815 53 908 88.5 Q1001 124 1066.5 189.5 Q1132 255 1167 348.5 Q1202 442 1202 559 L1202 642 L699 642 L699 714 L1281 714 L1281 571 Z M491 1789 Q491 1751 506 1718 Q521 1685 548.5 1661 Q576 1637 614 1623 Q652 1609 699 1609 Q745 1609 783.5 1623 Q822 1637 849.5 1661 Q877 1685 892 1718 Q907 1751 907 1789 L968 1789 Q968 1735 948 1691.5 Q928 1648 892 1617 Q856 1586 806.5 1569.5 Q757 1553 699 1553 Q640 1553 591 1569.5 Q542 1586 506 1617 Q470 1648 450 1691.5 Q430 1735 430 1789 L491 1789 Z " />
<glyph glyph-name="Gmacron" unicode="&#x1e20;" horiz-adv-x="1358" d="M1281 571 Q1281 433 1241 323 Q1201 213 1126 136.5 Q1051 60 943 19.5 Q835 -21 699 -21 Q558 -21 441.5 33.5 Q325 88 242 186.5 Q159 285 113 423.5 Q67 562 67 730 Q67 896 112.5 1031.5 Q158 1167 240.5 1263 Q323 1359 439.5 1411.5 Q556 1464 699 1464 Q808 1464 903.5 1432.5 Q999 1401 1074 1343.5 Q1149 1286 1200.5 1205.5 Q1252 1125 1272 1027 L1191 1027 Q1170 1110 1124.5 1177 Q1079 1244 1015 1291.5 Q951 1339 870.5 1364.5 Q790 1390 699 1390 Q574 1390 472 1343 Q370 1296 298 1210 Q226 1124 187 1002.5 Q148 881 148 731 Q148 579 188 454 Q228 329 300.5 240 Q373 151 474.5 102 Q576 53 699 53 Q815 53 908 88.5 Q1001 124 1066.5 189.5 Q1132 255 1167 348.5 Q1202 442 1202 559 L1202 642 L699 642 L699 714 L1281 714 L1281 571 Z M989 1622 L409 1622 L409 1679 L989 1679 L989 1622 Z " />
<glyph glyph-name="Gdotaccent" unicode="&#x120;" horiz-adv-x="1358" d="M699 1563 Q667 1563 644.5 1585 Q622 1607 622 1639 Q622 1671 644.5 1693 Q667 1715 699 1715 Q731 1715 753.5 1693 Q776 1671 776 1639 Q776 1607 753.5 1585 Q731 1563 699 1563 Z M1281 571 Q1281 433 1241 323 Q1201 213 1126 136.5 Q1051 60 943 19.5 Q835 -21 699 -21 Q558 -21 441.5 33.5 Q325 88 242 186.5 Q159 285 113 423.5 Q67 562 67 730 Q67 896 112.5 1031.5 Q158 1167 240.5 1263 Q323 1359 439.5 1411.5 Q556 1464 699 1464 Q808 1464 903.5 1432.5 Q999 1401 1074 1343.5 Q1149 1286 1200.5 1205.5 Q1252 1125 1272 1027 L1191 1027 Q1170 1110 1124.5 1177 Q1079 1244 1015 1291.5 Q951 1339 870.5 1364.5 Q790 1390 699 1390 Q574 1390 472 1343 Q370 1296 298 1210 Q226 1124 187 1002.5 Q148 881 148 731 Q148 579 188 454 Q228 329 300.5 240 Q373 151 474.5 102 Q576 53 699 53 Q815 53 908 88.5 Q1001 124 1066.5 189.5 Q1132 255 1167 348.5 Q1202 442 1202 559 L1202 642 L699 642 L699 714 L1281 714 L1281 571 Z " />
<glyph glyph-name="Gcommaaccent" unicode="&#x122;" horiz-adv-x="1358" d="M579 -493 L678 -149 L756 -149 L642 -493 L579 -493 Z M1281 571 Q1281 433 1241 323 Q1201 213 1126 136.5 Q1051 60 943 19.5 Q835 -21 699 -21 Q558 -21 441.5 33.5 Q325 88 242 186.5 Q159 285 113 423.5 Q67 562 67 730 Q67 896 112.5 1031.5 Q158 1167 240.5 1263 Q323 1359 439.5 1411.5 Q556 1464 699 1464 Q808 1464 903.5 1432.5 Q999 1401 1074 1343.5 Q1149 1286 1200.5 1205.5 Q1252 1125 1272 1027 L1191 1027 Q1170 1110 1124.5 1177 Q1079 1244 1015 1291.5 Q951 1339 870.5 1364.5 Q790 1390 699 1390 Q574 1390 472 1343 Q370 1296 298 1210 Q226 1124 187 1002.5 Q148 881 148 731 Q148 579 188 454 Q228 329 300.5 240 Q373 151 474.5 102 Q576 53 699 53 Q815 53 908 88.5 Q1001 124 1066.5 189.5 Q1132 255 1167 348.5 Q1202 442 1202 559 L1202 642 L699 642 L699 714 L1281 714 L1281 571 Z " />
<glyph glyph-name="H" unicode="H" horiz-adv-x="1327" d="M1120 0 L1120 705 L207 705 L207 0 L128 0 L128 1443 L207 1443 L207 777 L1120 777 L1120 1443 L1199 1443 L1199 0 L1120 0 Z " />
<glyph glyph-name="Hdieresis" unicode="&#x1e26;" horiz-adv-x="1327" d="M1120 0 L1120 705 L207 705 L207 0 L128 0 L128 1443 L207 1443 L207 777 L1120 777 L1120 1443 L1199 1443 L1199 0 L1120 0 Z M511 1563 Q483 1563 463 1582.5 Q443 1602 443 1630 Q443 1657 463 1676.5 Q483 1696 511 1696 Q538 1696 558 1676.5 Q578 1657 578 1630 Q578 1602 558 1582.5 Q538 1563 511 1563 Z M815 1563 Q788 1563 768 1582.5 Q748 1602 748 1630 Q748 1657 768 1676.5 Q788 1696 815 1696 Q843 1696 863 1676.5 Q883 1657 883 1630 Q883 1602 863 1582.5 Q843 1563 815 1563 Z " />
<glyph glyph-name="Hcaron" unicode="&#x21e;" horiz-adv-x="1327" d="M1120 0 L1120 705 L207 705 L207 0 L128 0 L128 1443 L207 1443 L207 777 L1120 777 L1120 1443 L1199 1443 L1199 0 L1120 0 Z M358 1843 L441 1843 L662 1604 L664 1604 L885 1843 L968 1843 L697 1553 L629 1553 L358 1843 Z " />
<glyph glyph-name="Hcircumflex" unicode="&#x124;" horiz-adv-x="1327" d="M1120 0 L1120 705 L207 705 L207 0 L128 0 L128 1443 L207 1443 L207 777 L1120 777 L1120 1443 L1199 1443 L1199 0 L1120 0 Z M697 1843 L968 1553 L885 1553 L664 1791 L662 1791 L441 1553 L358 1553 L629 1843 L697 1843 Z " />
<glyph glyph-name="Hdotbelow" unicode="&#x1e24;" horiz-adv-x="1327" d="M1120 0 L1120 705 L207 705 L207 0 L128 0 L128 1443 L207 1443 L207 777 L1120 777 L1120 1443 L1199 1443 L1199 0 L1120 0 Z M663 -295 Q631 -295 608.5 -273 Q586 -251 586 -219 Q586 -187 608.5 -165 Q631 -143 663 -143 Q695 -143 717.5 -165 Q740 -187 740 -219 Q740 -251 717.5 -273 Q695 -295 663 -295 Z " />
<glyph glyph-name="Hdotaccent" unicode="&#x1e22;" horiz-adv-x="1327" d="M1120 0 L1120 705 L207 705 L207 0 L128 0 L128 1443 L207 1443 L207 777 L1120 777 L1120 1443 L1199 1443 L1199 0 L1120 0 Z M663 1563 Q631 1563 608.5 1585 Q586 1607 586 1639 Q586 1671 608.5 1693 Q631 1715 663 1715 Q695 1715 717.5 1693 Q740 1671 740 1639 Q740 1607 717.5 1585 Q695 1563 663 1563 Z " />
<glyph glyph-name="Hbrevebelow" unicode="&#x1e2a;" horiz-adv-x="1327" d="M455 -155 Q455 -193 470 -226 Q485 -259 512.5 -283 Q540 -307 578 -321 Q616 -335 663 -335 Q709 -335 747.5 -321 Q786 -307 813.5 -283 Q841 -259 856 -226 Q871 -193 871 -155 L932 -155 Q932 -209 912 -252.5 Q892 -296 856 -327 Q820 -358 770.5 -374.5 Q721 -391 663 -391 Q604 -391 555 -374.5 Q506 -358 470 -327 Q434 -296 414 -252.5 Q394 -209 394 -155 L455 -155 Z M1120 0 L1120 705 L207 705 L207 0 L128 0 L128 1443 L207 1443 L207 777 L1120 777 L1120 1443 L1199 1443 L1199 0 L1120 0 Z " />
<glyph glyph-name="Hcedilla" unicode="&#x1e28;" horiz-adv-x="1327" d="M1199 1443 L1199 0 L1120 0 L1120 705 L207 705 L207 0 L201 0 L143 -141 Q240 -141 295 -181.5 Q350 -222 350 -293 Q350 -331 334 -362 Q318 -393 289.5 -415.5 Q261 -438 221 -450.5 Q181 -463 133 -463 Q98 -464 63.5 -459.5 Q29 -455 5 -447 L5 -391 Q26 -399 59.5 -403.5 Q93 -408 127 -408 Q161 -408 190 -399.5 Q219 -391 240.5 -376 Q262 -361 274 -340 Q286 -319 286 -295 Q286 -245 245 -219 Q204 -193 126 -193 L74 -193 L74 -150 L138 0 L128 0 L128 1443 L207 1443 L207 777 L1120 777 L1120 1443 L1199 1443 Z " />
<glyph glyph-name="Hbar" unicode="&#x126;" horiz-adv-x="1386" d="M1150 1122 L237 1122 L237 777 L1150 777 L1150 1122 Z M1370 1122 L1229 1122 L1229 0 L1150 0 L1150 705 L237 705 L237 0 L158 0 L158 1122 L16 1122 L16 1189 L158 1189 L158 1443 L237 1443 L237 1189 L1150 1189 L1150 1443 L1229 1443 L1229 1189 L1370 1189 L1370 1122 Z " />
<glyph glyph-name="I" unicode="I" horiz-adv-x="335" d="M128 0 L128 1443 L207 1443 L207 0 L128 0 Z " />
<glyph glyph-name="Idotaccent" unicode="&#x130;" horiz-adv-x="335" d="M128 0 L128 1443 L207 1443 L207 0 L128 0 Z M167 1563 Q135 1563 112.5 1585 Q90 1607 90 1639 Q90 1671 112.5 1693 Q135 1715 167 1715 Q199 1715 221.5 1693 Q244 1671 244 1639 Q244 1607 221.5 1585 Q199 1563 167 1563 Z " />
<glyph glyph-name="Igrave" unicode="&#xcc;" horiz-adv-x="335" d="M128 0 L128 1443 L207 1443 L207 0 L128 0 Z M-161 1843 L-66 1843 L214 1553 L136 1553 L-161 1843 Z " />
<glyph glyph-name="Idblgrave" unicode="&#x208;" horiz-adv-x="335" d="M128 0 L128 1443 L207 1443 L207 0 L128 0 Z M-42 1843 L51 1843 L331 1553 L256 1553 L-42 1843 Z M-308 1843 L-216 1843 L64 1553 L-11 1553 L-308 1843 Z " />
<glyph glyph-name="Iacute" unicode="&#xcd;" horiz-adv-x="335" d="M128 0 L128 1443 L207 1443 L207 0 L128 0 Z M121 1553 L400 1843 L496 1843 L199 1553 L121 1553 Z " />
<glyph glyph-name="Icircumflex" unicode="&#xce;" horiz-adv-x="335" d="M128 0 L128 1443 L207 1443 L207 0 L128 0 Z M201 1843 L472 1553 L389 1553 L168 1791 L166 1791 L-55 1553 L-138 1553 L133 1843 L201 1843 Z " />
<glyph glyph-name="Icaron" unicode="&#x1cf;" horiz-adv-x="335" d="M128 0 L128 1443 L207 1443 L207 0 L128 0 Z M-138 1843 L-55 1843 L166 1604 L168 1604 L389 1843 L472 1843 L201 1553 L133 1553 L-138 1843 Z " />
<glyph glyph-name="Idieresis" unicode="&#xcf;" horiz-adv-x="335" d="M128 0 L128 1443 L207 1443 L207 0 L128 0 Z M15 1563 Q-13 1563 -33 1582.5 Q-53 1602 -53 1630 Q-53 1657 -33 1676.5 Q-13 1696 15 1696 Q42 1696 62 1676.5 Q82 1657 82 1630 Q82 1602 62 1582.5 Q42 1563 15 1563 Z M319 1563 Q292 1563 272 1582.5 Q252 1602 252 1630 Q252 1657 272 1676.5 Q292 1696 319 1696 Q347 1696 367 1676.5 Q387 1657 387 1630 Q387 1602 367 1582.5 Q347 1563 319 1563 Z " />
<glyph glyph-name="Idieresisacute" unicode="&#x1e2e;" horiz-adv-x="335" d="M128 0 L128 1443 L207 1443 L207 0 L128 0 Z M325 1979 L416 1979 L192 1776 L118 1776 L325 1979 Z M18 1565 Q-8 1565 -27 1583.5 Q-46 1602 -46 1628 Q-46 1654 -27 1672.5 Q-8 1691 18 1691 Q44 1691 62.5 1672.5 Q81 1654 81 1628 Q81 1602 62.5 1583.5 Q44 1565 18 1565 Z M316 1565 Q290 1565 271.5 1583.5 Q253 1602 253 1628 Q253 1654 271.5 1672.5 Q290 1691 316 1691 Q342 1691 361 1672.5 Q380 1654 380 1628 Q380 1602 361 1583.5 Q342 1565 316 1565 Z " />
<glyph glyph-name="Ibreve" unicode="&#x12c;" horiz-adv-x="335" d="M128 0 L128 1443 L207 1443 L207 0 L128 0 Z M-41 1789 Q-41 1751 -26 1718 Q-11 1685 16.5 1661 Q44 1637 82 1623 Q120 1609 167 1609 Q213 1609 251.5 1623 Q290 1637 317.5 1661 Q345 1685 360 1718 Q375 1751 375 1789 L436 1789 Q436 1735 416 1691.5 Q396 1648 360 1617 Q324 1586 274.5 1569.5 Q225 1553 167 1553 Q108 1553 59 1569.5 Q10 1586 -26 1617 Q-62 1648 -82 1691.5 Q-102 1735 -102 1789 L-41 1789 Z " />
<glyph glyph-name="Idotbelow" unicode="&#x1eca;" horiz-adv-x="335" d="M128 0 L128 1443 L207 1443 L207 0 L128 0 Z M167 -295 Q135 -295 112.5 -273 Q90 -251 90 -219 Q90 -187 112.5 -165 Q135 -143 167 -143 Q199 -143 221.5 -165 Q244 -187 244 -219 Q244 -251 221.5 -273 Q199 -295 167 -295 Z " />
<glyph glyph-name="Iinvertedbreve" unicode="&#x20a;" horiz-adv-x="335" d="M128 0 L128 1443 L207 1443 L207 0 L128 0 Z M-102 1553 Q-102 1607 -82 1650.5 Q-62 1694 -26 1724.5 Q10 1755 59 1772 Q108 1789 167 1789 Q225 1789 274.5 1772 Q324 1755 360 1724.5 Q396 1694 416 1650.5 Q436 1607 436 1553 L375 1553 Q375 1591 360 1623.5 Q345 1656 317.5 1680 Q290 1704 251.5 1718 Q213 1732 167 1732 Q120 1732 82 1718 Q44 1704 16.5 1680 Q-11 1656 -26 1623.5 Q-41 1591 -41 1553 L-102 1553 Z " />
<glyph glyph-name="Imacron" unicode="&#x12a;" horiz-adv-x="335" d="M128 0 L128 1443 L207 1443 L207 0 L128 0 Z M457 1622 L-123 1622 L-123 1679 L457 1679 L457 1622 Z " />
<glyph glyph-name="Itildebelow" unicode="&#x1e2c;" horiz-adv-x="335" d="M128 0 L128 1443 L207 1443 L207 0 L128 0 Z M302 -366 Q269 -366 243.5 -354 Q218 -342 196.5 -323.5 Q175 -305 156.5 -284 Q138 -263 119 -244.5 Q100 -226 79.5 -214 Q59 -202 34 -202 Q-14 -202 -35.5 -244 Q-57 -286 -57 -355 L-117 -355 Q-117 -307 -107.5 -268 Q-98 -229 -79.5 -201.5 Q-61 -174 -33 -158.5 Q-5 -143 33 -143 Q66 -143 92 -155 Q118 -167 140 -185.5 Q162 -204 181 -225 Q200 -246 218.5 -264.5 Q237 -283 257.5 -295 Q278 -307 302 -307 Q350 -307 370.5 -264.5 Q391 -222 391 -153 L452 -153 Q452 -200 442.5 -239.5 Q433 -279 414 -307 Q395 -335 367 -350.5 Q339 -366 302 -366 Z " />
<glyph glyph-name="Ihookabove" unicode="&#x1ec8;" horiz-adv-x="335" d="M128 0 L128 1443 L207 1443 L207 0 L128 0 Z M25 1804 Q44 1815 75 1823 Q106 1831 140 1831 Q212 1831 255.5 1794 Q299 1757 299 1695 Q299 1647 269 1607.5 Q239 1568 186 1545 L152 1587 Q189 1603 211.5 1631.5 Q234 1660 234 1692 Q234 1730 205.5 1753 Q177 1776 131 1776 Q102 1776 72 1768.5 Q42 1761 25 1750 L25 1804 Z " />
<glyph glyph-name="Itilde" unicode="&#x128;" horiz-adv-x="335" d="M128 0 L128 1443 L207 1443 L207 0 L128 0 Z M302 1549 Q269 1549 243.5 1561 Q218 1573 196.5 1591.5 Q175 1610 156.5 1631 Q138 1652 119 1670.5 Q100 1689 79.5 1701 Q59 1713 34 1713 Q-14 1713 -35.5 1671 Q-57 1629 -57 1560 L-117 1560 Q-117 1608 -107.5 1647 Q-98 1686 -79.5 1713.5 Q-61 1741 -33 1756.5 Q-5 1772 33 1772 Q66 1772 92 1760 Q118 1748 140 1729.5 Q162 1711 181 1690 Q200 1669 218.5 1650.5 Q237 1632 257.5 1620 Q278 1608 302 1608 Q350 1608 370.5 1650.5 Q391 1693 391 1762 L452 1762 Q452 1715 442.5 1675.5 Q433 1636 414 1608 Q395 1580 367 1564.5 Q339 1549 302 1549 Z " />
<glyph glyph-name="Iogonek" unicode="&#x12e;" horiz-adv-x="335" d="M167 -412 Q123 -412 86.5 -398 Q50 -384 24 -359.5 Q-2 -335 -16.5 -300 Q-31 -265 -31 -223 Q-31 -152 6.5 -94.5 Q44 -37 128 17 L128 1443 L207 1443 L207 0 Q163 -26 132 -50.5 Q101 -75 81 -100.5 Q61 -126 51.5 -153.5 Q42 -181 42 -212 Q42 -272 81.5 -309 Q121 -346 184 -346 Q188 -346 195.5 -346 Q203 -346 206 -345 L206 -409 Q200 -411 186.5 -411.5 Q173 -412 167 -412 Z " />
<glyph glyph-name="J" unicode="J" horiz-adv-x="951" d="M119 320 Q122 260 146 210.5 Q170 161 210.5 125.5 Q251 90 305.5 70 Q360 50 425 50 Q500 50 559 72.5 Q618 95 659.5 138.5 Q701 182 722.5 245 Q744 308 744 389 L744 1443 L824 1443 L824 385 Q824 291 796.5 215.5 Q769 140 718 86.5 Q667 33 593 4.5 Q519 -24 426 -24 Q343 -24 273.5 1.5 Q204 27 153 72.5 Q102 118 72.5 181.5 Q43 245 41 320 L119 320 Z " />
<glyph glyph-name="Jcircumflex" unicode="&#x134;" horiz-adv-x="951" d="M119 320 Q122 260 146 210.5 Q170 161 210.5 125.5 Q251 90 305.5 70 Q360 50 425 50 Q500 50 559 72.5 Q618 95 659.5 138.5 Q701 182 722.5 245 Q744 308 744 389 L744 1443 L824 1443 L824 385 Q824 291 796.5 215.5 Q769 140 718 86.5 Q667 33 593 4.5 Q519 -24 426 -24 Q343 -24 273.5 1.5 Q204 27 153 72.5 Q102 118 72.5 181.5 Q43 245 41 320 L119 320 Z M818 1843 L1089 1553 L1006 1553 L785 1791 L783 1791 L562 1553 L479 1553 L750 1843 L818 1843 Z " />
<glyph glyph-name="K" unicode="K" horiz-adv-x="1142" d="M128 0 L128 1443 L207 1443 L207 637 L213 637 L963 1443 L1064 1443 L470 807 L1130 0 L1029 0 L414 751 L207 528 L207 0 L128 0 Z " />
<glyph glyph-name="Kacute" unicode="&#x1e30;" horiz-adv-x="1142" d="M498 1553 L777 1843 L873 1843 L576 1553 L498 1553 Z M128 0 L128 1443 L207 1443 L207 637 L213 637 L963 1443 L1064 1443 L470 807 L1130 0 L1029 0 L414 751 L207 528 L207 0 L128 0 Z " />
<glyph glyph-name="Kcaron" unicode="&#x1e8;" horiz-adv-x="1142" d="M128 0 L128 1443 L207 1443 L207 637 L213 637 L963 1443 L1064 1443 L470 807 L1130 0 L1029 0 L414 751 L207 528 L207 0 L128 0 Z M239 1843 L322 1843 L543 1604 L545 1604 L766 1843 L849 1843 L578 1553 L510 1553 L239 1843 Z " />
<glyph glyph-name="Kdotbelow" unicode="&#x1e32;" horiz-adv-x="1142" d="M544 -295 Q512 -295 489.5 -273 Q467 -251 467 -219 Q467 -187 489.5 -165 Q512 -143 544 -143 Q576 -143 598.5 -165 Q621 -187 621 -219 Q621 -251 598.5 -273 Q576 -295 544 -295 Z M128 0 L128 1443 L207 1443 L207 637 L213 637 L963 1443 L1064 1443 L470 807 L1130 0 L1029 0 L414 751 L207 528 L207 0 L128 0 Z " />
<glyph glyph-name="Klinebelow" unicode="&#x1e34;" horiz-adv-x="1142" d="M128 0 L128 1443 L207 1443 L207 637 L213 637 L963 1443 L1064 1443 L470 807 L1130 0 L1029 0 L414 751 L207 528 L207 0 L128 0 Z M834 -262 L254 -262 L254 -205 L834 -205 L834 -262 Z " />
<glyph glyph-name="Kcommaaccent" unicode="&#x136;" horiz-adv-x="1142" d="M128 0 L128 1443 L207 1443 L207 637 L213 637 L963 1443 L1064 1443 L470 807 L1130 0 L1029 0 L414 751 L207 528 L207 0 L128 0 Z M424 -493 L523 -149 L601 -149 L487 -493 L424 -493 Z " />
<glyph glyph-name="L" unicode="L" horiz-adv-x="1024" d="M964 0 L128 0 L128 1443 L207 1443 L207 73 L964 73 L964 0 Z " />
<glyph glyph-name="Lacute" unicode="&#x139;" horiz-adv-x="1024" d="M121 1553 L400 1843 L496 1843 L199 1553 L121 1553 Z M964 0 L128 0 L128 1443 L207 1443 L207 73 L964 73 L964 0 Z " />
<glyph glyph-name="Lcircumflexbelow" unicode="&#x1e3c;" horiz-adv-x="1024" d="M964 0 L128 0 L128 1443 L207 1443 L207 73 L964 73 L964 0 Z M580 -147 L851 -437 L768 -437 L547 -199 L545 -199 L324 -437 L241 -437 L512 -147 L580 -147 Z " />
<glyph glyph-name="Ldotbelow" unicode="&#x1e36;" horiz-adv-x="1024" d="M546 -295 Q514 -295 491.5 -273 Q469 -251 469 -219 Q469 -187 491.5 -165 Q514 -143 546 -143 Q578 -143 600.5 -165 Q623 -187 623 -219 Q623 -251 600.5 -273 Q578 -295 546 -295 Z M964 0 L128 0 L128 1443 L207 1443 L207 73 L964 73 L964 0 Z " />
<glyph glyph-name="Ldotbelowmacron" unicode="&#x1e38;" horiz-adv-x="1024" d="M546 -295 Q514 -295 491.5 -273 Q469 -251 469 -219 Q469 -187 491.5 -165 Q514 -143 546 -143 Q578 -143 600.5 -165 Q623 -187 623 -219 Q623 -251 600.5 -273 Q578 -295 546 -295 Z M964 0 L128 0 L128 1443 L207 1443 L207 73 L964 73 L964 0 Z M457 1622 L-123 1622 L-123 1679 L457 1679 L457 1622 Z " />
<glyph glyph-name="Llinebelow" unicode="&#x1e3a;" horiz-adv-x="1024" d="M836 -262 L256 -262 L256 -205 L836 -205 L836 -262 Z M964 0 L128 0 L128 1443 L207 1443 L207 73 L964 73 L964 0 Z " />
<glyph glyph-name="Lcommaaccent" unicode="&#x13b;" horiz-adv-x="1024" d="M426 -493 L525 -149 L603 -149 L489 -493 L426 -493 Z M964 0 L128 0 L128 1443 L207 1443 L207 73 L964 73 L964 0 Z " />
<glyph glyph-name="Lcaron" unicode="&#x13d;" horiz-adv-x="1024" d="M525 1443 L505 1058 L449 1058 L449 1443 L525 1443 Z M964 0 L128 0 L128 1443 L207 1443 L207 73 L964 73 L964 0 Z " />
<glyph glyph-name="Lslash" unicode="&#x141;" horiz-adv-x="1052" d="M993 73 L993 0 L157 0 L157 715 L30 648 L30 717 L157 784 L157 1443 L236 1443 L236 826 L626 1032 L626 964 L236 757 L236 73 L993 73 Z " />
<glyph glyph-name="M" unicode="M" horiz-adv-x="1604" d="M1476 0 L1400 0 L1400 1279 L1396 1279 L840 3 L764 3 L208 1279 L204 1279 L204 0 L128 0 L128 1443 L216 1443 L799 103 L805 103 L1386 1443 L1476 1443 L1476 0 Z " />
<glyph glyph-name="Macute" unicode="&#x1e3e;" horiz-adv-x="1604" d="M1476 0 L1400 0 L1400 1279 L1396 1279 L840 3 L764 3 L208 1279 L204 1279 L204 0 L128 0 L128 1443 L216 1443 L799 103 L805 103 L1386 1443 L1476 1443 L1476 0 Z M757 1553 L1036 1843 L1132 1843 L835 1553 L757 1553 Z " />
<glyph glyph-name="Mdotaccent" unicode="&#x1e40;" horiz-adv-x="1604" d="M1476 0 L1400 0 L1400 1279 L1396 1279 L840 3 L764 3 L208 1279 L204 1279 L204 0 L128 0 L128 1443 L216 1443 L799 103 L805 103 L1386 1443 L1476 1443 L1476 0 Z M803 1563 Q771 1563 748.5 1585 Q726 1607 726 1639 Q726 1671 748.5 1693 Q771 1715 803 1715 Q835 1715 857.5 1693 Q880 1671 880 1639 Q880 1607 857.5 1585 Q835 1563 803 1563 Z " />
<glyph glyph-name="Mdotbelow" unicode="&#x1e42;" horiz-adv-x="1604" d="M1476 0 L1400 0 L1400 1279 L1396 1279 L840 3 L764 3 L208 1279 L204 1279 L204 0 L128 0 L128 1443 L216 1443 L799 103 L805 103 L1386 1443 L1476 1443 L1476 0 Z M803 -295 Q771 -295 748.5 -273 Q726 -251 726 -219 Q726 -187 748.5 -165 Q771 -143 803 -143 Q835 -143 857.5 -165 Q880 -187 880 -219 Q880 -251 857.5 -273 Q835 -295 803 -295 Z " />
<glyph glyph-name="N" unicode="N" horiz-adv-x="1341" d="M128 0 L128 1443 L210 1443 L1129 144 L1135 144 L1135 1443 L1214 1443 L1214 0 L1139 0 L212 1307 L206 1307 L206 0 L128 0 Z " />
<glyph glyph-name="Ngrave" unicode="&#x1f8;" horiz-adv-x="1341" d="M343 1843 L438 1843 L718 1553 L640 1553 L343 1843 Z M128 0 L128 1443 L210 1443 L1129 144 L1135 144 L1135 1443 L1214 1443 L1214 0 L1139 0 L212 1307 L206 1307 L206 0 L128 0 Z " />
<glyph glyph-name="Nacute" unicode="&#x143;" horiz-adv-x="1341" d="M625 1553 L904 1843 L1000 1843 L703 1553 L625 1553 Z M128 0 L128 1443 L210 1443 L1129 144 L1135 144 L1135 1443 L1214 1443 L1214 0 L1139 0 L212 1307 L206 1307 L206 0 L128 0 Z " />
<glyph glyph-name="Ntilde" unicode="&#xd1;" horiz-adv-x="1341" d="M806 1549 Q774 1549 748 1561 Q722 1573 700.5 1591.5 Q679 1610 660.5 1631 Q642 1652 623 1670.5 Q604 1689 583.5 1701 Q563 1713 538 1713 Q490 1713 468.5 1671 Q447 1629 447 1560 L387 1560 Q387 1608 396.5 1647 Q406 1686 424.5 1713.5 Q443 1741 471 1756.5 Q499 1772 537 1772 Q570 1772 596 1760 Q622 1748 644 1729.5 Q666 1711 685 1690 Q704 1669 722.5 1650.5 Q741 1632 761.5 1620 Q782 1608 806 1608 Q854 1608 874.5 1650.5 Q895 1693 895 1762 L956 1762 Q956 1715 946.5 1675.5 Q937 1636 918 1608 Q899 1580 871 1564.5 Q843 1549 806 1549 Z M128 0 L128 1443 L210 1443 L1129 144 L1135 144 L1135 1443 L1214 1443 L1214 0 L1139 0 L212 1307 L206 1307 L206 0 L128 0 Z " />
<glyph glyph-name="Ndotbelow" unicode="&#x1e46;" horiz-adv-x="1341" d="M671 -295 Q639 -295 616.5 -273 Q594 -251 594 -219 Q594 -187 616.5 -165 Q639 -143 671 -143 Q703 -143 725.5 -165 Q748 -187 748 -219 Q748 -251 725.5 -273 Q703 -295 671 -295 Z M128 0 L128 1443 L210 1443 L1129 144 L1135 144 L1135 1443 L1214 1443 L1214 0 L1139 0 L212 1307 L206 1307 L206 0 L128 0 Z " />
<glyph glyph-name="Ndotaccent" unicode="&#x1e44;" horiz-adv-x="1341" d="M671 1563 Q639 1563 616.5 1585 Q594 1607 594 1639 Q594 1671 616.5 1693 Q639 1715 671 1715 Q703 1715 725.5 1693 Q748 1671 748 1639 Q748 1607 725.5 1585 Q703 1563 671 1563 Z M128 0 L128 1443 L210 1443 L1129 144 L1135 144 L1135 1443 L1214 1443 L1214 0 L1139 0 L212 1307 L206 1307 L206 0 L128 0 Z " />
<glyph glyph-name="Ncaron" unicode="&#x147;" horiz-adv-x="1341" d="M366 1843 L449 1843 L670 1604 L672 1604 L893 1843 L976 1843 L705 1553 L637 1553 L366 1843 Z M128 0 L128 1443 L210 1443 L1129 144 L1135 144 L1135 1443 L1214 1443 L1214 0 L1139 0 L212 1307 L206 1307 L206 0 L128 0 Z " />
<glyph glyph-name="Ncircumflexbelow" unicode="&#x1e4a;" horiz-adv-x="1341" d="M128 0 L128 1443 L210 1443 L1129 144 L1135 144 L1135 1443 L1214 1443 L1214 0 L1139 0 L212 1307 L206 1307 L206 0 L128 0 Z M705 -147 L976 -437 L893 -437 L672 -199 L670 -199 L449 -437 L366 -437 L637 -147 L705 -147 Z " />
<glyph glyph-name="Nlinebelow" unicode="&#x1e48;" horiz-adv-x="1341" d="M961 -262 L381 -262 L381 -205 L961 -205 L961 -262 Z M128 0 L128 1443 L210 1443 L1129 144 L1135 144 L1135 1443 L1214 1443 L1214 0 L1139 0 L212 1307 L206 1307 L206 0 L128 0 Z " />
<glyph glyph-name="Ncommaaccent" unicode="&#x145;" horiz-adv-x="1341" d="M551 -493 L650 -149 L728 -149 L614 -493 L551 -493 Z M128 0 L128 1443 L210 1443 L1129 144 L1135 144 L1135 1443 L1214 1443 L1214 0 L1139 0 L212 1307 L206 1307 L206 0 L128 0 Z " />
<glyph glyph-name="O" unicode="O" horiz-adv-x="1420" d="M710 1464 Q857 1464 976 1412 Q1095 1360 1179 1263.5 Q1263 1167 1308 1029.5 Q1353 892 1353 722 Q1353 551 1308 413.5 Q1263 276 1179.5 179.5 Q1096 83 977 31 Q858 -21 710 -21 Q562 -21 443 31 Q324 83 240.5 179.5 Q157 276 112 413.5 Q67 551 67 722 Q67 892 112 1029.5 Q157 1167 241 1263.5 Q325 1360 444 1412 Q563 1464 710 1464 Z M710 1390 Q581 1390 477.5 1343 Q374 1296 300.5 1209 Q227 1122 187.5 998.5 Q148 875 148 722 Q148 569 187.5 445 Q227 321 300.5 234 Q374 147 478 100 Q582 53 710 53 Q839 53 942.5 100 Q1046 147 1119.5 234 Q1193 321 1232.5 445 Q1272 569 1272 722 Q1272 875 1232.5 998.5 Q1193 1122 1119.5 1209 Q1046 1296 942.5 1343 Q839 1390 710 1390 Z " />
<glyph glyph-name="Odieresis" unicode="&#xd6;" horiz-adv-x="1420" d="M558 1563 Q530 1563 510 1582.5 Q490 1602 490 1630 Q490 1657 510 1676.5 Q530 1696 558 1696 Q585 1696 605 1676.5 Q625 1657 625 1630 Q625 1602 605 1582.5 Q585 1563 558 1563 Z M862 1563 Q835 1563 815 1582.5 Q795 1602 795 1630 Q795 1657 815 1676.5 Q835 1696 862 1696 Q890 1696 910 1676.5 Q930 1657 930 1630 Q930 1602 910 1582.5 Q890 1563 862 1563 Z M710 1464 Q857 1464 976 1412 Q1095 1360 1179 1263.5 Q1263 1167 1308 1029.5 Q1353 892 1353 722 Q1353 551 1308 413.5 Q1263 276 1179.5 179.5 Q1096 83 977 31 Q858 -21 710 -21 Q562 -21 443 31 Q324 83 240.5 179.5 Q157 276 112 413.5 Q67 551 67 722 Q67 892 112 1029.5 Q157 1167 241 1263.5 Q325 1360 444 1412 Q563 1464 710 1464 Z M710 1390 Q581 1390 477.5 1343 Q374 1296 300.5 1209 Q227 1122 187.5 998.5 Q148 875 148 722 Q148 569 187.5 445 Q227 321 300.5 234 Q374 147 478 100 Q582 53 710 53 Q839 53 942.5 100 Q1046 147 1119.5 234 Q1193 321 1232.5 445 Q1272 569 1272 722 Q1272 875 1232.5 998.5 Q1193 1122 1119.5 1209 Q1046 1296 942.5 1343 Q839 1390 710 1390 Z " />
<glyph glyph-name="Oslash" unicode="&#xd8;" horiz-adv-x="1420" d="M352 181 Q422 118 512 85.5 Q602 53 710 53 Q839 53 942.5 100 Q1046 147 1119.5 234 Q1193 321 1232.5 445 Q1272 569 1272 722 Q1272 868 1237 985 Q1202 1102 1136 1189 L352 181 Z M1095 1236 Q1023 1311 926 1350.5 Q829 1390 710 1390 Q581 1390 477.5 1343 Q374 1296 300.5 1209 Q227 1122 187.5 998.5 Q148 875 148 722 Q148 564 189.5 439 Q231 314 308 226 L1095 1236 Z M1187 1254 Q1267 1157 1310 1023.5 Q1353 890 1353 722 Q1353 551 1308 413.5 Q1263 276 1179.5 179.5 Q1096 83 977 31 Q858 -21 710 -21 Q587 -21 485 14.5 Q383 50 303 118 L146 -84 L95 -47 L257 161 Q165 258 116 400 Q67 542 67 722 Q67 892 112 1029.5 Q157 1167 241 1263.5 Q325 1360 444 1412 Q563 1464 710 1464 Q844 1464 953 1422 Q1062 1380 1144 1300 L1288 1484 L1338 1449 L1187 1254 Z " />
<glyph glyph-name="Otilde" unicode="&#xd5;" horiz-adv-x="1420" d="M710 1464 Q857 1464 976 1412 Q1095 1360 1179 1263.5 Q1263 1167 1308 1029.5 Q1353 892 1353 722 Q1353 551 1308 413.5 Q1263 276 1179.5 179.5 Q1096 83 977 31 Q858 -21 710 -21 Q562 -21 443 31 Q324 83 240.5 179.5 Q157 276 112 413.5 Q67 551 67 722 Q67 892 112 1029.5 Q157 1167 241 1263.5 Q325 1360 444 1412 Q563 1464 710 1464 Z M710 1390 Q581 1390 477.5 1343 Q374 1296 300.5 1209 Q227 1122 187.5 998.5 Q148 875 148 722 Q148 569 187.5 445 Q227 321 300.5 234 Q374 147 478 100 Q582 53 710 53 Q839 53 942.5 100 Q1046 147 1119.5 234 Q1193 321 1232.5 445 Q1272 569 1272 722 Q1272 875 1232.5 998.5 Q1193 1122 1119.5 1209 Q1046 1296 942.5 1343 Q839 1390 710 1390 Z M845 1549 Q813 1549 787 1561 Q761 1573 739.5 1591.5 Q718 1610 699.5 1631 Q681 1652 662 1670.5 Q643 1689 622.5 1701 Q602 1713 577 1713 Q529 1713 507.5 1671 Q486 1629 486 1560 L426 1560 Q426 1608 435.5 1647 Q445 1686 463.5 1713.5 Q482 1741 510 1756.5 Q538 1772 576 1772 Q609 1772 635 1760 Q661 1748 683 1729.5 Q705 1711 724 1690 Q743 1669 761.5 1650.5 Q780 1632 800.5 1620 Q821 1608 845 1608 Q893 1608 913.5 1650.5 Q934 1693 934 1762 L995 1762 Q995 1715 985.5 1675.5 Q976 1636 957 1608 Q938 1580 910 1564.5 Q882 1549 845 1549 Z " />
<glyph glyph-name="Oacute" unicode="&#xd3;" horiz-adv-x="1420" d="M664 1553 L943 1843 L1039 1843 L742 1553 L664 1553 Z M710 1464 Q857 1464 976 1412 Q1095 1360 1179 1263.5 Q1263 1167 1308 1029.5 Q1353 892 1353 722 Q1353 551 1308 413.5 Q1263 276 1179.5 179.5 Q1096 83 977 31 Q858 -21 710 -21 Q562 -21 443 31 Q324 83 240.5 179.5 Q157 276 112 413.5 Q67 551 67 722 Q67 892 112 1029.5 Q157 1167 241 1263.5 Q325 1360 444 1412 Q563 1464 710 1464 Z M710 1390 Q581 1390 477.5 1343 Q374 1296 300.5 1209 Q227 1122 187.5 998.5 Q148 875 148 722 Q148 569 187.5 445 Q227 321 300.5 234 Q374 147 478 100 Q582 53 710 53 Q839 53 942.5 100 Q1046 147 1119.5 234 Q1193 321 1232.5 445 Q1272 569 1272 722 Q1272 875 1232.5 998.5 Q1193 1122 1119.5 1209 Q1046 1296 942.5 1343 Q839 1390 710 1390 Z " />
<glyph glyph-name="Ocircumflex" unicode="&#xd4;" horiz-adv-x="1420" d="M744 1843 L1015 1553 L932 1553 L711 1791 L709 1791 L488 1553 L405 1553 L676 1843 L744 1843 Z M710 1464 Q857 1464 976 1412 Q1095 1360 1179 1263.5 Q1263 1167 1308 1029.5 Q1353 892 1353 722 Q1353 551 1308 413.5 Q1263 276 1179.5 179.5 Q1096 83 977 31 Q858 -21 710 -21 Q562 -21 443 31 Q324 83 240.5 179.5 Q157 276 112 413.5 Q67 551 67 722 Q67 892 112 1029.5 Q157 1167 241 1263.5 Q325 1360 444 1412 Q563 1464 710 1464 Z M710 1390 Q581 1390 477.5 1343 Q374 1296 300.5 1209 Q227 1122 187.5 998.5 Q148 875 148 722 Q148 569 187.5 445 Q227 321 300.5 234 Q374 147 478 100 Q582 53 710 53 Q839 53 942.5 100 Q1046 147 1119.5 234 Q1193 321 1232.5 445 Q1272 569 1272 722 Q1272 875 1232.5 998.5 Q1193 1122 1119.5 1209 Q1046 1296 942.5 1343 Q839 1390 710 1390 Z " />
<glyph glyph-name="Ograve" unicode="&#xd2;" horiz-adv-x="1420" d="M382 1843 L477 1843 L757 1553 L679 1553 L382 1843 Z M710 1464 Q857 1464 976 1412 Q1095 1360 1179 1263.5 Q1263 1167 1308 1029.5 Q1353 892 1353 722 Q1353 551 1308 413.5 Q1263 276 1179.5 179.5 Q1096 83 977 31 Q858 -21 710 -21 Q562 -21 443 31 Q324 83 240.5 179.5 Q157 276 112 413.5 Q67 551 67 722 Q67 892 112 1029.5 Q157 1167 241 1263.5 Q325 1360 444 1412 Q563 1464 710 1464 Z M710 1390 Q581 1390 477.5 1343 Q374 1296 300.5 1209 Q227 1122 187.5 998.5 Q148 875 148 722 Q148 569 187.5 445 Q227 321 300.5 234 Q374 147 478 100 Q582 53 710 53 Q839 53 942.5 100 Q1046 147 1119.5 234 Q1193 321 1232.5 445 Q1272 569 1272 722 Q1272 875 1232.5 998.5 Q1193 1122 1119.5 1209 Q1046 1296 942.5 1343 Q839 1390 710 1390 Z " />
<glyph glyph-name="Ocircumflexhookabove" unicode="&#x1ed4;" horiz-adv-x="1420" d="M746 1768 L1011 1560 L918 1560 L714 1720 L708 1720 L503 1560 L410 1560 L675 1768 L746 1768 Z M833 1953 Q850 1965 877 1972 Q904 1979 932 1979 Q996 1979 1036 1944.5 Q1076 1910 1076 1854 Q1076 1810 1050.5 1775 Q1025 1740 980 1720 L941 1758 Q976 1774 995.5 1798 Q1015 1822 1015 1851 Q1015 1884 990 1905 Q965 1926 924 1926 Q900 1926 873.5 1919.5 Q847 1913 833 1903 L833 1953 Z M710 1464 Q857 1464 976 1412 Q1095 1360 1179 1263.5 Q1263 1167 1308 1029.5 Q1353 892 1353 722 Q1353 551 1308 413.5 Q1263 276 1179.5 179.5 Q1096 83 977 31 Q858 -21 710 -21 Q562 -21 443 31 Q324 83 240.5 179.5 Q157 276 112 413.5 Q67 551 67 722 Q67 892 112 1029.5 Q157 1167 241 1263.5 Q325 1360 444 1412 Q563 1464 710 1464 Z M710 1390 Q581 1390 477.5 1343 Q374 1296 300.5 1209 Q227 1122 187.5 998.5 Q148 875 148 722 Q148 569 187.5 445 Q227 321 300.5 234 Q374 147 478 100 Q582 53 710 53 Q839 53 942.5 100 Q1046 147 1119.5 234 Q1193 321 1232.5 445 Q1272 569 1272 722 Q1272 875 1232.5 998.5 Q1193 1122 1119.5 1209 Q1046 1296 942.5 1343 Q839 1390 710 1390 Z " />
<glyph glyph-name="Ocircumflexgrave" unicode="&#x1ed2;" horiz-adv-x="1420" d="M745 1768 L1011 1560 L918 1560 L713 1720 L707 1720 L502 1560 L409 1560 L675 1768 L745 1768 Z M975 1776 L751 1979 L842 1979 L1049 1776 L975 1776 Z M710 1464 Q857 1464 976 1412 Q1095 1360 1179 1263.5 Q1263 1167 1308 1029.5 Q1353 892 1353 722 Q1353 551 1308 413.5 Q1263 276 1179.5 179.5 Q1096 83 977 31 Q858 -21 710 -21 Q562 -21 443 31 Q324 83 240.5 179.5 Q157 276 112 413.5 Q67 551 67 722 Q67 892 112 1029.5 Q157 1167 241 1263.5 Q325 1360 444 1412 Q563 1464 710 1464 Z M710 1390 Q581 1390 477.5 1343 Q374 1296 300.5 1209 Q227 1122 187.5 998.5 Q148 875 148 722 Q148 569 187.5 445 Q227 321 300.5 234 Q374 147 478 100 Q582 53 710 53 Q839 53 942.5 100 Q1046 147 1119.5 234 Q1193 321 1232.5 445 Q1272 569 1272 722 Q1272 875 1232.5 998.5 Q1193 1122 1119.5 1209 Q1046 1296 942.5 1343 Q839 1390 710 1390 Z " />
<glyph glyph-name="Odotbelow" unicode="&#x1ecc;" horiz-adv-x="1420" d="M710 -295 Q678 -295 655.5 -273 Q633 -251 633 -219 Q633 -187 655.5 -165 Q678 -143 710 -143 Q742 -143 764.5 -165 Q787 -187 787 -219 Q787 -251 764.5 -273 Q742 -295 710 -295 Z M710 1464 Q857 1464 976 1412 Q1095 1360 1179 1263.5 Q1263 1167 1308 1029.5 Q1353 892 1353 722 Q1353 551 1308 413.5 Q1263 276 1179.5 179.5 Q1096 83 977 31 Q858 -21 710 -21 Q562 -21 443 31 Q324 83 240.5 179.5 Q157 276 112 413.5 Q67 551 67 722 Q67 892 112 1029.5 Q157 1167 241 1263.5 Q325 1360 444 1412 Q563 1464 710 1464 Z M710 1390 Q581 1390 477.5 1343 Q374 1296 300.5 1209 Q227 1122 187.5 998.5 Q148 875 148 722 Q148 569 187.5 445 Q227 321 300.5 234 Q374 147 478 100 Q582 53 710 53 Q839 53 942.5 100 Q1046 147 1119.5 234 Q1193 321 1232.5 445 Q1272 569 1272 722 Q1272 875 1232.5 998.5 Q1193 1122 1119.5 1209 Q1046 1296 942.5 1343 Q839 1390 710 1390 Z " />
<glyph glyph-name="Odblgrave" unicode="&#x20c;" horiz-adv-x="1420" d="M501 1843 L594 1843 L874 1553 L799 1553 L501 1843 Z M235 1843 L327 1843 L607 1553 L532 1553 L235 1843 Z M710 1464 Q857 1464 976 1412 Q1095 1360 1179 1263.5 Q1263 1167 1308 1029.5 Q1353 892 1353 722 Q1353 551 1308 413.5 Q1263 276 1179.5 179.5 Q1096 83 977 31 Q858 -21 710 -21 Q562 -21 443 31 Q324 83 240.5 179.5 Q157 276 112 413.5 Q67 551 67 722 Q67 892 112 1029.5 Q157 1167 241 1263.5 Q325 1360 444 1412 Q563 1464 710 1464 Z M710 1390 Q581 1390 477.5 1343 Q374 1296 300.5 1209 Q227 1122 187.5 998.5 Q148 875 148 722 Q148 569 187.5 445 Q227 321 300.5 234 Q374 147 478 100 Q582 53 710 53 Q839 53 942.5 100 Q1046 147 1119.5 234 Q1193 321 1232.5 445 Q1272 569 1272 722 Q1272 875 1232.5 998.5 Q1193 1122 1119.5 1209 Q1046 1296 942.5 1343 Q839 1390 710 1390 Z " />
<glyph glyph-name="Otildeacute" unicode="&#x1e4c;" horiz-adv-x="1420" d="M710 1464 Q857 1464 976 1412 Q1095 1360 1179 1263.5 Q1263 1167 1308 1029.5 Q1353 892 1353 722 Q1353 551 1308 413.5 Q1263 276 1179.5 179.5 Q1096 83 977 31 Q858 -21 710 -21 Q562 -21 443 31 Q324 83 240.5 179.5 Q157 276 112 413.5 Q67 551 67 722 Q67 892 112 1029.5 Q157 1167 241 1263.5 Q325 1360 444 1412 Q563 1464 710 1464 Z M710 1390 Q581 1390 477.5 1343 Q374 1296 300.5 1209 Q227 1122 187.5 998.5 Q148 875 148 722 Q148 569 187.5 445 Q227 321 300.5 234 Q374 147 478 100 Q582 53 710 53 Q839 53 942.5 100 Q1046 147 1119.5 234 Q1193 321 1232.5 445 Q1272 569 1272 722 Q1272 875 1232.5 998.5 Q1193 1122 1119.5 1209 Q1046 1296 942.5 1343 Q839 1390 710 1390 Z M830 1548 Q799 1548 775.5 1559 Q752 1570 733 1587 Q714 1604 698.5 1623 Q683 1642 666.5 1659 Q650 1676 632 1687 Q614 1698 591 1698 Q546 1698 524.5 1661.5 Q503 1625 503 1566 L442 1566 Q442 1608 451.5 1643.5 Q461 1679 480 1704 Q499 1729 526 1743 Q553 1757 589 1757 Q621 1757 645 1746 Q669 1735 688 1718 Q707 1701 723 1682 Q739 1663 755 1646 Q771 1629 789 1618 Q807 1607 830 1607 Q875 1607 895.5 1643 Q916 1679 916 1739 L977 1739 Q977 1697 967 1662 Q957 1627 938.5 1601.5 Q920 1576 892.5 1562 Q865 1548 830 1548 Z M869 1979 L960 1979 L777 1805 L704 1805 L869 1979 Z " />
<glyph glyph-name="Omacronacute" unicode="&#x1e52;" horiz-adv-x="1420" d="M420 1622 L420 1679 L1000 1679 L1000 1622 L420 1622 Z M868 1979 L959 1979 L735 1776 L661 1776 L868 1979 Z M710 1464 Q857 1464 976 1412 Q1095 1360 1179 1263.5 Q1263 1167 1308 1029.5 Q1353 892 1353 722 Q1353 551 1308 413.5 Q1263 276 1179.5 179.5 Q1096 83 977 31 Q858 -21 710 -21 Q562 -21 443 31 Q324 83 240.5 179.5 Q157 276 112 413.5 Q67 551 67 722 Q67 892 112 1029.5 Q157 1167 241 1263.5 Q325 1360 444 1412 Q563 1464 710 1464 Z M710 1390 Q581 1390 477.5 1343 Q374 1296 300.5 1209 Q227 1122 187.5 998.5 Q148 875 148 722 Q148 569 187.5 445 Q227 321 300.5 234 Q374 147 478 100 Q582 53 710 53 Q839 53 942.5 100 Q1046 147 1119.5 234 Q1193 321 1232.5 445 Q1272 569 1272 722 Q1272 875 1232.5 998.5 Q1193 1122 1119.5 1209 Q1046 1296 942.5 1343 Q839 1390 710 1390 Z " />
<glyph glyph-name="Ocircumflextilde" unicode="&#x1ed6;" horiz-adv-x="1420" d="M829 1824 Q797 1824 774 1834.5 Q751 1845 733 1861.5 Q715 1878 700 1896.5 Q685 1915 669.5 1931.5 Q654 1948 636.5 1958.5 Q619 1969 595 1969 Q548 1969 527 1935 Q506 1901 505 1843 L446 1843 Q446 1883 456 1916.5 Q466 1950 484.5 1974 Q503 1998 530.5 2011.5 Q558 2025 594 2025 Q626 2025 649.5 2014.5 Q673 2004 691.5 1987.5 Q710 1971 725 1952.5 Q740 1934 755.5 1917.5 Q771 1901 788 1890.5 Q805 1880 828 1880 Q874 1880 895 1915 Q916 1950 917 2007 L976 2007 Q976 1967 966 1933.5 Q956 1900 937.5 1875.5 Q919 1851 891.5 1837.5 Q864 1824 829 1824 Z M745 1762 L1011 1560 L918 1560 L713 1715 L707 1715 L502 1560 L409 1560 L675 1762 L745 1762 Z M710 1464 Q857 1464 976 1412 Q1095 1360 1179 1263.5 Q1263 1167 1308 1029.5 Q1353 892 1353 722 Q1353 551 1308 413.5 Q1263 276 1179.5 179.5 Q1096 83 977 31 Q858 -21 710 -21 Q562 -21 443 31 Q324 83 240.5 179.5 Q157 276 112 413.5 Q67 551 67 722 Q67 892 112 1029.5 Q157 1167 241 1263.5 Q325 1360 444 1412 Q563 1464 710 1464 Z M710 1390 Q581 1390 477.5 1343 Q374 1296 300.5 1209 Q227 1122 187.5 998.5 Q148 875 148 722 Q148 569 187.5 445 Q227 321 300.5 234 Q374 147 478 100 Q582 53 710 53 Q839 53 942.5 100 Q1046 147 1119.5 234 Q1193 321 1232.5 445 Q1272 569 1272 722 Q1272 875 1232.5 998.5 Q1193 1122 1119.5 1209 Q1046 1296 942.5 1343 Q839 1390 710 1390 Z " />
<glyph glyph-name="Odotaccentmacron" unicode="&#x230;" horiz-adv-x="1420" d="M710 1560 Q679 1560 656.5 1582 Q634 1604 634 1635 Q634 1666 656.5 1688 Q679 1710 710 1710 Q741 1710 763.5 1688 Q786 1666 786 1635 Q786 1604 763.5 1582 Q741 1560 710 1560 Z M1000 1862 L420 1862 L420 1919 L1000 1919 L1000 1862 Z M710 1464 Q857 1464 976 1412 Q1095 1360 1179 1263.5 Q1263 1167 1308 1029.5 Q1353 892 1353 722 Q1353 551 1308 413.5 Q1263 276 1179.5 179.5 Q1096 83 977 31 Q858 -21 710 -21 Q562 -21 443 31 Q324 83 240.5 179.5 Q157 276 112 413.5 Q67 551 67 722 Q67 892 112 1029.5 Q157 1167 241 1263.5 Q325 1360 444 1412 Q563 1464 710 1464 Z M710 1390 Q581 1390 477.5 1343 Q374 1296 300.5 1209 Q227 1122 187.5 998.5 Q148 875 148 722 Q148 569 187.5 445 Q227 321 300.5 234 Q374 147 478 100 Q582 53 710 53 Q839 53 942.5 100 Q1046 147 1119.5 234 Q1193 321 1232.5 445 Q1272 569 1272 722 Q1272 875 1232.5 998.5 Q1193 1122 1119.5 1209 Q1046 1296 942.5 1343 Q839 1390 710 1390 Z " />
<glyph glyph-name="Omacrongrave" unicode="&#x1e50;" horiz-adv-x="1420" d="M420 1679 L1000 1679 L1000 1622 L420 1622 L420 1679 Z M685 1776 L461 1979 L552 1979 L759 1776 L685 1776 Z M710 1464 Q857 1464 976 1412 Q1095 1360 1179 1263.5 Q1263 1167 1308 1029.5 Q1353 892 1353 722 Q1353 551 1308 413.5 Q1263 276 1179.5 179.5 Q1096 83 977 31 Q858 -21 710 -21 Q562 -21 443 31 Q324 83 240.5 179.5 Q157 276 112 413.5 Q67 551 67 722 Q67 892 112 1029.5 Q157 1167 241 1263.5 Q325 1360 444 1412 Q563 1464 710 1464 Z M710 1390 Q581 1390 477.5 1343 Q374 1296 300.5 1209 Q227 1122 187.5 998.5 Q148 875 148 722 Q148 569 187.5 445 Q227 321 300.5 234 Q374 147 478 100 Q582 53 710 53 Q839 53 942.5 100 Q1046 147 1119.5 234 Q1193 321 1232.5 445 Q1272 569 1272 722 Q1272 875 1232.5 998.5 Q1193 1122 1119.5 1209 Q1046 1296 942.5 1343 Q839 1390 710 1390 Z " />
<glyph glyph-name="Ocaron" unicode="&#x1d1;" horiz-adv-x="1420" d="M405 1843 L488 1843 L709 1604 L711 1604 L932 1843 L1015 1843 L744 1553 L676 1553 L405 1843 Z M710 1464 Q857 1464 976 1412 Q1095 1360 1179 1263.5 Q1263 1167 1308 1029.5 Q1353 892 1353 722 Q1353 551 1308 413.5 Q1263 276 1179.5 179.5 Q1096 83 977 31 Q858 -21 710 -21 Q562 -21 443 31 Q324 83 240.5 179.5 Q157 276 112 413.5 Q67 551 67 722 Q67 892 112 1029.5 Q157 1167 241 1263.5 Q325 1360 444 1412 Q563 1464 710 1464 Z M710 1390 Q581 1390 477.5 1343 Q374 1296 300.5 1209 Q227 1122 187.5 998.5 Q148 875 148 722 Q148 569 187.5 445 Q227 321 300.5 234 Q374 147 478 100 Q582 53 710 53 Q839 53 942.5 100 Q1046 147 1119.5 234 Q1193 321 1232.5 445 Q1272 569 1272 722 Q1272 875 1232.5 998.5 Q1193 1122 1119.5 1209 Q1046 1296 942.5 1343 Q839 1390 710 1390 Z " />
<glyph glyph-name="Oslashacute" unicode="&#x1fe;" horiz-adv-x="1420" d="M784 1553 L706 1553 L985 1843 L1081 1843 L784 1553 Z M352 181 Q422 118 512 85.5 Q602 53 710 53 Q839 53 942.5 100 Q1046 147 1119.5 234 Q1193 321 1232.5 445 Q1272 569 1272 722 Q1272 868 1237 985 Q1202 1102 1136 1189 L352 181 Z M1095 1236 Q1023 1311 926 1350.5 Q829 1390 710 1390 Q581 1390 477.5 1343 Q374 1296 300.5 1209 Q227 1122 187.5 998.5 Q148 875 148 722 Q148 564 189.5 439 Q231 314 308 226 L1095 1236 Z M1187 1254 Q1267 1157 1310 1023.5 Q1353 890 1353 722 Q1353 551 1308 413.5 Q1263 276 1179.5 179.5 Q1096 83 977 31 Q858 -21 710 -21 Q587 -21 485 14.5 Q383 50 303 118 L146 -84 L95 -47 L257 161 Q165 258 116 400 Q67 542 67 722 Q67 892 112 1029.5 Q157 1167 241 1263.5 Q325 1360 444 1412 Q563 1464 710 1464 Q844 1464 953 1422 Q1062 1380 1144 1300 L1288 1484 L1338 1449 L1187 1254 Z " />
<glyph glyph-name="Ohungarumlaut" unicode="&#x150;" horiz-adv-x="1420" d="M813 1553 L1093 1843 L1185 1843 L888 1553 L813 1553 Z M546 1553 L826 1843 L919 1843 L621 1553 L546 1553 Z M710 1464 Q857 1464 976 1412 Q1095 1360 1179 1263.5 Q1263 1167 1308 1029.5 Q1353 892 1353 722 Q1353 551 1308 413.5 Q1263 276 1179.5 179.5 Q1096 83 977 31 Q858 -21 710 -21 Q562 -21 443 31 Q324 83 240.5 179.5 Q157 276 112 413.5 Q67 551 67 722 Q67 892 112 1029.5 Q157 1167 241 1263.5 Q325 1360 444 1412 Q563 1464 710 1464 Z M710 1390 Q581 1390 477.5 1343 Q374 1296 300.5 1209 Q227 1122 187.5 998.5 Q148 875 148 722 Q148 569 187.5 445 Q227 321 300.5 234 Q374 147 478 100 Q582 53 710 53 Q839 53 942.5 100 Q1046 147 1119.5 234 Q1193 321 1232.5 445 Q1272 569 1272 722 Q1272 875 1232.5 998.5 Q1193 1122 1119.5 1209 Q1046 1296 942.5 1343 Q839 1390 710 1390 Z " />
<glyph glyph-name="Obreve" unicode="&#x14e;" horiz-adv-x="1420" d="M710 1464 Q857 1464 976 1412 Q1095 1360 1179 1263.5 Q1263 1167 1308 1029.5 Q1353 892 1353 722 Q1353 551 1308 413.5 Q1263 276 1179.5 179.5 Q1096 83 977 31 Q858 -21 710 -21 Q562 -21 443 31 Q324 83 240.5 179.5 Q157 276 112 413.5 Q67 551 67 722 Q67 892 112 1029.5 Q157 1167 241 1263.5 Q325 1360 444 1412 Q563 1464 710 1464 Z M710 1390 Q581 1390 477.5 1343 Q374 1296 300.5 1209 Q227 1122 187.5 998.5 Q148 875 148 722 Q148 569 187.5 445 Q227 321 300.5 234 Q374 147 478 100 Q582 53 710 53 Q839 53 942.5 100 Q1046 147 1119.5 234 Q1193 321 1232.5 445 Q1272 569 1272 722 Q1272 875 1232.5 998.5 Q1193 1122 1119.5 1209 Q1046 1296 942.5 1343 Q839 1390 710 1390 Z M502 1789 Q502 1751 517 1718 Q532 1685 559.5 1661 Q587 1637 625 1623 Q663 1609 710 1609 Q756 1609 794.5 1623 Q833 1637 860.5 1661 Q888 1685 903 1718 Q918 1751 918 1789 L979 1789 Q979 1735 959 1691.5 Q939 1648 903 1617 Q867 1586 817.5 1569.5 Q768 1553 710 1553 Q651 1553 602 1569.5 Q553 1586 517 1617 Q481 1648 461 1691.5 Q441 1735 441 1789 L502 1789 Z " />
<glyph glyph-name="Oinvertedbreve" unicode="&#x20e;" horiz-adv-x="1420" d="M441 1553 Q441 1607 461 1650.5 Q481 1694 517 1724.5 Q553 1755 602 1772 Q651 1789 710 1789 Q768 1789 817.5 1772 Q867 1755 903 1724.5 Q939 1694 959 1650.5 Q979 1607 979 1553 L918 1553 Q918 1591 903 1623.5 Q888 1656 860.5 1680 Q833 1704 794.5 1718 Q756 1732 710 1732 Q663 1732 625 1718 Q587 1704 559.5 1680 Q532 1656 517 1623.5 Q502 1591 502 1553 L441 1553 Z M710 1464 Q857 1464 976 1412 Q1095 1360 1179 1263.5 Q1263 1167 1308 1029.5 Q1353 892 1353 722 Q1353 551 1308 413.5 Q1263 276 1179.5 179.5 Q1096 83 977 31 Q858 -21 710 -21 Q562 -21 443 31 Q324 83 240.5 179.5 Q157 276 112 413.5 Q67 551 67 722 Q67 892 112 1029.5 Q157 1167 241 1263.5 Q325 1360 444 1412 Q563 1464 710 1464 Z M710 1390 Q581 1390 477.5 1343 Q374 1296 300.5 1209 Q227 1122 187.5 998.5 Q148 875 148 722 Q148 569 187.5 445 Q227 321 300.5 234 Q374 147 478 100 Q582 53 710 53 Q839 53 942.5 100 Q1046 147 1119.5 234 Q1193 321 1232.5 445 Q1272 569 1272 722 Q1272 875 1232.5 998.5 Q1193 1122 1119.5 1209 Q1046 1296 942.5 1343 Q839 1390 710 1390 Z " />
<glyph glyph-name="Ohookabove" unicode="&#x1ece;" horiz-adv-x="1420" d="M568 1804 Q587 1815 618 1823 Q649 1831 683 1831 Q755 1831 798.5 1794 Q842 1757 842 1695 Q842 1647 812 1607.5 Q782 1568 729 1545 L695 1587 Q732 1603 754.5 1631.5 Q777 1660 777 1692 Q777 1730 748.5 1753 Q720 1776 674 1776 Q645 1776 615 1768.5 Q585 1761 568 1750 L568 1804 Z M710 1464 Q857 1464 976 1412 Q1095 1360 1179 1263.5 Q1263 1167 1308 1029.5 Q1353 892 1353 722 Q1353 551 1308 413.5 Q1263 276 1179.5 179.5 Q1096 83 977 31 Q858 -21 710 -21 Q562 -21 443 31 Q324 83 240.5 179.5 Q157 276 112 413.5 Q67 551 67 722 Q67 892 112 1029.5 Q157 1167 241 1263.5 Q325 1360 444 1412 Q563 1464 710 1464 Z M710 1390 Q581 1390 477.5 1343 Q374 1296 300.5 1209 Q227 1122 187.5 998.5 Q148 875 148 722 Q148 569 187.5 445 Q227 321 300.5 234 Q374 147 478 100 Q582 53 710 53 Q839 53 942.5 100 Q1046 147 1119.5 234 Q1193 321 1232.5 445 Q1272 569 1272 722 Q1272 875 1232.5 998.5 Q1193 1122 1119.5 1209 Q1046 1296 942.5 1343 Q839 1390 710 1390 Z " />
<glyph glyph-name="Odieresismacron" unicode="&#x22a;" horiz-adv-x="1420" d="M710 1464 Q857 1464 976 1412 Q1095 1360 1179 1263.5 Q1263 1167 1308 1029.5 Q1353 892 1353 722 Q1353 551 1308 413.5 Q1263 276 1179.5 179.5 Q1096 83 977 31 Q858 -21 710 -21 Q562 -21 443 31 Q324 83 240.5 179.5 Q157 276 112 413.5 Q67 551 67 722 Q67 892 112 1029.5 Q157 1167 241 1263.5 Q325 1360 444 1412 Q563 1464 710 1464 Z M710 1390 Q581 1390 477.5 1343 Q374 1296 300.5 1209 Q227 1122 187.5 998.5 Q148 875 148 722 Q148 569 187.5 445 Q227 321 300.5 234 Q374 147 478 100 Q582 53 710 53 Q839 53 942.5 100 Q1046 147 1119.5 234 Q1193 321 1232.5 445 Q1272 569 1272 722 Q1272 875 1232.5 998.5 Q1193 1122 1119.5 1209 Q1046 1296 942.5 1343 Q839 1390 710 1390 Z M561 1691 Q587 1691 605.5 1672.5 Q624 1654 624 1628 Q624 1602 605.5 1583.5 Q587 1565 561 1565 Q535 1565 516 1583.5 Q497 1602 497 1628 Q497 1654 516 1672.5 Q535 1691 561 1691 Z M1000 1919 L1000 1862 L420 1862 L420 1919 L1000 1919 Z M859 1691 Q885 1691 904 1672.5 Q923 1654 923 1628 Q923 1602 904 1583.5 Q885 1565 859 1565 Q833 1565 814.5 1583.5 Q796 1602 796 1628 Q796 1654 814.5 1672.5 Q833 1691 859 1691 Z " />
<glyph glyph-name="Otildemacron" unicode="&#x22c;" horiz-adv-x="1420" d="M830 1548 Q799 1548 775.5 1559 Q752 1570 733 1587 Q714 1604 698 1623 Q682 1642 666 1659 Q650 1676 631.5 1687 Q613 1698 590 1698 Q545 1698 523.5 1661.5 Q502 1625 502 1566 L442 1566 Q442 1608 451.5 1643.5 Q461 1679 480 1704 Q499 1729 526 1743 Q553 1757 589 1757 Q621 1757 644.5 1746 Q668 1735 687 1718 Q706 1701 722 1682 Q738 1663 754.5 1646 Q771 1629 789 1618 Q807 1607 830 1607 Q875 1607 895 1643 Q915 1679 915 1739 L976 1739 Q976 1697 966.5 1662 Q957 1627 938 1601.5 Q919 1576 892 1562 Q865 1548 830 1548 Z M1000 1862 L420 1862 L420 1919 L1000 1919 L1000 1862 Z M710 1464 Q857 1464 976 1412 Q1095 1360 1179 1263.5 Q1263 1167 1308 1029.5 Q1353 892 1353 722 Q1353 551 1308 413.5 Q1263 276 1179.5 179.5 Q1096 83 977 31 Q858 -21 710 -21 Q562 -21 443 31 Q324 83 240.5 179.5 Q157 276 112 413.5 Q67 551 67 722 Q67 892 112 1029.5 Q157 1167 241 1263.5 Q325 1360 444 1412 Q563 1464 710 1464 Z M710 1390 Q581 1390 477.5 1343 Q374 1296 300.5 1209 Q227 1122 187.5 998.5 Q148 875 148 722 Q148 569 187.5 445 Q227 321 300.5 234 Q374 147 478 100 Q582 53 710 53 Q839 53 942.5 100 Q1046 147 1119.5 234 Q1193 321 1232.5 445 Q1272 569 1272 722 Q1272 875 1232.5 998.5 Q1193 1122 1119.5 1209 Q1046 1296 942.5 1343 Q839 1390 710 1390 Z " />
<glyph glyph-name="Odotaccent" unicode="&#x22e;" horiz-adv-x="1420" d="M710 1563 Q678 1563 655.5 1585 Q633 1607 633 1639 Q633 1671 655.5 1693 Q678 1715 710 1715 Q742 1715 764.5 1693 Q787 1671 787 1639 Q787 1607 764.5 1585 Q742 1563 710 1563 Z M710 1464 Q857 1464 976 1412 Q1095 1360 1179 1263.5 Q1263 1167 1308 1029.5 Q1353 892 1353 722 Q1353 551 1308 413.5 Q1263 276 1179.5 179.5 Q1096 83 977 31 Q858 -21 710 -21 Q562 -21 443 31 Q324 83 240.5 179.5 Q157 276 112 413.5 Q67 551 67 722 Q67 892 112 1029.5 Q157 1167 241 1263.5 Q325 1360 444 1412 Q563 1464 710 1464 Z M710 1390 Q581 1390 477.5 1343 Q374 1296 300.5 1209 Q227 1122 187.5 998.5 Q148 875 148 722 Q148 569 187.5 445 Q227 321 300.5 234 Q374 147 478 100 Q582 53 710 53 Q839 53 942.5 100 Q1046 147 1119.5 234 Q1193 321 1232.5 445 Q1272 569 1272 722 Q1272 875 1232.5 998.5 Q1193 1122 1119.5 1209 Q1046 1296 942.5 1343 Q839 1390 710 1390 Z " />
<glyph glyph-name="Ocircumflexdotbelow" unicode="&#x1ed8;" horiz-adv-x="1420" d="M710 -295 Q678 -295 655.5 -273 Q633 -251 633 -219 Q633 -187 655.5 -165 Q678 -143 710 -143 Q742 -143 764.5 -165 Q787 -187 787 -219 Q787 -251 764.5 -273 Q742 -295 710 -295 Z M744 1843 L1015 1553 L932 1553 L711 1791 L709 1791 L488 1553 L405 1553 L676 1843 L744 1843 Z M710 1464 Q857 1464 976 1412 Q1095 1360 1179 1263.5 Q1263 1167 1308 1029.5 Q1353 892 1353 722 Q1353 551 1308 413.5 Q1263 276 1179.5 179.5 Q1096 83 977 31 Q858 -21 710 -21 Q562 -21 443 31 Q324 83 240.5 179.5 Q157 276 112 413.5 Q67 551 67 722 Q67 892 112 1029.5 Q157 1167 241 1263.5 Q325 1360 444 1412 Q563 1464 710 1464 Z M710 1390 Q581 1390 477.5 1343 Q374 1296 300.5 1209 Q227 1122 187.5 998.5 Q148 875 148 722 Q148 569 187.5 445 Q227 321 300.5 234 Q374 147 478 100 Q582 53 710 53 Q839 53 942.5 100 Q1046 147 1119.5 234 Q1193 321 1232.5 445 Q1272 569 1272 722 Q1272 875 1232.5 998.5 Q1193 1122 1119.5 1209 Q1046 1296 942.5 1343 Q839 1390 710 1390 Z " />
<glyph glyph-name="Ocircumflexacute" unicode="&#x1ed0;" horiz-adv-x="1420" d="M746 1768 L1012 1560 L919 1560 L714 1720 L708 1720 L503 1560 L410 1560 L676 1768 L746 1768 Z M1083 1979 L1174 1979 L950 1776 L876 1776 L1083 1979 Z M710 1464 Q857 1464 976 1412 Q1095 1360 1179 1263.5 Q1263 1167 1308 1029.5 Q1353 892 1353 722 Q1353 551 1308 413.5 Q1263 276 1179.5 179.5 Q1096 83 977 31 Q858 -21 710 -21 Q562 -21 443 31 Q324 83 240.5 179.5 Q157 276 112 413.5 Q67 551 67 722 Q67 892 112 1029.5 Q157 1167 241 1263.5 Q325 1360 444 1412 Q563 1464 710 1464 Z M710 1390 Q581 1390 477.5 1343 Q374 1296 300.5 1209 Q227 1122 187.5 998.5 Q148 875 148 722 Q148 569 187.5 445 Q227 321 300.5 234 Q374 147 478 100 Q582 53 710 53 Q839 53 942.5 100 Q1046 147 1119.5 234 Q1193 321 1232.5 445 Q1272 569 1272 722 Q1272 875 1232.5 998.5 Q1193 1122 1119.5 1209 Q1046 1296 942.5 1343 Q839 1390 710 1390 Z " />
<glyph glyph-name="Otildedieresis" unicode="&#x1e4e;" horiz-adv-x="1420" d="M831 1548 Q800 1548 776.5 1559 Q753 1570 734 1587 Q715 1604 699 1623 Q683 1642 667 1659 Q651 1676 632.5 1687 Q614 1698 591 1698 Q546 1698 524.5 1661.5 Q503 1625 503 1566 L443 1566 Q443 1608 452.5 1643.5 Q462 1679 481 1704 Q500 1729 527 1743 Q554 1757 590 1757 Q637 1757 668 1733.5 Q699 1710 723.5 1682 Q748 1654 772.5 1630.5 Q797 1607 831 1607 Q876 1607 896.5 1643 Q917 1679 917 1739 L977 1739 Q977 1697 967.5 1662 Q958 1627 939 1601.5 Q920 1576 893 1562 Q866 1548 831 1548 Z M561 1982 Q587 1982 605.5 1963.5 Q624 1945 624 1919 Q624 1893 605.5 1874.5 Q587 1856 561 1856 Q535 1856 516 1874.5 Q497 1893 497 1919 Q497 1945 516 1963.5 Q535 1982 561 1982 Z M859 1982 Q885 1982 904 1963.5 Q923 1945 923 1919 Q923 1893 904 1874.5 Q885 1856 859 1856 Q833 1856 814.5 1874.5 Q796 1893 796 1919 Q796 1945 814.5 1963.5 Q833 1982 859 1982 Z M710 1464 Q857 1464 976 1412 Q1095 1360 1179 1263.5 Q1263 1167 1308 1029.5 Q1353 892 1353 722 Q1353 551 1308 413.5 Q1263 276 1179.5 179.5 Q1096 83 977 31 Q858 -21 710 -21 Q562 -21 443 31 Q324 83 240.5 179.5 Q157 276 112 413.5 Q67 551 67 722 Q67 892 112 1029.5 Q157 1167 241 1263.5 Q325 1360 444 1412 Q563 1464 710 1464 Z M710 1390 Q581 1390 477.5 1343 Q374 1296 300.5 1209 Q227 1122 187.5 998.5 Q148 875 148 722 Q148 569 187.5 445 Q227 321 300.5 234 Q374 147 478 100 Q582 53 710 53 Q839 53 942.5 100 Q1046 147 1119.5 234 Q1193 321 1232.5 445 Q1272 569 1272 722 Q1272 875 1232.5 998.5 Q1193 1122 1119.5 1209 Q1046 1296 942.5 1343 Q839 1390 710 1390 Z " />
<glyph glyph-name="Omacron" unicode="&#x14c;" horiz-adv-x="1420" d="M710 1464 Q857 1464 976 1412 Q1095 1360 1179 1263.5 Q1263 1167 1308 1029.5 Q1353 892 1353 722 Q1353 551 1308 413.5 Q1263 276 1179.5 179.5 Q1096 83 977 31 Q858 -21 710 -21 Q562 -21 443 31 Q324 83 240.5 179.5 Q157 276 112 413.5 Q67 551 67 722 Q67 892 112 1029.5 Q157 1167 241 1263.5 Q325 1360 444 1412 Q563 1464 710 1464 Z M710 1390 Q581 1390 477.5 1343 Q374 1296 300.5 1209 Q227 1122 187.5 998.5 Q148 875 148 722 Q148 569 187.5 445 Q227 321 300.5 234 Q374 147 478 100 Q582 53 710 53 Q839 53 942.5 100 Q1046 147 1119.5 234 Q1193 321 1232.5 445 Q1272 569 1272 722 Q1272 875 1232.5 998.5 Q1193 1122 1119.5 1209 Q1046 1296 942.5 1343 Q839 1390 710 1390 Z M1000 1622 L420 1622 L420 1679 L1000 1679 L1000 1622 Z " />
<glyph glyph-name="Oogonek" unicode="&#x1ea;" horiz-adv-x="1420" d="M971 -407 Q968 -408 962 -409 Q956 -410 949.5 -410.5 Q943 -411 936.5 -411.5 Q930 -412 926 -412 Q882 -412 845 -398 Q808 -384 781.5 -359.5 Q755 -335 740.5 -300.5 Q726 -266 726 -224 Q726 -161 756.5 -108 Q787 -55 852 -7 L852 -3 Q823 -12 785.5 -16.5 Q748 -21 710 -21 Q561 -21 441.5 30.5 Q322 82 239 178 Q156 274 111.5 411.5 Q67 549 67 722 Q67 894 112 1031.5 Q157 1169 240 1265 Q323 1361 442 1412.5 Q561 1464 710 1464 Q859 1464 978 1412.5 Q1097 1361 1180.5 1265 Q1264 1169 1308.5 1031.5 Q1353 894 1353 722 Q1353 613 1337 527 Q1321 441 1294 373 Q1267 305 1231 253 Q1195 201 1154 160 Q1113 119 1070 87.5 Q1027 56 986 29 Q899 -30 849.5 -87.5 Q800 -145 800 -212 Q800 -272 839.5 -309 Q879 -346 943 -346 Q948 -346 958.5 -345.5 Q969 -345 971 -344 L971 -407 Z M710 1390 Q581 1390 477.5 1343 Q374 1296 300.5 1209 Q227 1122 187.5 998.5 Q148 875 148 722 Q148 569 187.5 445 Q227 321 300.5 234 Q374 147 477.5 100 Q581 53 710 53 Q839 53 942.5 100 Q1046 147 1119.5 234 Q1193 321 1232.5 445 Q1272 569 1272 722 Q1272 875 1232.5 998.5 Q1193 1122 1119.5 1209 Q1046 1296 942.5 1343 Q839 1390 710 1390 Z " />
<glyph glyph-name="Oogonekmacron" unicode="&#x1ec;" horiz-adv-x="1420" d="M971 -407 Q968 -408 962 -409 Q956 -410 949.5 -410.5 Q943 -411 936.5 -411.5 Q930 -412 926 -412 Q882 -412 845 -398 Q808 -384 781.5 -359.5 Q755 -335 740.5 -300.5 Q726 -266 726 -224 Q726 -161 756.5 -108 Q787 -55 852 -7 L852 -3 Q823 -12 785.5 -16.5 Q748 -21 710 -21 Q561 -21 441.5 30.5 Q322 82 239 178 Q156 274 111.5 411.5 Q67 549 67 722 Q67 894 112 1031.5 Q157 1169 240 1265 Q323 1361 442 1412.5 Q561 1464 710 1464 Q859 1464 978 1412.5 Q1097 1361 1180.5 1265 Q1264 1169 1308.5 1031.5 Q1353 894 1353 722 Q1353 613 1337 527 Q1321 441 1294 373 Q1267 305 1231 253 Q1195 201 1154 160 Q1113 119 1070 87.5 Q1027 56 986 29 Q899 -30 849.5 -87.5 Q800 -145 800 -212 Q800 -272 839.5 -309 Q879 -346 943 -346 Q948 -346 958.5 -345.5 Q969 -345 971 -344 L971 -407 Z M710 1390 Q581 1390 477.5 1343 Q374 1296 300.5 1209 Q227 1122 187.5 998.5 Q148 875 148 722 Q148 569 187.5 445 Q227 321 300.5 234 Q374 147 477.5 100 Q581 53 710 53 Q839 53 942.5 100 Q1046 147 1119.5 234 Q1193 321 1232.5 445 Q1272 569 1272 722 Q1272 875 1232.5 998.5 Q1193 1122 1119.5 1209 Q1046 1296 942.5 1343 Q839 1390 710 1390 Z M1000 1622 L420 1622 L420 1679 L1000 1679 L1000 1622 Z " />
<glyph glyph-name="Ohorn" unicode="&#x1a0;" horiz-adv-x="1458" d="M710 1390 Q581 1390 477.5 1343 Q374 1296 300.5 1209 Q227 1122 187.5 998.5 Q148 875 148 722 Q148 569 187.5 445.5 Q227 322 300.5 234.5 Q374 147 478 100 Q582 53 710 53 Q839 53 942.5 100 Q1046 147 1119.5 234.5 Q1193 322 1232.5 445.5 Q1272 569 1272 722 Q1272 875 1232.5 998.5 Q1193 1122 1119.5 1209 Q1046 1296 942.5 1343 Q839 1390 710 1390 Z M1353 721 Q1353 549 1308.5 411.5 Q1264 274 1180.5 178 Q1097 82 978 30.5 Q859 -21 710 -21 Q561 -21 442 30.5 Q323 82 239.5 178 Q156 274 111.5 411.5 Q67 549 67 721 Q67 893 112 1030.5 Q157 1168 240.5 1264.5 Q324 1361 443.5 1412.5 Q563 1464 712 1464 Q783 1464 840.5 1452.5 Q898 1441 945.5 1424 Q993 1407 1032 1387 Q1071 1367 1106.5 1350 Q1142 1333 1175.5 1321.5 Q1209 1310 1245 1310 Q1355 1310 1355 1456 L1355 1597 L1428 1597 L1428 1442 Q1428 1348 1387 1297 Q1346 1246 1270 1246 Q1249 1246 1221 1252.5 Q1193 1259 1175 1269 L1171 1265 Q1262 1162 1307.5 1025.5 Q1353 889 1353 721 Z " />
<glyph glyph-name="Ohorndotbelow" unicode="&#x1ee2;" horiz-adv-x="1458" d="M710 -295 Q678 -295 655.5 -273 Q633 -251 633 -219 Q633 -187 655.5 -165 Q678 -143 710 -143 Q742 -143 764.5 -165 Q787 -187 787 -219 Q787 -251 764.5 -273 Q742 -295 710 -295 Z M710 1390 Q581 1390 477.5 1343 Q374 1296 300.5 1209 Q227 1122 187.5 998.5 Q148 875 148 722 Q148 569 187.5 445.5 Q227 322 300.5 234.5 Q374 147 478 100 Q582 53 710 53 Q839 53 942.5 100 Q1046 147 1119.5 234.5 Q1193 322 1232.5 445.5 Q1272 569 1272 722 Q1272 875 1232.5 998.5 Q1193 1122 1119.5 1209 Q1046 1296 942.5 1343 Q839 1390 710 1390 Z M1353 721 Q1353 549 1308.5 411.5 Q1264 274 1180.5 178 Q1097 82 978 30.5 Q859 -21 710 -21 Q561 -21 442 30.5 Q323 82 239.5 178 Q156 274 111.5 411.5 Q67 549 67 721 Q67 893 112 1030.5 Q157 1168 240.5 1264.5 Q324 1361 443.5 1412.5 Q563 1464 712 1464 Q783 1464 840.5 1452.5 Q898 1441 945.5 1424 Q993 1407 1032 1387 Q1071 1367 1106.5 1350 Q1142 1333 1175.5 1321.5 Q1209 1310 1245 1310 Q1355 1310 1355 1456 L1355 1597 L1428 1597 L1428 1442 Q1428 1348 1387 1297 Q1346 1246 1270 1246 Q1249 1246 1221 1252.5 Q1193 1259 1175 1269 L1171 1265 Q1262 1162 1307.5 1025.5 Q1353 889 1353 721 Z " />
<glyph glyph-name="Ohornhookabove" unicode="&#x1ede;" horiz-adv-x="1458" d="M568 1804 Q587 1815 618 1823 Q649 1831 683 1831 Q755 1831 798.5 1794 Q842 1757 842 1695 Q842 1647 812 1607.5 Q782 1568 729 1545 L695 1587 Q732 1603 754.5 1631.5 Q777 1660 777 1692 Q777 1730 748.5 1753 Q720 1776 674 1776 Q645 1776 615 1768.5 Q585 1761 568 1750 L568 1804 Z M710 1390 Q581 1390 477.5 1343 Q374 1296 300.5 1209 Q227 1122 187.5 998.5 Q148 875 148 722 Q148 569 187.5 445.5 Q227 322 300.5 234.5 Q374 147 478 100 Q582 53 710 53 Q839 53 942.5 100 Q1046 147 1119.5 234.5 Q1193 322 1232.5 445.5 Q1272 569 1272 722 Q1272 875 1232.5 998.5 Q1193 1122 1119.5 1209 Q1046 1296 942.5 1343 Q839 1390 710 1390 Z M1353 721 Q1353 549 1308.5 411.5 Q1264 274 1180.5 178 Q1097 82 978 30.5 Q859 -21 710 -21 Q561 -21 442 30.5 Q323 82 239.5 178 Q156 274 111.5 411.5 Q67 549 67 721 Q67 893 112 1030.5 Q157 1168 240.5 1264.5 Q324 1361 443.5 1412.5 Q563 1464 712 1464 Q783 1464 840.5 1452.5 Q898 1441 945.5 1424 Q993 1407 1032 1387 Q1071 1367 1106.5 1350 Q1142 1333 1175.5 1321.5 Q1209 1310 1245 1310 Q1355 1310 1355 1456 L1355 1597 L1428 1597 L1428 1442 Q1428 1348 1387 1297 Q1346 1246 1270 1246 Q1249 1246 1221 1252.5 Q1193 1259 1175 1269 L1171 1265 Q1262 1162 1307.5 1025.5 Q1353 889 1353 721 Z " />
<glyph glyph-name="Ohorntilde" unicode="&#x1ee0;" horiz-adv-x="1458" d="M710 1390 Q581 1390 477.5 1343 Q374 1296 300.5 1209 Q227 1122 187.5 998.5 Q148 875 148 722 Q148 569 187.5 445.5 Q227 322 300.5 234.5 Q374 147 478 100 Q582 53 710 53 Q839 53 942.5 100 Q1046 147 1119.5 234.5 Q1193 322 1232.5 445.5 Q1272 569 1272 722 Q1272 875 1232.5 998.5 Q1193 1122 1119.5 1209 Q1046 1296 942.5 1343 Q839 1390 710 1390 Z M1353 721 Q1353 549 1308.5 411.5 Q1264 274 1180.5 178 Q1097 82 978 30.5 Q859 -21 710 -21 Q561 -21 442 30.5 Q323 82 239.5 178 Q156 274 111.5 411.5 Q67 549 67 721 Q67 893 112 1030.5 Q157 1168 240.5 1264.5 Q324 1361 443.5 1412.5 Q563 1464 712 1464 Q783 1464 840.5 1452.5 Q898 1441 945.5 1424 Q993 1407 1032 1387 Q1071 1367 1106.5 1350 Q1142 1333 1175.5 1321.5 Q1209 1310 1245 1310 Q1355 1310 1355 1456 L1355 1597 L1428 1597 L1428 1442 Q1428 1348 1387 1297 Q1346 1246 1270 1246 Q1249 1246 1221 1252.5 Q1193 1259 1175 1269 L1171 1265 Q1262 1162 1307.5 1025.5 Q1353 889 1353 721 Z M845 1549 Q813 1549 787 1561 Q761 1573 739.5 1591.5 Q718 1610 699.5 1631 Q681 1652 662 1670.5 Q643 1689 622.5 1701 Q602 1713 577 1713 Q529 1713 507.5 1671 Q486 1629 486 1560 L426 1560 Q426 1608 435.5 1647 Q445 1686 463.5 1713.5 Q482 1741 510 1756.5 Q538 1772 576 1772 Q609 1772 635 1760 Q661 1748 683 1729.5 Q705 1711 724 1690 Q743 1669 761.5 1650.5 Q780 1632 800.5 1620 Q821 1608 845 1608 Q893 1608 913.5 1650.5 Q934 1693 934 1762 L995 1762 Q995 1715 985.5 1675.5 Q976 1636 957 1608 Q938 1580 910 1564.5 Q882 1549 845 1549 Z " />
<glyph glyph-name="Ohorngrave" unicode="&#x1edc;" horiz-adv-x="1458" d="M382 1843 L477 1843 L757 1553 L679 1553 L382 1843 Z M710 1390 Q581 1390 477.5 1343 Q374 1296 300.5 1209 Q227 1122 187.5 998.5 Q148 875 148 722 Q148 569 187.5 445.5 Q227 322 300.5 234.5 Q374 147 478 100 Q582 53 710 53 Q839 53 942.5 100 Q1046 147 1119.5 234.5 Q1193 322 1232.5 445.5 Q1272 569 1272 722 Q1272 875 1232.5 998.5 Q1193 1122 1119.5 1209 Q1046 1296 942.5 1343 Q839 1390 710 1390 Z M1353 721 Q1353 549 1308.5 411.5 Q1264 274 1180.5 178 Q1097 82 978 30.5 Q859 -21 710 -21 Q561 -21 442 30.5 Q323 82 239.5 178 Q156 274 111.5 411.5 Q67 549 67 721 Q67 893 112 1030.5 Q157 1168 240.5 1264.5 Q324 1361 443.5 1412.5 Q563 1464 712 1464 Q783 1464 840.5 1452.5 Q898 1441 945.5 1424 Q993 1407 1032 1387 Q1071 1367 1106.5 1350 Q1142 1333 1175.5 1321.5 Q1209 1310 1245 1310 Q1355 1310 1355 1456 L1355 1597 L1428 1597 L1428 1442 Q1428 1348 1387 1297 Q1346 1246 1270 1246 Q1249 1246 1221 1252.5 Q1193 1259 1175 1269 L1171 1265 Q1262 1162 1307.5 1025.5 Q1353 889 1353 721 Z " />
<glyph glyph-name="Ohornacute" unicode="&#x1eda;" horiz-adv-x="1458" d="M664 1553 L943 1843 L1039 1843 L742 1553 L664 1553 Z M710 1390 Q581 1390 477.5 1343 Q374 1296 300.5 1209 Q227 1122 187.5 998.5 Q148 875 148 722 Q148 569 187.5 445.5 Q227 322 300.5 234.5 Q374 147 478 100 Q582 53 710 53 Q839 53 942.5 100 Q1046 147 1119.5 234.5 Q1193 322 1232.5 445.5 Q1272 569 1272 722 Q1272 875 1232.5 998.5 Q1193 1122 1119.5 1209 Q1046 1296 942.5 1343 Q839 1390 710 1390 Z M1353 721 Q1353 549 1308.5 411.5 Q1264 274 1180.5 178 Q1097 82 978 30.5 Q859 -21 710 -21 Q561 -21 442 30.5 Q323 82 239.5 178 Q156 274 111.5 411.5 Q67 549 67 721 Q67 893 112 1030.5 Q157 1168 240.5 1264.5 Q324 1361 443.5 1412.5 Q563 1464 712 1464 Q783 1464 840.5 1452.5 Q898 1441 945.5 1424 Q993 1407 1032 1387 Q1071 1367 1106.5 1350 Q1142 1333 1175.5 1321.5 Q1209 1310 1245 1310 Q1355 1310 1355 1456 L1355 1597 L1428 1597 L1428 1442 Q1428 1348 1387 1297 Q1346 1246 1270 1246 Q1249 1246 1221 1252.5 Q1193 1259 1175 1269 L1171 1265 Q1262 1162 1307.5 1025.5 Q1353 889 1353 721 Z " />
<glyph glyph-name="P" unicode="P" horiz-adv-x="1116" d="M597 1443 Q702 1443 788 1412.5 Q874 1382 934.5 1325.5 Q995 1269 1028 1189.5 Q1061 1110 1061 1012 Q1061 914 1028 834.5 Q995 755 934 699 Q873 643 787.5 612.5 Q702 582 597 582 L207 582 L207 0 L128 0 L128 1443 L597 1443 Z M207 654 L584 654 Q675 654 748.5 678.5 Q822 703 873.5 749.5 Q925 796 952.5 862.5 Q980 929 980 1012 Q980 1096 952.5 1162.5 Q925 1229 873.5 1275.5 Q822 1322 748.5 1346.5 Q675 1371 584 1371 L207 1371 L207 654 Z " />
<glyph glyph-name="Pdotaccent" unicode="&#x1e56;" horiz-adv-x="1116" d="M597 1443 Q702 1443 788 1412.5 Q874 1382 934.5 1325.5 Q995 1269 1028 1189.5 Q1061 1110 1061 1012 Q1061 914 1028 834.5 Q995 755 934 699 Q873 643 787.5 612.5 Q702 582 597 582 L207 582 L207 0 L128 0 L128 1443 L597 1443 Z M207 654 L584 654 Q675 654 748.5 678.5 Q822 703 873.5 749.5 Q925 796 952.5 862.5 Q980 929 980 1012 Q980 1096 952.5 1162.5 Q925 1229 873.5 1275.5 Q822 1322 748.5 1346.5 Q675 1371 584 1371 L207 1371 L207 654 Z M493 1563 Q461 1563 438.5 1585 Q416 1607 416 1639 Q416 1671 438.5 1693 Q461 1715 493 1715 Q525 1715 547.5 1693 Q570 1671 570 1639 Q570 1607 547.5 1585 Q525 1563 493 1563 Z " />
<glyph glyph-name="Pacute" unicode="&#x1e54;" horiz-adv-x="1116" d="M447 1553 L726 1843 L822 1843 L525 1553 L447 1553 Z M597 1443 Q702 1443 788 1412.5 Q874 1382 934.5 1325.5 Q995 1269 1028 1189.5 Q1061 1110 1061 1012 Q1061 914 1028 834.5 Q995 755 934 699 Q873 643 787.5 612.5 Q702 582 597 582 L207 582 L207 0 L128 0 L128 1443 L597 1443 Z M207 654 L584 654 Q675 654 748.5 678.5 Q822 703 873.5 749.5 Q925 796 952.5 862.5 Q980 929 980 1012 Q980 1096 952.5 1162.5 Q925 1229 873.5 1275.5 Q822 1322 748.5 1346.5 Q675 1371 584 1371 L207 1371 L207 654 Z " />
<glyph glyph-name="Q" unicode="Q" horiz-adv-x="1420" d="M1153 -177 L994 40 Q866 -21 710 -21 Q562 -21 443 31 Q324 83 240.5 179.5 Q157 276 112 413.5 Q67 551 67 722 Q67 892 112 1029.5 Q157 1167 241 1263.5 Q325 1360 444 1412 Q563 1464 710 1464 Q857 1464 976 1412 Q1095 1360 1179 1263.5 Q1263 1167 1308 1029.5 Q1353 892 1353 722 Q1353 499 1276.5 333 Q1200 167 1059 76 L1244 -177 L1153 -177 Z M710 53 Q842 53 948 103 L752 372 L843 372 L1013 139 Q1139 221 1205 371 Q1271 521 1271 722 Q1271 875 1231.5 998.5 Q1192 1122 1119 1209 Q1046 1296 942.5 1343 Q839 1390 710 1390 Q581 1390 477.5 1343 Q374 1296 300.5 1209 Q227 1122 187.5 998.5 Q148 875 148 722 Q148 569 187.5 445 Q227 321 300.5 234 Q374 147 478 100 Q582 53 710 53 Z " />
<glyph glyph-name="R" unicode="R" horiz-adv-x="1150" d="M207 688 L594 688 Q685 688 756.5 711.5 Q828 735 878 779 Q928 823 954.5 886 Q981 949 981 1029 Q981 1110 954 1173.5 Q927 1237 877 1281 Q827 1325 755 1348 Q683 1371 592 1371 L207 1371 L207 688 Z M207 0 L128 0 L128 1443 L599 1443 Q706 1443 792 1414.5 Q878 1386 938 1332.5 Q998 1279 1030 1202.5 Q1062 1126 1062 1031 Q1062 953 1039.5 886.5 Q1017 820 974 768.5 Q931 717 869 682 Q807 647 728 631 L1099 0 L1006 0 L645 619 Q635 617 620 616.5 Q605 616 594 616 L207 616 L207 0 Z " />
<glyph glyph-name="Rcaron" unicode="&#x158;" horiz-adv-x="1150" d="M207 688 L594 688 Q685 688 756.5 711.5 Q828 735 878 779 Q928 823 954.5 886 Q981 949 981 1029 Q981 1110 954 1173.5 Q927 1237 877 1281 Q827 1325 755 1348 Q683 1371 592 1371 L207 1371 L207 688 Z M207 0 L128 0 L128 1443 L599 1443 Q706 1443 792 1414.5 Q878 1386 938 1332.5 Q998 1279 1030 1202.5 Q1062 1126 1062 1031 Q1062 953 1039.5 886.5 Q1017 820 974 768.5 Q931 717 869 682 Q807 647 728 631 L1099 0 L1006 0 L645 619 Q635 617 620 616.5 Q605 616 594 616 L207 616 L207 0 Z M190 1843 L273 1843 L494 1604 L496 1604 L717 1843 L800 1843 L529 1553 L461 1553 L190 1843 Z " />
<glyph glyph-name="Rlinebelow" unicode="&#x1e5e;" horiz-adv-x="1150" d="M207 688 L594 688 Q685 688 756.5 711.5 Q828 735 878 779 Q928 823 954.5 886 Q981 949 981 1029 Q981 1110 954 1173.5 Q927 1237 877 1281 Q827 1325 755 1348 Q683 1371 592 1371 L207 1371 L207 688 Z M207 0 L128 0 L128 1443 L599 1443 Q706 1443 792 1414.5 Q878 1386 938 1332.5 Q998 1279 1030 1202.5 Q1062 1126 1062 1031 Q1062 953 1039.5 886.5 Q1017 820 974 768.5 Q931 717 869 682 Q807 647 728 631 L1099 0 L1006 0 L645 619 Q635 617 620 616.5 Q605 616 594 616 L207 616 L207 0 Z M785 -262 L205 -262 L205 -205 L785 -205 L785 -262 Z " />
<glyph glyph-name="Rdotbelowmacron" unicode="&#x1e5c;" horiz-adv-x="1150" d="M495 -295 Q463 -295 440.5 -273 Q418 -251 418 -219 Q418 -187 440.5 -165 Q463 -143 495 -143 Q527 -143 549.5 -165 Q572 -187 572 -219 Q572 -251 549.5 -273 Q527 -295 495 -295 Z M207 688 L594 688 Q685 688 756.5 711.5 Q828 735 878 779 Q928 823 954.5 886 Q981 949 981 1029 Q981 1110 954 1173.5 Q927 1237 877 1281 Q827 1325 755 1348 Q683 1371 592 1371 L207 1371 L207 688 Z M207 0 L128 0 L128 1443 L599 1443 Q706 1443 792 1414.5 Q878 1386 938 1332.5 Q998 1279 1030 1202.5 Q1062 1126 1062 1031 Q1062 953 1039.5 886.5 Q1017 820 974 768.5 Q931 717 869 682 Q807 647 728 631 L1099 0 L1006 0 L645 619 Q635 617 620 616.5 Q605 616 594 616 L207 616 L207 0 Z M785 1622 L205 1622 L205 1679 L785 1679 L785 1622 Z " />
<glyph glyph-name="Rdblgrave" unicode="&#x210;" horiz-adv-x="1150" d="M286 1843 L379 1843 L659 1553 L584 1553 L286 1843 Z M20 1843 L112 1843 L392 1553 L317 1553 L20 1843 Z M207 688 L594 688 Q685 688 756.5 711.5 Q828 735 878 779 Q928 823 954.5 886 Q981 949 981 1029 Q981 1110 954 1173.5 Q927 1237 877 1281 Q827 1325 755 1348 Q683 1371 592 1371 L207 1371 L207 688 Z M207 0 L128 0 L128 1443 L599 1443 Q706 1443 792 1414.5 Q878 1386 938 1332.5 Q998 1279 1030 1202.5 Q1062 1126 1062 1031 Q1062 953 1039.5 886.5 Q1017 820 974 768.5 Q931 717 869 682 Q807 647 728 631 L1099 0 L1006 0 L645 619 Q635 617 620 616.5 Q605 616 594 616 L207 616 L207 0 Z " />
<glyph glyph-name="Rinvertedbreve" unicode="&#x212;" horiz-adv-x="1150" d="M207 688 L594 688 Q685 688 756.5 711.5 Q828 735 878 779 Q928 823 954.5 886 Q981 949 981 1029 Q981 1110 954 1173.5 Q927 1237 877 1281 Q827 1325 755 1348 Q683 1371 592 1371 L207 1371 L207 688 Z M207 0 L128 0 L128 1443 L599 1443 Q706 1443 792 1414.5 Q878 1386 938 1332.5 Q998 1279 1030 1202.5 Q1062 1126 1062 1031 Q1062 953 1039.5 886.5 Q1017 820 974 768.5 Q931 717 869 682 Q807 647 728 631 L1099 0 L1006 0 L645 619 Q635 617 620 616.5 Q605 616 594 616 L207 616 L207 0 Z M226 1553 Q226 1607 246 1650.5 Q266 1694 302 1724.5 Q338 1755 387 1772 Q436 1789 495 1789 Q553 1789 602.5 1772 Q652 1755 688 1724.5 Q724 1694 744 1650.5 Q764 1607 764 1553 L703 1553 Q703 1591 688 1623.5 Q673 1656 645.5 1680 Q618 1704 579.5 1718 Q541 1732 495 1732 Q448 1732 410 1718 Q372 1704 344.5 1680 Q317 1656 302 1623.5 Q287 1591 287 1553 L226 1553 Z " />
<glyph glyph-name="Racute" unicode="&#x154;" horiz-adv-x="1150" d="M449 1553 L728 1843 L824 1843 L527 1553 L449 1553 Z M207 688 L594 688 Q685 688 756.5 711.5 Q828 735 878 779 Q928 823 954.5 886 Q981 949 981 1029 Q981 1110 954 1173.5 Q927 1237 877 1281 Q827 1325 755 1348 Q683 1371 592 1371 L207 1371 L207 688 Z M207 0 L128 0 L128 1443 L599 1443 Q706 1443 792 1414.5 Q878 1386 938 1332.5 Q998 1279 1030 1202.5 Q1062 1126 1062 1031 Q1062 953 1039.5 886.5 Q1017 820 974 768.5 Q931 717 869 682 Q807 647 728 631 L1099 0 L1006 0 L645 619 Q635 617 620 616.5 Q605 616 594 616 L207 616 L207 0 Z " />
<glyph glyph-name="Rdotbelow" unicode="&#x1e5a;" horiz-adv-x="1150" d="M495 -295 Q463 -295 440.5 -273 Q418 -251 418 -219 Q418 -187 440.5 -165 Q463 -143 495 -143 Q527 -143 549.5 -165 Q572 -187 572 -219 Q572 -251 549.5 -273 Q527 -295 495 -295 Z M207 688 L594 688 Q685 688 756.5 711.5 Q828 735 878 779 Q928 823 954.5 886 Q981 949 981 1029 Q981 1110 954 1173.5 Q927 1237 877 1281 Q827 1325 755 1348 Q683 1371 592 1371 L207 1371 L207 688 Z M207 0 L128 0 L128 1443 L599 1443 Q706 1443 792 1414.5 Q878 1386 938 1332.5 Q998 1279 1030 1202.5 Q1062 1126 1062 1031 Q1062 953 1039.5 886.5 Q1017 820 974 768.5 Q931 717 869 682 Q807 647 728 631 L1099 0 L1006 0 L645 619 Q635 617 620 616.5 Q605 616 594 616 L207 616 L207 0 Z " />
<glyph glyph-name="Rdotaccent" unicode="&#x1e58;" horiz-adv-x="1150" d="M495 1563 Q463 1563 440.5 1585 Q418 1607 418 1639 Q418 1671 440.5 1693 Q463 1715 495 1715 Q527 1715 549.5 1693 Q572 1671 572 1639 Q572 1607 549.5 1585 Q527 1563 495 1563 Z M207 688 L594 688 Q685 688 756.5 711.5 Q828 735 878 779 Q928 823 954.5 886 Q981 949 981 1029 Q981 1110 954 1173.5 Q927 1237 877 1281 Q827 1325 755 1348 Q683 1371 592 1371 L207 1371 L207 688 Z M207 0 L128 0 L128 1443 L599 1443 Q706 1443 792 1414.5 Q878 1386 938 1332.5 Q998 1279 1030 1202.5 Q1062 1126 1062 1031 Q1062 953 1039.5 886.5 Q1017 820 974 768.5 Q931 717 869 682 Q807 647 728 631 L1099 0 L1006 0 L645 619 Q635 617 620 616.5 Q605 616 594 616 L207 616 L207 0 Z " />
<glyph glyph-name="Rcommaaccent" unicode="&#x156;" horiz-adv-x="1150" d="M207 688 L594 688 Q685 688 756.5 711.5 Q828 735 878 779 Q928 823 954.5 886 Q981 949 981 1029 Q981 1110 954 1173.5 Q927 1237 877 1281 Q827 1325 755 1348 Q683 1371 592 1371 L207 1371 L207 688 Z M207 0 L128 0 L128 1443 L599 1443 Q706 1443 792 1414.5 Q878 1386 938 1332.5 Q998 1279 1030 1202.5 Q1062 1126 1062 1031 Q1062 953 1039.5 886.5 Q1017 820 974 768.5 Q931 717 869 682 Q807 647 728 631 L1099 0 L1006 0 L645 619 Q635 617 620 616.5 Q605 616 594 616 L207 616 L207 0 Z M375 -493 L474 -149 L552 -149 L438 -493 L375 -493 Z " />
<glyph glyph-name="S" unicode="S" horiz-adv-x="1137" d="M136 385 Q140 311 175.5 250 Q211 189 270 145 Q329 101 409 76.5 Q489 52 583 52 Q675 52 751.5 76.5 Q828 101 883 145 Q938 189 968.5 248.5 Q999 308 999 379 Q999 436 979.5 481 Q960 526 918 562 Q876 598 811 626.5 Q746 655 655 678 L484 720 Q384 745 311 779 Q238 813 190 856.5 Q142 900 119 954.5 Q96 1009 96 1077 Q96 1161 133 1232 Q170 1303 234 1354.5 Q298 1406 384 1435 Q470 1464 569 1464 Q671 1464 758 1435.5 Q845 1407 909.5 1357.5 Q974 1308 1012 1239.5 Q1050 1171 1053 1092 L974 1092 Q970 1157 937.5 1212 Q905 1267 851 1306.5 Q797 1346 724.5 1368.5 Q652 1391 567 1391 Q486 1391 414.5 1368 Q343 1345 290.5 1303.5 Q238 1262 207.5 1204.5 Q177 1147 177 1079 Q177 971 259 904 Q341 837 515 794 L676 753 Q781 727 857 693.5 Q933 660 982.5 615.5 Q1032 571 1056 514 Q1080 457 1080 385 Q1080 295 1044 220.5 Q1008 146 942 92.5 Q876 39 783 9 Q690 -21 577 -21 Q466 -21 372.5 9 Q279 39 210.5 92.5 Q142 146 101.5 220.5 Q61 295 57 385 L136 385 Z " />
<glyph glyph-name="Scaron" unicode="&#x160;" horiz-adv-x="1137" d="M136 385 Q140 311 175.5 250 Q211 189 270 145 Q329 101 409 76.5 Q489 52 583 52 Q675 52 751.5 76.5 Q828 101 883 145 Q938 189 968.5 248.5 Q999 308 999 379 Q999 436 979.5 481 Q960 526 918 562 Q876 598 811 626.5 Q746 655 655 678 L484 720 Q384 745 311 779 Q238 813 190 856.5 Q142 900 119 954.5 Q96 1009 96 1077 Q96 1161 133 1232 Q170 1303 234 1354.5 Q298 1406 384 1435 Q470 1464 569 1464 Q671 1464 758 1435.5 Q845 1407 909.5 1357.5 Q974 1308 1012 1239.5 Q1050 1171 1053 1092 L974 1092 Q970 1157 937.5 1212 Q905 1267 851 1306.5 Q797 1346 724.5 1368.5 Q652 1391 567 1391 Q486 1391 414.5 1368 Q343 1345 290.5 1303.5 Q238 1262 207.5 1204.5 Q177 1147 177 1079 Q177 971 259 904 Q341 837 515 794 L676 753 Q781 727 857 693.5 Q933 660 982.5 615.5 Q1032 571 1056 514 Q1080 457 1080 385 Q1080 295 1044 220.5 Q1008 146 942 92.5 Q876 39 783 9 Q690 -21 577 -21 Q466 -21 372.5 9 Q279 39 210.5 92.5 Q142 146 101.5 220.5 Q61 295 57 385 L136 385 Z M264 1843 L347 1843 L568 1604 L570 1604 L791 1843 L874 1843 L603 1553 L535 1553 L264 1843 Z " />
<glyph glyph-name="Scedilla" unicode="&#x15e;" horiz-adv-x="1137" d="M676 753 Q781 727 857 693.5 Q933 660 982.5 615.5 Q1032 571 1056 514 Q1080 457 1080 385 Q1080 298 1046 225 Q1012 152 949.5 98.5 Q887 45 799.5 14 Q712 -17 604 -21 L554 -141 Q651 -141 706 -181.5 Q761 -222 761 -293 Q761 -331 745 -362 Q729 -393 700.5 -415.5 Q672 -438 632 -450.5 Q592 -463 544 -463 Q509 -464 474.5 -459.5 Q440 -455 416 -447 L416 -391 Q437 -399 470.5 -403.5 Q504 -408 538 -408 Q572 -408 601 -399.5 Q630 -391 651.5 -376 Q673 -361 685 -340 Q697 -319 697 -295 Q697 -245 656 -219 Q615 -193 537 -193 L485 -193 L485 -150 L540 -20 Q436 -15 349.5 16.5 Q263 48 199 101.5 Q135 155 98 227 Q61 299 57 385 L136 385 Q140 311 175.5 250 Q211 189 270 145 Q329 101 409 76.5 Q489 52 583 52 Q675 52 751.5 76.5 Q828 101 883 145 Q938 189 968.5 248.5 Q999 308 999 379 Q999 436 979.5 481 Q960 526 918 562 Q876 598 811 626.5 Q746 655 655 678 L484 720 Q384 745 311 779 Q238 813 190 856.5 Q142 900 119 954.5 Q96 1009 96 1077 Q96 1161 133 1232 Q170 1303 234 1354.5 Q298 1406 384 1435 Q470 1464 569 1464 Q671 1464 758 1435.5 Q845 1407 909.5 1357.5 Q974 1308 1012 1239.5 Q1050 1171 1053 1092 L974 1092 Q970 1157 937.5 1212 Q905 1267 851 1306.5 Q797 1346 724.5 1368.5 Q652 1391 567 1391 Q486 1391 414.5 1368 Q343 1345 290.5 1303.5 Q238 1262 207.5 1204.5 Q177 1147 177 1079 Q177 971 259 904 Q341 837 515 794 L676 753 Z " />
<glyph glyph-name="Sdotaccent" unicode="&#x1e60;" horiz-adv-x="1137" d="M569 1563 Q537 1563 514.5 1585 Q492 1607 492 1639 Q492 1671 514.5 1693 Q537 1715 569 1715 Q601 1715 623.5 1693 Q646 1671 646 1639 Q646 1607 623.5 1585 Q601 1563 569 1563 Z M136 385 Q140 311 175.5 250 Q211 189 270 145 Q329 101 409 76.5 Q489 52 583 52 Q675 52 751.5 76.5 Q828 101 883 145 Q938 189 968.5 248.5 Q999 308 999 379 Q999 436 979.5 481 Q960 526 918 562 Q876 598 811 626.5 Q746 655 655 678 L484 720 Q384 745 311 779 Q238 813 190 856.5 Q142 900 119 954.5 Q96 1009 96 1077 Q96 1161 133 1232 Q170 1303 234 1354.5 Q298 1406 384 1435 Q470 1464 569 1464 Q671 1464 758 1435.5 Q845 1407 909.5 1357.5 Q974 1308 1012 1239.5 Q1050 1171 1053 1092 L974 1092 Q970 1157 937.5 1212 Q905 1267 851 1306.5 Q797 1346 724.5 1368.5 Q652 1391 567 1391 Q486 1391 414.5 1368 Q343 1345 290.5 1303.5 Q238 1262 207.5 1204.5 Q177 1147 177 1079 Q177 971 259 904 Q341 837 515 794 L676 753 Q781 727 857 693.5 Q933 660 982.5 615.5 Q1032 571 1056 514 Q1080 457 1080 385 Q1080 295 1044 220.5 Q1008 146 942 92.5 Q876 39 783 9 Q690 -21 577 -21 Q466 -21 372.5 9 Q279 39 210.5 92.5 Q142 146 101.5 220.5 Q61 295 57 385 L136 385 Z " />
<glyph glyph-name="Sdotbelow" unicode="&#x1e62;" horiz-adv-x="1137" d="M578 -295 Q546 -295 523.5 -273 Q501 -251 501 -219 Q501 -187 523.5 -165 Q546 -143 578 -143 Q610 -143 632.5 -165 Q655 -187 655 -219 Q655 -251 632.5 -273 Q610 -295 578 -295 Z M136 385 Q140 311 175.5 250 Q211 189 270 145 Q329 101 409 76.5 Q489 52 583 52 Q675 52 751.5 76.5 Q828 101 883 145 Q938 189 968.5 248.5 Q999 308 999 379 Q999 436 979.5 481 Q960 526 918 562 Q876 598 811 626.5 Q746 655 655 678 L484 720 Q384 745 311 779 Q238 813 190 856.5 Q142 900 119 954.5 Q96 1009 96 1077 Q96 1161 133 1232 Q170 1303 234 1354.5 Q298 1406 384 1435 Q470 1464 569 1464 Q671 1464 758 1435.5 Q845 1407 909.5 1357.5 Q974 1308 1012 1239.5 Q1050 1171 1053 1092 L974 1092 Q970 1157 937.5 1212 Q905 1267 851 1306.5 Q797 1346 724.5 1368.5 Q652 1391 567 1391 Q486 1391 414.5 1368 Q343 1345 290.5 1303.5 Q238 1262 207.5 1204.5 Q177 1147 177 1079 Q177 971 259 904 Q341 837 515 794 L676 753 Q781 727 857 693.5 Q933 660 982.5 615.5 Q1032 571 1056 514 Q1080 457 1080 385 Q1080 295 1044 220.5 Q1008 146 942 92.5 Q876 39 783 9 Q690 -21 577 -21 Q466 -21 372.5 9 Q279 39 210.5 92.5 Q142 146 101.5 220.5 Q61 295 57 385 L136 385 Z " />
<glyph glyph-name="Scommaaccent" unicode="&#x218;" horiz-adv-x="1137" d="M136 385 Q140 311 175.5 250 Q211 189 270 145 Q329 101 409 76.5 Q489 52 583 52 Q675 52 751.5 76.5 Q828 101 883 145 Q938 189 968.5 248.5 Q999 308 999 379 Q999 436 979.5 481 Q960 526 918 562 Q876 598 811 626.5 Q746 655 655 678 L484 720 Q384 745 311 779 Q238 813 190 856.5 Q142 900 119 954.5 Q96 1009 96 1077 Q96 1161 133 1232 Q170 1303 234 1354.5 Q298 1406 384 1435 Q470 1464 569 1464 Q671 1464 758 1435.5 Q845 1407 909.5 1357.5 Q974 1308 1012 1239.5 Q1050 1171 1053 1092 L974 1092 Q970 1157 937.5 1212 Q905 1267 851 1306.5 Q797 1346 724.5 1368.5 Q652 1391 567 1391 Q486 1391 414.5 1368 Q343 1345 290.5 1303.5 Q238 1262 207.5 1204.5 Q177 1147 177 1079 Q177 971 259 904 Q341 837 515 794 L676 753 Q781 727 857 693.5 Q933 660 982.5 615.5 Q1032 571 1056 514 Q1080 457 1080 385 Q1080 295 1044 220.5 Q1008 146 942 92.5 Q876 39 783 9 Q690 -21 577 -21 Q466 -21 372.5 9 Q279 39 210.5 92.5 Q142 146 101.5 220.5 Q61 295 57 385 L136 385 Z M458 -493 L557 -149 L635 -149 L521 -493 L458 -493 Z " />
<glyph glyph-name="Sdotbelowdotaccent" unicode="&#x1e68;" horiz-adv-x="1137" d="M578 -295 Q546 -295 523.5 -273 Q501 -251 501 -219 Q501 -187 523.5 -165 Q546 -143 578 -143 Q610 -143 632.5 -165 Q655 -187 655 -219 Q655 -251 632.5 -273 Q610 -295 578 -295 Z M136 385 Q140 311 175.5 250 Q211 189 270 145 Q329 101 409 76.5 Q489 52 583 52 Q675 52 751.5 76.5 Q828 101 883 145 Q938 189 968.5 248.5 Q999 308 999 379 Q999 436 979.5 481 Q960 526 918 562 Q876 598 811 626.5 Q746 655 655 678 L484 720 Q384 745 311 779 Q238 813 190 856.5 Q142 900 119 954.5 Q96 1009 96 1077 Q96 1161 133 1232 Q170 1303 234 1354.5 Q298 1406 384 1435 Q470 1464 569 1464 Q671 1464 758 1435.5 Q845 1407 909.5 1357.5 Q974 1308 1012 1239.5 Q1050 1171 1053 1092 L974 1092 Q970 1157 937.5 1212 Q905 1267 851 1306.5 Q797 1346 724.5 1368.5 Q652 1391 567 1391 Q486 1391 414.5 1368 Q343 1345 290.5 1303.5 Q238 1262 207.5 1204.5 Q177 1147 177 1079 Q177 971 259 904 Q341 837 515 794 L676 753 Q781 727 857 693.5 Q933 660 982.5 615.5 Q1032 571 1056 514 Q1080 457 1080 385 Q1080 295 1044 220.5 Q1008 146 942 92.5 Q876 39 783 9 Q690 -21 577 -21 Q466 -21 372.5 9 Q279 39 210.5 92.5 Q142 146 101.5 220.5 Q61 295 57 385 L136 385 Z M569 1563 Q537 1563 514.5 1585 Q492 1607 492 1639 Q492 1671 514.5 1693 Q537 1715 569 1715 Q601 1715 623.5 1693 Q646 1671 646 1639 Q646 1607 623.5 1585 Q601 1563 569 1563 Z " />
<glyph glyph-name="Scarondotaccent" unicode="&#x1e66;" horiz-adv-x="1137" d="M268 1768 L361 1768 L566 1607 L572 1607 L777 1768 L870 1768 L604 1560 L534 1560 L268 1768 Z M569 1833 Q539 1833 517 1854.5 Q495 1876 495 1906 Q495 1936 517 1957.5 Q539 1979 569 1979 Q599 1979 621 1957.5 Q643 1936 643 1906 Q643 1876 621 1854.5 Q599 1833 569 1833 Z M136 385 Q140 311 175.5 250 Q211 189 270 145 Q329 101 409 76.5 Q489 52 583 52 Q675 52 751.5 76.5 Q828 101 883 145 Q938 189 968.5 248.5 Q999 308 999 379 Q999 436 979.5 481 Q960 526 918 562 Q876 598 811 626.5 Q746 655 655 678 L484 720 Q384 745 311 779 Q238 813 190 856.5 Q142 900 119 954.5 Q96 1009 96 1077 Q96 1161 133 1232 Q170 1303 234 1354.5 Q298 1406 384 1435 Q470 1464 569 1464 Q671 1464 758 1435.5 Q845 1407 909.5 1357.5 Q974 1308 1012 1239.5 Q1050 1171 1053 1092 L974 1092 Q970 1157 937.5 1212 Q905 1267 851 1306.5 Q797 1346 724.5 1368.5 Q652 1391 567 1391 Q486 1391 414.5 1368 Q343 1345 290.5 1303.5 Q238 1262 207.5 1204.5 Q177 1147 177 1079 Q177 971 259 904 Q341 837 515 794 L676 753 Q781 727 857 693.5 Q933 660 982.5 615.5 Q1032 571 1056 514 Q1080 457 1080 385 Q1080 295 1044 220.5 Q1008 146 942 92.5 Q876 39 783 9 Q690 -21 577 -21 Q466 -21 372.5 9 Q279 39 210.5 92.5 Q142 146 101.5 220.5 Q61 295 57 385 L136 385 Z " />
<glyph glyph-name="Scircumflex" unicode="&#x15c;" horiz-adv-x="1137" d="M136 385 Q140 311 175.5 250 Q211 189 270 145 Q329 101 409 76.5 Q489 52 583 52 Q675 52 751.5 76.5 Q828 101 883 145 Q938 189 968.5 248.5 Q999 308 999 379 Q999 436 979.5 481 Q960 526 918 562 Q876 598 811 626.5 Q746 655 655 678 L484 720 Q384 745 311 779 Q238 813 190 856.5 Q142 900 119 954.5 Q96 1009 96 1077 Q96 1161 133 1232 Q170 1303 234 1354.5 Q298 1406 384 1435 Q470 1464 569 1464 Q671 1464 758 1435.5 Q845 1407 909.5 1357.5 Q974 1308 1012 1239.5 Q1050 1171 1053 1092 L974 1092 Q970 1157 937.5 1212 Q905 1267 851 1306.5 Q797 1346 724.5 1368.5 Q652 1391 567 1391 Q486 1391 414.5 1368 Q343 1345 290.5 1303.5 Q238 1262 207.5 1204.5 Q177 1147 177 1079 Q177 971 259 904 Q341 837 515 794 L676 753 Q781 727 857 693.5 Q933 660 982.5 615.5 Q1032 571 1056 514 Q1080 457 1080 385 Q1080 295 1044 220.5 Q1008 146 942 92.5 Q876 39 783 9 Q690 -21 577 -21 Q466 -21 372.5 9 Q279 39 210.5 92.5 Q142 146 101.5 220.5 Q61 295 57 385 L136 385 Z M603 1843 L874 1553 L791 1553 L570 1791 L568 1791 L347 1553 L264 1553 L535 1843 L603 1843 Z " />
<glyph glyph-name="Sacutedotaccent" unicode="&#x1e64;" horiz-adv-x="1137" d="M571 1553 L850 1843 L946 1843 L649 1553 L571 1553 Z M434 1622 Q402 1622 379.5 1644 Q357 1666 357 1698 Q357 1730 379.5 1752 Q402 1774 434 1774 Q466 1774 488.5 1752 Q511 1730 511 1698 Q511 1666 488.5 1644 Q466 1622 434 1622 Z M136 385 Q140 311 175.5 250 Q211 189 270 145 Q329 101 409 76.5 Q489 52 583 52 Q675 52 751.5 76.5 Q828 101 883 145 Q938 189 968.5 248.5 Q999 308 999 379 Q999 436 979.5 481 Q960 526 918 562 Q876 598 811 626.5 Q746 655 655 678 L484 720 Q384 745 311 779 Q238 813 190 856.5 Q142 900 119 954.5 Q96 1009 96 1077 Q96 1161 133 1232 Q170 1303 234 1354.5 Q298 1406 384 1435 Q470 1464 569 1464 Q671 1464 758 1435.5 Q845 1407 909.5 1357.5 Q974 1308 1012 1239.5 Q1050 1171 1053 1092 L974 1092 Q970 1157 937.5 1212 Q905 1267 851 1306.5 Q797 1346 724.5 1368.5 Q652 1391 567 1391 Q486 1391 414.5 1368 Q343 1345 290.5 1303.5 Q238 1262 207.5 1204.5 Q177 1147 177 1079 Q177 971 259 904 Q341 837 515 794 L676 753 Q781 727 857 693.5 Q933 660 982.5 615.5 Q1032 571 1056 514 Q1080 457 1080 385 Q1080 295 1044 220.5 Q1008 146 942 92.5 Q876 39 783 9 Q690 -21 577 -21 Q466 -21 372.5 9 Q279 39 210.5 92.5 Q142 146 101.5 220.5 Q61 295 57 385 L136 385 Z " />
<glyph glyph-name="Sacute" unicode="&#x15a;" horiz-adv-x="1137" d="M523 1553 L802 1843 L898 1843 L601 1553 L523 1553 Z M136 385 Q140 311 175.5 250 Q211 189 270 145 Q329 101 409 76.5 Q489 52 583 52 Q675 52 751.5 76.5 Q828 101 883 145 Q938 189 968.5 248.5 Q999 308 999 379 Q999 436 979.5 481 Q960 526 918 562 Q876 598 811 626.5 Q746 655 655 678 L484 720 Q384 745 311 779 Q238 813 190 856.5 Q142 900 119 954.5 Q96 1009 96 1077 Q96 1161 133 1232 Q170 1303 234 1354.5 Q298 1406 384 1435 Q470 1464 569 1464 Q671 1464 758 1435.5 Q845 1407 909.5 1357.5 Q974 1308 1012 1239.5 Q1050 1171 1053 1092 L974 1092 Q970 1157 937.5 1212 Q905 1267 851 1306.5 Q797 1346 724.5 1368.5 Q652 1391 567 1391 Q486 1391 414.5 1368 Q343 1345 290.5 1303.5 Q238 1262 207.5 1204.5 Q177 1147 177 1079 Q177 971 259 904 Q341 837 515 794 L676 753 Q781 727 857 693.5 Q933 660 982.5 615.5 Q1032 571 1056 514 Q1080 457 1080 385 Q1080 295 1044 220.5 Q1008 146 942 92.5 Q876 39 783 9 Q690 -21 577 -21 Q466 -21 372.5 9 Q279 39 210.5 92.5 Q142 146 101.5 220.5 Q61 295 57 385 L136 385 Z " />
<glyph glyph-name="T" unicode="T" horiz-adv-x="1138" d="M529 0 L529 1370 L21 1370 L21 1443 L1117 1443 L1117 1370 L609 1370 L609 0 L529 0 Z " />
<glyph glyph-name="Tcircumflexbelow" unicode="&#x1e70;" horiz-adv-x="1138" d="M529 0 L529 1370 L21 1370 L21 1443 L1117 1443 L1117 1370 L609 1370 L609 0 L529 0 Z M603 -147 L874 -437 L791 -437 L570 -199 L568 -199 L347 -437 L264 -437 L535 -147 L603 -147 Z " />
<glyph glyph-name="Tdotbelow" unicode="&#x1e6c;" horiz-adv-x="1138" d="M569 -295 Q537 -295 514.5 -273 Q492 -251 492 -219 Q492 -187 514.5 -165 Q537 -143 569 -143 Q601 -143 623.5 -165 Q646 -187 646 -219 Q646 -251 623.5 -273 Q601 -295 569 -295 Z M529 0 L529 1370 L21 1370 L21 1443 L1117 1443 L1117 1370 L609 1370 L609 0 L529 0 Z " />
<glyph glyph-name="Tcommaaccent" unicode="&#x21a;" horiz-adv-x="1138" d="M449 -493 L548 -149 L626 -149 L512 -493 L449 -493 Z M529 0 L529 1370 L21 1370 L21 1443 L1117 1443 L1117 1370 L609 1370 L609 0 L529 0 Z " />
<glyph glyph-name="Tdotaccent" unicode="&#x1e6a;" horiz-adv-x="1138" d="M569 1563 Q537 1563 514.5 1585 Q492 1607 492 1639 Q492 1671 514.5 1693 Q537 1715 569 1715 Q601 1715 623.5 1693 Q646 1671 646 1639 Q646 1607 623.5 1585 Q601 1563 569 1563 Z M529 0 L529 1370 L21 1370 L21 1443 L1117 1443 L1117 1370 L609 1370 L609 0 L529 0 Z " />
<glyph glyph-name="Tcedilla" unicode="&#x162;" horiz-adv-x="1138" d="M603 0 L545 -141 Q642 -141 697 -181.5 Q752 -222 752 -293 Q752 -331 736 -362 Q720 -393 691.5 -415.5 Q663 -438 623 -450.5 Q583 -463 535 -463 Q500 -464 465.5 -459.5 Q431 -455 407 -447 L407 -391 Q428 -399 461.5 -403.5 Q495 -408 529 -408 Q563 -408 592 -399.5 Q621 -391 642.5 -376 Q664 -361 676 -340 Q688 -319 688 -295 Q688 -245 647 -219 Q606 -193 528 -193 L476 -193 L476 -150 L540 0 L529 0 L529 1370 L21 1370 L21 1443 L1117 1443 L1117 1370 L609 1370 L609 0 L603 0 Z " />
<glyph glyph-name="Tlinebelow" unicode="&#x1e6e;" horiz-adv-x="1138" d="M859 -262 L279 -262 L279 -205 L859 -205 L859 -262 Z M529 0 L529 1370 L21 1370 L21 1443 L1117 1443 L1117 1370 L609 1370 L609 0 L529 0 Z " />
<glyph glyph-name="Tcaron" unicode="&#x164;" horiz-adv-x="1138" d="M264 1843 L347 1843 L568 1604 L570 1604 L791 1843 L874 1843 L603 1553 L535 1553 L264 1843 Z M529 0 L529 1370 L21 1370 L21 1443 L1117 1443 L1117 1370 L609 1370 L609 0 L529 0 Z " />
<glyph glyph-name="Tbar" unicode="&#x166;" horiz-adv-x="1149" d="M609 1370 L609 782 L916 782 L916 715 L609 715 L609 0 L529 0 L529 715 L234 715 L234 782 L529 782 L529 1370 L21 1370 L21 1443 L1117 1443 L1117 1370 L609 1370 Z " />
<glyph glyph-name="U" unicode="U" horiz-adv-x="1334" d="M207 504 Q207 401 239 317.5 Q271 234 330.5 175.5 Q390 117 475 85 Q560 53 667 53 Q773 53 858.5 85 Q944 117 1003.5 175.5 Q1063 234 1095 317.5 Q1127 401 1127 504 L1127 1443 L1206 1443 L1206 501 Q1206 383 1168.5 286.5 Q1131 190 1061 122 Q991 54 891 16.5 Q791 -21 667 -21 Q542 -21 442.5 16.5 Q343 54 273 122 Q203 190 165.5 286.5 Q128 383 128 501 L128 1443 L207 1443 L207 504 Z " />
<glyph glyph-name="Ugrave" unicode="&#xd9;" horiz-adv-x="1332" d="M338 1843 L433 1843 L713 1553 L635 1553 L338 1843 Z M207 504 Q207 401 239 317.5 Q271 234 330.5 175.5 Q390 117 475 85 Q560 53 667 53 Q773 53 858.5 85 Q944 117 1003.5 175.5 Q1063 234 1095 317.5 Q1127 401 1127 504 L1127 1443 L1206 1443 L1206 501 Q1206 383 1168.5 286.5 Q1131 190 1061 122 Q991 54 891 16.5 Q791 -21 667 -21 Q542 -21 442.5 16.5 Q343 54 273 122 Q203 190 165.5 286.5 Q128 383 128 501 L128 1443 L207 1443 L207 504 Z " />
<glyph glyph-name="Udblgrave" unicode="&#x214;" horiz-adv-x="1332" d="M457 1843 L550 1843 L830 1553 L755 1553 L457 1843 Z M191 1843 L283 1843 L563 1553 L488 1553 L191 1843 Z M207 504 Q207 401 239 317.5 Q271 234 330.5 175.5 Q390 117 475 85 Q560 53 667 53 Q773 53 858.5 85 Q944 117 1003.5 175.5 Q1063 234 1095 317.5 Q1127 401 1127 504 L1127 1443 L1206 1443 L1206 501 Q1206 383 1168.5 286.5 Q1131 190 1061 122 Q991 54 891 16.5 Q791 -21 667 -21 Q542 -21 442.5 16.5 Q343 54 273 122 Q203 190 165.5 286.5 Q128 383 128 501 L128 1443 L207 1443 L207 504 Z " />
<glyph glyph-name="Uacute" unicode="&#xda;" horiz-adv-x="1332" d="M620 1553 L899 1843 L995 1843 L698 1553 L620 1553 Z M207 504 Q207 401 239 317.5 Q271 234 330.5 175.5 Q390 117 475 85 Q560 53 667 53 Q773 53 858.5 85 Q944 117 1003.5 175.5 Q1063 234 1095 317.5 Q1127 401 1127 504 L1127 1443 L1206 1443 L1206 501 Q1206 383 1168.5 286.5 Q1131 190 1061 122 Q991 54 891 16.5 Q791 -21 667 -21 Q542 -21 442.5 16.5 Q343 54 273 122 Q203 190 165.5 286.5 Q128 383 128 501 L128 1443 L207 1443 L207 504 Z " />
<glyph glyph-name="Uhungarumlaut" unicode="&#x170;" horiz-adv-x="1332" d="M207 504 Q207 401 239 317.5 Q271 234 330.5 175.5 Q390 117 475 85 Q560 53 667 53 Q773 53 858.5 85 Q944 117 1003.5 175.5 Q1063 234 1095 317.5 Q1127 401 1127 504 L1127 1443 L1206 1443 L1206 501 Q1206 383 1168.5 286.5 Q1131 190 1061 122 Q991 54 891 16.5 Q791 -21 667 -21 Q542 -21 442.5 16.5 Q343 54 273 122 Q203 190 165.5 286.5 Q128 383 128 501 L128 1443 L207 1443 L207 504 Z M769 1553 L1049 1843 L1141 1843 L844 1553 L769 1553 Z M502 1553 L782 1843 L875 1843 L577 1553 L502 1553 Z " />
<glyph glyph-name="Ucircumflex" unicode="&#xdb;" horiz-adv-x="1332" d="M700 1843 L971 1553 L888 1553 L667 1791 L665 1791 L444 1553 L361 1553 L632 1843 L700 1843 Z M207 504 Q207 401 239 317.5 Q271 234 330.5 175.5 Q390 117 475 85 Q560 53 667 53 Q773 53 858.5 85 Q944 117 1003.5 175.5 Q1063 234 1095 317.5 Q1127 401 1127 504 L1127 1443 L1206 1443 L1206 501 Q1206 383 1168.5 286.5 Q1131 190 1061 122 Q991 54 891 16.5 Q791 -21 667 -21 Q542 -21 442.5 16.5 Q343 54 273 122 Q203 190 165.5 286.5 Q128 383 128 501 L128 1443 L207 1443 L207 504 Z " />
<glyph glyph-name="Ucaron" unicode="&#x1d3;" horiz-adv-x="1332" d="M361 1843 L444 1843 L665 1604 L667 1604 L888 1843 L971 1843 L700 1553 L632 1553 L361 1843 Z M207 504 Q207 401 239 317.5 Q271 234 330.5 175.5 Q390 117 475 85 Q560 53 667 53 Q773 53 858.5 85 Q944 117 1003.5 175.5 Q1063 234 1095 317.5 Q1127 401 1127 504 L1127 1443 L1206 1443 L1206 501 Q1206 383 1168.5 286.5 Q1131 190 1061 122 Q991 54 891 16.5 Q791 -21 667 -21 Q542 -21 442.5 16.5 Q343 54 273 122 Q203 190 165.5 286.5 Q128 383 128 501 L128 1443 L207 1443 L207 504 Z " />
<glyph glyph-name="Ucircumflexbelow" unicode="&#x1e76;" horiz-adv-x="1332" d="M207 504 Q207 401 239 317.5 Q271 234 330.5 175.5 Q390 117 475 85 Q560 53 667 53 Q773 53 858.5 85 Q944 117 1003.5 175.5 Q1063 234 1095 317.5 Q1127 401 1127 504 L1127 1443 L1206 1443 L1206 501 Q1206 383 1168.5 286.5 Q1131 190 1061 122 Q991 54 891 16.5 Q791 -21 667 -21 Q542 -21 442.5 16.5 Q343 54 273 122 Q203 190 165.5 286.5 Q128 383 128 501 L128 1443 L207 1443 L207 504 Z M700 -147 L971 -437 L888 -437 L667 -199 L665 -199 L444 -437 L361 -437 L632 -147 L700 -147 Z " />
<glyph glyph-name="Udieresis" unicode="&#xdc;" horiz-adv-x="1332" d="M514 1563 Q486 1563 466 1582.5 Q446 1602 446 1630 Q446 1657 466 1676.5 Q486 1696 514 1696 Q541 1696 561 1676.5 Q581 1657 581 1630 Q581 1602 561 1582.5 Q541 1563 514 1563 Z M818 1563 Q791 1563 771 1582.5 Q751 1602 751 1630 Q751 1657 771 1676.5 Q791 1696 818 1696 Q846 1696 866 1676.5 Q886 1657 886 1630 Q886 1602 866 1582.5 Q846 1563 818 1563 Z M207 504 Q207 401 239 317.5 Q271 234 330.5 175.5 Q390 117 475 85 Q560 53 667 53 Q773 53 858.5 85 Q944 117 1003.5 175.5 Q1063 234 1095 317.5 Q1127 401 1127 504 L1127 1443 L1206 1443 L1206 501 Q1206 383 1168.5 286.5 Q1131 190 1061 122 Q991 54 891 16.5 Q791 -21 667 -21 Q542 -21 442.5 16.5 Q343 54 273 122 Q203 190 165.5 286.5 Q128 383 128 501 L128 1443 L207 1443 L207 504 Z " />
<glyph glyph-name="Udieresisgrave" unicode="&#x1db;" horiz-adv-x="1332" d="M641 1776 L417 1979 L508 1979 L715 1776 L641 1776 Z M517 1565 Q491 1565 472 1583.5 Q453 1602 453 1628 Q453 1654 472 1672.5 Q491 1691 517 1691 Q543 1691 561.5 1672.5 Q580 1654 580 1628 Q580 1602 561.5 1583.5 Q543 1565 517 1565 Z M815 1565 Q789 1565 770.5 1583.5 Q752 1602 752 1628 Q752 1654 770.5 1672.5 Q789 1691 815 1691 Q841 1691 860 1672.5 Q879 1654 879 1628 Q879 1602 860 1583.5 Q841 1565 815 1565 Z M207 504 Q207 401 239 317.5 Q271 234 330.5 175.5 Q390 117 475 85 Q560 53 667 53 Q773 53 858.5 85 Q944 117 1003.5 175.5 Q1063 234 1095 317.5 Q1127 401 1127 504 L1127 1443 L1206 1443 L1206 501 Q1206 383 1168.5 286.5 Q1131 190 1061 122 Q991 54 891 16.5 Q791 -21 667 -21 Q542 -21 442.5 16.5 Q343 54 273 122 Q203 190 165.5 286.5 Q128 383 128 501 L128 1443 L207 1443 L207 504 Z " />
<glyph glyph-name="Udieresisacute" unicode="&#x1d7;" horiz-adv-x="1332" d="M824 1979 L915 1979 L691 1776 L617 1776 L824 1979 Z M517 1565 Q491 1565 472 1583.5 Q453 1602 453 1628 Q453 1654 472 1672.5 Q491 1691 517 1691 Q543 1691 561.5 1672.5 Q580 1654 580 1628 Q580 1602 561.5 1583.5 Q543 1565 517 1565 Z M815 1565 Q789 1565 770.5 1583.5 Q752 1602 752 1628 Q752 1654 770.5 1672.5 Q789 1691 815 1691 Q841 1691 860 1672.5 Q879 1654 879 1628 Q879 1602 860 1583.5 Q841 1565 815 1565 Z M207 504 Q207 401 239 317.5 Q271 234 330.5 175.5 Q390 117 475 85 Q560 53 667 53 Q773 53 858.5 85 Q944 117 1003.5 175.5 Q1063 234 1095 317.5 Q1127 401 1127 504 L1127 1443 L1206 1443 L1206 501 Q1206 383 1168.5 286.5 Q1131 190 1061 122 Q991 54 891 16.5 Q791 -21 667 -21 Q542 -21 442.5 16.5 Q343 54 273 122 Q203 190 165.5 286.5 Q128 383 128 501 L128 1443 L207 1443 L207 504 Z " />
<glyph glyph-name="Udieresismacron" unicode="&#x1d5;" horiz-adv-x="1332" d="M207 504 Q207 401 239 317.5 Q271 234 330.5 175.5 Q390 117 475 85 Q560 53 667 53 Q773 53 858.5 85 Q944 117 1003.5 175.5 Q1063 234 1095 317.5 Q1127 401 1127 504 L1127 1443 L1206 1443 L1206 501 Q1206 383 1168.5 286.5 Q1131 190 1061 122 Q991 54 891 16.5 Q791 -21 667 -21 Q542 -21 442.5 16.5 Q343 54 273 122 Q203 190 165.5 286.5 Q128 383 128 501 L128 1443 L207 1443 L207 504 Z M517 1691 Q543 1691 561.5 1672.5 Q580 1654 580 1628 Q580 1602 561.5 1583.5 Q543 1565 517 1565 Q491 1565 472 1583.5 Q453 1602 453 1628 Q453 1654 472 1672.5 Q491 1691 517 1691 Z M956 1919 L956 1862 L376 1862 L376 1919 L956 1919 Z M815 1691 Q841 1691 860 1672.5 Q879 1654 879 1628 Q879 1602 860 1583.5 Q841 1565 815 1565 Q789 1565 770.5 1583.5 Q752 1602 752 1628 Q752 1654 770.5 1672.5 Q789 1691 815 1691 Z " />
<glyph glyph-name="Udieresiscaron" unicode="&#x1d9;" horiz-adv-x="1332" d="M365 1979 L458 1979 L663 1822 L669 1822 L874 1979 L967 1979 L701 1776 L631 1776 L365 1979 Z M517 1691 Q543 1691 561.5 1672.5 Q580 1654 580 1628 Q580 1602 561.5 1583.5 Q543 1565 517 1565 Q491 1565 472 1583.5 Q453 1602 453 1628 Q453 1654 472 1672.5 Q491 1691 517 1691 Z M815 1691 Q841 1691 860 1672.5 Q879 1654 879 1628 Q879 1602 860 1583.5 Q841 1565 815 1565 Q789 1565 770.5 1583.5 Q752 1602 752 1628 Q752 1654 770.5 1672.5 Q789 1691 815 1691 Z M207 504 Q207 401 239 317.5 Q271 234 330.5 175.5 Q390 117 475 85 Q560 53 667 53 Q773 53 858.5 85 Q944 117 1003.5 175.5 Q1063 234 1095 317.5 Q1127 401 1127 504 L1127 1443 L1206 1443 L1206 501 Q1206 383 1168.5 286.5 Q1131 190 1061 122 Q991 54 891 16.5 Q791 -21 667 -21 Q542 -21 442.5 16.5 Q343 54 273 122 Q203 190 165.5 286.5 Q128 383 128 501 L128 1443 L207 1443 L207 504 Z " />
<glyph glyph-name="Udieresisbelow" unicode="&#x1e72;" horiz-adv-x="1332" d="M207 504 Q207 401 239 317.5 Q271 234 330.5 175.5 Q390 117 475 85 Q560 53 667 53 Q773 53 858.5 85 Q944 117 1003.5 175.5 Q1063 234 1095 317.5 Q1127 401 1127 504 L1127 1443 L1206 1443 L1206 501 Q1206 383 1168.5 286.5 Q1131 190 1061 122 Q991 54 891 16.5 Q791 -21 667 -21 Q542 -21 442.5 16.5 Q343 54 273 122 Q203 190 165.5 286.5 Q128 383 128 501 L128 1443 L207 1443 L207 504 Z M514 -279 Q486 -279 466 -259.5 Q446 -240 446 -212 Q446 -185 466 -165.5 Q486 -146 514 -146 Q541 -146 561 -165.5 Q581 -185 581 -212 Q581 -240 561 -259.5 Q541 -279 514 -279 Z M818 -279 Q791 -279 771 -259.5 Q751 -240 751 -212 Q751 -185 771 -165.5 Q791 -146 818 -146 Q846 -146 866 -165.5 Q886 -185 886 -212 Q886 -240 866 -259.5 Q846 -279 818 -279 Z " />
<glyph glyph-name="Utildebelow" unicode="&#x1e74;" horiz-adv-x="1332" d="M801 -366 Q768 -366 742.5 -354 Q717 -342 695.5 -323.5 Q674 -305 655.5 -284 Q637 -263 618 -244.5 Q599 -226 578.5 -214 Q558 -202 533 -202 Q485 -202 463.5 -244 Q442 -286 442 -355 L382 -355 Q382 -307 391.5 -268 Q401 -229 419.5 -201.5 Q438 -174 466 -158.5 Q494 -143 532 -143 Q565 -143 591 -155 Q617 -167 639 -185.5 Q661 -204 680 -225 Q699 -246 717.5 -264.5 Q736 -283 756.5 -295 Q777 -307 801 -307 Q849 -307 869.5 -264.5 Q890 -222 890 -153 L951 -153 Q951 -200 941.5 -239.5 Q932 -279 913 -307 Q894 -335 866 -350.5 Q838 -366 801 -366 Z M207 504 Q207 401 239 317.5 Q271 234 330.5 175.5 Q390 117 475 85 Q560 53 667 53 Q773 53 858.5 85 Q944 117 1003.5 175.5 Q1063 234 1095 317.5 Q1127 401 1127 504 L1127 1443 L1206 1443 L1206 501 Q1206 383 1168.5 286.5 Q1131 190 1061 122 Q991 54 891 16.5 Q791 -21 667 -21 Q542 -21 442.5 16.5 Q343 54 273 122 Q203 190 165.5 286.5 Q128 383 128 501 L128 1443 L207 1443 L207 504 Z " />
<glyph glyph-name="Uhookabove" unicode="&#x1ee6;" horiz-adv-x="1332" d="M207 504 Q207 401 239 317.5 Q271 234 330.5 175.5 Q390 117 475 85 Q560 53 667 53 Q773 53 858.5 85 Q944 117 1003.5 175.5 Q1063 234 1095 317.5 Q1127 401 1127 504 L1127 1443 L1206 1443 L1206 501 Q1206 383 1168.5 286.5 Q1131 190 1061 122 Q991 54 891 16.5 Q791 -21 667 -21 Q542 -21 442.5 16.5 Q343 54 273 122 Q203 190 165.5 286.5 Q128 383 128 501 L128 1443 L207 1443 L207 504 Z M524 1804 Q543 1815 574 1823 Q605 1831 639 1831 Q711 1831 754.5 1794 Q798 1757 798 1695 Q798 1647 768 1607.5 Q738 1568 685 1545 L651 1587 Q688 1603 710.5 1631.5 Q733 1660 733 1692 Q733 1730 704.5 1753 Q676 1776 630 1776 Q601 1776 571 1768.5 Q541 1761 524 1750 L524 1804 Z " />
<glyph glyph-name="Ubreve" unicode="&#x16c;" horiz-adv-x="1332" d="M207 504 Q207 401 239 317.5 Q271 234 330.5 175.5 Q390 117 475 85 Q560 53 667 53 Q773 53 858.5 85 Q944 117 1003.5 175.5 Q1063 234 1095 317.5 Q1127 401 1127 504 L1127 1443 L1206 1443 L1206 501 Q1206 383 1168.5 286.5 Q1131 190 1061 122 Q991 54 891 16.5 Q791 -21 667 -21 Q542 -21 442.5 16.5 Q343 54 273 122 Q203 190 165.5 286.5 Q128 383 128 501 L128 1443 L207 1443 L207 504 Z M458 1789 Q458 1751 473 1718 Q488 1685 515.5 1661 Q543 1637 581 1623 Q619 1609 666 1609 Q712 1609 750.5 1623 Q789 1637 816.5 1661 Q844 1685 859 1718 Q874 1751 874 1789 L935 1789 Q935 1735 915 1691.5 Q895 1648 859 1617 Q823 1586 773.5 1569.5 Q724 1553 666 1553 Q607 1553 558 1569.5 Q509 1586 473 1617 Q437 1648 417 1691.5 Q397 1735 397 1789 L458 1789 Z " />
<glyph glyph-name="Uinvertedbreve" unicode="&#x216;" horiz-adv-x="1332" d="M207 504 Q207 401 239 317.5 Q271 234 330.5 175.5 Q390 117 475 85 Q560 53 667 53 Q773 53 858.5 85 Q944 117 1003.5 175.5 Q1063 234 1095 317.5 Q1127 401 1127 504 L1127 1443 L1206 1443 L1206 501 Q1206 383 1168.5 286.5 Q1131 190 1061 122 Q991 54 891 16.5 Q791 -21 667 -21 Q542 -21 442.5 16.5 Q343 54 273 122 Q203 190 165.5 286.5 Q128 383 128 501 L128 1443 L207 1443 L207 504 Z M397 1553 Q397 1607 417 1650.5 Q437 1694 473 1724.5 Q509 1755 558 1772 Q607 1789 666 1789 Q724 1789 773.5 1772 Q823 1755 859 1724.5 Q895 1694 915 1650.5 Q935 1607 935 1553 L874 1553 Q874 1591 859 1623.5 Q844 1656 816.5 1680 Q789 1704 750.5 1718 Q712 1732 666 1732 Q619 1732 581 1718 Q543 1704 515.5 1680 Q488 1656 473 1623.5 Q458 1591 458 1553 L397 1553 Z " />
<glyph glyph-name="Utildeacute" unicode="&#x1e78;" horiz-adv-x="1332" d="M207 504 Q207 401 239 317.5 Q271 234 330.5 175.5 Q390 117 475 85 Q560 53 667 53 Q773 53 858.5 85 Q944 117 1003.5 175.5 Q1063 234 1095 317.5 Q1127 401 1127 504 L1127 1443 L1206 1443 L1206 501 Q1206 383 1168.5 286.5 Q1131 190 1061 122 Q991 54 891 16.5 Q791 -21 667 -21 Q542 -21 442.5 16.5 Q343 54 273 122 Q203 190 165.5 286.5 Q128 383 128 501 L128 1443 L207 1443 L207 504 Z M786 1548 Q755 1548 731.5 1559 Q708 1570 689 1587 Q670 1604 654.5 1623 Q639 1642 622.5 1659 Q606 1676 588 1687 Q570 1698 547 1698 Q502 1698 480.5 1661.5 Q459 1625 459 1566 L398 1566 Q398 1608 407.5 1643.5 Q417 1679 436 1704 Q455 1729 482 1743 Q509 1757 545 1757 Q577 1757 601 1746 Q625 1735 644 1718 Q663 1701 679 1682 Q695 1663 711 1646 Q727 1629 745 1618 Q763 1607 786 1607 Q831 1607 851.5 1643 Q872 1679 872 1739 L933 1739 Q933 1697 923 1662 Q913 1627 894.5 1601.5 Q876 1576 848.5 1562 Q821 1548 786 1548 Z M825 1979 L916 1979 L733 1805 L660 1805 L825 1979 Z " />
<glyph glyph-name="Udotbelow" unicode="&#x1ee4;" horiz-adv-x="1332" d="M666 -295 Q634 -295 611.5 -273 Q589 -251 589 -219 Q589 -187 611.5 -165 Q634 -143 666 -143 Q698 -143 720.5 -165 Q743 -187 743 -219 Q743 -251 720.5 -273 Q698 -295 666 -295 Z M207 504 Q207 401 239 317.5 Q271 234 330.5 175.5 Q390 117 475 85 Q560 53 667 53 Q773 53 858.5 85 Q944 117 1003.5 175.5 Q1063 234 1095 317.5 Q1127 401 1127 504 L1127 1443 L1206 1443 L1206 501 Q1206 383 1168.5 286.5 Q1131 190 1061 122 Q991 54 891 16.5 Q791 -21 667 -21 Q542 -21 442.5 16.5 Q343 54 273 122 Q203 190 165.5 286.5 Q128 383 128 501 L128 1443 L207 1443 L207 504 Z " />
<glyph glyph-name="Utilde" unicode="&#x168;" horiz-adv-x="1332" d="M207 504 Q207 401 239 317.5 Q271 234 330.5 175.5 Q390 117 475 85 Q560 53 667 53 Q773 53 858.5 85 Q944 117 1003.5 175.5 Q1063 234 1095 317.5 Q1127 401 1127 504 L1127 1443 L1206 1443 L1206 501 Q1206 383 1168.5 286.5 Q1131 190 1061 122 Q991 54 891 16.5 Q791 -21 667 -21 Q542 -21 442.5 16.5 Q343 54 273 122 Q203 190 165.5 286.5 Q128 383 128 501 L128 1443 L207 1443 L207 504 Z M801 1549 Q768 1549 742.5 1561 Q717 1573 695.5 1591.5 Q674 1610 655.5 1631 Q637 1652 618 1670.5 Q599 1689 578.5 1701 Q558 1713 533 1713 Q485 1713 463.5 1671 Q442 1629 442 1560 L382 1560 Q382 1608 391.5 1647 Q401 1686 419.5 1713.5 Q438 1741 466 1756.5 Q494 1772 532 1772 Q565 1772 591 1760 Q617 1748 639 1729.5 Q661 1711 680 1690 Q699 1669 717.5 1650.5 Q736 1632 756.5 1620 Q777 1608 801 1608 Q849 1608 869.5 1650.5 Q890 1693 890 1762 L951 1762 Q951 1715 941.5 1675.5 Q932 1636 913 1608 Q894 1580 866 1564.5 Q838 1549 801 1549 Z " />
<glyph glyph-name="Umacron" unicode="&#x16a;" horiz-adv-x="1332" d="M207 504 Q207 401 239 317.5 Q271 234 330.5 175.5 Q390 117 475 85 Q560 53 667 53 Q773 53 858.5 85 Q944 117 1003.5 175.5 Q1063 234 1095 317.5 Q1127 401 1127 504 L1127 1443 L1206 1443 L1206 501 Q1206 383 1168.5 286.5 Q1131 190 1061 122 Q991 54 891 16.5 Q791 -21 667 -21 Q542 -21 442.5 16.5 Q343 54 273 122 Q203 190 165.5 286.5 Q128 383 128 501 L128 1443 L207 1443 L207 504 Z M956 1622 L376 1622 L376 1679 L956 1679 L956 1622 Z " />
<glyph glyph-name="Umacrondieresis" unicode="&#x1e7a;" horiz-adv-x="1332" d="M376 1623 L376 1680 L956 1680 L956 1623 L376 1623 Z M517 1822 Q491 1822 472 1840.5 Q453 1859 453 1885 Q453 1911 472 1929.5 Q491 1948 517 1948 Q543 1948 561.5 1929.5 Q580 1911 580 1885 Q580 1859 561.5 1840.5 Q543 1822 517 1822 Z M815 1822 Q789 1822 770.5 1840.5 Q752 1859 752 1885 Q752 1911 770.5 1929.5 Q789 1948 815 1948 Q841 1948 860 1929.5 Q879 1911 879 1885 Q879 1859 860 1840.5 Q841 1822 815 1822 Z M207 504 Q207 401 239 317.5 Q271 234 330.5 175.5 Q390 117 475 85 Q560 53 667 53 Q773 53 858.5 85 Q944 117 1003.5 175.5 Q1063 234 1095 317.5 Q1127 401 1127 504 L1127 1443 L1206 1443 L1206 501 Q1206 383 1168.5 286.5 Q1131 190 1061 122 Q991 54 891 16.5 Q791 -21 667 -21 Q542 -21 442.5 16.5 Q343 54 273 122 Q203 190 165.5 286.5 Q128 383 128 501 L128 1443 L207 1443 L207 504 Z " />
<glyph glyph-name="Uring" unicode="&#x16e;" horiz-adv-x="1332" d="M666 1506 Q630 1506 599 1519.5 Q568 1533 544.5 1556.5 Q521 1580 507.5 1611.5 Q494 1643 494 1679 Q494 1715 507.5 1746.5 Q521 1778 544.5 1801.5 Q568 1825 599 1838.5 Q630 1852 666 1852 Q702 1852 733 1838.5 Q764 1825 787.5 1801.5 Q811 1778 824.5 1746.5 Q838 1715 838 1679 Q838 1643 824.5 1611.5 Q811 1580 787.5 1556.5 Q764 1533 733 1519.5 Q702 1506 666 1506 Z M666 1554 Q692 1554 715 1564 Q738 1574 754.5 1591 Q771 1608 780.5 1630.5 Q790 1653 790 1679 Q790 1705 780.5 1727.5 Q771 1750 754.5 1767 Q738 1784 715 1794 Q692 1804 666 1804 Q640 1804 617 1794 Q594 1784 577.5 1767 Q561 1750 551.5 1727.5 Q542 1705 542 1679 Q542 1653 551.5 1630.5 Q561 1608 577.5 1591 Q594 1574 617 1564 Q640 1554 666 1554 Z M207 504 Q207 401 239 317.5 Q271 234 330.5 175.5 Q390 117 475 85 Q560 53 667 53 Q773 53 858.5 85 Q944 117 1003.5 175.5 Q1063 234 1095 317.5 Q1127 401 1127 504 L1127 1443 L1206 1443 L1206 501 Q1206 383 1168.5 286.5 Q1131 190 1061 122 Q991 54 891 16.5 Q791 -21 667 -21 Q542 -21 442.5 16.5 Q343 54 273 122 Q203 190 165.5 286.5 Q128 383 128 501 L128 1443 L207 1443 L207 504 Z " />
<glyph glyph-name="Uogonek" unicode="&#x172;" horiz-adv-x="1334" d="M869 -412 Q825 -412 788.5 -398 Q752 -384 725.5 -359.5 Q699 -335 684.5 -300.5 Q670 -266 670 -225 Q670 -162 700 -110.5 Q730 -59 797 -7 L797 -3 Q737 -21 667 -21 Q544 -21 444 15.5 Q344 52 274 120 Q204 188 166 284.5 Q128 381 128 501 L128 1443 L207 1443 L207 504 Q207 402 240 319 Q273 236 333 176.5 Q393 117 478 85 Q563 53 667 53 Q770 53 855 85.5 Q940 118 1000.5 177 Q1061 236 1094 319.5 Q1127 403 1127 504 L1127 1443 L1206 1443 L1206 501 Q1206 415 1188.5 346 Q1171 277 1135.5 219.5 Q1100 162 1045.5 113 Q991 64 918 18 Q837 -36 790 -90.5 Q743 -145 743 -213 Q743 -242 753.5 -266.5 Q764 -291 783.5 -308.5 Q803 -326 829 -336 Q855 -346 887 -346 Q892 -346 901 -345.5 Q910 -345 915 -344 L915 -407 Q909 -409 893 -410.5 Q877 -412 869 -412 Z " />
<glyph glyph-name="Uhorn" unicode="&#x1af;" horiz-adv-x="1502" d="M1206 1320 Q1209 1317 1219.5 1314.5 Q1230 1312 1243 1310.5 Q1256 1309 1267.5 1308.5 Q1279 1308 1283 1308 Q1358 1308 1391 1345 Q1424 1382 1424 1467 L1424 1594 L1497 1594 L1497 1449 Q1497 1347 1445 1294 Q1393 1241 1292 1241 Q1287 1241 1274 1241.5 Q1261 1242 1247.5 1243.5 Q1234 1245 1222 1247.5 Q1210 1250 1206 1253 L1206 501 Q1206 381 1168 284.5 Q1130 188 1059.5 120 Q989 52 889.5 15.5 Q790 -21 667 -21 Q544 -21 444 15.5 Q344 52 274 120 Q204 188 166 284.5 Q128 381 128 501 L128 1443 L207 1443 L207 504 Q207 402 240 319 Q273 236 333 176.5 Q393 117 478 85 Q563 53 667 53 Q771 53 856 85 Q941 117 1001 176.5 Q1061 236 1094 319 Q1127 402 1127 504 L1127 1443 L1206 1443 L1206 1320 L1206 1320 Z " />
<glyph glyph-name="Uhorngrave" unicode="&#x1eea;" horiz-adv-x="1502" d="M338 1843 L433 1843 L713 1553 L635 1553 L338 1843 Z M1206 1320 Q1209 1317 1219.5 1314.5 Q1230 1312 1243 1310.5 Q1256 1309 1267.5 1308.5 Q1279 1308 1283 1308 Q1358 1308 1391 1345 Q1424 1382 1424 1467 L1424 1594 L1497 1594 L1497 1449 Q1497 1347 1445 1294 Q1393 1241 1292 1241 Q1287 1241 1274 1241.5 Q1261 1242 1247.5 1243.5 Q1234 1245 1222 1247.5 Q1210 1250 1206 1253 L1206 501 Q1206 381 1168 284.5 Q1130 188 1059.5 120 Q989 52 889.5 15.5 Q790 -21 667 -21 Q544 -21 444 15.5 Q344 52 274 120 Q204 188 166 284.5 Q128 381 128 501 L128 1443 L207 1443 L207 504 Q207 402 240 319 Q273 236 333 176.5 Q393 117 478 85 Q563 53 667 53 Q771 53 856 85 Q941 117 1001 176.5 Q1061 236 1094 319 Q1127 402 1127 504 L1127 1443 L1206 1443 L1206 1320 Z " />
<glyph glyph-name="Uhornacute" unicode="&#x1ee8;" horiz-adv-x="1502" d="M620 1553 L899 1843 L995 1843 L698 1553 L620 1553 Z M1206 1320 Q1209 1317 1219.5 1314.5 Q1230 1312 1243 1310.5 Q1256 1309 1267.5 1308.5 Q1279 1308 1283 1308 Q1358 1308 1391 1345 Q1424 1382 1424 1467 L1424 1594 L1497 1594 L1497 1449 Q1497 1347 1445 1294 Q1393 1241 1292 1241 Q1287 1241 1274 1241.5 Q1261 1242 1247.5 1243.5 Q1234 1245 1222 1247.5 Q1210 1250 1206 1253 L1206 501 Q1206 381 1168 284.5 Q1130 188 1059.5 120 Q989 52 889.5 15.5 Q790 -21 667 -21 Q544 -21 444 15.5 Q344 52 274 120 Q204 188 166 284.5 Q128 381 128 501 L128 1443 L207 1443 L207 504 Q207 402 240 319 Q273 236 333 176.5 Q393 117 478 85 Q563 53 667 53 Q771 53 856 85 Q941 117 1001 176.5 Q1061 236 1094 319 Q1127 402 1127 504 L1127 1443 L1206 1443 L1206 1320 Z " />
<glyph glyph-name="Uhorndotbelow" unicode="&#x1ef0;" horiz-adv-x="1502" d="M666 -295 Q634 -295 611.5 -273 Q589 -251 589 -219 Q589 -187 611.5 -165 Q634 -143 666 -143 Q698 -143 720.5 -165 Q743 -187 743 -219 Q743 -251 720.5 -273 Q698 -295 666 -295 Z M1206 1320 Q1209 1317 1219.5 1314.5 Q1230 1312 1243 1310.5 Q1256 1309 1267.5 1308.5 Q1279 1308 1283 1308 Q1358 1308 1391 1345 Q1424 1382 1424 1467 L1424 1594 L1497 1594 L1497 1449 Q1497 1347 1445 1294 Q1393 1241 1292 1241 Q1287 1241 1274 1241.5 Q1261 1242 1247.5 1243.5 Q1234 1245 1222 1247.5 Q1210 1250 1206 1253 L1206 501 Q1206 381 1168 284.5 Q1130 188 1059.5 120 Q989 52 889.5 15.5 Q790 -21 667 -21 Q544 -21 444 15.5 Q344 52 274 120 Q204 188 166 284.5 Q128 381 128 501 L128 1443 L207 1443 L207 504 Q207 402 240 319 Q273 236 333 176.5 Q393 117 478 85 Q563 53 667 53 Q771 53 856 85 Q941 117 1001 176.5 Q1061 236 1094 319 Q1127 402 1127 504 L1127 1443 L1206 1443 L1206 1320 Z " />
<glyph glyph-name="Uhornhookabove" unicode="&#x1eec;" horiz-adv-x="1502" d="M524 1804 Q543 1815 574 1823 Q605 1831 639 1831 Q711 1831 754.5 1794 Q798 1757 798 1695 Q798 1647 768 1607.5 Q738 1568 685 1545 L651 1587 Q688 1603 710.5 1631.5 Q733 1660 733 1692 Q733 1730 704.5 1753 Q676 1776 630 1776 Q601 1776 571 1768.5 Q541 1761 524 1750 L524 1804 Z M1206 1320 Q1209 1317 1219.5 1314.5 Q1230 1312 1243 1310.5 Q1256 1309 1267.5 1308.5 Q1279 1308 1283 1308 Q1358 1308 1391 1345 Q1424 1382 1424 1467 L1424 1594 L1497 1594 L1497 1449 Q1497 1347 1445 1294 Q1393 1241 1292 1241 Q1287 1241 1274 1241.5 Q1261 1242 1247.5 1243.5 Q1234 1245 1222 1247.5 Q1210 1250 1206 1253 L1206 501 Q1206 381 1168 284.5 Q1130 188 1059.5 120 Q989 52 889.5 15.5 Q790 -21 667 -21 Q544 -21 444 15.5 Q344 52 274 120 Q204 188 166 284.5 Q128 381 128 501 L128 1443 L207 1443 L207 504 Q207 402 240 319 Q273 236 333 176.5 Q393 117 478 85 Q563 53 667 53 Q771 53 856 85 Q941 117 1001 176.5 Q1061 236 1094 319 Q1127 402 1127 504 L1127 1443 L1206 1443 L1206 1320 Z " />
<glyph glyph-name="Uhorntilde" unicode="&#x1eee;" horiz-adv-x="1502" d="M801 1549 Q768 1549 742.5 1561 Q717 1573 695.5 1591.5 Q674 1610 655.5 1631 Q637 1652 618 1670.5 Q599 1689 578.5 1701 Q558 1713 533 1713 Q485 1713 463.5 1671 Q442 1629 442 1560 L382 1560 Q382 1608 391.5 1647 Q401 1686 419.5 1713.5 Q438 1741 466 1756.5 Q494 1772 532 1772 Q565 1772 591 1760 Q617 1748 639 1729.5 Q661 1711 680 1690 Q699 1669 717.5 1650.5 Q736 1632 756.5 1620 Q777 1608 801 1608 Q849 1608 869.5 1650.5 Q890 1693 890 1762 L951 1762 Q951 1715 941.5 1675.5 Q932 1636 913 1608 Q894 1580 866 1564.5 Q838 1549 801 1549 Z M1206 1320 Q1209 1317 1219.5 1314.5 Q1230 1312 1243 1310.5 Q1256 1309 1267.5 1308.5 Q1279 1308 1283 1308 Q1358 1308 1391 1345 Q1424 1382 1424 1467 L1424 1594 L1497 1594 L1497 1449 Q1497 1347 1445 1294 Q1393 1241 1292 1241 Q1287 1241 1274 1241.5 Q1261 1242 1247.5 1243.5 Q1234 1245 1222 1247.5 Q1210 1250 1206 1253 L1206 501 Q1206 381 1168 284.5 Q1130 188 1059.5 120 Q989 52 889.5 15.5 Q790 -21 667 -21 Q544 -21 444 15.5 Q344 52 274 120 Q204 188 166 284.5 Q128 381 128 501 L128 1443 L207 1443 L207 504 Q207 402 240 319 Q273 236 333 176.5 Q393 117 478 85 Q563 53 667 53 Q771 53 856 85 Q941 117 1001 176.5 Q1061 236 1094 319 Q1127 402 1127 504 L1127 1443 L1206 1443 L1206 1320 Z " />
<glyph glyph-name="V" unicode="V" horiz-adv-x="1223" d="M571 0 L21 1443 L106 1443 L609 105 L614 105 L1117 1443 L1201 1443 L651 0 L571 0 Z " />
<glyph glyph-name="Vtilde" unicode="&#x1e7c;" horiz-adv-x="1223" d="M746 1549 Q714 1549 688 1561 Q662 1573 640.5 1591.5 Q619 1610 600.5 1631 Q582 1652 563 1670.5 Q544 1689 523.5 1701 Q503 1713 478 1713 Q430 1713 408.5 1671 Q387 1629 387 1560 L327 1560 Q327 1608 336.5 1647 Q346 1686 364.5 1713.5 Q383 1741 411 1756.5 Q439 1772 477 1772 Q510 1772 536 1760 Q562 1748 584 1729.5 Q606 1711 625 1690 Q644 1669 662.5 1650.5 Q681 1632 701.5 1620 Q722 1608 746 1608 Q794 1608 814.5 1650.5 Q835 1693 835 1762 L896 1762 Q896 1715 886.5 1675.5 Q877 1636 858 1608 Q839 1580 811 1564.5 Q783 1549 746 1549 Z M571 0 L21 1443 L106 1443 L609 105 L614 105 L1117 1443 L1201 1443 L651 0 L571 0 Z " />
<glyph glyph-name="Vdotbelow" unicode="&#x1e7e;" horiz-adv-x="1223" d="M611 -295 Q579 -295 556.5 -273 Q534 -251 534 -219 Q534 -187 556.5 -165 Q579 -143 611 -143 Q643 -143 665.5 -165 Q688 -187 688 -219 Q688 -251 665.5 -273 Q643 -295 611 -295 Z M571 0 L21 1443 L106 1443 L609 105 L614 105 L1117 1443 L1201 1443 L651 0 L571 0 Z " />
<glyph glyph-name="W" unicode="W" horiz-adv-x="1803" d="M515 0 L445 0 L42 1443 L124 1443 L480 137 L485 137 L864 1443 L938 1443 L1318 137 L1323 137 L1678 1443 L1761 1443 L1358 0 L1288 0 L904 1295 L899 1295 L515 0 Z " />
<glyph glyph-name="Wgrave" unicode="&#x1e80;" horiz-adv-x="1803" d="M573 1843 L668 1843 L948 1553 L870 1553 L573 1843 Z M515 0 L445 0 L42 1443 L124 1443 L480 137 L485 137 L864 1443 L938 1443 L1318 137 L1323 137 L1678 1443 L1761 1443 L1358 0 L1288 0 L904 1295 L899 1295 L515 0 Z " />
<glyph glyph-name="Wacute" unicode="&#x1e82;" horiz-adv-x="1803" d="M855 1553 L1134 1843 L1230 1843 L933 1553 L855 1553 Z M515 0 L445 0 L42 1443 L124 1443 L480 137 L485 137 L864 1443 L938 1443 L1318 137 L1323 137 L1678 1443 L1761 1443 L1358 0 L1288 0 L904 1295 L899 1295 L515 0 Z " />
<glyph glyph-name="Wdotaccent" unicode="&#x1e86;" horiz-adv-x="1803" d="M901 1563 Q869 1563 846.5 1585 Q824 1607 824 1639 Q824 1671 846.5 1693 Q869 1715 901 1715 Q933 1715 955.5 1693 Q978 1671 978 1639 Q978 1607 955.5 1585 Q933 1563 901 1563 Z M515 0 L445 0 L42 1443 L124 1443 L480 137 L485 137 L864 1443 L938 1443 L1318 137 L1323 137 L1678 1443 L1761 1443 L1358 0 L1288 0 L904 1295 L899 1295 L515 0 Z " />
<glyph glyph-name="Wdotbelow" unicode="&#x1e88;" horiz-adv-x="1803" d="M901 -295 Q869 -295 846.5 -273 Q824 -251 824 -219 Q824 -187 846.5 -165 Q869 -143 901 -143 Q933 -143 955.5 -165 Q978 -187 978 -219 Q978 -251 955.5 -273 Q933 -295 901 -295 Z M515 0 L445 0 L42 1443 L124 1443 L480 137 L485 137 L864 1443 L938 1443 L1318 137 L1323 137 L1678 1443 L1761 1443 L1358 0 L1288 0 L904 1295 L899 1295 L515 0 Z " />
<glyph glyph-name="Wdieresis" unicode="&#x1e84;" horiz-adv-x="1803" d="M749 1563 Q721 1563 701 1582.5 Q681 1602 681 1630 Q681 1657 701 1676.5 Q721 1696 749 1696 Q776 1696 796 1676.5 Q816 1657 816 1630 Q816 1602 796 1582.5 Q776 1563 749 1563 Z M1053 1563 Q1026 1563 1006 1582.5 Q986 1602 986 1630 Q986 1657 1006 1676.5 Q1026 1696 1053 1696 Q1081 1696 1101 1676.5 Q1121 1657 1121 1630 Q1121 1602 1101 1582.5 Q1081 1563 1053 1563 Z M515 0 L445 0 L42 1443 L124 1443 L480 137 L485 137 L864 1443 L938 1443 L1318 137 L1323 137 L1678 1443 L1761 1443 L1358 0 L1288 0 L904 1295 L899 1295 L515 0 Z " />
<glyph glyph-name="Wcircumflex" unicode="&#x174;" horiz-adv-x="1803" d="M935 1843 L1206 1553 L1123 1553 L902 1791 L900 1791 L679 1553 L596 1553 L867 1843 L935 1843 Z M515 0 L445 0 L42 1443 L124 1443 L480 137 L485 137 L864 1443 L938 1443 L1318 137 L1323 137 L1678 1443 L1761 1443 L1358 0 L1288 0 L904 1295 L899 1295 L515 0 Z " />
<glyph glyph-name="X" unicode="X" horiz-adv-x="1215" d="M558 722 L558 724 L44 1443 L139 1443 L608 785 L610 785 L1081 1443 L1173 1443 L655 722 L655 720 L1170 0 L1075 0 L607 656 L605 656 L134 0 L42 0 L558 722 Z " />
<glyph glyph-name="Xdotaccent" unicode="&#x1e8a;" horiz-adv-x="1215" d="M558 722 L558 724 L44 1443 L139 1443 L608 785 L610 785 L1081 1443 L1173 1443 L655 722 L655 720 L1170 0 L1075 0 L607 656 L605 656 L134 0 L42 0 L558 722 Z M608 1563 Q576 1563 553.5 1585 Q531 1607 531 1639 Q531 1671 553.5 1693 Q576 1715 608 1715 Q640 1715 662.5 1693 Q685 1671 685 1639 Q685 1607 662.5 1585 Q640 1563 608 1563 Z " />
<glyph glyph-name="Xdieresis" unicode="&#x1e8c;" horiz-adv-x="1215" d="M558 722 L558 724 L44 1443 L139 1443 L608 785 L610 785 L1081 1443 L1173 1443 L655 722 L655 720 L1170 0 L1075 0 L607 656 L605 656 L134 0 L42 0 L558 722 Z M456 1563 Q428 1563 408 1582.5 Q388 1602 388 1630 Q388 1657 408 1676.5 Q428 1696 456 1696 Q483 1696 503 1676.5 Q523 1657 523 1630 Q523 1602 503 1582.5 Q483 1563 456 1563 Z M760 1563 Q733 1563 713 1582.5 Q693 1602 693 1630 Q693 1657 713 1676.5 Q733 1696 760 1696 Q788 1696 808 1676.5 Q828 1657 828 1630 Q828 1602 808 1582.5 Q788 1563 760 1563 Z " />
<glyph glyph-name="Y" unicode="Y" horiz-adv-x="1172" d="M547 0 L547 629 L22 1443 L115 1443 L584 710 L589 710 L1058 1443 L1150 1443 L626 629 L626 0 L547 0 Z " />
<glyph glyph-name="Ygrave" unicode="&#x1ef2;" horiz-adv-x="1172" d="M547 0 L547 629 L22 1443 L115 1443 L584 710 L589 710 L1058 1443 L1150 1443 L626 629 L626 0 L547 0 Z M258 1843 L353 1843 L633 1553 L555 1553 L258 1843 Z " />
<glyph glyph-name="Yacute" unicode="&#xdd;" horiz-adv-x="1172" d="M547 0 L547 629 L22 1443 L115 1443 L584 710 L589 710 L1058 1443 L1150 1443 L626 629 L626 0 L547 0 Z M540 1553 L819 1843 L915 1843 L618 1553 L540 1553 Z " />
<glyph glyph-name="Ydotaccent" unicode="&#x1e8e;" horiz-adv-x="1172" d="M547 0 L547 629 L22 1443 L115 1443 L584 710 L589 710 L1058 1443 L1150 1443 L626 629 L626 0 L547 0 Z M586 1563 Q554 1563 531.5 1585 Q509 1607 509 1639 Q509 1671 531.5 1693 Q554 1715 586 1715 Q618 1715 640.5 1693 Q663 1671 663 1639 Q663 1607 640.5 1585 Q618 1563 586 1563 Z " />
<glyph glyph-name="Ydotbelow" unicode="&#x1ef4;" horiz-adv-x="1172" d="M547 0 L547 629 L22 1443 L115 1443 L584 710 L589 710 L1058 1443 L1150 1443 L626 629 L626 0 L547 0 Z M586 -295 Q554 -295 531.5 -273 Q509 -251 509 -219 Q509 -187 531.5 -165 Q554 -143 586 -143 Q618 -143 640.5 -165 Q663 -187 663 -219 Q663 -251 640.5 -273 Q618 -295 586 -295 Z " />
<glyph glyph-name="Ydieresis" unicode="&#x178;" horiz-adv-x="1172" d="M547 0 L547 629 L22 1443 L115 1443 L584 710 L589 710 L1058 1443 L1150 1443 L626 629 L626 0 L547 0 Z M434 1563 Q406 1563 386 1582.5 Q366 1602 366 1630 Q366 1657 386 1676.5 Q406 1696 434 1696 Q461 1696 481 1676.5 Q501 1657 501 1630 Q501 1602 481 1582.5 Q461 1563 434 1563 Z M738 1563 Q711 1563 691 1582.5 Q671 1602 671 1630 Q671 1657 691 1676.5 Q711 1696 738 1696 Q766 1696 786 1676.5 Q806 1657 806 1630 Q806 1602 786 1582.5 Q766 1563 738 1563 Z " />
<glyph glyph-name="Ytilde" unicode="&#x1ef8;" horiz-adv-x="1172" d="M547 0 L547 629 L22 1443 L115 1443 L584 710 L589 710 L1058 1443 L1150 1443 L626 629 L626 0 L547 0 Z M721 1549 Q688 1549 662.5 1561 Q637 1573 615.5 1591.5 Q594 1610 575.5 1631 Q557 1652 538 1670.5 Q519 1689 498.5 1701 Q478 1713 453 1713 Q405 1713 383.5 1671 Q362 1629 362 1560 L302 1560 Q302 1608 311.5 1647 Q321 1686 339.5 1713.5 Q358 1741 386 1756.5 Q414 1772 452 1772 Q485 1772 511 1760 Q537 1748 559 1729.5 Q581 1711 600 1690 Q619 1669 637.5 1650.5 Q656 1632 676.5 1620 Q697 1608 721 1608 Q769 1608 789.5 1650.5 Q810 1693 810 1762 L871 1762 Q871 1715 861.5 1675.5 Q852 1636 833 1608 Q814 1580 786 1564.5 Q758 1549 721 1549 Z " />
<glyph glyph-name="Ycircumflex" unicode="&#x176;" horiz-adv-x="1172" d="M547 0 L547 629 L22 1443 L115 1443 L584 710 L589 710 L1058 1443 L1150 1443 L626 629 L626 0 L547 0 Z M620 1843 L891 1553 L808 1553 L587 1791 L585 1791 L364 1553 L281 1553 L552 1843 L620 1843 Z " />
<glyph glyph-name="Ymacron" unicode="&#x232;" horiz-adv-x="1172" d="M547 0 L547 629 L22 1443 L115 1443 L584 710 L589 710 L1058 1443 L1150 1443 L626 629 L626 0 L547 0 Z M876 1622 L296 1622 L296 1679 L876 1679 L876 1622 Z " />
<glyph glyph-name="Yhookabove" unicode="&#x1ef6;" horiz-adv-x="1172" d="M547 0 L547 629 L22 1443 L115 1443 L584 710 L589 710 L1058 1443 L1150 1443 L626 629 L626 0 L547 0 Z M444 1804 Q463 1815 494 1823 Q525 1831 559 1831 Q631 1831 674.5 1794 Q718 1757 718 1695 Q718 1647 688 1607.5 Q658 1568 605 1545 L571 1587 Q608 1603 630.5 1631.5 Q653 1660 653 1692 Q653 1730 624.5 1753 Q596 1776 550 1776 Q521 1776 491 1768.5 Q461 1761 444 1750 L444 1804 Z " />
<glyph glyph-name="Z" unicode="Z" horiz-adv-x="1173" d="M71 62 L996 1365 L996 1370 L100 1370 L100 1443 L1097 1443 L1097 1381 L174 78 L174 73 L1102 73 L1102 0 L71 0 L71 62 Z " />
<glyph glyph-name="Zacute" unicode="&#x179;" horiz-adv-x="1173" d="M541 1553 L820 1843 L916 1843 L619 1553 L541 1553 Z M71 62 L996 1365 L996 1370 L100 1370 L100 1443 L1097 1443 L1097 1381 L174 78 L174 73 L1102 73 L1102 0 L71 0 L71 62 Z " />
<glyph glyph-name="Zcaron" unicode="&#x17d;" horiz-adv-x="1173" d="M71 62 L996 1365 L996 1370 L100 1370 L100 1443 L1097 1443 L1097 1381 L174 78 L174 73 L1102 73 L1102 0 L71 0 L71 62 Z M282 1843 L365 1843 L586 1604 L588 1604 L809 1843 L892 1843 L621 1553 L553 1553 L282 1843 Z " />
<glyph glyph-name="Zcircumflex" unicode="&#x1e90;" horiz-adv-x="1173" d="M71 62 L996 1365 L996 1370 L100 1370 L100 1443 L1097 1443 L1097 1381 L174 78 L174 73 L1102 73 L1102 0 L71 0 L71 62 Z M621 1843 L892 1553 L809 1553 L588 1791 L586 1791 L365 1553 L282 1553 L553 1843 L621 1843 Z " />
<glyph glyph-name="Zlinebelow" unicode="&#x1e94;" horiz-adv-x="1173" d="M71 62 L996 1365 L996 1370 L100 1370 L100 1443 L1097 1443 L1097 1381 L174 78 L174 73 L1102 73 L1102 0 L71 0 L71 62 Z M877 -262 L297 -262 L297 -205 L877 -205 L877 -262 Z " />
<glyph glyph-name="Zdotbelow" unicode="&#x1e92;" horiz-adv-x="1173" d="M587 -295 Q555 -295 532.5 -273 Q510 -251 510 -219 Q510 -187 532.5 -165 Q555 -143 587 -143 Q619 -143 641.5 -165 Q664 -187 664 -219 Q664 -251 641.5 -273 Q619 -295 587 -295 Z M71 62 L996 1365 L996 1370 L100 1370 L100 1443 L1097 1443 L1097 1381 L174 78 L174 73 L1102 73 L1102 0 L71 0 L71 62 Z " />
<glyph glyph-name="Zdotaccent" unicode="&#x17b;" horiz-adv-x="1173" d="M587 1563 Q555 1563 532.5 1585 Q510 1607 510 1639 Q510 1671 532.5 1693 Q555 1715 587 1715 Q619 1715 641.5 1693 Q664 1671 664 1639 Q664 1607 641.5 1585 Q619 1563 587 1563 Z M71 62 L996 1365 L996 1370 L100 1370 L100 1443 L1097 1443 L1097 1381 L174 78 L174 73 L1102 73 L1102 0 L71 0 L71 62 Z " />
<glyph glyph-name="AE" unicode="&#xc6;" horiz-adv-x="1900" d="M374 492 L999 492 L999 1373 L815 1373 L374 492 Z M999 422 L340 422 L130 0 L46 0 L768 1443 L1789 1443 L1789 1370 L1077 1370 L1077 773 L1753 773 L1753 701 L1077 701 L1077 73 L1789 73 L1789 0 L999 0 L999 422 Z " />
<glyph glyph-name="AEmacron" unicode="&#x1e2;" horiz-adv-x="1908" d="M374 492 L999 492 L999 1373 L815 1373 L374 492 Z M999 422 L340 422 L130 0 L46 0 L768 1443 L1789 1443 L1789 1370 L1077 1370 L1077 773 L1753 773 L1753 701 L1077 701 L1077 73 L1789 73 L1789 0 L999 0 L999 422 Z M1621 1622 L1041 1622 L1041 1679 L1621 1679 L1621 1622 Z " />
<glyph glyph-name="AEacute" unicode="&#x1fc;" horiz-adv-x="1908" d="M1285 1553 L1564 1843 L1660 1843 L1363 1553 L1285 1553 Z M374 492 L999 492 L999 1373 L815 1373 L374 492 Z M999 422 L340 422 L130 0 L46 0 L768 1443 L1789 1443 L1789 1370 L1077 1370 L1077 773 L1753 773 L1753 701 L1077 701 L1077 73 L1789 73 L1789 0 L999 0 L999 422 Z " />
<glyph glyph-name="OE" unicode="&#x152;" horiz-adv-x="2178" d="M716 1390 Q586 1390 481 1343 Q376 1296 302 1209 Q228 1122 188 998.5 Q148 875 148 722 Q148 569 188 445.5 Q228 322 302 234.5 Q376 147 481 100 Q586 53 716 53 Q846 53 951 100 Q1056 147 1130 234 Q1204 321 1244 445 Q1284 569 1284 722 Q1284 875 1244 998.5 Q1204 1122 1130 1209 Q1056 1296 951 1343 Q846 1390 716 1390 Z M1285 372 Q1251 278 1196.5 205 Q1142 132 1069 81.5 Q996 31 907 5 Q818 -21 716 -21 Q566 -21 446 30.5 Q326 82 241.5 178.5 Q157 275 112 412.5 Q67 550 67 722 Q67 894 112 1031.5 Q157 1169 241.5 1265 Q326 1361 446 1412.5 Q566 1464 716 1464 Q819 1464 908 1438 Q997 1412 1069.5 1362 Q1142 1312 1196.5 1239.5 Q1251 1167 1285 1073 L1285 1443 L2100 1443 L2100 1370 L1365 1370 L1365 776 L2063 776 L2063 704 L1365 704 L1365 73 L2100 73 L2100 0 L1285 0 L1285 372 Z " />
<glyph glyph-name="Eth" unicode="&#xd0;" horiz-adv-x="1399" d="M573 73 Q720 73 834 116 Q948 159 1026 241.5 Q1104 324 1144.5 444.5 Q1185 565 1185 721 Q1185 877 1144.5 998 Q1104 1119 1026 1201.5 Q948 1284 834 1327 Q720 1370 573 1370 L208 1370 L208 778 L566 778 L566 705 L208 705 L208 73 L573 73 Z M577 1443 Q741 1443 869 1394.5 Q997 1346 1085 1254 Q1173 1162 1219 1028 Q1265 894 1265 722 Q1265 550 1219 415.5 Q1173 281 1085 189 Q997 97 869 48.5 Q741 0 577 0 L128 0 L128 705 L13 705 L13 778 L128 778 L128 1443 L577 1443 Z " />
<glyph glyph-name="Thorn" unicode="&#xde;" horiz-adv-x="1209" d="M243 1443 L243 1158 L647 1158 Q744 1158 825 1130.5 Q906 1103 964 1051 Q1022 999 1054.5 924 Q1087 849 1087 754 Q1087 659 1055 584.5 Q1023 510 965 458.5 Q907 407 826 379.5 Q745 352 646 352 L243 352 L243 0 L163 0 L163 1443 L243 1443 Z M243 424 L633 424 Q720 424 789.5 446.5 Q859 469 907.5 512 Q956 555 982 616 Q1008 677 1008 754 Q1008 830 982 891.5 Q956 953 907.5 996 Q859 1039 789.5 1062 Q720 1085 633 1085 L243 1085 L243 424 Z " />
<glyph glyph-name="Alphagreek" unicode="&#x391;" horiz-adv-x="1221" d="M935 481 L286 481 L107 0 L21 0 L571 1443 L651 1443 L1200 0 L1115 0 L935 481 Z M312 552 L910 552 L613 1340 L608 1340 L312 552 Z " />
<glyph glyph-name="Betagreek" unicode="&#x392;" horiz-adv-x="1165" d="M128 0 L128 1443 L614 1443 Q708 1443 785.5 1417.5 Q863 1392 918.5 1346 Q974 1300 1004.5 1235 Q1035 1170 1035 1092 Q1035 1027 1015 971 Q995 915 957.5 871 Q920 827 867.5 796.5 Q815 766 751 754 L751 748 Q827 740 893 711.5 Q959 683 1007.5 636.5 Q1056 590 1083.5 526.5 Q1111 463 1111 385 Q1111 296 1077.5 225 Q1044 154 981 104 Q918 54 828 27 Q738 0 625 0 L128 0 Z M207 778 L583 778 Q668 778 736.5 799.5 Q805 821 853.5 861 Q902 901 928.5 958 Q955 1015 955 1086 Q955 1151 930 1204 Q905 1257 859 1294 Q813 1331 748 1351 Q683 1371 602 1371 L207 1371 L207 778 Z M617 72 Q714 72 791 94 Q868 116 921.5 157 Q975 198 1003 256 Q1031 314 1031 387 Q1031 462 1001.5 521 Q972 580 916 621.5 Q860 663 779.5 685 Q699 707 596 707 L207 707 L207 72 L617 72 Z " />
<glyph glyph-name="Gammagreek" unicode="&#x393;" horiz-adv-x="993" d="M128 0 L128 1443 L938 1443 L938 1370 L207 1370 L207 0 L128 0 Z " />
<glyph glyph-name="Deltagreek" unicode="&#x394;" horiz-adv-x="1264" d="M44 0 L44 57 L592 1443 L672 1443 L1220 57 L1220 0 L44 0 Z M136 73 L1127 73 L1127 78 L634 1343 L629 1343 L136 78 L136 73 Z " />
<glyph glyph-name="Epsilongreek" unicode="&#x395;" horiz-adv-x="1047" d="M969 0 L128 0 L128 1443 L969 1443 L969 1370 L207 1370 L207 776 L933 776 L933 704 L207 704 L207 73 L969 73 L969 0 Z " />
<glyph glyph-name="Zetagreek" unicode="&#x396;" horiz-adv-x="1173" d="M71 62 L996 1365 L996 1370 L100 1370 L100 1443 L1097 1443 L1097 1381 L174 78 L174 73 L1102 73 L1102 0 L71 0 L71 62 Z " />
<glyph glyph-name="Etagreek" unicode="&#x397;" horiz-adv-x="1327" d="M1120 0 L1120 705 L207 705 L207 0 L128 0 L128 1443 L207 1443 L207 777 L1120 777 L1120 1443 L1199 1443 L1199 0 L1120 0 Z " />
<glyph glyph-name="Thetagreek" unicode="&#x398;" horiz-adv-x="1423" d="M370 691 L370 764 L1053 764 L1053 691 L370 691 Z M712 1464 Q860 1464 979 1412 Q1098 1360 1182 1263.5 Q1266 1167 1311 1029.5 Q1356 892 1356 722 Q1356 551 1311 413.5 Q1266 276 1182.5 179.5 Q1099 83 979.5 31 Q860 -21 712 -21 Q563 -21 444 31 Q325 83 241 179.5 Q157 276 112 413.5 Q67 551 67 722 Q67 892 112 1029.5 Q157 1167 241 1263.5 Q325 1360 444.5 1412 Q564 1464 712 1464 Z M712 1390 Q583 1390 478.5 1343 Q374 1296 300.5 1209 Q227 1122 187.5 998.5 Q148 875 148 722 Q148 569 187.5 445 Q227 321 300.5 234 Q374 147 478.5 100 Q583 53 712 53 Q841 53 945 100 Q1049 147 1122.5 234 Q1196 321 1235.5 445 Q1275 569 1275 722 Q1275 875 1235.5 998.5 Q1196 1122 1123 1209 Q1050 1296 945.5 1343 Q841 1390 712 1390 Z " />
<glyph glyph-name="Iotagreek" unicode="&#x399;" horiz-adv-x="335" d="M128 0 L128 1443 L207 1443 L207 0 L128 0 Z " />
<glyph glyph-name="Kappagreek" unicode="&#x39a;" horiz-adv-x="1142" d="M128 0 L128 1443 L207 1443 L207 637 L213 637 L963 1443 L1064 1443 L470 807 L1130 0 L1029 0 L414 751 L207 528 L207 0 L128 0 Z " />
<glyph glyph-name="Lambdagreek" unicode="&#x39b;" horiz-adv-x="1181" d="M593 1334 L588 1334 L107 0 L21 0 L551 1443 L631 1443 L1160 0 L1075 0 L593 1334 Z " />
<glyph glyph-name="Mugreek" unicode="&#x39c;" horiz-adv-x="1604" d="M1476 0 L1400 0 L1400 1279 L1396 1279 L840 3 L764 3 L208 1279 L204 1279 L204 0 L128 0 L128 1443 L216 1443 L799 103 L805 103 L1386 1443 L1476 1443 L1476 0 Z " />
<glyph glyph-name="Nugreek" unicode="&#x39d;" horiz-adv-x="1341" d="M128 0 L128 1443 L210 1443 L1129 144 L1135 144 L1135 1443 L1214 1443 L1214 0 L1139 0 L212 1307 L206 1307 L206 0 L128 0 Z " />
<glyph glyph-name="Xigreek" unicode="&#x39e;" horiz-adv-x="1177" d="M1098 1443 L1098 1368 L78 1368 L78 1443 L1098 1443 Z M143 704 L143 779 L1034 779 L1034 704 L143 704 Z M1098 75 L1098 0 L78 0 L78 75 L1098 75 Z " />
<glyph glyph-name="Omicrongreek" unicode="&#x39f;" horiz-adv-x="1420" d="M710 1464 Q857 1464 976 1412 Q1095 1360 1179 1263.5 Q1263 1167 1308 1029.5 Q1353 892 1353 722 Q1353 551 1308 413.5 Q1263 276 1179.5 179.5 Q1096 83 977 31 Q858 -21 710 -21 Q562 -21 443 31 Q324 83 240.5 179.5 Q157 276 112 413.5 Q67 551 67 722 Q67 892 112 1029.5 Q157 1167 241 1263.5 Q325 1360 444 1412 Q563 1464 710 1464 Z M710 1390 Q581 1390 477.5 1343 Q374 1296 300.5 1209 Q227 1122 187.5 998.5 Q148 875 148 722 Q148 569 187.5 445 Q227 321 300.5 234 Q374 147 478 100 Q582 53 710 53 Q839 53 942.5 100 Q1046 147 1119.5 234 Q1193 321 1232.5 445 Q1272 569 1272 722 Q1272 875 1232.5 998.5 Q1193 1122 1119.5 1209 Q1046 1296 942.5 1343 Q839 1390 710 1390 Z " />
<glyph glyph-name="Pigreek" unicode="&#x3a0;" horiz-adv-x="1307" d="M1100 0 L1100 1370 L207 1370 L207 0 L128 0 L128 1443 L1179 1443 L1179 0 L1100 0 Z " />
<glyph glyph-name="Rhogreek" unicode="&#x3a1;" horiz-adv-x="1116" d="M597 1443 Q702 1443 788 1412.5 Q874 1382 934.5 1325.5 Q995 1269 1028 1189.5 Q1061 1110 1061 1012 Q1061 914 1028 834.5 Q995 755 934 699 Q873 643 787.5 612.5 Q702 582 597 582 L207 582 L207 0 L128 0 L128 1443 L597 1443 Z M207 654 L584 654 Q675 654 748.5 678.5 Q822 703 873.5 749.5 Q925 796 952.5 862.5 Q980 929 980 1012 Q980 1096 952.5 1162.5 Q925 1229 873.5 1275.5 Q822 1322 748.5 1346.5 Q675 1371 584 1371 L207 1371 L207 654 Z " />
<glyph glyph-name="Sigmagreek" unicode="&#x3a3;" horiz-adv-x="1150" d="M171 73 L1079 73 L1079 0 L71 0 L71 62 L540 737 L90 1377 L90 1443 L1057 1443 L1057 1370 L191 1370 L191 1365 L629 743 L629 738 L171 78 L171 73 Z " />
<glyph glyph-name="Taugreek" unicode="&#x3a4;" horiz-adv-x="1138" d="M529 0 L529 1370 L21 1370 L21 1443 L1117 1443 L1117 1370 L609 1370 L609 0 L529 0 Z " />
<glyph glyph-name="Upsilongreek" unicode="&#x3a5;" horiz-adv-x="1172" d="M547 0 L547 629 L22 1443 L115 1443 L584 710 L589 710 L1058 1443 L1150 1443 L626 629 L626 0 L547 0 Z " />
<glyph glyph-name="Phigreek" unicode="&#x3a6;" horiz-adv-x="1533" d="M1404 722 Q1404 857 1363.5 964.5 Q1323 1072 1245.5 1146.5 Q1168 1221 1057 1261.5 Q946 1302 805 1304 L805 141 Q946 142 1057 182.5 Q1168 223 1245 298 Q1322 373 1363 480 Q1404 587 1404 722 Z M128 722 Q128 587 169 480 Q210 373 287 298 Q364 223 475 182.5 Q586 142 726 141 L726 1304 Q585 1302 474 1261.5 Q363 1221 286 1146.5 Q209 1072 168.5 964.5 Q128 857 128 722 Z M726 -59 L726 68 Q567 70 441 115.5 Q315 161 227.5 245.5 Q140 330 93.5 450 Q47 570 47 722 Q47 874 93.5 994.5 Q140 1115 227.5 1199 Q315 1283 441 1328.5 Q567 1374 726 1376 L726 1492 L805 1492 L805 1376 Q964 1374 1090.5 1328.5 Q1217 1283 1305 1199 Q1393 1115 1439.5 994.5 Q1486 874 1486 722 Q1486 570 1439.5 450 Q1393 330 1305 245.5 Q1217 161 1090.5 115.5 Q964 70 805 68 L805 -59 L726 -59 Z " />
<glyph glyph-name="Chigreek" unicode="&#x3a7;" horiz-adv-x="1215" d="M558 722 L558 724 L44 1443 L139 1443 L608 785 L610 785 L1081 1443 L1173 1443 L655 722 L655 720 L1170 0 L1075 0 L607 656 L605 656 L134 0 L42 0 L558 722 Z " />
<glyph glyph-name="Psigreek" unicode="&#x3a8;" horiz-adv-x="1430" d="M675 0 L675 353 Q537 353 430 389.5 Q323 426 250.5 497.5 Q178 569 140 673 Q102 777 102 912 L102 1443 L181 1443 L181 913 Q181 676 307 552 Q433 428 675 427 L675 1443 L755 1443 L755 427 Q997 428 1123 552 Q1249 676 1249 913 L1249 1443 L1328 1443 L1328 912 Q1328 777 1290 673 Q1252 569 1179.5 497.5 Q1107 426 1000 389.5 Q893 353 755 353 L755 0 L675 0 Z " />
<glyph glyph-name="Omegagreek" unicode="&#x3a9;" horiz-adv-x="1509" d="M1324 771 Q1324 907 1283 1021 Q1242 1135 1167.5 1217 Q1093 1299 988 1344.5 Q883 1390 756 1390 Q628 1390 523 1345 Q418 1300 343 1218 Q268 1136 226.5 1022.5 Q185 909 185 771 Q185 544 293 380.5 Q401 217 630 102 L630 0 L102 0 L102 73 L541 73 L541 78 Q325 190 214.5 362.5 Q104 535 104 773 Q104 926 151.5 1053 Q199 1180 284.5 1271.5 Q370 1363 490 1413.5 Q610 1464 756 1464 Q901 1464 1020.5 1413 Q1140 1362 1225.5 1270.5 Q1311 1179 1358 1052 Q1405 925 1405 773 Q1405 536 1295.5 363 Q1186 190 969 78 L969 73 L1407 73 L1407 0 L880 0 L880 102 Q1109 217 1216.5 380.5 Q1324 544 1324 771 Z " />
<glyph glyph-name="Alphatonosgreek" unicode="&#x386;" horiz-adv-x="1220" d="M934 481 L285 481 L106 0 L20 0 L570 1443 L650 1443 L1199 0 L1114 0 L934 481 Z M311 552 L909 552 L612 1340 L607 1340 L311 552 Z M135 1109 L229 1443 L328 1443 L202 1109 L135 1109 Z " />
<glyph glyph-name="Epsilontonosgreek" unicode="&#x388;" horiz-adv-x="1283" d="M48 1109 L142 1443 L241 1443 L115 1109 L48 1109 Z M1204 0 L363 0 L363 1443 L1204 1443 L1204 1370 L442 1370 L442 776 L1168 776 L1168 704 L442 704 L442 73 L1204 73 L1204 0 Z " />
<glyph glyph-name="Etatonosgreek" unicode="&#x389;" horiz-adv-x="1562" d="M48 1109 L142 1443 L241 1443 L115 1109 L48 1109 Z M1355 0 L1355 705 L442 705 L442 0 L363 0 L363 1443 L442 1443 L442 777 L1355 777 L1355 1443 L1434 1443 L1434 0 L1355 0 Z " />
<glyph glyph-name="Iotatonosgreek" unicode="&#x38a;" horiz-adv-x="570" d="M363 0 L363 1443 L442 1443 L442 0 L363 0 Z M48 1109 L142 1443 L241 1443 L115 1109 L48 1109 Z " />
<glyph glyph-name="Iotadieresisgreek" unicode="&#x3aa;" horiz-adv-x="373" d="M166 0 L166 1443 L245 1443 L245 0 L166 0 Z M53 1563 Q25 1563 5 1582.5 Q-15 1602 -15 1630 Q-15 1657 5 1676.5 Q25 1696 53 1696 Q80 1696 100 1676.5 Q120 1657 120 1630 Q120 1602 100 1582.5 Q80 1563 53 1563 Z M357 1563 Q330 1563 310 1582.5 Q290 1602 290 1630 Q290 1657 310 1676.5 Q330 1696 357 1696 Q385 1696 405 1676.5 Q425 1657 425 1630 Q425 1602 405 1582.5 Q385 1563 357 1563 Z " />
<glyph glyph-name="Omicrontonosgreek" unicode="&#x38c;" horiz-adv-x="1553" d="M843 1464 Q990 1464 1109 1412 Q1228 1360 1312 1263.5 Q1396 1167 1441 1029.5 Q1486 892 1486 722 Q1486 551 1441 413.5 Q1396 276 1312.5 179.5 Q1229 83 1110 31 Q991 -21 843 -21 Q695 -21 576 31 Q457 83 373.5 179.5 Q290 276 245 413.5 Q200 551 200 722 Q200 892 245 1029.5 Q290 1167 374 1263.5 Q458 1360 577 1412 Q696 1464 843 1464 Z M843 1390 Q714 1390 610.5 1343 Q507 1296 433.5 1209 Q360 1122 320.5 998.5 Q281 875 281 722 Q281 569 320.5 445 Q360 321 433.5 234 Q507 147 611 100 Q715 53 843 53 Q972 53 1075.5 100 Q1179 147 1252.5 234 Q1326 321 1365.5 445 Q1405 569 1405 722 Q1405 875 1365.5 998.5 Q1326 1122 1252.5 1209 Q1179 1296 1075.5 1343 Q972 1390 843 1390 Z M41 1109 L135 1443 L234 1443 L108 1109 L41 1109 Z " />
<glyph glyph-name="Upsilontonosgreek" unicode="&#x38e;" horiz-adv-x="1477" d="M42 1110 L136 1444 L235 1444 L109 1110 L42 1110 Z M852 0 L852 629 L327 1443 L420 1443 L889 710 L894 710 L1363 1443 L1455 1443 L931 629 L931 0 L852 0 Z " />
<glyph glyph-name="Upsilondieresisgreek" unicode="&#x3ab;" horiz-adv-x="1218" d="M594 0 L594 629 L69 1443 L162 1443 L631 710 L636 710 L1105 1443 L1197 1443 L673 629 L673 0 L594 0 Z M481 1563 Q453 1563 433 1582.5 Q413 1602 413 1630 Q413 1657 433 1676.5 Q453 1696 481 1696 Q508 1696 528 1676.5 Q548 1657 548 1630 Q548 1602 528 1582.5 Q508 1563 481 1563 Z M785 1563 Q758 1563 738 1582.5 Q718 1602 718 1630 Q718 1657 738 1676.5 Q758 1696 785 1696 Q813 1696 833 1676.5 Q853 1657 853 1630 Q853 1602 833 1582.5 Q813 1563 785 1563 Z " />
<glyph glyph-name="Omegatonosgreek" unicode="&#x38f;" horiz-adv-x="1614" d="M1429 771 Q1429 907 1388 1021 Q1347 1135 1272.5 1217 Q1198 1299 1093 1344.5 Q988 1390 861 1390 Q733 1390 628 1345 Q523 1300 448 1218 Q373 1136 331.5 1022.5 Q290 909 290 771 Q290 544 398 380.5 Q506 217 735 102 L735 0 L207 0 L207 73 L646 73 L646 78 Q430 190 319.5 362.5 Q209 535 209 773 Q209 926 256.5 1053 Q304 1180 389.5 1271.5 Q475 1363 595 1413.5 Q715 1464 861 1464 Q1006 1464 1125.5 1413 Q1245 1362 1330.5 1270.5 Q1416 1179 1463 1052 Q1510 925 1510 773 Q1510 536 1400.5 363 Q1291 190 1074 78 L1074 73 L1512 73 L1512 0 L985 0 L985 102 Q1214 217 1321.5 380.5 Q1429 544 1429 771 Z M41 1109 L135 1443 L234 1443 L108 1109 L41 1109 Z " />
<glyph glyph-name="Acyrillic" unicode="&#x410;" horiz-adv-x="1241" d="M945 481 L296 481 L117 0 L31 0 L581 1443 L661 1443 L1210 0 L1125 0 L945 481 Z M322 552 L920 552 L623 1340 L618 1340 L322 552 Z " />
<glyph glyph-name="Becyrillic" unicode="&#x411;" horiz-adv-x="1150" d="M1072 415 Q1072 321 1039 244.5 Q1006 168 945.5 113.5 Q885 59 799.5 29.5 Q714 0 609 0 L138 0 L138 1443 L949 1443 L949 1370 L217 1370 L217 830 L608 830 Q713 830 799 800.5 Q885 771 945.5 717 Q1006 663 1039 586 Q1072 509 1072 415 Z M596 73 Q687 73 760.5 97 Q834 121 885.5 165 Q937 209 964.5 272.5 Q992 336 992 415 Q992 494 964.5 557 Q937 620 885.5 664.5 Q834 709 760.5 733 Q687 757 596 757 L217 757 L217 73 L596 73 Z " />
<glyph glyph-name="Vecyrillic" unicode="&#x412;" horiz-adv-x="1185" d="M138 0 L138 1443 L624 1443 Q718 1443 795.5 1417.5 Q873 1392 928.5 1346 Q984 1300 1014.5 1235 Q1045 1170 1045 1092 Q1045 1027 1025 971 Q1005 915 967.5 871 Q930 827 877.5 796.5 Q825 766 761 754 L761 748 Q837 740 903 711.5 Q969 683 1017.5 636.5 Q1066 590 1093.5 526.5 Q1121 463 1121 385 Q1121 296 1087.5 225 Q1054 154 991 104 Q928 54 838 27 Q748 0 635 0 L138 0 Z M217 778 L593 778 Q678 778 746.5 799.5 Q815 821 863.5 861 Q912 901 938.5 958 Q965 1015 965 1086 Q965 1151 940 1204 Q915 1257 869 1294 Q823 1331 758 1351 Q693 1371 612 1371 L217 1371 L217 778 Z M627 72 Q724 72 801 94 Q878 116 931.5 157 Q985 198 1013 256 Q1041 314 1041 387 Q1041 462 1011.5 521 Q982 580 926 621.5 Q870 663 789.5 685 Q709 707 606 707 L217 707 L217 72 L627 72 Z " />
<glyph glyph-name="Gecyrillic" unicode="&#x413;" horiz-adv-x="1024" d="M138 0 L138 1443 L962 1443 L962 1370 L217 1370 L217 0 L138 0 Z " />
<glyph glyph-name="Decyrillic" unicode="&#x414;" horiz-adv-x="1372" d="M347 467 Q343 402 335 344.5 Q327 287 313.5 237.5 Q300 188 279 148 Q258 108 228 79 L228 73 L1082 73 L1082 1370 L401 1370 L347 467 Z M91 -286 L16 -286 L16 73 L112 73 Q151 92 178.5 129 Q206 166 224.5 217.5 Q243 269 253.5 333.5 Q264 398 269 472 L328 1443 L1161 1443 L1161 73 L1348 73 L1348 -286 L1272 -286 L1272 0 L91 0 L91 -286 Z " />
<glyph glyph-name="Iecyrillic" unicode="&#x415;" horiz-adv-x="1067" d="M979 0 L138 0 L138 1443 L979 1443 L979 1370 L217 1370 L217 776 L943 776 L943 704 L217 704 L217 73 L979 73 L979 0 Z " />
<glyph glyph-name="Iocyrillic" unicode="&#x401;" horiz-adv-x="1067" d="M406 1563 Q378 1563 358 1582.5 Q338 1602 338 1630 Q338 1657 358 1676.5 Q378 1696 406 1696 Q433 1696 453 1676.5 Q473 1657 473 1630 Q473 1602 453 1582.5 Q433 1563 406 1563 Z M710 1563 Q683 1563 663 1582.5 Q643 1602 643 1630 Q643 1657 663 1676.5 Q683 1696 710 1696 Q738 1696 758 1676.5 Q778 1657 778 1630 Q778 1602 758 1582.5 Q738 1563 710 1563 Z M979 0 L138 0 L138 1443 L979 1443 L979 1370 L217 1370 L217 776 L943 776 L943 704 L217 704 L217 73 L979 73 L979 0 Z " />
<glyph glyph-name="Zhecyrillic" unicode="&#x416;" horiz-adv-x="1804" d="M1784 0 L1673 0 L946 718 L941 718 L941 0 L861 0 L861 718 L856 718 L128 0 L19 0 L775 745 L73 1443 L180 1443 L856 764 L861 764 L861 1443 L941 1443 L941 764 L946 764 L1623 1443 L1727 1443 L1027 747 L1784 0 Z " />
<glyph glyph-name="Zecyrillic" unicode="&#x417;" horiz-adv-x="1121" d="M366 784 L538 784 Q628 784 700 806.5 Q772 829 822 870 Q872 911 898.5 968 Q925 1025 925 1093 Q925 1156 899.5 1211.5 Q874 1267 827 1307.5 Q780 1348 713 1371.5 Q646 1395 562 1395 Q484 1395 418.5 1373 Q353 1351 304 1311 Q255 1271 225 1216.5 Q195 1162 186 1097 L109 1097 Q118 1178 153.5 1246.5 Q189 1315 248 1364 Q307 1413 387 1440.5 Q467 1468 564 1468 Q663 1468 744.5 1439.5 Q826 1411 883.5 1360.5 Q941 1310 973 1242.5 Q1005 1175 1005 1097 Q1005 1032 984 976 Q963 920 924 876 Q885 832 828 801 Q771 770 699 756 L699 751 Q784 744 850.5 715.5 Q917 687 963 640 Q1009 593 1033 529.5 Q1057 466 1057 390 Q1057 303 1021.5 227 Q986 151 920.5 95.5 Q855 40 763 8 Q671 -24 558 -24 Q453 -24 364.5 6 Q276 36 211 88 Q146 140 108 210.5 Q70 281 65 361 L143 361 Q148 296 181 239.5 Q214 183 269 140 Q324 97 398 72.5 Q472 48 559 48 Q654 48 731 74 Q808 100 862.5 146.5 Q917 193 946.5 255.5 Q976 318 976 392 Q976 468 948.5 527.5 Q921 587 866.5 628 Q812 669 730.5 690.5 Q649 712 540 712 L366 712 L366 784 Z " />
<glyph glyph-name="Iicyrillic" unicode="&#x418;" horiz-adv-x="1361" d="M1145 1311 L1138 1311 L216 0 L138 0 L138 1443 L216 1443 L216 131 L224 131 L1145 1443 L1224 1443 L1224 0 L1145 0 L1145 1311 Z " />
<glyph glyph-name="Iishortcyrillic" unicode="&#x419;" horiz-adv-x="1361" d="M475 1789 Q475 1747 490 1713 Q505 1679 532.5 1655.5 Q560 1632 598 1619.5 Q636 1607 681 1607 Q726 1607 764 1619.5 Q802 1632 829.5 1655.5 Q857 1679 872 1713 Q887 1747 887 1789 L951 1789 Q951 1733 931 1689.5 Q911 1646 875.5 1615.5 Q840 1585 790.5 1569 Q741 1553 681 1553 Q621 1553 571.5 1569 Q522 1585 486.5 1615.5 Q451 1646 431 1689.5 Q411 1733 411 1789 L475 1789 Z M1145 1311 L1138 1311 L216 0 L138 0 L138 1443 L216 1443 L216 131 L224 131 L1145 1443 L1224 1443 L1224 0 L1145 0 L1145 1311 Z " />
<glyph glyph-name="Kacyrillic" unicode="&#x41a;" horiz-adv-x="1168" d="M1139 0 L1025 0 L222 718 L217 718 L217 0 L138 0 L138 1443 L217 1443 L217 764 L222 764 L975 1443 L1082 1443 L304 746 L1139 0 Z " />
<glyph glyph-name="Elcyrillic" unicode="&#x41b;" horiz-adv-x="1288" d="M1071 0 L1071 1370 L427 1370 L372 470 Q366 365 348.5 277.5 Q331 190 297.5 126 Q264 62 211.5 26.5 Q159 -9 83 -9 Q60 -9 44.5 -5 Q29 -1 25 0 L25 73 Q27 72 42.5 68.5 Q58 65 79 65 Q133 65 171.5 94.5 Q210 124 235.5 178 Q261 232 275 308 Q289 384 294 477 L352 1443 L1150 1443 L1150 0 L1071 0 Z " />
<glyph glyph-name="Emcyrillic" unicode="&#x41c;" horiz-adv-x="1624" d="M1486 0 L1410 0 L1410 1279 L1406 1279 L850 3 L774 3 L218 1279 L214 1279 L214 0 L138 0 L138 1443 L226 1443 L809 103 L815 103 L1396 1443 L1486 1443 L1486 0 Z " />
<glyph glyph-name="Encyrillic" unicode="&#x41d;" horiz-adv-x="1347" d="M1130 0 L1130 705 L217 705 L217 0 L138 0 L138 1443 L217 1443 L217 777 L1130 777 L1130 1443 L1209 1443 L1209 0 L1130 0 Z " />
<glyph glyph-name="Ocyrillic" unicode="&#x41e;" horiz-adv-x="1440" d="M720 1464 Q867 1464 986 1412 Q1105 1360 1189 1263.5 Q1273 1167 1318 1029.5 Q1363 892 1363 722 Q1363 551 1318 413.5 Q1273 276 1189.5 179.5 Q1106 83 987 31 Q868 -21 720 -21 Q572 -21 453 31 Q334 83 250.5 179.5 Q167 276 122 413.5 Q77 551 77 722 Q77 892 122 1029.5 Q167 1167 251 1263.5 Q335 1360 454 1412 Q573 1464 720 1464 Z M720 1390 Q591 1390 487.5 1343 Q384 1296 310.5 1209 Q237 1122 197.5 998.5 Q158 875 158 722 Q158 569 197.5 445 Q237 321 310.5 234 Q384 147 488 100 Q592 53 720 53 Q849 53 952.5 100 Q1056 147 1129.5 234 Q1203 321 1242.5 445 Q1282 569 1282 722 Q1282 875 1242.5 998.5 Q1203 1122 1129.5 1209 Q1056 1296 952.5 1343 Q849 1390 720 1390 Z " />
<glyph glyph-name="Pecyrillic" unicode="&#x41f;" horiz-adv-x="1334" d="M1117 0 L1117 1370 L217 1370 L217 0 L138 0 L138 1443 L1196 1443 L1196 0 L1117 0 Z " />
<glyph glyph-name="Ercyrillic" unicode="&#x420;" horiz-adv-x="1136" d="M607 1443 Q712 1443 798 1412.5 Q884 1382 944.5 1325.5 Q1005 1269 1038 1189.5 Q1071 1110 1071 1012 Q1071 914 1038 834.5 Q1005 755 944 699 Q883 643 797.5 612.5 Q712 582 607 582 L217 582 L217 0 L138 0 L138 1443 L607 1443 Z M217 654 L594 654 Q685 654 758.5 678.5 Q832 703 883.5 749.5 Q935 796 962.5 862.5 Q990 929 990 1012 Q990 1096 962.5 1162.5 Q935 1229 883.5 1275.5 Q832 1322 758.5 1346.5 Q685 1371 594 1371 L217 1371 L217 654 Z " />
<glyph glyph-name="Escyrillic" unicode="&#x421;" horiz-adv-x="1345" d="M712 -21 Q567 -21 449.5 32 Q332 85 249.5 182.5 Q167 280 122 419 Q77 558 77 730 Q77 898 121.5 1034 Q166 1170 249 1265.5 Q332 1361 449 1412.5 Q566 1464 712 1464 Q821 1464 918.5 1428.5 Q1016 1393 1092 1330 Q1168 1267 1217 1181 Q1266 1095 1278 995 L1198 995 Q1186 1079 1143 1151 Q1100 1223 1035 1276.5 Q970 1330 887 1360 Q804 1390 712 1390 Q585 1390 482.5 1344 Q380 1298 308 1212 Q236 1126 197 1004 Q158 882 158 730 Q158 574 197.5 449 Q237 324 309 236 Q381 148 483.5 100.5 Q586 53 712 53 Q806 53 889.5 79.5 Q973 106 1037.5 154 Q1102 202 1143.5 270 Q1185 338 1197 422 L1277 422 Q1265 322 1217.5 240.5 Q1170 159 1095.5 101 Q1021 43 923 11 Q825 -21 712 -21 Z " />
<glyph glyph-name="Tecyrillic" unicode="&#x422;" horiz-adv-x="1158" d="M539 0 L539 1370 L31 1370 L31 1443 L1127 1443 L1127 1370 L619 1370 L619 0 L539 0 Z " />
<glyph glyph-name="Ucyrillic" unicode="&#x423;" horiz-adv-x="1138" d="M265 -9 Q235 -9 217.5 -5 Q200 -1 196 1 L196 74 Q201 72 218.5 68.5 Q236 65 265 65 Q313 65 352 86 Q391 107 424 144.5 Q457 182 486 233 Q515 284 543 345 L32 1443 L119 1443 L582 438 L588 438 L1025 1443 L1109 1443 L641 381 Q602 291 564.5 219 Q527 147 483.5 96.5 Q440 46 387.5 18.5 Q335 -9 265 -9 Z " />
<glyph glyph-name="Efcyrillic" unicode="&#x424;" horiz-adv-x="1527" d="M724 1229 Q592 1228 485.5 1192 Q379 1156 303.5 1090 Q228 1024 187.5 931 Q147 838 147 723 Q147 608 188 515 Q229 422 304 356 Q379 290 485.5 254 Q592 218 724 217 L724 1229 Z M1379 723 Q1379 838 1338.5 931 Q1298 1024 1223 1090 Q1148 1156 1041.5 1192 Q935 1228 803 1229 L803 217 Q935 218 1041.5 254 Q1148 290 1223 356 Q1298 422 1338.5 515 Q1379 608 1379 723 Z M724 145 Q572 146 451 186.5 Q330 227 244.5 302 Q159 377 113.5 483.5 Q68 590 68 723 Q68 856 113.5 962.5 Q159 1069 244.5 1144 Q330 1219 451 1259.5 Q572 1300 724 1301 L724 1456 L803 1456 L803 1301 Q954 1300 1075.5 1259.5 Q1197 1219 1282 1144 Q1367 1069 1413 962.5 Q1459 856 1459 723 Q1459 590 1413.5 483.5 Q1368 377 1282.5 302 Q1197 227 1075.5 186.5 Q954 146 803 145 L803 -13 L724 -13 L724 145 Z " />
<glyph glyph-name="Xacyrillic" unicode="&#x425;" horiz-adv-x="1235" d="M568 722 L568 724 L54 1443 L149 1443 L618 785 L620 785 L1091 1443 L1183 1443 L665 722 L665 720 L1180 0 L1085 0 L617 656 L615 656 L144 0 L52 0 L568 722 Z " />
<glyph glyph-name="Tsecyrillic" unicode="&#x426;" horiz-adv-x="1400" d="M1301 -285 L1301 0 L138 0 L138 1443 L217 1443 L217 73 L1110 73 L1110 1443 L1189 1443 L1189 73 L1376 73 L1376 -285 L1301 -285 Z " />
<glyph glyph-name="Checyrillic" unicode="&#x427;" horiz-adv-x="1226" d="M1009 0 L1009 737 L1005 737 Q979 711 940.5 682.5 Q902 654 850 630.5 Q798 607 732.5 591.5 Q667 576 588 576 Q482 576 394 610 Q306 644 242.5 706.5 Q179 769 144 857 Q109 945 109 1054 L109 1443 L188 1443 L188 1063 Q188 965 218 888.5 Q248 812 301.5 759 Q355 706 428 678 Q501 650 588 650 Q677 650 748.5 671.5 Q820 693 873.5 723 Q927 753 961 785.5 Q995 818 1009 841 L1009 1443 L1088 1443 L1088 0 L1009 0 Z " />
<glyph glyph-name="Shacyrillic" unicode="&#x428;" horiz-adv-x="1770" d="M138 1443 L217 1443 L217 73 L846 73 L846 1443 L925 1443 L925 73 L1553 73 L1553 1443 L1632 1443 L1632 0 L138 0 L138 1443 Z " />
<glyph glyph-name="Shchacyrillic" unicode="&#x429;" horiz-adv-x="1844" d="M1744 -285 L1744 0 L138 0 L138 1443 L217 1443 L217 73 L846 73 L846 1443 L925 1443 L925 73 L1553 73 L1553 1443 L1632 1443 L1632 73 L1820 73 L1820 -285 L1744 -285 Z " />
<glyph glyph-name="Hardsigncyrillic" unicode="&#x42a;" horiz-adv-x="1389" d="M394 0 L394 1370 L42 1370 L42 1443 L473 1443 L473 855 L860 855 Q965 855 1050.5 824.5 Q1136 794 1197 738.5 Q1258 683 1291 604 Q1324 525 1324 428 Q1324 331 1291 252 Q1258 173 1197.5 117 Q1137 61 1051.5 30.5 Q966 0 861 0 L394 0 Z M847 73 Q939 73 1012.5 97.5 Q1086 122 1137.5 168 Q1189 214 1216.5 280 Q1244 346 1244 428 Q1244 510 1216.5 575.5 Q1189 641 1137 687 Q1085 733 1011.5 758 Q938 783 847 783 L473 783 L473 73 L847 73 Z " />
<glyph glyph-name="Yericyrillic" unicode="&#x42b;" horiz-adv-x="1509" d="M1292 0 L1292 1443 L1371 1443 L1371 0 L1292 0 Z M138 1443 L217 1443 L217 855 L604 855 Q709 855 794.5 824.5 Q880 794 941 738.5 Q1002 683 1035 604 Q1068 525 1068 428 Q1068 331 1035 252 Q1002 173 941.5 117 Q881 61 795 30.5 Q709 0 604 0 L138 0 L138 1443 Z M591 73 Q683 73 756.5 97.5 Q830 122 881.5 168 Q933 214 960.5 280 Q988 346 988 428 Q988 510 960.5 575.5 Q933 641 881 687 Q829 733 755.5 758 Q682 783 591 783 L217 783 L217 73 L591 73 Z " />
<glyph glyph-name="Softsigncyrillic" unicode="&#x42c;" horiz-adv-x="1133" d="M138 1443 L217 1443 L217 855 L604 855 Q709 855 794.5 824.5 Q880 794 941 738.5 Q1002 683 1035 604 Q1068 525 1068 428 Q1068 331 1035 252 Q1002 173 941.5 117 Q881 61 795 30.5 Q709 0 604 0 L138 0 L138 1443 Z M591 73 Q683 73 756.5 97.5 Q830 122 881.5 168 Q933 214 960.5 280 Q988 346 988 428 Q988 510 960.5 575.5 Q933 641 881 687 Q829 733 755.5 758 Q682 783 591 783 L217 783 L217 73 L591 73 Z " />
<glyph glyph-name="Ereversedcyrillic" unicode="&#x42d;" horiz-adv-x="1353" d="M649 -21 Q532 -21 432 10.5 Q332 42 255.5 100 Q179 158 130 240 Q81 322 67 422 L147 422 Q160 340 203.5 272 Q247 204 314 155.5 Q381 107 466.5 80 Q552 53 649 53 Q773 53 873.5 99 Q974 145 1045 230 Q1116 315 1154.5 435.5 Q1193 556 1195 705 L459 705 L459 777 L1193 777 Q1187 917 1146.5 1030.5 Q1106 1144 1035 1224 Q964 1304 866.5 1347 Q769 1390 649 1390 Q557 1390 472 1360 Q387 1330 319.5 1276.5 Q252 1223 206 1151 Q160 1079 147 995 L67 995 Q76 1062 102 1123 Q128 1184 168.5 1236 Q209 1288 261.5 1330 Q314 1372 375.5 1402 Q437 1432 506 1448 Q575 1464 649 1464 Q794 1464 910 1412 Q1026 1360 1107.5 1263.5 Q1189 1167 1232.5 1029.5 Q1276 892 1276 722 Q1276 550 1233 412.5 Q1190 275 1109 178.5 Q1028 82 911.5 30.5 Q795 -21 649 -21 Z " />
<glyph glyph-name="IUcyrillic" unicode="&#x42e;" horiz-adv-x="1853" d="M1152 -24 Q1008 -24 893.5 26.5 Q779 77 698.5 171.5 Q618 266 574 401 Q530 536 528 705 L217 705 L217 0 L138 0 L138 1443 L217 1443 L217 777 L529 777 Q536 937 582 1065 Q628 1193 708.5 1282 Q789 1371 901.5 1419 Q1014 1467 1152 1467 Q1297 1467 1412.5 1415 Q1528 1363 1609 1266.5 Q1690 1170 1733 1032 Q1776 894 1776 722 Q1776 549 1733 411 Q1690 273 1609 176.5 Q1528 80 1412.5 28 Q1297 -24 1152 -24 Z M1152 1393 Q1027 1393 926.5 1345.5 Q826 1298 755 1210.5 Q684 1123 646 999 Q608 875 608 722 Q608 569 646 444.5 Q684 320 754.5 232.5 Q825 145 926 97.5 Q1027 50 1152 50 Q1276 50 1376.5 97.5 Q1477 145 1548 233 Q1619 321 1657 445 Q1695 569 1695 722 Q1695 875 1657 999 Q1619 1123 1548 1210.5 Q1477 1298 1376.5 1345.5 Q1276 1393 1152 1393 Z " />
<glyph glyph-name="IAcyrillic" unicode="&#x42f;" horiz-adv-x="1157" d="M940 1370 L566 1370 Q473 1370 399.5 1346.5 Q326 1323 275 1278.5 Q224 1234 197 1170.5 Q170 1107 170 1027 Q170 947 197 883.5 Q224 820 275 776 Q326 732 399.5 708.5 Q473 685 566 685 L940 685 L940 1370 Z M129 0 L37 0 L460 622 Q379 634 311 666.5 Q243 699 194 751 Q145 803 117.5 872 Q90 941 90 1027 Q90 1123 122.5 1200 Q155 1277 215 1331 Q275 1385 360.5 1414 Q446 1443 553 1443 L1019 1443 L1019 0 L940 0 L940 612 L545 612 L129 0 Z " />
<glyph glyph-name="Djecyrillic" unicode="&#x402;" horiz-adv-x="1558" d="M1068 -12 Q1036 -12 1005.5 -8.5 Q975 -5 960 1 L960 73 Q975 68 1005 65.5 Q1035 63 1066 63 Q1138 63 1196.5 89 Q1255 115 1296 162 Q1337 209 1359 275 Q1381 341 1381 421 Q1381 507 1354.5 576 Q1328 645 1279.5 694 Q1231 743 1161.5 769 Q1092 795 1006 795 Q947 795 890 781.5 Q833 768 782.5 743.5 Q732 719 690 685 Q648 651 618 611 L618 0 L539 0 L539 1370 L31 1370 L31 1443 L1127 1443 L1127 1370 L618 1370 L618 716 L623 716 Q692 786 792.5 826.5 Q893 867 1009 867 Q1112 867 1195.5 835.5 Q1279 804 1337.5 745.5 Q1396 687 1428 605 Q1460 523 1460 422 Q1460 325 1431.5 245 Q1403 165 1351.5 108 Q1300 51 1228 19.5 Q1156 -12 1068 -12 Z " />
<glyph glyph-name="Gjecyrillic" unicode="&#x403;" horiz-adv-x="1024" d="M479 1553 L758 1843 L854 1843 L557 1553 L479 1553 Z M138 0 L138 1443 L962 1443 L962 1370 L217 1370 L217 0 L138 0 Z " />
<glyph glyph-name="Ecyrillic" unicode="&#x404;" horiz-adv-x="1345" d="M1277 422 Q1265 322 1217.5 240.5 Q1170 159 1095.5 101 Q1021 43 923 11 Q825 -21 712 -21 Q567 -21 449.5 32 Q332 85 249.5 182.5 Q167 280 122 419 Q77 558 77 730 Q77 898 121.5 1034 Q166 1170 249 1265.5 Q332 1361 449 1412.5 Q566 1464 712 1464 Q821 1464 918.5 1428.5 Q1016 1393 1092 1330 Q1168 1267 1217 1181 Q1266 1095 1278 995 L1198 995 Q1186 1079 1143 1151 Q1100 1223 1035 1276.5 Q970 1330 887 1360 Q804 1390 712 1390 Q590 1390 490 1347.5 Q390 1305 318.5 1225.5 Q247 1146 205.5 1032.5 Q164 919 159 777 L902 777 L902 705 L159 705 Q161 555 201.5 434 Q242 313 314.5 228.5 Q387 144 488 98.5 Q589 53 712 53 Q806 53 889.5 79.5 Q973 106 1037.5 154 Q1102 202 1143.5 270 Q1185 338 1197 422 L1277 422 L1277 422 Z " />
<glyph glyph-name="Dzecyrillic" unicode="&#x405;" horiz-adv-x="1157" d="M146 385 Q150 311 185.5 250 Q221 189 280 145 Q339 101 419 76.5 Q499 52 593 52 Q685 52 761.5 76.5 Q838 101 893 145 Q948 189 978.5 248.5 Q1009 308 1009 379 Q1009 436 989.5 481 Q970 526 928 562 Q886 598 821 626.5 Q756 655 665 678 L494 720 Q394 745 321 779 Q248 813 200 856.5 Q152 900 129 954.5 Q106 1009 106 1077 Q106 1161 143 1232 Q180 1303 244 1354.5 Q308 1406 394 1435 Q480 1464 579 1464 Q681 1464 768 1435.5 Q855 1407 919.5 1357.5 Q984 1308 1022 1239.5 Q1060 1171 1063 1092 L984 1092 Q980 1157 947.5 1212 Q915 1267 861 1306.5 Q807 1346 734.5 1368.5 Q662 1391 577 1391 Q496 1391 424.5 1368 Q353 1345 300.5 1303.5 Q248 1262 217.5 1204.5 Q187 1147 187 1079 Q187 971 269 904 Q351 837 525 794 L686 753 Q791 727 867 693.5 Q943 660 992.5 615.5 Q1042 571 1066 514 Q1090 457 1090 385 Q1090 295 1054 220.5 Q1018 146 952 92.5 Q886 39 793 9 Q700 -21 587 -21 Q476 -21 382.5 9 Q289 39 220.5 92.5 Q152 146 111.5 220.5 Q71 295 67 385 L146 385 Z " />
<glyph glyph-name="Icyrillic" unicode="&#x406;" horiz-adv-x="355" d="M138 0 L138 1443 L217 1443 L217 0 L138 0 Z " />
<glyph glyph-name="Yicyrillic" unicode="&#x407;" horiz-adv-x="355" d="M138 0 L138 1443 L217 1443 L217 0 L138 0 Z M25 1563 Q-3 1563 -23 1582.5 Q-43 1602 -43 1630 Q-43 1657 -23 1676.5 Q-3 1696 25 1696 Q52 1696 72 1676.5 Q92 1657 92 1630 Q92 1602 72 1582.5 Q52 1563 25 1563 Z M329 1563 Q302 1563 282 1582.5 Q262 1602 262 1630 Q262 1657 282 1676.5 Q302 1696 329 1696 Q357 1696 377 1676.5 Q397 1657 397 1630 Q397 1602 377 1582.5 Q357 1563 329 1563 Z " />
<glyph glyph-name="Jecyrillic" unicode="&#x408;" horiz-adv-x="971" d="M129 320 Q132 260 156 210.5 Q180 161 220.5 125.5 Q261 90 315.5 70 Q370 50 435 50 Q510 50 569 72.5 Q628 95 669.5 138.5 Q711 182 732.5 245 Q754 308 754 389 L754 1443 L834 1443 L834 385 Q834 291 806.5 215.5 Q779 140 728 86.5 Q677 33 603 4.5 Q529 -24 436 -24 Q353 -24 283.5 1.5 Q214 27 163 72.5 Q112 118 82.5 181.5 Q53 245 51 320 L129 320 Z " />
<glyph glyph-name="Ljecyrillic" unicode="&#x409;" horiz-adv-x="2064" d="M372 470 Q366 369 349.5 281.5 Q333 194 300 129.5 Q267 65 214 28 Q161 -9 83 -9 Q60 -9 44.5 -5 Q29 -1 25 0 L25 73 Q27 72 42.5 68.5 Q58 65 79 65 Q136 65 175 96.5 Q214 128 239 183.5 Q264 239 276.5 314.5 Q289 390 294 477 L352 1443 L1143 1443 L1143 855 L1530 855 Q1635 855 1720.5 824.5 Q1806 794 1867 738.5 Q1928 683 1961 604 Q1994 525 1994 428 Q1994 331 1961 252 Q1928 173 1867.5 117 Q1807 61 1721 30.5 Q1635 0 1530 0 L1064 0 L1064 1370 L427 1370 L372 470 Z M1517 73 Q1609 73 1682.5 97.5 Q1756 122 1807.5 168 Q1859 214 1886.5 280 Q1914 346 1914 428 Q1914 510 1886.5 575.5 Q1859 641 1807 687 Q1755 733 1681.5 758 Q1608 783 1517 783 L1143 783 L1143 73 L1517 73 Z " />
<glyph glyph-name="Njecyrillic" unicode="&#x40a;" horiz-adv-x="2099" d="M1558 73 Q1649 73 1722.5 95.5 Q1796 118 1847.5 160 Q1899 202 1926.5 262 Q1954 322 1954 397 Q1954 468 1926.5 525 Q1899 582 1847.5 622 Q1796 662 1722.5 683.5 Q1649 705 1558 705 L1184 705 L1184 73 L1558 73 Z M217 0 L138 0 L138 1443 L217 1443 L217 777 L1104 777 L1104 1443 L1184 1443 L1184 777 L1570 777 Q1675 777 1761 750 Q1847 723 1907.5 673.5 Q1968 624 2001 554 Q2034 484 2034 397 Q2034 307 2001 233.5 Q1968 160 1907.5 108.5 Q1847 57 1761.5 28.5 Q1676 0 1571 0 L1104 0 L1104 705 L217 705 L217 0 Z " />
<glyph glyph-name="Tshecyrillic" unicode="&#x40b;" horiz-adv-x="1578" d="M1003 795 Q947 795 891 781.5 Q835 768 784.5 744 Q734 720 691 686 Q648 652 618 611 L618 0 L539 0 L539 1370 L31 1370 L31 1443 L1127 1443 L1127 1370 L618 1370 L618 716 L623 716 Q695 789 795 828 Q895 867 1008 867 Q1108 867 1190.5 833.5 Q1273 800 1331 738.5 Q1389 677 1421 590.5 Q1453 504 1453 398 L1453 0 L1373 0 L1373 389 Q1373 481 1347 556 Q1321 631 1272.5 684 Q1224 737 1155.5 766 Q1087 795 1003 795 Z " />
<glyph glyph-name="Kjecyrillic" unicode="&#x40c;" horiz-adv-x="1165" d="M585 1553 L507 1553 L786 1843 L882 1843 L585 1553 Z M1139 0 L1025 0 L222 718 L217 718 L217 0 L138 0 L138 1443 L217 1443 L217 764 L222 764 L975 1443 L1082 1443 L304 746 L1139 0 Z " />
</font>
</svg>
