<?xml version="1.0" encoding="UTF-8"?>
<svg xmlns="http://www.w3.org/2000/svg" xmlns:xlink="http://www.w3.org/1999/xlink" version="1.2" >
<font id="SFNS Text Bold Italic">
<font-face  font-family="SFNS Text" units-per-em="2048" ascent="1980" descent="-432" font-style="italic" font-weight="700" font-stretch="normal" slope="-12" cap-height="1443" x-height="1103" underline-position="-50" underline-thickness="50" />
<missing-glyph  horiz-adv-x="1293" d="M335 1365 L1388 1365 L1098 0 L45 0 L335 1365 Z M504 303 Q504 258 535 230.5 Q566 203 615 203 Q667 203 699.5 231.5 Q732 260 732 306 Q732 352 700.5 380.5 Q669 409 618 409 Q567 409 535.5 380 Q504 351 504 303 Z M611 908 Q620 965 660.5 998 Q701 1031 761 1031 Q824 1031 862.5 1000.5 Q901 970 901 920 Q901 901 895 886 Q889 871 872.5 855 Q856 839 826.5 820 Q797 801 751 774 Q704 748 672.5 724 Q641 700 620 674.5 Q599 649 587.5 619.5 Q576 590 571 553 L565 511 L715 511 L722 550 Q726 571 733 587 Q740 603 756 618.5 Q772 634 800 652 Q828 670 874 697 Q924 725 960 752.5 Q996 780 1019 808 Q1042 836 1052.5 866 Q1063 896 1063 929 Q1063 982 1042 1025.5 Q1021 1069 982 1099.5 Q943 1130 888 1147 Q833 1164 766 1164 Q700 1164 645.5 1146 Q591 1128 551 1095 Q511 1062 487 1014.5 Q463 967 459 908 L611 908 Z " />
<glyph glyph-name="space" unicode="&#x20;" horiz-adv-x="528" d="" />
<glyph glyph-name="A" unicode="A" horiz-adv-x="1501" d="M1007 344 L498 344 L312 0 L-3 0 L817 1443 L1166 1443 L1353 0 L1042 0 L1007 344 Z M612 577 L993 577 L935 1142 L916 1142 L612 577 Z " />
<glyph glyph-name="Agrave" unicode="&#xc0;" horiz-adv-x="1501" d="M1007 344 L498 344 L312 0 L-3 0 L817 1443 L1166 1443 L1353 0 L1042 0 L1007 344 Z M612 577 L993 577 L935 1142 L916 1142 L612 577 Z M1159 1590 L893 1590 L676 1908 L982 1908 L1159 1590 Z " />
<glyph glyph-name="Aacute" unicode="&#xc1;" horiz-adv-x="1501" d="M1007 344 L498 344 L312 0 L-3 0 L817 1443 L1166 1443 L1353 0 L1042 0 L1007 344 Z M612 577 L993 577 L935 1142 L916 1142 L612 577 Z M1218 1908 L1533 1908 L1152 1590 L875 1590 L1218 1908 Z " />
<glyph glyph-name="Adieresis" unicode="&#xc4;" horiz-adv-x="1501" d="M1007 344 L498 344 L312 0 L-3 0 L817 1443 L1166 1443 L1353 0 L1042 0 L1007 344 Z M612 577 L993 577 L935 1142 L916 1142 L612 577 Z M819 1579 Q785 1579 756.5 1590.5 Q728 1602 707 1622 Q686 1642 674.5 1670 Q663 1698 663 1731 Q663 1764 674.5 1791.5 Q686 1819 707 1839.5 Q728 1860 756.5 1871 Q785 1882 819 1882 Q852 1882 880.5 1871 Q909 1860 930 1839.5 Q951 1819 962.5 1791.5 Q974 1764 974 1731 Q974 1698 962.5 1670 Q951 1642 930 1622 Q909 1602 880.5 1590.5 Q852 1579 819 1579 Z M1286 1579 Q1253 1579 1224.5 1590.5 Q1196 1602 1175 1622 Q1154 1642 1142.5 1670 Q1131 1698 1131 1731 Q1131 1764 1142.5 1791.5 Q1154 1819 1175 1839.5 Q1196 1860 1224.5 1871 Q1253 1882 1286 1882 Q1320 1882 1348.5 1871 Q1377 1860 1398 1839.5 Q1419 1819 1430.5 1791.5 Q1442 1764 1442 1731 Q1442 1698 1430.5 1670 Q1419 1642 1398 1622 Q1377 1602 1348.5 1590.5 Q1320 1579 1286 1579 Z " />
<glyph glyph-name="Adieresismacron" unicode="&#x1de;" horiz-adv-x="1501" d="M1007 344 L498 344 L312 0 L-3 0 L817 1443 L1166 1443 L1353 0 L1042 0 L1007 344 Z M612 577 L993 577 L935 1142 L916 1142 L612 577 Z M771 2164 L1516 2164 L1480 1996 L735 1996 L771 2164 Z M819 1579 Q786 1579 757.5 1590 Q729 1601 708.5 1621 Q688 1641 676.5 1668.5 Q665 1696 665 1729 Q665 1762 676.5 1789.5 Q688 1817 708.5 1837 Q729 1857 757.5 1868 Q786 1879 819 1879 Q852 1879 880.5 1868 Q909 1857 929 1837 Q949 1817 960.5 1789.5 Q972 1762 972 1729 Q972 1696 960.5 1668.5 Q949 1641 929 1621 Q909 1601 880.5 1590 Q852 1579 819 1579 Z M1287 1579 Q1254 1579 1226 1590 Q1198 1601 1177.5 1621 Q1157 1641 1145.5 1668.5 Q1134 1696 1134 1729 Q1134 1762 1145.5 1789.5 Q1157 1817 1177.5 1837 Q1198 1857 1226 1868 Q1254 1879 1287 1879 Q1320 1879 1348.5 1868 Q1377 1857 1397.5 1837 Q1418 1817 1429.5 1789.5 Q1441 1762 1441 1729 Q1441 1696 1429.5 1668.5 Q1418 1641 1397.5 1621 Q1377 1601 1348.5 1590 Q1320 1579 1287 1579 Z " />
<glyph glyph-name="Aring" unicode="&#xc5;" horiz-adv-x="1501" d="M1007 344 L498 344 L312 0 L-3 0 L817 1443 L1166 1443 L1353 0 L1042 0 L1007 344 Z M612 577 L993 577 L935 1142 L916 1142 L612 577 Z M1072 1578 Q1019 1578 974 1596 Q929 1614 896 1646.5 Q863 1679 844.5 1723 Q826 1767 826 1819 Q826 1870 844.5 1914 Q863 1958 896 1989.5 Q929 2021 974 2039 Q1019 2057 1072 2057 Q1124 2057 1169 2039 Q1214 2021 1247 1989.5 Q1280 1958 1298.5 1914 Q1317 1870 1317 1819 Q1317 1767 1298.5 1723 Q1280 1679 1247 1646.5 Q1214 1614 1169 1596 Q1124 1578 1072 1578 Z M1071 1714 Q1118 1714 1147.5 1743.5 Q1177 1773 1177 1818 Q1177 1863 1147 1892 Q1117 1921 1071 1921 Q1025 1921 995.5 1892 Q966 1863 966 1818 Q966 1772 995.5 1743 Q1025 1714 1071 1714 Z " />
<glyph glyph-name="Aringacute" unicode="&#x1fa;" horiz-adv-x="1501" d="M1007 344 L498 344 L312 0 L-3 0 L817 1443 L1166 1443 L1353 0 L1042 0 L1007 344 Z M612 577 L993 577 L935 1142 L916 1142 L612 577 Z M1004 1779 Q988 1759 992.5 1735 Q997 1711 1018 1694 Q1040 1677 1064 1679.5 Q1088 1682 1104 1701 Q1120 1721 1116 1745 Q1112 1769 1090 1786 Q1069 1803 1044.5 1801 Q1020 1799 1004 1779 Z M1055 1531 Q1009 1531 969.5 1547 Q930 1563 901 1591 Q872 1619 855.5 1657.5 Q839 1696 839 1742 Q839 1787 855.5 1825 Q872 1863 901 1891 Q930 1919 969.5 1934.5 Q1009 1950 1055 1950 Q1101 1950 1140 1934.5 Q1179 1919 1208 1891 Q1237 1863 1253.5 1825 Q1270 1787 1270 1742 Q1270 1696 1253.5 1657.5 Q1237 1619 1208 1591 Q1179 1563 1140 1547 Q1101 1531 1055 1531 Z M1355 2214 L1199 2023 L962 2023 L1091 2214 L1355 2214 Z " />
<glyph glyph-name="Atilde" unicode="&#xc3;" horiz-adv-x="1501" d="M1007 344 L498 344 L312 0 L-3 0 L817 1443 L1166 1443 L1353 0 L1042 0 L1007 344 Z M612 577 L993 577 L935 1142 L916 1142 L612 577 Z M1212 1578 Q1151 1578 1108 1600.5 Q1065 1623 1031 1650 Q997 1677 968.5 1699.5 Q940 1722 907 1722 Q868 1722 843 1697.5 Q818 1673 810 1618 L629 1618 Q638 1683 661.5 1734.5 Q685 1786 720.5 1821.5 Q756 1857 801.5 1876 Q847 1895 898 1895 Q959 1895 1002 1872.5 Q1045 1850 1078.5 1823 Q1112 1796 1141 1773.5 Q1170 1751 1202 1751 Q1242 1751 1267 1775.5 Q1292 1800 1300 1855 L1481 1855 Q1472 1790 1448 1738.5 Q1424 1687 1389 1651.5 Q1354 1616 1308.5 1597 Q1263 1578 1212 1578 Z " />
<glyph glyph-name="Abrevegrave" unicode="&#x1eb0;" horiz-adv-x="1501" d="M1007 344 L498 344 L312 0 L-3 0 L817 1443 L1166 1443 L1353 0 L1042 0 L1007 344 Z M612 577 L993 577 L935 1142 L916 1142 L612 577 Z M959 1925 L785 2179 L1054 2179 L1184 1925 L959 1925 Z M864 1915 L864 1894 Q864 1862 877.5 1836 Q891 1810 915.5 1790.5 Q940 1771 973 1760.5 Q1006 1750 1045 1750 Q1128 1750 1180 1792.5 Q1232 1835 1250 1915 L1455 1915 Q1444 1839 1410 1777 Q1376 1715 1322 1671 Q1268 1627 1196.5 1603 Q1125 1579 1039 1579 Q955 1579 885 1602 Q815 1625 764 1666 Q713 1707 685 1762.5 Q657 1818 657 1884 Q657 1894 657.5 1900.5 Q658 1907 659 1915 L864 1915 Z " />
<glyph glyph-name="Adotmacron" unicode="&#x1e0;" horiz-adv-x="1501" d="M1007 344 L498 344 L312 0 L-3 0 L817 1443 L1166 1443 L1353 0 L1042 0 L1007 344 Z M612 577 L993 577 L935 1142 L916 1142 L612 577 Z M735 1996 L771 2164 L1516 2164 L1481 1996 L735 1996 Z M1052 1575 Q1018 1575 989.5 1586.5 Q961 1598 940 1618 Q919 1638 907.5 1665.5 Q896 1693 896 1725 Q896 1757 907.5 1784 Q919 1811 940 1831 Q961 1851 989.5 1862 Q1018 1873 1052 1873 Q1086 1873 1114.5 1862 Q1143 1851 1164 1831 Q1185 1811 1196.5 1784 Q1208 1757 1208 1725 Q1208 1693 1196.5 1665.5 Q1185 1638 1164 1618 Q1143 1598 1114.5 1586.5 Q1086 1575 1052 1575 Z " />
<glyph glyph-name="Aringbelow" unicode="&#x1e00;" horiz-adv-x="1501" d="M1007 344 L498 344 L312 0 L-3 0 L817 1443 L1166 1443 L1353 0 L1042 0 L1007 344 Z M612 577 L993 577 L935 1142 L916 1142 L612 577 Z M608 -570 Q555 -570 510 -552 Q465 -534 432 -501.5 Q399 -469 380.5 -425 Q362 -381 362 -329 Q362 -278 380.5 -234 Q399 -190 432 -158.5 Q465 -127 510 -109 Q555 -91 608 -91 Q660 -91 705 -109 Q750 -127 783 -158.5 Q816 -190 834.5 -234 Q853 -278 853 -329 Q853 -381 834.5 -425 Q816 -469 783 -501.5 Q750 -534 705 -552 Q660 -570 608 -570 Z M607 -434 Q654 -434 683.5 -404.5 Q713 -375 713 -330 Q713 -285 683 -256 Q653 -227 607 -227 Q561 -227 531.5 -256 Q502 -285 502 -330 Q502 -376 531.5 -405 Q561 -434 607 -434 Z " />
<glyph glyph-name="Acircumflex" unicode="&#xc2;" horiz-adv-x="1501" d="M1007 344 L498 344 L312 0 L-3 0 L817 1443 L1166 1443 L1353 0 L1042 0 L1007 344 Z M612 577 L993 577 L935 1142 L916 1142 L612 577 Z M1413 1590 L1164 1590 L1072 1781 L1054 1781 L882 1590 L607 1590 L935 1925 L1226 1925 L1413 1590 Z " />
<glyph glyph-name="Acircumflexdotbelow" unicode="&#x1eac;" horiz-adv-x="1501" d="M1007 344 L498 344 L312 0 L-3 0 L817 1443 L1166 1443 L1353 0 L1042 0 L1007 344 Z M612 577 L993 577 L935 1142 L916 1142 L612 577 Z M617 -419 Q581 -419 552 -408.5 Q523 -398 502.5 -379.5 Q482 -361 471 -335 Q460 -309 460 -279 Q460 -249 471 -223.5 Q482 -198 502.5 -179.5 Q523 -161 552 -150.5 Q581 -140 617 -140 Q652 -140 681 -150.5 Q710 -161 730.5 -179.5 Q751 -198 762.5 -223.5 Q774 -249 774 -279 Q774 -309 762.5 -335 Q751 -361 730.5 -379.5 Q710 -398 681 -408.5 Q652 -419 617 -419 Z M1413 1590 L1164 1590 L1072 1781 L1054 1781 L882 1590 L607 1590 L935 1925 L1226 1925 L1413 1590 Z " />
<glyph glyph-name="Acircumflexacute" unicode="&#x1ea4;" horiz-adv-x="1501" d="M1007 344 L498 344 L312 0 L-3 0 L817 1443 L1166 1443 L1353 0 L1042 0 L1007 344 Z M612 577 L993 577 L935 1142 L916 1142 L612 577 Z M1503 2179 L1775 2179 L1502 1885 L1259 1885 L1503 2179 Z M1438 1579 L1168 1579 L1061 1731 L1043 1731 L867 1579 L568 1579 L898 1843 L1232 1843 L1438 1579 Z " />
<glyph glyph-name="Acircumflextilde" unicode="&#x1eaa;" horiz-adv-x="1501" d="M1007 344 L498 344 L312 0 L-3 0 L817 1443 L1166 1443 L1353 0 L1042 0 L1007 344 Z M612 577 L993 577 L935 1142 L916 1142 L612 577 Z M1438 1579 L1169 1579 L1062 1731 L1044 1731 L867 1579 L569 1579 L898 1843 L1232 1843 L1438 1579 Z M1237 1898 Q1184 1898 1145 1917 Q1106 1936 1074 1959 Q1042 1982 1014 2001 Q986 2020 955 2020 Q917 2020 892.5 2000.5 Q868 1981 858 1930 L677 1930 Q686 1994 710 2043 Q734 2092 770 2125.5 Q806 2159 850.5 2176 Q895 2193 944 2193 Q996 2193 1035.5 2174 Q1075 2155 1107 2132.5 Q1139 2110 1167 2091 Q1195 2072 1226 2072 Q1264 2072 1288.5 2091.5 Q1313 2111 1323 2162 L1504 2162 Q1495 2098 1470.5 2048.5 Q1446 1999 1410.5 1965.5 Q1375 1932 1330.5 1915 Q1286 1898 1237 1898 Z " />
<glyph glyph-name="Acircumflexgrave" unicode="&#x1ea6;" horiz-adv-x="1501" d="M1007 344 L498 344 L312 0 L-3 0 L817 1443 L1166 1443 L1353 0 L1042 0 L1007 344 Z M612 577 L993 577 L935 1142 L916 1142 L612 577 Z M1332 1885 L1181 2179 L1454 2179 L1575 1885 L1332 1885 Z M1438 1579 L1168 1579 L1061 1731 L1043 1731 L867 1579 L568 1579 L898 1843 L1232 1843 L1438 1579 Z " />
<glyph glyph-name="Acircumflexhookabove" unicode="&#x1ea8;" horiz-adv-x="1501" d="M1007 344 L498 344 L312 0 L-3 0 L817 1443 L1166 1443 L1353 0 L1042 0 L1007 344 Z M612 577 L993 577 L935 1142 L916 1142 L612 577 Z M1272 2170 Q1298 2178 1329 2182.5 Q1360 2187 1391 2187 Q1447 2187 1491.5 2173.5 Q1536 2160 1567 2136 Q1598 2112 1614.5 2079.5 Q1631 2047 1631 2008 Q1631 1927 1577 1858 Q1523 1789 1421 1745 L1336 1860 Q1436 1902 1436 1966 Q1436 1997 1409 2013 Q1382 2029 1331 2029 Q1304 2029 1280 2026 Q1256 2023 1239 2017 L1272 2170 Z M1438 1579 L1168 1579 L1061 1731 L1043 1731 L867 1579 L568 1579 L898 1843 L1232 1843 L1438 1579 Z " />
<glyph glyph-name="Abreve" unicode="&#x102;" horiz-adv-x="1501" d="M1007 344 L498 344 L312 0 L-3 0 L817 1443 L1166 1443 L1353 0 L1042 0 L1007 344 Z M612 577 L993 577 L935 1142 L916 1142 L612 577 Z M657 1884 Q657 1894 657.5 1900.5 Q658 1907 659 1915 L864 1915 L864 1894 Q864 1862 877.5 1836 Q891 1810 915.5 1790.5 Q940 1771 973 1760.5 Q1006 1750 1045 1750 Q1128 1750 1180 1792.5 Q1232 1835 1250 1915 L1455 1915 Q1444 1839 1410 1777 Q1376 1715 1322 1671 Q1268 1627 1196.5 1603 Q1125 1579 1039 1579 Q955 1579 885 1602 Q815 1625 764 1666 Q713 1707 685 1762.5 Q657 1818 657 1884 Z " />
<glyph glyph-name="Abreveacute" unicode="&#x1eae;" horiz-adv-x="1501" d="M1007 344 L498 344 L312 0 L-3 0 L817 1443 L1166 1443 L1353 0 L1042 0 L1007 344 Z M612 577 L993 577 L935 1142 L916 1142 L612 577 Z M1168 2179 L1437 2179 L1155 1925 L930 1925 L1168 2179 Z M864 1915 L864 1894 Q864 1862 877.5 1836 Q891 1810 915.5 1790.5 Q940 1771 973 1760.5 Q1006 1750 1045 1750 Q1128 1750 1180 1792.5 Q1232 1835 1250 1915 L1455 1915 Q1444 1839 1410 1777 Q1376 1715 1322 1671 Q1268 1627 1196.5 1603 Q1125 1579 1039 1579 Q955 1579 885 1602 Q815 1625 764 1666 Q713 1707 685 1762.5 Q657 1818 657 1884 Q657 1894 657.5 1900.5 Q658 1907 659 1915 L864 1915 Z " />
<glyph glyph-name="Abrevetilde" unicode="&#x1eb4;" horiz-adv-x="1501" d="M1007 344 L498 344 L312 0 L-3 0 L817 1443 L1166 1443 L1353 0 L1042 0 L1007 344 Z M612 577 L993 577 L935 1142 L916 1142 L612 577 Z M846 1858 Q849 1835 863 1814 Q877 1793 900 1777 Q923 1761 954.5 1751.5 Q986 1742 1024 1742 Q1105 1742 1155 1773 Q1205 1804 1221 1858 L1430 1858 Q1418 1798 1384 1747 Q1350 1696 1297 1658.5 Q1244 1621 1173.5 1600 Q1103 1579 1018 1579 Q932 1579 862.5 1603 Q793 1627 743.5 1666.5 Q694 1706 666.5 1756 Q639 1806 637 1858 L846 1858 Z M1237 1909 Q1184 1909 1145 1927 Q1106 1945 1073.5 1966 Q1041 1987 1012.5 2005 Q984 2023 953 2023 Q877 2023 858 1940 L677 1940 Q686 2000 710.5 2047.5 Q735 2095 771 2127 Q807 2159 851.5 2176 Q896 2193 944 2193 Q996 2193 1035.5 2175 Q1075 2157 1107.5 2136 Q1140 2115 1168.5 2097 Q1197 2079 1228 2079 Q1266 2079 1289.5 2100.5 Q1313 2122 1323 2173 L1504 2173 Q1495 2109 1470.5 2059.5 Q1446 2010 1410.5 1976.5 Q1375 1943 1330.5 1926 Q1286 1909 1237 1909 Z " />
<glyph glyph-name="Abrevehookabove" unicode="&#x1eb2;" horiz-adv-x="1501" d="M1007 344 L498 344 L312 0 L-3 0 L817 1443 L1166 1443 L1353 0 L1042 0 L1007 344 Z M612 577 L993 577 L935 1142 L916 1142 L612 577 Z M931 2208 Q956 2216 992 2222.5 Q1028 2229 1064 2229 Q1160 2229 1212.5 2186 Q1265 2143 1265 2071 Q1265 2028 1248.5 1991 Q1232 1954 1202 1923.5 Q1172 1893 1130 1869.5 Q1088 1846 1036 1830 L986 1947 Q1026 1953 1055.5 1976.5 Q1085 2000 1085 2032 Q1085 2059 1065 2074 Q1045 2089 1005 2089 Q977 2089 950 2086 Q923 2083 903 2075 L931 2208 Z M856 1858 Q859 1835 873 1814 Q887 1793 910 1777 Q933 1761 964.5 1751.5 Q996 1742 1034 1742 Q1115 1742 1165 1773 Q1215 1804 1231 1858 L1440 1858 Q1428 1798 1394 1747 Q1360 1696 1307 1658.5 Q1254 1621 1183.5 1600 Q1113 1579 1028 1579 Q942 1579 872.5 1604 Q803 1629 753.5 1668.5 Q704 1708 676.5 1758 Q649 1808 647 1858 L856 1858 Z " />
<glyph glyph-name="Abrevedotbelow" unicode="&#x1eb6;" horiz-adv-x="1501" d="M1007 344 L498 344 L312 0 L-3 0 L817 1443 L1166 1443 L1353 0 L1042 0 L1007 344 Z M612 577 L993 577 L935 1142 L916 1142 L612 577 Z M617 -419 Q581 -419 552 -408.5 Q523 -398 502.5 -379.5 Q482 -361 471 -335 Q460 -309 460 -279 Q460 -249 471 -223.5 Q482 -198 502.5 -179.5 Q523 -161 552 -150.5 Q581 -140 617 -140 Q652 -140 681 -150.5 Q710 -161 730.5 -179.5 Q751 -198 762.5 -223.5 Q774 -249 774 -279 Q774 -309 762.5 -335 Q751 -361 730.5 -379.5 Q710 -398 681 -408.5 Q652 -419 617 -419 Z M657 1884 Q657 1894 657.5 1900.5 Q658 1907 659 1915 L864 1915 L864 1894 Q864 1862 877.5 1836 Q891 1810 915.5 1790.5 Q940 1771 973 1760.5 Q1006 1750 1045 1750 Q1128 1750 1180 1792.5 Q1232 1835 1250 1915 L1455 1915 Q1444 1839 1410 1777 Q1376 1715 1322 1671 Q1268 1627 1196.5 1603 Q1125 1579 1039 1579 Q955 1579 885 1602 Q815 1625 764 1666 Q713 1707 685 1762.5 Q657 1818 657 1884 Z " />
<glyph glyph-name="Ainvertedbreve" unicode="&#x202;" horiz-adv-x="1501" d="M1007 344 L498 344 L312 0 L-3 0 L817 1443 L1166 1443 L1353 0 L1042 0 L1007 344 Z M612 577 L993 577 L935 1142 L916 1142 L612 577 Z M1444 1611 Q1444 1601 1444 1594 Q1444 1587 1442 1579 L1238 1579 L1238 1601 Q1238 1632 1224 1658.5 Q1210 1685 1186 1704.5 Q1162 1724 1129 1734.5 Q1096 1745 1057 1745 Q977 1745 923 1701.5 Q869 1658 852 1579 L647 1579 Q658 1653 692 1715 Q726 1777 780 1821.5 Q834 1866 905.5 1890.5 Q977 1915 1063 1915 Q1147 1915 1217 1892 Q1287 1869 1337.5 1828.5 Q1388 1788 1416 1732.5 Q1444 1677 1444 1611 Z " />
<glyph glyph-name="Acaron" unicode="&#x1cd;" horiz-adv-x="1501" d="M1007 344 L498 344 L312 0 L-3 0 L817 1443 L1166 1443 L1353 0 L1042 0 L1007 344 Z M612 577 L993 577 L935 1142 L916 1142 L612 577 Z M702 1925 L952 1925 L1044 1734 L1062 1734 L1234 1925 L1509 1925 L1181 1590 L890 1590 L702 1925 Z " />
<glyph glyph-name="Adotaccent" unicode="&#x226;" horiz-adv-x="1501" d="M1007 344 L498 344 L312 0 L-3 0 L817 1443 L1166 1443 L1353 0 L1042 0 L1007 344 Z M612 577 L993 577 L935 1142 L916 1142 L612 577 Z M1056 1579 Q1021 1579 992 1591 Q963 1603 942 1624 Q921 1645 909.5 1674 Q898 1703 898 1737 Q898 1771 909.5 1800 Q921 1829 942 1850 Q963 1871 992 1883 Q1021 1895 1056 1895 Q1090 1895 1119 1883 Q1148 1871 1169 1850 Q1190 1829 1201.5 1800 Q1213 1771 1213 1737 Q1213 1703 1201.5 1674 Q1190 1645 1169 1624 Q1148 1603 1119 1591 Q1090 1579 1056 1579 Z " />
<glyph glyph-name="Adotbelow" unicode="&#x1ea0;" horiz-adv-x="1501" d="M1007 344 L498 344 L312 0 L-3 0 L817 1443 L1166 1443 L1353 0 L1042 0 L1007 344 Z M612 577 L993 577 L935 1142 L916 1142 L612 577 Z M617 -419 Q581 -419 552 -408.5 Q523 -398 502.5 -379.5 Q482 -361 471 -335 Q460 -309 460 -279 Q460 -249 471 -223.5 Q482 -198 502.5 -179.5 Q523 -161 552 -150.5 Q581 -140 617 -140 Q652 -140 681 -150.5 Q710 -161 730.5 -179.5 Q751 -198 762.5 -223.5 Q774 -249 774 -279 Q774 -309 762.5 -335 Q751 -361 730.5 -379.5 Q710 -398 681 -408.5 Q652 -419 617 -419 Z " />
<glyph glyph-name="Ahookabove" unicode="&#x1ea2;" horiz-adv-x="1501" d="M1007 344 L498 344 L312 0 L-3 0 L817 1443 L1166 1443 L1353 0 L1042 0 L1007 344 Z M612 577 L993 577 L935 1142 L916 1142 L612 577 Z M917 1993 Q941 2000 975 2005 Q1009 2010 1046 2010 Q1095 2010 1139 1996 Q1183 1982 1216 1956.5 Q1249 1931 1268 1895.5 Q1287 1860 1287 1818 Q1287 1771 1269 1729.5 Q1251 1688 1218 1653 Q1185 1618 1137.5 1591 Q1090 1564 1031 1546 L962 1667 Q1019 1682 1056 1713.5 Q1093 1745 1093 1782 Q1093 1814 1063.5 1833.5 Q1034 1853 986 1853 Q958 1853 930 1849.5 Q902 1846 885 1841 L917 1993 Z " />
<glyph glyph-name="Adblgrave" unicode="&#x200;" horiz-adv-x="1501" d="M1007 344 L498 344 L312 0 L-3 0 L817 1443 L1166 1443 L1353 0 L1042 0 L1007 344 Z M612 577 L993 577 L935 1142 L916 1142 L612 577 Z M742 1590 L563 1908 L834 1908 L987 1590 L742 1590 Z M1180 1590 L1001 1908 L1271 1908 L1424 1590 L1180 1590 Z " />
<glyph glyph-name="Amacron" unicode="&#x100;" horiz-adv-x="1501" d="M1007 344 L498 344 L312 0 L-3 0 L817 1443 L1166 1443 L1353 0 L1042 0 L1007 344 Z M612 577 L993 577 L935 1142 L916 1142 L612 577 Z M659 1632 L696 1813 L1442 1813 L1404 1632 L659 1632 Z " />
<glyph glyph-name="Aogonek" unicode="&#x104;" horiz-adv-x="1501" d="M612 577 L993 577 L935 1142 L916 1142 L612 577 Z M1271 -444 Q1248 -450 1219.5 -454 Q1191 -458 1163 -458 Q1105 -458 1058 -444 Q1011 -430 977.5 -403.5 Q944 -377 926 -340 Q908 -303 908 -257 Q908 -181 953 -117.5 Q998 -54 1092 2 L1094 13 L1040 13 L1007 344 L498 344 L312 0 L-3 0 L817 1443 L1166 1443 L1350 31 Q1242 -18 1185 -75.5 Q1128 -133 1128 -193 Q1128 -238 1159.5 -261.5 Q1191 -285 1248 -285 Q1264 -285 1280.5 -283.5 Q1297 -282 1305 -280 L1271 -444 Z " />
<glyph glyph-name="B" unicode="B" horiz-adv-x="1420" d="M100 0 L407 1443 L996 1443 Q1089 1443 1165 1420.5 Q1241 1398 1295.5 1357 Q1350 1316 1379.5 1259 Q1409 1202 1409 1132 Q1409 1061 1385 998 Q1361 935 1317.5 886 Q1274 837 1214 805 Q1154 773 1083 763 L1081 744 Q1141 733 1188.5 707.5 Q1236 682 1269.5 645 Q1303 608 1321 560 Q1339 512 1339 456 Q1339 356 1298.5 272.5 Q1258 189 1185 128.5 Q1112 68 1011.5 34 Q911 0 791 0 L100 0 Z M584 851 L824 851 Q886 851 937.5 867 Q989 883 1026.5 911.5 Q1064 940 1084.5 979 Q1105 1018 1105 1065 Q1105 1140 1050 1179.5 Q995 1219 889 1219 L664 1219 L584 851 Z M739 237 Q803 237 857 254.5 Q911 272 950.5 303 Q990 334 1012 377 Q1034 420 1034 472 Q1034 557 974 602 Q914 647 800 647 L541 647 L452 237 L739 237 Z " />
<glyph glyph-name="Blinebelow" unicode="&#x1e06;" horiz-adv-x="1420" d="M100 0 L407 1443 L996 1443 Q1089 1443 1165 1420.5 Q1241 1398 1295.5 1357 Q1350 1316 1379.5 1259 Q1409 1202 1409 1132 Q1409 1061 1385 998 Q1361 935 1317.5 886 Q1274 837 1214 805 Q1154 773 1083 763 L1081 744 Q1141 733 1188.5 707.5 Q1236 682 1269.5 645 Q1303 608 1321 560 Q1339 512 1339 456 Q1339 356 1298.5 272.5 Q1258 189 1185 128.5 Q1112 68 1011.5 34 Q911 0 791 0 L100 0 Z M584 851 L824 851 Q886 851 937.5 867 Q989 883 1026.5 911.5 Q1064 940 1084.5 979 Q1105 1018 1105 1065 Q1105 1140 1050 1179.5 Q995 1219 889 1219 L664 1219 L584 851 Z M739 237 Q803 237 857 254.5 Q911 272 950.5 303 Q990 334 1012 377 Q1034 420 1034 472 Q1034 557 974 602 Q914 647 800 647 L541 647 L452 237 L739 237 Z M118 -401 L155 -220 L901 -220 L863 -401 L118 -401 Z " />
<glyph glyph-name="Bdotbelow" unicode="&#x1e04;" horiz-adv-x="1420" d="M515 -419 Q479 -419 450 -408.5 Q421 -398 400.5 -379.5 Q380 -361 369 -335 Q358 -309 358 -279 Q358 -249 369 -223.5 Q380 -198 400.5 -179.5 Q421 -161 450 -150.5 Q479 -140 515 -140 Q550 -140 579 -150.5 Q608 -161 628.5 -179.5 Q649 -198 660.5 -223.5 Q672 -249 672 -279 Q672 -309 660.5 -335 Q649 -361 628.5 -379.5 Q608 -398 579 -408.5 Q550 -419 515 -419 Z M100 0 L407 1443 L996 1443 Q1089 1443 1165 1420.5 Q1241 1398 1295.5 1357 Q1350 1316 1379.5 1259 Q1409 1202 1409 1132 Q1409 1061 1385 998 Q1361 935 1317.5 886 Q1274 837 1214 805 Q1154 773 1083 763 L1081 744 Q1141 733 1188.5 707.5 Q1236 682 1269.5 645 Q1303 608 1321 560 Q1339 512 1339 456 Q1339 356 1298.5 272.5 Q1258 189 1185 128.5 Q1112 68 1011.5 34 Q911 0 791 0 L100 0 Z M584 851 L824 851 Q886 851 937.5 867 Q989 883 1026.5 911.5 Q1064 940 1084.5 979 Q1105 1018 1105 1065 Q1105 1140 1050 1179.5 Q995 1219 889 1219 L664 1219 L584 851 Z M739 237 Q803 237 857 254.5 Q911 272 950.5 303 Q990 334 1012 377 Q1034 420 1034 472 Q1034 557 974 602 Q914 647 800 647 L541 647 L452 237 L739 237 Z " />
<glyph glyph-name="Bdotaccent" unicode="&#x1e02;" horiz-adv-x="1420" d="M919 1579 Q884 1579 855 1591 Q826 1603 805 1624 Q784 1645 772.5 1674 Q761 1703 761 1737 Q761 1771 772.5 1800 Q784 1829 805 1850 Q826 1871 855 1883 Q884 1895 919 1895 Q953 1895 982 1883 Q1011 1871 1032 1850 Q1053 1829 1064.5 1800 Q1076 1771 1076 1737 Q1076 1703 1064.5 1674 Q1053 1645 1032 1624 Q1011 1603 982 1591 Q953 1579 919 1579 Z M100 0 L407 1443 L996 1443 Q1089 1443 1165 1420.5 Q1241 1398 1295.5 1357 Q1350 1316 1379.5 1259 Q1409 1202 1409 1132 Q1409 1061 1385 998 Q1361 935 1317.5 886 Q1274 837 1214 805 Q1154 773 1083 763 L1081 744 Q1141 733 1188.5 707.5 Q1236 682 1269.5 645 Q1303 608 1321 560 Q1339 512 1339 456 Q1339 356 1298.5 272.5 Q1258 189 1185 128.5 Q1112 68 1011.5 34 Q911 0 791 0 L100 0 Z M584 851 L824 851 Q886 851 937.5 867 Q989 883 1026.5 911.5 Q1064 940 1084.5 979 Q1105 1018 1105 1065 Q1105 1140 1050 1179.5 Q995 1219 889 1219 L664 1219 L584 851 Z M739 237 Q803 237 857 254.5 Q911 272 950.5 303 Q990 334 1012 377 Q1034 420 1034 472 Q1034 557 974 602 Q914 647 800 647 L541 647 L452 237 L739 237 Z " />
<glyph glyph-name="C" unicode="C" horiz-adv-x="1532" d="M1259 946 Q1256 1006 1233 1055 Q1210 1104 1170 1139 Q1130 1174 1075 1193 Q1020 1212 954 1212 Q856 1212 771 1164.5 Q686 1117 623.5 1033.5 Q561 950 525 836 Q489 722 489 589 Q489 506 511 439.5 Q533 373 574 326.5 Q615 280 673 255 Q731 230 804 230 Q865 230 921.5 246.5 Q978 263 1024 294 Q1070 325 1104 368 Q1138 411 1156 464 L1455 464 Q1431 350 1371.5 257.5 Q1312 165 1223.5 99.5 Q1135 34 1022 -1.5 Q909 -37 778 -37 Q642 -37 531.5 6 Q421 49 343 128 Q265 207 222.5 318.5 Q180 430 180 568 Q180 768 239 935.5 Q298 1103 404 1224 Q510 1345 655 1412.5 Q800 1480 973 1480 Q1097 1480 1203.5 1441.5 Q1310 1403 1388 1335 Q1466 1267 1510.5 1174.5 Q1555 1082 1555 975 Q1555 964 1555 953.5 Q1555 943 1553 932 L1259 932 L1259 946 Z " />
<glyph glyph-name="Cacute" unicode="&#x106;" horiz-adv-x="1534" d="M1190 1909 L1505 1909 L1124 1591 L847 1591 L1190 1909 Z M1259 946 Q1256 1006 1233 1055 Q1210 1104 1170 1139 Q1130 1174 1075 1193 Q1020 1212 954 1212 Q856 1212 771 1164.5 Q686 1117 623.5 1033.5 Q561 950 525 836 Q489 722 489 589 Q489 506 511 439.5 Q533 373 574 326.5 Q615 280 673 255 Q731 230 804 230 Q865 230 921.5 246.5 Q978 263 1024 294 Q1070 325 1104 368 Q1138 411 1156 464 L1455 464 Q1431 350 1371.5 257.5 Q1312 165 1223.5 99.5 Q1135 34 1022 -1.5 Q909 -37 778 -37 Q642 -37 531.5 6 Q421 49 343 128 Q265 207 222.5 318.5 Q180 430 180 568 Q180 768 239 935.5 Q298 1103 404 1224 Q510 1345 655 1412.5 Q800 1480 973 1480 Q1097 1480 1203.5 1441.5 Q1310 1403 1388 1335 Q1466 1267 1510.5 1174.5 Q1555 1082 1555 975 Q1555 964 1555 953.5 Q1555 943 1553 932 L1259 932 L1259 946 Z " />
<glyph glyph-name="Ccaron" unicode="&#x10c;" horiz-adv-x="1534" d="M1259 946 Q1256 1006 1233 1055 Q1210 1104 1170 1139 Q1130 1174 1075 1193 Q1020 1212 954 1212 Q856 1212 771 1164.5 Q686 1117 623.5 1033.5 Q561 950 525 836 Q489 722 489 589 Q489 506 511 439.5 Q533 373 574 326.5 Q615 280 673 255 Q731 230 804 230 Q865 230 921.5 246.5 Q978 263 1024 294 Q1070 325 1104 368 Q1138 411 1156 464 L1455 464 Q1431 350 1371.5 257.5 Q1312 165 1223.5 99.5 Q1135 34 1022 -1.5 Q909 -37 778 -37 Q642 -37 531.5 6 Q421 49 343 128 Q265 207 222.5 318.5 Q180 430 180 568 Q180 768 239 935.5 Q298 1103 404 1224 Q510 1345 655 1412.5 Q800 1480 973 1480 Q1097 1480 1203.5 1441.5 Q1310 1403 1388 1335 Q1466 1267 1510.5 1174.5 Q1555 1082 1555 975 Q1555 964 1555 953.5 Q1555 943 1553 932 L1259 932 L1259 946 Z M674 1926 L924 1926 L1016 1735 L1034 1735 L1206 1926 L1481 1926 L1153 1591 L862 1591 L674 1926 Z " />
<glyph glyph-name="Ccircumflex" unicode="&#x108;" horiz-adv-x="1534" d="M1259 946 Q1256 1006 1233 1055 Q1210 1104 1170 1139 Q1130 1174 1075 1193 Q1020 1212 954 1212 Q856 1212 771 1164.5 Q686 1117 623.5 1033.5 Q561 950 525 836 Q489 722 489 589 Q489 506 511 439.5 Q533 373 574 326.5 Q615 280 673 255 Q731 230 804 230 Q865 230 921.5 246.5 Q978 263 1024 294 Q1070 325 1104 368 Q1138 411 1156 464 L1455 464 Q1431 350 1371.5 257.5 Q1312 165 1223.5 99.5 Q1135 34 1022 -1.5 Q909 -37 778 -37 Q642 -37 531.5 6 Q421 49 343 128 Q265 207 222.5 318.5 Q180 430 180 568 Q180 768 239 935.5 Q298 1103 404 1224 Q510 1345 655 1412.5 Q800 1480 973 1480 Q1097 1480 1203.5 1441.5 Q1310 1403 1388 1335 Q1466 1267 1510.5 1174.5 Q1555 1082 1555 975 Q1555 964 1555 953.5 Q1555 943 1553 932 L1259 932 L1259 946 Z M1385 1591 L1136 1591 L1044 1782 L1026 1782 L854 1591 L579 1591 L907 1926 L1198 1926 L1385 1591 Z " />
<glyph glyph-name="Cdotaccent" unicode="&#x10a;" horiz-adv-x="1534" d="M1028 1580 Q993 1580 964 1592 Q935 1604 914 1625 Q893 1646 881.5 1675 Q870 1704 870 1738 Q870 1772 881.5 1801 Q893 1830 914 1851 Q935 1872 964 1884 Q993 1896 1028 1896 Q1062 1896 1091 1884 Q1120 1872 1141 1851 Q1162 1830 1173.5 1801 Q1185 1772 1185 1738 Q1185 1704 1173.5 1675 Q1162 1646 1141 1625 Q1120 1604 1091 1592 Q1062 1580 1028 1580 Z M1259 946 Q1256 1006 1233 1055 Q1210 1104 1170 1139 Q1130 1174 1075 1193 Q1020 1212 954 1212 Q856 1212 771 1164.5 Q686 1117 623.5 1033.5 Q561 950 525 836 Q489 722 489 589 Q489 506 511 439.5 Q533 373 574 326.5 Q615 280 673 255 Q731 230 804 230 Q865 230 921.5 246.5 Q978 263 1024 294 Q1070 325 1104 368 Q1138 411 1156 464 L1455 464 Q1431 350 1371.5 257.5 Q1312 165 1223.5 99.5 Q1135 34 1022 -1.5 Q909 -37 778 -37 Q642 -37 531.5 6 Q421 49 343 128 Q265 207 222.5 318.5 Q180 430 180 568 Q180 768 239 935.5 Q298 1103 404 1224 Q510 1345 655 1412.5 Q800 1480 973 1480 Q1097 1480 1203.5 1441.5 Q1310 1403 1388 1335 Q1466 1267 1510.5 1174.5 Q1555 1082 1555 975 Q1555 964 1555 953.5 Q1555 943 1553 932 L1259 932 L1259 946 Z " />
<glyph glyph-name="Ccedilla" unicode="&#xc7;" horiz-adv-x="1534" d="M1259 932 L1259 946 Q1256 1006 1233 1055 Q1210 1104 1170 1139 Q1130 1174 1075 1193 Q1020 1212 954 1212 Q856 1212 771 1164.5 Q686 1117 623.5 1033.5 Q561 950 525 836 Q489 722 489 589 Q489 506 511 439.5 Q533 373 574 326.5 Q615 280 673 255 Q731 230 804 230 Q865 230 921.5 246.5 Q978 263 1024 294 Q1070 325 1104 368 Q1138 411 1156 464 L1455 464 Q1433 360 1381.5 273.5 Q1330 187 1253.5 123 Q1177 59 1079 19 Q981 -21 867 -33 L810 -120 Q969 -146 969 -284 Q969 -332 950 -371 Q931 -410 896.5 -438 Q862 -466 813.5 -481 Q765 -496 706 -496 Q657 -496 606.5 -486.5 Q556 -477 520 -460 L548 -327 Q561 -333 579 -337.5 Q597 -342 616 -346 Q635 -350 654 -352 Q673 -354 690 -354 Q734 -354 758 -339 Q782 -324 782 -296 Q782 -235 666 -235 L609 -235 L626 -119 L684 -31 Q568 -17 475 31.5 Q382 80 316.5 157.5 Q251 235 215.5 339 Q180 443 180 568 Q180 768 239 935.5 Q298 1103 404 1224 Q510 1345 655 1412.5 Q800 1480 973 1480 Q1097 1480 1203.5 1441.5 Q1310 1403 1388 1335 Q1466 1267 1510.5 1174.5 Q1555 1082 1555 975 Q1555 964 1555 953.5 Q1555 943 1553 932 L1259 932 Z " />
<glyph glyph-name="Ccedillaacute" unicode="&#x1e08;" horiz-adv-x="1534" d="M1124 1591 L847 1591 L1190 1909 L1505 1909 L1124 1591 Z M1259 932 L1259 946 Q1256 1006 1233 1055 Q1210 1104 1170 1139 Q1130 1174 1075 1193 Q1020 1212 954 1212 Q856 1212 771 1164.5 Q686 1117 623.5 1033.5 Q561 950 525 836 Q489 722 489 589 Q489 506 511 439.5 Q533 373 574 326.5 Q615 280 673 255 Q731 230 804 230 Q865 230 921.5 246.5 Q978 263 1024 294 Q1070 325 1104 368 Q1138 411 1156 464 L1455 464 Q1433 360 1381.5 273.5 Q1330 187 1253.5 123 Q1177 59 1079 19 Q981 -21 867 -33 L810 -120 Q969 -146 969 -284 Q969 -332 950 -371 Q931 -410 896.5 -438 Q862 -466 813.5 -481 Q765 -496 706 -496 Q657 -496 606.5 -486.5 Q556 -477 520 -460 L548 -327 Q561 -333 579 -337.5 Q597 -342 616 -346 Q635 -350 654 -352 Q673 -354 690 -354 Q734 -354 758 -339 Q782 -324 782 -296 Q782 -235 666 -235 L609 -235 L626 -119 L684 -31 Q568 -17 475 31.5 Q382 80 316.5 157.5 Q251 235 215.5 339 Q180 443 180 568 Q180 768 239 935.5 Q298 1103 404 1224 Q510 1345 655 1412.5 Q800 1480 973 1480 Q1097 1480 1203.5 1441.5 Q1310 1403 1388 1335 Q1466 1267 1510.5 1174.5 Q1555 1082 1555 975 Q1555 964 1555 953.5 Q1555 943 1553 932 L1259 932 Z " />
<glyph glyph-name="D" unicode="D" horiz-adv-x="1535" d="M918 1443 Q1056 1443 1165.5 1403 Q1275 1363 1351.5 1287.5 Q1428 1212 1468.5 1103 Q1509 994 1509 856 Q1509 732 1483.5 620.5 Q1458 509 1411 414 Q1364 319 1297 242.5 Q1230 166 1146 112 Q1062 58 963.5 29 Q865 0 756 0 L101 0 L407 1443 L918 1443 Z M459 257 L729 257 Q831 257 917 297.5 Q1003 338 1065.5 412.5 Q1128 487 1163 591 Q1198 695 1198 822 Q1198 906 1174.5 974 Q1151 1042 1106.5 1089 Q1062 1136 997.5 1161.5 Q933 1187 851 1187 L660 1187 L459 257 Z " />
<glyph glyph-name="Ddotaccent" unicode="&#x1e0a;" horiz-adv-x="1535" d="M903 1579 Q868 1579 839 1591 Q810 1603 789 1624 Q768 1645 756.5 1674 Q745 1703 745 1737 Q745 1771 756.5 1800 Q768 1829 789 1850 Q810 1871 839 1883 Q868 1895 903 1895 Q937 1895 966 1883 Q995 1871 1016 1850 Q1037 1829 1048.5 1800 Q1060 1771 1060 1737 Q1060 1703 1048.5 1674 Q1037 1645 1016 1624 Q995 1603 966 1591 Q937 1579 903 1579 Z M918 1443 Q1056 1443 1165.5 1403 Q1275 1363 1351.5 1287.5 Q1428 1212 1468.5 1103 Q1509 994 1509 856 Q1509 732 1483.5 620.5 Q1458 509 1411 414 Q1364 319 1297 242.5 Q1230 166 1146 112 Q1062 58 963.5 29 Q865 0 756 0 L101 0 L407 1443 L918 1443 Z M459 257 L729 257 Q831 257 917 297.5 Q1003 338 1065.5 412.5 Q1128 487 1163 591 Q1198 695 1198 822 Q1198 906 1174.5 974 Q1151 1042 1106.5 1089 Q1062 1136 997.5 1161.5 Q933 1187 851 1187 L660 1187 L459 257 Z " />
<glyph glyph-name="Dcircumflexbelow" unicode="&#x1e12;" horiz-adv-x="1535" d="M918 1443 Q1056 1443 1165.5 1403 Q1275 1363 1351.5 1287.5 Q1428 1212 1468.5 1103 Q1509 994 1509 856 Q1509 732 1483.5 620.5 Q1458 509 1411 414 Q1364 319 1297 242.5 Q1230 166 1146 112 Q1062 58 963.5 29 Q865 0 756 0 L101 0 L407 1443 L918 1443 Z M459 257 L729 257 Q831 257 917 297.5 Q1003 338 1065.5 412.5 Q1128 487 1163 591 Q1198 695 1198 822 Q1198 906 1174.5 974 Q1151 1042 1106.5 1089 Q1062 1136 997.5 1161.5 Q933 1187 851 1187 L660 1187 L459 257 Z M923 -432 L659 -432 L556 -273 L538 -273 L361 -432 L80 -432 L409 -152 L725 -152 L923 -432 Z " />
<glyph glyph-name="Dcommaaccent" unicode="&#x1e10;" horiz-adv-x="1535" d="M272 -509 L444 -151 L736 -151 L530 -509 L272 -509 Z M918 1443 Q1056 1443 1165.5 1403 Q1275 1363 1351.5 1287.5 Q1428 1212 1468.5 1103 Q1509 994 1509 856 Q1509 732 1483.5 620.5 Q1458 509 1411 414 Q1364 319 1297 242.5 Q1230 166 1146 112 Q1062 58 963.5 29 Q865 0 756 0 L101 0 L407 1443 L918 1443 Z M459 257 L729 257 Q831 257 917 297.5 Q1003 338 1065.5 412.5 Q1128 487 1163 591 Q1198 695 1198 822 Q1198 906 1174.5 974 Q1151 1042 1106.5 1089 Q1062 1136 997.5 1161.5 Q933 1187 851 1187 L660 1187 L459 257 Z " />
<glyph glyph-name="Dlinebelow" unicode="&#x1e0e;" horiz-adv-x="1535" d="M147 -401 L184 -220 L930 -220 L892 -401 L147 -401 Z M918 1443 Q1056 1443 1165.5 1403 Q1275 1363 1351.5 1287.5 Q1428 1212 1468.5 1103 Q1509 994 1509 856 Q1509 732 1483.5 620.5 Q1458 509 1411 414 Q1364 319 1297 242.5 Q1230 166 1146 112 Q1062 58 963.5 29 Q865 0 756 0 L101 0 L407 1443 L918 1443 Z M459 257 L729 257 Q831 257 917 297.5 Q1003 338 1065.5 412.5 Q1128 487 1163 591 Q1198 695 1198 822 Q1198 906 1174.5 974 Q1151 1042 1106.5 1089 Q1062 1136 997.5 1161.5 Q933 1187 851 1187 L660 1187 L459 257 Z " />
<glyph glyph-name="Dcaron" unicode="&#x10e;" horiz-adv-x="1535" d="M549 1925 L799 1925 L891 1734 L909 1734 L1081 1925 L1356 1925 L1028 1590 L737 1590 L549 1925 Z M918 1443 Q1056 1443 1165.5 1403 Q1275 1363 1351.5 1287.5 Q1428 1212 1468.5 1103 Q1509 994 1509 856 Q1509 732 1483.5 620.5 Q1458 509 1411 414 Q1364 319 1297 242.5 Q1230 166 1146 112 Q1062 58 963.5 29 Q865 0 756 0 L101 0 L407 1443 L918 1443 Z M459 257 L729 257 Q831 257 917 297.5 Q1003 338 1065.5 412.5 Q1128 487 1163 591 Q1198 695 1198 822 Q1198 906 1174.5 974 Q1151 1042 1106.5 1089 Q1062 1136 997.5 1161.5 Q933 1187 851 1187 L660 1187 L459 257 Z " />
<glyph glyph-name="Ddotbelow" unicode="&#x1e0c;" horiz-adv-x="1535" d="M544 -419 Q508 -419 479 -408.5 Q450 -398 429.5 -379.5 Q409 -361 398 -335 Q387 -309 387 -279 Q387 -249 398 -223.5 Q409 -198 429.5 -179.5 Q450 -161 479 -150.5 Q508 -140 544 -140 Q579 -140 608 -150.5 Q637 -161 657.5 -179.5 Q678 -198 689.5 -223.5 Q701 -249 701 -279 Q701 -309 689.5 -335 Q678 -361 657.5 -379.5 Q637 -398 608 -408.5 Q579 -419 544 -419 Z M918 1443 Q1056 1443 1165.5 1403 Q1275 1363 1351.5 1287.5 Q1428 1212 1468.5 1103 Q1509 994 1509 856 Q1509 732 1483.5 620.5 Q1458 509 1411 414 Q1364 319 1297 242.5 Q1230 166 1146 112 Q1062 58 963.5 29 Q865 0 756 0 L101 0 L407 1443 L918 1443 Z M459 257 L729 257 Q831 257 917 297.5 Q1003 338 1065.5 412.5 Q1128 487 1163 591 Q1198 695 1198 822 Q1198 906 1174.5 974 Q1151 1042 1106.5 1089 Q1062 1136 997.5 1161.5 Q933 1187 851 1187 L660 1187 L459 257 Z " />
<glyph glyph-name="Dcroat" unicode="&#x110;" horiz-adv-x="1518" d="M729 257 Q831 257 917 297.5 Q1003 338 1065.5 412.5 Q1128 487 1163 591 Q1198 695 1198 822 Q1198 906 1174.5 974 Q1151 1042 1106.5 1089 Q1062 1136 997.5 1161.5 Q933 1187 851 1187 L660 1187 L586 845 L790 845 L742 618 L537 618 L459 257 L729 257 Z M918 1443 Q1056 1443 1165.5 1403 Q1275 1363 1351.5 1287.5 Q1428 1212 1468.5 1103 Q1509 994 1509 856 Q1509 732 1483.5 620.5 Q1458 509 1411 414 Q1364 319 1297 242.5 Q1230 166 1146 112 Q1062 58 963.5 29 Q865 0 756 0 L101 0 L232 618 L88 618 L135 845 L280 845 L407 1443 L918 1443 Z " />
<glyph glyph-name="E" unicode="E" horiz-adv-x="1273" d="M1057 0 L100 0 L407 1443 L1363 1443 L1310 1185 L658 1185 L583 848 L1199 848 L1149 609 L534 609 L456 258 L1109 258 L1057 0 Z " />
<glyph glyph-name="Egrave" unicode="&#xc8;" horiz-adv-x="1274" d="M1053 1590 L787 1590 L570 1908 L876 1908 L1053 1590 Z M1057 0 L100 0 L407 1443 L1363 1443 L1310 1185 L658 1185 L583 848 L1199 848 L1149 609 L534 609 L456 258 L1109 258 L1057 0 Z " />
<glyph glyph-name="Edblgrave" unicode="&#x204;" horiz-adv-x="1274" d="M636 1590 L457 1908 L728 1908 L881 1590 L636 1590 Z M1074 1590 L895 1908 L1165 1908 L1318 1590 L1074 1590 Z M1057 0 L100 0 L407 1443 L1363 1443 L1310 1185 L658 1185 L583 848 L1199 848 L1149 609 L534 609 L456 258 L1109 258 L1057 0 Z " />
<glyph glyph-name="Eacute" unicode="&#xc9;" horiz-adv-x="1274" d="M1112 1908 L1427 1908 L1046 1590 L769 1590 L1112 1908 Z M1057 0 L100 0 L407 1443 L1363 1443 L1310 1185 L658 1185 L583 848 L1199 848 L1149 609 L534 609 L456 258 L1109 258 L1057 0 Z " />
<glyph glyph-name="Ecircumflex" unicode="&#xca;" horiz-adv-x="1274" d="M1307 1590 L1058 1590 L966 1781 L948 1781 L776 1590 L501 1590 L829 1925 L1120 1925 L1307 1590 Z M1057 0 L100 0 L407 1443 L1363 1443 L1310 1185 L658 1185 L583 848 L1199 848 L1149 609 L534 609 L456 258 L1109 258 L1057 0 Z " />
<glyph glyph-name="Ecircumflexhookabove" unicode="&#x1ec2;" horiz-adv-x="1274" d="M1057 0 L100 0 L407 1443 L1363 1443 L1310 1185 L658 1185 L583 848 L1199 848 L1149 609 L534 609 L456 258 L1109 258 L1057 0 Z M1166 2170 Q1192 2178 1223 2182.5 Q1254 2187 1285 2187 Q1341 2187 1385.5 2173.5 Q1430 2160 1461 2136 Q1492 2112 1508.5 2079.5 Q1525 2047 1525 2008 Q1525 1927 1471 1858 Q1417 1789 1315 1745 L1230 1860 Q1330 1902 1330 1966 Q1330 1997 1303 2013 Q1276 2029 1225 2029 Q1198 2029 1174 2026 Q1150 2023 1133 2017 L1166 2170 Z M1332 1579 L1062 1579 L955 1731 L937 1731 L761 1579 L462 1579 L792 1843 L1126 1843 L1332 1579 Z " />
<glyph glyph-name="Ecircumflexgrave" unicode="&#x1ec0;" horiz-adv-x="1274" d="M1057 0 L100 0 L407 1443 L1363 1443 L1310 1185 L658 1185 L583 848 L1199 848 L1149 609 L534 609 L456 258 L1109 258 L1057 0 Z M1226 1885 L1075 2179 L1348 2179 L1469 1885 L1226 1885 Z M1332 1579 L1062 1579 L955 1731 L937 1731 L761 1579 L462 1579 L792 1843 L1126 1843 L1332 1579 Z " />
<glyph glyph-name="Ecircumflextilde" unicode="&#x1ec4;" horiz-adv-x="1274" d="M1332 1579 L1063 1579 L956 1731 L938 1731 L761 1579 L463 1579 L792 1843 L1126 1843 L1332 1579 Z M1131 1898 Q1078 1898 1039 1917 Q1000 1936 968 1959 Q936 1982 908 2001 Q880 2020 849 2020 Q811 2020 786.5 2000.5 Q762 1981 752 1930 L571 1930 Q580 1994 604 2043 Q628 2092 664 2125.5 Q700 2159 744.5 2176 Q789 2193 838 2193 Q890 2193 929.5 2174 Q969 2155 1001 2132.5 Q1033 2110 1061 2091 Q1089 2072 1120 2072 Q1158 2072 1182.5 2091.5 Q1207 2111 1217 2162 L1398 2162 Q1389 2098 1364.5 2048.5 Q1340 1999 1304.5 1965.5 Q1269 1932 1224.5 1915 Q1180 1898 1131 1898 Z M1057 0 L100 0 L407 1443 L1363 1443 L1310 1185 L658 1185 L583 848 L1199 848 L1149 609 L534 609 L456 258 L1109 258 L1057 0 Z " />
<glyph glyph-name="Ecircumflexdotbelow" unicode="&#x1ec6;" horiz-adv-x="1274" d="M519 -419 Q483 -419 454 -408.5 Q425 -398 404.5 -379.5 Q384 -361 373 -335 Q362 -309 362 -279 Q362 -249 373 -223.5 Q384 -198 404.5 -179.5 Q425 -161 454 -150.5 Q483 -140 519 -140 Q554 -140 583 -150.5 Q612 -161 632.5 -179.5 Q653 -198 664.5 -223.5 Q676 -249 676 -279 Q676 -309 664.5 -335 Q653 -361 632.5 -379.5 Q612 -398 583 -408.5 Q554 -419 519 -419 Z M1307 1590 L1058 1590 L966 1781 L948 1781 L776 1590 L501 1590 L829 1925 L1120 1925 L1307 1590 Z M1057 0 L100 0 L407 1443 L1363 1443 L1310 1185 L658 1185 L583 848 L1199 848 L1149 609 L534 609 L456 258 L1109 258 L1057 0 Z " />
<glyph glyph-name="Ecircumflexacute" unicode="&#x1ebe;" horiz-adv-x="1274" d="M1057 0 L100 0 L407 1443 L1363 1443 L1310 1185 L658 1185 L583 848 L1199 848 L1149 609 L534 609 L456 258 L1109 258 L1057 0 Z M1397 2179 L1669 2179 L1396 1885 L1153 1885 L1397 2179 Z M1332 1579 L1062 1579 L955 1731 L937 1731 L761 1579 L462 1579 L792 1843 L1126 1843 L1332 1579 Z " />
<glyph glyph-name="Edieresis" unicode="&#xcb;" horiz-adv-x="1274" d="M713 1579 Q679 1579 650.5 1590.5 Q622 1602 601 1622 Q580 1642 568.5 1670 Q557 1698 557 1731 Q557 1764 568.5 1791.5 Q580 1819 601 1839.5 Q622 1860 650.5 1871 Q679 1882 713 1882 Q746 1882 774.5 1871 Q803 1860 824 1839.5 Q845 1819 856.5 1791.5 Q868 1764 868 1731 Q868 1698 856.5 1670 Q845 1642 824 1622 Q803 1602 774.5 1590.5 Q746 1579 713 1579 Z M1180 1579 Q1147 1579 1118.5 1590.5 Q1090 1602 1069 1622 Q1048 1642 1036.5 1670 Q1025 1698 1025 1731 Q1025 1764 1036.5 1791.5 Q1048 1819 1069 1839.5 Q1090 1860 1118.5 1871 Q1147 1882 1180 1882 Q1214 1882 1242.5 1871 Q1271 1860 1292 1839.5 Q1313 1819 1324.5 1791.5 Q1336 1764 1336 1731 Q1336 1698 1324.5 1670 Q1313 1642 1292 1622 Q1271 1602 1242.5 1590.5 Q1214 1579 1180 1579 Z M1057 0 L100 0 L407 1443 L1363 1443 L1310 1185 L658 1185 L583 848 L1199 848 L1149 609 L534 609 L456 258 L1109 258 L1057 0 Z " />
<glyph glyph-name="Edotbelow" unicode="&#x1eb8;" horiz-adv-x="1274" d="M519 -419 Q483 -419 454 -408.5 Q425 -398 404.5 -379.5 Q384 -361 373 -335 Q362 -309 362 -279 Q362 -249 373 -223.5 Q384 -198 404.5 -179.5 Q425 -161 454 -150.5 Q483 -140 519 -140 Q554 -140 583 -150.5 Q612 -161 632.5 -179.5 Q653 -198 664.5 -223.5 Q676 -249 676 -279 Q676 -309 664.5 -335 Q653 -361 632.5 -379.5 Q612 -398 583 -408.5 Q554 -419 519 -419 Z M1057 0 L100 0 L407 1443 L1363 1443 L1310 1185 L658 1185 L583 848 L1199 848 L1149 609 L534 609 L456 258 L1109 258 L1057 0 Z " />
<glyph glyph-name="Einvertedbreve" unicode="&#x206;" horiz-adv-x="1274" d="M1057 0 L100 0 L407 1443 L1363 1443 L1310 1185 L658 1185 L583 848 L1199 848 L1149 609 L534 609 L456 258 L1109 258 L1057 0 Z M1338 1611 Q1338 1601 1338 1594 Q1338 1587 1336 1579 L1132 1579 L1132 1601 Q1132 1632 1118 1658.5 Q1104 1685 1080 1704.5 Q1056 1724 1023 1734.5 Q990 1745 951 1745 Q871 1745 817 1701.5 Q763 1658 746 1579 L541 1579 Q552 1653 586 1715 Q620 1777 674 1821.5 Q728 1866 799.5 1890.5 Q871 1915 957 1915 Q1041 1915 1111 1892 Q1181 1869 1231.5 1828.5 Q1282 1788 1310 1732.5 Q1338 1677 1338 1611 Z " />
<glyph glyph-name="Ehookabove" unicode="&#x1eba;" horiz-adv-x="1274" d="M1057 0 L100 0 L407 1443 L1363 1443 L1310 1185 L658 1185 L583 848 L1199 848 L1149 609 L534 609 L456 258 L1109 258 L1057 0 Z M811 1993 Q835 2000 869 2005 Q903 2010 940 2010 Q989 2010 1033 1996 Q1077 1982 1110 1956.5 Q1143 1931 1162 1895.5 Q1181 1860 1181 1818 Q1181 1771 1163 1729.5 Q1145 1688 1112 1653 Q1079 1618 1031.5 1591 Q984 1564 925 1546 L856 1667 Q913 1682 950 1713.5 Q987 1745 987 1782 Q987 1814 957.5 1833.5 Q928 1853 880 1853 Q852 1853 824 1849.5 Q796 1846 779 1841 L811 1993 Z " />
<glyph glyph-name="Ecaron" unicode="&#x11a;" horiz-adv-x="1274" d="M596 1925 L846 1925 L938 1734 L956 1734 L1128 1925 L1403 1925 L1075 1590 L784 1590 L596 1925 Z M1057 0 L100 0 L407 1443 L1363 1443 L1310 1185 L658 1185 L583 848 L1199 848 L1149 609 L534 609 L456 258 L1109 258 L1057 0 Z " />
<glyph glyph-name="Emacron" unicode="&#x112;" horiz-adv-x="1274" d="M1057 0 L100 0 L407 1443 L1363 1443 L1310 1185 L658 1185 L583 848 L1199 848 L1149 609 L534 609 L456 258 L1109 258 L1057 0 Z M553 1632 L590 1813 L1336 1813 L1298 1632 L553 1632 Z " />
<glyph glyph-name="Emacrongrave" unicode="&#x1e14;" horiz-adv-x="1274" d="M549 1611 L586 1789 L1331 1789 L1294 1611 L549 1611 Z M853 1915 L719 2179 L1004 2179 L1108 1915 L853 1915 Z M1057 0 L100 0 L407 1443 L1363 1443 L1310 1185 L658 1185 L583 848 L1199 848 L1149 609 L534 609 L456 258 L1109 258 L1057 0 Z " />
<glyph glyph-name="Emacronacute" unicode="&#x1e16;" horiz-adv-x="1274" d="M549 1611 L586 1789 L1331 1789 L1294 1611 L549 1611 Z M1078 2179 L1362 2179 L1119 1915 L864 1915 L1078 2179 Z M1057 0 L100 0 L407 1443 L1363 1443 L1310 1185 L658 1185 L583 848 L1199 848 L1149 609 L534 609 L456 258 L1109 258 L1057 0 Z " />
<glyph glyph-name="Etilde" unicode="&#x1ebc;" horiz-adv-x="1274" d="M1057 0 L100 0 L407 1443 L1363 1443 L1310 1185 L658 1185 L583 848 L1199 848 L1149 609 L534 609 L456 258 L1109 258 L1057 0 Z M1106 1578 Q1045 1578 1002 1600.5 Q959 1623 925 1650 Q891 1677 862.5 1699.5 Q834 1722 801 1722 Q762 1722 737 1697.5 Q712 1673 704 1618 L523 1618 Q532 1683 555.5 1734.5 Q579 1786 614.5 1821.5 Q650 1857 695.5 1876 Q741 1895 792 1895 Q853 1895 896 1872.5 Q939 1850 972.5 1823 Q1006 1796 1035 1773.5 Q1064 1751 1096 1751 Q1136 1751 1161 1775.5 Q1186 1800 1194 1855 L1375 1855 Q1366 1790 1342 1738.5 Q1318 1687 1283 1651.5 Q1248 1616 1202.5 1597 Q1157 1578 1106 1578 Z " />
<glyph glyph-name="Ecircumflexbelow" unicode="&#x1e18;" horiz-adv-x="1274" d="M1057 0 L100 0 L407 1443 L1363 1443 L1310 1185 L658 1185 L583 848 L1199 848 L1149 609 L534 609 L456 258 L1109 258 L1057 0 Z M898 -432 L634 -432 L531 -273 L513 -273 L336 -432 L55 -432 L384 -152 L700 -152 L898 -432 Z " />
<glyph glyph-name="Ebreve" unicode="&#x114;" horiz-adv-x="1274" d="M1057 0 L100 0 L407 1443 L1363 1443 L1310 1185 L658 1185 L583 848 L1199 848 L1149 609 L534 609 L456 258 L1109 258 L1057 0 Z M551 1884 Q551 1894 551.5 1900.5 Q552 1907 553 1915 L758 1915 L758 1894 Q758 1862 771.5 1836 Q785 1810 809.5 1790.5 Q834 1771 867 1760.5 Q900 1750 939 1750 Q1022 1750 1074 1792.5 Q1126 1835 1144 1915 L1349 1915 Q1338 1839 1304 1777 Q1270 1715 1216 1671 Q1162 1627 1090.5 1603 Q1019 1579 933 1579 Q849 1579 779 1602 Q709 1625 658 1666 Q607 1707 579 1762.5 Q551 1818 551 1884 Z " />
<glyph glyph-name="Etildebelow" unicode="&#x1e1a;" horiz-adv-x="1274" d="M679 -432 Q639 -432 607 -422 Q575 -412 549 -397 Q523 -382 500.5 -364 Q478 -346 457.5 -331 Q437 -316 416.5 -306 Q396 -296 373 -296 Q338 -296 311.5 -318 Q285 -340 276 -397 L95 -397 Q104 -331 128.5 -280.5 Q153 -230 188 -195.5 Q223 -161 268 -143.5 Q313 -126 364 -126 Q403 -126 435 -136 Q467 -146 493 -161 Q519 -176 541 -193.5 Q563 -211 584 -226 Q605 -241 625.5 -251 Q646 -261 669 -261 Q704 -261 731 -238.5 Q758 -216 767 -155 L947 -155 Q938 -223 914 -274.5 Q890 -326 855 -361 Q820 -396 775 -414 Q730 -432 679 -432 Z M1057 0 L100 0 L407 1443 L1363 1443 L1310 1185 L658 1185 L583 848 L1199 848 L1149 609 L534 609 L456 258 L1109 258 L1057 0 Z " />
<glyph glyph-name="Edotaccent" unicode="&#x116;" horiz-adv-x="1274" d="M950 1579 Q915 1579 886 1591 Q857 1603 836 1624 Q815 1645 803.5 1674 Q792 1703 792 1737 Q792 1771 803.5 1800 Q815 1829 836 1850 Q857 1871 886 1883 Q915 1895 950 1895 Q984 1895 1013 1883 Q1042 1871 1063 1850 Q1084 1829 1095.5 1800 Q1107 1771 1107 1737 Q1107 1703 1095.5 1674 Q1084 1645 1063 1624 Q1042 1603 1013 1591 Q984 1579 950 1579 Z M1057 0 L100 0 L407 1443 L1363 1443 L1310 1185 L658 1185 L583 848 L1199 848 L1149 609 L534 609 L456 258 L1109 258 L1057 0 Z " />
<glyph glyph-name="Ecedilla" unicode="&#x228;" horiz-adv-x="1273" d="M658 1185 L583 848 L1199 848 L1149 609 L534 609 L456 258 L1109 258 L1057 0 L685 0 L607 -120 Q766 -146 766 -284 Q766 -332 747 -371 Q728 -410 693.5 -438 Q659 -466 610.5 -481 Q562 -496 503 -496 Q454 -496 403.5 -486.5 Q353 -477 317 -460 L345 -327 Q358 -333 376 -337.5 Q394 -342 413 -346 Q432 -350 451 -352 Q470 -354 487 -354 Q531 -354 555 -339 Q579 -324 579 -296 Q579 -235 463 -235 L406 -235 L423 -119 L501 0 L100 0 L407 1443 L1363 1443 L1310 1185 L658 1185 Z " />
<glyph glyph-name="Ecedillabreve" unicode="&#x1e1c;" horiz-adv-x="1273" d="M1349 1915 Q1338 1839 1304 1777 Q1270 1715 1216 1671 Q1162 1627 1090.5 1603 Q1019 1579 933 1579 Q849 1579 779 1602 Q709 1625 658 1666 Q607 1707 579 1762.5 Q551 1818 551 1884 Q551 1894 551.5 1900.5 Q552 1907 553 1915 L758 1915 L758 1894 Q758 1862 771.5 1836 Q785 1810 809.5 1790.5 Q834 1771 867 1760.5 Q900 1750 939 1750 Q1022 1750 1074 1792.5 Q1126 1835 1144 1915 L1349 1915 Z M658 1185 L583 848 L1199 848 L1149 609 L534 609 L456 258 L1109 258 L1057 0 L685 0 L607 -120 Q766 -146 766 -284 Q766 -332 747 -371 Q728 -410 693.5 -438 Q659 -466 610.5 -481 Q562 -496 503 -496 Q454 -496 403.5 -486.5 Q353 -477 317 -460 L345 -327 Q358 -333 376 -337.5 Q394 -342 413 -346 Q432 -350 451 -352 Q470 -354 487 -354 Q531 -354 555 -339 Q579 -324 579 -296 Q579 -235 463 -235 L406 -235 L423 -119 L501 0 L100 0 L407 1443 L1363 1443 L1310 1185 L658 1185 Z " />
<glyph glyph-name="Eogonek" unicode="&#x118;" horiz-adv-x="1274" d="M854 -458 Q796 -458 749 -444 Q702 -430 668.5 -403.5 Q635 -377 617 -340 Q599 -303 599 -257 Q599 -185 638.5 -125 Q678 -65 761 -11 L763 0 L100 0 L407 1443 L1363 1443 L1310 1185 L658 1185 L583 848 L1199 848 L1149 609 L534 609 L456 258 L1109 258 L1064 40 Q946 -5 882.5 -65 Q819 -125 819 -193 Q819 -235 851.5 -260 Q884 -285 939 -285 Q955 -285 971.5 -283.5 Q988 -282 996 -280 L962 -444 Q939 -450 910 -454 Q881 -458 854 -458 Z " />
<glyph glyph-name="F" unicode="F" horiz-adv-x="1235" d="M100 0 L407 1443 L1352 1443 L1299 1185 L658 1185 L575 809 L1160 809 L1109 562 L524 562 L404 0 L100 0 Z " />
<glyph glyph-name="Fdotaccent" unicode="&#x1e1e;" horiz-adv-x="1223" d="M944 1579 Q909 1579 880 1591 Q851 1603 830 1624 Q809 1645 797.5 1674 Q786 1703 786 1737 Q786 1771 797.5 1800 Q809 1829 830 1850 Q851 1871 880 1883 Q909 1895 944 1895 Q978 1895 1007 1883 Q1036 1871 1057 1850 Q1078 1829 1089.5 1800 Q1101 1771 1101 1737 Q1101 1703 1089.5 1674 Q1078 1645 1057 1624 Q1036 1603 1007 1591 Q978 1579 944 1579 Z M100 0 L407 1443 L1352 1443 L1299 1185 L658 1185 L575 809 L1160 809 L1109 562 L524 562 L404 0 L100 0 Z " />
<glyph glyph-name="G" unicode="G" horiz-adv-x="1566" d="M1497 576 Q1468 426 1407 311.5 Q1346 197 1256.5 119.5 Q1167 42 1049.5 2.5 Q932 -37 790 -37 Q653 -37 540.5 6.5 Q428 50 348.5 130.5 Q269 211 225.5 323.5 Q182 436 182 574 Q182 707 208.5 826 Q235 945 284.5 1045.5 Q334 1146 404.5 1226.5 Q475 1307 562.5 1363.5 Q650 1420 753.5 1450 Q857 1480 972 1480 Q1092 1480 1197 1444 Q1302 1408 1380.5 1344.5 Q1459 1281 1505.5 1195 Q1552 1109 1555 1010 Q1556 1003 1555.5 994.5 Q1555 986 1555 977 L1261 977 Q1258 1029 1234 1072 Q1210 1115 1169.5 1146 Q1129 1177 1073.5 1194 Q1018 1211 953 1211 Q854 1211 769.5 1164.5 Q685 1118 623 1036 Q561 954 526 841 Q491 728 491 595 Q491 511 514 444 Q537 377 579.5 329.5 Q622 282 682.5 257 Q743 232 818 232 Q888 232 950 251.5 Q1012 271 1060 307.5 Q1108 344 1141 395 Q1174 446 1187 509 L1192 534 L885 534 L932 760 L1534 760 L1497 576 Z " />
<glyph glyph-name="Gacute" unicode="&#x1f4;" horiz-adv-x="1567" d="M1188 1909 L1503 1909 L1122 1591 L845 1591 L1188 1909 Z M1497 576 Q1468 426 1407 311.5 Q1346 197 1256.5 119.5 Q1167 42 1049.5 2.5 Q932 -37 790 -37 Q653 -37 540.5 6.5 Q428 50 348.5 130.5 Q269 211 225.5 323.5 Q182 436 182 574 Q182 707 208.5 826 Q235 945 284.5 1045.5 Q334 1146 404.5 1226.5 Q475 1307 562.5 1363.5 Q650 1420 753.5 1450 Q857 1480 972 1480 Q1092 1480 1197 1444 Q1302 1408 1380.5 1344.5 Q1459 1281 1505.5 1195 Q1552 1109 1555 1010 Q1556 1003 1555.5 994.5 Q1555 986 1555 977 L1261 977 Q1258 1029 1234 1072 Q1210 1115 1169.5 1146 Q1129 1177 1073.5 1194 Q1018 1211 953 1211 Q854 1211 769.5 1164.5 Q685 1118 623 1036 Q561 954 526 841 Q491 728 491 595 Q491 511 514 444 Q537 377 579.5 329.5 Q622 282 682.5 257 Q743 232 818 232 Q888 232 950 251.5 Q1012 271 1060 307.5 Q1108 344 1141 395 Q1174 446 1187 509 L1192 534 L885 534 L932 760 L1534 760 L1497 576 Z " />
<glyph glyph-name="Gcaron" unicode="&#x1e6;" horiz-adv-x="1567" d="M672 1926 L922 1926 L1014 1735 L1032 1735 L1204 1926 L1479 1926 L1151 1591 L860 1591 L672 1926 Z M1497 576 Q1468 426 1407 311.5 Q1346 197 1256.5 119.5 Q1167 42 1049.5 2.5 Q932 -37 790 -37 Q653 -37 540.5 6.5 Q428 50 348.5 130.5 Q269 211 225.5 323.5 Q182 436 182 574 Q182 707 208.5 826 Q235 945 284.5 1045.5 Q334 1146 404.5 1226.5 Q475 1307 562.5 1363.5 Q650 1420 753.5 1450 Q857 1480 972 1480 Q1092 1480 1197 1444 Q1302 1408 1380.5 1344.5 Q1459 1281 1505.5 1195 Q1552 1109 1555 1010 Q1556 1003 1555.5 994.5 Q1555 986 1555 977 L1261 977 Q1258 1029 1234 1072 Q1210 1115 1169.5 1146 Q1129 1177 1073.5 1194 Q1018 1211 953 1211 Q854 1211 769.5 1164.5 Q685 1118 623 1036 Q561 954 526 841 Q491 728 491 595 Q491 511 514 444 Q537 377 579.5 329.5 Q622 282 682.5 257 Q743 232 818 232 Q888 232 950 251.5 Q1012 271 1060 307.5 Q1108 344 1141 395 Q1174 446 1187 509 L1192 534 L885 534 L932 760 L1534 760 L1497 576 Z " />
<glyph glyph-name="Gcircumflex" unicode="&#x11c;" horiz-adv-x="1567" d="M1383 1591 L1134 1591 L1042 1782 L1024 1782 L852 1591 L577 1591 L905 1926 L1196 1926 L1383 1591 Z M1497 576 Q1468 426 1407 311.5 Q1346 197 1256.5 119.5 Q1167 42 1049.5 2.5 Q932 -37 790 -37 Q653 -37 540.5 6.5 Q428 50 348.5 130.5 Q269 211 225.5 323.5 Q182 436 182 574 Q182 707 208.5 826 Q235 945 284.5 1045.5 Q334 1146 404.5 1226.5 Q475 1307 562.5 1363.5 Q650 1420 753.5 1450 Q857 1480 972 1480 Q1092 1480 1197 1444 Q1302 1408 1380.5 1344.5 Q1459 1281 1505.5 1195 Q1552 1109 1555 1010 Q1556 1003 1555.5 994.5 Q1555 986 1555 977 L1261 977 Q1258 1029 1234 1072 Q1210 1115 1169.5 1146 Q1129 1177 1073.5 1194 Q1018 1211 953 1211 Q854 1211 769.5 1164.5 Q685 1118 623 1036 Q561 954 526 841 Q491 728 491 595 Q491 511 514 444 Q537 377 579.5 329.5 Q622 282 682.5 257 Q743 232 818 232 Q888 232 950 251.5 Q1012 271 1060 307.5 Q1108 344 1141 395 Q1174 446 1187 509 L1192 534 L885 534 L932 760 L1534 760 L1497 576 Z " />
<glyph glyph-name="Gbreve" unicode="&#x11e;" horiz-adv-x="1567" d="M1497 576 Q1468 426 1407 311.5 Q1346 197 1256.5 119.5 Q1167 42 1049.5 2.5 Q932 -37 790 -37 Q653 -37 540.5 6.5 Q428 50 348.5 130.5 Q269 211 225.5 323.5 Q182 436 182 574 Q182 707 208.5 826 Q235 945 284.5 1045.5 Q334 1146 404.5 1226.5 Q475 1307 562.5 1363.5 Q650 1420 753.5 1450 Q857 1480 972 1480 Q1092 1480 1197 1444 Q1302 1408 1380.5 1344.5 Q1459 1281 1505.5 1195 Q1552 1109 1555 1010 Q1556 1003 1555.5 994.5 Q1555 986 1555 977 L1261 977 Q1258 1029 1234 1072 Q1210 1115 1169.5 1146 Q1129 1177 1073.5 1194 Q1018 1211 953 1211 Q854 1211 769.5 1164.5 Q685 1118 623 1036 Q561 954 526 841 Q491 728 491 595 Q491 511 514 444 Q537 377 579.5 329.5 Q622 282 682.5 257 Q743 232 818 232 Q888 232 950 251.5 Q1012 271 1060 307.5 Q1108 344 1141 395 Q1174 446 1187 509 L1192 534 L885 534 L932 760 L1534 760 L1497 576 Z M627 1885 Q627 1895 627.5 1901.5 Q628 1908 629 1916 L834 1916 L834 1895 Q834 1863 847.5 1837 Q861 1811 885.5 1791.5 Q910 1772 943 1761.5 Q976 1751 1015 1751 Q1098 1751 1150 1793.5 Q1202 1836 1220 1916 L1425 1916 Q1414 1840 1380 1778 Q1346 1716 1292 1672 Q1238 1628 1166.5 1604 Q1095 1580 1009 1580 Q925 1580 855 1603 Q785 1626 734 1667 Q683 1708 655 1763.5 Q627 1819 627 1885 Z " />
<glyph glyph-name="Gmacron" unicode="&#x1e20;" horiz-adv-x="1567" d="M1497 576 Q1468 426 1407 311.5 Q1346 197 1256.5 119.5 Q1167 42 1049.5 2.5 Q932 -37 790 -37 Q653 -37 540.5 6.5 Q428 50 348.5 130.5 Q269 211 225.5 323.5 Q182 436 182 574 Q182 707 208.5 826 Q235 945 284.5 1045.5 Q334 1146 404.5 1226.5 Q475 1307 562.5 1363.5 Q650 1420 753.5 1450 Q857 1480 972 1480 Q1092 1480 1197 1444 Q1302 1408 1380.5 1344.5 Q1459 1281 1505.5 1195 Q1552 1109 1555 1010 Q1556 1003 1555.5 994.5 Q1555 986 1555 977 L1261 977 Q1258 1029 1234 1072 Q1210 1115 1169.5 1146 Q1129 1177 1073.5 1194 Q1018 1211 953 1211 Q854 1211 769.5 1164.5 Q685 1118 623 1036 Q561 954 526 841 Q491 728 491 595 Q491 511 514 444 Q537 377 579.5 329.5 Q622 282 682.5 257 Q743 232 818 232 Q888 232 950 251.5 Q1012 271 1060 307.5 Q1108 344 1141 395 Q1174 446 1187 509 L1192 534 L885 534 L932 760 L1534 760 L1497 576 Z M629 1633 L666 1814 L1412 1814 L1374 1633 L629 1633 Z " />
<glyph glyph-name="Gdotaccent" unicode="&#x120;" horiz-adv-x="1567" d="M1026 1580 Q991 1580 962 1592 Q933 1604 912 1625 Q891 1646 879.5 1675 Q868 1704 868 1738 Q868 1772 879.5 1801 Q891 1830 912 1851 Q933 1872 962 1884 Q991 1896 1026 1896 Q1060 1896 1089 1884 Q1118 1872 1139 1851 Q1160 1830 1171.5 1801 Q1183 1772 1183 1738 Q1183 1704 1171.5 1675 Q1160 1646 1139 1625 Q1118 1604 1089 1592 Q1060 1580 1026 1580 Z M1497 576 Q1468 426 1407 311.5 Q1346 197 1256.5 119.5 Q1167 42 1049.5 2.5 Q932 -37 790 -37 Q653 -37 540.5 6.5 Q428 50 348.5 130.5 Q269 211 225.5 323.5 Q182 436 182 574 Q182 707 208.5 826 Q235 945 284.5 1045.5 Q334 1146 404.5 1226.5 Q475 1307 562.5 1363.5 Q650 1420 753.5 1450 Q857 1480 972 1480 Q1092 1480 1197 1444 Q1302 1408 1380.5 1344.5 Q1459 1281 1505.5 1195 Q1552 1109 1555 1010 Q1556 1003 1555.5 994.5 Q1555 986 1555 977 L1261 977 Q1258 1029 1234 1072 Q1210 1115 1169.5 1146 Q1129 1177 1073.5 1194 Q1018 1211 953 1211 Q854 1211 769.5 1164.5 Q685 1118 623 1036 Q561 954 526 841 Q491 728 491 595 Q491 511 514 444 Q537 377 579.5 329.5 Q622 282 682.5 257 Q743 232 818 232 Q888 232 950 251.5 Q1012 271 1060 307.5 Q1108 344 1141 395 Q1174 446 1187 509 L1192 534 L885 534 L932 760 L1534 760 L1497 576 Z " />
<glyph glyph-name="Gcommaaccent" unicode="&#x122;" horiz-adv-x="1567" d="M473 -509 L645 -151 L937 -151 L731 -509 L473 -509 Z M1497 576 Q1468 426 1407 311.5 Q1346 197 1256.5 119.5 Q1167 42 1049.5 2.5 Q932 -37 790 -37 Q653 -37 540.5 6.5 Q428 50 348.5 130.5 Q269 211 225.5 323.5 Q182 436 182 574 Q182 707 208.5 826 Q235 945 284.5 1045.5 Q334 1146 404.5 1226.5 Q475 1307 562.5 1363.5 Q650 1420 753.5 1450 Q857 1480 972 1480 Q1092 1480 1197 1444 Q1302 1408 1380.5 1344.5 Q1459 1281 1505.5 1195 Q1552 1109 1555 1010 Q1556 1003 1555.5 994.5 Q1555 986 1555 977 L1261 977 Q1258 1029 1234 1072 Q1210 1115 1169.5 1146 Q1129 1177 1073.5 1194 Q1018 1211 953 1211 Q854 1211 769.5 1164.5 Q685 1118 623 1036 Q561 954 526 841 Q491 728 491 595 Q491 511 514 444 Q537 377 579.5 329.5 Q622 282 682.5 257 Q743 232 818 232 Q888 232 950 251.5 Q1012 271 1060 307.5 Q1108 344 1141 395 Q1174 446 1187 509 L1192 534 L885 534 L932 760 L1534 760 L1497 576 Z " />
<glyph glyph-name="H" unicode="H" horiz-adv-x="1605" d="M1051 0 L1180 603 L532 603 L403 0 L100 0 L407 1443 L711 1443 L586 861 L1234 861 L1359 1443 L1663 1443 L1356 0 L1051 0 Z " />
<glyph glyph-name="Hdieresis" unicode="&#x1e26;" horiz-adv-x="1606" d="M1051 0 L1180 603 L532 603 L403 0 L100 0 L407 1443 L711 1443 L586 861 L1234 861 L1359 1443 L1663 1443 L1356 0 L1051 0 Z M863 1579 Q829 1579 800.5 1590.5 Q772 1602 751 1622 Q730 1642 718.5 1670 Q707 1698 707 1731 Q707 1764 718.5 1791.5 Q730 1819 751 1839.5 Q772 1860 800.5 1871 Q829 1882 863 1882 Q896 1882 924.5 1871 Q953 1860 974 1839.5 Q995 1819 1006.5 1791.5 Q1018 1764 1018 1731 Q1018 1698 1006.5 1670 Q995 1642 974 1622 Q953 1602 924.5 1590.5 Q896 1579 863 1579 Z M1330 1579 Q1297 1579 1268.5 1590.5 Q1240 1602 1219 1622 Q1198 1642 1186.5 1670 Q1175 1698 1175 1731 Q1175 1764 1186.5 1791.5 Q1198 1819 1219 1839.5 Q1240 1860 1268.5 1871 Q1297 1882 1330 1882 Q1364 1882 1392.5 1871 Q1421 1860 1442 1839.5 Q1463 1819 1474.5 1791.5 Q1486 1764 1486 1731 Q1486 1698 1474.5 1670 Q1463 1642 1442 1622 Q1421 1602 1392.5 1590.5 Q1364 1579 1330 1579 Z " />
<glyph glyph-name="Hcaron" unicode="&#x21e;" horiz-adv-x="1606" d="M1051 0 L1180 603 L532 603 L403 0 L100 0 L407 1443 L711 1443 L586 861 L1234 861 L1359 1443 L1663 1443 L1356 0 L1051 0 Z M746 1925 L996 1925 L1088 1734 L1106 1734 L1278 1925 L1553 1925 L1225 1590 L934 1590 L746 1925 Z " />
<glyph glyph-name="Hcircumflex" unicode="&#x124;" horiz-adv-x="1606" d="M1051 0 L1180 603 L532 603 L403 0 L100 0 L407 1443 L711 1443 L586 861 L1234 861 L1359 1443 L1663 1443 L1356 0 L1051 0 Z M1457 1590 L1208 1590 L1116 1781 L1098 1781 L926 1590 L651 1590 L979 1925 L1270 1925 L1457 1590 Z " />
<glyph glyph-name="Hdotbelow" unicode="&#x1e24;" horiz-adv-x="1606" d="M1051 0 L1180 603 L532 603 L403 0 L100 0 L407 1443 L711 1443 L586 861 L1234 861 L1359 1443 L1663 1443 L1356 0 L1051 0 Z M667 -419 Q631 -419 602 -408.5 Q573 -398 552.5 -379.5 Q532 -361 521 -335 Q510 -309 510 -279 Q510 -249 521 -223.5 Q532 -198 552.5 -179.5 Q573 -161 602 -150.5 Q631 -140 667 -140 Q702 -140 731 -150.5 Q760 -161 780.5 -179.5 Q801 -198 812.5 -223.5 Q824 -249 824 -279 Q824 -309 812.5 -335 Q801 -361 780.5 -379.5 Q760 -398 731 -408.5 Q702 -419 667 -419 Z " />
<glyph glyph-name="Hdotaccent" unicode="&#x1e22;" horiz-adv-x="1606" d="M1051 0 L1180 603 L532 603 L403 0 L100 0 L407 1443 L711 1443 L586 861 L1234 861 L1359 1443 L1663 1443 L1356 0 L1051 0 Z M1100 1579 Q1065 1579 1036 1591 Q1007 1603 986 1624 Q965 1645 953.5 1674 Q942 1703 942 1737 Q942 1771 953.5 1800 Q965 1829 986 1850 Q1007 1871 1036 1883 Q1065 1895 1100 1895 Q1134 1895 1163 1883 Q1192 1871 1213 1850 Q1234 1829 1245.5 1800 Q1257 1771 1257 1737 Q1257 1703 1245.5 1674 Q1234 1645 1213 1624 Q1192 1603 1163 1591 Q1134 1579 1100 1579 Z " />
<glyph glyph-name="Hbrevebelow" unicode="&#x1e2a;" horiz-adv-x="1606" d="M1083 -109 Q1072 -181 1037 -240 Q1002 -299 948 -341 Q894 -383 823 -405.5 Q752 -428 668 -428 Q584 -428 514 -405 Q444 -382 393.5 -341 Q343 -300 315 -244.5 Q287 -189 287 -124 L287 -109 L494 -109 Q496 -142 509.5 -169.5 Q523 -197 546.5 -216.5 Q570 -236 602.5 -247 Q635 -258 674 -258 Q752 -258 805.5 -219.5 Q859 -181 876 -109 L1083 -109 Z M1051 0 L1180 603 L532 603 L403 0 L100 0 L407 1443 L711 1443 L586 861 L1234 861 L1359 1443 L1663 1443 L1356 0 L1051 0 Z " />
<glyph glyph-name="Hcedilla" unicode="&#x1e28;" horiz-adv-x="1605" d="M1663 1443 L1356 0 L1051 0 L1180 603 L532 603 L403 0 L349 0 L271 -120 Q430 -146 430 -284 Q430 -332 411 -371 Q392 -410 357.5 -438 Q323 -466 274.5 -481 Q226 -496 167 -496 Q118 -496 67.5 -486.5 Q17 -477 -19 -460 L9 -327 Q22 -333 40 -337.5 Q58 -342 77 -346 Q96 -350 115 -352 Q134 -354 151 -354 Q195 -354 219 -339 Q243 -324 243 -296 Q243 -235 127 -235 L70 -235 L87 -119 L165 0 L100 0 L407 1443 L711 1443 L586 861 L1234 861 L1359 1443 L1663 1443 Z " />
<glyph glyph-name="Hbar" unicode="&#x126;" horiz-adv-x="1557" d="M1252 1055 L604 1055 L562 861 L1210 861 L1252 1055 Z M1684 1055 L1556 1055 L1332 0 L1027 0 L1156 603 L508 603 L379 0 L76 0 L300 1055 L173 1055 L216 1261 L344 1261 L383 1443 L687 1443 L648 1261 L1296 1261 L1335 1443 L1639 1443 L1600 1261 L1726 1261 L1684 1055 Z " />
<glyph glyph-name="I" unicode="I" horiz-adv-x="653" d="M100 0 L407 1443 L711 1443 L404 0 L100 0 Z " />
<glyph glyph-name="Idotaccent" unicode="&#x130;" horiz-adv-x="654" d="M100 0 L407 1443 L711 1443 L404 0 L100 0 Z M624 1579 Q589 1579 560 1591 Q531 1603 510 1624 Q489 1645 477.5 1674 Q466 1703 466 1737 Q466 1771 477.5 1800 Q489 1829 510 1850 Q531 1871 560 1883 Q589 1895 624 1895 Q658 1895 687 1883 Q716 1871 737 1850 Q758 1829 769.5 1800 Q781 1771 781 1737 Q781 1703 769.5 1674 Q758 1645 737 1624 Q716 1603 687 1591 Q658 1579 624 1579 Z " />
<glyph glyph-name="Igrave" unicode="&#xcc;" horiz-adv-x="653" d="M100 0 L407 1443 L711 1443 L404 0 L100 0 Z M727 1590 L461 1590 L244 1908 L550 1908 L727 1590 Z " />
<glyph glyph-name="Idblgrave" unicode="&#x208;" horiz-adv-x="653" d="M100 0 L407 1443 L711 1443 L404 0 L100 0 Z M310 1590 L131 1908 L402 1908 L555 1590 L310 1590 Z M748 1590 L569 1908 L839 1908 L992 1590 L748 1590 Z " />
<glyph glyph-name="Iacute" unicode="&#xcd;" horiz-adv-x="653" d="M100 0 L407 1443 L711 1443 L404 0 L100 0 Z M786 1908 L1101 1908 L720 1590 L443 1590 L786 1908 Z " />
<glyph glyph-name="Icircumflex" unicode="&#xce;" horiz-adv-x="653" d="M100 0 L407 1443 L711 1443 L404 0 L100 0 Z M981 1590 L732 1590 L640 1781 L622 1781 L450 1590 L175 1590 L503 1925 L794 1925 L981 1590 Z " />
<glyph glyph-name="Icaron" unicode="&#x1cf;" horiz-adv-x="653" d="M100 0 L407 1443 L711 1443 L404 0 L100 0 Z M270 1925 L520 1925 L612 1734 L630 1734 L802 1925 L1077 1925 L749 1590 L458 1590 L270 1925 Z " />
<glyph glyph-name="Idieresis" unicode="&#xcf;" horiz-adv-x="653" d="M100 0 L407 1443 L711 1443 L404 0 L100 0 Z M387 1579 Q353 1579 324.5 1590.5 Q296 1602 275 1622 Q254 1642 242.5 1670 Q231 1698 231 1731 Q231 1764 242.5 1791.5 Q254 1819 275 1839.5 Q296 1860 324.5 1871 Q353 1882 387 1882 Q420 1882 448.5 1871 Q477 1860 498 1839.5 Q519 1819 530.5 1791.5 Q542 1764 542 1731 Q542 1698 530.5 1670 Q519 1642 498 1622 Q477 1602 448.5 1590.5 Q420 1579 387 1579 Z M854 1579 Q821 1579 792.5 1590.5 Q764 1602 743 1622 Q722 1642 710.5 1670 Q699 1698 699 1731 Q699 1764 710.5 1791.5 Q722 1819 743 1839.5 Q764 1860 792.5 1871 Q821 1882 854 1882 Q888 1882 916.5 1871 Q945 1860 966 1839.5 Q987 1819 998.5 1791.5 Q1010 1764 1010 1731 Q1010 1698 998.5 1670 Q987 1642 966 1622 Q945 1602 916.5 1590.5 Q888 1579 854 1579 Z " />
<glyph glyph-name="Idieresisacute" unicode="&#x1e2e;" horiz-adv-x="653" d="M100 0 L407 1443 L711 1443 L404 0 L100 0 Z M723 2179 L1015 2179 L746 1937 L506 1937 L723 2179 Z M387 1579 Q353 1579 324.5 1590.5 Q296 1602 275 1622 Q254 1642 242.5 1670 Q231 1698 231 1731 Q231 1764 242.5 1791.5 Q254 1819 275 1839.5 Q296 1860 324.5 1871 Q353 1882 387 1882 Q420 1882 448.5 1871 Q477 1860 498 1839.5 Q519 1819 530.5 1791.5 Q542 1764 542 1731 Q542 1698 530.5 1670 Q519 1642 498 1622 Q477 1602 448.5 1590.5 Q420 1579 387 1579 Z M854 1579 Q821 1579 792.5 1590.5 Q764 1602 743 1622 Q722 1642 710.5 1670 Q699 1698 699 1731 Q699 1764 710.5 1791.5 Q722 1819 743 1839.5 Q764 1860 792.5 1871 Q821 1882 854 1882 Q888 1882 916.5 1871 Q945 1860 966 1839.5 Q987 1819 998.5 1791.5 Q1010 1764 1010 1731 Q1010 1698 998.5 1670 Q987 1642 966 1622 Q945 1602 916.5 1590.5 Q888 1579 854 1579 Z " />
<glyph glyph-name="Ibreve" unicode="&#x12c;" horiz-adv-x="653" d="M100 0 L407 1443 L711 1443 L404 0 L100 0 Z M225 1884 Q225 1894 225.5 1900.5 Q226 1907 227 1915 L432 1915 L432 1894 Q432 1862 445.5 1836 Q459 1810 483.5 1790.5 Q508 1771 541 1760.5 Q574 1750 613 1750 Q696 1750 748 1792.5 Q800 1835 818 1915 L1023 1915 Q1012 1839 978 1777 Q944 1715 890 1671 Q836 1627 764.5 1603 Q693 1579 607 1579 Q523 1579 453 1602 Q383 1625 332 1666 Q281 1707 253 1762.5 Q225 1818 225 1884 Z " />
<glyph glyph-name="Idotbelow" unicode="&#x1eca;" horiz-adv-x="653" d="M100 0 L407 1443 L711 1443 L404 0 L100 0 Z M191 -419 Q155 -419 126 -408.5 Q97 -398 76.5 -379.5 Q56 -361 45 -335 Q34 -309 34 -279 Q34 -249 45 -223.5 Q56 -198 76.5 -179.5 Q97 -161 126 -150.5 Q155 -140 191 -140 Q226 -140 255 -150.5 Q284 -161 304.5 -179.5 Q325 -198 336.5 -223.5 Q348 -249 348 -279 Q348 -309 336.5 -335 Q325 -361 304.5 -379.5 Q284 -398 255 -408.5 Q226 -419 191 -419 Z " />
<glyph glyph-name="Iinvertedbreve" unicode="&#x20a;" horiz-adv-x="653" d="M100 0 L407 1443 L711 1443 L404 0 L100 0 Z M1012 1611 Q1012 1601 1012 1594 Q1012 1587 1010 1579 L806 1579 L806 1601 Q806 1632 792 1658.5 Q778 1685 754 1704.5 Q730 1724 697 1734.5 Q664 1745 625 1745 Q545 1745 491 1701.5 Q437 1658 420 1579 L215 1579 Q226 1653 260 1715 Q294 1777 348 1821.5 Q402 1866 473.5 1890.5 Q545 1915 631 1915 Q715 1915 785 1892 Q855 1869 905.5 1828.5 Q956 1788 984 1732.5 Q1012 1677 1012 1611 Z " />
<glyph glyph-name="Imacron" unicode="&#x12a;" horiz-adv-x="653" d="M100 0 L407 1443 L711 1443 L404 0 L100 0 Z M227 1632 L264 1813 L1010 1813 L972 1632 L227 1632 Z " />
<glyph glyph-name="Itildebelow" unicode="&#x1e2c;" horiz-adv-x="653" d="M100 0 L407 1443 L711 1443 L404 0 L100 0 Z M351 -432 Q311 -432 279 -422 Q247 -412 221 -397 Q195 -382 172.5 -364 Q150 -346 129.5 -331 Q109 -316 88.5 -306 Q68 -296 45 -296 Q10 -296 -16.5 -318 Q-43 -340 -52 -397 L-233 -397 Q-224 -331 -199.5 -280.5 Q-175 -230 -140 -195.5 Q-105 -161 -60 -143.5 Q-15 -126 36 -126 Q75 -126 107 -136 Q139 -146 165 -161 Q191 -176 213 -193.5 Q235 -211 256 -226 Q277 -241 297.5 -251 Q318 -261 341 -261 Q376 -261 403 -238.5 Q430 -216 439 -155 L619 -155 Q610 -223 586 -274.5 Q562 -326 527 -361 Q492 -396 447 -414 Q402 -432 351 -432 Z " />
<glyph glyph-name="Ihookabove" unicode="&#x1ec8;" horiz-adv-x="653" d="M100 0 L407 1443 L711 1443 L404 0 L100 0 Z M485 1993 Q509 2000 543 2005 Q577 2010 614 2010 Q663 2010 707 1996 Q751 1982 784 1956.5 Q817 1931 836 1895.5 Q855 1860 855 1818 Q855 1771 837 1729.5 Q819 1688 786 1653 Q753 1618 705.5 1591 Q658 1564 599 1546 L530 1667 Q587 1682 624 1713.5 Q661 1745 661 1782 Q661 1814 631.5 1833.5 Q602 1853 554 1853 Q526 1853 498 1849.5 Q470 1846 453 1841 L485 1993 Z " />
<glyph glyph-name="Itilde" unicode="&#x128;" horiz-adv-x="653" d="M100 0 L407 1443 L711 1443 L404 0 L100 0 Z M780 1578 Q719 1578 676 1600.5 Q633 1623 599 1650 Q565 1677 536.5 1699.5 Q508 1722 475 1722 Q436 1722 411 1697.5 Q386 1673 378 1618 L197 1618 Q206 1683 229.5 1734.5 Q253 1786 288.5 1821.5 Q324 1857 369.5 1876 Q415 1895 466 1895 Q527 1895 570 1872.5 Q613 1850 646.5 1823 Q680 1796 709 1773.5 Q738 1751 770 1751 Q810 1751 835 1775.5 Q860 1800 868 1855 L1049 1855 Q1040 1790 1016 1738.5 Q992 1687 957 1651.5 Q922 1616 876.5 1597 Q831 1578 780 1578 Z " />
<glyph glyph-name="Iogonek" unicode="&#x12e;" horiz-adv-x="653" d="M711 1443 L412 40 Q183 -60 183 -189 Q183 -234 215 -259.5 Q247 -285 303 -285 Q319 -285 335.5 -283.5 Q352 -282 360 -280 L326 -444 Q303 -450 274 -454 Q245 -458 218 -458 Q161 -458 114 -443.5 Q67 -429 33.5 -402 Q0 -375 -18.5 -337 Q-37 -299 -37 -253 Q-37 -173 8 -110 Q53 -47 153 15 L155 26 L106 26 L407 1443 L711 1443 Z " />
<glyph glyph-name="J" unicode="J" horiz-adv-x="1229" d="M379 413 L379 404 Q380 327 428 282 Q476 237 559 237 Q726 237 771 446 L984 1443 L1286 1443 L1064 401 Q1019 188 888 75.5 Q757 -37 546 -37 Q441 -37 355 -6.5 Q269 24 208 79.5 Q147 135 114.5 212 Q82 289 85 382 Q85 390 85 397.5 Q85 405 86 413 L379 413 Z " />
<glyph glyph-name="Jcircumflex" unicode="&#x134;" horiz-adv-x="1229" d="M379 413 L379 404 Q380 327 428 282 Q476 237 559 237 Q726 237 771 446 L984 1443 L1286 1443 L1064 401 Q1019 188 888 75.5 Q757 -37 546 -37 Q441 -37 355 -6.5 Q269 24 208 79.5 Q147 135 114.5 212 Q82 289 85 382 Q85 390 85 397.5 Q85 405 86 413 L379 413 Z M1556 1590 L1307 1590 L1215 1781 L1197 1781 L1025 1590 L750 1590 L1078 1925 L1369 1925 L1556 1590 Z " />
<glyph glyph-name="K" unicode="K" horiz-adv-x="1454" d="M100 0 L407 1443 L708 1443 L572 808 L590 808 L1249 1443 L1607 1443 L937 790 L1319 0 L979 0 L686 606 L494 424 L402 0 L100 0 Z " />
<glyph glyph-name="Kacute" unicode="&#x1e30;" horiz-adv-x="1454" d="M1175 1908 L1490 1908 L1109 1590 L832 1590 L1175 1908 Z M100 0 L407 1443 L708 1443 L572 808 L590 808 L1249 1443 L1607 1443 L937 790 L1319 0 L979 0 L686 606 L494 424 L402 0 L100 0 Z " />
<glyph glyph-name="Kcaron" unicode="&#x1e8;" horiz-adv-x="1454" d="M100 0 L407 1443 L708 1443 L572 808 L590 808 L1249 1443 L1607 1443 L937 790 L1319 0 L979 0 L686 606 L494 424 L402 0 L100 0 Z M659 1925 L909 1925 L1001 1734 L1019 1734 L1191 1925 L1466 1925 L1138 1590 L847 1590 L659 1925 Z " />
<glyph glyph-name="Kdotbelow" unicode="&#x1e32;" horiz-adv-x="1454" d="M619 -419 Q583 -419 554 -408.5 Q525 -398 504.5 -379.5 Q484 -361 473 -335 Q462 -309 462 -279 Q462 -249 473 -223.5 Q484 -198 504.5 -179.5 Q525 -161 554 -150.5 Q583 -140 619 -140 Q654 -140 683 -150.5 Q712 -161 732.5 -179.5 Q753 -198 764.5 -223.5 Q776 -249 776 -279 Q776 -309 764.5 -335 Q753 -361 732.5 -379.5 Q712 -398 683 -408.5 Q654 -419 619 -419 Z M100 0 L407 1443 L708 1443 L572 808 L590 808 L1249 1443 L1607 1443 L937 790 L1319 0 L979 0 L686 606 L494 424 L402 0 L100 0 Z " />
<glyph glyph-name="Klinebelow" unicode="&#x1e34;" horiz-adv-x="1454" d="M100 0 L407 1443 L708 1443 L572 808 L590 808 L1249 1443 L1607 1443 L937 790 L1319 0 L979 0 L686 606 L494 424 L402 0 L100 0 Z M222 -401 L259 -220 L1005 -220 L967 -401 L222 -401 Z " />
<glyph glyph-name="Kcommaaccent" unicode="&#x136;" horiz-adv-x="1454" d="M100 0 L407 1443 L708 1443 L572 808 L590 808 L1249 1443 L1607 1443 L937 790 L1319 0 L979 0 L686 606 L494 424 L402 0 L100 0 Z M347 -509 L519 -151 L811 -151 L605 -509 L347 -509 Z " />
<glyph glyph-name="L" unicode="L" horiz-adv-x="1219" d="M1044 0 L100 0 L407 1443 L710 1443 L457 263 L1098 263 L1044 0 Z " />
<glyph glyph-name="Lacute" unicode="&#x139;" horiz-adv-x="1219" d="M785 1908 L1100 1908 L719 1590 L442 1590 L785 1908 Z M1044 0 L100 0 L407 1443 L710 1443 L457 263 L1098 263 L1044 0 Z " />
<glyph glyph-name="Lcircumflexbelow" unicode="&#x1e3c;" horiz-adv-x="1219" d="M1044 0 L100 0 L407 1443 L710 1443 L457 263 L1098 263 L1044 0 Z M891 -432 L627 -432 L524 -273 L506 -273 L329 -432 L48 -432 L377 -152 L693 -152 L891 -432 Z " />
<glyph glyph-name="Ldotbelow" unicode="&#x1e36;" horiz-adv-x="1219" d="M512 -419 Q476 -419 447 -408.5 Q418 -398 397.5 -379.5 Q377 -361 366 -335 Q355 -309 355 -279 Q355 -249 366 -223.5 Q377 -198 397.5 -179.5 Q418 -161 447 -150.5 Q476 -140 512 -140 Q547 -140 576 -150.5 Q605 -161 625.5 -179.5 Q646 -198 657.5 -223.5 Q669 -249 669 -279 Q669 -309 657.5 -335 Q646 -361 625.5 -379.5 Q605 -398 576 -408.5 Q547 -419 512 -419 Z M1044 0 L100 0 L407 1443 L710 1443 L457 263 L1098 263 L1044 0 Z " />
<glyph glyph-name="Ldotbelowmacron" unicode="&#x1e38;" horiz-adv-x="1219" d="M512 -419 Q476 -419 447 -408.5 Q418 -398 397.5 -379.5 Q377 -361 366 -335 Q355 -309 355 -279 Q355 -249 366 -223.5 Q377 -198 397.5 -179.5 Q418 -161 447 -150.5 Q476 -140 512 -140 Q547 -140 576 -150.5 Q605 -161 625.5 -179.5 Q646 -198 657.5 -223.5 Q669 -249 669 -279 Q669 -309 657.5 -335 Q646 -361 625.5 -379.5 Q605 -398 576 -408.5 Q547 -419 512 -419 Z M1044 0 L100 0 L407 1443 L710 1443 L457 263 L1098 263 L1044 0 Z M226 1632 L263 1813 L1009 1813 L971 1632 L226 1632 Z " />
<glyph glyph-name="Llinebelow" unicode="&#x1e3a;" horiz-adv-x="1219" d="M115 -401 L152 -220 L898 -220 L860 -401 L115 -401 Z M1044 0 L100 0 L407 1443 L710 1443 L457 263 L1098 263 L1044 0 Z " />
<glyph glyph-name="Lcommaaccent" unicode="&#x13b;" horiz-adv-x="1219" d="M240 -509 L412 -151 L704 -151 L498 -509 L240 -509 Z M1044 0 L100 0 L407 1443 L710 1443 L457 263 L1098 263 L1044 0 Z " />
<glyph glyph-name="Lcaron" unicode="&#x13d;" horiz-adv-x="1219" d="M1181 1443 L1024 939 L828 939 L935 1443 L1181 1443 Z M1044 0 L100 0 L407 1443 L710 1443 L457 263 L1098 263 L1044 0 Z " />
<glyph glyph-name="Lslash" unicode="&#x141;" horiz-adv-x="1223" d="M1127 263 L1073 0 L129 0 L271 667 L90 583 L132 788 L315 872 L436 1443 L739 1443 L650 1027 L898 1142 L856 937 L606 821 L486 263 L1127 263 Z " />
<glyph glyph-name="M" unicode="M" horiz-adv-x="1879" d="M100 0 L407 1443 L754 1443 L942 473 L960 473 L1568 1443 L1936 1443 L1629 0 L1348 0 L1555 965 L1539 965 L981 83 L780 83 L605 965 L589 965 L382 0 L100 0 Z " />
<glyph glyph-name="Macute" unicode="&#x1e3e;" horiz-adv-x="1879" d="M1395 1908 L1710 1908 L1329 1590 L1052 1590 L1395 1908 Z M100 0 L407 1443 L754 1443 L942 473 L960 473 L1568 1443 L1936 1443 L1629 0 L1348 0 L1555 965 L1539 965 L981 83 L780 83 L605 965 L589 965 L382 0 L100 0 Z " />
<glyph glyph-name="Mdotaccent" unicode="&#x1e40;" horiz-adv-x="1879" d="M1233 1579 Q1198 1579 1169 1591 Q1140 1603 1119 1624 Q1098 1645 1086.5 1674 Q1075 1703 1075 1737 Q1075 1771 1086.5 1800 Q1098 1829 1119 1850 Q1140 1871 1169 1883 Q1198 1895 1233 1895 Q1267 1895 1296 1883 Q1325 1871 1346 1850 Q1367 1829 1378.5 1800 Q1390 1771 1390 1737 Q1390 1703 1378.5 1674 Q1367 1645 1346 1624 Q1325 1603 1296 1591 Q1267 1579 1233 1579 Z M100 0 L407 1443 L754 1443 L942 473 L960 473 L1568 1443 L1936 1443 L1629 0 L1348 0 L1555 965 L1539 965 L981 83 L780 83 L605 965 L589 965 L382 0 L100 0 Z " />
<glyph glyph-name="Mdotbelow" unicode="&#x1e42;" horiz-adv-x="1879" d="M805 -419 Q769 -419 740 -408.5 Q711 -398 690.5 -379.5 Q670 -361 659 -335 Q648 -309 648 -279 Q648 -249 659 -223.5 Q670 -198 690.5 -179.5 Q711 -161 740 -150.5 Q769 -140 805 -140 Q840 -140 869 -150.5 Q898 -161 918.5 -179.5 Q939 -198 950.5 -223.5 Q962 -249 962 -279 Q962 -309 950.5 -335 Q939 -361 918.5 -379.5 Q898 -398 869 -408.5 Q840 -419 805 -419 Z M100 0 L407 1443 L754 1443 L942 473 L960 473 L1568 1443 L1936 1443 L1629 0 L1348 0 L1555 965 L1539 965 L981 83 L780 83 L605 965 L589 965 L382 0 L100 0 Z " />
<glyph glyph-name="N" unicode="N" horiz-adv-x="1573" d="M100 0 L407 1443 L638 1443 L1117 514 L1135 514 L1337 1443 L1630 1443 L1323 0 L1094 0 L611 922 L593 922 L393 0 L100 0 Z " />
<glyph glyph-name="Ngrave" unicode="&#x1f8;" horiz-adv-x="1573" d="M1168 1590 L902 1590 L685 1908 L991 1908 L1168 1590 Z M100 0 L407 1443 L638 1443 L1117 514 L1135 514 L1337 1443 L1630 1443 L1323 0 L1094 0 L611 922 L593 922 L393 0 L100 0 Z " />
<glyph glyph-name="Nacute" unicode="&#x143;" horiz-adv-x="1573" d="M1227 1908 L1542 1908 L1161 1590 L884 1590 L1227 1908 Z M100 0 L407 1443 L638 1443 L1117 514 L1135 514 L1337 1443 L1630 1443 L1323 0 L1094 0 L611 922 L593 922 L393 0 L100 0 Z " />
<glyph glyph-name="Ntilde" unicode="&#xd1;" horiz-adv-x="1573" d="M1221 1578 Q1160 1578 1117 1600.5 Q1074 1623 1040 1650 Q1006 1677 977.5 1699.5 Q949 1722 916 1722 Q877 1722 852 1697.5 Q827 1673 819 1618 L638 1618 Q647 1683 670.5 1734.5 Q694 1786 729.5 1821.5 Q765 1857 810.5 1876 Q856 1895 907 1895 Q968 1895 1011 1872.5 Q1054 1850 1087.5 1823 Q1121 1796 1150 1773.5 Q1179 1751 1211 1751 Q1251 1751 1276 1775.5 Q1301 1800 1309 1855 L1490 1855 Q1481 1790 1457 1738.5 Q1433 1687 1398 1651.5 Q1363 1616 1317.5 1597 Q1272 1578 1221 1578 Z M100 0 L407 1443 L638 1443 L1117 514 L1135 514 L1337 1443 L1630 1443 L1323 0 L1094 0 L611 922 L593 922 L393 0 L100 0 Z " />
<glyph glyph-name="Ndotbelow" unicode="&#x1e46;" horiz-adv-x="1573" d="M675 -419 Q639 -419 610 -408.5 Q581 -398 560.5 -379.5 Q540 -361 529 -335 Q518 -309 518 -279 Q518 -249 529 -223.5 Q540 -198 560.5 -179.5 Q581 -161 610 -150.5 Q639 -140 675 -140 Q710 -140 739 -150.5 Q768 -161 788.5 -179.5 Q809 -198 820.5 -223.5 Q832 -249 832 -279 Q832 -309 820.5 -335 Q809 -361 788.5 -379.5 Q768 -398 739 -408.5 Q710 -419 675 -419 Z M100 0 L407 1443 L638 1443 L1117 514 L1135 514 L1337 1443 L1630 1443 L1323 0 L1094 0 L611 922 L593 922 L393 0 L100 0 Z " />
<glyph glyph-name="Ndotaccent" unicode="&#x1e44;" horiz-adv-x="1573" d="M1065 1579 Q1030 1579 1001 1591 Q972 1603 951 1624 Q930 1645 918.5 1674 Q907 1703 907 1737 Q907 1771 918.5 1800 Q930 1829 951 1850 Q972 1871 1001 1883 Q1030 1895 1065 1895 Q1099 1895 1128 1883 Q1157 1871 1178 1850 Q1199 1829 1210.5 1800 Q1222 1771 1222 1737 Q1222 1703 1210.5 1674 Q1199 1645 1178 1624 Q1157 1603 1128 1591 Q1099 1579 1065 1579 Z M100 0 L407 1443 L638 1443 L1117 514 L1135 514 L1337 1443 L1630 1443 L1323 0 L1094 0 L611 922 L593 922 L393 0 L100 0 Z " />
<glyph glyph-name="Ncaron" unicode="&#x147;" horiz-adv-x="1573" d="M711 1925 L961 1925 L1053 1734 L1071 1734 L1243 1925 L1518 1925 L1190 1590 L899 1590 L711 1925 Z M100 0 L407 1443 L638 1443 L1117 514 L1135 514 L1337 1443 L1630 1443 L1323 0 L1094 0 L611 922 L593 922 L393 0 L100 0 Z " />
<glyph glyph-name="Ncircumflexbelow" unicode="&#x1e4a;" horiz-adv-x="1573" d="M100 0 L407 1443 L638 1443 L1117 514 L1135 514 L1337 1443 L1630 1443 L1323 0 L1094 0 L611 922 L593 922 L393 0 L100 0 Z M1054 -432 L790 -432 L687 -273 L669 -273 L492 -432 L211 -432 L540 -152 L856 -152 L1054 -432 Z " />
<glyph glyph-name="Nlinebelow" unicode="&#x1e48;" horiz-adv-x="1573" d="M278 -401 L315 -220 L1061 -220 L1023 -401 L278 -401 Z M100 0 L407 1443 L638 1443 L1117 514 L1135 514 L1337 1443 L1630 1443 L1323 0 L1094 0 L611 922 L593 922 L393 0 L100 0 Z " />
<glyph glyph-name="Ncommaaccent" unicode="&#x145;" horiz-adv-x="1573" d="M403 -509 L575 -151 L867 -151 L661 -509 L403 -509 Z M100 0 L407 1443 L638 1443 L1117 514 L1135 514 L1337 1443 L1630 1443 L1323 0 L1094 0 L611 922 L593 922 L393 0 L100 0 Z " />
<glyph glyph-name="O" unicode="O" horiz-adv-x="1617" d="M805 -37 Q663 -37 548 9.5 Q433 56 351.5 138 Q270 220 225.5 332.5 Q181 445 181 576 Q181 709 208.5 827.5 Q236 946 286 1046.5 Q336 1147 407.5 1227 Q479 1307 566.5 1363.5 Q654 1420 756.5 1450 Q859 1480 971 1480 Q1115 1480 1230 1433.5 Q1345 1387 1425.5 1305 Q1506 1223 1549.5 1110.5 Q1593 998 1593 867 Q1593 734 1566 615 Q1539 496 1488.5 395.5 Q1438 295 1367 215 Q1296 135 1208.5 79 Q1121 23 1019 -7 Q917 -37 805 -37 Z M1283 844 Q1283 926 1259.5 993.5 Q1236 1061 1193.5 1109 Q1151 1157 1091.5 1183 Q1032 1209 959 1209 Q861 1209 775.5 1162 Q690 1115 627 1032.5 Q564 950 527.5 838.5 Q491 727 491 598 Q491 515 514.5 448 Q538 381 580.5 333 Q623 285 683 259 Q743 233 817 233 Q915 233 1000 279.5 Q1085 326 1148 408 Q1211 490 1247 601.5 Q1283 713 1283 844 Z " />
<glyph glyph-name="Odieresis" unicode="&#xd6;" horiz-adv-x="1617" d="M800 1578 Q766 1578 737.5 1589.5 Q709 1601 688 1621 Q667 1641 655.5 1669 Q644 1697 644 1730 Q644 1763 655.5 1790.5 Q667 1818 688 1838.5 Q709 1859 737.5 1870 Q766 1881 800 1881 Q833 1881 861.5 1870 Q890 1859 911 1838.5 Q932 1818 943.5 1790.5 Q955 1763 955 1730 Q955 1697 943.5 1669 Q932 1641 911 1621 Q890 1601 861.5 1589.5 Q833 1578 800 1578 Z M1267 1578 Q1234 1578 1205.5 1589.5 Q1177 1601 1156 1621 Q1135 1641 1123.5 1669 Q1112 1697 1112 1730 Q1112 1763 1123.5 1790.5 Q1135 1818 1156 1838.5 Q1177 1859 1205.5 1870 Q1234 1881 1267 1881 Q1301 1881 1329.5 1870 Q1358 1859 1379 1838.5 Q1400 1818 1411.5 1790.5 Q1423 1763 1423 1730 Q1423 1697 1411.5 1669 Q1400 1641 1379 1621 Q1358 1601 1329.5 1589.5 Q1301 1578 1267 1578 Z M805 -37 Q663 -37 548 9.5 Q433 56 351.5 138 Q270 220 225.5 332.5 Q181 445 181 576 Q181 709 208.5 827.5 Q236 946 286 1046.5 Q336 1147 407.5 1227 Q479 1307 566.5 1363.5 Q654 1420 756.5 1450 Q859 1480 971 1480 Q1115 1480 1230 1433.5 Q1345 1387 1425.5 1305 Q1506 1223 1549.5 1110.5 Q1593 998 1593 867 Q1593 734 1566 615 Q1539 496 1488.5 395.5 Q1438 295 1367 215 Q1296 135 1208.5 79 Q1121 23 1019 -7 Q917 -37 805 -37 Z M1283 844 Q1283 926 1259.5 993.5 Q1236 1061 1193.5 1109 Q1151 1157 1091.5 1183 Q1032 1209 959 1209 Q861 1209 775.5 1162 Q690 1115 627 1032.5 Q564 950 527.5 838.5 Q491 727 491 598 Q491 515 514.5 448 Q538 381 580.5 333 Q623 285 683 259 Q743 233 817 233 Q915 233 1000 279.5 Q1085 326 1148 408 Q1211 490 1247 601.5 Q1283 713 1283 844 Z " />
<glyph glyph-name="Oslash" unicode="&#xd8;" horiz-adv-x="1592" d="M667 267 Q735 233 817 233 Q915 233 1000 279.5 Q1085 326 1148 408 Q1211 490 1247 601.5 Q1283 713 1283 844 Q1283 918 1264.5 979 Q1246 1040 1212 1087 L667 267 Z M1119 1169 Q1048 1209 959 1209 Q861 1209 775.5 1162 Q690 1115 627 1032.5 Q564 950 527.5 838.5 Q491 727 491 598 Q491 520 512 455.5 Q533 391 572 343 L1119 1169 Z M1382 1344 Q1484 1261 1538.5 1138.5 Q1593 1016 1593 867 Q1593 734 1566 615 Q1539 496 1488.5 395.5 Q1438 295 1367 215 Q1296 135 1208.5 79 Q1121 23 1019 -7 Q917 -37 805 -37 Q721 -37 647 -20.5 Q573 -4 508 27 L445 -68 L343 -2 L405 91 Q298 174 239.5 299 Q181 424 181 576 Q181 709 208.5 827.5 Q236 946 286 1046.5 Q336 1147 407.5 1227 Q479 1307 566.5 1363.5 Q654 1420 756.5 1450 Q859 1480 971 1480 Q1059 1480 1136 1462 Q1213 1444 1279 1411 L1343 1507 L1451 1448 L1382 1344 Z " />
<glyph glyph-name="Otilde" unicode="&#xd5;" horiz-adv-x="1617" d="M805 -37 Q663 -37 548 9.5 Q433 56 351.5 138 Q270 220 225.5 332.5 Q181 445 181 576 Q181 709 208.5 827.5 Q236 946 286 1046.5 Q336 1147 407.5 1227 Q479 1307 566.5 1363.5 Q654 1420 756.5 1450 Q859 1480 971 1480 Q1115 1480 1230 1433.5 Q1345 1387 1425.5 1305 Q1506 1223 1549.5 1110.5 Q1593 998 1593 867 Q1593 734 1566 615 Q1539 496 1488.5 395.5 Q1438 295 1367 215 Q1296 135 1208.5 79 Q1121 23 1019 -7 Q917 -37 805 -37 Z M1283 844 Q1283 926 1259.5 993.5 Q1236 1061 1193.5 1109 Q1151 1157 1091.5 1183 Q1032 1209 959 1209 Q861 1209 775.5 1162 Q690 1115 627 1032.5 Q564 950 527.5 838.5 Q491 727 491 598 Q491 515 514.5 448 Q538 381 580.5 333 Q623 285 683 259 Q743 233 817 233 Q915 233 1000 279.5 Q1085 326 1148 408 Q1211 490 1247 601.5 Q1283 713 1283 844 Z M1193 1577 Q1132 1577 1089 1599.5 Q1046 1622 1012 1649 Q978 1676 949.5 1698.5 Q921 1721 888 1721 Q849 1721 824 1696.5 Q799 1672 791 1617 L610 1617 Q619 1682 642.5 1733.5 Q666 1785 701.5 1820.5 Q737 1856 782.5 1875 Q828 1894 879 1894 Q940 1894 983 1871.5 Q1026 1849 1059.5 1822 Q1093 1795 1122 1772.5 Q1151 1750 1183 1750 Q1223 1750 1248 1774.5 Q1273 1799 1281 1854 L1462 1854 Q1453 1789 1429 1737.5 Q1405 1686 1370 1650.5 Q1335 1615 1289.5 1596 Q1244 1577 1193 1577 Z " />
<glyph glyph-name="Oacute" unicode="&#xd3;" horiz-adv-x="1617" d="M1199 1907 L1514 1907 L1133 1589 L856 1589 L1199 1907 Z M805 -37 Q663 -37 548 9.5 Q433 56 351.5 138 Q270 220 225.5 332.5 Q181 445 181 576 Q181 709 208.5 827.5 Q236 946 286 1046.5 Q336 1147 407.5 1227 Q479 1307 566.5 1363.5 Q654 1420 756.5 1450 Q859 1480 971 1480 Q1115 1480 1230 1433.5 Q1345 1387 1425.5 1305 Q1506 1223 1549.5 1110.5 Q1593 998 1593 867 Q1593 734 1566 615 Q1539 496 1488.5 395.5 Q1438 295 1367 215 Q1296 135 1208.5 79 Q1121 23 1019 -7 Q917 -37 805 -37 Z M1283 844 Q1283 926 1259.5 993.5 Q1236 1061 1193.5 1109 Q1151 1157 1091.5 1183 Q1032 1209 959 1209 Q861 1209 775.5 1162 Q690 1115 627 1032.5 Q564 950 527.5 838.5 Q491 727 491 598 Q491 515 514.5 448 Q538 381 580.5 333 Q623 285 683 259 Q743 233 817 233 Q915 233 1000 279.5 Q1085 326 1148 408 Q1211 490 1247 601.5 Q1283 713 1283 844 Z " />
<glyph glyph-name="Ocircumflex" unicode="&#xd4;" horiz-adv-x="1617" d="M1394 1589 L1145 1589 L1053 1780 L1035 1780 L863 1589 L588 1589 L916 1924 L1207 1924 L1394 1589 Z M805 -37 Q663 -37 548 9.5 Q433 56 351.5 138 Q270 220 225.5 332.5 Q181 445 181 576 Q181 709 208.5 827.5 Q236 946 286 1046.5 Q336 1147 407.5 1227 Q479 1307 566.5 1363.5 Q654 1420 756.5 1450 Q859 1480 971 1480 Q1115 1480 1230 1433.5 Q1345 1387 1425.5 1305 Q1506 1223 1549.5 1110.5 Q1593 998 1593 867 Q1593 734 1566 615 Q1539 496 1488.5 395.5 Q1438 295 1367 215 Q1296 135 1208.5 79 Q1121 23 1019 -7 Q917 -37 805 -37 Z M1283 844 Q1283 926 1259.5 993.5 Q1236 1061 1193.5 1109 Q1151 1157 1091.5 1183 Q1032 1209 959 1209 Q861 1209 775.5 1162 Q690 1115 627 1032.5 Q564 950 527.5 838.5 Q491 727 491 598 Q491 515 514.5 448 Q538 381 580.5 333 Q623 285 683 259 Q743 233 817 233 Q915 233 1000 279.5 Q1085 326 1148 408 Q1211 490 1247 601.5 Q1283 713 1283 844 Z " />
<glyph glyph-name="Ograve" unicode="&#xd2;" horiz-adv-x="1617" d="M1140 1589 L874 1589 L657 1907 L963 1907 L1140 1589 Z M805 -37 Q663 -37 548 9.5 Q433 56 351.5 138 Q270 220 225.5 332.5 Q181 445 181 576 Q181 709 208.5 827.5 Q236 946 286 1046.5 Q336 1147 407.5 1227 Q479 1307 566.5 1363.5 Q654 1420 756.5 1450 Q859 1480 971 1480 Q1115 1480 1230 1433.5 Q1345 1387 1425.5 1305 Q1506 1223 1549.5 1110.5 Q1593 998 1593 867 Q1593 734 1566 615 Q1539 496 1488.5 395.5 Q1438 295 1367 215 Q1296 135 1208.5 79 Q1121 23 1019 -7 Q917 -37 805 -37 Z M1283 844 Q1283 926 1259.5 993.5 Q1236 1061 1193.5 1109 Q1151 1157 1091.5 1183 Q1032 1209 959 1209 Q861 1209 775.5 1162 Q690 1115 627 1032.5 Q564 950 527.5 838.5 Q491 727 491 598 Q491 515 514.5 448 Q538 381 580.5 333 Q623 285 683 259 Q743 233 817 233 Q915 233 1000 279.5 Q1085 326 1148 408 Q1211 490 1247 601.5 Q1283 713 1283 844 Z " />
<glyph glyph-name="Ocircumflexhookabove" unicode="&#x1ed4;" horiz-adv-x="1617" d="M1253 2169 Q1279 2177 1310 2181.5 Q1341 2186 1372 2186 Q1428 2186 1472.5 2172.5 Q1517 2159 1548 2135 Q1579 2111 1595.5 2078.5 Q1612 2046 1612 2007 Q1612 1926 1558 1857 Q1504 1788 1402 1744 L1317 1859 Q1417 1901 1417 1965 Q1417 1996 1390 2012 Q1363 2028 1312 2028 Q1285 2028 1261 2025 Q1237 2022 1220 2016 L1253 2169 Z M1419 1578 L1149 1578 L1042 1730 L1024 1730 L848 1578 L549 1578 L879 1842 L1213 1842 L1419 1578 Z M805 -37 Q663 -37 548 9.5 Q433 56 351.5 138 Q270 220 225.5 332.5 Q181 445 181 576 Q181 709 208.5 827.5 Q236 946 286 1046.5 Q336 1147 407.5 1227 Q479 1307 566.5 1363.5 Q654 1420 756.5 1450 Q859 1480 971 1480 Q1115 1480 1230 1433.5 Q1345 1387 1425.5 1305 Q1506 1223 1549.5 1110.5 Q1593 998 1593 867 Q1593 734 1566 615 Q1539 496 1488.5 395.5 Q1438 295 1367 215 Q1296 135 1208.5 79 Q1121 23 1019 -7 Q917 -37 805 -37 Z M1283 844 Q1283 926 1259.5 993.5 Q1236 1061 1193.5 1109 Q1151 1157 1091.5 1183 Q1032 1209 959 1209 Q861 1209 775.5 1162 Q690 1115 627 1032.5 Q564 950 527.5 838.5 Q491 727 491 598 Q491 515 514.5 448 Q538 381 580.5 333 Q623 285 683 259 Q743 233 817 233 Q915 233 1000 279.5 Q1085 326 1148 408 Q1211 490 1247 601.5 Q1283 713 1283 844 Z " />
<glyph glyph-name="Ocircumflexgrave" unicode="&#x1ed2;" horiz-adv-x="1617" d="M1313 1884 L1162 2178 L1435 2178 L1556 1884 L1313 1884 Z M1419 1578 L1149 1578 L1042 1730 L1024 1730 L848 1578 L549 1578 L879 1842 L1213 1842 L1419 1578 Z M805 -37 Q663 -37 548 9.5 Q433 56 351.5 138 Q270 220 225.5 332.5 Q181 445 181 576 Q181 709 208.5 827.5 Q236 946 286 1046.5 Q336 1147 407.5 1227 Q479 1307 566.5 1363.5 Q654 1420 756.5 1450 Q859 1480 971 1480 Q1115 1480 1230 1433.5 Q1345 1387 1425.5 1305 Q1506 1223 1549.5 1110.5 Q1593 998 1593 867 Q1593 734 1566 615 Q1539 496 1488.5 395.5 Q1438 295 1367 215 Q1296 135 1208.5 79 Q1121 23 1019 -7 Q917 -37 805 -37 Z M1283 844 Q1283 926 1259.5 993.5 Q1236 1061 1193.5 1109 Q1151 1157 1091.5 1183 Q1032 1209 959 1209 Q861 1209 775.5 1162 Q690 1115 627 1032.5 Q564 950 527.5 838.5 Q491 727 491 598 Q491 515 514.5 448 Q538 381 580.5 333 Q623 285 683 259 Q743 233 817 233 Q915 233 1000 279.5 Q1085 326 1148 408 Q1211 490 1247 601.5 Q1283 713 1283 844 Z " />
<glyph glyph-name="Odotbelow" unicode="&#x1ecc;" horiz-adv-x="1617" d="M740 -419 Q704 -419 675 -408.5 Q646 -398 625.5 -379.5 Q605 -361 594 -335 Q583 -309 583 -279 Q583 -249 594 -223.5 Q605 -198 625.5 -179.5 Q646 -161 675 -150.5 Q704 -140 740 -140 Q775 -140 804 -150.5 Q833 -161 853.5 -179.5 Q874 -198 885.5 -223.5 Q897 -249 897 -279 Q897 -309 885.5 -335 Q874 -361 853.5 -379.5 Q833 -398 804 -408.5 Q775 -419 740 -419 Z M805 -37 Q663 -37 548 9.5 Q433 56 351.5 138 Q270 220 225.5 332.5 Q181 445 181 576 Q181 709 208.5 827.5 Q236 946 286 1046.5 Q336 1147 407.5 1227 Q479 1307 566.5 1363.5 Q654 1420 756.5 1450 Q859 1480 971 1480 Q1115 1480 1230 1433.5 Q1345 1387 1425.5 1305 Q1506 1223 1549.5 1110.5 Q1593 998 1593 867 Q1593 734 1566 615 Q1539 496 1488.5 395.5 Q1438 295 1367 215 Q1296 135 1208.5 79 Q1121 23 1019 -7 Q917 -37 805 -37 Z M1283 844 Q1283 926 1259.5 993.5 Q1236 1061 1193.5 1109 Q1151 1157 1091.5 1183 Q1032 1209 959 1209 Q861 1209 775.5 1162 Q690 1115 627 1032.5 Q564 950 527.5 838.5 Q491 727 491 598 Q491 515 514.5 448 Q538 381 580.5 333 Q623 285 683 259 Q743 233 817 233 Q915 233 1000 279.5 Q1085 326 1148 408 Q1211 490 1247 601.5 Q1283 713 1283 844 Z " />
<glyph glyph-name="Odblgrave" unicode="&#x20c;" horiz-adv-x="1617" d="M723 1589 L544 1907 L815 1907 L968 1589 L723 1589 Z M1161 1589 L982 1907 L1252 1907 L1405 1589 L1161 1589 Z M805 -37 Q663 -37 548 9.5 Q433 56 351.5 138 Q270 220 225.5 332.5 Q181 445 181 576 Q181 709 208.5 827.5 Q236 946 286 1046.5 Q336 1147 407.5 1227 Q479 1307 566.5 1363.5 Q654 1420 756.5 1450 Q859 1480 971 1480 Q1115 1480 1230 1433.5 Q1345 1387 1425.5 1305 Q1506 1223 1549.5 1110.5 Q1593 998 1593 867 Q1593 734 1566 615 Q1539 496 1488.5 395.5 Q1438 295 1367 215 Q1296 135 1208.5 79 Q1121 23 1019 -7 Q917 -37 805 -37 Z M1283 844 Q1283 926 1259.5 993.5 Q1236 1061 1193.5 1109 Q1151 1157 1091.5 1183 Q1032 1209 959 1209 Q861 1209 775.5 1162 Q690 1115 627 1032.5 Q564 950 527.5 838.5 Q491 727 491 598 Q491 515 514.5 448 Q538 381 580.5 333 Q623 285 683 259 Q743 233 817 233 Q915 233 1000 279.5 Q1085 326 1148 408 Q1211 490 1247 601.5 Q1283 713 1283 844 Z " />
<glyph glyph-name="Otildeacute" unicode="&#x1e4c;" horiz-adv-x="1617" d="M805 -37 Q663 -37 548 9.5 Q433 56 351.5 138 Q270 220 225.5 332.5 Q181 445 181 576 Q181 709 208.5 827.5 Q236 946 286 1046.5 Q336 1147 407.5 1227 Q479 1307 566.5 1363.5 Q654 1420 756.5 1450 Q859 1480 971 1480 Q1115 1480 1230 1433.5 Q1345 1387 1425.5 1305 Q1506 1223 1549.5 1110.5 Q1593 998 1593 867 Q1593 734 1566 615 Q1539 496 1488.5 395.5 Q1438 295 1367 215 Q1296 135 1208.5 79 Q1121 23 1019 -7 Q917 -37 805 -37 Z M1283 844 Q1283 926 1259.5 993.5 Q1236 1061 1193.5 1109 Q1151 1157 1091.5 1183 Q1032 1209 959 1209 Q861 1209 775.5 1162 Q690 1115 627 1032.5 Q564 950 527.5 838.5 Q491 727 491 598 Q491 515 514.5 448 Q538 381 580.5 333 Q623 285 683 259 Q743 233 817 233 Q915 233 1000 279.5 Q1085 326 1148 408 Q1211 490 1247 601.5 Q1283 713 1283 844 Z M1155 2178 L1440 2178 L1199 1936 L945 1936 L1155 2178 Z M1180 1576 Q1126 1576 1086.5 1596 Q1047 1616 1015.5 1639.5 Q984 1663 956.5 1683 Q929 1703 898 1703 Q860 1703 835.5 1681 Q811 1659 801 1608 L620 1608 Q629 1672 653 1722 Q677 1772 713 1806 Q749 1840 793.5 1858 Q838 1876 887 1876 Q941 1876 980.5 1856.5 Q1020 1837 1051.5 1813 Q1083 1789 1110.5 1769.5 Q1138 1750 1169 1750 Q1207 1750 1231.5 1772 Q1256 1794 1266 1845 L1447 1845 Q1438 1780 1413.5 1730 Q1389 1680 1353.5 1646 Q1318 1612 1273.5 1594 Q1229 1576 1180 1576 Z " />
<glyph glyph-name="Omacronacute" unicode="&#x1e52;" horiz-adv-x="1617" d="M636 1610 L673 1788 L1418 1788 L1381 1610 L636 1610 Z M1165 2178 L1449 2178 L1206 1914 L951 1914 L1165 2178 Z M805 -37 Q663 -37 548 9.5 Q433 56 351.5 138 Q270 220 225.5 332.5 Q181 445 181 576 Q181 709 208.5 827.5 Q236 946 286 1046.5 Q336 1147 407.5 1227 Q479 1307 566.5 1363.5 Q654 1420 756.5 1450 Q859 1480 971 1480 Q1115 1480 1230 1433.5 Q1345 1387 1425.5 1305 Q1506 1223 1549.5 1110.5 Q1593 998 1593 867 Q1593 734 1566 615 Q1539 496 1488.5 395.5 Q1438 295 1367 215 Q1296 135 1208.5 79 Q1121 23 1019 -7 Q917 -37 805 -37 Z M1283 844 Q1283 926 1259.5 993.5 Q1236 1061 1193.5 1109 Q1151 1157 1091.5 1183 Q1032 1209 959 1209 Q861 1209 775.5 1162 Q690 1115 627 1032.5 Q564 950 527.5 838.5 Q491 727 491 598 Q491 515 514.5 448 Q538 381 580.5 333 Q623 285 683 259 Q743 233 817 233 Q915 233 1000 279.5 Q1085 326 1148 408 Q1211 490 1247 601.5 Q1283 713 1283 844 Z " />
<glyph glyph-name="Ocircumflextilde" unicode="&#x1ed6;" horiz-adv-x="1617" d="M1419 1578 L1150 1578 L1043 1730 L1025 1730 L848 1578 L550 1578 L879 1842 L1213 1842 L1419 1578 Z M1218 1897 Q1165 1897 1126 1916 Q1087 1935 1055 1958 Q1023 1981 995 2000 Q967 2019 936 2019 Q898 2019 873.5 1999.5 Q849 1980 839 1929 L658 1929 Q667 1993 691 2042 Q715 2091 751 2124.5 Q787 2158 831.5 2175 Q876 2192 925 2192 Q977 2192 1016.5 2173 Q1056 2154 1088 2131.5 Q1120 2109 1148 2090 Q1176 2071 1207 2071 Q1245 2071 1269.5 2090.5 Q1294 2110 1304 2161 L1485 2161 Q1476 2097 1451.5 2047.5 Q1427 1998 1391.5 1964.5 Q1356 1931 1311.5 1914 Q1267 1897 1218 1897 Z M805 -37 Q663 -37 548 9.5 Q433 56 351.5 138 Q270 220 225.5 332.5 Q181 445 181 576 Q181 709 208.5 827.5 Q236 946 286 1046.5 Q336 1147 407.5 1227 Q479 1307 566.5 1363.5 Q654 1420 756.5 1450 Q859 1480 971 1480 Q1115 1480 1230 1433.5 Q1345 1387 1425.5 1305 Q1506 1223 1549.5 1110.5 Q1593 998 1593 867 Q1593 734 1566 615 Q1539 496 1488.5 395.5 Q1438 295 1367 215 Q1296 135 1208.5 79 Q1121 23 1019 -7 Q917 -37 805 -37 Z M1283 844 Q1283 926 1259.5 993.5 Q1236 1061 1193.5 1109 Q1151 1157 1091.5 1183 Q1032 1209 959 1209 Q861 1209 775.5 1162 Q690 1115 627 1032.5 Q564 950 527.5 838.5 Q491 727 491 598 Q491 515 514.5 448 Q538 381 580.5 333 Q623 285 683 259 Q743 233 817 233 Q915 233 1000 279.5 Q1085 326 1148 408 Q1211 490 1247 601.5 Q1283 713 1283 844 Z " />
<glyph glyph-name="Odotaccentmacron" unicode="&#x230;" horiz-adv-x="1617" d="M716 1995 L752 2163 L1497 2163 L1462 1995 L716 1995 Z M1033 1574 Q999 1574 970.5 1585.5 Q942 1597 921 1617 Q900 1637 888.5 1664.5 Q877 1692 877 1724 Q877 1756 888.5 1783 Q900 1810 921 1830 Q942 1850 970.5 1861 Q999 1872 1033 1872 Q1067 1872 1095.5 1861 Q1124 1850 1145 1830 Q1166 1810 1177.5 1783 Q1189 1756 1189 1724 Q1189 1692 1177.5 1664.5 Q1166 1637 1145 1617 Q1124 1597 1095.5 1585.5 Q1067 1574 1033 1574 Z M805 -37 Q663 -37 548 9.5 Q433 56 351.5 138 Q270 220 225.5 332.5 Q181 445 181 576 Q181 709 208.5 827.5 Q236 946 286 1046.5 Q336 1147 407.5 1227 Q479 1307 566.5 1363.5 Q654 1420 756.5 1450 Q859 1480 971 1480 Q1115 1480 1230 1433.5 Q1345 1387 1425.5 1305 Q1506 1223 1549.5 1110.5 Q1593 998 1593 867 Q1593 734 1566 615 Q1539 496 1488.5 395.5 Q1438 295 1367 215 Q1296 135 1208.5 79 Q1121 23 1019 -7 Q917 -37 805 -37 Z M1283 844 Q1283 926 1259.5 993.5 Q1236 1061 1193.5 1109 Q1151 1157 1091.5 1183 Q1032 1209 959 1209 Q861 1209 775.5 1162 Q690 1115 627 1032.5 Q564 950 527.5 838.5 Q491 727 491 598 Q491 515 514.5 448 Q538 381 580.5 333 Q623 285 683 259 Q743 233 817 233 Q915 233 1000 279.5 Q1085 326 1148 408 Q1211 490 1247 601.5 Q1283 713 1283 844 Z " />
<glyph glyph-name="Omacrongrave" unicode="&#x1e50;" horiz-adv-x="1617" d="M637 1610 L674 1788 L1419 1788 L1382 1610 L637 1610 Z M941 1914 L807 2178 L1092 2178 L1196 1914 L941 1914 Z M805 -37 Q663 -37 548 9.5 Q433 56 351.5 138 Q270 220 225.5 332.5 Q181 445 181 576 Q181 709 208.5 827.5 Q236 946 286 1046.5 Q336 1147 407.5 1227 Q479 1307 566.5 1363.5 Q654 1420 756.5 1450 Q859 1480 971 1480 Q1115 1480 1230 1433.5 Q1345 1387 1425.5 1305 Q1506 1223 1549.5 1110.5 Q1593 998 1593 867 Q1593 734 1566 615 Q1539 496 1488.5 395.5 Q1438 295 1367 215 Q1296 135 1208.5 79 Q1121 23 1019 -7 Q917 -37 805 -37 Z M1283 844 Q1283 926 1259.5 993.5 Q1236 1061 1193.5 1109 Q1151 1157 1091.5 1183 Q1032 1209 959 1209 Q861 1209 775.5 1162 Q690 1115 627 1032.5 Q564 950 527.5 838.5 Q491 727 491 598 Q491 515 514.5 448 Q538 381 580.5 333 Q623 285 683 259 Q743 233 817 233 Q915 233 1000 279.5 Q1085 326 1148 408 Q1211 490 1247 601.5 Q1283 713 1283 844 Z " />
<glyph glyph-name="Ocaron" unicode="&#x1d1;" horiz-adv-x="1617" d="M683 1924 L933 1924 L1025 1733 L1043 1733 L1215 1924 L1490 1924 L1162 1589 L871 1589 L683 1924 Z M805 -37 Q663 -37 548 9.5 Q433 56 351.5 138 Q270 220 225.5 332.5 Q181 445 181 576 Q181 709 208.5 827.5 Q236 946 286 1046.5 Q336 1147 407.5 1227 Q479 1307 566.5 1363.5 Q654 1420 756.5 1450 Q859 1480 971 1480 Q1115 1480 1230 1433.5 Q1345 1387 1425.5 1305 Q1506 1223 1549.5 1110.5 Q1593 998 1593 867 Q1593 734 1566 615 Q1539 496 1488.5 395.5 Q1438 295 1367 215 Q1296 135 1208.5 79 Q1121 23 1019 -7 Q917 -37 805 -37 Z M1283 844 Q1283 926 1259.5 993.5 Q1236 1061 1193.5 1109 Q1151 1157 1091.5 1183 Q1032 1209 959 1209 Q861 1209 775.5 1162 Q690 1115 627 1032.5 Q564 950 527.5 838.5 Q491 727 491 598 Q491 515 514.5 448 Q538 381 580.5 333 Q623 285 683 259 Q743 233 817 233 Q915 233 1000 279.5 Q1085 326 1148 408 Q1211 490 1247 601.5 Q1283 713 1283 844 Z " />
<glyph glyph-name="Oslashacute" unicode="&#x1fe;" horiz-adv-x="1592" d="M1036 1589 L759 1589 L1102 1907 L1417 1907 L1036 1589 Z M667 267 Q735 233 817 233 Q915 233 1000 279.5 Q1085 326 1148 408 Q1211 490 1247 601.5 Q1283 713 1283 844 Q1283 918 1264.5 979 Q1246 1040 1212 1087 L667 267 Z M1119 1169 Q1048 1209 959 1209 Q861 1209 775.5 1162 Q690 1115 627 1032.5 Q564 950 527.5 838.5 Q491 727 491 598 Q491 520 512 455.5 Q533 391 572 343 L1119 1169 Z M1382 1344 Q1484 1261 1538.5 1138.5 Q1593 1016 1593 867 Q1593 734 1566 615 Q1539 496 1488.5 395.5 Q1438 295 1367 215 Q1296 135 1208.5 79 Q1121 23 1019 -7 Q917 -37 805 -37 Q721 -37 647 -20.5 Q573 -4 508 27 L445 -68 L343 -2 L405 91 Q298 174 239.5 299 Q181 424 181 576 Q181 709 208.5 827.5 Q236 946 286 1046.5 Q336 1147 407.5 1227 Q479 1307 566.5 1363.5 Q654 1420 756.5 1450 Q859 1480 971 1480 Q1059 1480 1136 1462 Q1213 1444 1279 1411 L1343 1507 L1451 1448 L1382 1344 Z " />
<glyph glyph-name="Ohungarumlaut" unicode="&#x150;" horiz-adv-x="1617" d="M1360 1907 L1630 1907 L1285 1589 L1041 1589 L1360 1907 Z M923 1907 L1193 1907 L848 1589 L604 1589 L923 1907 Z M805 -37 Q663 -37 548 9.5 Q433 56 351.5 138 Q270 220 225.5 332.5 Q181 445 181 576 Q181 709 208.5 827.5 Q236 946 286 1046.5 Q336 1147 407.5 1227 Q479 1307 566.5 1363.5 Q654 1420 756.5 1450 Q859 1480 971 1480 Q1115 1480 1230 1433.5 Q1345 1387 1425.5 1305 Q1506 1223 1549.5 1110.5 Q1593 998 1593 867 Q1593 734 1566 615 Q1539 496 1488.5 395.5 Q1438 295 1367 215 Q1296 135 1208.5 79 Q1121 23 1019 -7 Q917 -37 805 -37 Z M1283 844 Q1283 926 1259.5 993.5 Q1236 1061 1193.5 1109 Q1151 1157 1091.5 1183 Q1032 1209 959 1209 Q861 1209 775.5 1162 Q690 1115 627 1032.5 Q564 950 527.5 838.5 Q491 727 491 598 Q491 515 514.5 448 Q538 381 580.5 333 Q623 285 683 259 Q743 233 817 233 Q915 233 1000 279.5 Q1085 326 1148 408 Q1211 490 1247 601.5 Q1283 713 1283 844 Z " />
<glyph glyph-name="Obreve" unicode="&#x14e;" horiz-adv-x="1617" d="M805 -37 Q663 -37 548 9.5 Q433 56 351.5 138 Q270 220 225.5 332.5 Q181 445 181 576 Q181 709 208.5 827.5 Q236 946 286 1046.5 Q336 1147 407.5 1227 Q479 1307 566.5 1363.5 Q654 1420 756.5 1450 Q859 1480 971 1480 Q1115 1480 1230 1433.5 Q1345 1387 1425.5 1305 Q1506 1223 1549.5 1110.5 Q1593 998 1593 867 Q1593 734 1566 615 Q1539 496 1488.5 395.5 Q1438 295 1367 215 Q1296 135 1208.5 79 Q1121 23 1019 -7 Q917 -37 805 -37 Z M1283 844 Q1283 926 1259.5 993.5 Q1236 1061 1193.5 1109 Q1151 1157 1091.5 1183 Q1032 1209 959 1209 Q861 1209 775.5 1162 Q690 1115 627 1032.5 Q564 950 527.5 838.5 Q491 727 491 598 Q491 515 514.5 448 Q538 381 580.5 333 Q623 285 683 259 Q743 233 817 233 Q915 233 1000 279.5 Q1085 326 1148 408 Q1211 490 1247 601.5 Q1283 713 1283 844 Z M638 1883 Q638 1893 638.5 1899.5 Q639 1906 640 1914 L845 1914 L845 1893 Q845 1861 858.5 1835 Q872 1809 896.5 1789.5 Q921 1770 954 1759.5 Q987 1749 1026 1749 Q1109 1749 1161 1791.5 Q1213 1834 1231 1914 L1436 1914 Q1425 1838 1391 1776 Q1357 1714 1303 1670 Q1249 1626 1177.5 1602 Q1106 1578 1020 1578 Q936 1578 866 1601 Q796 1624 745 1665 Q694 1706 666 1761.5 Q638 1817 638 1883 Z " />
<glyph glyph-name="Oinvertedbreve" unicode="&#x20e;" horiz-adv-x="1617" d="M1425 1610 Q1425 1600 1425 1593 Q1425 1586 1423 1578 L1219 1578 L1219 1600 Q1219 1631 1205 1657.5 Q1191 1684 1167 1703.5 Q1143 1723 1110 1733.5 Q1077 1744 1038 1744 Q958 1744 904 1700.5 Q850 1657 833 1578 L628 1578 Q639 1652 673 1714 Q707 1776 761 1820.5 Q815 1865 886.5 1889.5 Q958 1914 1044 1914 Q1128 1914 1198 1891 Q1268 1868 1318.5 1827.5 Q1369 1787 1397 1731.5 Q1425 1676 1425 1610 Z M805 -37 Q663 -37 548 9.5 Q433 56 351.5 138 Q270 220 225.5 332.5 Q181 445 181 576 Q181 709 208.5 827.5 Q236 946 286 1046.5 Q336 1147 407.5 1227 Q479 1307 566.5 1363.5 Q654 1420 756.5 1450 Q859 1480 971 1480 Q1115 1480 1230 1433.5 Q1345 1387 1425.5 1305 Q1506 1223 1549.5 1110.5 Q1593 998 1593 867 Q1593 734 1566 615 Q1539 496 1488.5 395.5 Q1438 295 1367 215 Q1296 135 1208.5 79 Q1121 23 1019 -7 Q917 -37 805 -37 Z M1283 844 Q1283 926 1259.5 993.5 Q1236 1061 1193.5 1109 Q1151 1157 1091.5 1183 Q1032 1209 959 1209 Q861 1209 775.5 1162 Q690 1115 627 1032.5 Q564 950 527.5 838.5 Q491 727 491 598 Q491 515 514.5 448 Q538 381 580.5 333 Q623 285 683 259 Q743 233 817 233 Q915 233 1000 279.5 Q1085 326 1148 408 Q1211 490 1247 601.5 Q1283 713 1283 844 Z " />
<glyph glyph-name="Ohookabove" unicode="&#x1ece;" horiz-adv-x="1617" d="M898 1992 Q922 1999 956 2004 Q990 2009 1027 2009 Q1076 2009 1120 1995 Q1164 1981 1197 1955.5 Q1230 1930 1249 1894.5 Q1268 1859 1268 1817 Q1268 1770 1250 1728.5 Q1232 1687 1199 1652 Q1166 1617 1118.5 1590 Q1071 1563 1012 1545 L943 1666 Q1000 1681 1037 1712.5 Q1074 1744 1074 1781 Q1074 1813 1044.5 1832.5 Q1015 1852 967 1852 Q939 1852 911 1848.5 Q883 1845 866 1840 L898 1992 Z M805 -37 Q663 -37 548 9.5 Q433 56 351.5 138 Q270 220 225.5 332.5 Q181 445 181 576 Q181 709 208.5 827.5 Q236 946 286 1046.5 Q336 1147 407.5 1227 Q479 1307 566.5 1363.5 Q654 1420 756.5 1450 Q859 1480 971 1480 Q1115 1480 1230 1433.5 Q1345 1387 1425.5 1305 Q1506 1223 1549.5 1110.5 Q1593 998 1593 867 Q1593 734 1566 615 Q1539 496 1488.5 395.5 Q1438 295 1367 215 Q1296 135 1208.5 79 Q1121 23 1019 -7 Q917 -37 805 -37 Z M1283 844 Q1283 926 1259.5 993.5 Q1236 1061 1193.5 1109 Q1151 1157 1091.5 1183 Q1032 1209 959 1209 Q861 1209 775.5 1162 Q690 1115 627 1032.5 Q564 950 527.5 838.5 Q491 727 491 598 Q491 515 514.5 448 Q538 381 580.5 333 Q623 285 683 259 Q743 233 817 233 Q915 233 1000 279.5 Q1085 326 1148 408 Q1211 490 1247 601.5 Q1283 713 1283 844 Z " />
<glyph glyph-name="Odieresismacron" unicode="&#x22a;" horiz-adv-x="1617" d="M805 -37 Q663 -37 548 9.5 Q433 56 351.5 138 Q270 220 225.5 332.5 Q181 445 181 576 Q181 709 208.5 827.5 Q236 946 286 1046.5 Q336 1147 407.5 1227 Q479 1307 566.5 1363.5 Q654 1420 756.5 1450 Q859 1480 971 1480 Q1115 1480 1230 1433.5 Q1345 1387 1425.5 1305 Q1506 1223 1549.5 1110.5 Q1593 998 1593 867 Q1593 734 1566 615 Q1539 496 1488.5 395.5 Q1438 295 1367 215 Q1296 135 1208.5 79 Q1121 23 1019 -7 Q917 -37 805 -37 Z M1283 844 Q1283 926 1259.5 993.5 Q1236 1061 1193.5 1109 Q1151 1157 1091.5 1183 Q1032 1209 959 1209 Q861 1209 775.5 1162 Q690 1115 627 1032.5 Q564 950 527.5 838.5 Q491 727 491 598 Q491 515 514.5 448 Q538 381 580.5 333 Q623 285 683 259 Q743 233 817 233 Q915 233 1000 279.5 Q1085 326 1148 408 Q1211 490 1247 601.5 Q1283 713 1283 844 Z M752 2163 L1497 2163 L1461 1995 L716 1995 L752 2163 Z M800 1578 Q767 1578 738.5 1589 Q710 1600 689.5 1620 Q669 1640 657.5 1667.5 Q646 1695 646 1728 Q646 1761 657.5 1788.5 Q669 1816 689.5 1836 Q710 1856 738.5 1867 Q767 1878 800 1878 Q833 1878 861.5 1867 Q890 1856 910 1836 Q930 1816 941.5 1788.5 Q953 1761 953 1728 Q953 1695 941.5 1667.5 Q930 1640 910 1620 Q890 1600 861.5 1589 Q833 1578 800 1578 Z M1268 1578 Q1235 1578 1207 1589 Q1179 1600 1158.5 1620 Q1138 1640 1126.5 1667.5 Q1115 1695 1115 1728 Q1115 1761 1126.5 1788.5 Q1138 1816 1158.5 1836 Q1179 1856 1207 1867 Q1235 1878 1268 1878 Q1301 1878 1329.5 1867 Q1358 1856 1378.5 1836 Q1399 1816 1410.5 1788.5 Q1422 1761 1422 1728 Q1422 1695 1410.5 1667.5 Q1399 1640 1378.5 1620 Q1358 1600 1329.5 1589 Q1301 1578 1268 1578 Z " />
<glyph glyph-name="Otildemacron" unicode="&#x22c;" horiz-adv-x="1617" d="M714 1985 L751 2163 L1496 2163 L1459 1985 L714 1985 Z M1180 1576 Q1126 1576 1086.5 1596 Q1047 1616 1015.5 1639.5 Q984 1663 956.5 1683 Q929 1703 898 1703 Q860 1703 835.5 1681 Q811 1659 801 1608 L620 1608 Q629 1672 653 1722 Q677 1772 713 1806 Q749 1840 793.5 1858 Q838 1876 887 1876 Q941 1876 980.5 1856.5 Q1020 1837 1051.5 1813 Q1083 1789 1110.5 1769.5 Q1138 1750 1169 1750 Q1207 1750 1231.5 1772 Q1256 1794 1266 1845 L1447 1845 Q1438 1780 1413.5 1730 Q1389 1680 1353.5 1646 Q1318 1612 1273.5 1594 Q1229 1576 1180 1576 Z M805 -37 Q663 -37 548 9.5 Q433 56 351.5 138 Q270 220 225.5 332.5 Q181 445 181 576 Q181 709 208.5 827.5 Q236 946 286 1046.5 Q336 1147 407.5 1227 Q479 1307 566.5 1363.5 Q654 1420 756.5 1450 Q859 1480 971 1480 Q1115 1480 1230 1433.5 Q1345 1387 1425.5 1305 Q1506 1223 1549.5 1110.5 Q1593 998 1593 867 Q1593 734 1566 615 Q1539 496 1488.5 395.5 Q1438 295 1367 215 Q1296 135 1208.5 79 Q1121 23 1019 -7 Q917 -37 805 -37 Z M1283 844 Q1283 926 1259.5 993.5 Q1236 1061 1193.5 1109 Q1151 1157 1091.5 1183 Q1032 1209 959 1209 Q861 1209 775.5 1162 Q690 1115 627 1032.5 Q564 950 527.5 838.5 Q491 727 491 598 Q491 515 514.5 448 Q538 381 580.5 333 Q623 285 683 259 Q743 233 817 233 Q915 233 1000 279.5 Q1085 326 1148 408 Q1211 490 1247 601.5 Q1283 713 1283 844 Z " />
<glyph glyph-name="Odotaccent" unicode="&#x22e;" horiz-adv-x="1617" d="M1037 1578 Q1002 1578 973 1590 Q944 1602 923 1623 Q902 1644 890.5 1673 Q879 1702 879 1736 Q879 1770 890.5 1799 Q902 1828 923 1849 Q944 1870 973 1882 Q1002 1894 1037 1894 Q1071 1894 1100 1882 Q1129 1870 1150 1849 Q1171 1828 1182.5 1799 Q1194 1770 1194 1736 Q1194 1702 1182.5 1673 Q1171 1644 1150 1623 Q1129 1602 1100 1590 Q1071 1578 1037 1578 Z M805 -37 Q663 -37 548 9.5 Q433 56 351.5 138 Q270 220 225.5 332.5 Q181 445 181 576 Q181 709 208.5 827.5 Q236 946 286 1046.5 Q336 1147 407.5 1227 Q479 1307 566.5 1363.5 Q654 1420 756.5 1450 Q859 1480 971 1480 Q1115 1480 1230 1433.5 Q1345 1387 1425.5 1305 Q1506 1223 1549.5 1110.5 Q1593 998 1593 867 Q1593 734 1566 615 Q1539 496 1488.5 395.5 Q1438 295 1367 215 Q1296 135 1208.5 79 Q1121 23 1019 -7 Q917 -37 805 -37 Z M1283 844 Q1283 926 1259.5 993.5 Q1236 1061 1193.5 1109 Q1151 1157 1091.5 1183 Q1032 1209 959 1209 Q861 1209 775.5 1162 Q690 1115 627 1032.5 Q564 950 527.5 838.5 Q491 727 491 598 Q491 515 514.5 448 Q538 381 580.5 333 Q623 285 683 259 Q743 233 817 233 Q915 233 1000 279.5 Q1085 326 1148 408 Q1211 490 1247 601.5 Q1283 713 1283 844 Z " />
<glyph glyph-name="Ocircumflexdotbelow" unicode="&#x1ed8;" horiz-adv-x="1617" d="M740 -419 Q704 -419 675 -408.5 Q646 -398 625.5 -379.5 Q605 -361 594 -335 Q583 -309 583 -279 Q583 -249 594 -223.5 Q605 -198 625.5 -179.5 Q646 -161 675 -150.5 Q704 -140 740 -140 Q775 -140 804 -150.5 Q833 -161 853.5 -179.5 Q874 -198 885.5 -223.5 Q897 -249 897 -279 Q897 -309 885.5 -335 Q874 -361 853.5 -379.5 Q833 -398 804 -408.5 Q775 -419 740 -419 Z M1394 1589 L1145 1589 L1053 1780 L1035 1780 L863 1589 L588 1589 L916 1924 L1207 1924 L1394 1589 Z M805 -37 Q663 -37 548 9.5 Q433 56 351.5 138 Q270 220 225.5 332.5 Q181 445 181 576 Q181 709 208.5 827.5 Q236 946 286 1046.5 Q336 1147 407.5 1227 Q479 1307 566.5 1363.5 Q654 1420 756.5 1450 Q859 1480 971 1480 Q1115 1480 1230 1433.5 Q1345 1387 1425.5 1305 Q1506 1223 1549.5 1110.5 Q1593 998 1593 867 Q1593 734 1566 615 Q1539 496 1488.5 395.5 Q1438 295 1367 215 Q1296 135 1208.5 79 Q1121 23 1019 -7 Q917 -37 805 -37 Z M1283 844 Q1283 926 1259.5 993.5 Q1236 1061 1193.5 1109 Q1151 1157 1091.5 1183 Q1032 1209 959 1209 Q861 1209 775.5 1162 Q690 1115 627 1032.5 Q564 950 527.5 838.5 Q491 727 491 598 Q491 515 514.5 448 Q538 381 580.5 333 Q623 285 683 259 Q743 233 817 233 Q915 233 1000 279.5 Q1085 326 1148 408 Q1211 490 1247 601.5 Q1283 713 1283 844 Z " />
<glyph glyph-name="Ocircumflexacute" unicode="&#x1ed0;" horiz-adv-x="1617" d="M1484 2178 L1756 2178 L1483 1884 L1240 1884 L1484 2178 Z M1419 1578 L1149 1578 L1042 1730 L1024 1730 L848 1578 L549 1578 L879 1842 L1213 1842 L1419 1578 Z M805 -37 Q663 -37 548 9.5 Q433 56 351.5 138 Q270 220 225.5 332.5 Q181 445 181 576 Q181 709 208.5 827.5 Q236 946 286 1046.5 Q336 1147 407.5 1227 Q479 1307 566.5 1363.5 Q654 1420 756.5 1450 Q859 1480 971 1480 Q1115 1480 1230 1433.5 Q1345 1387 1425.5 1305 Q1506 1223 1549.5 1110.5 Q1593 998 1593 867 Q1593 734 1566 615 Q1539 496 1488.5 395.5 Q1438 295 1367 215 Q1296 135 1208.5 79 Q1121 23 1019 -7 Q917 -37 805 -37 Z M1283 844 Q1283 926 1259.5 993.5 Q1236 1061 1193.5 1109 Q1151 1157 1091.5 1183 Q1032 1209 959 1209 Q861 1209 775.5 1162 Q690 1115 627 1032.5 Q564 950 527.5 838.5 Q491 727 491 598 Q491 515 514.5 448 Q538 381 580.5 333 Q623 285 683 259 Q743 233 817 233 Q915 233 1000 279.5 Q1085 326 1148 408 Q1211 490 1247 601.5 Q1283 713 1283 844 Z " />
<glyph glyph-name="Otildedieresis" unicode="&#x1e4e;" horiz-adv-x="1617" d="M886 1940 Q824 1940 786.5 1974 Q749 2008 749 2062 Q749 2117 786.5 2150.5 Q824 2184 886 2184 Q948 2184 986 2150.5 Q1024 2117 1024 2062 Q1024 2008 986 1974 Q948 1940 886 1940 Z M1324 1940 Q1262 1940 1224 1974 Q1186 2008 1186 2062 Q1186 2117 1224 2150.5 Q1262 2184 1324 2184 Q1386 2184 1424 2150.5 Q1462 2117 1462 2062 Q1462 2008 1424 1974 Q1386 1940 1324 1940 Z M1180 1576 Q1126 1576 1086.5 1596 Q1047 1616 1015.5 1639.5 Q984 1663 956.5 1683 Q929 1703 898 1703 Q860 1703 835.5 1681 Q811 1659 801 1608 L620 1608 Q629 1672 653 1722 Q677 1772 713 1806 Q749 1840 793.5 1858 Q838 1876 887 1876 Q941 1876 980.5 1856.5 Q1020 1837 1051.5 1813 Q1083 1789 1110.5 1769.5 Q1138 1750 1169 1750 Q1207 1750 1231.5 1772 Q1256 1794 1266 1845 L1447 1845 Q1438 1780 1413.5 1730 Q1389 1680 1353.5 1646 Q1318 1612 1273.5 1594 Q1229 1576 1180 1576 Z M805 -37 Q663 -37 548 9.5 Q433 56 351.5 138 Q270 220 225.5 332.5 Q181 445 181 576 Q181 709 208.5 827.5 Q236 946 286 1046.5 Q336 1147 407.5 1227 Q479 1307 566.5 1363.5 Q654 1420 756.5 1450 Q859 1480 971 1480 Q1115 1480 1230 1433.5 Q1345 1387 1425.5 1305 Q1506 1223 1549.5 1110.5 Q1593 998 1593 867 Q1593 734 1566 615 Q1539 496 1488.5 395.5 Q1438 295 1367 215 Q1296 135 1208.5 79 Q1121 23 1019 -7 Q917 -37 805 -37 Z M1283 844 Q1283 926 1259.5 993.5 Q1236 1061 1193.5 1109 Q1151 1157 1091.5 1183 Q1032 1209 959 1209 Q861 1209 775.5 1162 Q690 1115 627 1032.5 Q564 950 527.5 838.5 Q491 727 491 598 Q491 515 514.5 448 Q538 381 580.5 333 Q623 285 683 259 Q743 233 817 233 Q915 233 1000 279.5 Q1085 326 1148 408 Q1211 490 1247 601.5 Q1283 713 1283 844 Z " />
<glyph glyph-name="Omacron" unicode="&#x14c;" horiz-adv-x="1617" d="M805 -37 Q663 -37 548 9.5 Q433 56 351.5 138 Q270 220 225.5 332.5 Q181 445 181 576 Q181 709 208.5 827.5 Q236 946 286 1046.5 Q336 1147 407.5 1227 Q479 1307 566.5 1363.5 Q654 1420 756.5 1450 Q859 1480 971 1480 Q1115 1480 1230 1433.5 Q1345 1387 1425.5 1305 Q1506 1223 1549.5 1110.5 Q1593 998 1593 867 Q1593 734 1566 615 Q1539 496 1488.5 395.5 Q1438 295 1367 215 Q1296 135 1208.5 79 Q1121 23 1019 -7 Q917 -37 805 -37 Z M1283 844 Q1283 926 1259.5 993.5 Q1236 1061 1193.5 1109 Q1151 1157 1091.5 1183 Q1032 1209 959 1209 Q861 1209 775.5 1162 Q690 1115 627 1032.5 Q564 950 527.5 838.5 Q491 727 491 598 Q491 515 514.5 448 Q538 381 580.5 333 Q623 285 683 259 Q743 233 817 233 Q915 233 1000 279.5 Q1085 326 1148 408 Q1211 490 1247 601.5 Q1283 713 1283 844 Z M640 1631 L677 1812 L1423 1812 L1385 1631 L640 1631 Z " />
<glyph glyph-name="Oogonek" unicode="&#x1ea;" horiz-adv-x="1627" d="M968 -458 Q908 -458 860.5 -443.5 Q813 -429 779.5 -402 Q746 -375 728 -336 Q710 -297 710 -249 Q710 -221 719 -192.5 Q728 -164 744.5 -137.5 Q761 -111 784 -88 Q807 -65 835 -48 L832 -31 Q824 -32 811.5 -32.5 Q799 -33 785 -33 Q653 -30 543 16 Q433 62 353.5 142.5 Q274 223 230 333.5 Q186 444 186 576 Q186 706 213 824 Q240 942 289.5 1043 Q339 1144 410 1225 Q481 1306 568.5 1363 Q656 1420 759 1451 Q862 1482 976 1482 Q1114 1482 1228.5 1437.5 Q1343 1393 1425 1312 Q1507 1231 1552.5 1118 Q1598 1005 1598 868 Q1598 725 1569.5 607.5 Q1541 490 1490 394.5 Q1439 299 1367.5 222.5 Q1296 146 1209 84 Q1150 40 1098.5 3.5 Q1047 -33 1009 -65.5 Q971 -98 949.5 -129 Q928 -160 928 -194 Q928 -239 961.5 -263 Q995 -287 1058 -287 Q1072 -287 1084 -286.5 Q1096 -286 1101 -285 L1068 -446 Q1047 -451 1020.5 -454.5 Q994 -458 968 -458 Z M1288 845 Q1288 927 1265 994.5 Q1242 1062 1199.5 1110 Q1157 1158 1097 1184 Q1037 1210 964 1210 Q865 1210 779.5 1162.5 Q694 1115 631 1032.5 Q568 950 532 838 Q496 726 496 598 Q496 515 519 448 Q542 381 585 333 Q628 285 687.5 259 Q747 233 821 233 Q920 233 1005.5 280 Q1091 327 1153.5 409.5 Q1216 492 1252 604 Q1288 716 1288 845 Z " />
<glyph glyph-name="Oogonekmacron" unicode="&#x1ec;" horiz-adv-x="1627" d="M968 -458 Q908 -458 860.5 -443.5 Q813 -429 779.5 -402 Q746 -375 728 -336 Q710 -297 710 -249 Q710 -221 719 -192.5 Q728 -164 744.5 -137.5 Q761 -111 784 -88 Q807 -65 835 -48 L832 -31 Q824 -32 811.5 -32.5 Q799 -33 785 -33 Q653 -30 543 16 Q433 62 353.5 142.5 Q274 223 230 333.5 Q186 444 186 576 Q186 706 213 824 Q240 942 289.5 1043 Q339 1144 410 1225 Q481 1306 568.5 1363 Q656 1420 759 1451 Q862 1482 976 1482 Q1114 1482 1228.5 1437.5 Q1343 1393 1425 1312 Q1507 1231 1552.5 1118 Q1598 1005 1598 868 Q1598 725 1569.5 607.5 Q1541 490 1490 394.5 Q1439 299 1367.5 222.5 Q1296 146 1209 84 Q1150 40 1098.5 3.5 Q1047 -33 1009 -65.5 Q971 -98 949.5 -129 Q928 -160 928 -194 Q928 -239 961.5 -263 Q995 -287 1058 -287 Q1072 -287 1084 -286.5 Q1096 -286 1101 -285 L1068 -446 Q1047 -451 1020.5 -454.5 Q994 -458 968 -458 Z M1288 845 Q1288 927 1265 994.5 Q1242 1062 1199.5 1110 Q1157 1158 1097 1184 Q1037 1210 964 1210 Q865 1210 779.5 1162.5 Q694 1115 631 1032.5 Q568 950 532 838 Q496 726 496 598 Q496 515 519 448 Q542 381 585 333 Q628 285 687.5 259 Q747 233 821 233 Q920 233 1005.5 280 Q1091 327 1153.5 409.5 Q1216 492 1252 604 Q1288 716 1288 845 Z M640 1631 L677 1812 L1423 1812 L1385 1631 L640 1631 Z " />
<glyph glyph-name="Ohorn" unicode="&#x1a0;" horiz-adv-x="1698" d="M803 -37 Q666 -37 552.5 8.5 Q439 54 358 137.5 Q277 221 232.5 337 Q188 453 188 594 Q188 720 215.5 835 Q243 950 293 1048.5 Q343 1147 414.5 1227 Q486 1307 574 1363.5 Q662 1420 764 1451 Q866 1482 979 1482 Q1059 1482 1122 1468.5 Q1185 1455 1233.5 1435 Q1282 1415 1318.5 1391.5 Q1355 1368 1382.5 1348 Q1410 1328 1431.5 1314.5 Q1453 1301 1471 1301 Q1528 1301 1560.5 1328 Q1593 1355 1607 1416 L1643 1585 L1873 1585 L1822 1344 Q1810 1286 1787 1244.5 Q1764 1203 1734 1176 Q1704 1149 1668 1136.5 Q1632 1124 1594 1124 Q1577 1124 1561 1129 Q1545 1134 1536 1138 L1531 1123 Q1562 1066 1579.5 1000 Q1597 934 1597 851 Q1597 724 1570 608.5 Q1543 493 1493 394 Q1443 295 1371.5 215.5 Q1300 136 1212 80 Q1124 24 1020.5 -6.5 Q917 -37 803 -37 Z M1290 837 Q1290 922 1267 990.5 Q1244 1059 1202 1108 Q1160 1157 1101 1183.5 Q1042 1210 969 1210 Q870 1210 784.5 1163 Q699 1116 635 1034 Q571 952 534.5 842.5 Q498 733 498 607 Q498 522 521 453 Q544 384 586 335 Q628 286 687.5 259.5 Q747 233 820 233 Q919 233 1005 279.5 Q1091 326 1154.5 407.5 Q1218 489 1254 599.5 Q1290 710 1290 837 Z " />
<glyph glyph-name="Ohorndotbelow" unicode="&#x1ee2;" horiz-adv-x="1698" d="M740 -419 Q704 -419 675 -408.5 Q646 -398 625.5 -379.5 Q605 -361 594 -335 Q583 -309 583 -279 Q583 -249 594 -223.5 Q605 -198 625.5 -179.5 Q646 -161 675 -150.5 Q704 -140 740 -140 Q775 -140 804 -150.5 Q833 -161 853.5 -179.5 Q874 -198 885.5 -223.5 Q897 -249 897 -279 Q897 -309 885.5 -335 Q874 -361 853.5 -379.5 Q833 -398 804 -408.5 Q775 -419 740 -419 Z M803 -37 Q666 -37 552.5 8.5 Q439 54 358 137.5 Q277 221 232.5 337 Q188 453 188 594 Q188 720 215.5 835 Q243 950 293 1048.5 Q343 1147 414.5 1227 Q486 1307 574 1363.5 Q662 1420 764 1451 Q866 1482 979 1482 Q1059 1482 1122 1468.5 Q1185 1455 1233.5 1435 Q1282 1415 1318.5 1391.5 Q1355 1368 1382.5 1348 Q1410 1328 1431.5 1314.5 Q1453 1301 1471 1301 Q1528 1301 1560.5 1328 Q1593 1355 1607 1416 L1643 1585 L1873 1585 L1822 1344 Q1810 1286 1787 1244.5 Q1764 1203 1734 1176 Q1704 1149 1668 1136.5 Q1632 1124 1594 1124 Q1577 1124 1561 1129 Q1545 1134 1536 1138 L1531 1123 Q1562 1066 1579.5 1000 Q1597 934 1597 851 Q1597 724 1570 608.5 Q1543 493 1493 394 Q1443 295 1371.5 215.5 Q1300 136 1212 80 Q1124 24 1020.5 -6.5 Q917 -37 803 -37 Z M1290 837 Q1290 922 1267 990.5 Q1244 1059 1202 1108 Q1160 1157 1101 1183.5 Q1042 1210 969 1210 Q870 1210 784.5 1163 Q699 1116 635 1034 Q571 952 534.5 842.5 Q498 733 498 607 Q498 522 521 453 Q544 384 586 335 Q628 286 687.5 259.5 Q747 233 820 233 Q919 233 1005 279.5 Q1091 326 1154.5 407.5 Q1218 489 1254 599.5 Q1290 710 1290 837 Z " />
<glyph glyph-name="Ohornhookabove" unicode="&#x1ede;" horiz-adv-x="1698" d="M898 1992 Q922 1999 956 2004 Q990 2009 1027 2009 Q1076 2009 1120 1995 Q1164 1981 1197 1955.5 Q1230 1930 1249 1894.5 Q1268 1859 1268 1817 Q1268 1770 1250 1728.5 Q1232 1687 1199 1652 Q1166 1617 1118.5 1590 Q1071 1563 1012 1545 L943 1666 Q1000 1681 1037 1712.5 Q1074 1744 1074 1781 Q1074 1813 1044.5 1832.5 Q1015 1852 967 1852 Q939 1852 911 1848.5 Q883 1845 866 1840 L898 1992 Z M803 -37 Q666 -37 552.5 8.5 Q439 54 358 137.5 Q277 221 232.5 337 Q188 453 188 594 Q188 720 215.5 835 Q243 950 293 1048.5 Q343 1147 414.5 1227 Q486 1307 574 1363.5 Q662 1420 764 1451 Q866 1482 979 1482 Q1059 1482 1122 1468.5 Q1185 1455 1233.5 1435 Q1282 1415 1318.5 1391.5 Q1355 1368 1382.5 1348 Q1410 1328 1431.5 1314.5 Q1453 1301 1471 1301 Q1528 1301 1560.5 1328 Q1593 1355 1607 1416 L1643 1585 L1873 1585 L1822 1344 Q1810 1286 1787 1244.5 Q1764 1203 1734 1176 Q1704 1149 1668 1136.5 Q1632 1124 1594 1124 Q1577 1124 1561 1129 Q1545 1134 1536 1138 L1531 1123 Q1562 1066 1579.5 1000 Q1597 934 1597 851 Q1597 724 1570 608.5 Q1543 493 1493 394 Q1443 295 1371.5 215.5 Q1300 136 1212 80 Q1124 24 1020.5 -6.5 Q917 -37 803 -37 Z M1290 837 Q1290 922 1267 990.5 Q1244 1059 1202 1108 Q1160 1157 1101 1183.5 Q1042 1210 969 1210 Q870 1210 784.5 1163 Q699 1116 635 1034 Q571 952 534.5 842.5 Q498 733 498 607 Q498 522 521 453 Q544 384 586 335 Q628 286 687.5 259.5 Q747 233 820 233 Q919 233 1005 279.5 Q1091 326 1154.5 407.5 Q1218 489 1254 599.5 Q1290 710 1290 837 Z " />
<glyph glyph-name="Ohorntilde" unicode="&#x1ee0;" horiz-adv-x="1698" d="M803 -37 Q666 -37 552.5 8.5 Q439 54 358 137.5 Q277 221 232.5 337 Q188 453 188 594 Q188 720 215.5 835 Q243 950 293 1048.5 Q343 1147 414.5 1227 Q486 1307 574 1363.5 Q662 1420 764 1451 Q866 1482 979 1482 Q1059 1482 1122 1468.5 Q1185 1455 1233.5 1435 Q1282 1415 1318.5 1391.5 Q1355 1368 1382.5 1348 Q1410 1328 1431.5 1314.5 Q1453 1301 1471 1301 Q1528 1301 1560.5 1328 Q1593 1355 1607 1416 L1643 1585 L1873 1585 L1822 1344 Q1810 1286 1787 1244.5 Q1764 1203 1734 1176 Q1704 1149 1668 1136.5 Q1632 1124 1594 1124 Q1577 1124 1561 1129 Q1545 1134 1536 1138 L1531 1123 Q1562 1066 1579.5 1000 Q1597 934 1597 851 Q1597 724 1570 608.5 Q1543 493 1493 394 Q1443 295 1371.5 215.5 Q1300 136 1212 80 Q1124 24 1020.5 -6.5 Q917 -37 803 -37 Z M1290 837 Q1290 922 1267 990.5 Q1244 1059 1202 1108 Q1160 1157 1101 1183.5 Q1042 1210 969 1210 Q870 1210 784.5 1163 Q699 1116 635 1034 Q571 952 534.5 842.5 Q498 733 498 607 Q498 522 521 453 Q544 384 586 335 Q628 286 687.5 259.5 Q747 233 820 233 Q919 233 1005 279.5 Q1091 326 1154.5 407.5 Q1218 489 1254 599.5 Q1290 710 1290 837 Z M1193 1577 Q1132 1577 1089 1599.5 Q1046 1622 1012 1649 Q978 1676 949.5 1698.5 Q921 1721 888 1721 Q849 1721 824 1696.5 Q799 1672 791 1617 L610 1617 Q619 1682 642.5 1733.5 Q666 1785 701.5 1820.5 Q737 1856 782.5 1875 Q828 1894 879 1894 Q940 1894 983 1871.5 Q1026 1849 1059.5 1822 Q1093 1795 1122 1772.5 Q1151 1750 1183 1750 Q1223 1750 1248 1774.5 Q1273 1799 1281 1854 L1462 1854 Q1453 1789 1429 1737.5 Q1405 1686 1370 1650.5 Q1335 1615 1289.5 1596 Q1244 1577 1193 1577 Z " />
<glyph glyph-name="Ohorngrave" unicode="&#x1edc;" horiz-adv-x="1698" d="M1140 1589 L874 1589 L657 1907 L963 1907 L1140 1589 Z M803 -37 Q666 -37 552.5 8.5 Q439 54 358 137.5 Q277 221 232.5 337 Q188 453 188 594 Q188 720 215.5 835 Q243 950 293 1048.5 Q343 1147 414.5 1227 Q486 1307 574 1363.5 Q662 1420 764 1451 Q866 1482 979 1482 Q1059 1482 1122 1468.5 Q1185 1455 1233.5 1435 Q1282 1415 1318.5 1391.5 Q1355 1368 1382.5 1348 Q1410 1328 1431.5 1314.5 Q1453 1301 1471 1301 Q1528 1301 1560.5 1328 Q1593 1355 1607 1416 L1643 1585 L1873 1585 L1822 1344 Q1810 1286 1787 1244.5 Q1764 1203 1734 1176 Q1704 1149 1668 1136.5 Q1632 1124 1594 1124 Q1577 1124 1561 1129 Q1545 1134 1536 1138 L1531 1123 Q1562 1066 1579.5 1000 Q1597 934 1597 851 Q1597 724 1570 608.5 Q1543 493 1493 394 Q1443 295 1371.5 215.5 Q1300 136 1212 80 Q1124 24 1020.5 -6.5 Q917 -37 803 -37 Z M1290 837 Q1290 922 1267 990.5 Q1244 1059 1202 1108 Q1160 1157 1101 1183.5 Q1042 1210 969 1210 Q870 1210 784.5 1163 Q699 1116 635 1034 Q571 952 534.5 842.5 Q498 733 498 607 Q498 522 521 453 Q544 384 586 335 Q628 286 687.5 259.5 Q747 233 820 233 Q919 233 1005 279.5 Q1091 326 1154.5 407.5 Q1218 489 1254 599.5 Q1290 710 1290 837 Z " />
<glyph glyph-name="Ohornacute" unicode="&#x1eda;" horiz-adv-x="1698" d="M1199 1907 L1514 1907 L1133 1589 L856 1589 L1199 1907 Z M803 -37 Q666 -37 552.5 8.5 Q439 54 358 137.5 Q277 221 232.5 337 Q188 453 188 594 Q188 720 215.5 835 Q243 950 293 1048.5 Q343 1147 414.5 1227 Q486 1307 574 1363.5 Q662 1420 764 1451 Q866 1482 979 1482 Q1059 1482 1122 1468.5 Q1185 1455 1233.5 1435 Q1282 1415 1318.5 1391.5 Q1355 1368 1382.5 1348 Q1410 1328 1431.5 1314.5 Q1453 1301 1471 1301 Q1528 1301 1560.5 1328 Q1593 1355 1607 1416 L1643 1585 L1873 1585 L1822 1344 Q1810 1286 1787 1244.5 Q1764 1203 1734 1176 Q1704 1149 1668 1136.5 Q1632 1124 1594 1124 Q1577 1124 1561 1129 Q1545 1134 1536 1138 L1531 1123 Q1562 1066 1579.5 1000 Q1597 934 1597 851 Q1597 724 1570 608.5 Q1543 493 1493 394 Q1443 295 1371.5 215.5 Q1300 136 1212 80 Q1124 24 1020.5 -6.5 Q917 -37 803 -37 Z M1290 837 Q1290 922 1267 990.5 Q1244 1059 1202 1108 Q1160 1157 1101 1183.5 Q1042 1210 969 1210 Q870 1210 784.5 1163 Q699 1116 635 1034 Q571 952 534.5 842.5 Q498 733 498 607 Q498 522 521 453 Q544 384 586 335 Q628 286 687.5 259.5 Q747 233 820 233 Q919 233 1005 279.5 Q1091 326 1154.5 407.5 Q1218 489 1254 599.5 Q1290 710 1290 837 Z " />
<glyph glyph-name="P" unicode="P" horiz-adv-x="1368" d="M934 1443 Q1041 1443 1128 1413 Q1215 1383 1277 1327.5 Q1339 1272 1373 1194.5 Q1407 1117 1407 1021 Q1407 888 1361 782 Q1315 676 1232.5 601.5 Q1150 527 1035.5 487.5 Q921 448 783 448 L501 448 L404 0 L101 0 L407 1443 L934 1443 Z M550 693 L779 693 Q851 693 910.5 714.5 Q970 736 1012 775 Q1054 814 1077 869 Q1100 924 1100 992 Q1100 1092 1037 1143.5 Q974 1195 862 1195 L660 1195 L550 693 Z " />
<glyph glyph-name="Pdotaccent" unicode="&#x1e56;" horiz-adv-x="1381" d="M934 1443 Q1041 1443 1128 1413 Q1215 1383 1277 1327.5 Q1339 1272 1373 1194.5 Q1407 1117 1407 1021 Q1407 888 1361 782 Q1315 676 1232.5 601.5 Q1150 527 1035.5 487.5 Q921 448 783 448 L501 448 L404 0 L101 0 L407 1443 L934 1443 Z M550 693 L779 693 Q851 693 910.5 714.5 Q970 736 1012 775 Q1054 814 1077 869 Q1100 924 1100 992 Q1100 1092 1037 1143.5 Q974 1195 862 1195 L660 1195 L550 693 Z M858 1579 Q823 1579 794 1591 Q765 1603 744 1624 Q723 1645 711.5 1674 Q700 1703 700 1737 Q700 1771 711.5 1800 Q723 1829 744 1850 Q765 1871 794 1883 Q823 1895 858 1895 Q892 1895 921 1883 Q950 1871 971 1850 Q992 1829 1003.5 1800 Q1015 1771 1015 1737 Q1015 1703 1003.5 1674 Q992 1645 971 1624 Q950 1603 921 1591 Q892 1579 858 1579 Z " />
<glyph glyph-name="Pacute" unicode="&#x1e54;" horiz-adv-x="1381" d="M1020 1908 L1335 1908 L954 1590 L677 1590 L1020 1908 Z M934 1443 Q1041 1443 1128 1413 Q1215 1383 1277 1327.5 Q1339 1272 1373 1194.5 Q1407 1117 1407 1021 Q1407 888 1361 782 Q1315 676 1232.5 601.5 Q1150 527 1035.5 487.5 Q921 448 783 448 L501 448 L404 0 L101 0 L407 1443 L934 1443 Z M550 693 L779 693 Q851 693 910.5 714.5 Q970 736 1012 775 Q1054 814 1077 869 Q1100 924 1100 992 Q1100 1092 1037 1143.5 Q974 1195 862 1195 L660 1195 L550 693 Z " />
<glyph glyph-name="Q" unicode="Q" horiz-adv-x="1617" d="M1074 -141 L1011 -11 Q961 -25 910 -31 Q859 -37 805 -37 Q664 -37 548.5 9.5 Q433 56 351.5 138 Q270 220 225.5 332 Q181 444 181 576 Q181 775 241.5 941 Q302 1107 408 1227 Q514 1347 658.5 1413.5 Q803 1480 971 1480 Q1115 1480 1230 1433.5 Q1345 1387 1425.5 1305 Q1506 1223 1549.5 1111 Q1593 999 1593 867 Q1593 744 1569 632 Q1545 520 1500.5 423.5 Q1456 327 1391.5 247.5 Q1327 168 1246 110 L1362 -141 L1074 -141 Z M816 228 Q865 228 906 238 L793 481 L1067 481 L1115 397 Q1196 475 1241 590.5 Q1286 706 1286 845 Q1286 929 1262.5 997 Q1239 1065 1196 1113 Q1153 1161 1093 1187 Q1033 1213 960 1213 Q861 1213 775 1165.5 Q689 1118 625.5 1035 Q562 952 525 839.5 Q488 727 488 597 Q488 513 511.5 445 Q535 377 578.5 329 Q622 281 682 254.5 Q742 228 816 228 Z " />
<glyph glyph-name="R" unicode="R" horiz-adv-x="1418" d="M407 1443 L978 1443 Q1078 1443 1161 1413 Q1244 1383 1304 1328.5 Q1364 1274 1397 1199 Q1430 1124 1430 1034 Q1430 954 1405 880 Q1380 806 1334 743.5 Q1288 681 1221.5 633 Q1155 585 1073 558 L1271 0 L946 0 L774 523 L516 523 L404 0 L100 0 L407 1443 Z M563 755 L827 755 Q893 755 947.5 773.5 Q1002 792 1041 825.5 Q1080 859 1101 905 Q1122 951 1122 1007 Q1122 1099 1066 1149 Q1010 1199 909 1199 L661 1199 L563 755 Z " />
<glyph glyph-name="Rcaron" unicode="&#x158;" horiz-adv-x="1418" d="M407 1443 L978 1443 Q1078 1443 1161 1413 Q1244 1383 1304 1328.5 Q1364 1274 1397 1199 Q1430 1124 1430 1034 Q1430 954 1405 880 Q1380 806 1334 743.5 Q1288 681 1221.5 633 Q1155 585 1073 558 L1271 0 L946 0 L774 523 L516 523 L404 0 L100 0 L407 1443 Z M563 755 L827 755 Q893 755 947.5 773.5 Q1002 792 1041 825.5 Q1080 859 1101 905 Q1122 951 1122 1007 Q1122 1099 1066 1149 Q1010 1199 909 1199 L661 1199 L563 755 Z M542 1925 L792 1925 L884 1734 L902 1734 L1074 1925 L1349 1925 L1021 1590 L730 1590 L542 1925 Z " />
<glyph glyph-name="Rlinebelow" unicode="&#x1e5e;" horiz-adv-x="1418" d="M407 1443 L978 1443 Q1078 1443 1161 1413 Q1244 1383 1304 1328.5 Q1364 1274 1397 1199 Q1430 1124 1430 1034 Q1430 954 1405 880 Q1380 806 1334 743.5 Q1288 681 1221.5 633 Q1155 585 1073 558 L1271 0 L946 0 L774 523 L516 523 L404 0 L100 0 L407 1443 Z M563 755 L827 755 Q893 755 947.5 773.5 Q1002 792 1041 825.5 Q1080 859 1101 905 Q1122 951 1122 1007 Q1122 1099 1066 1149 Q1010 1199 909 1199 L661 1199 L563 755 Z M208 -401 L245 -220 L991 -220 L953 -401 L208 -401 Z " />
<glyph glyph-name="Rdotbelowmacron" unicode="&#x1e5c;" horiz-adv-x="1418" d="M595 -419 Q559 -419 530 -408.5 Q501 -398 480.5 -379.5 Q460 -361 449 -335 Q438 -309 438 -279 Q438 -249 449 -223.5 Q460 -198 480.5 -179.5 Q501 -161 530 -150.5 Q559 -140 595 -140 Q630 -140 659 -150.5 Q688 -161 708.5 -179.5 Q729 -198 740.5 -223.5 Q752 -249 752 -279 Q752 -309 740.5 -335 Q729 -361 708.5 -379.5 Q688 -398 659 -408.5 Q630 -419 595 -419 Z M407 1443 L978 1443 Q1078 1443 1161 1413 Q1244 1383 1304 1328.5 Q1364 1274 1397 1199 Q1430 1124 1430 1034 Q1430 954 1405 880 Q1380 806 1334 743.5 Q1288 681 1221.5 633 Q1155 585 1073 558 L1271 0 L946 0 L774 523 L516 523 L404 0 L100 0 L407 1443 Z M563 755 L827 755 Q893 755 947.5 773.5 Q1002 792 1041 825.5 Q1080 859 1101 905 Q1122 951 1122 1007 Q1122 1099 1066 1149 Q1010 1199 909 1199 L661 1199 L563 755 Z M499 1632 L536 1813 L1282 1813 L1244 1632 L499 1632 Z " />
<glyph glyph-name="Rdblgrave" unicode="&#x210;" horiz-adv-x="1418" d="M582 1590 L403 1908 L674 1908 L827 1590 L582 1590 Z M1020 1590 L841 1908 L1111 1908 L1264 1590 L1020 1590 Z M407 1443 L978 1443 Q1078 1443 1161 1413 Q1244 1383 1304 1328.5 Q1364 1274 1397 1199 Q1430 1124 1430 1034 Q1430 954 1405 880 Q1380 806 1334 743.5 Q1288 681 1221.5 633 Q1155 585 1073 558 L1271 0 L946 0 L774 523 L516 523 L404 0 L100 0 L407 1443 Z M563 755 L827 755 Q893 755 947.5 773.5 Q1002 792 1041 825.5 Q1080 859 1101 905 Q1122 951 1122 1007 Q1122 1099 1066 1149 Q1010 1199 909 1199 L661 1199 L563 755 Z " />
<glyph glyph-name="Rinvertedbreve" unicode="&#x212;" horiz-adv-x="1418" d="M407 1443 L978 1443 Q1078 1443 1161 1413 Q1244 1383 1304 1328.5 Q1364 1274 1397 1199 Q1430 1124 1430 1034 Q1430 954 1405 880 Q1380 806 1334 743.5 Q1288 681 1221.5 633 Q1155 585 1073 558 L1271 0 L946 0 L774 523 L516 523 L404 0 L100 0 L407 1443 Z M563 755 L827 755 Q893 755 947.5 773.5 Q1002 792 1041 825.5 Q1080 859 1101 905 Q1122 951 1122 1007 Q1122 1099 1066 1149 Q1010 1199 909 1199 L661 1199 L563 755 Z M1284 1611 Q1284 1601 1284 1594 Q1284 1587 1282 1579 L1078 1579 L1078 1601 Q1078 1632 1064 1658.5 Q1050 1685 1026 1704.5 Q1002 1724 969 1734.5 Q936 1745 897 1745 Q817 1745 763 1701.5 Q709 1658 692 1579 L487 1579 Q498 1653 532 1715 Q566 1777 620 1821.5 Q674 1866 745.5 1890.5 Q817 1915 903 1915 Q987 1915 1057 1892 Q1127 1869 1177.5 1828.5 Q1228 1788 1256 1732.5 Q1284 1677 1284 1611 Z " />
<glyph glyph-name="Racute" unicode="&#x154;" horiz-adv-x="1418" d="M1058 1908 L1373 1908 L992 1590 L715 1590 L1058 1908 Z M407 1443 L978 1443 Q1078 1443 1161 1413 Q1244 1383 1304 1328.5 Q1364 1274 1397 1199 Q1430 1124 1430 1034 Q1430 954 1405 880 Q1380 806 1334 743.5 Q1288 681 1221.5 633 Q1155 585 1073 558 L1271 0 L946 0 L774 523 L516 523 L404 0 L100 0 L407 1443 Z M563 755 L827 755 Q893 755 947.5 773.5 Q1002 792 1041 825.5 Q1080 859 1101 905 Q1122 951 1122 1007 Q1122 1099 1066 1149 Q1010 1199 909 1199 L661 1199 L563 755 Z " />
<glyph glyph-name="Rdotbelow" unicode="&#x1e5a;" horiz-adv-x="1418" d="M605 -419 Q569 -419 540 -408.5 Q511 -398 490.5 -379.5 Q470 -361 459 -335 Q448 -309 448 -279 Q448 -249 459 -223.5 Q470 -198 490.5 -179.5 Q511 -161 540 -150.5 Q569 -140 605 -140 Q640 -140 669 -150.5 Q698 -161 718.5 -179.5 Q739 -198 750.5 -223.5 Q762 -249 762 -279 Q762 -309 750.5 -335 Q739 -361 718.5 -379.5 Q698 -398 669 -408.5 Q640 -419 605 -419 Z M407 1443 L978 1443 Q1078 1443 1161 1413 Q1244 1383 1304 1328.5 Q1364 1274 1397 1199 Q1430 1124 1430 1034 Q1430 954 1405 880 Q1380 806 1334 743.5 Q1288 681 1221.5 633 Q1155 585 1073 558 L1271 0 L946 0 L774 523 L516 523 L404 0 L100 0 L407 1443 Z M563 755 L827 755 Q893 755 947.5 773.5 Q1002 792 1041 825.5 Q1080 859 1101 905 Q1122 951 1122 1007 Q1122 1099 1066 1149 Q1010 1199 909 1199 L661 1199 L563 755 Z " />
<glyph glyph-name="Rdotaccent" unicode="&#x1e58;" horiz-adv-x="1418" d="M896 1579 Q861 1579 832 1591 Q803 1603 782 1624 Q761 1645 749.5 1674 Q738 1703 738 1737 Q738 1771 749.5 1800 Q761 1829 782 1850 Q803 1871 832 1883 Q861 1895 896 1895 Q930 1895 959 1883 Q988 1871 1009 1850 Q1030 1829 1041.5 1800 Q1053 1771 1053 1737 Q1053 1703 1041.5 1674 Q1030 1645 1009 1624 Q988 1603 959 1591 Q930 1579 896 1579 Z M407 1443 L978 1443 Q1078 1443 1161 1413 Q1244 1383 1304 1328.5 Q1364 1274 1397 1199 Q1430 1124 1430 1034 Q1430 954 1405 880 Q1380 806 1334 743.5 Q1288 681 1221.5 633 Q1155 585 1073 558 L1271 0 L946 0 L774 523 L516 523 L404 0 L100 0 L407 1443 Z M563 755 L827 755 Q893 755 947.5 773.5 Q1002 792 1041 825.5 Q1080 859 1101 905 Q1122 951 1122 1007 Q1122 1099 1066 1149 Q1010 1199 909 1199 L661 1199 L563 755 Z " />
<glyph glyph-name="Rcommaaccent" unicode="&#x156;" horiz-adv-x="1418" d="M407 1443 L978 1443 Q1078 1443 1161 1413 Q1244 1383 1304 1328.5 Q1364 1274 1397 1199 Q1430 1124 1430 1034 Q1430 954 1405 880 Q1380 806 1334 743.5 Q1288 681 1221.5 633 Q1155 585 1073 558 L1271 0 L946 0 L774 523 L516 523 L404 0 L100 0 L407 1443 Z M563 755 L827 755 Q893 755 947.5 773.5 Q1002 792 1041 825.5 Q1080 859 1101 905 Q1122 951 1122 1007 Q1122 1099 1066 1149 Q1010 1199 909 1199 L661 1199 L563 755 Z M333 -509 L505 -151 L797 -151 L591 -509 L333 -509 Z " />
<glyph glyph-name="S" unicode="S" horiz-adv-x="1362" d="M399 412 Q407 365 433 327.5 Q459 290 498.5 263.5 Q538 237 589 222.5 Q640 208 699 208 Q760 208 810.5 221.5 Q861 235 897 260 Q933 285 953 320 Q973 355 973 397 Q973 428 961 454 Q949 480 923.5 502.5 Q898 525 856.5 544.5 Q815 564 757 582 L607 629 Q527 654 464.5 692.5 Q402 731 359.5 781 Q317 831 294.5 892 Q272 953 272 1023 Q272 1122 315 1206 Q358 1290 434 1350.5 Q510 1411 614 1445.5 Q718 1480 840 1480 Q959 1480 1058.5 1447 Q1158 1414 1230 1355 Q1302 1296 1344 1214 Q1386 1132 1389 1033 L1104 1033 Q1097 1078 1074 1115.5 Q1051 1153 1015 1179.5 Q979 1206 931.5 1220.5 Q884 1235 828 1235 Q775 1235 729.5 1222 Q684 1209 650.5 1185.5 Q617 1162 598 1129.5 Q579 1097 579 1059 Q579 999 624.5 954 Q670 909 773 877 L921 831 Q1013 802 1080 764.5 Q1147 727 1191 679 Q1235 631 1256 571.5 Q1277 512 1277 439 Q1277 332 1233.5 244 Q1190 156 1111 93.5 Q1032 31 921.5 -3 Q811 -37 677 -37 Q554 -37 452 -6 Q350 25 275.5 82.5 Q201 140 157.5 223.5 Q114 307 107 412 L399 412 Z " />
<glyph glyph-name="Scaron" unicode="&#x160;" horiz-adv-x="1362" d="M399 412 Q407 365 433 327.5 Q459 290 498.5 263.5 Q538 237 589 222.5 Q640 208 699 208 Q760 208 810.5 221.5 Q861 235 897 260 Q933 285 953 320 Q973 355 973 397 Q973 428 961 454 Q949 480 923.5 502.5 Q898 525 856.5 544.5 Q815 564 757 582 L607 629 Q527 654 464.5 692.5 Q402 731 359.5 781 Q317 831 294.5 892 Q272 953 272 1023 Q272 1122 315 1206 Q358 1290 434 1350.5 Q510 1411 614 1445.5 Q718 1480 840 1480 Q959 1480 1058.5 1447 Q1158 1414 1230 1355 Q1302 1296 1344 1214 Q1386 1132 1389 1033 L1104 1033 Q1097 1078 1074 1115.5 Q1051 1153 1015 1179.5 Q979 1206 931.5 1220.5 Q884 1235 828 1235 Q775 1235 729.5 1222 Q684 1209 650.5 1185.5 Q617 1162 598 1129.5 Q579 1097 579 1059 Q579 999 624.5 954 Q670 909 773 877 L921 831 Q1013 802 1080 764.5 Q1147 727 1191 679 Q1235 631 1256 571.5 Q1277 512 1277 439 Q1277 332 1233.5 244 Q1190 156 1111 93.5 Q1032 31 921.5 -3 Q811 -37 677 -37 Q554 -37 452 -6 Q350 25 275.5 82.5 Q201 140 157.5 223.5 Q114 307 107 412 L399 412 Z M567 1925 L817 1925 L909 1734 L927 1734 L1099 1925 L1374 1925 L1046 1590 L755 1590 L567 1925 Z " />
<glyph glyph-name="Scedilla" unicode="&#x15e;" horiz-adv-x="1362" d="M921 831 Q1013 802 1080 764.5 Q1147 727 1191 679 Q1235 631 1256 571.5 Q1277 512 1277 439 Q1277 341 1240.5 259 Q1204 177 1137.5 116 Q1071 55 976.5 16.5 Q882 -22 767 -33 L710 -120 Q869 -146 869 -284 Q869 -332 850 -371 Q831 -410 796.5 -438 Q762 -466 713.5 -481 Q665 -496 606 -496 Q557 -496 506.5 -486.5 Q456 -477 420 -460 L448 -327 Q461 -333 479 -337.5 Q497 -342 516 -346 Q535 -350 554 -352 Q573 -354 590 -354 Q634 -354 658 -339 Q682 -324 682 -296 Q682 -235 566 -235 L509 -235 L526 -119 L583 -32 Q479 -21 394 14 Q309 49 247.5 106 Q186 163 149.5 240 Q113 317 107 412 L399 412 Q407 365 433 327.5 Q459 290 498.5 263.5 Q538 237 589 222.5 Q640 208 699 208 Q760 208 810.5 221.5 Q861 235 897 260 Q933 285 953 320 Q973 355 973 397 Q973 428 961 454 Q949 480 923.5 502.5 Q898 525 856.5 544.5 Q815 564 757 582 L607 629 Q527 654 464.5 692.5 Q402 731 359.5 781 Q317 831 294.5 892 Q272 953 272 1023 Q272 1122 315 1206 Q358 1290 434 1350.5 Q510 1411 614 1445.5 Q718 1480 840 1480 Q959 1480 1058.5 1447 Q1158 1414 1230 1355 Q1302 1296 1344 1214 Q1386 1132 1389 1033 L1104 1033 Q1097 1078 1074 1115.5 Q1051 1153 1015 1179.5 Q979 1206 931.5 1220.5 Q884 1235 828 1235 Q775 1235 729.5 1222 Q684 1209 650.5 1185.5 Q617 1162 598 1129.5 Q579 1097 579 1059 Q579 999 624.5 954 Q670 909 773 877 L921 831 Z " />
<glyph glyph-name="Sdotaccent" unicode="&#x1e60;" horiz-adv-x="1362" d="M921 1579 Q886 1579 857 1591 Q828 1603 807 1624 Q786 1645 774.5 1674 Q763 1703 763 1737 Q763 1771 774.5 1800 Q786 1829 807 1850 Q828 1871 857 1883 Q886 1895 921 1895 Q955 1895 984 1883 Q1013 1871 1034 1850 Q1055 1829 1066.5 1800 Q1078 1771 1078 1737 Q1078 1703 1066.5 1674 Q1055 1645 1034 1624 Q1013 1603 984 1591 Q955 1579 921 1579 Z M399 412 Q407 365 433 327.5 Q459 290 498.5 263.5 Q538 237 589 222.5 Q640 208 699 208 Q760 208 810.5 221.5 Q861 235 897 260 Q933 285 953 320 Q973 355 973 397 Q973 428 961 454 Q949 480 923.5 502.5 Q898 525 856.5 544.5 Q815 564 757 582 L607 629 Q527 654 464.5 692.5 Q402 731 359.5 781 Q317 831 294.5 892 Q272 953 272 1023 Q272 1122 315 1206 Q358 1290 434 1350.5 Q510 1411 614 1445.5 Q718 1480 840 1480 Q959 1480 1058.5 1447 Q1158 1414 1230 1355 Q1302 1296 1344 1214 Q1386 1132 1389 1033 L1104 1033 Q1097 1078 1074 1115.5 Q1051 1153 1015 1179.5 Q979 1206 931.5 1220.5 Q884 1235 828 1235 Q775 1235 729.5 1222 Q684 1209 650.5 1185.5 Q617 1162 598 1129.5 Q579 1097 579 1059 Q579 999 624.5 954 Q670 909 773 877 L921 831 Q1013 802 1080 764.5 Q1147 727 1191 679 Q1235 631 1256 571.5 Q1277 512 1277 439 Q1277 332 1233.5 244 Q1190 156 1111 93.5 Q1032 31 921.5 -3 Q811 -37 677 -37 Q554 -37 452 -6 Q350 25 275.5 82.5 Q201 140 157.5 223.5 Q114 307 107 412 L399 412 Z " />
<glyph glyph-name="Sdotbelow" unicode="&#x1e62;" horiz-adv-x="1362" d="M631 -419 Q595 -419 566 -408.5 Q537 -398 516.5 -379.5 Q496 -361 485 -335 Q474 -309 474 -279 Q474 -249 485 -223.5 Q496 -198 516.5 -179.5 Q537 -161 566 -150.5 Q595 -140 631 -140 Q666 -140 695 -150.5 Q724 -161 744.5 -179.5 Q765 -198 776.5 -223.5 Q788 -249 788 -279 Q788 -309 776.5 -335 Q765 -361 744.5 -379.5 Q724 -398 695 -408.5 Q666 -419 631 -419 Z M399 412 Q407 365 433 327.5 Q459 290 498.5 263.5 Q538 237 589 222.5 Q640 208 699 208 Q760 208 810.5 221.5 Q861 235 897 260 Q933 285 953 320 Q973 355 973 397 Q973 428 961 454 Q949 480 923.5 502.5 Q898 525 856.5 544.5 Q815 564 757 582 L607 629 Q527 654 464.5 692.5 Q402 731 359.5 781 Q317 831 294.5 892 Q272 953 272 1023 Q272 1122 315 1206 Q358 1290 434 1350.5 Q510 1411 614 1445.5 Q718 1480 840 1480 Q959 1480 1058.5 1447 Q1158 1414 1230 1355 Q1302 1296 1344 1214 Q1386 1132 1389 1033 L1104 1033 Q1097 1078 1074 1115.5 Q1051 1153 1015 1179.5 Q979 1206 931.5 1220.5 Q884 1235 828 1235 Q775 1235 729.5 1222 Q684 1209 650.5 1185.5 Q617 1162 598 1129.5 Q579 1097 579 1059 Q579 999 624.5 954 Q670 909 773 877 L921 831 Q1013 802 1080 764.5 Q1147 727 1191 679 Q1235 631 1256 571.5 Q1277 512 1277 439 Q1277 332 1233.5 244 Q1190 156 1111 93.5 Q1032 31 921.5 -3 Q811 -37 677 -37 Q554 -37 452 -6 Q350 25 275.5 82.5 Q201 140 157.5 223.5 Q114 307 107 412 L399 412 Z " />
<glyph glyph-name="Scommaaccent" unicode="&#x218;" horiz-adv-x="1362" d="M399 412 Q407 365 433 327.5 Q459 290 498.5 263.5 Q538 237 589 222.5 Q640 208 699 208 Q760 208 810.5 221.5 Q861 235 897 260 Q933 285 953 320 Q973 355 973 397 Q973 428 961 454 Q949 480 923.5 502.5 Q898 525 856.5 544.5 Q815 564 757 582 L607 629 Q527 654 464.5 692.5 Q402 731 359.5 781 Q317 831 294.5 892 Q272 953 272 1023 Q272 1122 315 1206 Q358 1290 434 1350.5 Q510 1411 614 1445.5 Q718 1480 840 1480 Q959 1480 1058.5 1447 Q1158 1414 1230 1355 Q1302 1296 1344 1214 Q1386 1132 1389 1033 L1104 1033 Q1097 1078 1074 1115.5 Q1051 1153 1015 1179.5 Q979 1206 931.5 1220.5 Q884 1235 828 1235 Q775 1235 729.5 1222 Q684 1209 650.5 1185.5 Q617 1162 598 1129.5 Q579 1097 579 1059 Q579 999 624.5 954 Q670 909 773 877 L921 831 Q1013 802 1080 764.5 Q1147 727 1191 679 Q1235 631 1256 571.5 Q1277 512 1277 439 Q1277 332 1233.5 244 Q1190 156 1111 93.5 Q1032 31 921.5 -3 Q811 -37 677 -37 Q554 -37 452 -6 Q350 25 275.5 82.5 Q201 140 157.5 223.5 Q114 307 107 412 L399 412 Z M359 -509 L531 -151 L823 -151 L617 -509 L359 -509 Z " />
<glyph glyph-name="Sdotbelowdotaccent" unicode="&#x1e68;" horiz-adv-x="1362" d="M631 -419 Q595 -419 566 -408.5 Q537 -398 516.5 -379.5 Q496 -361 485 -335 Q474 -309 474 -279 Q474 -249 485 -223.5 Q496 -198 516.5 -179.5 Q537 -161 566 -150.5 Q595 -140 631 -140 Q666 -140 695 -150.5 Q724 -161 744.5 -179.5 Q765 -198 776.5 -223.5 Q788 -249 788 -279 Q788 -309 776.5 -335 Q765 -361 744.5 -379.5 Q724 -398 695 -408.5 Q666 -419 631 -419 Z M399 412 Q407 365 433 327.5 Q459 290 498.5 263.5 Q538 237 589 222.5 Q640 208 699 208 Q760 208 810.5 221.5 Q861 235 897 260 Q933 285 953 320 Q973 355 973 397 Q973 428 961 454 Q949 480 923.5 502.5 Q898 525 856.5 544.5 Q815 564 757 582 L607 629 Q527 654 464.5 692.5 Q402 731 359.5 781 Q317 831 294.5 892 Q272 953 272 1023 Q272 1122 315 1206 Q358 1290 434 1350.5 Q510 1411 614 1445.5 Q718 1480 840 1480 Q959 1480 1058.5 1447 Q1158 1414 1230 1355 Q1302 1296 1344 1214 Q1386 1132 1389 1033 L1104 1033 Q1097 1078 1074 1115.5 Q1051 1153 1015 1179.5 Q979 1206 931.5 1220.5 Q884 1235 828 1235 Q775 1235 729.5 1222 Q684 1209 650.5 1185.5 Q617 1162 598 1129.5 Q579 1097 579 1059 Q579 999 624.5 954 Q670 909 773 877 L921 831 Q1013 802 1080 764.5 Q1147 727 1191 679 Q1235 631 1256 571.5 Q1277 512 1277 439 Q1277 332 1233.5 244 Q1190 156 1111 93.5 Q1032 31 921.5 -3 Q811 -37 677 -37 Q554 -37 452 -6 Q350 25 275.5 82.5 Q201 140 157.5 223.5 Q114 307 107 412 L399 412 Z M921 1579 Q886 1579 857 1591 Q828 1603 807 1624 Q786 1645 774.5 1674 Q763 1703 763 1737 Q763 1771 774.5 1800 Q786 1829 807 1850 Q828 1871 857 1883 Q886 1895 921 1895 Q955 1895 984 1883 Q1013 1871 1034 1850 Q1055 1829 1066.5 1800 Q1078 1771 1078 1737 Q1078 1703 1066.5 1674 Q1055 1645 1034 1624 Q1013 1603 984 1591 Q955 1579 921 1579 Z " />
<glyph glyph-name="Scarondotaccent" unicode="&#x1e66;" horiz-adv-x="1362" d="M987 1913 Q953 1913 924.5 1924.5 Q896 1936 875 1956 Q854 1976 842.5 2003 Q831 2030 831 2062 Q831 2094 842.5 2121 Q854 2148 875 2168 Q896 2188 924.5 2199.5 Q953 2211 987 2211 Q1021 2211 1049.5 2199.5 Q1078 2188 1099 2168 Q1120 2148 1131.5 2121 Q1143 2094 1143 2062 Q1143 2030 1131.5 2003 Q1120 1976 1099 1956 Q1078 1936 1049.5 1924.5 Q1021 1913 987 1913 Z M524 1843 L794 1843 L901 1692 L919 1692 L1095 1843 L1393 1843 L1064 1579 L730 1579 L524 1843 Z M399 412 Q407 365 433 327.5 Q459 290 498.5 263.5 Q538 237 589 222.5 Q640 208 699 208 Q760 208 810.5 221.5 Q861 235 897 260 Q933 285 953 320 Q973 355 973 397 Q973 428 961 454 Q949 480 923.5 502.5 Q898 525 856.5 544.5 Q815 564 757 582 L607 629 Q527 654 464.5 692.5 Q402 731 359.5 781 Q317 831 294.5 892 Q272 953 272 1023 Q272 1122 315 1206 Q358 1290 434 1350.5 Q510 1411 614 1445.5 Q718 1480 840 1480 Q959 1480 1058.5 1447 Q1158 1414 1230 1355 Q1302 1296 1344 1214 Q1386 1132 1389 1033 L1104 1033 Q1097 1078 1074 1115.5 Q1051 1153 1015 1179.5 Q979 1206 931.5 1220.5 Q884 1235 828 1235 Q775 1235 729.5 1222 Q684 1209 650.5 1185.5 Q617 1162 598 1129.5 Q579 1097 579 1059 Q579 999 624.5 954 Q670 909 773 877 L921 831 Q1013 802 1080 764.5 Q1147 727 1191 679 Q1235 631 1256 571.5 Q1277 512 1277 439 Q1277 332 1233.5 244 Q1190 156 1111 93.5 Q1032 31 921.5 -3 Q811 -37 677 -37 Q554 -37 452 -6 Q350 25 275.5 82.5 Q201 140 157.5 223.5 Q114 307 107 412 L399 412 Z " />
<glyph glyph-name="Scircumflex" unicode="&#x15c;" horiz-adv-x="1362" d="M399 412 Q407 365 433 327.5 Q459 290 498.5 263.5 Q538 237 589 222.5 Q640 208 699 208 Q760 208 810.5 221.5 Q861 235 897 260 Q933 285 953 320 Q973 355 973 397 Q973 428 961 454 Q949 480 923.5 502.5 Q898 525 856.5 544.5 Q815 564 757 582 L607 629 Q527 654 464.5 692.5 Q402 731 359.5 781 Q317 831 294.5 892 Q272 953 272 1023 Q272 1122 315 1206 Q358 1290 434 1350.5 Q510 1411 614 1445.5 Q718 1480 840 1480 Q959 1480 1058.5 1447 Q1158 1414 1230 1355 Q1302 1296 1344 1214 Q1386 1132 1389 1033 L1104 1033 Q1097 1078 1074 1115.5 Q1051 1153 1015 1179.5 Q979 1206 931.5 1220.5 Q884 1235 828 1235 Q775 1235 729.5 1222 Q684 1209 650.5 1185.5 Q617 1162 598 1129.5 Q579 1097 579 1059 Q579 999 624.5 954 Q670 909 773 877 L921 831 Q1013 802 1080 764.5 Q1147 727 1191 679 Q1235 631 1256 571.5 Q1277 512 1277 439 Q1277 332 1233.5 244 Q1190 156 1111 93.5 Q1032 31 921.5 -3 Q811 -37 677 -37 Q554 -37 452 -6 Q350 25 275.5 82.5 Q201 140 157.5 223.5 Q114 307 107 412 L399 412 Z M1278 1590 L1029 1590 L937 1781 L919 1781 L747 1590 L472 1590 L800 1925 L1091 1925 L1278 1590 Z " />
<glyph glyph-name="Sacutedotaccent" unicode="&#x1e64;" horiz-adv-x="1362" d="M1258 1908 L1573 1908 L1192 1590 L915 1590 L1258 1908 Z M716 1607 Q681 1607 652 1619 Q623 1631 602 1652 Q581 1673 569.5 1702 Q558 1731 558 1765 Q558 1799 569.5 1828 Q581 1857 602 1878 Q623 1899 652 1911 Q681 1923 716 1923 Q750 1923 779 1911 Q808 1899 829 1878 Q850 1857 861.5 1828 Q873 1799 873 1765 Q873 1731 861.5 1702 Q850 1673 829 1652 Q808 1631 779 1619 Q750 1607 716 1607 Z M399 412 Q407 365 433 327.5 Q459 290 498.5 263.5 Q538 237 589 222.5 Q640 208 699 208 Q760 208 810.5 221.5 Q861 235 897 260 Q933 285 953 320 Q973 355 973 397 Q973 428 961 454 Q949 480 923.5 502.5 Q898 525 856.5 544.5 Q815 564 757 582 L607 629 Q527 654 464.5 692.5 Q402 731 359.5 781 Q317 831 294.5 892 Q272 953 272 1023 Q272 1122 315 1206 Q358 1290 434 1350.5 Q510 1411 614 1445.5 Q718 1480 840 1480 Q959 1480 1058.5 1447 Q1158 1414 1230 1355 Q1302 1296 1344 1214 Q1386 1132 1389 1033 L1104 1033 Q1097 1078 1074 1115.5 Q1051 1153 1015 1179.5 Q979 1206 931.5 1220.5 Q884 1235 828 1235 Q775 1235 729.5 1222 Q684 1209 650.5 1185.5 Q617 1162 598 1129.5 Q579 1097 579 1059 Q579 999 624.5 954 Q670 909 773 877 L921 831 Q1013 802 1080 764.5 Q1147 727 1191 679 Q1235 631 1256 571.5 Q1277 512 1277 439 Q1277 332 1233.5 244 Q1190 156 1111 93.5 Q1032 31 921.5 -3 Q811 -37 677 -37 Q554 -37 452 -6 Q350 25 275.5 82.5 Q201 140 157.5 223.5 Q114 307 107 412 L399 412 Z " />
<glyph glyph-name="Sacute" unicode="&#x15a;" horiz-adv-x="1362" d="M1083 1908 L1398 1908 L1017 1590 L740 1590 L1083 1908 Z M399 412 Q407 365 433 327.5 Q459 290 498.5 263.5 Q538 237 589 222.5 Q640 208 699 208 Q760 208 810.5 221.5 Q861 235 897 260 Q933 285 953 320 Q973 355 973 397 Q973 428 961 454 Q949 480 923.5 502.5 Q898 525 856.5 544.5 Q815 564 757 582 L607 629 Q527 654 464.5 692.5 Q402 731 359.5 781 Q317 831 294.5 892 Q272 953 272 1023 Q272 1122 315 1206 Q358 1290 434 1350.5 Q510 1411 614 1445.5 Q718 1480 840 1480 Q959 1480 1058.5 1447 Q1158 1414 1230 1355 Q1302 1296 1344 1214 Q1386 1132 1389 1033 L1104 1033 Q1097 1078 1074 1115.5 Q1051 1153 1015 1179.5 Q979 1206 931.5 1220.5 Q884 1235 828 1235 Q775 1235 729.5 1222 Q684 1209 650.5 1185.5 Q617 1162 598 1129.5 Q579 1097 579 1059 Q579 999 624.5 954 Q670 909 773 877 L921 831 Q1013 802 1080 764.5 Q1147 727 1191 679 Q1235 631 1256 571.5 Q1277 512 1277 439 Q1277 332 1233.5 244 Q1190 156 1111 93.5 Q1032 31 921.5 -3 Q811 -37 677 -37 Q554 -37 452 -6 Q350 25 275.5 82.5 Q201 140 157.5 223.5 Q114 307 107 412 L399 412 Z " />
<glyph glyph-name="T" unicode="T" horiz-adv-x="1349" d="M448 0 L702 1185 L270 1185 L323 1443 L1491 1443 L1438 1185 L1006 1185 L752 0 L448 0 Z " />
<glyph glyph-name="Tcircumflexbelow" unicode="&#x1e70;" horiz-adv-x="1352" d="M448 0 L702 1185 L270 1185 L323 1443 L1491 1443 L1438 1185 L1006 1185 L752 0 L448 0 Z M921 -432 L657 -432 L554 -273 L536 -273 L359 -432 L78 -432 L407 -152 L723 -152 L921 -432 Z " />
<glyph glyph-name="Tdotbelow" unicode="&#x1e6c;" horiz-adv-x="1352" d="M542 -419 Q506 -419 477 -408.5 Q448 -398 427.5 -379.5 Q407 -361 396 -335 Q385 -309 385 -279 Q385 -249 396 -223.5 Q407 -198 427.5 -179.5 Q448 -161 477 -150.5 Q506 -140 542 -140 Q577 -140 606 -150.5 Q635 -161 655.5 -179.5 Q676 -198 687.5 -223.5 Q699 -249 699 -279 Q699 -309 687.5 -335 Q676 -361 655.5 -379.5 Q635 -398 606 -408.5 Q577 -419 542 -419 Z M448 0 L702 1185 L270 1185 L323 1443 L1491 1443 L1438 1185 L1006 1185 L752 0 L448 0 Z " />
<glyph glyph-name="Tcommaaccent" unicode="&#x21a;" horiz-adv-x="1352" d="M270 -509 L442 -151 L734 -151 L528 -509 L270 -509 Z M448 0 L702 1185 L270 1185 L323 1443 L1491 1443 L1438 1185 L1006 1185 L752 0 L448 0 Z " />
<glyph glyph-name="Tdotaccent" unicode="&#x1e6a;" horiz-adv-x="1352" d="M975 1579 Q940 1579 911 1591 Q882 1603 861 1624 Q840 1645 828.5 1674 Q817 1703 817 1737 Q817 1771 828.5 1800 Q840 1829 861 1850 Q882 1871 911 1883 Q940 1895 975 1895 Q1009 1895 1038 1883 Q1067 1871 1088 1850 Q1109 1829 1120.5 1800 Q1132 1771 1132 1737 Q1132 1703 1120.5 1674 Q1109 1645 1088 1624 Q1067 1603 1038 1591 Q1009 1579 975 1579 Z M448 0 L702 1185 L270 1185 L323 1443 L1491 1443 L1438 1185 L1006 1185 L752 0 L448 0 Z " />
<glyph glyph-name="Tcedilla" unicode="&#x162;" horiz-adv-x="1352" d="M1491 1443 L1438 1185 L1006 1185 L752 0 L694 0 L616 -120 Q775 -146 775 -284 Q775 -332 756 -371 Q737 -410 702.5 -438 Q668 -466 619.5 -481 Q571 -496 512 -496 Q463 -496 412.5 -486.5 Q362 -477 326 -460 L354 -327 Q367 -333 385 -337.5 Q403 -342 422 -346 Q441 -350 460 -352 Q479 -354 496 -354 Q540 -354 564 -339 Q588 -324 588 -296 Q588 -235 472 -235 L415 -235 L432 -119 L510 0 L448 0 L702 1185 L270 1185 L323 1443 L1491 1443 Z " />
<glyph glyph-name="Tlinebelow" unicode="&#x1e6e;" horiz-adv-x="1352" d="M145 -401 L182 -220 L928 -220 L890 -401 L145 -401 Z M448 0 L702 1185 L270 1185 L323 1443 L1491 1443 L1438 1185 L1006 1185 L752 0 L448 0 Z " />
<glyph glyph-name="Tcaron" unicode="&#x164;" horiz-adv-x="1352" d="M621 1925 L871 1925 L963 1734 L981 1734 L1153 1925 L1428 1925 L1100 1590 L809 1590 L621 1925 Z M448 0 L702 1185 L270 1185 L323 1443 L1491 1443 L1438 1185 L1006 1185 L752 0 L448 0 Z " />
<glyph glyph-name="Tbar" unicode="&#x166;" horiz-adv-x="1352" d="M1006 1185 L924 801 L1207 801 L1162 583 L877 583 L752 0 L448 0 L573 583 L293 583 L338 801 L620 801 L702 1185 L270 1185 L323 1443 L1491 1443 L1438 1185 L1006 1185 Z " />
<glyph glyph-name="U" unicode="U" horiz-adv-x="1564" d="M776 -37 Q643 -37 538 -2 Q433 33 360.5 96 Q288 159 249 245 Q210 331 210 433 Q210 463 213 495 Q216 527 223 559 L410 1443 L715 1443 L529 566 Q517 510 518 464 Q520 356 592.5 295 Q665 234 794 234 Q857 234 911 252.5 Q965 271 1007.5 306.5 Q1050 342 1079.5 394 Q1109 446 1124 513 L1322 1443 L1626 1443 L1415 446 Q1391 332 1336.5 242.5 Q1282 153 1200.5 91 Q1119 29 1012 -4 Q905 -37 776 -37 Z " />
<glyph glyph-name="Ugrave" unicode="&#xd9;" horiz-adv-x="1564" d="M1182 1590 L916 1590 L699 1908 L1005 1908 L1182 1590 Z M776 -37 Q643 -37 538 -2 Q433 33 360.5 96 Q288 159 249 245 Q210 331 210 433 Q210 463 213 495 Q216 527 223 559 L410 1443 L715 1443 L529 566 Q517 510 518 464 Q520 356 592.5 295 Q665 234 794 234 Q857 234 911 252.5 Q965 271 1007.5 306.5 Q1050 342 1079.5 394 Q1109 446 1124 513 L1322 1443 L1626 1443 L1415 446 Q1391 332 1336.5 242.5 Q1282 153 1200.5 91 Q1119 29 1012 -4 Q905 -37 776 -37 Z " />
<glyph glyph-name="Udblgrave" unicode="&#x214;" horiz-adv-x="1564" d="M765 1590 L586 1908 L857 1908 L1010 1590 L765 1590 Z M1203 1590 L1024 1908 L1294 1908 L1447 1590 L1203 1590 Z M776 -37 Q643 -37 538 -2 Q433 33 360.5 96 Q288 159 249 245 Q210 331 210 433 Q210 463 213 495 Q216 527 223 559 L410 1443 L715 1443 L529 566 Q517 510 518 464 Q520 356 592.5 295 Q665 234 794 234 Q857 234 911 252.5 Q965 271 1007.5 306.5 Q1050 342 1079.5 394 Q1109 446 1124 513 L1322 1443 L1626 1443 L1415 446 Q1391 332 1336.5 242.5 Q1282 153 1200.5 91 Q1119 29 1012 -4 Q905 -37 776 -37 Z " />
<glyph glyph-name="Uacute" unicode="&#xda;" horiz-adv-x="1564" d="M1241 1908 L1556 1908 L1175 1590 L898 1590 L1241 1908 Z M776 -37 Q643 -37 538 -2 Q433 33 360.5 96 Q288 159 249 245 Q210 331 210 433 Q210 463 213 495 Q216 527 223 559 L410 1443 L715 1443 L529 566 Q517 510 518 464 Q520 356 592.5 295 Q665 234 794 234 Q857 234 911 252.5 Q965 271 1007.5 306.5 Q1050 342 1079.5 394 Q1109 446 1124 513 L1322 1443 L1626 1443 L1415 446 Q1391 332 1336.5 242.5 Q1282 153 1200.5 91 Q1119 29 1012 -4 Q905 -37 776 -37 Z " />
<glyph glyph-name="Uhungarumlaut" unicode="&#x170;" horiz-adv-x="1564" d="M776 -37 Q643 -37 538 -2 Q433 33 360.5 96 Q288 159 249 245 Q210 331 210 433 Q210 463 213 495 Q216 527 223 559 L410 1443 L715 1443 L529 566 Q517 510 518 464 Q520 356 592.5 295 Q665 234 794 234 Q857 234 911 252.5 Q965 271 1007.5 306.5 Q1050 342 1079.5 394 Q1109 446 1124 513 L1322 1443 L1626 1443 L1415 446 Q1391 332 1336.5 242.5 Q1282 153 1200.5 91 Q1119 29 1012 -4 Q905 -37 776 -37 Z M1402 1908 L1672 1908 L1327 1590 L1083 1590 L1402 1908 Z M965 1908 L1235 1908 L890 1590 L646 1590 L965 1908 Z " />
<glyph glyph-name="Ucircumflex" unicode="&#xdb;" horiz-adv-x="1564" d="M1436 1590 L1187 1590 L1095 1781 L1077 1781 L905 1590 L630 1590 L958 1925 L1249 1925 L1436 1590 Z M776 -37 Q643 -37 538 -2 Q433 33 360.5 96 Q288 159 249 245 Q210 331 210 433 Q210 463 213 495 Q216 527 223 559 L410 1443 L715 1443 L529 566 Q517 510 518 464 Q520 356 592.5 295 Q665 234 794 234 Q857 234 911 252.5 Q965 271 1007.5 306.5 Q1050 342 1079.5 394 Q1109 446 1124 513 L1322 1443 L1626 1443 L1415 446 Q1391 332 1336.5 242.5 Q1282 153 1200.5 91 Q1119 29 1012 -4 Q905 -37 776 -37 Z " />
<glyph glyph-name="Ucaron" unicode="&#x1d3;" horiz-adv-x="1564" d="M725 1925 L975 1925 L1067 1734 L1085 1734 L1257 1925 L1532 1925 L1204 1590 L913 1590 L725 1925 Z M776 -37 Q643 -37 538 -2 Q433 33 360.5 96 Q288 159 249 245 Q210 331 210 433 Q210 463 213 495 Q216 527 223 559 L410 1443 L715 1443 L529 566 Q517 510 518 464 Q520 356 592.5 295 Q665 234 794 234 Q857 234 911 252.5 Q965 271 1007.5 306.5 Q1050 342 1079.5 394 Q1109 446 1124 513 L1322 1443 L1626 1443 L1415 446 Q1391 332 1336.5 242.5 Q1282 153 1200.5 91 Q1119 29 1012 -4 Q905 -37 776 -37 Z " />
<glyph glyph-name="Ucircumflexbelow" unicode="&#x1e76;" horiz-adv-x="1564" d="M776 -37 Q643 -37 538 -2 Q433 33 360.5 96 Q288 159 249 245 Q210 331 210 433 Q210 463 213 495 Q216 527 223 559 L410 1443 L715 1443 L529 566 Q517 510 518 464 Q520 356 592.5 295 Q665 234 794 234 Q857 234 911 252.5 Q965 271 1007.5 306.5 Q1050 342 1079.5 394 Q1109 446 1124 513 L1322 1443 L1626 1443 L1415 446 Q1391 332 1336.5 242.5 Q1282 153 1200.5 91 Q1119 29 1012 -4 Q905 -37 776 -37 Z M1068 -432 L804 -432 L701 -273 L683 -273 L506 -432 L225 -432 L554 -152 L870 -152 L1068 -432 Z " />
<glyph glyph-name="Udieresis" unicode="&#xdc;" horiz-adv-x="1564" d="M842 1579 Q808 1579 779.5 1590.5 Q751 1602 730 1622 Q709 1642 697.5 1670 Q686 1698 686 1731 Q686 1764 697.5 1791.5 Q709 1819 730 1839.5 Q751 1860 779.5 1871 Q808 1882 842 1882 Q875 1882 903.5 1871 Q932 1860 953 1839.5 Q974 1819 985.5 1791.5 Q997 1764 997 1731 Q997 1698 985.5 1670 Q974 1642 953 1622 Q932 1602 903.5 1590.5 Q875 1579 842 1579 Z M1309 1579 Q1276 1579 1247.5 1590.5 Q1219 1602 1198 1622 Q1177 1642 1165.5 1670 Q1154 1698 1154 1731 Q1154 1764 1165.5 1791.5 Q1177 1819 1198 1839.5 Q1219 1860 1247.5 1871 Q1276 1882 1309 1882 Q1343 1882 1371.5 1871 Q1400 1860 1421 1839.5 Q1442 1819 1453.5 1791.5 Q1465 1764 1465 1731 Q1465 1698 1453.5 1670 Q1442 1642 1421 1622 Q1400 1602 1371.5 1590.5 Q1343 1579 1309 1579 Z M776 -37 Q643 -37 538 -2 Q433 33 360.5 96 Q288 159 249 245 Q210 331 210 433 Q210 463 213 495 Q216 527 223 559 L410 1443 L715 1443 L529 566 Q517 510 518 464 Q520 356 592.5 295 Q665 234 794 234 Q857 234 911 252.5 Q965 271 1007.5 306.5 Q1050 342 1079.5 394 Q1109 446 1124 513 L1322 1443 L1626 1443 L1415 446 Q1391 332 1336.5 242.5 Q1282 153 1200.5 91 Q1119 29 1012 -4 Q905 -37 776 -37 Z " />
<glyph glyph-name="Udieresisgrave" unicode="&#x1db;" horiz-adv-x="1564" d="M965 1937 L798 2179 L1090 2179 L1205 1937 L965 1937 Z M842 1579 Q808 1579 779.5 1590.5 Q751 1602 730 1622 Q709 1642 697.5 1670 Q686 1698 686 1731 Q686 1764 697.5 1791.5 Q709 1819 730 1839.5 Q751 1860 779.5 1871 Q808 1882 842 1882 Q875 1882 903.5 1871 Q932 1860 953 1839.5 Q974 1819 985.5 1791.5 Q997 1764 997 1731 Q997 1698 985.5 1670 Q974 1642 953 1622 Q932 1602 903.5 1590.5 Q875 1579 842 1579 Z M1309 1579 Q1276 1579 1247.5 1590.5 Q1219 1602 1198 1622 Q1177 1642 1165.5 1670 Q1154 1698 1154 1731 Q1154 1764 1165.5 1791.5 Q1177 1819 1198 1839.5 Q1219 1860 1247.5 1871 Q1276 1882 1309 1882 Q1343 1882 1371.5 1871 Q1400 1860 1421 1839.5 Q1442 1819 1453.5 1791.5 Q1465 1764 1465 1731 Q1465 1698 1453.5 1670 Q1442 1642 1421 1622 Q1400 1602 1371.5 1590.5 Q1343 1579 1309 1579 Z M776 -37 Q643 -37 538 -2 Q433 33 360.5 96 Q288 159 249 245 Q210 331 210 433 Q210 463 213 495 Q216 527 223 559 L410 1443 L715 1443 L529 566 Q517 510 518 464 Q520 356 592.5 295 Q665 234 794 234 Q857 234 911 252.5 Q965 271 1007.5 306.5 Q1050 342 1079.5 394 Q1109 446 1124 513 L1322 1443 L1626 1443 L1415 446 Q1391 332 1336.5 242.5 Q1282 153 1200.5 91 Q1119 29 1012 -4 Q905 -37 776 -37 Z " />
<glyph glyph-name="Udieresisacute" unicode="&#x1d7;" horiz-adv-x="1564" d="M1178 2179 L1470 2179 L1201 1937 L961 1937 L1178 2179 Z M842 1579 Q808 1579 779.5 1590.5 Q751 1602 730 1622 Q709 1642 697.5 1670 Q686 1698 686 1731 Q686 1764 697.5 1791.5 Q709 1819 730 1839.5 Q751 1860 779.5 1871 Q808 1882 842 1882 Q875 1882 903.5 1871 Q932 1860 953 1839.5 Q974 1819 985.5 1791.5 Q997 1764 997 1731 Q997 1698 985.5 1670 Q974 1642 953 1622 Q932 1602 903.5 1590.5 Q875 1579 842 1579 Z M1309 1579 Q1276 1579 1247.5 1590.5 Q1219 1602 1198 1622 Q1177 1642 1165.5 1670 Q1154 1698 1154 1731 Q1154 1764 1165.5 1791.5 Q1177 1819 1198 1839.5 Q1219 1860 1247.5 1871 Q1276 1882 1309 1882 Q1343 1882 1371.5 1871 Q1400 1860 1421 1839.5 Q1442 1819 1453.5 1791.5 Q1465 1764 1465 1731 Q1465 1698 1453.5 1670 Q1442 1642 1421 1622 Q1400 1602 1371.5 1590.5 Q1343 1579 1309 1579 Z M776 -37 Q643 -37 538 -2 Q433 33 360.5 96 Q288 159 249 245 Q210 331 210 433 Q210 463 213 495 Q216 527 223 559 L410 1443 L715 1443 L529 566 Q517 510 518 464 Q520 356 592.5 295 Q665 234 794 234 Q857 234 911 252.5 Q965 271 1007.5 306.5 Q1050 342 1079.5 394 Q1109 446 1124 513 L1322 1443 L1626 1443 L1415 446 Q1391 332 1336.5 242.5 Q1282 153 1200.5 91 Q1119 29 1012 -4 Q905 -37 776 -37 Z " />
<glyph glyph-name="Udieresismacron" unicode="&#x1d5;" horiz-adv-x="1564" d="M776 -37 Q643 -37 538 -2 Q433 33 360.5 96 Q288 159 249 245 Q210 331 210 433 Q210 463 213 495 Q216 527 223 559 L410 1443 L715 1443 L529 566 Q517 510 518 464 Q520 356 592.5 295 Q665 234 794 234 Q857 234 911 252.5 Q965 271 1007.5 306.5 Q1050 342 1079.5 394 Q1109 446 1124 513 L1322 1443 L1626 1443 L1415 446 Q1391 332 1336.5 242.5 Q1282 153 1200.5 91 Q1119 29 1012 -4 Q905 -37 776 -37 Z M794 2164 L1539 2164 L1503 1996 L758 1996 L794 2164 Z M842 1579 Q809 1579 780.5 1590 Q752 1601 731.5 1621 Q711 1641 699.5 1668.5 Q688 1696 688 1729 Q688 1762 699.5 1789.5 Q711 1817 731.5 1837 Q752 1857 780.5 1868 Q809 1879 842 1879 Q875 1879 903.5 1868 Q932 1857 952 1837 Q972 1817 983.5 1789.5 Q995 1762 995 1729 Q995 1696 983.5 1668.5 Q972 1641 952 1621 Q932 1601 903.5 1590 Q875 1579 842 1579 Z M1310 1579 Q1277 1579 1249 1590 Q1221 1601 1200.5 1621 Q1180 1641 1168.5 1668.5 Q1157 1696 1157 1729 Q1157 1762 1168.5 1789.5 Q1180 1817 1200.5 1837 Q1221 1857 1249 1868 Q1277 1879 1310 1879 Q1343 1879 1371.5 1868 Q1400 1857 1420.5 1837 Q1441 1817 1452.5 1789.5 Q1464 1762 1464 1729 Q1464 1696 1452.5 1668.5 Q1441 1641 1420.5 1621 Q1400 1601 1371.5 1590 Q1343 1579 1310 1579 Z " />
<glyph glyph-name="Udieresiscaron" unicode="&#x1d9;" horiz-adv-x="1564" d="M837 1564 Q804 1564 776 1575 Q748 1586 727.5 1605.5 Q707 1625 696 1651.5 Q685 1678 685 1709 Q685 1740 696 1766 Q707 1792 727.5 1811.5 Q748 1831 776 1842 Q804 1853 837 1853 Q870 1853 897.5 1842 Q925 1831 945.5 1811.5 Q966 1792 977 1766 Q988 1740 988 1709 Q988 1678 977 1651.5 Q966 1625 945.5 1605.5 Q925 1586 897.5 1575 Q870 1564 837 1564 Z M1305 1564 Q1272 1564 1244 1575 Q1216 1586 1195.5 1605.5 Q1175 1625 1164 1651.5 Q1153 1678 1153 1709 Q1153 1740 1164 1766 Q1175 1792 1195.5 1811.5 Q1216 1831 1244 1842 Q1272 1853 1305 1853 Q1338 1853 1365.5 1842 Q1393 1831 1413.5 1811.5 Q1434 1792 1445 1766 Q1456 1740 1456 1709 Q1456 1678 1445 1651.5 Q1434 1625 1413.5 1605.5 Q1393 1586 1365.5 1575 Q1338 1564 1305 1564 Z M761 2210 L1024 2210 L1131 2042 L1149 2042 L1325 2210 L1613 2210 L1269 1910 L978 1910 L761 2210 Z M776 -37 Q643 -37 538 -2 Q433 33 360.5 96 Q288 159 249 245 Q210 331 210 433 Q210 463 213 495 Q216 527 223 559 L410 1443 L715 1443 L529 566 Q517 510 518 464 Q520 356 592.5 295 Q665 234 794 234 Q857 234 911 252.5 Q965 271 1007.5 306.5 Q1050 342 1079.5 394 Q1109 446 1124 513 L1322 1443 L1626 1443 L1415 446 Q1391 332 1336.5 242.5 Q1282 153 1200.5 91 Q1119 29 1012 -4 Q905 -37 776 -37 Z " />
<glyph glyph-name="Udieresisbelow" unicode="&#x1e72;" horiz-adv-x="1564" d="M776 -37 Q643 -37 538 -2 Q433 33 360.5 96 Q288 159 249 245 Q210 331 210 433 Q210 463 213 495 Q216 527 223 559 L410 1443 L715 1443 L529 566 Q517 510 518 464 Q520 356 592.5 295 Q665 234 794 234 Q857 234 911 252.5 Q965 271 1007.5 306.5 Q1050 342 1079.5 394 Q1109 446 1124 513 L1322 1443 L1626 1443 L1415 446 Q1391 332 1336.5 242.5 Q1282 153 1200.5 91 Q1119 29 1012 -4 Q905 -37 776 -37 Z M453 -432 Q417 -432 388 -421.5 Q359 -411 338.5 -392.5 Q318 -374 307 -348.5 Q296 -323 296 -293 Q296 -263 307 -237.5 Q318 -212 338.5 -193.5 Q359 -175 388 -164.5 Q417 -154 453 -154 Q524 -154 566.5 -193 Q609 -232 609 -293 Q609 -354 566.5 -393 Q524 -432 453 -432 Z M920 -432 Q885 -432 856 -421.5 Q827 -411 806.5 -392.5 Q786 -374 774.5 -348.5 Q763 -323 763 -293 Q763 -263 774.5 -237.5 Q786 -212 806.5 -193.5 Q827 -175 856 -164.5 Q885 -154 920 -154 Q956 -154 985 -164.5 Q1014 -175 1034.5 -193.5 Q1055 -212 1066 -237.5 Q1077 -263 1077 -293 Q1077 -323 1066 -348.5 Q1055 -374 1034.5 -392.5 Q1014 -411 985 -421.5 Q956 -432 920 -432 Z " />
<glyph glyph-name="Utildebelow" unicode="&#x1e74;" horiz-adv-x="1564" d="M849 -432 Q809 -432 777 -422 Q745 -412 719 -397 Q693 -382 670.5 -364 Q648 -346 627.5 -331 Q607 -316 586.5 -306 Q566 -296 543 -296 Q508 -296 481.5 -318 Q455 -340 446 -397 L265 -397 Q274 -331 298.5 -280.5 Q323 -230 358 -195.5 Q393 -161 438 -143.5 Q483 -126 534 -126 Q573 -126 605 -136 Q637 -146 663 -161 Q689 -176 711 -193.5 Q733 -211 754 -226 Q775 -241 795.5 -251 Q816 -261 839 -261 Q874 -261 901 -238.5 Q928 -216 937 -155 L1117 -155 Q1108 -223 1084 -274.5 Q1060 -326 1025 -361 Q990 -396 945 -414 Q900 -432 849 -432 Z M776 -37 Q643 -37 538 -2 Q433 33 360.5 96 Q288 159 249 245 Q210 331 210 433 Q210 463 213 495 Q216 527 223 559 L410 1443 L715 1443 L529 566 Q517 510 518 464 Q520 356 592.5 295 Q665 234 794 234 Q857 234 911 252.5 Q965 271 1007.5 306.5 Q1050 342 1079.5 394 Q1109 446 1124 513 L1322 1443 L1626 1443 L1415 446 Q1391 332 1336.5 242.5 Q1282 153 1200.5 91 Q1119 29 1012 -4 Q905 -37 776 -37 Z " />
<glyph glyph-name="Uhookabove" unicode="&#x1ee6;" horiz-adv-x="1564" d="M776 -37 Q643 -37 538 -2 Q433 33 360.5 96 Q288 159 249 245 Q210 331 210 433 Q210 463 213 495 Q216 527 223 559 L410 1443 L715 1443 L529 566 Q517 510 518 464 Q520 356 592.5 295 Q665 234 794 234 Q857 234 911 252.5 Q965 271 1007.5 306.5 Q1050 342 1079.5 394 Q1109 446 1124 513 L1322 1443 L1626 1443 L1415 446 Q1391 332 1336.5 242.5 Q1282 153 1200.5 91 Q1119 29 1012 -4 Q905 -37 776 -37 Z M940 1993 Q964 2000 998 2005 Q1032 2010 1069 2010 Q1118 2010 1162 1996 Q1206 1982 1239 1956.5 Q1272 1931 1291 1895.5 Q1310 1860 1310 1818 Q1310 1771 1292 1729.5 Q1274 1688 1241 1653 Q1208 1618 1160.5 1591 Q1113 1564 1054 1546 L985 1667 Q1042 1682 1079 1713.5 Q1116 1745 1116 1782 Q1116 1814 1086.5 1833.5 Q1057 1853 1009 1853 Q981 1853 953 1849.5 Q925 1846 908 1841 L940 1993 Z " />
<glyph glyph-name="Ubreve" unicode="&#x16c;" horiz-adv-x="1564" d="M776 -37 Q643 -37 538 -2 Q433 33 360.5 96 Q288 159 249 245 Q210 331 210 433 Q210 463 213 495 Q216 527 223 559 L410 1443 L715 1443 L529 566 Q517 510 518 464 Q520 356 592.5 295 Q665 234 794 234 Q857 234 911 252.5 Q965 271 1007.5 306.5 Q1050 342 1079.5 394 Q1109 446 1124 513 L1322 1443 L1626 1443 L1415 446 Q1391 332 1336.5 242.5 Q1282 153 1200.5 91 Q1119 29 1012 -4 Q905 -37 776 -37 Z M680 1884 Q680 1894 680.5 1900.5 Q681 1907 682 1915 L887 1915 L887 1894 Q887 1862 900.5 1836 Q914 1810 938.5 1790.5 Q963 1771 996 1760.5 Q1029 1750 1068 1750 Q1151 1750 1203 1792.5 Q1255 1835 1273 1915 L1478 1915 Q1467 1839 1433 1777 Q1399 1715 1345 1671 Q1291 1627 1219.5 1603 Q1148 1579 1062 1579 Q978 1579 908 1602 Q838 1625 787 1666 Q736 1707 708 1762.5 Q680 1818 680 1884 Z " />
<glyph glyph-name="Uinvertedbreve" unicode="&#x216;" horiz-adv-x="1564" d="M776 -37 Q643 -37 538 -2 Q433 33 360.5 96 Q288 159 249 245 Q210 331 210 433 Q210 463 213 495 Q216 527 223 559 L410 1443 L715 1443 L529 566 Q517 510 518 464 Q520 356 592.5 295 Q665 234 794 234 Q857 234 911 252.5 Q965 271 1007.5 306.5 Q1050 342 1079.5 394 Q1109 446 1124 513 L1322 1443 L1626 1443 L1415 446 Q1391 332 1336.5 242.5 Q1282 153 1200.5 91 Q1119 29 1012 -4 Q905 -37 776 -37 Z M1467 1611 Q1467 1601 1467 1594 Q1467 1587 1465 1579 L1261 1579 L1261 1601 Q1261 1632 1247 1658.5 Q1233 1685 1209 1704.5 Q1185 1724 1152 1734.5 Q1119 1745 1080 1745 Q1000 1745 946 1701.5 Q892 1658 875 1579 L670 1579 Q681 1653 715 1715 Q749 1777 803 1821.5 Q857 1866 928.5 1890.5 Q1000 1915 1086 1915 Q1170 1915 1240 1892 Q1310 1869 1360.5 1828.5 Q1411 1788 1439 1732.5 Q1467 1677 1467 1611 Z " />
<glyph glyph-name="Utildeacute" unicode="&#x1e78;" horiz-adv-x="1564" d="M776 -37 Q643 -37 538 -2 Q433 33 360.5 96 Q288 159 249 245 Q210 331 210 433 Q210 463 213 495 Q216 527 223 559 L410 1443 L715 1443 L529 566 Q517 510 518 464 Q520 356 592.5 295 Q665 234 794 234 Q857 234 911 252.5 Q965 271 1007.5 306.5 Q1050 342 1079.5 394 Q1109 446 1124 513 L1322 1443 L1626 1443 L1415 446 Q1391 332 1336.5 242.5 Q1282 153 1200.5 91 Q1119 29 1012 -4 Q905 -37 776 -37 Z M1197 2179 L1482 2179 L1241 1937 L987 1937 L1197 2179 Z M1222 1577 Q1168 1577 1128.5 1597 Q1089 1617 1057.5 1640.5 Q1026 1664 998.5 1684 Q971 1704 940 1704 Q902 1704 877.5 1682 Q853 1660 843 1609 L662 1609 Q671 1673 695 1723 Q719 1773 755 1807 Q791 1841 835.5 1859 Q880 1877 929 1877 Q983 1877 1022.5 1857.5 Q1062 1838 1093.5 1814 Q1125 1790 1152.5 1770.5 Q1180 1751 1211 1751 Q1249 1751 1273.5 1773 Q1298 1795 1308 1846 L1489 1846 Q1480 1781 1455.5 1731 Q1431 1681 1395.5 1647 Q1360 1613 1315.5 1595 Q1271 1577 1222 1577 Z " />
<glyph glyph-name="Udotbelow" unicode="&#x1ee4;" horiz-adv-x="1564" d="M689 -419 Q653 -419 624 -408.5 Q595 -398 574.5 -379.5 Q554 -361 543 -335 Q532 -309 532 -279 Q532 -249 543 -223.5 Q554 -198 574.5 -179.5 Q595 -161 624 -150.5 Q653 -140 689 -140 Q724 -140 753 -150.5 Q782 -161 802.5 -179.5 Q823 -198 834.5 -223.5 Q846 -249 846 -279 Q846 -309 834.5 -335 Q823 -361 802.5 -379.5 Q782 -398 753 -408.5 Q724 -419 689 -419 Z M776 -37 Q643 -37 538 -2 Q433 33 360.5 96 Q288 159 249 245 Q210 331 210 433 Q210 463 213 495 Q216 527 223 559 L410 1443 L715 1443 L529 566 Q517 510 518 464 Q520 356 592.5 295 Q665 234 794 234 Q857 234 911 252.5 Q965 271 1007.5 306.5 Q1050 342 1079.5 394 Q1109 446 1124 513 L1322 1443 L1626 1443 L1415 446 Q1391 332 1336.5 242.5 Q1282 153 1200.5 91 Q1119 29 1012 -4 Q905 -37 776 -37 Z " />
<glyph glyph-name="Utilde" unicode="&#x168;" horiz-adv-x="1564" d="M776 -37 Q643 -37 538 -2 Q433 33 360.5 96 Q288 159 249 245 Q210 331 210 433 Q210 463 213 495 Q216 527 223 559 L410 1443 L715 1443 L529 566 Q517 510 518 464 Q520 356 592.5 295 Q665 234 794 234 Q857 234 911 252.5 Q965 271 1007.5 306.5 Q1050 342 1079.5 394 Q1109 446 1124 513 L1322 1443 L1626 1443 L1415 446 Q1391 332 1336.5 242.5 Q1282 153 1200.5 91 Q1119 29 1012 -4 Q905 -37 776 -37 Z M1235 1578 Q1174 1578 1131 1600.5 Q1088 1623 1054 1650 Q1020 1677 991.5 1699.5 Q963 1722 930 1722 Q891 1722 866 1697.5 Q841 1673 833 1618 L652 1618 Q661 1683 684.5 1734.5 Q708 1786 743.5 1821.5 Q779 1857 824.5 1876 Q870 1895 921 1895 Q982 1895 1025 1872.5 Q1068 1850 1101.5 1823 Q1135 1796 1164 1773.5 Q1193 1751 1225 1751 Q1265 1751 1290 1775.5 Q1315 1800 1323 1855 L1504 1855 Q1495 1790 1471 1738.5 Q1447 1687 1412 1651.5 Q1377 1616 1331.5 1597 Q1286 1578 1235 1578 Z " />
<glyph glyph-name="Umacron" unicode="&#x16a;" horiz-adv-x="1564" d="M776 -37 Q643 -37 538 -2 Q433 33 360.5 96 Q288 159 249 245 Q210 331 210 433 Q210 463 213 495 Q216 527 223 559 L410 1443 L715 1443 L529 566 Q517 510 518 464 Q520 356 592.5 295 Q665 234 794 234 Q857 234 911 252.5 Q965 271 1007.5 306.5 Q1050 342 1079.5 394 Q1109 446 1124 513 L1322 1443 L1626 1443 L1415 446 Q1391 332 1336.5 242.5 Q1282 153 1200.5 91 Q1119 29 1012 -4 Q905 -37 776 -37 Z M682 1632 L719 1813 L1465 1813 L1427 1632 L682 1632 Z " />
<glyph glyph-name="Umacrondieresis" unicode="&#x1e7a;" horiz-adv-x="1564" d="M715 1789 L1460 1789 L1423 1611 L678 1611 L715 1789 Z M920 1895 Q888 1895 861 1906.5 Q834 1918 814.5 1937.5 Q795 1957 784 1983.5 Q773 2010 773 2040 Q773 2071 784 2097.5 Q795 2124 814.5 2143.5 Q834 2163 861 2174 Q888 2185 920 2185 Q952 2185 979 2174 Q1006 2163 1025.5 2143.5 Q1045 2124 1055.5 2097.5 Q1066 2071 1066 2040 Q1066 2010 1055.5 1983.5 Q1045 1957 1025.5 1937.5 Q1006 1918 979 1906.5 Q952 1895 920 1895 Z M1362 1895 Q1330 1895 1303.5 1906.5 Q1277 1918 1257.5 1937.5 Q1238 1957 1227.5 1983.5 Q1217 2010 1217 2040 Q1217 2071 1227.5 2097.5 Q1238 2124 1257.5 2143.5 Q1277 2163 1303.5 2174 Q1330 2185 1362 2185 Q1394 2185 1421 2174 Q1448 2163 1467.5 2143.5 Q1487 2124 1498 2097.5 Q1509 2071 1509 2040 Q1509 2010 1498 1983.5 Q1487 1957 1467.5 1937.5 Q1448 1918 1421 1906.5 Q1394 1895 1362 1895 Z M776 -37 Q643 -37 538 -2 Q433 33 360.5 96 Q288 159 249 245 Q210 331 210 433 Q210 463 213 495 Q216 527 223 559 L410 1443 L715 1443 L529 566 Q517 510 518 464 Q520 356 592.5 295 Q665 234 794 234 Q857 234 911 252.5 Q965 271 1007.5 306.5 Q1050 342 1079.5 394 Q1109 446 1124 513 L1322 1443 L1626 1443 L1415 446 Q1391 332 1336.5 242.5 Q1282 153 1200.5 91 Q1119 29 1012 -4 Q905 -37 776 -37 Z " />
<glyph glyph-name="Uring" unicode="&#x16e;" horiz-adv-x="1564" d="M1095 1578 Q1042 1578 997 1596 Q952 1614 919 1646.5 Q886 1679 867.5 1723 Q849 1767 849 1819 Q849 1870 867.5 1914 Q886 1958 919 1989.5 Q952 2021 997 2039 Q1042 2057 1095 2057 Q1147 2057 1192 2039 Q1237 2021 1270 1989.5 Q1303 1958 1321.5 1914 Q1340 1870 1340 1819 Q1340 1767 1321.5 1723 Q1303 1679 1270 1646.5 Q1237 1614 1192 1596 Q1147 1578 1095 1578 Z M1094 1714 Q1141 1714 1170.5 1743.5 Q1200 1773 1200 1818 Q1200 1863 1170 1892 Q1140 1921 1094 1921 Q1048 1921 1018.5 1892 Q989 1863 989 1818 Q989 1772 1018.5 1743 Q1048 1714 1094 1714 Z M776 -37 Q643 -37 538 -2 Q433 33 360.5 96 Q288 159 249 245 Q210 331 210 433 Q210 463 213 495 Q216 527 223 559 L410 1443 L715 1443 L529 566 Q517 510 518 464 Q520 356 592.5 295 Q665 234 794 234 Q857 234 911 252.5 Q965 271 1007.5 306.5 Q1050 342 1079.5 394 Q1109 446 1124 513 L1322 1443 L1626 1443 L1415 446 Q1391 332 1336.5 242.5 Q1282 153 1200.5 91 Q1119 29 1012 -4 Q905 -37 776 -37 Z " />
<glyph glyph-name="Uogonek" unicode="&#x172;" horiz-adv-x="1564" d="M952 -458 Q892 -458 844.5 -443.5 Q797 -429 763.5 -402 Q730 -375 712 -336 Q694 -297 694 -249 Q694 -193 728.5 -138.5 Q763 -84 820 -47 L826 -29 Q818 -31 801.5 -31.5 Q785 -32 769 -32 Q643 -31 539.5 2 Q436 35 363 96 Q290 157 250 242.5 Q210 328 210 433 Q210 462 213 494 Q216 526 223 559 L410 1443 L715 1443 L529 566 Q523 540 520.5 514 Q518 488 518 464 Q518 408 538 365.5 Q558 323 594 293.5 Q630 264 681 249 Q732 234 794 234 Q858 234 912 252.5 Q966 271 1008.5 307 Q1051 343 1080.5 395 Q1110 447 1124 513 L1322 1443 L1626 1443 L1415 446 Q1386 310 1315 210.5 Q1244 111 1135 49 Q1090 21 1049.5 -8 Q1009 -37 979 -68 Q949 -99 931 -130.5 Q913 -162 913 -194 Q913 -239 946 -263 Q979 -287 1042 -287 Q1055 -287 1067.5 -286.5 Q1080 -286 1086 -285 L1052 -446 Q1031 -451 1004.5 -454.5 Q978 -458 952 -458 Z " />
<glyph glyph-name="Uhorn" unicode="&#x1af;" horiz-adv-x="1812" d="M2032 1575 L1984 1351 Q1955 1213 1874 1145 Q1793 1077 1678 1077 Q1643 1077 1608 1083 Q1573 1089 1553 1100 L1415 446 Q1391 332 1336.5 242.5 Q1282 153 1200.5 91 Q1119 29 1012 -4 Q905 -37 776 -37 Q643 -37 538 -2 Q433 33 360.5 96 Q288 159 249 245 Q210 331 210 433 Q210 463 213 495 Q216 527 223 559 L410 1443 L715 1443 L529 566 Q517 510 518 464 Q520 356 592.5 295 Q665 234 794 234 Q857 234 911 252.5 Q965 271 1007.5 306.5 Q1050 342 1079.5 394 Q1109 446 1124 513 L1322 1443 L1626 1443 L1597 1307 Q1609 1299 1624.5 1295.5 Q1640 1292 1657 1292 Q1700 1292 1726 1316.5 Q1752 1341 1766 1406 L1802 1575 L2032 1575 Z " />
<glyph glyph-name="Uhorngrave" unicode="&#x1eea;" horiz-adv-x="1812" d="M917 1590 L700 1908 L1006 1908 L1183 1590 L917 1590 Z M2032 1575 L1984 1351 Q1955 1213 1874 1145 Q1793 1077 1678 1077 Q1643 1077 1608 1083 Q1573 1089 1553 1100 L1415 446 Q1391 332 1336.5 242.5 Q1282 153 1200.5 91 Q1119 29 1012 -4 Q905 -37 776 -37 Q643 -37 538 -2 Q433 33 360.5 96 Q288 159 249 245 Q210 331 210 433 Q210 463 213 495 Q216 527 223 559 L410 1443 L715 1443 L529 566 Q517 510 518 464 Q520 356 592.5 295 Q665 234 794 234 Q857 234 911 252.5 Q965 271 1007.5 306.5 Q1050 342 1079.5 394 Q1109 446 1124 513 L1322 1443 L1626 1443 L1597 1307 Q1609 1299 1624.5 1295.5 Q1640 1292 1657 1292 Q1700 1292 1726 1316.5 Q1752 1341 1766 1406 L1802 1575 L2032 1575 Z " />
<glyph glyph-name="Uhornacute" unicode="&#x1ee8;" horiz-adv-x="1812" d="M1176 1590 L899 1590 L1242 1908 L1557 1908 L1176 1590 Z M2032 1575 L1984 1351 Q1955 1213 1874 1145 Q1793 1077 1678 1077 Q1643 1077 1608 1083 Q1573 1089 1553 1100 L1415 446 Q1391 332 1336.5 242.5 Q1282 153 1200.5 91 Q1119 29 1012 -4 Q905 -37 776 -37 Q643 -37 538 -2 Q433 33 360.5 96 Q288 159 249 245 Q210 331 210 433 Q210 463 213 495 Q216 527 223 559 L410 1443 L715 1443 L529 566 Q517 510 518 464 Q520 356 592.5 295 Q665 234 794 234 Q857 234 911 252.5 Q965 271 1007.5 306.5 Q1050 342 1079.5 394 Q1109 446 1124 513 L1322 1443 L1626 1443 L1597 1307 Q1609 1299 1624.5 1295.5 Q1640 1292 1657 1292 Q1700 1292 1726 1316.5 Q1752 1341 1766 1406 L1802 1575 L2032 1575 Z " />
<glyph glyph-name="Uhorndotbelow" unicode="&#x1ef0;" horiz-adv-x="1812" d="M689 -140 Q724 -140 753 -150.5 Q782 -161 802.5 -179.5 Q823 -198 834.5 -223.5 Q846 -249 846 -279 Q846 -309 834.5 -335 Q823 -361 802.5 -379.5 Q782 -398 753 -408.5 Q724 -419 689 -419 Q653 -419 624 -408.5 Q595 -398 574.5 -379.5 Q554 -361 543 -335 Q532 -309 532 -279 Q532 -249 543 -223.5 Q554 -198 574.5 -179.5 Q595 -161 624 -150.5 Q653 -140 689 -140 Z M2032 1575 L1984 1351 Q1955 1213 1874 1145 Q1793 1077 1678 1077 Q1643 1077 1608 1083 Q1573 1089 1553 1100 L1415 446 Q1391 332 1336.5 242.5 Q1282 153 1200.5 91 Q1119 29 1012 -4 Q905 -37 776 -37 Q643 -37 538 -2 Q433 33 360.5 96 Q288 159 249 245 Q210 331 210 433 Q210 463 213 495 Q216 527 223 559 L410 1443 L715 1443 L529 566 Q517 510 518 464 Q520 356 592.5 295 Q665 234 794 234 Q857 234 911 252.5 Q965 271 1007.5 306.5 Q1050 342 1079.5 394 Q1109 446 1124 513 L1322 1443 L1626 1443 L1597 1307 Q1609 1299 1624.5 1295.5 Q1640 1292 1657 1292 Q1700 1292 1726 1316.5 Q1752 1341 1766 1406 L1802 1575 L2032 1575 Z " />
<glyph glyph-name="Uhornhookabove" unicode="&#x1eec;" horiz-adv-x="1812" d="M986 1667 Q1043 1682 1080 1713.5 Q1117 1745 1117 1782 Q1117 1814 1087.5 1833.5 Q1058 1853 1010 1853 Q982 1853 954 1849.5 Q926 1846 909 1841 L941 1993 Q965 2000 999 2005 Q1033 2010 1070 2010 Q1119 2010 1163 1996 Q1207 1982 1240 1956.5 Q1273 1931 1292 1895.5 Q1311 1860 1311 1818 Q1311 1771 1293 1729.5 Q1275 1688 1242 1653 Q1209 1618 1161.5 1591 Q1114 1564 1055 1546 L986 1667 Z M2032 1575 L1984 1351 Q1955 1213 1874 1145 Q1793 1077 1678 1077 Q1643 1077 1608 1083 Q1573 1089 1553 1100 L1415 446 Q1391 332 1336.5 242.5 Q1282 153 1200.5 91 Q1119 29 1012 -4 Q905 -37 776 -37 Q643 -37 538 -2 Q433 33 360.5 96 Q288 159 249 245 Q210 331 210 433 Q210 463 213 495 Q216 527 223 559 L410 1443 L715 1443 L529 566 Q517 510 518 464 Q520 356 592.5 295 Q665 234 794 234 Q857 234 911 252.5 Q965 271 1007.5 306.5 Q1050 342 1079.5 394 Q1109 446 1124 513 L1322 1443 L1626 1443 L1597 1307 Q1609 1299 1624.5 1295.5 Q1640 1292 1657 1292 Q1700 1292 1726 1316.5 Q1752 1341 1766 1406 L1802 1575 L2032 1575 Z " />
<glyph glyph-name="Uhorntilde" unicode="&#x1eee;" horiz-adv-x="1812" d="M1505 1855 Q1496 1790 1472 1738.5 Q1448 1687 1413 1651.5 Q1378 1616 1332.5 1597 Q1287 1578 1236 1578 Q1175 1578 1132 1600.5 Q1089 1623 1055 1650 Q1021 1677 992.5 1699.5 Q964 1722 931 1722 Q892 1722 867 1697.5 Q842 1673 834 1618 L653 1618 Q662 1683 685.5 1734.5 Q709 1786 744.5 1821.5 Q780 1857 825.5 1876 Q871 1895 922 1895 Q983 1895 1026 1872.5 Q1069 1850 1102.5 1823 Q1136 1796 1165 1773.5 Q1194 1751 1226 1751 Q1266 1751 1291 1775.5 Q1316 1800 1324 1855 L1505 1855 Z M2032 1575 L1984 1351 Q1955 1213 1874 1145 Q1793 1077 1678 1077 Q1643 1077 1608 1083 Q1573 1089 1553 1100 L1415 446 Q1391 332 1336.5 242.5 Q1282 153 1200.5 91 Q1119 29 1012 -4 Q905 -37 776 -37 Q643 -37 538 -2 Q433 33 360.5 96 Q288 159 249 245 Q210 331 210 433 Q210 463 213 495 Q216 527 223 559 L410 1443 L715 1443 L529 566 Q517 510 518 464 Q520 356 592.5 295 Q665 234 794 234 Q857 234 911 252.5 Q965 271 1007.5 306.5 Q1050 342 1079.5 394 Q1109 446 1124 513 L1322 1443 L1626 1443 L1597 1307 Q1609 1299 1624.5 1295.5 Q1640 1292 1657 1292 Q1700 1292 1726 1316.5 Q1752 1341 1766 1406 L1802 1575 L2032 1575 Z " />
<glyph glyph-name="V" unicode="V" horiz-adv-x="1477" d="M486 0 L304 1443 L625 1443 L726 342 L744 342 L1298 1443 L1638 1443 L851 0 L486 0 Z " />
<glyph glyph-name="Vtilde" unicode="&#x1e7c;" horiz-adv-x="1477" d="M1187 1578 Q1126 1578 1083 1600.5 Q1040 1623 1006 1650 Q972 1677 943.5 1699.5 Q915 1722 882 1722 Q843 1722 818 1697.5 Q793 1673 785 1618 L604 1618 Q613 1683 636.5 1734.5 Q660 1786 695.5 1821.5 Q731 1857 776.5 1876 Q822 1895 873 1895 Q934 1895 977 1872.5 Q1020 1850 1053.5 1823 Q1087 1796 1116 1773.5 Q1145 1751 1177 1751 Q1217 1751 1242 1775.5 Q1267 1800 1275 1855 L1456 1855 Q1447 1790 1423 1738.5 Q1399 1687 1364 1651.5 Q1329 1616 1283.5 1597 Q1238 1578 1187 1578 Z M486 0 L304 1443 L625 1443 L726 342 L744 342 L1298 1443 L1638 1443 L851 0 L486 0 Z " />
<glyph glyph-name="Vdotbelow" unicode="&#x1e7e;" horiz-adv-x="1477" d="M610 -419 Q574 -419 545 -408.5 Q516 -398 495.5 -379.5 Q475 -361 464 -335 Q453 -309 453 -279 Q453 -249 464 -223.5 Q475 -198 495.5 -179.5 Q516 -161 545 -150.5 Q574 -140 610 -140 Q645 -140 674 -150.5 Q703 -161 723.5 -179.5 Q744 -198 755.5 -223.5 Q767 -249 767 -279 Q767 -309 755.5 -335 Q744 -361 723.5 -379.5 Q703 -398 674 -408.5 Q645 -419 610 -419 Z M486 0 L304 1443 L625 1443 L726 342 L744 342 L1298 1443 L1638 1443 L851 0 L486 0 Z " />
<glyph glyph-name="W" unicode="W" horiz-adv-x="2067" d="M681 0 L396 0 L320 1443 L622 1443 L638 426 L654 426 L1136 1443 L1381 1443 L1440 426 L1456 426 L1901 1443 L2212 1443 L1527 0 L1236 0 L1166 955 L1150 955 L681 0 Z " />
<glyph glyph-name="Wgrave" unicode="&#x1e80;" horiz-adv-x="2067" d="M1433 1590 L1167 1590 L950 1908 L1256 1908 L1433 1590 Z M681 0 L396 0 L320 1443 L622 1443 L638 426 L654 426 L1136 1443 L1381 1443 L1440 426 L1456 426 L1901 1443 L2212 1443 L1527 0 L1236 0 L1166 955 L1150 955 L681 0 Z " />
<glyph glyph-name="Wacute" unicode="&#x1e82;" horiz-adv-x="2067" d="M1492 1908 L1807 1908 L1426 1590 L1149 1590 L1492 1908 Z M681 0 L396 0 L320 1443 L622 1443 L638 426 L654 426 L1136 1443 L1381 1443 L1440 426 L1456 426 L1901 1443 L2212 1443 L1527 0 L1236 0 L1166 955 L1150 955 L681 0 Z " />
<glyph glyph-name="Wdotaccent" unicode="&#x1e86;" horiz-adv-x="2067" d="M1330 1579 Q1295 1579 1266 1591 Q1237 1603 1216 1624 Q1195 1645 1183.5 1674 Q1172 1703 1172 1737 Q1172 1771 1183.5 1800 Q1195 1829 1216 1850 Q1237 1871 1266 1883 Q1295 1895 1330 1895 Q1364 1895 1393 1883 Q1422 1871 1443 1850 Q1464 1829 1475.5 1800 Q1487 1771 1487 1737 Q1487 1703 1475.5 1674 Q1464 1645 1443 1624 Q1422 1603 1393 1591 Q1364 1579 1330 1579 Z M681 0 L396 0 L320 1443 L622 1443 L638 426 L654 426 L1136 1443 L1381 1443 L1440 426 L1456 426 L1901 1443 L2212 1443 L1527 0 L1236 0 L1166 955 L1150 955 L681 0 Z " />
<glyph glyph-name="Wdotbelow" unicode="&#x1e88;" horiz-adv-x="2067" d="M896 -419 Q860 -419 831 -408.5 Q802 -398 781.5 -379.5 Q761 -361 750 -335 Q739 -309 739 -279 Q739 -249 750 -223.5 Q761 -198 781.5 -179.5 Q802 -161 831 -150.5 Q860 -140 896 -140 Q931 -140 960 -150.5 Q989 -161 1009.5 -179.5 Q1030 -198 1041.5 -223.5 Q1053 -249 1053 -279 Q1053 -309 1041.5 -335 Q1030 -361 1009.5 -379.5 Q989 -398 960 -408.5 Q931 -419 896 -419 Z M681 0 L396 0 L320 1443 L622 1443 L638 426 L654 426 L1136 1443 L1381 1443 L1440 426 L1456 426 L1901 1443 L2212 1443 L1527 0 L1236 0 L1166 955 L1150 955 L681 0 Z " />
<glyph glyph-name="Wdieresis" unicode="&#x1e84;" horiz-adv-x="2067" d="M1093 1579 Q1059 1579 1030.5 1590.5 Q1002 1602 981 1622 Q960 1642 948.5 1670 Q937 1698 937 1731 Q937 1764 948.5 1791.5 Q960 1819 981 1839.5 Q1002 1860 1030.5 1871 Q1059 1882 1093 1882 Q1126 1882 1154.5 1871 Q1183 1860 1204 1839.5 Q1225 1819 1236.5 1791.5 Q1248 1764 1248 1731 Q1248 1698 1236.5 1670 Q1225 1642 1204 1622 Q1183 1602 1154.5 1590.5 Q1126 1579 1093 1579 Z M1560 1579 Q1527 1579 1498.5 1590.5 Q1470 1602 1449 1622 Q1428 1642 1416.5 1670 Q1405 1698 1405 1731 Q1405 1764 1416.5 1791.5 Q1428 1819 1449 1839.5 Q1470 1860 1498.5 1871 Q1527 1882 1560 1882 Q1594 1882 1622.5 1871 Q1651 1860 1672 1839.5 Q1693 1819 1704.5 1791.5 Q1716 1764 1716 1731 Q1716 1698 1704.5 1670 Q1693 1642 1672 1622 Q1651 1602 1622.5 1590.5 Q1594 1579 1560 1579 Z M681 0 L396 0 L320 1443 L622 1443 L638 426 L654 426 L1136 1443 L1381 1443 L1440 426 L1456 426 L1901 1443 L2212 1443 L1527 0 L1236 0 L1166 955 L1150 955 L681 0 Z " />
<glyph glyph-name="Wcircumflex" unicode="&#x174;" horiz-adv-x="2067" d="M1687 1590 L1438 1590 L1346 1781 L1328 1781 L1156 1590 L881 1590 L1209 1925 L1500 1925 L1687 1590 Z M681 0 L396 0 L320 1443 L622 1443 L638 426 L654 426 L1136 1443 L1381 1443 L1440 426 L1456 426 L1901 1443 L2212 1443 L1527 0 L1236 0 L1166 955 L1150 955 L681 0 Z " />
<glyph glyph-name="X" unicode="X" horiz-adv-x="1494" d="M642 744 L333 1443 L673 1443 L884 949 L902 949 L1301 1443 L1639 1443 L1004 711 L1326 0 L993 0 L772 485 L754 485 L345 0 L14 0 L642 744 Z " />
<glyph glyph-name="Xdotaccent" unicode="&#x1e8a;" horiz-adv-x="1494" d="M642 744 L333 1443 L673 1443 L884 949 L902 949 L1301 1443 L1639 1443 L1004 711 L1326 0 L993 0 L772 485 L754 485 L345 0 L14 0 L642 744 Z M1043 1579 Q1008 1579 979 1591 Q950 1603 929 1624 Q908 1645 896.5 1674 Q885 1703 885 1737 Q885 1771 896.5 1800 Q908 1829 929 1850 Q950 1871 979 1883 Q1008 1895 1043 1895 Q1077 1895 1106 1883 Q1135 1871 1156 1850 Q1177 1829 1188.5 1800 Q1200 1771 1200 1737 Q1200 1703 1188.5 1674 Q1177 1645 1156 1624 Q1135 1603 1106 1591 Q1077 1579 1043 1579 Z " />
<glyph glyph-name="Xdieresis" unicode="&#x1e8c;" horiz-adv-x="1494" d="M642 744 L333 1443 L673 1443 L884 949 L902 949 L1301 1443 L1639 1443 L1004 711 L1326 0 L993 0 L772 485 L754 485 L345 0 L14 0 L642 744 Z M806 1579 Q772 1579 743.5 1590.5 Q715 1602 694 1622 Q673 1642 661.5 1670 Q650 1698 650 1731 Q650 1764 661.5 1791.5 Q673 1819 694 1839.5 Q715 1860 743.5 1871 Q772 1882 806 1882 Q839 1882 867.5 1871 Q896 1860 917 1839.5 Q938 1819 949.5 1791.5 Q961 1764 961 1731 Q961 1698 949.5 1670 Q938 1642 917 1622 Q896 1602 867.5 1590.5 Q839 1579 806 1579 Z M1273 1579 Q1240 1579 1211.5 1590.5 Q1183 1602 1162 1622 Q1141 1642 1129.5 1670 Q1118 1698 1118 1731 Q1118 1764 1129.5 1791.5 Q1141 1819 1162 1839.5 Q1183 1860 1211.5 1871 Q1240 1882 1273 1882 Q1307 1882 1335.5 1871 Q1364 1860 1385 1839.5 Q1406 1819 1417.5 1791.5 Q1429 1764 1429 1731 Q1429 1698 1417.5 1670 Q1406 1642 1385 1622 Q1364 1602 1335.5 1590.5 Q1307 1579 1273 1579 Z " />
<glyph glyph-name="Y" unicode="Y" horiz-adv-x="1451" d="M500 0 L614 531 L304 1443 L620 1443 L816 836 L834 836 L1281 1443 L1611 1443 L914 519 L804 0 L500 0 Z " />
<glyph glyph-name="Ygrave" unicode="&#x1ef2;" horiz-adv-x="1451" d="M500 0 L614 531 L304 1443 L620 1443 L816 836 L834 836 L1281 1443 L1611 1443 L914 519 L804 0 L500 0 Z M1123 1590 L857 1590 L640 1908 L946 1908 L1123 1590 Z " />
<glyph glyph-name="Yacute" unicode="&#xdd;" horiz-adv-x="1451" d="M500 0 L614 531 L304 1443 L620 1443 L816 836 L834 836 L1281 1443 L1611 1443 L914 519 L804 0 L500 0 Z M1182 1908 L1497 1908 L1116 1590 L839 1590 L1182 1908 Z " />
<glyph glyph-name="Ydotaccent" unicode="&#x1e8e;" horiz-adv-x="1451" d="M500 0 L614 531 L304 1443 L620 1443 L816 836 L834 836 L1281 1443 L1611 1443 L914 519 L804 0 L500 0 Z M1020 1579 Q985 1579 956 1591 Q927 1603 906 1624 Q885 1645 873.5 1674 Q862 1703 862 1737 Q862 1771 873.5 1800 Q885 1829 906 1850 Q927 1871 956 1883 Q985 1895 1020 1895 Q1054 1895 1083 1883 Q1112 1871 1133 1850 Q1154 1829 1165.5 1800 Q1177 1771 1177 1737 Q1177 1703 1165.5 1674 Q1154 1645 1133 1624 Q1112 1603 1083 1591 Q1054 1579 1020 1579 Z " />
<glyph glyph-name="Ydotbelow" unicode="&#x1ef4;" horiz-adv-x="1451" d="M500 0 L614 531 L304 1443 L620 1443 L816 836 L834 836 L1281 1443 L1611 1443 L914 519 L804 0 L500 0 Z M591 -419 Q555 -419 526 -408.5 Q497 -398 476.5 -379.5 Q456 -361 445 -335 Q434 -309 434 -279 Q434 -249 445 -223.5 Q456 -198 476.5 -179.5 Q497 -161 526 -150.5 Q555 -140 591 -140 Q626 -140 655 -150.5 Q684 -161 704.5 -179.5 Q725 -198 736.5 -223.5 Q748 -249 748 -279 Q748 -309 736.5 -335 Q725 -361 704.5 -379.5 Q684 -398 655 -408.5 Q626 -419 591 -419 Z " />
<glyph glyph-name="Ydieresis" unicode="&#x178;" horiz-adv-x="1451" d="M500 0 L614 531 L304 1443 L620 1443 L816 836 L834 836 L1281 1443 L1611 1443 L914 519 L804 0 L500 0 Z M783 1579 Q749 1579 720.5 1590.5 Q692 1602 671 1622 Q650 1642 638.5 1670 Q627 1698 627 1731 Q627 1764 638.5 1791.5 Q650 1819 671 1839.5 Q692 1860 720.5 1871 Q749 1882 783 1882 Q816 1882 844.5 1871 Q873 1860 894 1839.5 Q915 1819 926.5 1791.5 Q938 1764 938 1731 Q938 1698 926.5 1670 Q915 1642 894 1622 Q873 1602 844.5 1590.5 Q816 1579 783 1579 Z M1250 1579 Q1217 1579 1188.5 1590.5 Q1160 1602 1139 1622 Q1118 1642 1106.5 1670 Q1095 1698 1095 1731 Q1095 1764 1106.5 1791.5 Q1118 1819 1139 1839.5 Q1160 1860 1188.5 1871 Q1217 1882 1250 1882 Q1284 1882 1312.5 1871 Q1341 1860 1362 1839.5 Q1383 1819 1394.5 1791.5 Q1406 1764 1406 1731 Q1406 1698 1394.5 1670 Q1383 1642 1362 1622 Q1341 1602 1312.5 1590.5 Q1284 1579 1250 1579 Z " />
<glyph glyph-name="Ytilde" unicode="&#x1ef8;" horiz-adv-x="1451" d="M500 0 L614 531 L304 1443 L620 1443 L816 836 L834 836 L1281 1443 L1611 1443 L914 519 L804 0 L500 0 Z M1176 1578 Q1115 1578 1072 1600.5 Q1029 1623 995 1650 Q961 1677 932.5 1699.5 Q904 1722 871 1722 Q832 1722 807 1697.5 Q782 1673 774 1618 L593 1618 Q602 1683 625.5 1734.5 Q649 1786 684.5 1821.5 Q720 1857 765.5 1876 Q811 1895 862 1895 Q923 1895 966 1872.5 Q1009 1850 1042.5 1823 Q1076 1796 1105 1773.5 Q1134 1751 1166 1751 Q1206 1751 1231 1775.5 Q1256 1800 1264 1855 L1445 1855 Q1436 1790 1412 1738.5 Q1388 1687 1353 1651.5 Q1318 1616 1272.5 1597 Q1227 1578 1176 1578 Z " />
<glyph glyph-name="Ycircumflex" unicode="&#x176;" horiz-adv-x="1451" d="M500 0 L614 531 L304 1443 L620 1443 L816 836 L834 836 L1281 1443 L1611 1443 L914 519 L804 0 L500 0 Z M1377 1590 L1128 1590 L1036 1781 L1018 1781 L846 1590 L571 1590 L899 1925 L1190 1925 L1377 1590 Z " />
<glyph glyph-name="Ymacron" unicode="&#x232;" horiz-adv-x="1451" d="M500 0 L614 531 L304 1443 L620 1443 L816 836 L834 836 L1281 1443 L1611 1443 L914 519 L804 0 L500 0 Z M623 1632 L660 1813 L1406 1813 L1368 1632 L623 1632 Z " />
<glyph glyph-name="Yhookabove" unicode="&#x1ef6;" horiz-adv-x="1451" d="M500 0 L614 531 L304 1443 L620 1443 L816 836 L834 836 L1281 1443 L1611 1443 L914 519 L804 0 L500 0 Z M881 1993 Q905 2000 939 2005 Q973 2010 1010 2010 Q1059 2010 1103 1996 Q1147 1982 1180 1956.5 Q1213 1931 1232 1895.5 Q1251 1860 1251 1818 Q1251 1771 1233 1729.5 Q1215 1688 1182 1653 Q1149 1618 1101.5 1591 Q1054 1564 995 1546 L926 1667 Q983 1682 1020 1713.5 Q1057 1745 1057 1782 Q1057 1814 1027.5 1833.5 Q998 1853 950 1853 Q922 1853 894 1849.5 Q866 1846 849 1841 L881 1993 Z " />
<glyph glyph-name="Z" unicode="Z" horiz-adv-x="1384" d="M103 204 L1018 1167 L1020 1185 L331 1185 L384 1443 L1460 1443 L1418 1240 L505 276 L503 258 L1227 258 L1174 0 L61 0 L103 204 Z " />
<glyph glyph-name="Zacute" unicode="&#x179;" horiz-adv-x="1384" d="M1143 1908 L1458 1908 L1077 1590 L800 1590 L1143 1908 Z M103 204 L1018 1167 L1020 1185 L331 1185 L384 1443 L1460 1443 L1418 1240 L505 276 L503 258 L1227 258 L1174 0 L61 0 L103 204 Z " />
<glyph glyph-name="Zcaron" unicode="&#x17d;" horiz-adv-x="1384" d="M103 204 L1018 1167 L1020 1185 L331 1185 L384 1443 L1460 1443 L1418 1240 L505 276 L503 258 L1227 258 L1174 0 L61 0 L103 204 Z M627 1925 L877 1925 L969 1734 L987 1734 L1159 1925 L1434 1925 L1106 1590 L815 1590 L627 1925 Z " />
<glyph glyph-name="Zcircumflex" unicode="&#x1e90;" horiz-adv-x="1384" d="M103 204 L1018 1167 L1020 1185 L331 1185 L384 1443 L1460 1443 L1418 1240 L505 276 L503 258 L1227 258 L1174 0 L61 0 L103 204 Z M1338 1590 L1089 1590 L997 1781 L979 1781 L807 1590 L532 1590 L860 1925 L1151 1925 L1338 1590 Z " />
<glyph glyph-name="Zlinebelow" unicode="&#x1e94;" horiz-adv-x="1384" d="M103 204 L1018 1167 L1020 1185 L331 1185 L384 1443 L1460 1443 L1418 1240 L505 276 L503 258 L1227 258 L1174 0 L61 0 L103 204 Z M156 -401 L193 -220 L939 -220 L901 -401 L156 -401 Z " />
<glyph glyph-name="Zdotbelow" unicode="&#x1e92;" horiz-adv-x="1384" d="M553 -419 Q517 -419 488 -408.5 Q459 -398 438.5 -379.5 Q418 -361 407 -335 Q396 -309 396 -279 Q396 -249 407 -223.5 Q418 -198 438.5 -179.5 Q459 -161 488 -150.5 Q517 -140 553 -140 Q588 -140 617 -150.5 Q646 -161 666.5 -179.5 Q687 -198 698.5 -223.5 Q710 -249 710 -279 Q710 -309 698.5 -335 Q687 -361 666.5 -379.5 Q646 -398 617 -408.5 Q588 -419 553 -419 Z M103 204 L1018 1167 L1020 1185 L331 1185 L384 1443 L1460 1443 L1418 1240 L505 276 L503 258 L1227 258 L1174 0 L61 0 L103 204 Z " />
<glyph glyph-name="Zdotaccent" unicode="&#x17b;" horiz-adv-x="1384" d="M981 1579 Q946 1579 917 1591 Q888 1603 867 1624 Q846 1645 834.5 1674 Q823 1703 823 1737 Q823 1771 834.5 1800 Q846 1829 867 1850 Q888 1871 917 1883 Q946 1895 981 1895 Q1015 1895 1044 1883 Q1073 1871 1094 1850 Q1115 1829 1126.5 1800 Q1138 1771 1138 1737 Q1138 1703 1126.5 1674 Q1115 1645 1094 1624 Q1073 1603 1044 1591 Q1015 1579 981 1579 Z M103 204 L1018 1167 L1020 1185 L331 1185 L384 1443 L1460 1443 L1418 1240 L505 276 L503 258 L1227 258 L1174 0 L61 0 L103 204 Z " />
<glyph glyph-name="AE" unicode="&#xc6;" horiz-adv-x="2059" d="M1050 1202 L671 598 L1050 598 L1180 1202 L1050 1202 Z M1002 364 L537 364 L303 0 L-4 0 L899 1443 L2158 1443 L2104 1185 L1454 1185 L1379 844 L1993 844 L1943 605 L1330 605 L1253 258 L1903 258 L1851 0 L922 0 L1002 364 Z " />
<glyph glyph-name="AEmacron" unicode="&#x1e2;" horiz-adv-x="2059" d="M1050 1202 L671 598 L1050 598 L1180 1202 L1050 1202 Z M1002 364 L537 364 L303 0 L-4 0 L899 1443 L2158 1443 L2104 1185 L1454 1185 L1379 844 L1993 844 L1943 605 L1330 605 L1253 258 L1903 258 L1851 0 L922 0 L1002 364 Z M1268 1632 L1305 1813 L2051 1813 L2013 1632 L1268 1632 Z " />
<glyph glyph-name="AEacute" unicode="&#x1fc;" horiz-adv-x="2059" d="M1827 1908 L2142 1908 L1761 1590 L1484 1590 L1827 1908 Z M1050 1202 L671 598 L1050 598 L1180 1202 L1050 1202 Z M1002 364 L537 364 L303 0 L-4 0 L899 1443 L2158 1443 L2104 1185 L1454 1185 L1379 844 L1993 844 L1943 605 L1330 605 L1253 258 L1903 258 L1851 0 L922 0 L1002 364 Z " />
<glyph glyph-name="OE" unicode="&#x152;" horiz-adv-x="2312" d="M1291 846 Q1291 929 1267.5 997 Q1244 1065 1201 1113.5 Q1158 1162 1097.5 1188.5 Q1037 1215 964 1215 Q865 1215 779 1167 Q693 1119 629.5 1035.5 Q566 952 529.5 839.5 Q493 727 493 597 Q493 514 516.5 446 Q540 378 583 329.5 Q626 281 686.5 254.5 Q747 228 821 228 Q921 228 1007 275.5 Q1093 323 1156 406.5 Q1219 490 1255 602.5 Q1291 715 1291 846 Z M1213 102 L1198 102 Q1168 72 1126.5 46.5 Q1085 21 1034.5 2.5 Q984 -16 927 -26.5 Q870 -37 810 -37 Q672 -37 557.5 8 Q443 53 360.5 134 Q278 215 232 327.5 Q186 440 186 576 Q186 707 213 824.5 Q240 942 290 1042.5 Q340 1143 410.5 1224 Q481 1305 569 1362 Q657 1419 759.5 1449.5 Q862 1480 976 1480 Q1054 1480 1123.5 1463 Q1193 1446 1252 1415.5 Q1311 1385 1357.5 1341.5 Q1404 1298 1436 1245 L1454 1245 L1497 1443 L2398 1443 L2345 1185 L1693 1185 L1618 848 L2234 848 L2184 609 L1569 609 L1491 258 L2144 258 L2092 0 L1190 0 L1213 102 Z " />
<glyph glyph-name="Eth" unicode="&#xd0;" horiz-adv-x="1516" d="M729 257 Q831 257 917 297.5 Q1003 338 1065.5 412.5 Q1128 487 1163 591 Q1198 695 1198 822 Q1198 906 1174.5 974 Q1151 1042 1106.5 1089 Q1062 1136 997.5 1161.5 Q933 1187 851 1187 L660 1187 L586 845 L760 845 L713 618 L537 618 L459 257 L729 257 Z M918 1443 Q1056 1443 1165.5 1403 Q1275 1363 1351.5 1287.5 Q1428 1212 1468.5 1103 Q1509 994 1509 856 Q1509 732 1483.5 620.5 Q1458 509 1411 414 Q1364 319 1297 242.5 Q1230 166 1146 112 Q1062 58 963.5 29 Q865 0 756 0 L101 0 L232 618 L58 618 L105 845 L280 845 L407 1443 L918 1443 Z " />
<glyph glyph-name="Thorn" unicode="&#xde;" horiz-adv-x="1382" d="M408 1443 L710 1443 L660 1211 L930 1211 Q1024 1211 1103 1181.5 Q1182 1152 1239 1099 Q1296 1046 1328 973.5 Q1360 901 1360 814 Q1360 702 1317.5 606.5 Q1275 511 1198.5 440.5 Q1122 370 1015 330 Q908 290 779 290 L465 290 L402 0 L101 0 L408 1443 Z M515 536 L752 536 Q822 536 878.5 553 Q935 570 974.5 602 Q1014 634 1035 679.5 Q1056 725 1056 782 Q1056 868 1000.5 915.5 Q945 963 835 963 L607 963 L515 536 Z " />
<glyph glyph-name="Alphagreek" unicode="&#x391;" horiz-adv-x="1501" d="M1007 344 L498 344 L312 0 L-3 0 L817 1443 L1166 1443 L1353 0 L1042 0 L1007 344 Z M612 577 L993 577 L935 1142 L916 1142 L612 577 Z " />
<glyph glyph-name="Betagreek" unicode="&#x392;" horiz-adv-x="1420" d="M100 0 L407 1443 L996 1443 Q1089 1443 1165 1420.5 Q1241 1398 1295.5 1357 Q1350 1316 1379.5 1259 Q1409 1202 1409 1132 Q1409 1061 1385 998 Q1361 935 1317.5 886 Q1274 837 1214 805 Q1154 773 1083 763 L1081 744 Q1141 733 1188.5 707.5 Q1236 682 1269.5 645 Q1303 608 1321 560 Q1339 512 1339 456 Q1339 356 1298.5 272.5 Q1258 189 1185 128.5 Q1112 68 1011.5 34 Q911 0 791 0 L100 0 Z M584 851 L824 851 Q886 851 937.5 867 Q989 883 1026.5 911.5 Q1064 940 1084.5 979 Q1105 1018 1105 1065 Q1105 1140 1050 1179.5 Q995 1219 889 1219 L664 1219 L584 851 Z M739 237 Q803 237 857 254.5 Q911 272 950.5 303 Q990 334 1012 377 Q1034 420 1034 472 Q1034 557 974 602 Q914 647 800 647 L541 647 L452 237 L739 237 Z " />
<glyph glyph-name="Gammagreek" unicode="&#x393;" horiz-adv-x="1198" d="M100 0 L407 1443 L1333 1443 L1279 1185 L658 1185 L404 0 L100 0 Z " />
<glyph glyph-name="Deltagreek" unicode="&#x394;" horiz-adv-x="1454" d="M14 0 L51 176 L792 1443 L1142 1443 L1326 175 L1290 0 L14 0 Z M403 275 L399 258 L1015 258 L1019 275 L910 1154 L896 1154 L403 275 Z " />
<glyph glyph-name="Epsilongreek" unicode="&#x395;" horiz-adv-x="1274" d="M1057 0 L100 0 L407 1443 L1363 1443 L1310 1185 L658 1185 L583 848 L1199 848 L1149 609 L534 609 L456 258 L1109 258 L1057 0 Z " />
<glyph glyph-name="Zetagreek" unicode="&#x396;" horiz-adv-x="1384" d="M103 204 L1018 1167 L1020 1185 L331 1185 L384 1443 L1460 1443 L1418 1240 L505 276 L503 258 L1227 258 L1174 0 L61 0 L103 204 Z " />
<glyph glyph-name="Etagreek" unicode="&#x397;" horiz-adv-x="1606" d="M1051 0 L1180 603 L532 603 L403 0 L100 0 L407 1443 L711 1443 L586 861 L1234 861 L1359 1443 L1663 1443 L1356 0 L1051 0 Z " />
<glyph glyph-name="Thetagreek" unicode="&#x398;" horiz-adv-x="1687" d="M638 591 L690 843 L1201 843 L1150 591 L638 591 Z M812 -37 Q665 -37 549 5.5 Q433 48 352.5 127.5 Q272 207 229 322 Q186 437 186 581 Q186 781 247 946.5 Q308 1112 418.5 1230.5 Q529 1349 683.5 1414.5 Q838 1480 1025 1480 Q1175 1480 1292 1438 Q1409 1396 1490 1316.5 Q1571 1237 1613.5 1121.5 Q1656 1006 1656 859 Q1656 660 1594.5 495 Q1533 330 1421.5 212 Q1310 94 1154.5 28.5 Q999 -37 812 -37 Z M1350 841 Q1350 1025 1260 1122.5 Q1170 1220 997 1220 Q887 1220 795 1173 Q703 1126 635.5 1042.5 Q568 959 530.5 845 Q493 731 493 597 Q493 419 583.5 321 Q674 223 844 223 Q953 223 1045.5 270 Q1138 317 1205.5 399.5 Q1273 482 1311.5 595.5 Q1350 709 1350 841 Z " />
<glyph glyph-name="Iotagreek" unicode="&#x399;" horiz-adv-x="654" d="M100 0 L407 1443 L711 1443 L404 0 L100 0 Z " />
<glyph glyph-name="Kappagreek" unicode="&#x39a;" horiz-adv-x="1454" d="M100 0 L407 1443 L708 1443 L572 808 L590 808 L1249 1443 L1607 1443 L937 790 L1319 0 L979 0 L686 606 L494 424 L402 0 L100 0 Z " />
<glyph glyph-name="Lambdagreek" unicode="&#x39b;" horiz-adv-x="1475" d="M319 0 L4 0 L804 1443 L1153 1443 L1320 0 L1009 0 L922 1142 L903 1142 L319 0 Z " />
<glyph glyph-name="Mugreek" unicode="&#x39c;" horiz-adv-x="1880" d="M100 0 L407 1443 L754 1443 L942 473 L960 473 L1568 1443 L1936 1443 L1629 0 L1348 0 L1555 965 L1539 965 L981 83 L780 83 L605 965 L589 965 L382 0 L100 0 Z " />
<glyph glyph-name="Nugreek" unicode="&#x39d;" horiz-adv-x="1574" d="M100 0 L407 1443 L638 1443 L1117 514 L1135 514 L1337 1443 L1630 1443 L1323 0 L1094 0 L611 922 L593 922 L393 0 L100 0 Z " />
<glyph glyph-name="Xigreek" unicode="&#x39e;" horiz-adv-x="1371" d="M1461 1443 L1407 1178 L319 1178 L374 1443 L1461 1443 Z M284 604 L335 850 L1248 850 L1197 604 L284 604 Z M1209 265 L1155 0 L68 0 L122 265 L1209 265 Z " />
<glyph glyph-name="Omicrongreek" unicode="&#x39f;" horiz-adv-x="1626" d="M810 -37 Q668 -37 553 9.5 Q438 56 356.5 138 Q275 220 230.5 332.5 Q186 445 186 576 Q186 709 213.5 827.5 Q241 946 291 1046.5 Q341 1147 412.5 1227 Q484 1307 571.5 1363.5 Q659 1420 761.5 1450 Q864 1480 976 1480 Q1120 1480 1235 1433.5 Q1350 1387 1430.5 1305 Q1511 1223 1554.5 1110.5 Q1598 998 1598 867 Q1598 734 1571 615 Q1544 496 1493.5 395.5 Q1443 295 1372 215 Q1301 135 1213.5 79 Q1126 23 1024 -7 Q922 -37 810 -37 Z M1288 844 Q1288 926 1264.5 993.5 Q1241 1061 1198.5 1109 Q1156 1157 1096.5 1183 Q1037 1209 964 1209 Q866 1209 780.5 1162 Q695 1115 632 1032.5 Q569 950 532.5 838.5 Q496 727 496 598 Q496 515 519.5 448 Q543 381 585.5 333 Q628 285 688 259 Q748 233 822 233 Q920 233 1005 279.5 Q1090 326 1153 408 Q1216 490 1252 601.5 Q1288 713 1288 844 Z " />
<glyph glyph-name="Pigreek" unicode="&#x3a0;" horiz-adv-x="1586" d="M1031 0 L1287 1185 L659 1185 L403 0 L100 0 L407 1443 L1643 1443 L1336 0 L1031 0 Z " />
<glyph glyph-name="Rhogreek" unicode="&#x3a1;" horiz-adv-x="1381" d="M934 1443 Q1041 1443 1128 1413 Q1215 1383 1277 1327.5 Q1339 1272 1373 1194.5 Q1407 1117 1407 1021 Q1407 888 1361 782 Q1315 676 1232.5 601.5 Q1150 527 1035.5 487.5 Q921 448 783 448 L501 448 L404 0 L101 0 L407 1443 L934 1443 Z M550 693 L779 693 Q851 693 910.5 714.5 Q970 736 1012 775 Q1054 814 1077 869 Q1100 924 1100 992 Q1100 1092 1037 1143.5 Q974 1195 862 1195 L660 1195 L550 693 Z " />
<glyph glyph-name="Sigmagreek" unicode="&#x3a3;" horiz-adv-x="1384" d="M496 258 L1227 258 L1174 0 L61 0 L100 189 L580 735 L348 1227 L392 1443 L1460 1443 L1407 1185 L722 1185 L719 1171 L902 765 L892 715 L499 272 L496 258 Z " />
<glyph glyph-name="Taugreek" unicode="&#x3a4;" horiz-adv-x="1352" d="M448 0 L702 1185 L270 1185 L323 1443 L1491 1443 L1438 1185 L1006 1185 L752 0 L448 0 Z " />
<glyph glyph-name="Upsilongreek" unicode="&#x3a5;" horiz-adv-x="1451" d="M500 0 L614 531 L304 1443 L620 1443 L816 836 L834 836 L1281 1443 L1611 1443 L914 519 L804 0 L500 0 Z " />
<glyph glyph-name="Phigreek" unicode="&#x3a6;" horiz-adv-x="1888" d="M738 40 Q603 56 499 104.5 Q395 153 324 228 Q253 303 216.5 402.5 Q180 502 180 619 Q180 777 238.5 913.5 Q297 1050 406 1152.5 Q515 1255 671 1317.5 Q827 1380 1023 1389 L1055 1539 L1336 1539 L1303 1383 Q1435 1368 1538.5 1320.5 Q1642 1273 1714 1198.5 Q1786 1124 1823.5 1023.5 Q1861 923 1861 802 Q1861 644 1802.5 508 Q1744 372 1634.5 269.5 Q1525 167 1369 105 Q1213 43 1018 34 L987 -110 L707 -110 L738 40 Z M972 1142 Q862 1133 771 1094 Q680 1055 614.5 989 Q549 923 513 831.5 Q477 740 477 626 Q477 480 558.5 392.5 Q640 305 789 287 L972 1142 Z M1069 281 Q1182 291 1273.5 331 Q1365 371 1429.5 437.5 Q1494 504 1529 595 Q1564 686 1564 797 Q1564 871 1542.5 930 Q1521 989 1481 1032 Q1441 1075 1383 1101.5 Q1325 1128 1252 1136 L1069 281 Z " />
<glyph glyph-name="Chigreek" unicode="&#x3a7;" horiz-adv-x="1494" d="M642 744 L333 1443 L673 1443 L884 949 L902 949 L1301 1443 L1639 1443 L1004 711 L1326 0 L993 0 L772 485 L754 485 L345 0 L14 0 L642 744 Z " />
<glyph glyph-name="Psigreek" unicode="&#x3a8;" horiz-adv-x="1813" d="M688 0 L753 305 Q509 326 385 435.5 Q261 545 261 740 Q261 802 274 867 L395 1443 L684 1443 L569 895 Q560 852 556 822.5 Q552 793 552 769 Q552 664 615 614.5 Q678 565 806 559 L994 1443 L1283 1443 L1092 551 Q1179 555 1243 576.5 Q1307 598 1352 636.5 Q1397 675 1425.5 731.5 Q1454 788 1470 862 L1592 1443 L1882 1443 L1754 833 Q1727 704 1673.5 607 Q1620 510 1534 444 Q1448 378 1326.5 342 Q1205 306 1040 298 L976 0 L688 0 Z " />
<glyph glyph-name="Omegagreek" unicode="&#x3a9;" horiz-adv-x="1666" d="M948 312 Q1034 353 1101.5 411.5 Q1169 470 1215 542 Q1261 614 1285 698.5 Q1309 783 1309 878 Q1309 955 1285.5 1017 Q1262 1079 1218 1123 Q1174 1167 1110.5 1191 Q1047 1215 967 1215 Q863 1215 778 1176.5 Q693 1138 632 1069 Q571 1000 537.5 904 Q504 808 504 692 Q504 569 558.5 471.5 Q613 374 720 312 L655 0 L79 0 L130 247 L416 247 L420 266 Q314 335 258.5 449.5 Q203 564 203 706 Q203 880 262 1022.5 Q321 1165 426.5 1266.5 Q532 1368 678 1424 Q824 1480 999 1480 Q1141 1480 1255.5 1439.5 Q1370 1399 1451 1324.5 Q1532 1250 1576 1145 Q1620 1040 1620 912 Q1620 813 1593.5 717 Q1567 621 1517 536 Q1467 451 1395.5 381.5 Q1324 312 1233 266 L1229 247 L1526 247 L1475 0 L883 0 L948 312 Z " />
<glyph glyph-name="Alphatonosgreek" unicode="&#x386;" horiz-adv-x="1586" d="M1092 344 L583 344 L397 0 L82 0 L902 1443 L1251 1443 L1438 0 L1127 0 L1092 344 Z M697 577 L1078 577 L1020 1142 L1001 1142 L697 577 Z M225 1065 L389 1443 L689 1443 L472 1065 L225 1065 Z " />
<glyph glyph-name="Epsilontonosgreek" unicode="&#x388;" horiz-adv-x="1749" d="M242 1065 L406 1443 L706 1443 L489 1065 L242 1065 Z M1532 0 L575 0 L882 1443 L1838 1443 L1785 1185 L1133 1185 L1058 848 L1674 848 L1624 609 L1009 609 L931 258 L1584 258 L1532 0 Z " />
<glyph glyph-name="Etatonosgreek" unicode="&#x389;" horiz-adv-x="2080" d="M242 1065 L406 1443 L706 1443 L489 1065 L242 1065 Z M1526 0 L1655 603 L1007 603 L878 0 L575 0 L882 1443 L1186 1443 L1061 861 L1709 861 L1834 1443 L2138 1443 L1831 0 L1526 0 Z " />
<glyph glyph-name="Iotatonosgreek" unicode="&#x38a;" horiz-adv-x="1128" d="M575 0 L882 1443 L1186 1443 L879 0 L575 0 Z M242 1065 L406 1443 L706 1443 L489 1065 L242 1065 Z " />
<glyph glyph-name="Iotadieresisgreek" unicode="&#x3aa;" horiz-adv-x="653" d="M100 0 L407 1443 L711 1443 L404 0 L100 0 Z M387 1579 Q353 1579 324.5 1590.5 Q296 1602 275 1622 Q254 1642 242.5 1670 Q231 1698 231 1731 Q231 1764 242.5 1791.5 Q254 1819 275 1839.5 Q296 1860 324.5 1871 Q353 1882 387 1882 Q420 1882 448.5 1871 Q477 1860 498 1839.5 Q519 1819 530.5 1791.5 Q542 1764 542 1731 Q542 1698 530.5 1670 Q519 1642 498 1622 Q477 1602 448.5 1590.5 Q420 1579 387 1579 Z M854 1579 Q821 1579 792.5 1590.5 Q764 1602 743 1622 Q722 1642 710.5 1670 Q699 1698 699 1731 Q699 1764 710.5 1791.5 Q722 1819 743 1839.5 Q764 1860 792.5 1871 Q821 1882 854 1882 Q888 1882 916.5 1871 Q945 1860 966 1839.5 Q987 1819 998.5 1791.5 Q1010 1764 1010 1731 Q1010 1698 998.5 1670 Q987 1642 966 1622 Q945 1602 916.5 1590.5 Q888 1579 854 1579 Z " />
<glyph glyph-name="Omicrontonosgreek" unicode="&#x38c;" horiz-adv-x="1995" d="M1178 -37 Q1036 -37 921 9.5 Q806 56 724.5 138 Q643 220 598.5 332.5 Q554 445 554 576 Q554 709 581.5 827.5 Q609 946 659 1046.5 Q709 1147 780.5 1227 Q852 1307 939.5 1363.5 Q1027 1420 1129.5 1450 Q1232 1480 1344 1480 Q1488 1480 1603 1433.5 Q1718 1387 1798.5 1305 Q1879 1223 1922.5 1110.5 Q1966 998 1966 867 Q1966 734 1939 615 Q1912 496 1861.5 395.5 Q1811 295 1740 215 Q1669 135 1581.5 79 Q1494 23 1392 -7 Q1290 -37 1178 -37 Z M1656 844 Q1656 926 1632.5 993.5 Q1609 1061 1566.5 1109 Q1524 1157 1464.5 1183 Q1405 1209 1332 1209 Q1234 1209 1148.5 1162 Q1063 1115 1000 1032.5 Q937 950 900.5 838.5 Q864 727 864 598 Q864 515 887.5 448 Q911 381 953.5 333 Q996 285 1056 259 Q1116 233 1190 233 Q1288 233 1373 279.5 Q1458 326 1521 408 Q1584 490 1620 601.5 Q1656 713 1656 844 Z M242 1065 L406 1443 L706 1443 L489 1065 L242 1065 Z " />
<glyph glyph-name="Upsilontonosgreek" unicode="&#x38e;" horiz-adv-x="1919" d="M242 1065 L406 1443 L706 1443 L489 1065 L242 1065 Z M968 0 L1082 531 L772 1443 L1088 1443 L1284 836 L1302 836 L1749 1443 L2079 1443 L1382 519 L1272 0 L968 0 Z " />
</font>
</svg>
